<?xml version="1.0" encoding="UTF-8" standalone="no"?>
<svg
   version="1.1"
   width="100"
   height="100"
   id="svg4460"
   sodipodi:docname="abbaye-s.svg"
   inkscape:version="1.2.2 (732a01da63, 2022-12-09)"
   xmlns:inkscape="http://www.inkscape.org/namespaces/inkscape"
   xmlns:sodipodi="http://sodipodi.sourceforge.net/DTD/sodipodi-0.dtd"
   xmlns="http://www.w3.org/2000/svg"
   xmlns:svg="http://www.w3.org/2000/svg"
   xmlns:rdf="http://www.w3.org/1999/02/22-rdf-syntax-ns#"
   xmlns:cc="http://creativecommons.org/ns#"
   xmlns:dc="http://purl.org/dc/elements/1.1/">
  <sodipodi:namedview
     pagecolor="#ffffff"
     bordercolor="#666666"
     borderopacity="1"
     objecttolerance="10"
     gridtolerance="10"
     guidetolerance="10"
     inkscape:pageopacity="0"
     inkscape:pageshadow="2"
     inkscape:window-width="1920"
     inkscape:window-height="1009"
     id="namedview11"
     showgrid="true"
     inkscape:zoom="5.6568542"
     inkscape:cx="8.7504465"
     inkscape:cy="46.845825"
     inkscape:window-x="-8"
     inkscape:window-y="-8"
     inkscape:window-maximized="1"
     inkscape:current-layer="text5282"
     inkscape:document-rotation="0"
     inkscape:pagecheckerboard="0"
     showguides="true"
     inkscape:guide-bbox="true"
     inkscape:showpageshadow="0"
     inkscape:deskcolor="#d1d1d1">
    <inkscape:grid
       type="xygrid"
       id="grid823"
       originx="0"
       originy="0" />
    <sodipodi:guide
       position="0,86"
       orientation="66,0"
       id="guide957"
       inkscape:locked="false" />
    <sodipodi:guide
       position="0,20"
       orientation="0,50"
       id="guide959"
       inkscape:locked="false" />
    <sodipodi:guide
       position="50,86"
       orientation="0,-50"
       id="guide963"
       inkscape:locked="false" />
    <sodipodi:guide
       position="8.9999971,64.32985"
       orientation="8.5387222,0"
       id="guide1517"
       inkscape:locked="false" />
    <sodipodi:guide
       position="8.9999971,55.791128"
       orientation="0,26.227758"
       id="guide1519"
       inkscape:locked="false" />
    <sodipodi:guide
       position="35,93.437165"
       orientation="-8.5387222,0"
       id="guide1521"
       inkscape:locked="false" />
    <sodipodi:guide
       position="35.227755,64.32985"
       orientation="0,-26.227758"
       id="guide1523"
       inkscape:locked="false" />
    <sodipodi:guide
       position="1.0752196,74.999813"
       orientation="0,6.8495616"
       id="guide4058"
       inkscape:locked="false" />
  </sodipodi:namedview>
  <defs
     id="defs4462" />
  <metadata
     id="metadata4465">
    <rdf:RDF>
      <cc:Work
         rdf:about="">
        <dc:format>image/svg+xml</dc:format>
        <dc:type
           rdf:resource="http://purl.org/dc/dcmitype/StillImage" />
      </cc:Work>
    </rdf:RDF>
  </metadata>
  <g
     aria-label="C"
     id="text3215"
     style="font-size:32px;line-height:1.25"
     transform="translate(-37.75,-4)">
    <g
       aria-label="A"
       id="text5282"
       transform="matrix(1.6290909,0,0,2.8292029,-41.002727,-68.776958)">
      <path
         id="path1869"
         style="font-size:32px;line-height:1.25;fill:#666666;stroke-width:0.832026"
         d="m 55.085935,59.357791 c -2.643828,-0.943264 0.839848,-1.401893 9.254083,-1.218325 l 8.798291,0.191966 -1.723592,-1.918998 c -2.986309,-3.324879 -1.519916,-6.939018 3.331692,-8.211751 2.723799,-0.71454 3.041016,-1.324887 1.929261,-3.713247 -0.491914,-1.056634 -1.471033,-1.420476 -3.822863,-1.420476 -2.079413,0 -3.161611,-0.324148 -3.161611,-0.946977 0,-0.634455 1.101987,-0.946985 3.339185,-0.946985 3.190495,0 3.308816,-0.09378 2.653804,-2.103837 -0.641161,-1.966908 -0.447787,-2.142839 2.965731,-2.703028 3.021899,-0.495926 3.709624,-0.942171 3.989395,-2.589122 0.256618,-1.506975 -0.230146,-2.165144 -2.004615,-2.711814 -3.375215,-1.040021 -5.460939,-0.326265 -5.460939,1.868787 0,2.576248 -4.555294,3.371638 -7.988673,1.394873 -1.268588,-0.730379 -1.95557,-1.529981 -1.52669,-1.776899 0.428693,-0.246878 1.363546,-0.11275 2.077278,0.29811 2.552791,1.469792 5.086603,0.863175 5.449779,-1.304725 0.300003,-1.795325 0.780943,-2.076181 3.84263,-2.24685 2.399484,-0.133749 4.208521,0.213431 5.756672,1.104809 3.70155,2.131099 2.630581,6.745376 -1.711086,7.372764 -3.879704,0.560633 -3.694033,3.396919 0.222026,3.396919 3.411988,0 3.070225,1.481509 -0.409553,1.776904 -1.990069,0.168932 -2.244854,0.499156 -1.704405,2.209629 0.349999,1.106057 1.421896,2.295116 2.38322,2.642339 0.961185,0.347223 3.189265,1.428423 4.95109,2.402657 2.93346,1.622066 3.149199,2.034791 2.560377,4.897497 l -0.643388,3.126152 6.315495,-0.275628 c 5.789851,-0.252679 10.268151,0.340068 8.829041,1.168631 -0.895,0.515237 -47.07946,0.740586 -48.492099,0.236633 z m 27.55507,-1.823226 c 7.855434,-1.576631 4.887359,-8.154404 -3.679626,-8.154404 -3.034473,0 -4.047998,0.352684 -5.427483,1.888513 -2.039834,2.271088 -1.224253,4.713773 2.009185,6.017724 2.76317,1.114326 2.77948,1.114894 7.097924,0.24815 z" />
    </g>
  </g>
</svg>
