<?xml version="1.0" encoding="UTF-8" standalone="no"?>
<svg
   version="1.1"
   width="100"
   height="100"
   id="svg4460"
   sodipodi:docname="uEA28-paroisse-s.svg"
   inkscape:version="1.2.2 (732a01da63, 2022-12-09)"
   xmlns:inkscape="http://www.inkscape.org/namespaces/inkscape"
   xmlns:sodipodi="http://sodipodi.sourceforge.net/DTD/sodipodi-0.dtd"
   xmlns="http://www.w3.org/2000/svg"
   xmlns:svg="http://www.w3.org/2000/svg"
   xmlns:rdf="http://www.w3.org/1999/02/22-rdf-syntax-ns#"
   xmlns:cc="http://creativecommons.org/ns#"
   xmlns:dc="http://purl.org/dc/elements/1.1/">
  <sodipodi:namedview
     pagecolor="#ffffff"
     bordercolor="#666666"
     borderopacity="1"
     objecttolerance="10"
     gridtolerance="10"
     guidetolerance="10"
     inkscape:pageopacity="0"
     inkscape:pageshadow="2"
     inkscape:window-width="1920"
     inkscape:window-height="1009"
     id="namedview11"
     showgrid="true"
     inkscape:zoom="2.8284271"
     inkscape:cx="-82.554717"
     inkscape:cy="15.556349"
     inkscape:window-x="-8"
     inkscape:window-y="-8"
     inkscape:window-maximized="1"
     inkscape:current-layer="text5282"
     inkscape:document-rotation="0"
     inkscape:pagecheckerboard="0"
     showguides="true"
     inkscape:guide-bbox="true"
     inkscape:showpageshadow="0"
     inkscape:deskcolor="#d1d1d1">
    <inkscape:grid
       type="xygrid"
       id="grid823"
       originx="0"
       originy="0" />
    <sodipodi:guide
       position="0,86"
       orientation="66,0"
       id="guide957"
       inkscape:locked="false" />
    <sodipodi:guide
       position="0,20"
       orientation="0,50"
       id="guide959"
       inkscape:locked="false" />
    <sodipodi:guide
       position="50,86"
       orientation="0,-50"
       id="guide963"
       inkscape:locked="false" />
    <sodipodi:guide
       position="8.9999971,64.32985"
       orientation="8.5387222,0"
       id="guide1517"
       inkscape:locked="false" />
    <sodipodi:guide
       position="8.9999971,55.791128"
       orientation="0,26.227758"
       id="guide1519"
       inkscape:locked="false" />
    <sodipodi:guide
       position="35,93.437165"
       orientation="-8.5387222,0"
       id="guide1521"
       inkscape:locked="false" />
    <sodipodi:guide
       position="35.227755,64.32985"
       orientation="0,-26.227758"
       id="guide1523"
       inkscape:locked="false" />
    <sodipodi:guide
       position="1.0752196,74.999813"
       orientation="0,6.8495616"
       id="guide4058"
       inkscape:locked="false" />
  </sodipodi:namedview>
  <defs
     id="defs4462" />
  <metadata
     id="metadata4465">
    <rdf:RDF>
      <cc:Work
         rdf:about="">
        <dc:format>image/svg+xml</dc:format>
        <dc:type
           rdf:resource="http://purl.org/dc/dcmitype/StillImage" />
      </cc:Work>
    </rdf:RDF>
  </metadata>
  <g
     aria-label="C"
     id="text3215"
     style="font-size:32px;line-height:1.25"
     transform="translate(-37.75,-4)">
    <g
       aria-label="A"
       id="text5282"
       transform="matrix(1.6290909,0,0,2.8292029,-41.002727,-68.776958)">
      <path
         id="path2255"
         style="font-size:32px;line-height:1.25;fill:#666666;stroke-width:0.832026"
         d="m 73.309915,31.858577 c -0.703666,0.01288 -1.339177,0.691766 -1.339177,2.027542 0,2.092704 0.195609,1.891545 -2.847399,1.891545 -2.193138,0 -3.289795,0.31583 -3.289795,0.947153 0,0.661403 1.157329,0.947152 3.837694,0.947152 h 2.282715 c 0.460171,0.635158 0.451166,1.80807 0.894383,3.793444 l 0.941141,4.220767 -3.957585,1.999928 c -4.444765,2.246869 -5.105453,4.441282 -2.283914,7.582746 1.844253,2.053285 1.916783,2.024153 -4.688917,1.873595 -3.53882,-0.08066 -4.660143,0.126992 -4.660143,0.862931 0,0.774866 1.813948,1.014427 9.046936,1.193606 4.975423,0.122989 10.033578,0.13832 11.239733,0.03383 1.206248,-0.104457 6.510514,-0.194119 11.787632,-0.198819 8.004538,-0.0072 9.594828,-0.173487 9.594828,-1.005142 0,-0.836732 -1.29832,-0.963416 -8.086605,-0.789063 l -8.085415,0.207793 0.559889,-2.389282 C 84.947815,52.10315 81.791913,47.754642 78.419647,47.016474 76.40754,46.576022 75.927511,45.813145 75.279715,42.030115 74.949379,40.101124 74.855651,38.276137 75.011161,37.411019 h 3.376116 c 2.337487,0 3.451647,-0.305241 3.451647,-0.946462 0,-0.626563 -1.088304,-0.947153 -3.216662,-0.947153 -2.668677,0 -3.275655,-0.287029 -3.563145,-1.687202 -0.273635,-1.330752 -1.045537,-1.984508 -1.749202,-1.971625 z m 1.373945,16.033944 c 0.660541,0.01028 1.342992,0.295859 2.540479,0.805633 4.338785,1.847416 6.142593,4.870892 4.43355,7.435011 -0.953227,1.430243 -8.346203,1.327777 -10.665457,-0.147734 -0.99095,-0.630428 -2.089967,-1.979964 -2.44217,-2.998857 -0.518385,-1.500333 -0.01643,-2.195208 2.63879,-3.656755 1.831388,-1.008081 2.64554,-1.450512 3.494808,-1.437298 z" />
    </g>
  </g>
</svg>
