<?xml version="1.0" encoding="UTF-8" standalone="no"?>
<svg
   version="1.1"
   width="100"
   height="100"
   id="svg4460"
   sodipodi:docname="paroisse-protegee-p.svg"
   inkscape:version="1.2.2 (732a01da63, 2022-12-09)"
   xmlns:inkscape="http://www.inkscape.org/namespaces/inkscape"
   xmlns:sodipodi="http://sodipodi.sourceforge.net/DTD/sodipodi-0.dtd"
   xmlns="http://www.w3.org/2000/svg"
   xmlns:svg="http://www.w3.org/2000/svg"
   xmlns:rdf="http://www.w3.org/1999/02/22-rdf-syntax-ns#"
   xmlns:cc="http://creativecommons.org/ns#"
   xmlns:dc="http://purl.org/dc/elements/1.1/">
  <sodipodi:namedview
     pagecolor="#ffffff"
     bordercolor="#666666"
     borderopacity="1"
     objecttolerance="10"
     gridtolerance="10"
     guidetolerance="10"
     inkscape:pageopacity="0"
     inkscape:pageshadow="2"
     inkscape:window-width="1920"
     inkscape:window-height="1009"
     id="namedview11"
     showgrid="true"
     inkscape:zoom="5.6568542"
     inkscape:cx="0.44194174"
     inkscape:cy="79.019184"
     inkscape:window-x="-8"
     inkscape:window-y="-8"
     inkscape:window-maximized="1"
     inkscape:current-layer="text5282"
     inkscape:document-rotation="0"
     inkscape:pagecheckerboard="0"
     showguides="true"
     inkscape:guide-bbox="true"
     inkscape:showpageshadow="0"
     inkscape:deskcolor="#d1d1d1">
    <inkscape:grid
       type="xygrid"
       id="grid823"
       originx="0"
       originy="0" />
    <sodipodi:guide
       position="0,86"
       orientation="66,0"
       id="guide957"
       inkscape:locked="false" />
    <sodipodi:guide
       position="0,20"
       orientation="0,50"
       id="guide959"
       inkscape:locked="false" />
    <sodipodi:guide
       position="50,86"
       orientation="0,-50"
       id="guide963"
       inkscape:locked="false" />
    <sodipodi:guide
       position="8.9999971,64.32985"
       orientation="8.5387222,0"
       id="guide1517"
       inkscape:locked="false" />
    <sodipodi:guide
       position="8.9999971,55.791128"
       orientation="0,26.227758"
       id="guide1519"
       inkscape:locked="false" />
    <sodipodi:guide
       position="35,93.437165"
       orientation="-8.5387222,0"
       id="guide1521"
       inkscape:locked="false" />
    <sodipodi:guide
       position="35.227755,64.32985"
       orientation="0,-26.227758"
       id="guide1523"
       inkscape:locked="false" />
    <sodipodi:guide
       position="1.0752196,74.999813"
       orientation="0,6.8495616"
       id="guide4058"
       inkscape:locked="false" />
  </sodipodi:namedview>
  <defs
     id="defs4462" />
  <metadata
     id="metadata4465">
    <rdf:RDF>
      <cc:Work
         rdf:about="">
        <dc:format>image/svg+xml</dc:format>
        <dc:type
           rdf:resource="http://purl.org/dc/dcmitype/StillImage" />
      </cc:Work>
    </rdf:RDF>
  </metadata>
  <g
     aria-label="C"
     id="text3215"
     style="font-size:32px;line-height:1.25"
     transform="translate(-37.75,-4)">
    <g
       aria-label="A"
       id="text5282"
       transform="matrix(1.6290909,0,0,2.8292029,-41.002727,-68.776958)">
      <path
         id="path1873"
         style="font-size:32px;line-height:1.25;fill:#666666;stroke-width:0.832026"
         d="m 56.068893,59.877028 c -1.385749,-1.290867 0.442637,-1.570022 8.943942,-1.36574 l 8.296748,0.199333 -1.778668,-1.462032 c -3.664545,-3.012213 -1.22706,-7.452583 4.749388,-8.652096 2.930072,-0.588081 3.066698,-0.782731 2.582579,-3.677334 -0.782868,-4.680918 -0.976033,-4.842764 -5.292273,-4.43951 -2.864044,0.267582 -3.818363,0.13184 -3.818363,-0.543084 0,-0.556906 1.620583,-1.04903 4.252416,-1.291325 3.483143,-0.320675 4.154256,-0.607527 3.709902,-1.585767 -0.397049,-0.874611 -1.535438,-1.194263 -4.252416,-1.194263 -2.153584,0 -3.775419,-0.331048 -3.866016,-0.789153 -0.818086,-4.132712 -0.587499,-5.054494 1.620304,-6.474664 5.161447,-3.32073 12.332822,-2.095547 15.003423,2.563216 1.446743,2.524052 0.139665,4.06928 -3.44354,4.06928 -1.465071,0 -2.058811,0.45517 -2.058811,1.578298 0,1.382905 0.475001,1.578308 3.837851,1.578308 2.680368,0 3.837804,0.285577 3.837804,0.946977 0,0.667805 -1.173166,0.946985 -3.979488,0.946985 H 80.43421 l 0.767719,3.945757 c 0.422058,2.170165 1.219404,4.039185 1.771685,4.153377 3.828733,0.791559 5.902416,2.635527 5.899098,5.245413 -0.0022,1.514774 -0.42352,3.272282 -0.9378,3.905561 -0.861679,1.061685 -0.350717,1.139242 6.551976,0.995153 4.969558,-0.103732 7.630642,0.09284 7.915422,0.584716 0.31764,0.548752 -4.679478,0.740976 -19.262814,0.740976 -10.830492,0 -21.174011,0.170669 -22.985391,0.379231 -1.999628,0.230282 -3.60448,0.08972 -4.084771,-0.35768 z m 28.991999,-3.297243 c 2.741083,-1.693996 2.834696,-3.121487 0.316172,-4.834666 -4.333314,-2.948425 -11.366741,-1.91497 -12.932478,1.900221 -1.496252,3.645855 7.920279,5.836152 12.615633,2.934445 z M 77.427948,32.355704 c 0,-0.916273 0.475002,-1.446675 1.096466,-1.225381 0.602951,0.214616 1.096559,0.9416 1.096559,1.615561 0,1.336213 0.822703,1.505794 3.163884,0.652157 2.252115,-0.82117 0.591165,-3.750945 -2.600954,-4.58837 -3.860726,-1.012771 -8.238586,0.731323 -8.238586,3.282185 0,1.583828 0.431617,1.879414 2.741316,1.879414 2.209937,0 2.741315,-0.313181 2.741315,-1.615566 z" />
    </g>
  </g>
</svg>
