<?xml version="1.0" encoding="UTF-8" standalone="no"?>
<svg
   version="1.1"
   width="100"
   height="100"
   id="svg4460"
   sodipodi:docname="Prieure-p.svg"
   inkscape:version="1.2.2 (732a01da63, 2022-12-09)"
   xmlns:inkscape="http://www.inkscape.org/namespaces/inkscape"
   xmlns:sodipodi="http://sodipodi.sourceforge.net/DTD/sodipodi-0.dtd"
   xmlns="http://www.w3.org/2000/svg"
   xmlns:svg="http://www.w3.org/2000/svg"
   xmlns:rdf="http://www.w3.org/1999/02/22-rdf-syntax-ns#"
   xmlns:cc="http://creativecommons.org/ns#"
   xmlns:dc="http://purl.org/dc/elements/1.1/">
  <sodipodi:namedview
     pagecolor="#ffffff"
     bordercolor="#666666"
     borderopacity="1"
     objecttolerance="10"
     gridtolerance="10"
     guidetolerance="10"
     inkscape:pageopacity="0"
     inkscape:pageshadow="2"
     inkscape:window-width="1920"
     inkscape:window-height="1009"
     id="namedview11"
     showgrid="true"
     inkscape:zoom="2.8284271"
     inkscape:cx="-44.37095"
     inkscape:cy="70.357124"
     inkscape:window-x="-8"
     inkscape:window-y="-8"
     inkscape:window-maximized="1"
     inkscape:current-layer="text5282"
     inkscape:document-rotation="0"
     inkscape:pagecheckerboard="0"
     showguides="true"
     inkscape:guide-bbox="true"
     inkscape:showpageshadow="0"
     inkscape:deskcolor="#d1d1d1">
    <inkscape:grid
       type="xygrid"
       id="grid823"
       originx="0"
       originy="0" />
    <sodipodi:guide
       position="0,86"
       orientation="66,0"
       id="guide957"
       inkscape:locked="false" />
    <sodipodi:guide
       position="0,20"
       orientation="0,50"
       id="guide959"
       inkscape:locked="false" />
    <sodipodi:guide
       position="50,86"
       orientation="0,-50"
       id="guide963"
       inkscape:locked="false" />
    <sodipodi:guide
       position="8.9999971,64.32985"
       orientation="8.5387222,0"
       id="guide1517"
       inkscape:locked="false" />
    <sodipodi:guide
       position="8.9999971,55.791128"
       orientation="0,26.227758"
       id="guide1519"
       inkscape:locked="false" />
    <sodipodi:guide
       position="35,93.437165"
       orientation="-8.5387222,0"
       id="guide1521"
       inkscape:locked="false" />
    <sodipodi:guide
       position="35.227755,64.32985"
       orientation="0,-26.227758"
       id="guide1523"
       inkscape:locked="false" />
    <sodipodi:guide
       position="1.0752196,74.999813"
       orientation="0,6.8495616"
       id="guide4058"
       inkscape:locked="false" />
  </sodipodi:namedview>
  <defs
     id="defs4462" />
  <metadata
     id="metadata4465">
    <rdf:RDF>
      <cc:Work
         rdf:about="">
        <dc:format>image/svg+xml</dc:format>
        <dc:type
           rdf:resource="http://purl.org/dc/dcmitype/StillImage" />
      </cc:Work>
    </rdf:RDF>
  </metadata>
  <g
     aria-label="C"
     id="text3215"
     style="font-size:32px;line-height:1.25"
     transform="translate(-37.75,-4)">
    <g
       aria-label="A"
       id="text5282"
       transform="matrix(1.6290909,0,0,2.8292029,-41.002727,-68.776958)">
      <path
         id="path1879"
         style="font-size:32px;line-height:1.25;fill:#666666;stroke-width:0.832026"
         d="m 55.359914,59.476253 c 0,-0.536521 1.731154,-0.806737 5.20852,-0.812957 l 5.208497,-0.0094 4.660299,-5.351274 c 2.831309,-3.251205 4.660206,-6.220639 4.660206,-7.566539 0,-2.163598 -0.101385,-2.215273 -4.386095,-2.215273 -3.167782,0 -4.386096,-0.263052 -4.386096,-0.946977 0,-0.690313 1.26302,-0.952003 4.660206,-0.965488 l 4.660229,-0.01862 -3.473816,-1.820365 c -6.629928,-3.474051 -7.813302,-7.168787 -3.15523,-9.850697 5.539912,-3.189563 14.872922,-0.905987 14.836219,3.630099 -0.0232,2.753139 -1.331159,3.815595 -4.381386,3.556193 -2.771012,-0.235659 -5.335727,-2.079491 -3.978885,-2.860639 0.475744,-0.274188 1.335359,-0.01524 1.909123,0.574825 1.39278,1.432855 4.274897,0.722554 4.274897,-1.053552 0,-2.98375 -7.683427,-4.670572 -11.435252,-2.510497 -3.028371,1.743604 -2.09317,4.055733 2.662992,6.583776 2.412429,1.282236 4.386095,2.659067 4.386095,3.05963 0,0.400569 1.521471,0.728304 3.380946,0.728304 3.376468,0 4.215365,1.500729 0.915898,1.63729 -0.855067,0.03556 -2.171773,0.10762 -2.925664,0.160507 -0.787578,0.05525 -1.370577,0.987292 -1.370577,2.191009 0,1.49395 1.808597,3.666911 6.304986,7.575366 l 6.305056,5.480514 6.304986,4.9e-4 c 6.152632,4.7e-4 9.274172,1.230535 3.289629,1.296229 -33.497505,0.367757 -44.135203,0.249122 -44.135203,-0.492096 z m 28.956688,-2.85544 c -2.273738,-2.58845 -6.880653,-6.155377 -7.949975,-6.155377 -0.888383,0 -6.751752,6.591545 -6.751752,7.589833 0,0.347562 3.606312,0.617337 8.252111,0.617337 h 8.252042 z" />
    </g>
  </g>
</svg>
