<?xml version="1.0" encoding="UTF-8" standalone="no"?>
<svg
   version="1.1"
   width="100"
   height="100"
   id="svg4460"
   sodipodi:docname="chapelle-s.svg"
   inkscape:version="1.2.2 (732a01da63, 2022-12-09)"
   xmlns:inkscape="http://www.inkscape.org/namespaces/inkscape"
   xmlns:sodipodi="http://sodipodi.sourceforge.net/DTD/sodipodi-0.dtd"
   xmlns="http://www.w3.org/2000/svg"
   xmlns:svg="http://www.w3.org/2000/svg"
   xmlns:rdf="http://www.w3.org/1999/02/22-rdf-syntax-ns#"
   xmlns:cc="http://creativecommons.org/ns#"
   xmlns:dc="http://purl.org/dc/elements/1.1/">
  <sodipodi:namedview
     pagecolor="#ffffff"
     bordercolor="#666666"
     borderopacity="1"
     objecttolerance="10"
     gridtolerance="10"
     guidetolerance="10"
     inkscape:pageopacity="0"
     inkscape:pageshadow="2"
     inkscape:window-width="1920"
     inkscape:window-height="1009"
     id="namedview11"
     showgrid="true"
     inkscape:zoom="2.8284271"
     inkscape:cx="-31.996582"
     inkscape:cy="-1.767767"
     inkscape:window-x="-8"
     inkscape:window-y="-8"
     inkscape:window-maximized="1"
     inkscape:current-layer="text5282"
     inkscape:document-rotation="0"
     inkscape:pagecheckerboard="0"
     showguides="true"
     inkscape:guide-bbox="true"
     inkscape:showpageshadow="0"
     inkscape:deskcolor="#d1d1d1">
    <inkscape:grid
       type="xygrid"
       id="grid823"
       originx="0"
       originy="0" />
    <sodipodi:guide
       position="0,86"
       orientation="66,0"
       id="guide957"
       inkscape:locked="false" />
    <sodipodi:guide
       position="0,20"
       orientation="0,50"
       id="guide959"
       inkscape:locked="false" />
    <sodipodi:guide
       position="50,86"
       orientation="0,-50"
       id="guide963"
       inkscape:locked="false" />
    <sodipodi:guide
       position="8.9999971,64.32985"
       orientation="8.5387222,0"
       id="guide1517"
       inkscape:locked="false" />
    <sodipodi:guide
       position="8.9999971,55.791128"
       orientation="0,26.227758"
       id="guide1519"
       inkscape:locked="false" />
    <sodipodi:guide
       position="35,93.437165"
       orientation="-8.5387222,0"
       id="guide1521"
       inkscape:locked="false" />
    <sodipodi:guide
       position="35.227755,64.32985"
       orientation="0,-26.227758"
       id="guide1523"
       inkscape:locked="false" />
    <sodipodi:guide
       position="1.0752196,74.999813"
       orientation="0,6.8495616"
       id="guide4058"
       inkscape:locked="false" />
  </sodipodi:namedview>
  <defs
     id="defs4462" />
  <metadata
     id="metadata4465">
    <rdf:RDF>
      <cc:Work
         rdf:about="">
        <dc:format>image/svg+xml</dc:format>
        <dc:type
           rdf:resource="http://purl.org/dc/dcmitype/StillImage" />
      </cc:Work>
    </rdf:RDF>
  </metadata>
  <g
     aria-label="C"
     id="text3215"
     style="font-size:32px;line-height:1.25"
     transform="translate(-37.75,-4)">
    <g
       aria-label="A"
       id="text5282"
       transform="matrix(1.6290909,0,0,2.8292029,-41.002727,-68.776958)">
      <path
         id="path1865"
         style="font-size:32px;line-height:1.25;fill:#666666;stroke-width:0.832026"
         d="m 53.813352,58.387876 c 0,-0.635022 1.949863,-0.853311 7.62204,-0.853311 h 7.622039 l 3.891467,-4.006428 c 3.512653,-3.616315 3.891605,-4.476921 3.891605,-8.838489 v -4.832073 h -3.83792 c -2.680368,0 -3.837781,-0.285577 -3.837781,-0.946981 0,-0.631323 1.096466,-0.946982 3.289606,-0.946982 3.043011,0 3.28949,-0.169526 3.28949,-2.262232 0,-2.671556 2.541028,-2.718065 3.088298,-0.05656 0.287497,1.400175 0.894995,1.68745 3.563671,1.68745 2.128365,0 3.216757,0.320422 3.216757,0.946985 0,0.641222 -1.114562,0.946977 -3.452054,0.946977 h -3.452054 l 0.686031,5.122168 0.68603,5.122164 6.148361,4.031993 c 6.134557,4.022965 6.161609,4.031987 12.086527,4.031987 3.265935,0 5.938145,0.284095 5.938145,0.631319 0,0.375082 -4.11654,0.632934 -10.142929,0.635293 -5.578517,0.0019 -16.927603,0.102076 -25.220013,0.222027 -12.122164,0.175283 -15.077246,0.05088 -15.077246,-0.635295 z m 33.992343,-1.167149 c 0,-0.548228 -7.893644,-5.368048 -8.791447,-5.368048 -0.976613,0 -5.463374,4.177384 -5.463374,5.086654 0,0.327366 3.207361,0.595232 7.127411,0.595232 3.920142,0 7.12741,-0.1412 7.12741,-0.313859 z" />
    </g>
  </g>
</svg>
