<?xml version="1.0" encoding="UTF-8" standalone="no"?>
<svg
   version="1.1"
   width="100"
   height="100"
   id="svg4460"
   sodipodi:docname="moulin-vent-bois-s.svg"
   inkscape:version="1.2.2 (732a01da63, 2022-12-09)"
   xmlns:inkscape="http://www.inkscape.org/namespaces/inkscape"
   xmlns:sodipodi="http://sodipodi.sourceforge.net/DTD/sodipodi-0.dtd"
   xmlns="http://www.w3.org/2000/svg"
   xmlns:svg="http://www.w3.org/2000/svg"
   xmlns:rdf="http://www.w3.org/1999/02/22-rdf-syntax-ns#"
   xmlns:cc="http://creativecommons.org/ns#"
   xmlns:dc="http://purl.org/dc/elements/1.1/">
  <sodipodi:namedview
     pagecolor="#ffffff"
     bordercolor="#666666"
     borderopacity="1"
     objecttolerance="10"
     gridtolerance="10"
     guidetolerance="10"
     inkscape:pageopacity="0"
     inkscape:pageshadow="2"
     inkscape:window-width="1920"
     inkscape:window-height="1009"
     id="namedview11"
     showgrid="true"
     inkscape:zoom="4"
     inkscape:cx="3.375"
     inkscape:cy="62.000001"
     inkscape:window-x="-8"
     inkscape:window-y="-8"
     inkscape:window-maximized="1"
     inkscape:current-layer="text5282"
     inkscape:document-rotation="0"
     inkscape:pagecheckerboard="0"
     showguides="true"
     inkscape:guide-bbox="true"
     inkscape:showpageshadow="0"
     inkscape:deskcolor="#d1d1d1">
    <inkscape:grid
       type="xygrid"
       id="grid823"
       originx="0"
       originy="0" />
    <sodipodi:guide
       position="0,86"
       orientation="66,0"
       id="guide957"
       inkscape:locked="false" />
    <sodipodi:guide
       position="0,20"
       orientation="0,50"
       id="guide959"
       inkscape:locked="false" />
    <sodipodi:guide
       position="50,86"
       orientation="0,-50"
       id="guide963"
       inkscape:locked="false" />
    <sodipodi:guide
       position="8.9999971,64.32985"
       orientation="8.5387222,0"
       id="guide1517"
       inkscape:locked="false" />
    <sodipodi:guide
       position="8.9999971,55.791128"
       orientation="0,26.227758"
       id="guide1519"
       inkscape:locked="false" />
    <sodipodi:guide
       position="35,93.437165"
       orientation="-8.5387222,0"
       id="guide1521"
       inkscape:locked="false" />
    <sodipodi:guide
       position="35.227755,64.32985"
       orientation="0,-26.227758"
       id="guide1523"
       inkscape:locked="false" />
    <sodipodi:guide
       position="1.0752196,74.999813"
       orientation="0,6.8495616"
       id="guide4058"
       inkscape:locked="false" />
  </sodipodi:namedview>
  <defs
     id="defs4462" />
  <metadata
     id="metadata4465">
    <rdf:RDF>
      <cc:Work
         rdf:about="">
        <dc:format>image/svg+xml</dc:format>
        <dc:type
           rdf:resource="http://purl.org/dc/dcmitype/StillImage" />
      </cc:Work>
    </rdf:RDF>
  </metadata>
  <g
     aria-label="C"
     id="text3215"
     style="font-size:32px;line-height:1.25"
     transform="translate(-37.75,-4)">
    <g
       aria-label="A"
       id="text5282"
       transform="matrix(1.6290909,0,0,2.8292029,-41.002727,-68.776958)">
      <path
         id="path677"
         style="font-size:32px;line-height:1.25;fill:#666666;stroke-width:0.832026"
         d="m 59.555169,58.957172 c 0.174234,-0.520813 1.005359,-0.947005 1.847573,-0.947005 0.896898,0 3.077719,-2.217511 5.262345,-5.349365 2.052199,-2.942182 4.124977,-5.641044 4.605871,-5.997542 0.480871,-0.356498 0.475001,-2.636837 -0.007,-5.067437 -0.488249,-2.43056 -0.912071,-5.107954 -0.943461,-5.949744 l -0.05893,-1.530552 -2.537803,1.372716 c -1.395865,0.754942 -2.876318,1.372675 -3.28963,1.372675 -1.421245,0 -0.750573,-2.371366 0.893093,-3.156594 2.505299,-1.197179 1.994709,-2.275008 -1.91896,-4.050831 -3.223973,-1.462943 -3.334708,-1.617733 -1.161334,-1.624092 1.321485,-0.004 2.707513,0.276905 3.080294,0.624332 1.04698,0.975366 3.837781,0.745805 3.837781,-0.315847 0,-1.423399 1.85045,-1.138238 2.545668,0.39206 l 0.608078,1.339185 3.057117,-1.384485 c 2.157435,-0.977103 3.191701,-1.151999 3.514486,-0.594355 0.25221,0.434354 -0.84653,1.388974 -2.440873,2.120806 -2.735283,1.255731 -3.882418,2.844715 -2.076025,2.875548 2.019255,0.03393 6.011665,2.394317 5.250512,3.103452 -0.597058,0.555694 -1.539868,0.376817 -3.442936,-0.652453 -1.441778,-0.779791 -2.910654,-1.251283 -3.264202,-1.047718 -1.031088,0.593673 1.353246,10.392969 2.753449,11.316128 2.983618,1.96691 10.059316,7.73226 12.273963,10.000829 2.057187,2.107433 2.997399,2.482473 6.631366,2.644879 2.328816,0.103799 4.102195,0.473228 3.940814,0.820709 -0.181658,0.39079 -7.717045,0.631319 -19.784224,0.631319 -16.73481,0 -19.445988,-0.134218 -19.17422,-0.947005 z m 27.151339,-1.177501 c 0,-0.300176 -2.009626,-2.217925 -4.46595,-4.261382 -2.456254,-2.043364 -5.042128,-4.212475 -5.746464,-4.820135 -2.326008,-2.006947 -2.615872,-1.792803 -8.891231,6.566448 -0.951766,1.267808 -1.730435,2.475193 -1.730435,2.683165 0,0.207879 4.687721,0.378086 10.41704,0.378086 5.729319,0 10.41704,-0.245565 10.41704,-0.545968 z" />
    </g>
  </g>
</svg>
