<?xml version="1.0" encoding="UTF-8" standalone="no"?>
<svg
   version="1.1"
   width="100"
   height="100"
   id="svg4460"
   sodipodi:docname="paroisse-chateau-s.svg"
   inkscape:version="1.2.2 (732a01da63, 2022-12-09)"
   xmlns:inkscape="http://www.inkscape.org/namespaces/inkscape"
   xmlns:sodipodi="http://sodipodi.sourceforge.net/DTD/sodipodi-0.dtd"
   xmlns="http://www.w3.org/2000/svg"
   xmlns:svg="http://www.w3.org/2000/svg"
   xmlns:rdf="http://www.w3.org/1999/02/22-rdf-syntax-ns#"
   xmlns:cc="http://creativecommons.org/ns#"
   xmlns:dc="http://purl.org/dc/elements/1.1/">
  <sodipodi:namedview
     pagecolor="#ffffff"
     bordercolor="#666666"
     borderopacity="1"
     objecttolerance="10"
     gridtolerance="10"
     guidetolerance="10"
     inkscape:pageopacity="0"
     inkscape:pageshadow="2"
     inkscape:window-width="1920"
     inkscape:window-height="1009"
     id="namedview11"
     showgrid="true"
     inkscape:zoom="4"
     inkscape:cx="3.375"
     inkscape:cy="62.000001"
     inkscape:window-x="-8"
     inkscape:window-y="-8"
     inkscape:window-maximized="1"
     inkscape:current-layer="text5282"
     inkscape:document-rotation="0"
     inkscape:pagecheckerboard="0"
     showguides="true"
     inkscape:guide-bbox="true"
     inkscape:showpageshadow="0"
     inkscape:deskcolor="#d1d1d1">
    <inkscape:grid
       type="xygrid"
       id="grid823"
       originx="0"
       originy="0" />
    <sodipodi:guide
       position="0,86"
       orientation="66,0"
       id="guide957"
       inkscape:locked="false" />
    <sodipodi:guide
       position="0,20"
       orientation="0,50"
       id="guide959"
       inkscape:locked="false" />
    <sodipodi:guide
       position="50,86"
       orientation="0,-50"
       id="guide963"
       inkscape:locked="false" />
    <sodipodi:guide
       position="8.9999971,64.32985"
       orientation="8.5387222,0"
       id="guide1517"
       inkscape:locked="false" />
    <sodipodi:guide
       position="8.9999971,55.791128"
       orientation="0,26.227758"
       id="guide1519"
       inkscape:locked="false" />
    <sodipodi:guide
       position="35,93.437165"
       orientation="-8.5387222,0"
       id="guide1521"
       inkscape:locked="false" />
    <sodipodi:guide
       position="35.227755,64.32985"
       orientation="0,-26.227758"
       id="guide1523"
       inkscape:locked="false" />
    <sodipodi:guide
       position="1.0752196,74.999813"
       orientation="0,6.8495616"
       id="guide4058"
       inkscape:locked="false" />
  </sodipodi:namedview>
  <defs
     id="defs4462" />
  <metadata
     id="metadata4465">
    <rdf:RDF>
      <cc:Work
         rdf:about="">
        <dc:format>image/svg+xml</dc:format>
        <dc:type
           rdf:resource="http://purl.org/dc/dcmitype/StillImage" />
      </cc:Work>
    </rdf:RDF>
  </metadata>
  <g
     aria-label="C"
     id="text3215"
     style="font-size:32px;line-height:1.25"
     transform="translate(-37.75,-4)">
    <g
       aria-label="A"
       id="text5282"
       transform="matrix(1.6290909,0,0,2.8292029,-41.002727,-68.776958)">
      <path
         id="path1459"
         style="font-size:32px;line-height:1.25;fill:#666666;stroke-width:0.832026"
         d="m 51.620303,58.493604 c 0,-0.86788 1.32928,-1.035842 8.196756,-1.035842 H 68.014 l -1.118924,-1.694374 c -1.381434,-2.09195 0.45317,-5.033424 3.484094,-5.587355 2.172585,-0.396975 2.924968,-3.073822 1.051481,-3.740475 -0.562443,-0.200345 -3.035657,0.03513 -5.494603,0.52263 -2.459038,0.487777 -4.668581,0.702803 -4.910002,0.477864 -0.849361,-0.791506 2.376283,-2.601809 6.332199,-3.553449 2.753566,-0.662419 3.999626,-1.364448 3.999626,-2.253578 0,-0.710284 0.442707,-1.133738 0.984757,-0.941003 0.54154,0.192727 1.332621,2.344602 1.757858,4.781935 0.594784,3.4127 1.283599,4.637465 2.994337,5.327349 2.028813,0.818145 2.529637,0.707773 5.773237,-1.272403 1.953505,-1.192543 4.37946,-2.168256 5.390943,-2.168256 1.455536,0 1.725656,-0.427982 1.294875,-2.051793 -0.29926,-1.128487 -1.122149,-4.395571 -1.828549,-7.260191 -1.255736,-5.09256 -1.351785,-5.2084 -4.322458,-5.2084 -1.689069,0 -3.31849,-0.42047 -3.669347,-0.946986 -0.47412,-0.710699 0.181426,-0.946977 2.623969,-0.946977 2.567522,0 3.2552,-0.277871 3.2552,-1.315255 0,-1.7222 2.629583,-1.232684 3.091708,0.575553 0.281257,1.101494 1.089854,1.371025 4.112008,1.371025 2.728115,0 3.761522,0.27948 3.761522,1.017238 0,0.822394 -0.742013,0.937116 -3.872767,0.598933 -3.615593,-0.390494 -3.837155,-0.321776 -3.333501,1.034556 0.296452,0.799065 1.115977,4.052234 1.820475,7.229247 1.106001,4.986797 1.626661,5.882891 3.809408,6.555449 3.047813,0.93911 5.308744,3.812707 4.417275,5.614273 -2.034264,4.111054 -2.219425,3.834469 2.567919,3.834469 2.45293,0 4.45992,0.284093 4.45992,0.631306 0,0.3474 -1.85031,0.635046 -4.11192,0.639588 -2.2616,0.004 -14.597533,0.186545 -27.413175,0.404296 -21.149278,0.359424 -23.301262,0.30035 -23.301262,-0.639588 z m 27.227251,-2.824036 c 0.81804,-3.326921 -7.802375,-5.297759 -9.756437,-2.230469 -1.355497,2.127565 1.699811,4.133069 5.935824,3.896308 2.665288,-0.148939 3.541282,-0.530926 3.820613,-1.665839 z m 4.572045,1.156875 c 0,-0.347227 -0.493075,-0.631319 -1.096512,-0.631319 -0.603299,0 -1.096489,0.284092 -1.096489,0.631319 0,0.347227 0.493074,0.631319 1.096489,0.631319 0.603321,0 1.096512,-0.284092 1.096512,-0.631319 z m 11.448174,-0.589732 c 3.123145,-1.986909 2.775025,-5.005679 -0.754378,-6.546651 -3.725237,-1.626256 -8.135948,-0.973562 -10.616655,1.57103 -1.431501,1.468393 -1.438159,1.890964 -0.0573,3.380665 2.625407,2.824356 8.256891,3.610532 11.42509,1.594956 z" />
    </g>
  </g>
</svg>
