<?xml version="1.0" encoding="UTF-8" standalone="no"?>
<svg
   version="1.1"
   width="100"
   height="100"
   id="svg4460"
   sodipodi:docname="bataille-gagnee.svg"
   inkscape:version="1.2.2 (732a01da63, 2022-12-09)"
   xmlns:inkscape="http://www.inkscape.org/namespaces/inkscape"
   xmlns:sodipodi="http://sodipodi.sourceforge.net/DTD/sodipodi-0.dtd"
   xmlns="http://www.w3.org/2000/svg"
   xmlns:svg="http://www.w3.org/2000/svg"
   xmlns:rdf="http://www.w3.org/1999/02/22-rdf-syntax-ns#"
   xmlns:cc="http://creativecommons.org/ns#"
   xmlns:dc="http://purl.org/dc/elements/1.1/">
  <sodipodi:namedview
     pagecolor="#ffffff"
     bordercolor="#666666"
     borderopacity="1"
     objecttolerance="10"
     gridtolerance="10"
     guidetolerance="10"
     inkscape:pageopacity="0"
     inkscape:pageshadow="2"
     inkscape:window-width="1920"
     inkscape:window-height="1009"
     id="namedview11"
     showgrid="true"
     inkscape:zoom="4.0000002"
     inkscape:cx="-38.124998"
     inkscape:cy="62.249997"
     inkscape:window-x="-8"
     inkscape:window-y="-8"
     inkscape:window-maximized="1"
     inkscape:current-layer="text5282"
     inkscape:document-rotation="0"
     inkscape:pagecheckerboard="0"
     showguides="true"
     inkscape:guide-bbox="true"
     inkscape:showpageshadow="0"
     inkscape:deskcolor="#d1d1d1">
    <inkscape:grid
       type="xygrid"
       id="grid823"
       originx="0"
       originy="0" />
    <sodipodi:guide
       position="0,86"
       orientation="66,0"
       id="guide957"
       inkscape:locked="false" />
    <sodipodi:guide
       position="0,20"
       orientation="0,50"
       id="guide959"
       inkscape:locked="false" />
    <sodipodi:guide
       position="50,86"
       orientation="0,-50"
       id="guide963"
       inkscape:locked="false" />
    <sodipodi:guide
       position="8.9999971,64.32985"
       orientation="8.5387222,0"
       id="guide1517"
       inkscape:locked="false" />
    <sodipodi:guide
       position="8.9999971,55.791128"
       orientation="0,26.227758"
       id="guide1519"
       inkscape:locked="false" />
    <sodipodi:guide
       position="35,93.437165"
       orientation="-8.5387222,0"
       id="guide1521"
       inkscape:locked="false" />
    <sodipodi:guide
       position="35.227755,64.32985"
       orientation="0,-26.227758"
       id="guide1523"
       inkscape:locked="false" />
    <sodipodi:guide
       position="7.9247812,20.000001"
       orientation="0,-6.8495616"
       id="guide4054"
       inkscape:locked="false" />
    <sodipodi:guide
       position="1.0752196,74.999813"
       orientation="0,6.8495616"
       id="guide4058"
       inkscape:locked="false" />
  </sodipodi:namedview>
  <defs
     id="defs4462" />
  <metadata
     id="metadata4465">
    <rdf:RDF>
      <cc:Work
         rdf:about="">
        <dc:format>image/svg+xml</dc:format>
        <dc:type
           rdf:resource="http://purl.org/dc/dcmitype/StillImage" />
      </cc:Work>
    </rdf:RDF>
  </metadata>
  <g
     aria-label="C"
     id="text3215"
     style="font-size:32px;line-height:1.25"
     transform="translate(-37.75,-4)">
    <g
       aria-label="A"
       id="text5282"
       transform="matrix(1.6290909,0,0,2.8292029,-41.002727,-68.776958)">
      <path
         id="path937"
         style="font-size:32px;line-height:1.25;fill:#666666;stroke-width:0.262524"
         d="m 62.253781,54.674034 c -2.598054,-0.929879 -3.354103,-2.466015 -1.744054,-3.543698 0.968679,-0.648378 2.908079,-0.751696 3.947147,-0.210297 0.853397,0.444667 1.521726,0.423226 4.279653,-0.137223 2.304154,-0.468286 8.944058,-2.61971 8.944058,-2.898018 0,-0.08149 -0.57047,-0.381693 -1.26773,-0.667321 -0.987935,-0.404711 -1.411432,-0.475019 -1.918983,-0.318626 -0.479851,0.147924 -0.988121,0.105804 -1.930816,-0.15984 -2.269005,-0.639387 -2.425096,-2.19253 -0.279679,-2.781607 2.072755,-0.56908 3.994685,0.174548 4.008071,1.550804 0.007,0.473309 0.948147,1.054438 2.642135,1.627311 0.606407,0.205087 5.022036,-1.691661 8.388087,-3.603145 3.03923,-1.7259 6.965868,-4.542548 6.965868,-4.996754 0,-0.130784 0.367677,-0.660709 0.817089,-1.177461 0.736236,-0.846665 2.017561,-2.95995 2.924713,-4.823902 l 0.33935,-0.697179 0.03109,0.995979 c 0.01856,0.547799 -0.211354,1.488993 -0.507691,2.091563 -0.296475,0.60257 -0.664152,1.378767 -0.817297,1.724858 -0.79883,1.805307 -9.458407,9.140431 -13.175547,11.160363 -0.566039,0.307604 -1.029185,0.657996 -1.029185,0.778668 0,0.120632 0.61919,0.380143 1.375982,0.576627 1.103913,0.286591 1.477483,0.308713 1.889496,0.111815 0.806068,-0.38518 2.874206,0.09645 3.679625,0.856925 0.853328,0.805721 0.837667,1.144999 -0.08398,1.819561 -0.694081,0.508002 -0.888081,0.541065 -2.583925,0.440312 -1.424749,-0.08456 -2.163838,-0.01723 -3.314894,0.303142 -4.40447,1.225353 -10.537519,1.922865 -14.109612,1.604721 -1.545715,-0.137744 -2.097718,-0.105402 -2.94086,0.17193 -1.716538,0.564711 -3.313271,0.635394 -4.528429,0.200492 z M 75.504288,53.65127 c 2.556293,-0.207585 9.787873,-1.685009 9.787873,-1.999666 0,-0.09632 -0.827436,-0.686972 -1.838757,-1.312534 l -1.83878,-1.137357 -2.18444,0.879075 c -1.201447,0.483501 -2.670439,1.075585 -3.264458,1.315766 -1.120617,0.453097 -4.810172,1.31944 -6.612226,1.552621 -0.955826,0.123705 -1.542119,0.401758 -1.555065,0.737643 -0.0116,0.339292 3.069761,0.324691 7.505853,-0.03553 z" />
    </g>
  </g>
</svg>
