<?xml version="1.0" encoding="UTF-8" standalone="no"?>
<svg
   version="1.1"
   width="100"
   height="100"
   id="svg4460"
   sodipodi:docname="gibet.svg"
   inkscape:version="1.2.2 (732a01da63, 2022-12-09)"
   xmlns:inkscape="http://www.inkscape.org/namespaces/inkscape"
   xmlns:sodipodi="http://sodipodi.sourceforge.net/DTD/sodipodi-0.dtd"
   xmlns="http://www.w3.org/2000/svg"
   xmlns:svg="http://www.w3.org/2000/svg"
   xmlns:rdf="http://www.w3.org/1999/02/22-rdf-syntax-ns#"
   xmlns:cc="http://creativecommons.org/ns#"
   xmlns:dc="http://purl.org/dc/elements/1.1/">
  <sodipodi:namedview
     pagecolor="#ffffff"
     bordercolor="#666666"
     borderopacity="1"
     objecttolerance="10"
     gridtolerance="10"
     guidetolerance="10"
     inkscape:pageopacity="0"
     inkscape:pageshadow="2"
     inkscape:window-width="1920"
     inkscape:window-height="1009"
     id="namedview11"
     showgrid="true"
     inkscape:zoom="4.0000002"
     inkscape:cx="-54.124997"
     inkscape:cy="62.249997"
     inkscape:window-x="-8"
     inkscape:window-y="-8"
     inkscape:window-maximized="1"
     inkscape:current-layer="text5282"
     inkscape:document-rotation="0"
     inkscape:pagecheckerboard="0"
     showguides="true"
     inkscape:guide-bbox="true"
     inkscape:showpageshadow="0"
     inkscape:deskcolor="#d1d1d1">
    <inkscape:grid
       type="xygrid"
       id="grid823"
       originx="0"
       originy="0" />
    <sodipodi:guide
       position="0,86"
       orientation="66,0"
       id="guide957"
       inkscape:locked="false" />
    <sodipodi:guide
       position="0,20"
       orientation="0,50"
       id="guide959"
       inkscape:locked="false" />
    <sodipodi:guide
       position="50,86"
       orientation="0,-50"
       id="guide963"
       inkscape:locked="false" />
    <sodipodi:guide
       position="8.9999971,64.32985"
       orientation="8.5387222,0"
       id="guide1517"
       inkscape:locked="false" />
    <sodipodi:guide
       position="8.9999971,55.791128"
       orientation="0,26.227758"
       id="guide1519"
       inkscape:locked="false" />
    <sodipodi:guide
       position="35,93.437165"
       orientation="-8.5387222,0"
       id="guide1521"
       inkscape:locked="false" />
    <sodipodi:guide
       position="35.227755,64.32985"
       orientation="0,-26.227758"
       id="guide1523"
       inkscape:locked="false" />
    <sodipodi:guide
       position="7.9247812,20.000001"
       orientation="0,-6.8495616"
       id="guide4054"
       inkscape:locked="false" />
    <sodipodi:guide
       position="1.0752196,74.999813"
       orientation="0,6.8495616"
       id="guide4058"
       inkscape:locked="false" />
  </sodipodi:namedview>
  <defs
     id="defs4462" />
  <metadata
     id="metadata4465">
    <rdf:RDF>
      <cc:Work
         rdf:about="">
        <dc:format>image/svg+xml</dc:format>
        <dc:type
           rdf:resource="http://purl.org/dc/dcmitype/StillImage" />
      </cc:Work>
    </rdf:RDF>
  </metadata>
  <g
     aria-label="C"
     id="text3215"
     style="font-size:32px;line-height:1.25"
     transform="translate(-37.75,-4)">
    <g
       aria-label="A"
       id="text5282"
       transform="matrix(1.6290909,0,0,2.8292029,-41.002727,-68.776958)">
      <path
         id="path1009"
         style="font-size:32px;line-height:1.25;fill:#666666;stroke-width:0.262524"
         d="m 65.974471,53.741936 c 0.117509,-0.109544 1.548021,-0.199209 3.178691,-0.199209 h 2.964889 L 71.957969,51.94916 71.797586,50.355594 h 1.337368 1.337337 l -0.03327,-5.129316 c -0.02399,-3.519504 0.08243,-5.123063 0.335332,-5.109397 0.202654,0.01069 3.949476,0.03326 8.326108,0.04969 7.540992,0.02832 7.957561,0.04956 7.957561,0.404617 0,0.347534 -0.35008,0.376844 -4.823897,0.403749 l -4.82387,0.02899 -2.055753,1.239633 c -4.138967,2.495859 -3.865601,2.129169 -3.865601,5.18553 v 2.693198 l 2.523018,0.136195 c 1.38767,0.07494 2.905652,0.105002 3.373305,0.06679 0.837459,-0.0684 0.851818,-0.04448 0.950773,1.574049 l 0.100434,1.643369 h 4.829714 c 2.98917,0 4.829744,0.07601 4.829744,0.199209 0,0.129315 -4.61987,0.199196 -13.167664,0.199196 -8.690368,0 -13.094998,-0.0676 -12.953861,-0.199196 z M 73.41306,52.24796 c 0,-0.730389 -0.150779,-1.294792 -0.345974,-1.294792 -0.19516,0 -0.346003,0.564403 -0.346003,1.294792 0,0.73039 0.150778,1.294767 0.346003,1.294767 0.195161,0 0.345974,-0.564377 0.345974,-1.294767 z m 1.323637,0.0155 c 0.04587,-0.716963 -0.07494,-1.334963 -0.274897,-1.406127 -0.232327,-0.08269 -0.356824,0.363886 -0.356824,1.27915 0,1.757334 0.520414,1.861948 0.631691,0.127044 z m 1.918095,0.830969 c 0.33674,-0.723469 0.248516,-2.340561 -0.127995,-2.340561 -0.190358,0 -0.376461,0.605068 -0.413753,1.344582 l -0.06775,1.344581 -0.121105,-1.344581 c -0.15978,-1.774487 -0.78137,-1.734865 -0.78137,0.04983 0,1.23278 0.07554,1.39437 0.651625,1.39437 0.383265,0 0.737484,-0.184567 0.860213,-0.448194 z m 1.907845,-0.995993 c -0.04287,-1.542976 -0.125304,-1.501536 -0.59455,0.298801 -0.238022,0.91314 -0.20386,1.145386 0.168179,1.145386 0.352237,0 0.456771,-0.353893 0.426462,-1.444187 z m 3.094242,0.09966 -0.05965,-1.344581 -0.226619,1.294779 -0.22662,1.294793 -0.05965,-1.344595 c -0.03297,-0.740662 -0.215252,-1.344569 -0.405719,-1.344569 -0.190357,0 -0.37646,0.605056 -0.413752,1.344569 l -0.06775,1.344595 -0.121105,-1.344595 c -0.08303,-0.922438 -0.259905,-1.344569 -0.563281,-1.344569 -0.285388,0 -0.413064,0.229868 -0.359912,0.64739 0.04526,0.356057 0.09563,0.983529 0.112104,1.394371 0.02997,0.717631 0.07735,0.746994 1.240629,0.746994 h 1.21095 z M 79.107091,41.022633 c -0.06266,-0.03874 -0.90248,-0.008 -1.866113,0.06853 l -1.75205,0.138786 v 1.109143 1.109143 l 1.866084,-1.177634 c 1.026348,-0.647697 1.814764,-1.209242 1.752079,-1.247876 z" />
    </g>
  </g>
</svg>
