<?xml version="1.0" encoding="UTF-8" standalone="no"?>
<svg
   version="1.1"
   width="100"
   height="100"
   id="svg4460"
   sodipodi:docname="flots.svg"
   inkscape:version="1.2.2 (732a01da63, 2022-12-09)"
   xmlns:inkscape="http://www.inkscape.org/namespaces/inkscape"
   xmlns:sodipodi="http://sodipodi.sourceforge.net/DTD/sodipodi-0.dtd"
   xmlns="http://www.w3.org/2000/svg"
   xmlns:svg="http://www.w3.org/2000/svg"
   xmlns:rdf="http://www.w3.org/1999/02/22-rdf-syntax-ns#"
   xmlns:cc="http://creativecommons.org/ns#"
   xmlns:dc="http://purl.org/dc/elements/1.1/">
  <sodipodi:namedview
     pagecolor="#ffffff"
     bordercolor="#666666"
     borderopacity="1"
     objecttolerance="10"
     gridtolerance="10"
     guidetolerance="10"
     inkscape:pageopacity="0"
     inkscape:pageshadow="2"
     inkscape:window-width="1920"
     inkscape:window-height="1009"
     id="namedview11"
     showgrid="true"
     inkscape:zoom="2.3122392"
     inkscape:cx="124.98707"
     inkscape:cy="37.193384"
     inkscape:window-x="-8"
     inkscape:window-y="-8"
     inkscape:window-maximized="1"
     inkscape:current-layer="text5282"
     inkscape:document-rotation="0"
     inkscape:pagecheckerboard="0"
     showguides="true"
     inkscape:guide-bbox="true"
     inkscape:showpageshadow="0"
     inkscape:deskcolor="#d1d1d1">
    <inkscape:grid
       type="xygrid"
       id="grid823"
       originx="0"
       originy="0" />
    <sodipodi:guide
       position="0,86"
       orientation="66,0"
       id="guide957"
       inkscape:locked="false" />
    <sodipodi:guide
       position="0,20"
       orientation="0,50"
       id="guide959"
       inkscape:locked="false" />
    <sodipodi:guide
       position="8.9999971,64.32985"
       orientation="8.5387222,0"
       id="guide1517"
       inkscape:locked="false" />
    <sodipodi:guide
       position="8.9999971,55.791128"
       orientation="0,26.227758"
       id="guide1519"
       inkscape:locked="false" />
    <sodipodi:guide
       position="95,90"
       orientation="-8.5387222,0"
       id="guide1521"
       inkscape:locked="false" />
    <sodipodi:guide
       position="70,70"
       orientation="0,-26.227758"
       id="guide1523"
       inkscape:locked="false" />
    <sodipodi:guide
       position="7.9247812,20.000001"
       orientation="0,-6.8495616"
       id="guide4054"
       inkscape:locked="false" />
    <sodipodi:guide
       position="85,75"
       orientation="0,6.8495616"
       id="guide4058"
       inkscape:locked="false" />
  </sodipodi:namedview>
  <defs
     id="defs4462" />
  <metadata
     id="metadata4465">
    <rdf:RDF>
      <cc:Work
         rdf:about="">
        <dc:format>image/svg+xml</dc:format>
        <dc:type
           rdf:resource="http://purl.org/dc/dcmitype/StillImage" />
      </cc:Work>
    </rdf:RDF>
  </metadata>
  <g
     aria-label="C"
     id="text3215"
     style="font-size:32px;line-height:1.25"
     transform="translate(-37.75,-4)">
    <g
       aria-label="A"
       id="text5282"
       transform="matrix(1.6290909,0,0,2.8292029,-41.002727,-68.776958)">
      <path
         style="fill:#666666;fill-opacity:1;stroke-width:0.238049"
         d="m 57.402576,36.386197 c 0,-0.09927 0.141039,-0.180616 0.313713,-0.180616 0.172405,0 0.313734,0.08122 0.313734,0.180616 0,0.09927 -0.141246,0.180615 -0.313734,0.180615 -0.172404,0 -0.313713,-0.08121 -0.313713,-0.180615 z"
         id="path12937" />
      <path
         style="fill:#666666;fill-opacity:1;stroke-width:0.238049"
         d="m 55.833906,36.928032 c 0,-0.09927 0.141039,-0.180639 0.313755,-0.180639 0.172404,0 0.313714,0.08122 0.313714,0.180639 0,0.09927 -0.141248,0.180617 -0.313714,0.180617 -0.172404,0 -0.313755,-0.08133 -0.313755,-0.180617 z"
         id="path12935" />
      <path
         style="fill:#666666;fill-opacity:1;stroke-width:0.238049"
         d="m 51.127938,37.108649 c 0,-0.09927 0.141039,-0.180617 0.313714,-0.180617 0.172403,0 0.313754,0.08121 0.313754,0.180617 0,0.09927 -0.141039,0.180628 -0.313754,0.180628 -0.172405,0 -0.313714,-0.08121 -0.313714,-0.180628 z"
         id="path12933" />
      <path
         style="fill:#666666;fill-opacity:1;stroke-width:0.238049"
         d="m 54.265257,37.831149 c 0,-0.09927 0.141039,-0.180628 0.313713,-0.180628 0.172405,0 0.313735,0.08121 0.313735,0.180628 0,0.09927 -0.141248,0.180617 -0.313735,0.180617 -0.172404,0 -0.313713,-0.08121 -0.313713,-0.180617 z"
         id="path12931" />
      <path
         style="fill:#666666;fill-opacity:1;stroke-width:0.238049"
         d="m 48.9318,38.011766 c 0,-0.09927 0.149348,-0.180617 0.332283,-0.180617 0.18279,0 0.244938,0.08121 0.138131,0.180617 -0.106557,0.09927 -0.256113,0.180639 -0.332304,0.180639 -0.07602,0 -0.13813,-0.08121 -0.13813,-0.180639 z"
         id="path12929" />
      <path
         style="fill:#666666;fill-opacity:1;stroke-width:0.238049"
         d="m 52.53972,38.733548 c -0.106766,-0.09927 -0.04403,-0.18064 0.138131,-0.18064 0.182791,0 0.332241,0.08121 0.332241,0.18064 0,0.09927 -0.06232,0.180604 -0.138131,0.180604 -0.07602,0 -0.225765,-0.08133 -0.332241,-0.180604 z"
         id="path12927" />
      <path
         style="fill:#666666;fill-opacity:1;stroke-width:0.238049"
         d="m 49.873003,39.637239 c 0,-0.09927 0.141038,-0.18064 0.313733,-0.18064 0.172405,0 0.313734,0.08121 0.313734,0.18064 0,0.09927 -0.141039,0.180628 -0.313734,0.180628 -0.172404,0 -0.313733,-0.08121 -0.313733,-0.180628 z"
         id="path12925" />
      <path
         style="font-size:32px;line-height:1.25;fill:#666666;fill-opacity:1;stroke-width:0.238049"
         d="m 58.872165,40.568656 c 0,-0.09927 0.141039,-0.180639 0.313755,-0.180639 0.172404,0 0.313714,0.08122 0.313714,0.180639 0,0.09927 -0.141248,0.180617 -0.313714,0.180617 -0.172404,0 -0.313755,-0.08133 -0.313755,-0.180617 z"
         id="path12935-4" />
      <path
         style="font-size:32px;line-height:1.25;fill:#666666;fill-opacity:1;stroke-width:0.238049"
         d="m 54.166197,40.749273 c 0,-0.09927 0.141039,-0.180617 0.313714,-0.180617 0.172403,0 0.313754,0.08121 0.313754,0.180617 0,0.09927 -0.141039,0.180628 -0.313754,0.180628 -0.172405,0 -0.313714,-0.08121 -0.313714,-0.180628 z"
         id="path12933-8" />
      <path
         style="font-size:32px;line-height:1.25;fill:#666666;fill-opacity:1;stroke-width:0.238049"
         d="m 57.303516,41.471773 c 0,-0.09927 0.141039,-0.180628 0.313713,-0.180628 0.172405,0 0.313735,0.08121 0.313735,0.180628 0,0.09927 -0.141248,0.180617 -0.313735,0.180617 -0.172404,0 -0.313713,-0.08121 -0.313713,-0.180617 z"
         id="path12931-4" />
      <path
         style="font-size:32px;line-height:1.25;fill:#666666;fill-opacity:1;stroke-width:0.238049"
         d="m 51.970059,41.65239 c 0,-0.09927 0.149348,-0.180617 0.332283,-0.180617 0.18279,0 0.244938,0.08121 0.138131,0.180617 -0.106557,0.09927 -0.256113,0.180639 -0.332304,0.180639 -0.07602,0 -0.13813,-0.08121 -0.13813,-0.180639 z"
         id="path12929-3" />
      <path
         style="font-size:32px;line-height:1.25;fill:#666666;fill-opacity:1;stroke-width:0.238049"
         d="m 55.577979,42.374172 c -0.106766,-0.09927 -0.04403,-0.18064 0.138131,-0.18064 0.182791,0 0.332241,0.08121 0.332241,0.18064 0,0.09927 -0.06232,0.180604 -0.138131,0.180604 -0.07602,0 -0.225765,-0.08133 -0.332241,-0.180604 z"
         id="path12927-9" />
      <path
         style="font-size:32px;line-height:1.25;fill:#666666;fill-opacity:1;stroke-width:0.238049"
         d="m 52.911262,43.277863 c 0,-0.09927 0.141038,-0.18064 0.313733,-0.18064 0.172405,0 0.313734,0.08121 0.313734,0.18064 0,0.09927 -0.141039,0.180628 -0.313734,0.180628 -0.172404,0 -0.313733,-0.08121 -0.313733,-0.180628 z"
         id="path12925-3" />
      <path
         id="path13490"
         style="font-size:32px;line-height:1.25;fill:#666666;fill-opacity:1;stroke-width:0.238049"
         d="m 86.182641,37.064126 c -0.165297,0.0049 -0.298527,0.08401 -0.298527,0.18018 0,0.09929 0.141709,0.18087 0.314113,0.18087 0.172466,0 0.314113,-0.0816 0.314113,-0.18087 0,-0.09942 -0.141709,-0.18018 -0.314113,-0.18018 -0.0054,0 -0.01025,-1.57e-4 -0.01559,0 z m -4.690116,0.18018 c -0.172674,0 -0.314113,0.0816 -0.314113,0.18087 0,0.09942 0.141709,0.180871 0.314113,0.180871 0.172715,0 0.314114,-0.0816 0.314114,-0.180871 0,-0.09941 -0.141711,-0.18087 -0.314114,-0.18087 z m 3.12075,0.722791 c -0.165259,0.0049 -0.297329,0.0847 -0.297329,0.18087 0,0.09941 0.14171,0.18018 0.314114,0.18018 0.172486,0 0.312914,-0.08091 0.312914,-0.18018 0,-0.09942 -0.14051,-0.18087 -0.312914,-0.18087 -0.0054,0 -0.01145,-1.57e-4 -0.01678,0 z m -5.315944,0.18087 c -0.175075,0.0049 -0.315312,0.08401 -0.315312,0.18018 0,0.09943 0.06305,0.180871 0.139073,0.180871 0.07619,0 0.225539,-0.0816 0.332096,-0.180871 0.106807,-0.09941 0.04492,-0.18018 -0.137874,-0.18018 -0.0057,0 -0.01234,-1.57e-4 -0.01798,0 z m 3.414481,0.72141 c -0.16919,0.0049 -0.224519,0.0847 -0.12109,0.180871 0.106476,0.09927 0.256077,0.18018 0.332097,0.18018 0.07581,0 0.137874,-0.08091 0.137874,-0.18018 0,-0.09943 -0.149306,-0.180871 -0.332097,-0.180871 -0.0057,0 -0.01133,-1.57e-4 -0.01678,0 z m -2.490126,0.903662 c -0.165278,0.0049 -0.298527,0.0847 -0.298527,0.18087 0,0.09942 0.141709,0.18018 0.314113,0.18018 0.172695,0 0.314113,-0.08091 0.314113,-0.18018 0,-0.09943 -0.141708,-0.18087 -0.314113,-0.18087 -0.0054,0 -0.01025,-1.57e-4 -0.01559,0 z" />
      <path
         style="font-size:32px;line-height:1.25;fill:#666666;fill-opacity:1;stroke-width:0.238049"
         d="m 105.71271,27.663354 c -0.16528,0.0049 -0.29852,0.0847 -0.29852,0.18087 0,0.09942 0.1417,0.18018 0.31411,0.18018 0.17269,0 0.31411,-0.08091 0.31411,-0.18018 0,-0.09943 -0.14171,-0.18087 -0.31411,-0.18087 -0.005,0 -0.0102,-1.57e-4 -0.0156,0 z"
         id="path13582" />
      <path
         style="font-size:32px;line-height:1.25;fill:#666666;fill-opacity:1;stroke-width:0.238049"
         d="m 108.20284,26.759692 c -0.16919,0.0049 -0.22452,0.0847 -0.12109,0.180871 0.10647,0.09927 0.25608,0.18018 0.3321,0.18018 0.0758,0 0.13787,-0.08091 0.13787,-0.18018 0,-0.09943 -0.14931,-0.180871 -0.3321,-0.180871 -0.006,0 -0.0113,-1.57e-4 -0.0168,0 z"
         id="path13580" />
      <path
         style="font-size:32px;line-height:1.25;fill:#666666;fill-opacity:1;stroke-width:0.238049"
         d="m 106.02682,29.250456 c -0.16528,0.0049 -0.29852,0.0847 -0.29852,0.18087 0,0.09942 0.1417,0.18018 0.31411,0.18018 0.17269,0 0.31411,-0.08091 0.31411,-0.18018 0,-0.09943 -0.14171,-0.18087 -0.31411,-0.18087 -0.005,0 -0.0102,-1.57e-4 -0.0156,0 z"
         id="path13582-6" />
      <path
         style="font-size:32px;line-height:1.25;fill:#666666;fill-opacity:1;stroke-width:0.238049"
         d="m 108.51695,28.346794 c -0.16919,0.0049 -0.22452,0.0847 -0.12109,0.180871 0.10647,0.09927 0.25608,0.18018 0.3321,0.18018 0.0758,0 0.13787,-0.08091 0.13787,-0.18018 0,-0.09943 -0.14931,-0.180871 -0.3321,-0.180871 -0.006,0 -0.0113,-1.57e-4 -0.0168,0 z"
         id="path13580-6" />
      <path
         style="font-size:32px;line-height:1.25;fill:#666666;fill-opacity:1;stroke-width:0.238049"
         d="m 87.611642,38.79378 c -0.16528,0.0049 -0.29852,0.0847 -0.29852,0.18087 0,0.09942 0.1417,0.18018 0.31411,0.18018 0.17269,0 0.31411,-0.08091 0.31411,-0.18018 0,-0.09943 -0.14171,-0.18087 -0.31411,-0.18087 -0.005,0 -0.0102,-1.57e-4 -0.0156,0 z"
         id="path13582-4" />
      <path
         style="font-size:32px;line-height:1.25;fill:#666666;fill-opacity:1;stroke-width:0.238049"
         d="m 90.101772,37.890118 c -0.16919,0.0049 -0.22452,0.0847 -0.12109,0.180871 0.10647,0.09927 0.25608,0.18018 0.3321,0.18018 0.0758,0 0.13787,-0.08091 0.13787,-0.18018 0,-0.09943 -0.14931,-0.180871 -0.3321,-0.180871 -0.006,0 -0.0113,-1.57e-4 -0.0168,0 z"
         id="path13580-69" />
      <path
         style="font-size:32px;line-height:1.25;fill:#666666;fill-opacity:1;stroke-width:0.238049"
         d="m 82.700928,41.267975 c -0.16528,0.0049 -0.29852,0.0847 -0.29852,0.18087 0,0.09942 0.1417,0.18018 0.31411,0.18018 0.17269,0 0.31411,-0.08091 0.31411,-0.18018 0,-0.09943 -0.14171,-0.18087 -0.31411,-0.18087 -0.005,0 -0.0102,-1.57e-4 -0.0156,0 z"
         id="path13582-3" />
      <path
         style="font-size:32px;line-height:1.25;fill:#666666;fill-opacity:1;stroke-width:0.238049"
         d="m 85.191058,40.364313 c -0.16919,0.0049 -0.22452,0.0847 -0.12109,0.180871 0.10647,0.09927 0.25608,0.18018 0.3321,0.18018 0.0758,0 0.13787,-0.08091 0.13787,-0.18018 0,-0.09943 -0.14931,-0.180871 -0.3321,-0.180871 -0.006,0 -0.0113,-1.57e-4 -0.0168,0 z"
         id="path13580-61" />
      <path
         id="path13582-5"
         style="font-size:32px;line-height:1.25;fill:#666666;fill-opacity:1;stroke-width:0.238049"
         d="m 64.949947,37.897712 c -0.16919,0.0049 -0.224519,0.0847 -0.121089,0.18087 0.10647,0.09927 0.256077,0.18018 0.332096,0.18018 0.0758,0 0.137875,-0.08091 0.137875,-0.18018 0,-0.09943 -0.149307,-0.18087 -0.332097,-0.18087 -0.006,0 -0.01128,-1.57e-4 -0.01678,0 z m -2.490125,0.903661 c -0.16528,0.0049 -0.298528,0.0847 -0.298528,0.180871 0,0.09942 0.141704,0.18018 0.314114,0.18018 0.172689,0 0.314113,-0.08091 0.314113,-0.18018 0,-0.09943 -0.141714,-0.180871 -0.314113,-0.180871 -0.005,0 -0.01019,-1.57e-4 -0.01559,0 z" />
      <path
         style="font-size:32px;line-height:1.25;fill:#666666;fill-opacity:1;stroke-width:0.238049"
         d="m 63.034098,28.567015 c -0.175075,0.0049 -0.315312,0.08401 -0.315312,0.18018 0,0.09943 0.06305,0.180871 0.139073,0.180871 0.07619,0 0.225539,-0.0816 0.332096,-0.180871 0.106807,-0.09941 0.04492,-0.18018 -0.137874,-0.18018 -0.0057,0 -0.01234,-1.57e-4 -0.01798,0 z"
         id="path13578" />
      <path
         style="font-size:32px;line-height:1.25;fill:#666666;fill-opacity:1;stroke-width:0.238049"
         d="m 89.451965,30.664282 c -0.165259,0.0049 -0.297329,0.0847 -0.297329,0.18087 0,0.09941 0.14171,0.18018 0.314114,0.18018 0.172486,0 0.312914,-0.08091 0.312914,-0.18018 0,-0.09942 -0.14051,-0.18087 -0.312914,-0.18087 -0.0054,0 -0.01145,-1.57e-4 -0.01678,0 z"
         id="path13576" />
      <path
         style="font-size:32px;line-height:1.25;fill:#666666;fill-opacity:1;stroke-width:0.238049"
         d="m 65.229292,27.663354 c -0.172674,0 -0.314113,0.0816 -0.314113,0.18087 0,0.09942 0.141709,0.180871 0.314113,0.180871 0.172715,0 0.314114,-0.0816 0.314114,-0.180871 0,-0.09941 -0.141711,-0.18087 -0.314114,-0.18087 z"
         id="path13574" />
      <path
         style="font-size:32px;line-height:1.25;fill:#666666;fill-opacity:1;stroke-width:0.238049"
         d="m 91.021331,29.761311 c -0.165297,0.0049 -0.298527,0.08401 -0.298527,0.18018 0,0.09929 0.141709,0.18087 0.314113,0.18087 0.172466,0 0.314113,-0.0816 0.314113,-0.18087 0,-0.09942 -0.141709,-0.18018 -0.314113,-0.18018 -0.0054,0 -0.01025,-1.57e-4 -0.01559,0 z"
         id="path13570" />
      <path
         id="path13492"
         style="font-size:32px;line-height:1.25;fill:#666666;fill-opacity:1;stroke-width:0.238049"
         d="m 81.830527,26.587796 c -0.165297,0.0049 -0.298527,0.08401 -0.298527,0.18018 0,0.09929 0.141709,0.18087 0.314113,0.18087 0.172466,0 0.314113,-0.0816 0.314113,-0.18087 0,-0.09942 -0.141709,-0.18018 -0.314113,-0.18018 -0.0054,0 -0.01025,-1.57e-4 -0.01559,0 z m -4.690116,0.18018 c -0.172674,0 -0.314113,0.0816 -0.314113,0.18087 0,0.09942 0.141709,0.180871 0.314113,0.180871 0.172715,0 0.314114,-0.0816 0.314114,-0.180871 0,-0.09941 -0.141711,-0.18087 -0.314114,-0.18087 z m 3.12075,0.722791 c -0.165259,0.0049 -0.297329,0.0847 -0.297329,0.18087 0,0.09941 0.14171,0.18018 0.314114,0.18018 0.172486,0 0.312914,-0.08091 0.312914,-0.18018 0,-0.09942 -0.14051,-0.18087 -0.312914,-0.18087 -0.0054,0 -0.01145,-1.57e-4 -0.01678,0 z m -5.315944,0.18087 c -0.175075,0.0049 -0.315312,0.08401 -0.315312,0.18018 0,0.09943 0.06305,0.180871 0.139073,0.180871 0.07619,0 0.225539,-0.0816 0.332096,-0.180871 0.106807,-0.09941 0.04492,-0.18018 -0.137874,-0.18018 -0.0057,0 -0.01234,-1.57e-4 -0.01798,0 z m 3.414481,0.72141 c -0.16919,0.0049 -0.224519,0.0847 -0.12109,0.180871 0.106476,0.09927 0.256077,0.18018 0.332097,0.18018 0.07581,0 0.137874,-0.08091 0.137874,-0.18018 0,-0.09943 -0.149306,-0.180871 -0.332097,-0.180871 -0.0057,0 -0.01133,-1.57e-4 -0.01678,0 z m -2.490126,0.903662 c -0.165278,0.0049 -0.298527,0.0847 -0.298527,0.18087 0,0.09942 0.141709,0.18018 0.314113,0.18018 0.172695,0 0.314113,-0.08091 0.314113,-0.18018 0,-0.09943 -0.141708,-0.18087 -0.314113,-0.18087 -0.0054,0 -0.01025,-1.57e-4 -0.01559,0 z" />
      <path
         id="path12935-2"
         style="font-size:32px;line-height:1.25;fill:#666666;fill-opacity:1;stroke-width:0.238049"
         d="M 80.685573 45.584009 C 80.520276 45.588876 80.387046 45.668021 80.387046 45.764189 C 80.387046 45.863476 80.528755 45.945059 80.701159 45.945059 C 80.873625 45.945059 81.015272 45.863459 81.015272 45.764189 C 81.015272 45.66477 80.873563 45.584009 80.701159 45.584009 C 80.695762 45.584009 80.690905 45.583852 80.685573 45.584009 z M 75.995457 45.764189 C 75.822783 45.764189 75.681344 45.84579 75.681344 45.945059 C 75.681344 46.044477 75.823053 46.12593 75.995457 46.12593 C 76.168172 46.12593 76.309571 46.044329 76.309571 45.945059 C 76.309571 45.845653 76.16786 45.764189 75.995457 45.764189 z M 79.116207 46.48698 C 78.950948 46.491846 78.818878 46.571683 78.818878 46.66785 C 78.818878 46.767257 78.960588 46.84803 79.132992 46.84803 C 79.305478 46.84803 79.445906 46.76712 79.445906 46.66785 C 79.445906 46.568432 79.305396 46.48698 79.132992 46.48698 C 79.127595 46.48698 79.121538 46.486823 79.116207 46.48698 z M 73.800263 46.66785 C 73.625188 46.672716 73.484951 46.751863 73.484951 46.84803 C 73.484951 46.947459 73.548004 47.028901 73.624024 47.028901 C 73.700215 47.028901 73.849563 46.9473 73.95612 46.84803 C 74.062927 46.748623 74.001036 46.66785 73.818246 46.66785 C 73.81253 46.66785 73.80591 46.667693 73.800263 46.66785 z M 77.214744 47.38926 C 77.045554 47.394127 76.990225 47.473963 77.093654 47.570131 C 77.20013 47.669405 77.349731 47.750311 77.425751 47.750311 C 77.501562 47.750311 77.563625 47.669401 77.563625 47.570131 C 77.563625 47.470701 77.414319 47.38926 77.231528 47.38926 C 77.225836 47.38926 77.220201 47.389103 77.214744 47.38926 z M 74.724618 48.292922 C 74.55934 48.297788 74.426091 48.377624 74.426091 48.473792 C 74.426091 48.57321 74.5678 48.653972 74.740204 48.653972 C 74.912899 48.653972 75.054317 48.573062 75.054317 48.473792 C 75.054317 48.374362 74.912609 48.292922 74.740204 48.292922 C 74.734807 48.292922 74.72995 48.292765 74.724618 48.292922 z " />
      <path
         id="path12937-6"
         style="font-size:32px;line-height:1.25;fill:#666666;fill-opacity:1;stroke-width:0.238049"
         d="m 94.049767,26.250218 c -0.165259,0.0049 -0.297329,0.08401 -0.297329,0.18018 0,0.09941 0.140511,0.18087 0.312914,0.18087 0.172488,0 0.314113,-0.0816 0.314113,-0.18087 0,-0.0994 -0.141708,-0.18018 -0.314113,-0.18018 -0.0054,0 -0.01025,-1.57e-4 -0.01558,0 z m -1.568168,0.541921 c -0.165297,0.0049 -0.298527,0.08401 -0.298527,0.18018 0,0.09929 0.141709,0.18087 0.314113,0.18087 0.172466,0 0.314113,-0.0816 0.314113,-0.18087 0,-0.09942 -0.141709,-0.18018 -0.314113,-0.18018 -0.0054,0 -0.01025,-1.57e-4 -0.01559,0 z m -4.690116,0.18018 c -0.172675,0 -0.314113,0.0816 -0.314113,0.18087 0,0.09942 0.141708,0.18087 0.314113,0.18087 0.172715,0 0.314113,-0.0816 0.314113,-0.18087 0,-0.09941 -0.14171,-0.18087 -0.314113,-0.18087 z m 3.12075,0.72279 c -0.165259,0.0049 -0.297329,0.0847 -0.297329,0.180871 0,0.09941 0.141709,0.18018 0.314113,0.18018 0.172487,0 0.312914,-0.08091 0.312914,-0.18018 0,-0.09942 -0.140509,-0.180871 -0.312914,-0.180871 -0.0054,0 -0.01145,-1.57e-4 -0.01678,0 z m -5.315945,0.180871 c -0.175075,0.0049 -0.315312,0.08401 -0.315312,0.18018 0,0.09943 0.06305,0.18087 0.139073,0.18087 0.07619,0 0.22554,-0.0816 0.332097,-0.18087 0.106807,-0.09941 0.04492,-0.18018 -0.137874,-0.18018 -0.0057,0 -0.01234,-1.57e-4 -0.01798,0 z m 3.414482,0.72141 c -0.169191,0.0049 -0.224519,0.0847 -0.12109,0.18087 0.106476,0.09927 0.256077,0.18018 0.332097,0.18018 0.07581,0 0.137874,-0.08091 0.137874,-0.18018 0,-0.09943 -0.149306,-0.18087 -0.332097,-0.18087 -0.0057,0 -0.01133,-1.57e-4 -0.01678,0 z m -2.490126,0.903661 c -0.165278,0.0049 -0.298527,0.0847 -0.298527,0.18087 0,0.09942 0.141709,0.18018 0.314113,0.18018 0.172695,0 0.314113,-0.08091 0.314113,-0.18018 0,-0.09943 -0.141708,-0.18087 -0.314113,-0.18087 -0.0054,0 -0.01025,-1.57e-4 -0.01559,0 z" />
      <path
         style="fill:#666666;fill-opacity:1;stroke-width:0.238049"
         d="m 67.44198,41.985815 c 0,-0.09927 0.141038,-0.180616 0.313734,-0.180616 0.172404,0 0.313713,0.08121 0.313713,0.180616 0,0.09927 -0.141039,0.180627 -0.313713,0.180627 -0.172404,0 -0.313734,-0.08121 -0.313734,-0.180627 z"
         id="path12923" />
      <path
         style="fill:#666666;fill-opacity:1;stroke-width:0.238049"
         d="m 86.265893,42.527678 c 0,-0.09927 0.141039,-0.180639 0.313713,-0.180639 0.172405,0 0.313756,0.08122 0.313756,0.180639 0,0.09927 -0.14104,0.180629 -0.313756,0.180629 -0.172403,0 -0.313713,-0.08121 -0.313713,-0.180629 z"
         id="path12921" />
      <path
         style="fill:#666666;fill-opacity:1;stroke-width:0.238049"
         d="m 66.030178,42.708917 c 0.106765,-0.09927 0.256092,-0.180628 0.33224,-0.180628 0.07602,0 0.138132,0.08122 0.138132,0.180628 0,0.09927 -0.149349,0.180616 -0.332242,0.180616 -0.18279,0 -0.244959,-0.08121 -0.13813,-0.180616 z"
         id="path12919" />
      <path
         style="fill:#666666;fill-opacity:1;stroke-width:0.238049"
         d="m 61.167321,42.698157 c 0,-0.105254 0.141039,-0.141052 0.313755,-0.07954 0.172404,0.06148 0.313712,0.147462 0.313712,0.191296 0,0.04377 -0.141037,0.07954 -0.313712,0.07954 -0.172405,0 -0.313755,-0.086 -0.313755,-0.191286 z"
         id="path12917" />
      <path
         style="fill:#666666;fill-opacity:1;stroke-width:0.238049"
         d="m 64.618395,43.250351 c 0,-0.09927 0.14104,-0.18064 0.313713,-0.18064 0.172404,0 0.313734,0.08133 0.313734,0.18064 0,0.09927 -0.141039,0.180616 -0.313734,0.180616 -0.172404,0 -0.313713,-0.08121 -0.313713,-0.180616 z"
         id="path12915" />
      <path
         style="fill:#666666;fill-opacity:1;stroke-width:0.238049"
         d="m 84.540356,43.430967 c -0.106765,-0.09927 0.03448,-0.180616 0.313734,-0.180616 0.279191,0 0.420376,0.08121 0.313734,0.180616 -0.106765,0.09927 -0.247971,0.180627 -0.313734,0.180627 -0.06584,0 -0.206885,-0.08121 -0.313734,-0.180627 z"
         id="path12913" />
      <path
         style="fill:#666666;fill-opacity:1;stroke-width:0.238049"
         d="m 59.598693,43.611307 c 0,-0.09927 0.149348,-0.180615 0.332241,-0.180615 0.18279,0 0.24496,0.08121 0.138131,0.180615 -0.106974,0.09927 -0.256092,0.180617 -0.332241,0.180617 -0.07602,0 -0.138131,-0.08121 -0.138131,-0.180617 z"
         id="path12911" />
      <path
         style="fill:#666666;fill-opacity:1;stroke-width:0.238049"
         d="m 63.049725,43.781266 c 0,-0.105252 0.14104,-0.141039 0.313755,-0.07954 0.172404,0.06136 0.313713,0.147449 0.313713,0.191272 0,0.04377 -0.141039,0.07954 -0.313713,0.07954 -0.172404,0 -0.313755,-0.08599 -0.313755,-0.191295 z"
         id="path12909" />
      <path
         style="fill:#666666;fill-opacity:1;stroke-width:0.238049"
         d="m 83.128575,44.153575 c 0,-0.09927 0.141038,-0.180617 0.313713,-0.180617 0.172404,0 0.313755,0.08121 0.313755,0.180617 0,0.09927 -0.14104,0.180615 -0.313755,0.180615 -0.172404,0 -0.313713,-0.08121 -0.313713,-0.180615 z"
         id="path12907" />
      <path
         style="fill:#666666;fill-opacity:1;stroke-width:0.238049"
         d="m 57.716289,44.322756 c 0,-0.105252 0.141039,-0.141038 0.313734,-0.07954 0.172404,0.06148 0.313755,0.147474 0.313755,0.191286 0,0.04377 -0.141039,0.07954 -0.313755,0.07954 -0.172404,0 -0.313734,-0.08599 -0.313734,-0.191286 z"
         id="path12905" />
      <path
         style="fill:#666666;fill-opacity:1;stroke-width:0.238049"
         d="m 85.80869,44.888156 c -0.09929,-0.09234 -0.03697,-0.21919 0.138132,-0.281588 0.175312,-0.06232 0.318843,0.01243 0.318843,0.168142 0,0.317264 -0.188191,0.363982 -0.457183,0.113504 z"
         id="path12903" />
      <path
         style="fill:#666666;fill-opacity:1;stroke-width:0.238049"
         d="m 94.266044,45.236423 c 0.106767,-0.09927 0.256079,-0.180617 0.332226,-0.180617 0.07602,0 0.13813,0.08133 0.13813,0.180617 0,0.09927 -0.149349,0.180639 -0.332244,0.180639 -0.182788,0 -0.244959,-0.08121 -0.138129,-0.180639 z"
         id="path12901" />
      <path
         style="fill:#666666;fill-opacity:1;stroke-width:0.238049"
         d="m 65.873331,45.417194 c 0,-0.09927 0.141038,-0.180628 0.313713,-0.180628 0.172404,0 0.313755,0.08121 0.313755,0.180628 0,0.09927 -0.141039,0.180628 -0.313755,0.180628 -0.172404,0 -0.313713,-0.08121 -0.313713,-0.180628 z"
         id="path12899" />
      <path
         style="fill:#666666;fill-opacity:1;stroke-width:0.238049"
         d="m 55.677039,45.417194 c 0.106766,-0.09927 0.256093,-0.180628 0.332242,-0.180628 0.07602,0 0.138131,0.08121 0.138131,0.180628 0,0.09927 -0.149347,0.180628 -0.332242,0.180628 -0.18279,0 -0.24496,-0.08121 -0.138131,-0.180628 z"
         id="path12897" />
      <path
         style="fill:#666666;fill-opacity:1;stroke-width:0.238049"
         d="m 78.108853,46.140029 c 0,-0.09927 0.149346,-0.18064 0.33224,-0.18064 0.18279,0 0.244981,0.08121 0.138132,0.18064 -0.106766,0.09927 -0.256093,0.180616 -0.332242,0.180616 -0.07602,0 -0.13813,-0.08121 -0.13813,-0.180616 z"
         id="path12895" />
      <path
         style="fill:#666666;fill-opacity:1;stroke-width:0.238049"
         d="m 82.187352,46.501298 c 0,-0.09927 0.141246,-0.180629 0.313754,-0.180629 0.172405,0 0.313734,0.08121 0.313734,0.180629 0,0.09927 -0.141038,0.180628 -0.313734,0.180628 -0.172404,0 -0.313754,-0.08121 -0.313754,-0.180628 z"
         id="path12893" />
      <path
         style="fill:#666666;fill-opacity:1;stroke-width:0.238049"
         d="m 91.913085,46.681926 c 0,-0.09927 0.141038,-0.180628 0.313712,-0.180628 0.172405,0 0.313693,0.08121 0.313693,0.180628 0,0.09927 -0.14104,0.180627 -0.313693,0.180627 -0.172404,0 -0.313712,-0.08133 -0.313712,-0.180627 z"
         id="path12891" />
      <path
         style="fill:#666666;fill-opacity:1;stroke-width:0.238049"
         d="m 86.736474,47.042894 c 0.106766,-0.09927 0.326737,-0.180627 0.489128,-0.180627 0.162227,0 0.295206,0.08121 0.295206,0.180627 0,0.09927 -0.220219,0.180616 -0.489109,0.180616 -0.269136,0 -0.401846,-0.08121 -0.295225,-0.180616 z"
         id="path12889" />
      <path
         style="fill:#666666;fill-opacity:1;stroke-width:0.238049"
         d="m 80.932436,47.042894 c 0,-0.09927 0.14104,-0.180627 0.313735,-0.180627 0.172403,0 0.313734,0.08121 0.313734,0.180627 0,0.09927 -0.141039,0.180616 -0.313734,0.180616 -0.172404,0 -0.313735,-0.08121 -0.313735,-0.180616 z"
         id="path12887" />
      <path
         style="fill:#666666;fill-opacity:1;stroke-width:0.238049"
         d="m 76.383315,47.404305 c -0.106766,-0.09927 -0.04445,-0.180627 0.138131,-0.180627 0.18279,0 0.332262,0.08121 0.332262,0.180627 0,0.09927 -0.06232,0.180617 -0.138131,0.180617 -0.07602,0 -0.225766,-0.08121 -0.332262,-0.180617 z"
         id="path12885" />
      <path
         style="fill:#666666;fill-opacity:1;stroke-width:0.238049"
         d="m 72.181743,47.17281 c 0.449974,-0.220374 1.799464,-0.855717 2.998856,-1.411847 1.199392,-0.556152 2.718439,-1.388989 3.375651,-1.850749 1.160634,-0.815446 1.180201,-0.852559 0.680291,-1.291798 -0.283075,-0.248733 -0.708519,-0.452217 -0.945418,-0.452217 -0.407871,0 -2.394071,1.117103 -4.523802,2.54427 -1.189546,0.797146 -3.334857,1.672204 -3.854935,1.572405 -0.211767,-0.04066 0.124629,-0.255417 0.74788,-0.47719 1.14304,-0.40673 5.668669,-3.062903 6.156573,-3.613435 0.165757,-0.187015 0.06918,-0.544456 -0.260725,-0.965227 l -0.523984,-0.668224 -4.044684,2.339004 c -3.548928,2.052308 -4.545362,2.549126 -4.545362,2.266211 0,-0.03995 1.903466,-1.185912 4.229945,-2.546411 3.617372,-2.1154 4.184311,-2.522801 3.914468,-2.813071 -0.173651,-0.186692 -0.611101,-0.430496 -0.972381,-0.541812 -0.572257,-0.176335 -0.84399,-0.09892 -2.110476,0.601566 -1.499395,0.829261 -2.822213,1.398785 -3.248987,1.398785 -0.48406,0 -0.230834,-0.339331 0.329853,-0.441749 0.315562,-0.05776 1.222906,-0.478566 2.016277,-0.935339 l 1.442483,-0.830492 -0.839775,-0.416335 -0.839753,-0.416322 -1.564911,1.010259 c -1.501266,0.969199 -4.94644,2.571851 -5.528585,2.571851 -0.610891,0 -0.198576,-0.293488 1.01515,-0.722501 0.702618,-0.248359 2.265619,-1.049477 3.47334,-1.780242 2.261235,-1.368274 2.413679,-1.604938 1.674584,-2.599898 -0.163472,-0.219992 -0.09285,-0.316082 0.232289,-0.316082 0.290365,0 0.599032,0.302111 0.816386,0.799024 0.425484,0.972882 0.961703,1.303077 2.504699,1.542289 1.544866,0.239484 2.444752,0.813663 3.018464,1.925897 0.376381,0.729665 0.662614,0.95292 1.490776,1.162756 0.682493,0.172913 1.303376,0.556919 1.858164,1.149192 0.921157,0.983408 1.870502,1.479316 3.148182,1.644444 0.510773,0.06602 1.095015,0.353971 1.479643,0.729281 0.349565,0.341126 0.860442,0.620202 1.135271,0.620202 0.274828,0 0.412441,0.08122 0.305799,0.180629 -0.291799,0.27179 -1.407295,0.216951 -1.604479,-0.07906 -0.0968,-0.145285 -0.384795,-0.212743 -0.653807,-0.15325 -0.371396,0.08204 -0.433254,0.01986 -0.271797,-0.27294 0.165134,-0.299264 0.01247,-0.43827 -0.732551,-0.659516 -1.279779,-0.381028 -1.583189,-0.35731 -2.599398,0.203221 -0.48217,0.265954 -0.975163,0.426836 -1.095595,0.357501 -0.120477,-0.06925 0.228402,-0.347885 0.774966,-0.61903 l 0.993857,-0.492954 -0.644355,-0.442791 -0.644396,-0.44279 -1.467222,0.936605 c -1.517654,0.968864 -6.207774,3.114249 -6.786097,3.104191 -0.180712,-0.0024 0.03988,-0.186022 0.489877,-0.406395 z"
         id="path12883" />
      <path
         style="fill:#666666;fill-opacity:1;stroke-width:0.238049"
         d="m 67.128246,47.484023 c 0,-0.154972 0.143324,-0.230552 0.318843,-0.168153 0.175312,0.06232 0.237607,0.189119 0.138131,0.281598 -0.268866,0.250526 -0.457203,0.203821 -0.457203,-0.113505 z"
         id="path12881" />
      <path
         style="fill:#666666;fill-opacity:1;stroke-width:0.238049"
         d="m 90.187526,47.765646 c -0.106766,-0.09927 -0.04425,-0.180604 0.138131,-0.180604 0.18279,0 0.332243,0.08121 0.332243,0.180604 0,0.09927 -0.06232,0.180639 -0.138132,0.180639 -0.07602,0 -0.225766,-0.08121 -0.332242,-0.180639 z"
         id="path12879" />
      <path
         style="fill:#666666;fill-opacity:1;stroke-width:0.238049"
         d="m 79.677522,47.946262 c 0,-0.09927 0.141038,-0.180628 0.313734,-0.180628 0.172404,0 0.313713,0.08121 0.313713,0.180628 0,0.09927 -0.14104,0.180627 -0.313713,0.180627 -0.172404,0 -0.313734,-0.08121 -0.313734,-0.180627 z"
         id="path12877" />
      <path
         style="fill:#666666;fill-opacity:1;stroke-width:0.238049"
         d="m 66.187044,47.946262 c 0,-0.09927 0.141039,-0.180628 0.313755,-0.180628 0.172404,0 0.313712,0.08121 0.313712,0.180628 0,0.09927 -0.141038,0.180627 -0.313712,0.180627 -0.172405,0 -0.313755,-0.08121 -0.313755,-0.180627 z"
         id="path12875" />
      <path
         style="fill:#666666;fill-opacity:1;stroke-width:0.238049"
         d="m 70.579299,48.126889 c 0,-0.09927 0.141038,-0.180627 0.313734,-0.180627 0.172405,0 0.313713,0.08121 0.313713,0.180627 0,0.09927 -0.141039,0.180629 -0.313713,0.180629 -0.172404,0 -0.313734,-0.08121 -0.313734,-0.180629 z"
         id="path12873" />
      <path
         style="fill:#666666;fill-opacity:1;stroke-width:0.238049"
         d="m 74.65782,48.307542 c 0,-0.09927 0.141038,-0.180628 0.313713,-0.180628 0.172405,0 0.313713,0.08121 0.313713,0.180628 0,0.09927 -0.14104,0.18064 -0.313713,0.18064 -0.172404,0 -0.313713,-0.08122 -0.313713,-0.18064 z"
         id="path12871" />
      <path
         style="fill:#666666;fill-opacity:1;stroke-width:0.238049"
         d="m 88.461989,48.488206 c 0,-0.09927 0.141247,-0.18064 0.313777,-0.18064 0.172404,0 0.313712,0.08122 0.313712,0.18064 0,0.09927 -0.141039,0.180616 -0.313712,0.180616 -0.172405,0 -0.313777,-0.08121 -0.313777,-0.180616 z"
         id="path12869" />
      <path
         style="fill:#666666;fill-opacity:1;stroke-width:0.238049"
         d="m 77.965383,48.681297 c -0.09929,-0.09234 -0.03697,-0.219189 0.13813,-0.281586 0.175312,-0.06232 0.318845,0.01243 0.318845,0.16814 0,0.317278 -0.188191,0.363996 -0.457204,0.113506 z"
         id="path12867" />
      <path
         style="fill:#666666;fill-opacity:1;stroke-width:0.238049"
         d="m 83.28542,48.848864 c -0.106765,-0.09927 -0.04425,-0.18064 0.138132,-0.18064 0.182789,0 0.332242,0.08121 0.332242,0.18064 0,0.09927 -0.06232,0.180628 -0.138132,0.180628 -0.07602,0 -0.225766,-0.08121 -0.332242,-0.180628 z"
         id="path12865" />
      <path
         style="fill:#666666;fill-opacity:1;stroke-width:0.238049"
         d="m 73.08915,49.030042 c 0,-0.09927 0.141038,-0.180628 0.313754,-0.180628 0.172405,0 0.313714,0.08122 0.313714,0.180628 0,0.09927 -0.141247,0.180629 -0.313714,0.180629 -0.172404,0 -0.313754,-0.08133 -0.313754,-0.180629 z"
         id="path12863" />
      <path
         style="fill:#666666;fill-opacity:1;stroke-width:0.238049"
         d="m 86.739652,49.38836 c 0.10822,-0.100948 0.328481,-0.136804 0.489109,-0.07954 0.435164,0.154804 0.354009,0.263215 -0.197122,0.263215 -0.269139,0 -0.400456,-0.08253 -0.292049,-0.183571 z"
         id="path12861" />
      <path
         style="fill:#666666;fill-opacity:1;stroke-width:0.238049"
         d="m 76.226469,49.39076 c 0,-0.09927 0.141039,-0.18064 0.313754,-0.18064 0.172405,0 0.313714,0.08121 0.313714,0.18064 0,0.09927 -0.141246,0.180616 -0.313714,0.180616 -0.172404,0 -0.313754,-0.08121 -0.313754,-0.180616 z"
         id="path12859" />
      <path
         style="fill:#666666;fill-opacity:1;stroke-width:0.238049"
         d="m 81.246171,49.560217 c 0,-0.105253 0.141038,-0.14105 0.313734,-0.07954 0.172404,0.06148 0.313754,0.147462 0.313754,0.191296 0,0.04377 -0.141039,0.07954 -0.313754,0.07954 -0.172404,0 -0.313734,-0.086 -0.313734,-0.191286 z"
         id="path12857" />
      <path
         style="fill:#666666;fill-opacity:1;stroke-width:0.238049"
         d="m 71.0499,49.932537 c 0.106558,-0.09927 0.256093,-0.18064 0.332241,-0.18064 0.07602,0 0.138131,0.08121 0.138131,0.18064 0,0.09927 -0.149348,0.180616 -0.33222,0.180616 -0.182791,0 -0.244981,-0.08121 -0.138131,-0.180616 z"
         id="path12855" />
      <path
         style="fill:#666666;fill-opacity:1;stroke-width:0.238049"
         d="m 96.465321,50.110179 c 0.108217,-0.100948 0.328483,-0.136805 0.489131,-0.07954 0.435124,0.154804 0.354008,0.263227 -0.197122,0.263227 -0.269142,0 -0.400459,-0.08253 -0.292072,-0.183571 z"
         id="path12853" />
      <path
         style="fill:#666666;fill-opacity:1;stroke-width:0.238049"
         d="m 74.65782,50.101779 c 0,-0.105254 0.141038,-0.141051 0.313713,-0.07954 0.172405,0.0616 0.313713,0.147462 0.313713,0.191285 0,0.04377 -0.14104,0.07954 -0.313713,0.07954 -0.172404,0 -0.313713,-0.08599 -0.313713,-0.191285 z"
         id="path12851" />
      <path
         style="fill:#666666;fill-opacity:1;stroke-width:0.238049"
         d="m 99.442621,50.517408 c 0,-0.07547 0.952929,-0.50203 2.117679,-0.948278 1.16472,-0.446261 3.07062,-1.332704 4.23529,-1.969866 l 2.11764,-1.158498 -0.86269,-0.30296 -0.86268,-0.302961 -3.72031,2.048481 c -3.311082,1.823182 -4.59358,2.355546 -4.59358,1.906822 0,-0.07798 0.388237,-0.276085 0.862746,-0.440364 0.474528,-0.164265 2.252574,-1.105344 3.951254,-2.0913 2.8827,-1.673184 3.06057,-1.81836 2.66968,-2.178708 -0.40399,-0.372427 -1.20905,-0.535114 -1.20905,-0.244294 0,0.259341 -5.231191,3.096477 -5.725621,3.105279 -0.612325,0.01077 -0.06455,-0.370215 1.825291,-1.270341 1.13329,-0.539743 2.41893,-1.251861 2.85689,-1.582451 l 0.79633,-0.601077 -0.73919,-0.483636 c -0.40657,-0.265979 -0.75898,-0.508526 -0.78312,-0.538978 -0.0243,-0.03062 -0.80062,0.408297 -1.72551,0.975035 -2.080134,1.274576 -7.443941,4.047506 -7.829275,4.047506 -0.577034,0 -0.197122,-0.290665 1.386336,-1.06066 2.453503,-1.193052 6.059159,-3.212434 6.988629,-3.914016 0.8053,-0.607857 0.81243,-0.635953 0.28004,-1.103777 l -0.54635,-0.480025 -2.440979,1.473001 c -2.037763,1.229687 -3.127973,1.72264 -3.127973,1.414417 0,-0.03218 1.129435,-0.737391 2.509872,-1.567046 1.38041,-0.829667 2.50985,-1.566795 2.50985,-1.638056 0,-0.07129 -0.529424,-0.255907 -1.176506,-0.410342 -1.175231,-0.280499 -1.177434,-0.280176 -2.062509,0.296765 -5.474042,3.568403 -8.123686,5.024359 -8.620771,4.737033 -0.120475,-0.06961 0.134185,-0.286612 0.565444,-0.482262 2.692289,-1.221219 3.717199,-1.804846 5.84818,-3.330198 1.930198,-1.381621 2.310977,-1.753486 2.009648,-1.962545 -0.204597,-0.14184 -0.473094,-0.475958 -0.596917,-0.742462 -0.224313,-0.4828 -0.229855,-0.481017 -1.535954,0.493695 -1.660833,1.239423 -5.992494,3.667054 -6.264125,3.51067 -0.112789,-0.06494 0.632848,-0.587586 1.657179,-1.161344 3.344208,-1.873105 5.710731,-3.627955 5.250142,-3.893133 -0.301148,-0.173391 -1.662185,-0.136254 -1.662185,0.04558 0,0.32059 -4.92866,3.091728 -5.498902,3.091728 -0.418943,0 -0.09222,-0.254126 1.140755,-0.886694 0.950383,-0.48768 2.335868,-1.34037 3.078888,-1.894826 1.185412,-0.884613 1.452208,-0.994304 2.177837,-0.895282 1.169214,0.15953 1.844355,0.548008 2.268611,1.305362 0.453425,0.809477 1.091508,1.17468 2.529953,1.448002 1.372502,0.260788 2.148392,0.735048 3.220622,1.968538 0.49253,0.56663 1.23904,1.098001 1.83618,1.307096 0.5534,0.19376 1.36112,0.653164 1.7949,1.02088 0.52191,0.442456 1.15238,0.722846 1.86391,0.828997 l 1.07525,0.160427 -2.56352,1.415708 c -2.45903,1.357989 -6.35313,3.072389 -6.978617,3.072389 -0.164305,0 -0.298692,-0.06172 -0.298692,-0.136816 z"
         id="path12849" />
      <path
         style="fill:#666666;fill-opacity:1;stroke-width:0.238049"
         d="m 84.38349,50.473638 c 0,-0.09927 0.141039,-0.18064 0.313734,-0.18064 0.172404,0 0.313734,0.08121 0.313734,0.18064 0,0.09927 -0.14104,0.180616 -0.313734,0.180616 -0.172404,0 -0.313734,-0.08121 -0.313734,-0.180616 z"
         id="path12847" />
      <path
         style="fill:#666666;fill-opacity:1;stroke-width:0.238049"
         d="m 94.422895,51.005137 c 0,-0.105253 0.141039,-0.14105 0.313755,-0.07954 0.172403,0.06148 0.31371,0.147474 0.31371,0.191298 0,0.04377 -0.141039,0.07954 -0.31371,0.07954 -0.172403,0 -0.313755,-0.08599 -0.313755,-0.191285 z"
         id="path12845" />
      <path
         style="fill:#666666;fill-opacity:1;stroke-width:0.238049"
         d="m 89.403212,51.015907 c 0,-0.09927 0.14104,-0.180604 0.313734,-0.180604 0.172404,0 0.313735,0.08121 0.313735,0.180604 0,0.09927 -0.14104,0.18064 -0.313735,0.18064 -0.172404,0 -0.313734,-0.08121 -0.313734,-0.18064 z"
         id="path12843" />
      <path
         style="fill:#666666;fill-opacity:1;stroke-width:0.238049"
         d="m 55.990752,51.015907 c 0.106766,-0.09927 0.256114,-0.180604 0.332283,-0.180604 0.07602,0 0.138132,0.08121 0.138132,0.180604 0,0.09927 -0.149349,0.18064 -0.332283,0.18064 -0.18279,0 -0.244939,-0.08121 -0.138132,-0.18064 z"
         id="path12841" />
      <path
         style="fill:#666666;fill-opacity:1;stroke-width:0.238049"
         d="m 78.108853,51.095447 c 0,-0.154805 0.143322,-0.230539 0.318863,-0.168141 0.175312,0.06232 0.237585,0.18912 0.138132,0.281599 -0.268847,0.250537 -0.457203,0.203819 -0.457203,-0.113506 z"
         id="path12839" />
      <path
         style="fill:#666666;fill-opacity:1;stroke-width:0.238049"
         d="m 72.461703,51.196395 c 0,-0.09927 0.141038,-0.180616 0.313734,-0.180616 0.172404,0 0.313713,0.08122 0.313713,0.180616 0,0.09927 -0.141039,0.18064 -0.313713,0.18064 -0.172404,0 -0.313734,-0.08122 -0.313734,-0.18064 z"
         id="path12837" />
      <path
         style="fill:#666666;fill-opacity:1;stroke-width:0.238049"
         d="m 59.441826,51.196395 c -0.106766,-0.09927 -0.04425,-0.180616 0.138132,-0.180616 0.182789,0 0.33224,0.08122 0.33224,0.180616 0,0.09927 -0.06232,0.18064 -0.13813,0.18064 -0.07602,0 -0.225767,-0.08122 -0.332242,-0.18064 z"
         id="path12835" />
      <path
         style="fill:#666666;fill-opacity:1;stroke-width:0.238049"
         d="m 82.501106,51.376566 c 0,-0.09927 0.14104,-0.180628 0.313734,-0.180628 0.172404,0 0.313735,0.08121 0.313735,0.180628 0,0.09927 -0.141247,0.180605 -0.313735,0.180605 -0.172404,0 -0.313734,-0.08133 -0.313734,-0.180605 z"
         id="path12833" />
      <path
         style="fill:#666666;fill-opacity:1;stroke-width:0.238049"
         d="m 93.011112,51.737809 c 0.106767,-0.09927 0.256115,-0.180639 0.332262,-0.180639 0.07602,0 0.138129,0.08121 0.138129,0.180639 0,0.09927 -0.149347,0.180629 -0.332243,0.180629 -0.182786,0 -0.244956,-0.08121 -0.138128,-0.180629 z"
         id="path12831" />
      <path
         style="fill:#666666;fill-opacity:1;stroke-width:0.238049"
         d="m 57.562579,51.915485 c 0.108221,-0.100948 0.328503,-0.136804 0.489129,-0.07954 0.435145,0.154817 0.354011,0.263204 -0.197122,0.263204 -0.269137,0 -0.400414,-0.08253 -0.292049,-0.183571 z"
         id="path12829" />
      <path
         style="fill:#666666;fill-opacity:1;stroke-width:0.238049"
         d="m 53.951502,51.998015 c 0,-0.15483 0.143324,-0.230552 0.318843,-0.168141 0.175313,0.06232 0.237608,0.189107 0.138132,0.281575 -0.268847,0.250561 -0.457183,0.203831 -0.457183,-0.113386 z"
         id="path12827" />
      <path
         style="fill:#666666;fill-opacity:1;stroke-width:0.238049"
         d="m 75.912756,52.279734 c 0,-0.09927 0.141039,-0.180629 0.313713,-0.180629 0.172404,0 0.313754,0.08121 0.313754,0.180629 0,0.09927 -0.141038,0.180615 -0.313754,0.180615 -0.172405,0 -0.313713,-0.08121 -0.313713,-0.180615 z"
         id="path12825" />
      <path
         style="fill:#666666;fill-opacity:1;stroke-width:0.238049"
         d="m 79.991256,52.640966 c 0,-0.09927 0.141038,-0.180641 0.313713,-0.180641 0.172404,0 0.313755,0.08121 0.313755,0.180641 0,0.09927 -0.141039,0.180627 -0.313755,0.180627 -0.172405,0 -0.313713,-0.08121 -0.313713,-0.180627 z"
         id="path12823" />
      <path
         style="fill:#666666;fill-opacity:1;stroke-width:0.238049"
         d="m 52.06914,52.640966 c 0,-0.09927 0.141039,-0.180641 0.313734,-0.180641 0.172404,0 0.313712,0.08121 0.313712,0.180641 0,0.09927 -0.141037,0.180627 -0.313712,0.180627 -0.172405,0 -0.313734,-0.08121 -0.313734,-0.180627 z"
         id="path12821" />
      <path
         style="fill:#666666;fill-opacity:1;stroke-width:0.238049"
         d="m 74.187219,53.002149 c 0.106558,-0.09927 0.256072,-0.180628 0.33222,-0.180628 0.07602,0 0.138131,0.08121 0.138131,0.180628 0,0.09927 -0.149347,0.180629 -0.33222,0.180629 -0.18279,0 -0.24498,-0.08121 -0.138131,-0.180629 z"
         id="path12819" />
      <path
         style="fill:#666666;fill-opacity:1;stroke-width:0.238049"
         d="m 59.598693,53.363346 c 0,-0.09927 0.149348,-0.180639 0.332241,-0.180639 0.18279,0 0.24496,0.08133 0.138131,0.180639 -0.106974,0.09927 -0.256092,0.180616 -0.332241,0.180616 -0.07602,0 -0.138131,-0.08121 -0.138131,-0.180616 z"
         id="path12817" />
      <path
         style="fill:#666666;fill-opacity:1;stroke-width:0.238049"
         d="m 77.795117,53.543962 c 0,-0.09927 0.14104,-0.180616 0.313736,-0.180616 0.172402,0 0.313712,0.08121 0.313712,0.180616 0,0.09927 -0.14104,0.180628 -0.313712,0.180628 -0.172405,0 -0.313736,-0.08121 -0.313736,-0.180628 z"
         id="path12815" />
      <path
         style="font-size:32px;line-height:1.25;fill:#666666;fill-opacity:1;stroke-width:0.238049"
         d="m 104.48503,34.379717 c -0.16528,0.0049 -0.29733,0.08401 -0.29733,0.180179 0,0.09942 0.14171,0.180871 0.31411,0.180871 0.17267,0 0.31292,-0.0816 0.31292,-0.180871 0,-0.0994 -0.14052,-0.180179 -0.31292,-0.180179 -0.005,0 -0.0114,-1.57e-4 -0.0168,0 z"
         id="path13151" />
      <path
         style="font-size:32px;line-height:1.25;fill:#666666;fill-opacity:1;stroke-width:0.238049"
         d="m 98.878951,39.374359 c -0.165259,0.0049 -0.297329,0.08401 -0.297329,0.18018 0,0.09942 0.14171,0.18087 0.314119,0.18087 0.17271,0 0.31291,-0.0816 0.31291,-0.18087 0,-0.09943 -0.14051,-0.18018 -0.31291,-0.18018 -0.005,0 -0.0115,-1.57e-4 -0.0168,0 z"
         id="path13149" />
      <path
         style="font-size:32px;line-height:1.25;fill:#666666;fill-opacity:1;stroke-width:0.238049"
         d="m 105.09887,36.146998 c -0.16528,0.0049 -0.29733,0.08401 -0.29733,0.18018 0,0.09942 0.14171,0.180871 0.31411,0.180871 0.17267,0 0.31292,-0.0816 0.31292,-0.180871 0,-0.0994 -0.14052,-0.18018 -0.31292,-0.18018 -0.005,0 -0.0114,-1.57e-4 -0.0168,0 z"
         id="path13151-1" />
      <path
         style="font-size:32px;line-height:1.25;fill:#666666;fill-opacity:1;stroke-width:0.238049"
         d="m 107.29526,35.244027 c -0.16526,0.0049 -0.29733,0.08401 -0.29733,0.18018 0,0.09942 0.14171,0.18087 0.31412,0.18087 0.17271,0 0.31291,-0.0816 0.31291,-0.18087 0,-0.09943 -0.14051,-0.18018 -0.31291,-0.18018 -0.005,0 -0.0115,-1.57e-4 -0.0168,0 z"
         id="path13149-1" />
      <path
         style="font-size:32px;line-height:1.25;fill:#666666;fill-opacity:1;stroke-width:0.238049"
         d="m 101.40504,38.109647 c -0.17269,0 -0.31411,0.0816 -0.31411,0.180871 0,0.09927 0.14171,0.18018 0.31411,0.18018 0.17249,0 0.31412,-0.08091 0.31412,-0.18018 0,-0.09942 -0.14171,-0.180871 -0.31412,-0.180871 z"
         id="path13147" />
      <path
         style="font-size:32px;line-height:1.25;fill:#666666;fill-opacity:1;stroke-width:0.238049"
         d="m 96.893563,37.819012 c -0.11436,0.0022 -0.19422,0.07443 -0.19422,0.190535 0,0.317325 0.18794,0.363754 0.45678,0.113217 0.0995,-0.09248 0.0374,-0.219341 -0.13787,-0.281661 -0.0439,-0.0156 -0.0866,-0.02283 -0.12469,-0.02209 z"
         id="path13145" />
      <path
         style="font-size:32px;line-height:1.25;fill:#666666;fill-opacity:1;stroke-width:0.238049"
         d="m 103.28732,37.206677 c -0.17269,0 -0.31411,0.0816 -0.31411,0.18087 0,0.09941 0.14171,0.18087 0.31411,0.18087 0.1727,0 0.31412,-0.0816 0.31412,-0.18087 0,-0.09943 -0.14171,-0.18087 -0.31412,-0.18087 z"
         id="path13143" />
      <path
         style="font-size:32px;line-height:1.25;fill:#666666;fill-opacity:1;stroke-width:0.238049"
         d="m 106.62628,38.095151 c -0.16528,0.0049 -0.29733,0.08401 -0.29733,0.18018 0,0.09942 0.14171,0.180871 0.31411,0.180871 0.17267,0 0.31292,-0.0816 0.31292,-0.180871 0,-0.0994 -0.14052,-0.18018 -0.31292,-0.18018 -0.005,0 -0.0114,-1.57e-4 -0.0168,0 z"
         id="path13151-1-7" />
      <path
         style="font-size:32px;line-height:1.25;fill:#666666;fill-opacity:1;stroke-width:0.238049"
         d="m 102.93245,40.0578 c -0.17269,0 -0.31411,0.0816 -0.31411,0.180871 0,0.09927 0.14171,0.18018 0.31411,0.18018 0.17249,0 0.31412,-0.08091 0.31412,-0.18018 0,-0.09942 -0.14171,-0.180871 -0.31412,-0.180871 z"
         id="path13147-4" />
      <path
         style="font-size:32px;line-height:1.25;fill:#666666;fill-opacity:1;stroke-width:0.238049"
         d="m 104.81473,39.15483 c -0.17269,0 -0.31411,0.0816 -0.31411,0.18087 0,0.09941 0.14171,0.18087 0.31411,0.18087 0.1727,0 0.31412,-0.0816 0.31412,-0.18087 0,-0.09943 -0.14171,-0.18087 -0.31412,-0.18087 z"
         id="path13143-8" />
      <path
         style="font-size:32px;line-height:1.25;fill:#666666;fill-opacity:1;stroke-width:0.238049"
         d="m 99.980741,36.364456 c -0.087,0.0031 -0.14386,0.04234 -0.14386,0.109765 0,0.105286 0.14051,0.191225 0.312909,0.191225 0.17271,0 0.31411,-0.03562 0.31411,-0.07939 0,-0.04383 -0.14171,-0.129746 -0.31411,-0.191226 -0.0621,-0.0221 -0.12024,-0.03211 -0.169049,-0.03037 z"
         id="path13141" />
      <path
         style="font-size:32px;line-height:1.25;fill:#666666;fill-opacity:1;stroke-width:0.238049"
         d="m 101.98891,35.582296 c -0.16302,0.0071 -0.21446,0.08556 -0.1127,0.18018 0.10648,0.09942 0.25608,0.18087 0.3321,0.18087 0.0758,0 0.13787,-0.0816 0.13787,-0.18087 0,-0.09943 -0.1493,-0.18018 -0.33209,-0.18018 -0.009,0 -0.0172,-3.51e-4 -0.0252,0 z"
         id="path13139" />
      <path
         style="font-size:32px;line-height:1.25;fill:#666666;fill-opacity:1;stroke-width:0.238049"
         d="m 96.802453,35.291661 c -0.0341,0.0011 -0.0708,0.0085 -0.1091,0.02209 -0.1751,0.0624 -0.23717,0.18932 -0.13788,0.28166 0.26901,0.25049 0.45679,0.203371 0.45679,-0.113907 0,-0.121647 -0.0879,-0.193779 -0.20981,-0.189843 z"
         id="path13137" />
      <path
         style="font-size:32px;line-height:1.25;fill:#666666;fill-opacity:1;stroke-width:0.238049"
         d="m 98.581622,34.679325 c -0.17269,0 -0.31411,0.0816 -0.31411,0.18087 0,0.09942 0.14171,0.18018 0.31411,0.18018 0.17268,0 0.314119,-0.08091 0.314119,-0.18018 0,-0.09942 -0.141709,-0.18087 -0.314119,-0.18087 z"
         id="path12877-3" />
      <path
         style="fill:#666666;fill-opacity:1;stroke-width:0.238049"
         d="m 53.951502,53.543962 c 0,-0.09927 0.141039,-0.180616 0.313755,-0.180616 0.172404,0 0.313713,0.08121 0.313713,0.180616 0,0.09927 -0.141039,0.180628 -0.313713,0.180628 -0.172405,0 -0.313755,-0.08121 -0.313755,-0.180628 z"
         id="path12813" />
      <path
         style="fill:#666666;fill-opacity:1;stroke-width:0.238049"
         d="m 50.186736,53.543962 c 0,-0.09927 0.141248,-0.180616 0.313734,-0.180616 0.172404,0 0.313713,0.08121 0.313713,0.180616 0,0.09927 -0.141038,0.180628 -0.313713,0.180628 -0.172404,0 -0.313734,-0.08121 -0.313734,-0.180628 z"
         id="path12811" />
      <path
         style="fill:#666666;fill-opacity:1;stroke-width:0.238049"
         d="m 57.873156,54.266463 c -0.106766,-0.09927 0.03448,-0.180628 0.313755,-0.180628 0.27917,0 0.420375,0.08121 0.313714,0.180628 -0.10656,0.09927 -0.24793,0.180615 -0.313714,0.180615 -0.06606,0 -0.206885,-0.08121 -0.313755,-0.180615 z"
         id="path12809" />
      <path
         style="fill:#666666;fill-opacity:1;stroke-width:0.238049"
         d="m 52.53972,54.447796 c 0.106973,-0.09927 0.335066,-0.180615 0.507616,-0.180615 0.172404,0 0.226494,0.08121 0.119852,0.180615 -0.106766,0.09927 -0.335087,0.180628 -0.507657,0.180628 -0.172404,0 -0.226493,-0.08121 -0.119852,-0.180628 z"
         id="path12807" />
      <path
         style="fill:#666666;fill-opacity:1;stroke-width:0.238049"
         d="m 62.108544,54.82069 c 0,-0.0927 0.2493,-0.214034 0.554332,-0.269734 0.304884,-0.05573 1.662599,-0.743133 3.017175,-1.527564 l 2.462804,-1.426307 -0.511459,-0.886478 -0.511417,-0.886469 -2.760107,1.589066 c -1.518029,0.873992 -2.963274,1.587463 -3.211599,1.585501 -0.248219,-0.0011 0.57556,-0.550615 1.830912,-1.219222 2.207998,-1.175984 3.515237,-2.099446 3.519536,-2.486224 0.0012,-0.102741 -0.39601,-0.322206 -0.882543,-0.48768 l -0.884599,-0.300844 -1.696083,1.074715 c -0.932851,0.591078 -1.907226,1.074701 -2.165208,1.074701 -0.258814,0 0.405627,-0.508118 1.482675,-1.13381 1.861113,-1.081077 1.929638,-1.15204 1.474222,-1.526417 -0.472035,-0.387952 -0.500429,-0.378228 -2.392346,0.817707 -1.053099,0.6657 -2.285248,1.392817 -2.738194,1.615856 -0.866299,0.426598 -1.607824,0.531133 -1.607824,0.226664 0,-0.09927 0.180921,-0.180603 0.401993,-0.180603 0.363232,0 2.002567,-0.917589 4.884187,-2.73382 1.030375,-0.649422 1.036191,-0.662866 0.52951,-1.226974 -0.573544,-0.638536 -1.627827,-0.945946 -2.693742,-0.785459 -0.491331,0.07391 -0.641032,0.04245 -0.485764,-0.10202 0.12359,-0.11506 0.68382,-0.209094 1.245298,-0.209094 1.297663,0 2.524037,0.713985 2.998253,1.745557 0.281019,0.611291 0.61218,0.84201 1.768513,1.232164 1.351795,0.45609 1.600492,0.659216 2.614311,2.135124 0.191515,0.278776 0.488777,0.456868 0.660598,0.395737 0.171989,-0.06111 0.312406,0.01567 0.312406,0.170427 0,0.154829 0.178843,0.281622 0.397048,0.281622 0.819606,0 2.427035,0.656455 3.278919,1.339102 0.597537,0.478793 1.285761,0.778703 2.132598,0.929347 l 1.250366,0.222393 -1.222989,0.0189 c -1.089906,0.01699 -1.397159,-0.08696 -2.823564,-0.954021 -0.88032,-0.535138 -2.056866,-1.058734 -2.61454,-1.163545 -0.997971,-0.187542 -1.047386,-0.169133 -3.126185,1.162827 -2.401071,1.538425 -4.487493,2.416699 -4.487493,1.888977 z"
         id="path12805" />
      <path
         style="font-size:32px;line-height:1.25;fill:#666666;fill-opacity:1;stroke-width:0.238049"
         d="m 56.074612,35.529579 c 0,-0.0927 0.2493,-0.214034 0.554332,-0.269734 0.304884,-0.05573 1.662599,-0.743133 3.017175,-1.527564 l 2.462804,-1.426307 -0.511459,-0.886478 -0.511417,-0.886469 -2.760107,1.589066 c -1.518029,0.873992 -2.963274,1.587463 -3.211599,1.585501 -0.248219,-0.0011 0.57556,-0.550615 1.830912,-1.219222 2.207998,-1.175984 3.515237,-2.099446 3.519536,-2.486224 0.0012,-0.102741 -0.39601,-0.322206 -0.882543,-0.48768 l -0.884599,-0.300844 -1.696083,1.074715 c -0.932851,0.591078 -1.907226,1.074701 -2.165208,1.074701 -0.258814,0 0.405627,-0.508118 1.482675,-1.13381 1.861113,-1.081077 1.929638,-1.15204 1.474222,-1.526417 -0.472035,-0.387952 -0.500429,-0.378228 -2.392346,0.817707 -1.053099,0.6657 -2.285248,1.392817 -2.738194,1.615856 -0.866299,0.426598 -1.607824,0.531133 -1.607824,0.226664 0,-0.09927 0.180921,-0.180603 0.401993,-0.180603 0.363232,0 2.002567,-0.917589 4.884187,-2.73382 1.030375,-0.649422 1.036191,-0.662866 0.52951,-1.226974 -0.573544,-0.638536 -1.627827,-0.945946 -2.693742,-0.785459 -0.491331,0.07391 -0.641032,0.04245 -0.485764,-0.10202 0.12359,-0.11506 0.68382,-0.209094 1.245298,-0.209094 1.297663,0 2.524037,0.713985 2.998253,1.745557 0.281019,0.611291 0.61218,0.84201 1.768513,1.232164 1.351795,0.45609 1.600492,0.659216 2.614311,2.135124 0.191515,0.278776 0.488777,0.456868 0.660598,0.395737 0.171989,-0.06111 0.312406,0.01567 0.312406,0.170427 0,0.154829 0.178843,0.281622 0.397048,0.281622 0.819606,0 2.427035,0.656455 3.278919,1.339102 0.597537,0.478793 1.285761,0.778703 2.132598,0.929347 l 1.250366,0.222393 -1.222989,0.0189 c -1.089906,0.01699 -1.397159,-0.08696 -2.823564,-0.954021 -0.88032,-0.535138 -2.056866,-1.058734 -2.61454,-1.163545 -0.997971,-0.187542 -1.047386,-0.169133 -3.126185,1.162827 -2.401071,1.538425 -4.487493,2.416699 -4.487493,1.888977 z"
         id="path12805-4" />
      <path
         style="fill:#666666;fill-opacity:1;stroke-width:0.238049"
         d="m 56.775108,54.707543 c 0,-0.154972 0.143324,-0.230551 0.318844,-0.168153 0.175312,0.06232 0.237606,0.18912 0.138131,0.2816 -0.268867,0.250525 -0.457203,0.203818 -0.457203,-0.113506 z"
         id="path12803" />
      <path
         style="fill:#666666;fill-opacity:1;stroke-width:0.238049"
         d="m 66.814511,55.009894 c 0,-0.08792 0.36772,-0.298571 0.817155,-0.4681 0.449393,-0.169553 1.436812,-0.680614 2.194227,-1.135713 0.757414,-0.455098 1.466847,-0.775796 1.576522,-0.712657 0.109674,0.06315 -0.723475,0.646157 -1.851455,1.295566 -1.909344,1.099258 -2.736449,1.407839 -2.736449,1.020904 z"
         id="path12801" />
      <path
         style="fill:#666666;fill-opacity:1;stroke-width:0.238049"
         d="m 60.853608,55.169711 c 0,-0.09927 0.141038,-0.180629 0.313713,-0.180629 0.172405,0 0.313755,0.08122 0.313755,0.180629 0,0.09927 -0.141039,0.180628 -0.313755,0.180628 -0.172404,0 -0.313713,-0.08122 -0.313713,-0.180628 z"
         id="path12799" />
      <path
         style="fill:#666666;fill-opacity:1;stroke-width:0.238049"
         d="m 63.54937,34.740523 c -0.106767,-0.09927 -0.04403,-0.180627 0.13813,-0.180627 0.18279,0 0.332242,0.08121 0.332242,0.180627 0,0.09927 -0.06232,0.180616 -0.138131,0.180616 -0.07602,0 -0.225766,-0.08121 -0.332221,-0.180616 z"
         id="path12797" />
      <path
         style="fill:#666666;fill-opacity:1;stroke-width:0.238049"
         d="m 50.814183,55.350805 c 0,-0.09927 0.149348,-0.180627 0.332263,-0.180627 0.18279,0 0.244938,0.08121 0.13813,0.180627 -0.106558,0.09927 -0.256092,0.180616 -0.33224,0.180616 -0.07602,0 -0.138132,-0.08121 -0.138132,-0.180616 z"
         id="path12795" />
      <path
         style="fill:#666666;fill-opacity:1;stroke-width:0.238049"
         d="m 81.873659,55.892117 c 0,-0.09927 0.14104,-0.180615 0.313693,-0.180615 0.172404,0 0.313754,0.08121 0.313754,0.180615 0,0.09927 -0.141039,0.18064 -0.313754,0.18064 -0.172404,0 -0.313693,-0.08121 -0.313693,-0.18064 z"
         id="path12793" />
      <path
         style="fill:#666666;fill-opacity:1;stroke-width:0.238049"
         d="m 71.693943,56.450363 c -0.101154,-0.09413 -0.04985,-0.218674 0.113621,-0.276827 0.163472,-0.05825 0.379808,-0.0287 0.480821,0.06542 0.101154,0.09413 0.04985,0.218687 -0.11362,0.276839 -0.163474,0.05813 -0.37983,0.0287 -0.480822,-0.06542 z"
         id="path12791" />
      <path
         style="fill:#666666;fill-opacity:1;stroke-width:0.238049"
         d="m 58.657512,56.434693 c 0,-0.09927 0.141039,-0.180604 0.313713,-0.180604 0.172404,0 0.313754,0.08121 0.313754,0.180604 0,0.09927 -0.141038,0.180628 -0.313754,0.180628 -0.172405,0 -0.313713,-0.08121 -0.313713,-0.180628 z"
         id="path12789" />
      <path
         style="fill:#666666;fill-opacity:1;stroke-width:0.238049"
         d="m 80.304969,56.615321 c 0,-0.09927 0.141039,-0.180628 0.313755,-0.180628 0.172404,0 0.313712,0.08121 0.313712,0.180628 0,0.09927 -0.141038,0.180641 -0.313712,0.180641 -0.172405,0 -0.313755,-0.08121 -0.313755,-0.180641 z"
         id="path12787" />
      <path
         style="fill:#666666;fill-opacity:1;stroke-width:0.238049"
         d="m 69.638118,57.157194 c 0,-0.09927 0.13273,-0.180617 0.295184,-0.180617 0.162434,0 0.38251,0.08133 0.489151,0.180617 0.106766,0.09927 -0.02721,0.180628 -0.295248,0.180628 -0.269117,0 -0.489087,-0.08121 -0.489087,-0.180628 z"
         id="path12785" />
      <path
         style="fill:#666666;fill-opacity:1;stroke-width:0.238049"
         d="m 62.579145,57.337822 c 0.106558,-0.09927 0.256093,-0.180628 0.332241,-0.180628 0.07602,0 0.138131,0.08121 0.138131,0.180628 0,0.09927 -0.149348,0.180628 -0.33224,0.180628 -0.182791,0 -0.24496,-0.08121 -0.138132,-0.180628 z"
         id="path12783" />
      <path
         style="fill:#666666;fill-opacity:1;stroke-width:0.238049"
         d="m 77.975498,57.720966 c -0.09721,-0.09054 0.03427,-0.211236 0.292049,-0.268191 0.257713,-0.05693 0.468794,-0.02978 0.468794,0.06064 0,0.244831 -0.557551,0.396873 -0.760843,0.207479 z"
         id="path12781" />
      <path
         style="fill:#666666;fill-opacity:1;stroke-width:0.238049"
         d="m 81.559905,58.059665 c 0,-0.09927 0.141038,-0.180629 0.313754,-0.180629 0.172404,0 0.313693,0.08121 0.313693,0.180629 0,0.09927 -0.141039,0.180639 -0.313693,0.180639 -0.172403,0 -0.313754,-0.08121 -0.313754,-0.180639 z"
         id="path12779" />
      <path
         style="fill:#666666;fill-opacity:1;stroke-width:0.238049"
         d="m 67.44198,58.059665 c 0,-0.09927 0.22022,-0.180629 0.489129,-0.180629 0.269138,0 0.401847,0.08121 0.295185,0.180629 -0.106558,0.09927 -0.326716,0.180639 -0.489088,0.180639 -0.162433,0 -0.295226,-0.08121 -0.295226,-0.180639 z"
         id="path12777" />
      <path
         style="fill:#666666;fill-opacity:1;stroke-width:0.238049"
         d="m 76.540223,58.420417 c 0,-0.09927 0.14104,-0.180615 0.313714,-0.180615 0.172403,0 0.313713,0.08121 0.313713,0.180615 0,0.09927 -0.141039,0.180617 -0.313713,0.180617 -0.172404,0 -0.313714,-0.08122 -0.313714,-0.180617 z"
         id="path12775" />
      <path
         style="fill:#666666;fill-opacity:1;stroke-width:0.238049"
         d="m 65.559597,58.420417 c 0,-0.09927 0.149555,-0.180615 0.332261,-0.180615 0.182791,0 0.24494,0.08121 0.138132,0.180615 -0.106765,0.09927 -0.256114,0.180617 -0.332262,0.180617 -0.07602,0 -0.138131,-0.08122 -0.138131,-0.180617 z"
         id="path12773" />
      <path
         style="fill:#666666;fill-opacity:1;stroke-width:0.238049"
         d="m 50.526621,58.732002 c 0.07187,-0.02738 1.366023,-0.732631 2.875868,-1.567357 1.509844,-0.834715 2.745172,-1.437406 2.745172,-1.339318 0,0.288572 -4.765188,2.956323 -5.280656,2.956323 -0.259063,0 -0.412295,-0.02237 -0.340384,-0.04975 z"
         id="path12771" />
      <path
         style="fill:#666666;fill-opacity:1;stroke-width:0.238049"
         d="m 79.834389,58.962792 c -0.106766,-0.09927 -0.04445,-0.180639 0.138131,-0.180639 0.18279,0 0.332262,0.08121 0.332262,0.180639 0,0.09927 -0.06232,0.180629 -0.138131,0.180629 -0.07602,0 -0.225766,-0.08122 -0.332221,-0.180629 z"
         id="path12769" />
      <path
         style="fill:#666666;fill-opacity:1;stroke-width:0.238049"
         d="m 63.834081,58.962792 c 0.106558,-0.09927 0.335045,-0.180639 0.507616,-0.180639 0.172404,0 0.226493,0.08121 0.119852,0.180639 -0.106767,0.09927 -0.335067,0.180629 -0.507616,0.180629 -0.172404,0 -0.226493,-0.08122 -0.119852,-0.180629 z"
         id="path12767" />
      <path
         style="fill:#666666;fill-opacity:1;stroke-width:0.238049"
         d="m 74.65782,59.143421 c 0,-0.09927 0.211786,-0.180629 0.47058,-0.180629 0.258814,0 0.470622,0.08121 0.470622,0.180629 0,0.09927 -0.211787,0.180603 -0.470622,0.180603 -0.258815,0 -0.47058,-0.08121 -0.47058,-0.180603 z"
         id="path12765" />
      <path
         style="fill:#666666;fill-opacity:1;stroke-width:0.238049"
         d="m 49.245555,59.143421 c 0,-0.09927 0.141039,-0.180629 0.313713,-0.180629 0.172404,0 0.313735,0.08121 0.313735,0.180629 0,0.09927 -0.14104,0.180603 -0.313735,0.180603 -0.172403,0 -0.313713,-0.08121 -0.313713,-0.180603 z"
         id="path12763" />
      <path
         style="fill:#666666;fill-opacity:1;stroke-width:0.238049"
         d="m 85.638446,59.7996 c 0,-0.03636 0.599966,-0.292806 1.333328,-0.569657 0.733341,-0.276839 2.571169,-1.197848 4.084088,-2.046687 l 2.750696,-1.543341 -0.868334,-0.399841 -0.868293,-0.399828 -3.607942,2.029381 c -3.68494,2.072702 -5.198358,2.773003 -5.552367,2.569183 -0.109674,-0.06316 -0.140416,-0.139328 -0.06875,-0.169361 3.12955,-1.306868 9.101109,-4.665747 9.050012,-5.09043 -0.01454,-0.100824 -0.121515,-0.328412 -0.243048,-0.505656 -0.184037,-0.268538 -0.599966,-0.09664 -2.493047,1.030341 -2.047724,1.219162 -5.699576,2.994716 -6.159252,2.994716 -0.571239,0 0.08371,-0.399494 2.172479,-1.325181 1.294257,-0.573579 3.20923,-1.615497 4.255536,-2.315381 1.823247,-1.219616 1.879933,-1.286786 1.362948,-1.615665 -0.296638,-0.188726 -0.695432,-0.343136 -0.886261,-0.343136 -0.190475,0 -0.976472,0.454261 -1.745955,1.009458 -1.330004,0.959594 -3.036598,1.821566 -3.302931,1.668232 -0.06793,-0.03899 0.787285,-0.635607 1.900455,-1.325551 1.113149,-0.689944 2.023941,-1.347774 2.023941,-1.461805 0,-0.113984 0.18736,-0.296884 0.416408,-0.406323 0.664711,-0.317601 2.574596,0.807802 3.033897,1.787693 0.644999,1.376181 0.880179,1.592822 2.126847,1.958982 1.492683,0.438425 1.854759,0.685339 3.046812,2.077833 0.656823,0.767209 1.316199,1.2413 2.163053,1.555216 0.880704,0.32644 1.071974,0.468219 0.690484,0.51166 -0.835016,0.09509 -2.042719,-0.466473 -3.090976,-1.437358 l -0.966527,-0.895162 -1.435437,0.789467 c -2.218885,1.22031 -4.041467,1.967736 -4.637134,1.90169 -0.381491,-0.04234 -0.0806,-0.230862 1.016208,-0.637269 0.856911,-0.317444 2.330469,-1.028547 3.274599,-1.580214 l 1.716567,-1.003023 -0.812859,-0.46798 -0.812877,-0.468005 -1.531175,0.946642 c -2.706475,1.673243 -7.335214,3.677626 -7.335214,3.17636 z"
         id="path12761" />
      <path
         style="font-size:32px;line-height:1.25;fill:#666666;fill-opacity:1;stroke-width:0.238049"
         d="m 78.155401,36.213621 c 0,-0.03636 0.599966,-0.292806 1.333328,-0.569657 0.733341,-0.276839 2.571169,-1.197848 4.084088,-2.046687 l 2.750696,-1.543341 -0.868334,-0.399841 -0.868293,-0.399828 -3.607942,2.029381 c -3.68494,2.072702 -5.198358,2.773003 -5.552367,2.569183 -0.109674,-0.06316 -0.140416,-0.139328 -0.06875,-0.169361 3.12955,-1.306868 9.101109,-4.665747 9.050012,-5.09043 -0.01454,-0.100824 -0.121515,-0.328412 -0.243048,-0.505656 -0.184037,-0.268538 -0.599966,-0.09664 -2.493047,1.030341 -2.047724,1.219162 -5.699576,2.994716 -6.159252,2.994716 -0.571239,0 0.08371,-0.399494 2.172479,-1.325181 1.294257,-0.573579 3.20923,-1.615497 4.255536,-2.315381 1.823247,-1.219616 1.879933,-1.286786 1.362948,-1.615665 -0.296638,-0.188726 -0.695432,-0.343136 -0.886261,-0.343136 -0.190475,0 -0.976472,0.454261 -1.745955,1.009458 -1.330004,0.959594 -3.036598,1.821566 -3.302931,1.668232 -0.06793,-0.03899 0.787285,-0.635607 1.900455,-1.325551 1.113149,-0.689944 2.023941,-1.347774 2.023941,-1.461805 0,-0.113984 0.18736,-0.296884 0.416408,-0.406323 0.664711,-0.317601 2.574596,0.807802 3.033897,1.787693 0.644999,1.376181 0.880179,1.592822 2.126843,1.958982 1.49269,0.438425 1.85476,0.685339 3.04682,2.077833 0.65682,0.767209 1.31619,1.2413 2.16305,1.555216 0.8807,0.32644 1.07197,0.468219 0.69048,0.51166 -0.83501,0.09509 -2.04272,-0.466473 -3.09097,-1.437358 l -0.96653,-0.895162 -1.43544,0.789467 c -2.218882,1.22031 -4.041464,1.967736 -4.637131,1.90169 -0.381491,-0.04234 -0.0806,-0.230862 1.016208,-0.637269 0.856911,-0.317444 2.330469,-1.028547 3.274603,-1.580214 l 1.71656,-1.003023 -0.81286,-0.46798 -0.81287,-0.468005 -1.531178,0.946642 c -2.706475,1.673243 -7.335214,3.677626 -7.335214,3.17636 z"
         id="path12761-4" />
      <path
         style="font-size:32px;line-height:1.25;fill:#666666;fill-opacity:1;stroke-width:0.222564"
         d="m 96.375266,34.292878 c 0,-0.03636 0.524447,-0.292806 1.165512,-0.569657 0.641038,-0.276839 2.247544,-1.197848 3.570042,-2.046687 l 2.40449,-1.543341 -0.75904,-0.399841 -0.75902,-0.399828 -3.153826,2.029381 c -3.221139,2.072702 -4.544073,2.773003 -4.853526,2.569183 -0.09587,-0.06316 -0.122737,-0.139328 -0.06005,-0.169361 2.735652,-1.306868 7.955602,-4.665747 7.910942,-5.09043 -0.0127,-0.100824 -0.10622,-0.328412 -0.21246,-0.505656 -0.16087,-0.268538 -0.52445,-0.09664 -2.179257,1.030341 -1.789987,1.219162 -4.982209,2.994716 -5.384023,2.994716 -0.499341,0 0.07317,-0.399494 1.899043,-1.325181 1.13135,-0.573579 2.805303,-1.615497 3.719913,-2.315381 1.593764,-1.219616 1.643324,-1.286786 1.191404,-1.615665 -0.25931,-0.188726 -0.6079,-0.343136 -0.77472,-0.343136 -0.166489,0 -0.85356,0.454261 -1.526191,1.009458 -1.16261,0.959594 -2.654401,1.821566 -2.887219,1.668232 -0.05935,-0.03899 0.688199,-0.635607 1.661261,-1.325551 0.973044,-0.689944 1.769198,-1.347774 1.769198,-1.461805 0,-0.113984 0.16378,-0.296884 0.364001,-0.406323 0.58104,-0.317601 2.25054,0.807802 2.65204,1.787693 0.56381,1.376181 0.76939,1.592822 1.85914,1.958982 1.30482,0.438425 1.62132,0.685339 2.66333,2.077833 0.57416,0.767209 1.15054,1.2413 1.89081,1.555216 0.76985,0.32644 0.93705,0.468219 0.60357,0.51166 -0.72991,0.09509 -1.78561,-0.466473 -2.70193,-1.437358 l -0.84487,-0.895162 -1.25477,0.789467 c -1.93961,1.22031 -3.5328,1.967736 -4.05349,1.90169 -0.333466,-0.04234 -0.0704,-0.230862 0.88831,-0.637269 0.74906,-0.317444 2.03714,-1.028547 2.86244,-1.580214 l 1.50051,-1.003023 -0.71055,-0.46798 -0.71056,-0.468005 -1.33846,0.946642 c -2.36582,1.673243 -6.411965,3.677626 -6.411965,3.17636 z"
         id="path12761-9" />
      <path
         style="fill:#666666;fill-opacity:1;stroke-width:0.238049"
         d="m 78.265719,59.685257 c 0.106766,-0.09927 0.256092,-0.180628 0.332241,-0.180628 0.07602,0 0.138131,0.08121 0.138131,0.180628 0,0.09927 -0.149348,0.180616 -0.332221,0.180616 -0.18279,0 -0.244979,-0.08133 -0.13813,-0.180616 z"
         id="path12759" />
      <path
         style="fill:#666666;fill-opacity:1;stroke-width:0.238049"
         d="m 60.157032,59.456691 c 0.465762,-0.285462 0.581335,-0.489676 0.382095,-0.675267 -0.235177,-0.219118 -0.470498,-0.16288 -1.333869,0.318891 -0.576536,0.321715 -1.253274,0.584895 -1.503904,0.584834 -0.250651,-4.7e-5 0.228675,-0.383084 1.064876,-0.851207 l 1.520542,-0.851112 -0.692545,-0.32285 c -0.380868,-0.177567 -0.803632,-0.322853 -0.939458,-0.322853 -0.135845,0 -1.350692,0.528334 -2.699744,1.174072 -2.459189,1.177095 -3.68681,1.561807 -2.329408,0.72994 0.398565,-0.244246 1.476964,-0.789708 2.39648,-1.21213 1.492438,-0.685626 1.622883,-0.799108 1.216134,-1.057898 -0.250671,-0.159421 -0.544963,-0.546883 -0.654077,-0.860991 -0.239288,-0.68901 -0.610455,-0.885845 -1.848318,-0.980441 -0.799497,-0.06111 -0.853005,-0.09473 -0.355421,-0.224033 1.091526,-0.283489 2.181639,0.113984 2.709134,0.987678 0.32011,0.530235 0.701144,0.831951 1.106522,0.876217 0.340052,0.03708 0.688869,0.119007 0.775154,0.182075 0.08641,0.06303 0.439236,0.203365 0.784314,0.311871 0.34512,0.108481 0.811276,0.433618 1.035941,0.722488 0.746136,0.959391 0.898247,1.064333 2.131496,1.470513 0.98582,0.324717 1.089969,0.404014 0.533685,0.406408 -0.380119,0.0011 -1.054553,-0.09234 -1.498732,-0.208868 -0.617747,-0.162053 -0.894071,-0.162053 -1.175568,0 -0.202314,0.116497 -0.576099,0.211845 -0.830531,0.211845 -0.347155,0 -0.295995,-0.102143 0.205017,-0.409182 z"
         id="path12757" />
      <path
         style="font-size:32px;line-height:1.25;fill:#666666;fill-opacity:1;stroke-width:0.238049"
         d="m 71.899155,30.640229 c 0.465762,-0.285462 0.581335,-0.489676 0.382095,-0.675267 -0.235177,-0.219118 -0.470498,-0.16288 -1.333869,0.318891 -0.576536,0.321715 -1.253274,0.584895 -1.503904,0.584834 -0.250651,-4.7e-5 0.228675,-0.383084 1.064876,-0.851207 l 1.520542,-0.851112 -0.692545,-0.32285 c -0.380868,-0.177567 -0.803632,-0.322853 -0.939458,-0.322853 -0.135845,0 -1.350692,0.528334 -2.699744,1.174072 -2.459189,1.177095 -3.68681,1.561807 -2.329408,0.72994 0.398565,-0.244246 1.476964,-0.789708 2.39648,-1.21213 1.492438,-0.685626 1.622883,-0.799108 1.216134,-1.057898 -0.250671,-0.159421 -0.544963,-0.546883 -0.654077,-0.860991 -0.239288,-0.68901 -0.610455,-0.885845 -1.848318,-0.980441 -0.799497,-0.06111 -0.853005,-0.09473 -0.355421,-0.224033 1.091526,-0.283489 2.181639,0.113984 2.709134,0.987678 0.32011,0.530235 0.701144,0.831951 1.106522,0.876217 0.340052,0.03708 0.688869,0.119007 0.775154,0.182075 0.08641,0.06303 0.439236,0.203365 0.784314,0.311871 0.34512,0.108481 0.811276,0.433618 1.035941,0.722488 0.746136,0.959391 0.898247,1.064333 2.131496,1.470513 0.98582,0.324717 1.089969,0.404014 0.533685,0.406408 -0.380119,0.0011 -1.054553,-0.09234 -1.498732,-0.208868 -0.617747,-0.162053 -0.894071,-0.162053 -1.175568,0 -0.202314,0.116497 -0.576099,0.211845 -0.830531,0.211845 -0.347155,0 -0.295995,-0.102143 0.205017,-0.409182 z"
         id="path12757-2" />
      <path
         style="fill:#666666;fill-opacity:1;stroke-width:0.238049"
         d="m 72.304814,60.04656 c 0.106767,-0.09927 0.326758,-0.180628 0.48913,-0.180628 0.162226,0 0.295206,0.08122 0.295206,0.180628 0,0.09927 -0.220221,0.180618 -0.489088,0.180618 -0.269138,0 -0.401867,-0.08122 -0.295248,-0.180618 z"
         id="path12755" />
      <path
         style="fill:#666666;fill-opacity:1;stroke-width:0.238049"
         d="m 80.461856,60.227178 c 0.106559,-0.09927 0.256072,-0.180618 0.332243,-0.180618 0.07602,0 0.13813,0.08121 0.13813,0.180618 0,0.09927 -0.149555,0.180628 -0.332283,0.180628 -0.182791,0 -0.244939,-0.08121 -0.138131,-0.180628 z"
         id="path12753" />
      <path
         style="fill:#666666;fill-opacity:1;stroke-width:0.238049"
         d="m 76.540223,60.407781 c 0,-0.09927 0.14104,-0.180616 0.313714,-0.180616 0.172403,0 0.313713,0.08133 0.313713,0.180616 0,0.09927 -0.141039,0.18064 -0.313713,0.18064 -0.172404,0 -0.313714,-0.08133 -0.313714,-0.18064 z"
         id="path12751" />
      <path
         style="fill:#666666;fill-opacity:1;stroke-width:0.238049"
         d="m 71.206746,60.577765 c 0,-0.105253 0.141246,-0.141064 0.313776,-0.07954 0.172404,0.06147 0.313692,0.147462 0.313692,0.191285 0,0.04377 -0.141039,0.07954 -0.313692,0.07954 -0.172405,0 -0.313776,-0.08599 -0.313776,-0.191273 z"
         id="path5006" />
      <path
         id="path13151-1-1"
         style="font-size:32px;line-height:1.25;fill:#666666;fill-opacity:1;stroke-width:0.238049"
         d="m 105.39859,50.811299 c -0.16528,0.0049 -0.29733,0.08401 -0.29733,0.18018 0,0.09942 0.14172,0.18087 0.31412,0.18087 0.17267,0 0.31291,-0.0816 0.31291,-0.18087 0,-0.0994 -0.14051,-0.18018 -0.31291,-0.18018 -0.005,0 -0.0114,-1.57e-4 -0.0168,0 z m -1.82713,1.059679 c -0.1653,0.0049 -0.29853,0.0847 -0.29853,0.18087 0,0.09941 0.14172,0.18087 0.31412,0.18087 0.1727,0 0.31411,-0.0816 0.31411,-0.18087 0,-0.09943 -0.1417,-0.18087 -0.31411,-0.18087 -0.005,0 -0.0103,-1.58e-4 -0.0156,0 z m -1.88228,0.902971 c -0.1653,0.0049 -0.29853,0.0847 -0.29853,0.18087 0,0.09927 0.14172,0.18018 0.31412,0.18018 0.17249,0 0.31411,-0.08091 0.31411,-0.18018 0,-0.09942 -0.1417,-0.18087 -0.31411,-0.18087 -0.005,0 -0.0103,-1.58e-4 -0.0156,0 z" />
      <path
         style="font-size:32px;line-height:1.25;fill:#666666;fill-opacity:1;stroke-width:0.238049"
         d="m 103.8712,53.819821 c -0.16528,0.0049 -0.29733,0.08401 -0.29733,0.18018 0,0.09942 0.14171,0.180871 0.31411,0.180871 0.17267,0 0.31292,-0.0816 0.31292,-0.180871 0,-0.0994 -0.14052,-0.18018 -0.31292,-0.18018 -0.005,0 -0.0114,-1.57e-4 -0.0168,0 z"
         id="path13151-1-3" />
      <path
         style="font-size:32px;line-height:1.25;fill:#666666;fill-opacity:1;stroke-width:0.238049"
         d="m 100.17737,55.78247 c -0.17269,0 -0.314113,0.0816 -0.314113,0.180871 0,0.09927 0.141713,0.18018 0.314113,0.18018 0.17249,0 0.31412,-0.08091 0.31412,-0.18018 0,-0.09942 -0.14171,-0.180871 -0.31412,-0.180871 z"
         id="path13147-44" />
      <path
         style="font-size:32px;line-height:1.25;fill:#666666;fill-opacity:1;stroke-width:0.238049"
         d="m 102.05965,54.8795 c -0.17269,0 -0.31411,0.0816 -0.31411,0.18087 0,0.09941 0.14171,0.18087 0.31411,0.18087 0.1727,0 0.31412,-0.0816 0.31412,-0.18087 0,-0.09943 -0.14171,-0.18087 -0.31412,-0.18087 z"
         id="path13143-7" />
      <path
         style="font-size:32px;line-height:1.25;fill:#666666;fill-opacity:1;stroke-width:0.238049"
         d="m 106.94036,54.173276 c -0.16528,0.0049 -0.29733,0.08401 -0.29733,0.18018 0,0.09942 0.14171,0.180871 0.31411,0.180871 0.17267,0 0.31292,-0.0816 0.31292,-0.180871 0,-0.0994 -0.14052,-0.18018 -0.31292,-0.18018 -0.005,0 -0.0114,-1.57e-4 -0.0168,0 z"
         id="path13151-1-8" />
      <path
         style="font-size:32px;line-height:1.25;fill:#666666;fill-opacity:1;stroke-width:0.238049"
         d="m 103.24653,56.135925 c -0.17269,0 -0.31411,0.0816 -0.31411,0.180871 0,0.09927 0.14171,0.18018 0.31411,0.18018 0.17249,0 0.31412,-0.08091 0.31412,-0.18018 0,-0.09942 -0.14171,-0.180871 -0.31412,-0.180871 z"
         id="path13147-3" />
      <path
         style="font-size:32px;line-height:1.25;fill:#666666;fill-opacity:1;stroke-width:0.238049"
         d="m 105.12881,55.232955 c -0.17269,0 -0.31411,0.0816 -0.31411,0.18087 0,0.09941 0.14171,0.18087 0.31411,0.18087 0.1727,0 0.31412,-0.0816 0.31412,-0.18087 0,-0.09943 -0.14171,-0.18087 -0.31412,-0.18087 z"
         id="path13143-80" />
      <path
         style="font-size:32px;line-height:1.25;fill:#666666;fill-opacity:1;stroke-width:0.238049"
         d="m 56.605517,47.104146 c -0.16528,0.0049 -0.29733,0.08401 -0.29733,0.18018 0,0.09942 0.14171,0.180871 0.31411,0.180871 0.17267,0 0.31292,-0.0816 0.31292,-0.180871 0,-0.0994 -0.14052,-0.18018 -0.31292,-0.18018 -0.005,0 -0.0114,-1.57e-4 -0.0168,0 z"
         id="path13151-1-74" />
      <path
         style="font-size:32px;line-height:1.25;fill:#666666;fill-opacity:1;stroke-width:0.238049"
         d="m 52.91169,49.066795 c -0.17269,0 -0.31411,0.0816 -0.31411,0.180871 0,0.09927 0.14171,0.18018 0.31411,0.18018 0.17249,0 0.31412,-0.08091 0.31412,-0.18018 0,-0.09942 -0.14171,-0.180871 -0.31412,-0.180871 z"
         id="path13147-6" />
      <path
         style="font-size:32px;line-height:1.25;fill:#666666;fill-opacity:1;stroke-width:0.238049"
         d="m 54.793968,48.163825 c -0.17269,0 -0.314109,0.0816 -0.314109,0.18087 0,0.09941 0.141709,0.18087 0.314109,0.18087 0.1727,0 0.31412,-0.0816 0.31412,-0.18087 0,-0.09943 -0.14171,-0.18087 -0.31412,-0.18087 z"
         id="path13143-1" />
      <path
         style="font-size:32px;line-height:1.25;fill:#666666;fill-opacity:1;stroke-width:0.238049"
         d="m 68.882354,32.612434 c -0.16528,0.0049 -0.29733,0.08401 -0.29733,0.18018 0,0.09942 0.14171,0.180871 0.31411,0.180871 0.17267,0 0.31292,-0.0816 0.31292,-0.180871 0,-0.0994 -0.14052,-0.18018 -0.31292,-0.18018 -0.005,0 -0.0114,-1.57e-4 -0.0168,0 z"
         id="path13151-1-74-7" />
      <path
         style="font-size:32px;line-height:1.25;fill:#666666;fill-opacity:1;stroke-width:0.238049"
         d="m 71.353291,32.965199 c -0.17269,0 -0.31411,0.0816 -0.31411,0.180871 0,0.09927 0.14171,0.18018 0.31411,0.18018 0.17249,0 0.31412,-0.08091 0.31412,-0.18018 0,-0.09942 -0.14171,-0.180871 -0.31412,-0.180871 z"
         id="path13147-6-9" />
      <path
         style="font-size:32px;line-height:1.25;fill:#666666;fill-opacity:1;stroke-width:0.238049"
         d="m 73.194809,31.90483 c -0.17269,0 -0.31411,0.0816 -0.31411,0.180871 0,0.09927 0.14171,0.18018 0.31411,0.18018 0.17249,0 0.31412,-0.08091 0.31412,-0.18018 0,-0.09942 -0.14171,-0.180871 -0.31412,-0.180871 z"
         id="path13147-6-9-7" />
      <path
         style="font-size:32px;line-height:1.25;fill:#666666;fill-opacity:1;stroke-width:0.238049"
         d="m 92.837665,28.723722 c -0.17269,0 -0.314109,0.0816 -0.314109,0.180871 0,0.09927 0.14171,0.18018 0.314109,0.18018 0.17249,0 0.314121,-0.08091 0.314121,-0.18018 0,-0.09942 -0.141711,-0.180871 -0.314121,-0.180871 z"
         id="path13147-6-9-2" />
      <path
         style="font-size:32px;line-height:1.25;fill:#666666;fill-opacity:1;stroke-width:0.238049"
         d="m 94.679182,27.663352 c -0.17269,0 -0.31411,0.0816 -0.31411,0.180871 0,0.09927 0.14171,0.18018 0.31411,0.18018 0.17249,0 0.31412,-0.08091 0.31412,-0.18018 0,-0.09942 -0.14171,-0.180871 -0.31412,-0.180871 z"
         id="path13147-6-9-23" />
      <path
         style="font-size:32px;line-height:1.25;fill:#666666;fill-opacity:1;stroke-width:0.238049"
         d="m 70.753842,31.551374 c -0.17269,0 -0.31411,0.0816 -0.31411,0.18087 0,0.09941 0.14171,0.18087 0.31411,0.18087 0.1727,0 0.31412,-0.0816 0.31412,-0.18087 0,-0.09943 -0.14171,-0.18087 -0.31412,-0.18087 z"
         id="path13143-1-4" />
    </g>
  </g>
</svg>
