<?xml version="1.0" encoding="UTF-8" standalone="no"?>
<svg
   version="1.1"
   width="100"
   height="100"
   id="svg4460"
   sodipodi:docname="dune.svg"
   inkscape:version="1.2.2 (732a01da63, 2022-12-09)"
   xmlns:inkscape="http://www.inkscape.org/namespaces/inkscape"
   xmlns:sodipodi="http://sodipodi.sourceforge.net/DTD/sodipodi-0.dtd"
   xmlns="http://www.w3.org/2000/svg"
   xmlns:svg="http://www.w3.org/2000/svg"
   xmlns:rdf="http://www.w3.org/1999/02/22-rdf-syntax-ns#"
   xmlns:cc="http://creativecommons.org/ns#"
   xmlns:dc="http://purl.org/dc/elements/1.1/">
  <sodipodi:namedview
     pagecolor="#ffffff"
     bordercolor="#666666"
     borderopacity="1"
     objecttolerance="10"
     gridtolerance="10"
     guidetolerance="10"
     inkscape:pageopacity="0"
     inkscape:pageshadow="2"
     inkscape:window-width="1920"
     inkscape:window-height="1009"
     id="namedview11"
     showgrid="true"
     inkscape:zoom="4.6244784"
     inkscape:cx="70.494437"
     inkscape:cy="43.896843"
     inkscape:window-x="-8"
     inkscape:window-y="-8"
     inkscape:window-maximized="1"
     inkscape:current-layer="text5282"
     inkscape:document-rotation="0"
     inkscape:pagecheckerboard="0"
     showguides="true"
     inkscape:guide-bbox="true"
     inkscape:showpageshadow="0"
     inkscape:deskcolor="#d1d1d1">
    <inkscape:grid
       type="xygrid"
       id="grid823"
       originx="0"
       originy="0" />
    <sodipodi:guide
       position="0,86"
       orientation="66,0"
       id="guide957"
       inkscape:locked="false" />
    <sodipodi:guide
       position="0,20"
       orientation="0,50"
       id="guide959"
       inkscape:locked="false" />
    <sodipodi:guide
       position="8.9999971,64.32985"
       orientation="8.5387222,0"
       id="guide1517"
       inkscape:locked="false" />
    <sodipodi:guide
       position="8.9999971,55.791128"
       orientation="0,26.227758"
       id="guide1519"
       inkscape:locked="false" />
    <sodipodi:guide
       position="95,90"
       orientation="-8.5387222,0"
       id="guide1521"
       inkscape:locked="false" />
    <sodipodi:guide
       position="70,70"
       orientation="0,-26.227758"
       id="guide1523"
       inkscape:locked="false" />
    <sodipodi:guide
       position="7.9247812,20.000001"
       orientation="0,-6.8495616"
       id="guide4054"
       inkscape:locked="false" />
    <sodipodi:guide
       position="90,80"
       orientation="0,6.8495616"
       id="guide4058"
       inkscape:locked="false" />
  </sodipodi:namedview>
  <defs
     id="defs4462" />
  <metadata
     id="metadata4465">
    <rdf:RDF>
      <cc:Work
         rdf:about="">
        <dc:format>image/svg+xml</dc:format>
        <dc:type
           rdf:resource="http://purl.org/dc/dcmitype/StillImage" />
      </cc:Work>
    </rdf:RDF>
  </metadata>
  <g
     aria-label="C"
     id="text3215"
     style="font-size:32px;line-height:1.25"
     transform="translate(-37.75,-4)">
    <g
       aria-label="A"
       id="text5282"
       transform="matrix(1.6290909,0,0,2.8292029,-41.002727,-68.776958)">
      <path
         style="fill:#666666;fill-opacity:1;stroke-width:0.23275"
         d="m 86.257147,36.620325 c 0.354008,-0.19623 10.680209,-0.433669 15.713123,-0.361317 3.02998,0.04362 1.25852,0.278147 -2.370035,0.313862 -1.967473,0.01941 -5.832344,0.07005 -8.588556,0.112382 -2.756153,0.04245 -4.895721,0.01368 -4.754532,-0.06503 z"
         id="path14860" />
      <path
         style="fill:#666666;fill-opacity:1;stroke-width:0.23275"
         d="m 49.090662,38.579102 c -0.485734,-0.128601 -0.329861,-0.164912 0.748433,-0.174725 0.749021,-0.007 2.136237,-0.104546 3.082684,-0.217044 1.051647,-0.125071 2.072731,-0.14633 2.625809,-0.05462 0.839886,0.13929 0.783588,0.159053 -0.782105,0.274171 -3.954169,0.290731 -5.095604,0.325346 -5.674821,0.172117 z"
         id="path14858" />
      <path
         style="font-size:32px;line-height:1.25;fill:#666666;fill-opacity:1;stroke-width:0.23275"
         d="m 50.662281,27.665492 c -0.485734,-0.128601 -0.329861,-0.164912 0.748433,-0.174725 0.749021,-0.007 2.136237,-0.104546 3.082684,-0.217044 1.051647,-0.125071 2.072731,-0.14633 2.625809,-0.05462 0.839886,0.13929 0.783588,0.159053 -0.782105,0.274171 -3.954169,0.290731 -5.095604,0.325346 -5.674821,0.172117 z"
         id="path14858-7" />
      <path
         style="font-size:32px;line-height:1.25;fill:#666666;fill-opacity:1;stroke-width:0.23275"
         d="m 99.755937,27.882536 c -0.485734,-0.128601 -0.329861,-0.164912 0.748433,-0.174725 0.74902,-0.007 2.13624,-0.104546 3.08268,-0.217044 1.05165,-0.125071 2.07273,-0.14633 2.62581,-0.05462 0.83989,0.13929 0.78359,0.159053 -0.7821,0.274171 -3.95417,0.290731 -5.09561,0.325346 -5.674823,0.172117 z"
         id="path14858-1" />
      <path
         style="fill:#666666;fill-opacity:1;stroke-width:0.23275"
         d="m 84.033087,39.073139 c -0.261806,-0.242961 1.452835,-0.30431 6.407027,-0.229315 2.834264,0.04293 5.491471,0.07799 5.904863,0.07799 0.413393,0 0.751624,0.06339 0.751624,0.141114 0,0.166562 -12.884265,0.176595 -13.063514,0.01053 z"
         id="path14856" />
      <path
         style="fill:#666666;fill-opacity:1;stroke-width:0.23275"
         d="m 76.730934,40.36518 c -0.369972,-0.344665 13.909609,-0.635784 14.503206,-0.295679 0.20565,0.117739 -1.755563,0.192091 -5.887012,0.22308 -3.407366,0.02549 -6.698727,0.09086 -7.314074,0.144939 -0.615367,0.05414 -1.201307,0.02164 -1.302121,-0.07227 z"
         id="path14854" />
      <path
         style="font-size:32px;line-height:1.25;fill:#666666;fill-opacity:1;stroke-width:0.23275"
         d="m 48.880915,33.780643 c -0.369972,-0.344665 13.909609,-0.635784 14.503206,-0.295679 0.20565,0.117739 -1.755563,0.192091 -5.887012,0.22308 -3.407366,0.02549 -6.698727,0.09086 -7.314074,0.144939 -0.615367,0.05414 -1.201307,0.02164 -1.302121,-0.07227 z"
         id="path14854-9" />
      <path
         style="fill:#666666;fill-opacity:1;stroke-width:0.23275"
         d="m 76.796944,44.640579 c -1.126507,-0.345987 -2.990013,-1.101425 -4.141095,-1.67877 -3.419512,-1.715105 -4.666859,-2.138822 -6.003932,-2.039479 -1.155773,0.08595 -1.570627,-0.103493 -0.665083,-0.30356 1.538254,-0.339848 2.937372,0.05122 6.573664,1.837249 1.562219,0.767344 3.891455,1.714145 5.176028,2.104009 1.284574,0.389863 2.05949,0.709 1.722074,0.70921 -0.337437,1.75e-4 -1.535169,-0.282685 -2.661656,-0.628659 z"
         id="path14852" />
      <path
         style="fill:#666666;fill-opacity:1;stroke-width:0.23275"
         d="m 106.62564,45.261509 c -0.4108,-0.09449 -1.41606,-0.532172 -2.23396,-0.972612 -2.61066,-1.40592 -5.523712,-1.908668 -8.149703,-1.406493 -0.839986,0.160621 -1.771938,0.447704 -2.070988,0.637957 -0.299049,0.190242 -0.694855,0.343578 -0.879604,0.340748 -0.18482,-0.0024 0.107225,-0.237382 0.64901,-0.521155 2.749595,-1.440405 7.416225,-1.140997 10.824835,0.694522 0.75922,0.408832 1.93252,0.894109 2.60737,1.078387 1.27734,0.348827 0.65864,0.471944 -0.74696,0.14861 z"
         id="path14850" />
      <path
         style="fill:#666666;fill-opacity:1;stroke-width:0.23275"
         d="m 75.6825,45.097976 c -0.558441,-0.196032 -1.15297,-0.307466 -1.321089,-0.247614 -0.558054,0.198557 -1.635292,-0.08829 -2.988003,-0.795432 -0.735211,-0.384402 -1.63243,-0.732213 -1.993852,-0.772932 -0.465769,-0.05239 -0.383537,-0.08105 0.282441,-0.09823 0.684093,-0.01754 1.18449,0.124251 1.840496,0.52153 0.885865,0.536462 2.532894,1.134448 2.761739,1.002712 0.192531,-0.110862 -2.084632,-1.391804 -3.295768,-1.854137 -0.620505,-0.236879 -1.793847,-0.535994 -2.607349,-0.664736 -1.354782,-0.214368 -1.395056,-0.235383 -0.47887,-0.249848 1.487402,-0.0235 3.621629,0.631899 5.721513,1.756968 1.906094,1.021237 2.761231,1.34925 4.149829,1.591848 0.77849,0.136073 0.777413,0.137302 -0.135463,0.151662 -0.506103,0.0082 -1.377163,-0.145852 -1.935624,-0.341881 z"
         id="path14848" />
      <path
         style="fill:#666666;fill-opacity:1;stroke-width:0.23275"
         d="m 105.34807,45.786686 c -0.74236,-0.303548 -1.7638,-0.775938 -2.26995,-1.049747 -0.91831,-0.496772 -3.225435,-0.926443 -4.025455,-0.749696 -0.232301,0.05134 -0.422356,0.0035 -0.422356,-0.102096 0,-0.283083 2.450491,-0.240435 3.451101,0.06011 0.46407,0.139291 1.49935,0.571242 2.30063,0.959737 0.80123,0.388471 2.07799,0.86824 2.83718,1.066154 1.34419,0.350383 1.35546,0.359913 0.42944,0.363691 -0.58089,0.0024 -1.47607,-0.210871 -2.30059,-0.548028 z"
         id="path14846" />
      <path
         style="fill:#666666;fill-opacity:1;stroke-width:0.23275"
         d="m 69.029204,46.772933 c -0.669085,-0.177531 -1.631941,-0.215806 -3.52784,-0.140202 -1.836697,0.07321 -3.320098,0.01917 -5.017455,-0.182992 -2.956117,-0.351962 -4.181205,-0.359085 -6.338566,-0.03684 -0.920735,0.137455 -1.86974,0.186956 -2.1089,0.110044 -0.282887,-0.0911 0.391824,-0.252306 1.930647,-0.461154 2.15663,-0.29273 2.587488,-0.299056 4.879476,-0.07157 1.382687,0.137161 4.239412,0.252116 6.348272,0.255331 3.714014,0.0058 5.214738,0.187004 5.214738,0.630146 0,0.217257 -0.243749,0.199165 -1.380372,-0.102326 z"
         id="path14844" />
      <path
         style="fill:#666666;fill-opacity:1;stroke-width:0.23275"
         d="m 79.4337,47.068716 c 0.09058,-0.08443 0.719391,-0.204463 1.397371,-0.266874 1.254252,-0.115423 4.49216,-0.917345 4.777503,-1.183156 0.08631,-0.08035 -0.433945,-0.231769 -1.156078,-0.336444 -2.806521,-0.406878 -6.048652,-1.416082 -9.591947,-2.985779 -4.86997,-2.157404 -5.906225,-2.40337 -10.125794,-2.40337 -2.611329,0 -3.610296,0.06994 -4.418274,0.309056 -0.574242,0.169976 -1.223972,0.309057 -1.443838,0.309057 -0.219786,0 -1.586368,0.615901 -3.036664,1.368685 -3.440268,1.785643 -7.215941,3.128074 -7.202273,2.560739 0.0019,-0.07297 0.79549,-0.34629 1.76383,-0.607658 1.041229,-0.281059 2.900612,-1.074784 4.550771,-1.942639 3.857275,-2.028615 7.443382,-2.968541 11.32584,-2.968541 2.522111,0 5.87767,0.933237 10.287191,2.861059 2.727152,1.192288 4.974338,1.801618 7.681406,2.082807 1.080364,0.112148 2.279863,0.277154 2.665534,0.366545 0.60572,0.140354 1.041453,-0.0035 3.198324,-1.061734 3.822282,-1.873971 4.94394,-2.168877 8.326938,-2.189283 2.45307,-0.01532 3.2504,0.06643 6.36941,0.647839 1.96093,0.365621 3.7793,0.760385 4.0408,0.877257 0.44242,0.197692 0.67365,1.194347 0.56144,2.419999 -0.0386,0.423344 -0.0877,0.411052 -1.18987,-0.299092 -1.23855,-0.797995 -3.8128,-1.793467 -6.14111,-2.374789 -0.98753,-0.246574 -2.183835,-0.369715 -3.750671,-0.386111 -2.7712,-0.02912 -4.123951,0.324984 -7.668671,2.006619 -1.265321,0.600278 -2.618478,1.161942 -3.006971,1.248164 -0.388515,0.08618 -1.229739,0.398903 -1.869396,0.69485 -1.624712,0.751707 -6.931775,1.799595 -6.344801,1.252794 z"
         id="path14842" />
      <path
         style="fill:#666666;fill-opacity:1;stroke-width:0.23275"
         d="m 49.59309,47.281026 c 0.220984,-0.153184 1.053923,-0.235546 2.382365,-0.235546 1.123562,0 2.775893,-0.109459 3.671852,-0.243277 1.64823,-0.246164 3.634402,-0.207852 4.159049,0.08022 0.489653,0.268851 0.02377,0.341051 -1.051405,0.163357 -0.734297,-0.121258 -1.523327,-0.09964 -2.740393,0.07509 -0.940071,0.134987 -2.845881,0.2792 -4.235108,0.32054 -2.080529,0.06197 -2.466037,0.03367 -2.18636,-0.160399 z"
         id="path14840" />
      <path
         id="path14826"
         style="fill:#666666;fill-opacity:1;stroke-width:0.23275"
         d="m 67.342103,57.018008 c 0,-0.05204 0.593779,-0.2411 1.319546,-0.420209 1.686777,-0.416271 5.408245,-1.794474 6.159541,-2.281154 0.570382,-0.369433 0.567376,-0.3761 -0.250127,-0.555011 -0.454986,-0.09952 -0.884647,-0.181085 -0.954733,-0.181085 -0.07006,0 -1.474668,-0.437003 -3.121353,-0.971092 -3.539681,-1.148072 -6.04254,-1.658257 -8.399843,-1.712286 -2.306163,-0.05298 -5.049786,0.725209 -7.937584,2.25096 -1.185486,0.626343 -2.28161,1.138823 -2.435798,1.138823 -0.154349,0 -0.498752,0.04818 -0.765615,0.107118 -0.266861,0.05906 -0.485184,0.02455 -0.485184,-0.07648 0,-0.100918 0.282073,-0.235148 0.626881,-0.298145 0.34481,-0.06304 1.53651,-0.579417 2.648212,-1.14757 1.111722,-0.568154 3.00488,-1.320434 4.20704,-1.671742 3.979495,-1.1629 6.573743,-1.033351 12.606108,0.629525 2.050006,0.565114 3.925107,0.958322 4.801,1.006783 1.399991,0.07742 1.457567,0.06092 2.220703,-0.63501 2.328667,-2.123771 5.377658,-3.05805 11.290564,-3.4597 2.482102,-0.168596 6.957973,0.790789 11.620749,2.490866 2.27982,0.831239 3.82511,1.265681 6.88031,1.934394 l 1.53373,0.335696 0.0899,1.275073 c 0.0497,0.701293 0.0104,1.275083 -0.0862,1.275083 -0.59077,0 -4.93461,-1.692638 -7.03218,-2.740189 -3.890739,-1.94306 -4.838528,-2.328677 -7.581767,-3.08477 -3.746445,-1.032592 -5.412789,-1.166795 -8.595943,-0.692241 -3.986117,0.594232 -5.761116,1.153591 -6.925276,2.182406 -0.656249,0.579953 -0.875305,0.91586 -0.649629,0.996152 0.209428,0.07438 0.08875,0.167158 -0.313573,0.240668 -0.359716,0.06573 -0.657203,0.213502 -0.661144,0.328363 -0.02722,0.790662 -9.808768,4.515027 -9.808768,3.734634 z m 39.263617,-0.144634 c -1.77459,-0.369902 -3.3975,-1.048274 -6.45227,-2.697024 -5.151125,-2.780231 -8.136773,-3.890741 -9.993861,-3.717233 -0.762081,0.07133 -1.043504,0.03871 -0.958388,-0.110629 0.224984,-0.39447 1.973115,-0.333508 3.499692,0.122089 2.503016,0.746982 3.872627,1.353926 7.898387,3.500188 2.66675,1.421729 4.47439,2.23413 5.78603,2.60037 1.97961,0.552776 2.07956,0.689938 0.22051,0.302391 z m -4.80778,-0.928911 c -0.81429,-0.350921 -2.446775,-1.17649 -3.627751,-1.834608 -2.283628,-1.272547 -3.104784,-1.589204 -4.120931,-1.589204 -0.348482,0 -0.633648,-0.07941 -0.633648,-0.176618 0,-0.09706 0.211537,-0.176596 0.469951,-0.176596 1.201878,0 2.964222,0.665217 5.358254,2.022489 1.434045,0.81302 3.144225,1.68395 3.800415,1.9354 0.65624,0.251451 0.9774,0.457188 0.71369,0.457188 -0.26368,0 -1.14569,-0.287117 -1.95998,-0.638051 z m -4.023005,-0.918128 c -1.64359,-0.655662 -1.747489,-0.977289 -0.16228,-0.502596 0.926614,0.277505 2.539035,1.183915 2.06813,1.162585 -0.15598,-0.0082 -1.013552,-0.304028 -1.905772,-0.659989 z M 65.041484,54.286146 c 0.104389,-0.09706 0.518391,-0.176583 0.920247,-0.176583 0.401878,0 0.815982,0.07941 0.920228,0.176583 0.113122,0.105365 -0.258352,0.176607 -0.920228,0.176607 -0.661772,0 -1.033288,-0.07133 -0.920247,-0.176607 z m 3.932722,-0.768349 c -1.379924,-0.322235 -3.006645,-0.83745 -3.614945,-1.14495 -1.248931,-0.631326 -2.50824,-0.724471 -3.702784,-0.273868 -0.669936,0.252737 -0.756068,0.254281 -0.756068,0.01368 0,-0.35457 1.939503,-0.720214 3.007073,-0.566914 0.455006,0.06537 1.517438,0.417718 2.360978,0.783047 0.843561,0.365329 2.603531,0.883782 3.911035,1.15213 1.307522,0.268337 2.377306,0.519577 2.377306,0.558286 0,0.198053 -1.330938,0.0035 -3.582595,-0.521425 z m -4.239451,0.0621 c -0.104191,-0.09706 -0.595566,-0.176606 -1.091738,-0.176606 -0.496153,0 -0.902112,-0.07941 -0.902112,-0.176619 0,-0.257472 1.902154,-0.205421 2.53064,0.06924 0.295256,0.129012 0.536811,0.285446 0.536811,0.34759 0,0.181295 -0.865758,0.129957 -1.073601,-0.0635 z" />
      <path
         id="path14826-9"
         style="font-size:32px;line-height:1.25;fill:#666666;fill-opacity:1;stroke-width:0.21035"
         d="m 64.93849,34.66325 c 0,-0.04965 0.508282,-0.23005 1.129546,-0.400949 1.4439,-0.397192 4.629517,-1.712227 5.272635,-2.1766 0.488253,-0.352501 0.48568,-0.358862 -0.214112,-0.529573 -0.389473,-0.09496 -0.757267,-0.172785 -0.817262,-0.172785 -0.05997,0 -1.262332,-0.416973 -2.671912,-0.926583 -3.030006,-1.095452 -5.17248,-1.582253 -7.190358,-1.633805 -1.9741,-0.05055 -4.322672,0.691969 -6.794659,2.147789 -1.014789,0.597635 -1.953083,1.086627 -2.085069,1.086627 -0.132125,0 -0.426938,0.04597 -0.655375,0.102207 -0.228436,0.05636 -0.415323,0.02343 -0.415323,-0.07298 0,-0.09629 0.241458,-0.22437 0.536617,-0.284479 0.295161,-0.06015 1.315269,-0.552861 2.266899,-1.094973 0.951646,-0.542113 2.57221,-1.259913 3.601272,-1.595119 3.406491,-1.1096 5.627196,-0.985988 10.790967,0.600671 1.754827,0.539213 3.359934,0.914399 4.109708,0.960639 1.198408,0.07388 1.247693,0.05813 1.900946,-0.605906 1.993365,-2.02643 4.603334,-2.917887 9.664847,-3.301128 2.124706,-0.160869 5.956101,0.754544 9.94749,2.3767 1.951551,0.79314 3.274336,1.20767 5.889621,1.845733 l 1.312892,0.32031 c -3.683038,0.06974 -3.069199,0.06974 -6.016518,-0.181323 -3.330517,-1.854002 -4.141835,-2.221945 -6.490078,-2.943383 -3.206998,-0.985264 -4.633406,-1.113317 -7.358221,-0.660513 -3.41216,0.566996 -4.931579,1.100717 -5.928112,2.082377 -0.561757,0.553372 -0.749271,0.873883 -0.55609,0.950495 0.179273,0.07097 0.07597,0.159496 -0.268422,0.229637 -0.307921,0.06271 -0.562573,0.203717 -0.565946,0.313314 -0.0233,0.754422 -8.396413,4.308085 -8.396413,3.56346 z m 19.532018,-6.258272 c -0.652349,0.06806 -0.89325,0.03694 -0.82039,-0.105558 0.192589,-0.37639 1.689008,-0.318222 2.995775,0.116493 2.96976,1.472951 5.918365,2.116125 7.733572,2.962875 l -0.61384,0.353456 c -3.398596,-1.608569 -6.752232,-3.181108 -9.295117,-3.327261 z m 3.3296,1.967046 c -0.298305,0 -0.54241,-0.07577 -0.54241,-0.168522 0,-0.09261 0.181078,-0.168503 0.402283,-0.168503 2.422609,0.636876 3.72743,1.168266 4.877966,1.697245 v 0.353457 c -1.583514,-0.736579 -3.683036,-1.413826 -4.737839,-1.713677 z m -24.830973,1.684575 c 0.08936,-0.09261 0.443749,-0.168489 0.787742,-0.168489 0.344012,0 0.698489,0.07577 0.787725,0.168489 0.09683,0.100536 -0.221152,0.168513 -0.787725,0.168513 -0.566484,0 -0.884506,-0.06807 -0.787742,-0.168513 z m 3.366453,-0.733132 c -1.18123,-0.307465 -2.573721,-0.799066 -3.094432,-1.092473 -1.069099,-0.602389 -2.147081,-0.691265 -3.169624,-0.261315 -0.573472,0.241153 -0.647202,0.242627 -0.647202,0.01305 0,-0.338319 1.660235,-0.687205 2.574087,-0.540931 0.38949,0.06237 1.298944,0.398573 2.021023,0.747157 0.722098,0.348585 2.228651,0.843275 3.347889,1.099324 1.119253,0.256038 2.035,0.495763 2.035,0.532697 0,0.188975 -1.139298,0.0034 -3.066741,-0.497526 z m -3.629016,0.05925 c -0.08919,-0.09261 -0.509811,-0.168511 -0.93454,-0.168511 -0.424712,0 -0.772218,-0.07577 -0.772218,-0.168525 0,-0.245671 1.628265,-0.196005 2.166256,0.06607 0.252742,0.123099 0.459516,0.272362 0.459516,0.331658 0,0.172986 -0.741098,0.124001 -0.919014,-0.06059 z"
         sodipodi:nodetypes="csccsccsscscccccccssccscscsccccccccccccccccccsccccscccscccsscsccs" />
      <path
         style="fill:#666666;fill-opacity:1;stroke-width:0.23275"
         d="m 49.550786,57.818937 c 0,-0.09952 0.865332,-0.176619 1.982477,-0.176619 1.264752,0 2.550788,-0.128871 3.55217,-0.356196 1.306651,-0.296531 1.771122,-0.324983 2.772058,-0.1698 1.623167,0.251624 1.540955,0.545958 -0.115966,0.415205 -0.847095,-0.06678 -1.837794,-0.0024 -2.771428,0.179975 -1.601538,0.313054 -5.419331,0.388716 -5.419331,0.107353 z"
         id="path14824" />
      <path
         style="fill:#666666;fill-opacity:1;stroke-width:0.23275"
         d="m 51.391262,58.701303 c 0,-0.09964 0.868966,-0.176629 1.993869,-0.176629 1.096572,0 1.993851,0.06525 1.993851,0.14495 0,0.07987 -0.897279,0.159229 -1.993851,0.176618 -1.16152,0.01835 -1.993869,-0.0421 -1.993869,-0.144939 z"
         id="path14822" />
      <path
         style="fill:#666666;fill-opacity:1;stroke-width:0.23275"
         d="m 66.421876,59.085202 c 0,-0.33897 1.355229,-0.465958 5.061324,-0.474296 2.024516,-0.0035 4.526561,-0.07601 5.560094,-0.158597 1.280471,-0.10244 2.379826,-0.08116 3.450889,0.06678 1.811271,0.250175 2.198709,0.627631 0.421455,0.41062 -0.632649,-0.07729 -1.909486,-0.119913 -2.83741,-0.0946 -0.927884,0.02526 -3.550607,0.069 -5.828156,0.09706 -2.277608,0.02806 -4.520714,0.11554 -4.984656,0.194055 -0.538862,0.09122 -0.84354,0.07648 -0.84354,-0.04116 z"
         id="path14820" />
      <path
         style="fill:#666666;fill-opacity:1;stroke-width:0.23275"
         d="m 73.012356,59.579721 c -0.196389,-0.18305 5.353876,-0.402727 6.390637,-0.252935 0.468086,0.06759 0.794393,0.155593 0.725178,0.195458 -0.234183,0.134846 -6.974342,0.18926 -7.115815,0.05742 z"
         id="path14818" />
      <path
         id="path14816"
         style="fill:#666666;fill-opacity:1;stroke-width:0.23275"
         d="M 92.445631 57.118977 C 91.458763 57.125475 90.60467 57.261123 89.664172 57.509022 C 88.558442 57.800467 87.505885 58.279249 86.494267 58.951152 C 85.033514 59.921366 83.214351 60.643877 82.232161 60.643877 C 81.972285 60.643877 81.759792 60.723545 81.759792 60.820605 C 81.759792 60.917802 81.973018 60.997334 82.234558 60.997334 C 83.151536 60.997334 84.692435 60.408356 86.846745 59.234884 C 89.151038 57.979705 89.810756 57.817887 92.609881 57.818987 C 94.912003 57.820448 96.139568 58.063053 101.18924 59.513093 C 105.16306 60.654147 105.95342 60.820605 107.40077 60.820605 C 108.56278 60.820605 109.06005 60.751281 109.06005 60.58934 C 109.06005 60.112354 108.22855 59.815905 106.10116 59.534493 C 104.89561 59.375031 101.9277 58.790497 99.505982 58.235265 C 96.104446 57.455419 94.090411 57.108147 92.445631 57.118977 z M 92.196259 58.247691 C 91.991951 58.249894 91.827153 58.261949 91.716697 58.28635 C 90.897 58.46741 91.253087 58.631057 92.312553 58.559727 C 93.855616 58.455999 96.565903 58.973684 98.073291 59.660136 C 98.801541 59.991774 99.604211 60.26731 99.857261 60.26971 C 100.54257 60.279311 98.432381 59.299349 96.839617 58.868311 C 95.569814 58.524662 93.29952 58.235793 92.196259 58.247691 z M 95.722238 59.589031 C 95.444501 59.594149 95.255864 59.649073 95.255864 59.760926 C 95.255864 59.858111 95.593337 59.936964 96.00518 59.936964 C 96.416986 59.936964 96.838333 60.016633 96.942723 60.113692 C 97.04699 60.21083 97.365969 60.287379 97.651276 60.286279 C 98.05616 60.283215 98.001875 60.206598 97.403103 59.936964 C 96.896682 59.708904 96.185133 59.580499 95.722238 59.589031 z " />
      <path
         id="path14816-3"
         style="font-size:32px;line-height:1.25;fill:#666666;fill-opacity:1;stroke-width:0.23275"
         d="m 97.635694,30.960439 c 0.98687,0.0065 1.84096,0.142146 2.781456,0.390045 1.10573,0.291445 2.15829,0.770227 3.1699,1.44213 1.46076,0.970214 3.27992,1.692725 4.26211,1.692725 0.25988,0 0.47237,0.07967 0.47237,0.176728 0,0.0972 -0.21323,0.176729 -0.47477,0.176729 -0.91698,0 -2.45787,-0.588978 -4.61218,-1.76245 -2.3043,-1.255179 -2.96402,-1.416997 -5.763136,-1.415897 -2.30212,0.0015 -3.52969,0.244066 -8.579362,1.694106 -3.97382,1.141054 -4.76418,1.307512 -6.21153,1.307512 -1.16201,0 -1.65928,-0.06932 -1.65928,-0.231265 0,-0.476986 0.8315,-0.773435 2.95889,-1.054847 1.20555,-0.159462 4.17346,-0.743996 6.59518,-1.299228 3.401542,-0.779846 5.415572,-1.127118 7.060352,-1.116288 z m 0.24937,1.128714 c 0.20431,0.0022 0.36911,0.01426 0.47956,0.03866 0.8197,0.18106 0.46361,0.344707 -0.59585,0.273377 -1.54307,-0.103728 -4.25335,0.413957 -5.76074,1.100409 -0.72825,0.331638 -1.530922,0.607174 -1.783972,0.609574 -0.68531,0.0096 1.424882,-0.970361 3.017642,-1.401399 1.26981,-0.343649 3.5401,-0.632518 4.64336,-0.620621 z m -3.52598,1.34134 c 0.27774,0.0051 0.46638,0.06004 0.46638,0.171895 0,0.09719 -0.33748,0.176038 -0.74932,0.176038 -0.41181,0 -0.83315,0.07967 -0.93754,0.176728 -0.10427,0.09714 -0.42325,0.173687 -0.70856,0.172587 -0.40488,-0.0031 -0.35059,-0.07968 0.24818,-0.349315 0.50642,-0.22806 1.21797,-0.356465 1.68086,-0.347933 z"
         sodipodi:nodetypes="sccssssccssccssccsccscsscccc" />
      <path
         style="fill:#666666;fill-opacity:1;stroke-width:0.23275"
         d="m 73.477049,60.467289 c 0,-0.225361 1.541545,-0.225361 2.147225,0 0.336949,0.125339 0.111294,0.171918 -0.843561,0.173893 -0.716993,0.0011 -1.303664,-0.07671 -1.303664,-0.173893 z"
         id="path14812" />
    </g>
  </g>
</svg>
