<?xml version="1.0" encoding="UTF-8" standalone="no"?>
<svg
   version="1.1"
   width="100"
   height="100"
   id="svg4460"
   sodipodi:docname="foret.svg"
   inkscape:version="1.2.2 (732a01da63, 2022-12-09)"
   xmlns:inkscape="http://www.inkscape.org/namespaces/inkscape"
   xmlns:sodipodi="http://sodipodi.sourceforge.net/DTD/sodipodi-0.dtd"
   xmlns="http://www.w3.org/2000/svg"
   xmlns:svg="http://www.w3.org/2000/svg"
   xmlns:rdf="http://www.w3.org/1999/02/22-rdf-syntax-ns#"
   xmlns:cc="http://creativecommons.org/ns#"
   xmlns:dc="http://purl.org/dc/elements/1.1/">
  <sodipodi:namedview
     pagecolor="#ffffff"
     bordercolor="#666666"
     borderopacity="1"
     objecttolerance="10"
     gridtolerance="10"
     guidetolerance="10"
     inkscape:pageopacity="0"
     inkscape:pageshadow="2"
     inkscape:window-width="1920"
     inkscape:window-height="1009"
     id="namedview11"
     showgrid="true"
     inkscape:zoom="5.6568545"
     inkscape:cx="16.263455"
     inkscape:cy="52.856229"
     inkscape:window-x="-8"
     inkscape:window-y="-8"
     inkscape:window-maximized="1"
     inkscape:current-layer="text5282"
     inkscape:document-rotation="0"
     inkscape:pagecheckerboard="0"
     showguides="true"
     inkscape:guide-bbox="true"
     inkscape:showpageshadow="0"
     inkscape:deskcolor="#d1d1d1">
    <inkscape:grid
       type="xygrid"
       id="grid823"
       originx="0"
       originy="0" />
    <sodipodi:guide
       position="0,86"
       orientation="66,0"
       id="guide957"
       inkscape:locked="false" />
    <sodipodi:guide
       position="0,20"
       orientation="0,50"
       id="guide959"
       inkscape:locked="false" />
    <sodipodi:guide
       position="50,86"
       orientation="0,-50"
       id="guide963"
       inkscape:locked="false" />
    <sodipodi:guide
       position="8.9999971,64.32985"
       orientation="8.5387222,0"
       id="guide1517"
       inkscape:locked="false" />
    <sodipodi:guide
       position="8.9999971,55.791128"
       orientation="0,26.227758"
       id="guide1519"
       inkscape:locked="false" />
    <sodipodi:guide
       position="35,93.437165"
       orientation="-8.5387222,0"
       id="guide1521"
       inkscape:locked="false" />
    <sodipodi:guide
       position="35.227755,64.32985"
       orientation="0,-26.227758"
       id="guide1523"
       inkscape:locked="false" />
    <sodipodi:guide
       position="7.9247812,20.000001"
       orientation="0,-6.8495616"
       id="guide4054"
       inkscape:locked="false" />
    <sodipodi:guide
       position="1.0752196,74.999813"
       orientation="0,6.8495616"
       id="guide4058"
       inkscape:locked="false" />
  </sodipodi:namedview>
  <defs
     id="defs4462" />
  <metadata
     id="metadata4465">
    <rdf:RDF>
      <cc:Work
         rdf:about="">
        <dc:format>image/svg+xml</dc:format>
        <dc:type
           rdf:resource="http://purl.org/dc/dcmitype/StillImage" />
      </cc:Work>
    </rdf:RDF>
  </metadata>
  <g
     aria-label="C"
     id="text3215"
     style="font-size:32px;line-height:1.25"
     transform="translate(-37.75,-4)">
    <g
       aria-label="A"
       id="text5282"
       transform="matrix(1.6290909,0,0,2.8292029,-41.002727,-68.776958)">
      <path
         id="path10108"
         style="fill:#666666;fill-opacity:1;stroke-width:0.241709"
         d="m 74.906422,41.94009 c -0.108407,-0.100799 0.10672,-0.183405 0.477834,-0.183405 0.371072,0 0.586115,0.08246 0.477835,0.183405 -0.108407,0.100797 -0.323281,0.183379 -0.477835,0.183379 -0.154595,0 -0.369533,-0.08246 -0.477834,-0.183379 z m -1.111614,-0.713835 c -0.471401,-0.07566 -0.649155,-0.17834 -0.438183,-0.253428 0.488169,-0.173702 6.487459,0.06801 6.487459,0.261346 0,0.183308 -4.895944,0.176884 -6.049276,-0.0085 z m 5.730741,-1.648988 c 0,-0.159904 4.15964,-0.401577 4.450547,-0.258577 0.08246,0.04056 -0.06095,0.150505 -0.318599,0.244393 -0.597588,0.217566 -4.131948,0.229711 -4.131948,0.01421 z m -4.53953,-1.25846 C 73.978551,38.283097 73.1543,38.184843 73.1543,38.100281 c 0,-0.08453 2.938629,-0.142271 6.530231,-0.128475 3.591623,0.01421 6.530273,0.08695 6.530358,0.162686 4.1e-5,0.07578 -0.107354,0.144651 -0.238791,0.153529 -0.890772,0.05951 -9.501193,0.08344 -10.990122,0.03084 z" />
      <path
         id="path10106"
         style="fill:#666666;fill-opacity:1;stroke-width:0.241709"
         d="m 100.71745,33.949352 c 0,-0.191796 1.15731,-0.294525 2.30954,-0.204997 1.47764,0.114764 0.97148,0.372663 -0.71676,0.365145 -0.87602,-0.0025 -1.59278,-0.07603 -1.59278,-0.160148 z m 0.95585,-4.396724 c 0,-0.100799 0.43003,-0.183393 0.95564,-0.183393 0.52563,0 0.95569,0.08246 0.95569,0.183393 0,0.100797 -0.43006,0.183404 -0.95569,0.183404 -0.52561,0 -0.95564,-0.08246 -0.95564,-0.183404 z m -1.49562,-0.974696 c -0.280744,-0.261541 0.0506,-0.306622 2.79554,-0.380252 1.47501,-0.03947 2.93267,-0.13116 3.23933,-0.203419 0.63911,-0.150687 0.77108,0.17664 0.15945,0.39513 -0.56874,0.203078 -6.00098,0.368448 -6.19413,0.188541 z" />
      <path
         id="path10100"
         style="fill:#666666;fill-opacity:1;stroke-width:0.241709"
         d="m 99.491814,45.006946 c -0.08289,-0.230404 -0.210487,-0.861012 -0.28384,-1.401328 -0.147636,-1.08941 -0.488169,-1.303091 -2.081477,-1.307293 -0.585566,-0.0012 -1.429157,-0.167871 -1.874638,-0.369614 -0.445481,-0.201754 -1.184841,-0.368072 -1.643018,-0.369614 -0.458199,-0.0012 -0.990806,-0.06352 -1.183577,-0.137499 -0.57658,-0.221647 -1.093496,-0.914289 -0.899524,-1.205317 0.09955,-0.14957 -0.02763,-0.506238 -0.281351,-0.792736 -0.559182,-0.629795 -0.237315,-1.260197 0.733645,-1.437662 0.535981,-0.09801 0.639938,-0.225413 0.499009,-0.612174 -0.09786,-0.268646 -0.07044,-0.579263 0.06054,-0.690262 0.341587,-0.289206 1.530414,-0.623517 2.217238,-0.623517 0.322964,0 0.832729,-0.165066 1.132746,-0.366784 0.649873,-0.436979 2.276166,-0.484755 3.806096,-0.11185 0.575377,0.140182 1.890417,0.344645 2.922287,0.4542 2.43356,0.258359 3.27935,0.595402 3.6883,1.469748 0.18349,0.392009 0.5568,0.819515 0.8299,0.949982 1.47809,0.706268 1.86772,2.355559 0.74978,3.173799 -0.36321,0.26584 -1.304,0.700511 -2.09061,0.965914 -1.26125,0.425527 -1.67253,0.47136 -3.48078,0.387783 l -2.05058,-0.09473 v 0.886309 0.886296 l 1.64736,0.05538 c 1.03902,0.03497 1.70026,0.147822 1.79063,0.305432 0.1122,0.195657 -0.2069,0.232467 -1.4671,0.169328 -0.88568,-0.04433 -1.83085,-0.0097 -2.10035,0.07712 -0.367255,0.118286 -0.527777,0.05295 -0.640508,-0.261043 z m 2.203466,-3.026816 c -0.87603,-0.154184 -1.781037,-0.310774 -2.01116,-0.347984 -0.229974,-0.03704 -0.337179,-0.143207 -0.238052,-0.235687 0.199097,-0.185347 3.132522,0.153384 4.140262,0.478064 0.71021,0.228836 2.18421,-0.05963 1.99292,-0.38998 -0.15608,-0.269715 -2.87365,-0.835351 -4.96279,-1.033 -0.943728,-0.08926 -1.791876,-0.206115 -1.884781,-0.259599 -0.519214,-0.298921 0.570676,-0.251813 3.768091,0.162881 1.97005,0.255493 3.70591,0.420402 3.85749,0.366492 0.15165,-0.05404 0.27545,-0.254364 0.27545,-0.445407 0,-0.581132 -2.15059,-0.814316 -8.441695,-0.915309 -0.175054,-0.0025 -0.103556,-0.08501 0.159447,-0.182895 0.262792,-0.09788 1.974188,-0.179056 3.803078,-0.180598 l 3.32524,-0.0025 -0.68384,-0.366784 c -0.75143,-0.403035 -2.78838,-0.484864 -4.933045,-0.198123 -0.65795,0.08804 -1.260726,0.09983 -1.33948,0.02647 -0.195301,-0.181885 2.993045,-0.745385 4.217345,-0.745385 1.09156,0 1.43334,-0.170871 1.05212,-0.525996 -0.15017,-0.139746 -1.01217,-0.246593 -2.15004,-0.266339 -1.59228,-0.02769 -2.112674,0.04809 -3.217222,0.46813 -0.724724,0.275603 -1.392903,0.431076 -1.484817,0.345471 -0.195933,-0.18264 0.659912,-0.639584 1.569939,-0.838096 0.619755,-0.135094 0.617582,-0.144178 -0.07952,-0.331007 -0.394209,-0.105656 -0.716751,-0.305796 -0.716751,-0.444861 0,-0.443646 -0.959064,-0.491786 -1.623024,-0.08149 -0.34743,0.214712 -0.880902,0.390369 -1.185475,0.390369 -0.304614,0 -0.880753,0.131851 -1.280319,0.292958 -0.578711,0.233354 -0.685263,0.40108 -0.52377,0.824385 0.171047,0.448321 0.08099,0.558033 -0.575168,0.701701 -1.02086,0.223445 -1.249464,0.612623 -0.649493,1.105746 0.2672,0.219595 0.407053,0.572535 0.310879,0.784295 -0.264162,0.581473 0.328954,1.059172 1.316723,1.060545 0.475661,6.55e-4 1.29485,0.165175 1.820476,0.365593 0.525626,0.200407 1.457399,0.370707 2.070636,0.37848 0.613174,0.0085 1.401613,0.08501 1.751995,0.171733 0.350425,0.08671 1.425551,0.155436 2.389191,0.152898 l 1.75202,-0.0036 -1.59276,-0.280328 z m -9.127526,2.131836 c -0.177796,-0.06327 0.01266,-0.166755 0.420003,-0.229808 1.487115,-0.22925 3.769925,-0.09363 3.769925,0.223978 0,0.154174 -3.758135,0.159456 -4.189928,0.0073 z" />
      <path
         id="path10092"
         style="fill:#666666;fill-opacity:1;stroke-width:0.241709"
         d="m 54.26049,47.271543 c -0.254777,-0.237216 0.160924,-0.346892 1.101343,-0.290579 0.438015,0.02624 0.984014,0.05829 1.213377,0.07104 0.229489,0.01275 0.328385,0.105899 0.219935,0.206807 -0.24847,0.231386 -2.289094,0.241576 -2.534824,0.01263 z m 6.683603,-1.250628 c -0.269119,-1.436947 -0.469524,-1.594799 -2.110603,-1.662796 -1.630089,-0.06753 -2.834566,-0.609672 -2.834566,-1.275851 0,-0.259975 -0.406822,-0.663447 -0.979628,-0.971501 -0.640043,-0.344209 -0.949319,-0.671743 -0.892184,-0.944748 0.04809,-0.22982 -0.08436,-0.598147 -0.294555,-0.818458 -0.548847,-0.575497 -0.47254,-0.93412 0.245961,-1.155476 0.482707,-0.148781 0.585335,-0.315924 0.443878,-0.723137 -0.198886,-0.572291 0.477898,-0.930295 1.758449,-0.930295 0.353229,0 0.756866,-0.107357 0.896951,-0.238419 0.140044,-0.131147 1.172272,-0.323137 2.293672,-0.426729 2.642365,-0.244078 4.621699,-0.0012 5.447722,0.665658 0.329038,0.266047 1.186212,0.595414 1.904798,0.731965 1.501794,0.285345 2.872867,0.94623 2.872867,1.384787 0,0.165443 0.286709,0.510622 0.637113,0.767087 1.079555,0.790173 0.642132,2.44578 -0.847852,3.208884 -1.101005,0.563875 -3.335158,0.907622 -5.766995,0.887329 l -2.314383,-0.01931 0.190872,0.783421 c 0.299554,1.230529 0.279644,1.219951 2.405833,1.278778 1.229638,0.034 2.031554,0.14181 2.113133,0.284094 0.09807,0.170629 -0.521197,0.229249 -2.420596,0.229249 h -2.552055 z m 2.594195,-2.272638 c -0.204581,-0.06473 -1.196146,-0.215003 -2.203593,-0.333934 -1.007403,-0.118893 -1.831654,-0.302151 -1.831654,-0.407103 0,-0.234812 1.544144,-0.09157 4.713423,0.437549 2.156876,0.360008 2.397797,0.367307 3.344817,0.101406 l 1.020544,-0.286559 -1.274245,-0.315317 c -0.700806,-0.173446 -2.456851,-0.358137 -3.90227,-0.410442 -1.921523,-0.06959 -2.628066,-0.162104 -2.628066,-0.344354 0,-0.333619 1.811661,-0.324243 4.989207,0.02599 3.483385,0.383751 3.611722,0.374533 3.611722,-0.259427 0,-0.532216 -0.01055,-0.535131 -2.425405,-0.665403 -1.333974,-0.07189 -3.206314,-0.08453 -4.160737,-0.02781 -1.259271,0.07469 -1.701251,0.04348 -1.611151,-0.113914 0.129709,-0.227245 5.699821,-0.726222 6.684173,-0.598779 0.755558,0.09788 0.688131,-0.06983 -0.284262,-0.70679 l -0.821615,-0.538178 -2.215318,0.218696 c -1.218418,0.120351 -2.62889,0.341864 -3.134416,0.492346 -1.040496,0.30979 -1.587845,0.348689 -1.587845,0.112821 0,-0.213498 2.706608,-0.873643 4.267795,-1.040931 l 1.241596,-0.132981 -1.190641,-0.333424 c -1.39151,-0.389652 -2.501205,-0.314357 -4.706358,0.319385 -1.738075,0.499511 -1.842284,0.510865 -1.842284,0.200819 0,-0.297063 1.020163,-0.659937 3.023878,-1.075518 l 1.595142,-0.330861 -1.175751,-0.0073 c -0.646708,-0.0025 -1.264375,-0.08914 -1.372676,-0.190023 -0.298393,-0.277984 -1.622203,-0.21934 -2.070593,0.09169 -0.218227,0.151319 -0.809066,0.275106 -1.313222,0.275106 -0.939513,0 -1.026344,0.09024 -0.926415,0.962855 0.04049,0.354725 -0.09407,0.504356 -0.454065,0.504356 -0.771355,0 -0.959802,0.517957 -0.333446,0.916427 0.377653,0.240239 0.488717,0.50285 0.348631,0.82419 -0.171257,0.3927 -0.0445,0.524321 0.756634,0.786834 0.752881,0.246676 0.962629,0.442055 0.96419,0.898198 0.0021,0.996033 0.574767,1.149161 4.12657,1.105964 1.732275,-0.02114 2.982266,-0.0912 2.777706,-0.15591 z m -11.63491,2.246795 c -0.23782,-0.08671 -0.309403,-0.189356 -0.159447,-0.22812 0.564327,-0.145599 6.803273,0.05623 6.803273,0.220189 0,0.214968 -6.056657,0.222193 -6.643995,0.0085 z" />
      <path
         id="path10088"
         style="fill:#666666;fill-opacity:1;stroke-width:0.241709"
         d="m 97.988228,48.881548 c 0,-0.106872 1.05559,-0.183394 2.529632,-0.183394 1.3913,0 2.61822,0.08246 2.7265,0.183394 0.12528,0.11695 -0.79308,0.183392 -2.52961,0.183392 -1.605312,0 -2.726522,-0.07542 -2.726522,-0.183392 z m 8.214652,-1.111272 c -0.30013,-0.100676 -1.44689,-0.171272 -2.54845,-0.156868 -3.33982,0.04384 -9.807412,-0.237848 -9.807412,-0.427203 0,-0.255834 11.864342,-0.01093 12.923012,0.267116 0.71056,0.186391 0.88208,0.171806 1.14351,-0.09716 0.43177,-0.444168 0.99498,-0.197407 0.57662,0.25264 -0.35591,0.382888 -1.40653,0.457017 -2.28728,0.161422 z" />
      <path
         id="path10084"
         style="fill:#666666;fill-opacity:1;stroke-width:0.241709"
         d="m 77.224451,50.986021 c -0.244928,-1.028168 -0.942993,-1.526451 -2.138885,-1.526451 -0.485955,0 -1.098581,-0.123824 -1.361372,-0.275107 -0.262792,-0.151319 -0.744422,-0.275093 -1.070255,-0.275093 -0.60402,0 -2.957168,-1.460289 -2.957168,-1.835149 0,-0.11355 0.17189,-0.386629 0.381998,-0.606976 0.210064,-0.220324 0.344329,-0.581425 0.298245,-0.802476 -0.06032,-0.288756 0.190872,-0.483662 0.892143,-0.692448 0.667314,-0.198682 0.976021,-0.426389 0.976021,-0.719918 0,-0.649263 2.662971,-1.257587 5.664809,-1.294105 2.151583,-0.02624 2.427304,0.01591 3.799051,0.57721 0.813517,0.332999 1.721245,0.605446 2.017192,0.605446 0.912305,0 2.216753,0.720768 2.216753,1.224881 0,0.271342 0.316405,0.607923 0.760599,0.809083 0.418294,0.18944 0.851163,0.552204 0.961847,0.806156 0.293838,0.674 -0.857743,1.836374 -2.402394,2.424891 -1.131482,0.431089 -1.700892,0.506979 -4.294179,0.572267 l -2.98969,0.07529 v 0.620019 c 0,0.341014 0.143207,0.630329 0.318535,0.64296 0.175054,0.01263 0.46191,0.04348 0.637111,0.06886 0.175054,0.02526 0.748578,0.05623 1.274225,0.06886 1.78264,0.04274 0.970411,0.389736 -0.91239,0.389736 h -1.868015 z m 4.497706,-1.642053 c 0.394209,-0.06072 0.71673,-0.176932 0.71673,-0.25802 0,-0.143534 -0.464948,-0.214056 -2.955459,-0.4486 -0.699752,-0.06583 -1.119376,-0.191602 -1.002595,-0.300392 0.213312,-0.198803 1.980577,-0.08938 4.038642,0.250174 1.257689,0.207475 3.009917,-0.05477 2.643948,-0.395688 -0.228498,-0.212866 -4.077091,-0.588261 -6.432284,-0.627414 -1.128445,-0.0187 -1.864684,-0.11695 -1.947002,-0.259417 -0.158392,-0.274912 2.921145,-0.299905 6.61044,-0.05355 1.314023,0.08768 2.452274,0.1234 2.529445,0.0793 0.07719,-0.04408 -0.108407,-0.22263 -0.411988,-0.396756 -0.431392,-0.247272 -1.03748,-0.308855 -2.768385,-0.2813 -1.218817,0.01931 -2.216077,-0.03376 -2.216077,-0.118043 0,-0.231618 0.865716,-0.375845 2.25594,-0.375845 0.89712,0 1.248155,-0.07724 1.248155,-0.275106 0,-0.368776 -2.638949,-0.365461 -5.381834,0.0073 -1.890435,0.25655 -2.650212,0.246445 -2.171955,-0.0289 0.363964,-0.209527 3.872489,-0.613849 5.483196,-0.631884 l 1.59276,-0.01773 -1.114947,-0.285478 c -0.940441,-0.240787 -1.488844,-0.253489 -3.504075,-0.08113 -1.314043,0.112336 -2.71167,0.257181 -3.105879,0.321814 -0.426309,0.06983 -0.716772,0.03741 -0.716772,-0.08027 0,-0.218016 1.536615,-0.477444 3.97537,-0.671147 1.487643,-0.118164 1.547014,-0.142745 0.955669,-0.39638 -0.429009,-0.183963 -1.02124,-0.235467 -1.852831,-0.161143 -1.045642,0.09351 -1.246616,0.0555 -1.391004,-0.262295 -0.210487,-0.463405 -0.167039,-0.465117 -2.191634,0.08623 -1.192265,0.32474 -1.710446,0.577453 -1.782766,0.869441 -0.05842,0.236231 -0.486693,0.517483 -1.004894,0.660046 -0.715127,0.196726 -0.864873,0.335792 -0.719831,0.668487 0.112836,0.258444 2.95e-4,0.507343 -0.291643,0.646907 -0.665227,0.317866 -0.592274,0.932178 0.123381,1.039959 0.329059,0.04955 0.756022,0.2894 0.948835,0.533028 0.19277,0.243616 0.62277,0.442955 0.955477,0.442955 0.332751,0 0.791666,0.129604 1.019891,0.287845 0.228266,0.158314 0.685346,0.247139 1.015839,0.19737 0.330494,-0.04967 1.057264,0.0238 1.615032,0.163488 1.046612,0.262088 3.972797,0.347451 5.234958,0.152752 z" />
      <path
         id="path10084-3"
         style="font-size:32px;line-height:1.25;fill:#666666;fill-opacity:1;stroke-width:0.241709"
         d="m 57.185721,34.335834 c -0.244928,-1.028168 -0.942993,-1.526451 -2.138885,-1.526451 -0.485955,0 -1.098581,-0.123824 -1.361372,-0.275107 -0.262792,-0.151319 -0.744422,-0.275093 -1.070255,-0.275093 -0.60402,0 -2.957168,-1.460289 -2.957168,-1.835149 0,-0.11355 0.17189,-0.386629 0.381998,-0.606976 0.210064,-0.220324 0.344329,-0.581425 0.298245,-0.802476 -0.06032,-0.288756 0.190872,-0.483662 0.892143,-0.692448 0.667314,-0.198682 0.976021,-0.426389 0.976021,-0.719918 0,-0.649263 2.662971,-1.257587 5.664809,-1.294105 2.151583,-0.02624 2.427304,0.01591 3.799051,0.57721 0.813517,0.332999 1.721245,0.605446 2.017192,0.605446 0.912305,0 2.216753,0.720768 2.216753,1.224881 0,0.271342 0.316405,0.607923 0.760599,0.809083 0.418294,0.18944 0.851163,0.552204 0.961847,0.806156 0.293838,0.674 -0.857743,1.836374 -2.402394,2.424891 -1.131482,0.431089 -1.700892,0.506979 -4.294179,0.572267 l -2.98969,0.07529 v 0.620019 c 0,0.341014 0.143207,0.630329 0.318535,0.64296 0.175054,0.01263 0.46191,0.04348 0.637111,0.06886 0.175054,0.02526 0.748578,0.05623 1.274225,0.06886 1.78264,0.04274 0.970411,0.389736 -0.91239,0.389736 h -1.868015 z m 4.497706,-1.642053 c 0.394209,-0.06072 0.71673,-0.176932 0.71673,-0.25802 0,-0.143534 -0.464948,-0.214056 -2.955459,-0.4486 -0.699752,-0.06583 -1.119376,-0.191602 -1.002595,-0.300392 0.213312,-0.198803 1.980577,-0.08938 4.038642,0.250174 1.257689,0.207475 3.009917,-0.05477 2.643948,-0.395688 -0.228498,-0.212866 -4.077091,-0.588261 -6.432284,-0.627414 -1.128445,-0.0187 -1.864684,-0.11695 -1.947002,-0.259417 -0.158392,-0.274912 2.921145,-0.299905 6.61044,-0.05355 1.314023,0.08768 2.452274,0.1234 2.529445,0.0793 0.07719,-0.04408 -0.108407,-0.22263 -0.411988,-0.396756 -0.431392,-0.247272 -1.03748,-0.308855 -2.768385,-0.2813 -1.218817,0.01931 -2.216077,-0.03376 -2.216077,-0.118043 0,-0.231618 0.865716,-0.375845 2.25594,-0.375845 0.89712,0 1.248155,-0.07724 1.248155,-0.275106 0,-0.368776 -2.638949,-0.365461 -5.381834,0.0073 -1.890435,0.25655 -2.650212,0.246445 -2.171955,-0.0289 0.363964,-0.209527 3.872489,-0.613849 5.483196,-0.631884 l 1.59276,-0.01773 -1.114947,-0.285478 c -0.940441,-0.240787 -1.488844,-0.253489 -3.504075,-0.08113 -1.314043,0.112336 -2.71167,0.257181 -3.105879,0.321814 -0.426309,0.06983 -0.716772,0.03741 -0.716772,-0.08027 0,-0.218016 1.536615,-0.477444 3.97537,-0.671147 1.487643,-0.118164 1.547014,-0.142745 0.955669,-0.39638 -0.429009,-0.183963 -1.02124,-0.235467 -1.852831,-0.161143 -1.045642,0.09351 -1.246616,0.0555 -1.391004,-0.262295 -0.210487,-0.463405 -0.167039,-0.465117 -2.191634,0.08623 -1.192265,0.32474 -1.710446,0.577453 -1.782766,0.869441 -0.05842,0.236231 -0.486693,0.517483 -1.004894,0.660046 -0.715127,0.196726 -0.864873,0.335792 -0.719831,0.668487 0.112836,0.258444 2.95e-4,0.507343 -0.291643,0.646907 -0.665227,0.317866 -0.592274,0.932178 0.123381,1.039959 0.329059,0.04955 0.756022,0.2894 0.948835,0.533028 0.19277,0.243616 0.62277,0.442955 0.955477,0.442955 0.332751,0 0.791666,0.129604 1.019891,0.287845 0.228266,0.158314 0.685346,0.247139 1.015839,0.19737 0.330494,-0.04967 1.057264,0.0238 1.615032,0.163488 1.046612,0.262088 3.972797,0.347451 5.234958,0.152752 z" />
      <path
         id="path10070"
         style="fill:#666666;fill-opacity:1;stroke-width:0.241709"
         d="m 51.824623,60.121276 c -0.447822,-0.259392 -0.240499,-0.469052 0.35614,-0.360044 0.327245,0.05999 1.00173,0.0198 1.49882,-0.08915 0.960076,-0.210171 3.321534,-0.0708 3.321534,0.196071 0,0.08732 -0.609231,0.1494 -1.353822,0.13807 -0.744612,-0.01093 -1.855593,0.04104 -2.468809,0.116343 -0.613217,0.0753 -1.222425,0.07456 -1.353863,-0.0012 z m 9.850878,-0.764877 c -0.07762,-0.07578 -0.100604,-0.422236 -0.05062,-0.770172 0.130764,-0.910949 -0.324925,-1.476258 -1.191104,-1.477606 -0.398534,-5.47e-4 -1.135194,-0.124528 -1.637072,-0.275094 -0.501814,-0.150687 -1.530878,-0.273989 -2.286753,-0.273989 -1.240205,0 -2.371539,-0.333485 -2.377508,-0.70084 -9.09e-4,-0.06837 -0.405429,-0.256538 -0.898512,-0.41801 -0.823407,-0.269581 -0.894694,-0.378625 -0.874025,-1.336403 0.01476,-0.668353 0.177796,-1.098058 0.454782,-1.196597 0.302084,-0.107478 0.364808,-0.3304 0.208377,-0.740613 -0.163664,-0.428793 -0.0831,-0.669604 0.299132,-0.894044 0.287699,-0.168965 0.704118,-0.459835 0.925487,-0.646385 0.450964,-0.380106 2.290782,-0.652978 5.142938,-0.762787 1.051252,-0.04044 2.216521,-0.117558 2.589513,-0.171479 0.957629,-0.138336 3.45567,0.331419 4.723167,0.888033 1.442065,0.633244 2.231622,1.844888 1.984606,3.045591 -0.183912,0.893692 0.371894,2.165717 0.830768,1.901529 0.250116,-0.14402 9.48666,-0.10177 10.976158,0.05015 0.569432,0.05805 1.035308,0.18225 1.035308,0.275871 0,0.100798 -2.345492,0.144021 -5.749469,0.10602 -4.488194,-0.05004 -5.8858,-0.0097 -6.371079,0.186562 -0.341883,0.137778 -0.621589,0.208519 -0.621589,0.157027 0,-0.05149 -0.752627,0.108206 -1.67242,0.354616 -1.0286,0.275713 -2.254906,0.448953 -3.185539,0.45007 l -1.513142,0.0012 v 1.0087 1.008723 h 1.752059 c 0.963619,0 1.752037,0.08246 1.752037,0.183392 0,0.21147 -4.029869,0.254996 -4.245249,0.04578 z m 1.722868,-2.613457 c 0.511285,0 0.929621,-0.08246 0.929621,-0.183404 0,-0.100799 -0.206479,-0.183393 -0.459042,-0.183393 -0.483698,0 -0.985428,-0.329913 -0.727571,-0.478379 0.08331,-0.04797 0.747797,0.05015 1.476738,0.218113 1.25423,0.288952 1.359495,0.287494 1.963073,-0.02696 0.581158,-0.302797 0.59086,-0.34744 0.10904,-0.502705 -0.290886,-0.09363 -1.729808,-0.213559 -3.197562,-0.266266 -1.467733,-0.05271 -2.668623,-0.166766 -2.668623,-0.253416 0,-0.203503 3.309637,-0.196095 4.857937,0.01093 0.657043,0.08793 1.192392,0.106507 1.189692,0.04141 -0.02467,-0.59375 -1.893493,-0.921758 -5.3309,-0.935529 -1.257815,-0.0036 -1.990954,-0.08416 -1.990954,-0.214967 0,-0.146231 1.031068,-0.182506 3.512131,-0.123679 2.423591,0.05756 3.476678,0.0221 3.397629,-0.113914 -0.122749,-0.211664 -0.537036,-0.242038 -5.555918,-0.407456 -1.795822,-0.05926 -3.265157,-0.175474 -3.265157,-0.258444 0,-0.393199 3.521832,-0.42062 7.724921,-0.06024 0.934661,0.08027 1.194564,0.04177 1.194564,-0.176409 0,-0.34388 -0.886427,-0.516743 -2.731897,-0.532822 -0.978298,-0.0085 -1.40929,-0.08999 -1.40929,-0.26635 0,-0.139758 0.179272,-0.240702 0.398174,-0.224332 0.218965,0.0164 1.09666,0.02004 1.950355,0.0085 1.377063,-0.01919 1.504979,-0.05441 1.134075,-0.311734 -0.318661,-0.22104 -0.890539,-0.276018 -2.404988,-0.231181 -2.018098,0.05963 -3.048007,-0.117558 -1.672673,-0.28804 1.872192,-0.232031 1.901846,-0.268634 0.141098,-0.174393 -1.708969,0.09157 -1.940125,0.06072 -2.445209,-0.324741 -0.512422,-0.391097 -0.645822,-0.40742 -1.639307,-0.200589 -0.594803,0.123825 -1.461848,0.225146 -1.92669,0.225146 -0.616971,0 -0.9787,0.148609 -1.339437,0.5502 -0.271882,0.302613 -0.635552,0.550213 -0.808307,0.550213 -0.187919,0 -0.232442,0.293639 -0.111148,0.730545 0.154806,0.556916 0.08964,0.755562 -0.273548,0.835812 -0.341841,0.07554 -0.460118,0.348471 -0.418632,0.965903 0.04576,0.68272 0.198464,0.89719 0.737715,1.037373 0.373961,0.09716 0.863142,0.373816 1.087043,0.614699 0.346037,0.372225 0.584216,0.424313 1.586516,0.346904 0.690705,-0.05332 1.534275,0.01421 2.035857,0.16475 0.471064,0.140742 1.162611,0.257072 1.536805,0.25864 0.374151,0.0012 0.89537,0.08319 1.158161,0.181461 0.262792,0.09825 0.668728,0.138348 0.902077,0.08902 0.233159,-0.04931 0.842579,-0.08963 1.353842,-0.08963 z m -9.705435,1.868023 c -0.223121,-0.20779 3.193638,-0.527964 3.535246,-0.331299 0.329439,0.189671 -0.0042,0.267723 -1.705025,0.397547 -1.013268,0.07724 -1.702833,0.05234 -1.830221,-0.06631 z" />
      <path
         id="path10177"
         style="font-size:32px;line-height:1.25;fill:#666666;fill-opacity:1;stroke-width:0.241709"
         d="m 85.92245,36.268024 c -0.07762,-0.07578 -0.100604,-0.422236 -0.05062,-0.770172 0.130764,-0.910949 -0.324925,-1.476258 -1.191104,-1.477606 -0.398534,-5.47e-4 -1.135194,-0.124528 -1.637072,-0.275094 -0.501814,-0.150687 -1.530878,-0.273989 -2.286753,-0.273989 -1.240205,0 -2.371539,-0.333485 -2.377508,-0.70084 -9.09e-4,-0.06837 -0.405429,-0.256538 -0.898512,-0.41801 -0.823407,-0.269581 -0.894694,-0.378625 -0.874025,-1.336403 0.01476,-0.668353 0.177796,-1.098058 0.454782,-1.196597 0.302084,-0.107478 0.364808,-0.3304 0.208377,-0.740613 -0.163664,-0.428793 -0.0831,-0.669604 0.299132,-0.894044 0.287699,-0.168965 0.704118,-0.459835 0.925487,-0.646385 0.450964,-0.380106 2.290782,-0.652978 5.142938,-0.762787 1.051252,-0.04044 2.216521,-0.117558 2.589513,-0.171479 0.957629,-0.138336 3.45567,0.331419 4.723167,0.888033 1.442065,0.633244 2.231622,1.844888 1.984606,3.045591 -0.183912,0.893692 0.371894,2.165717 0.830768,1.901529 0.250116,-0.14402 9.486664,-0.10177 10.976164,0.05015 0.56943,0.05805 1.0353,0.18225 1.0353,0.275871 0,0.100798 -2.34549,0.144021 -5.74947,0.10602 -4.488191,-0.05004 -5.885797,-0.0097 -6.371076,0.186562 -0.341883,0.137778 -0.621589,0.208519 -0.621589,0.157027 0,-0.05149 -0.752627,0.108206 -1.67242,0.354616 -1.0286,0.275713 -2.254906,0.448953 -3.185539,0.45007 l -1.513142,0.0012 v 1.0087 1.008723 h 1.752059 c 0.963619,0 1.752037,0.08246 1.752037,0.183392 0,0.21147 -4.029869,0.254996 -4.245249,0.04578 z m 1.722868,-2.613457 c 0.511285,0 0.929621,-0.08246 0.929621,-0.183404 0,-0.100799 -0.206479,-0.183393 -0.459042,-0.183393 -0.483698,0 -0.985428,-0.329913 -0.727571,-0.478379 0.08331,-0.04797 0.747797,0.05015 1.476738,0.218113 1.25423,0.288952 1.359495,0.287494 1.963073,-0.02696 0.581158,-0.302797 0.59086,-0.34744 0.10904,-0.502705 -0.290886,-0.09363 -1.729808,-0.213559 -3.197562,-0.266266 -1.467733,-0.05271 -2.668623,-0.166766 -2.668623,-0.253416 0,-0.203503 3.309637,-0.196095 4.857937,0.01093 0.657043,0.08793 1.192392,0.106507 1.189692,0.04141 -0.02467,-0.59375 -1.893493,-0.921758 -5.3309,-0.935529 -1.257815,-0.0036 -1.990954,-0.08416 -1.990954,-0.214967 0,-0.146231 1.031068,-0.182506 3.512131,-0.123679 2.423591,0.05756 3.476678,0.0221 3.397629,-0.113914 -0.122749,-0.211664 -0.537036,-0.242038 -5.555918,-0.407456 -1.795822,-0.05926 -3.265157,-0.175474 -3.265157,-0.258444 0,-0.393199 3.521832,-0.42062 7.724921,-0.06024 0.934661,0.08027 1.194564,0.04177 1.194564,-0.176409 0,-0.34388 -0.886427,-0.516743 -2.731897,-0.532822 -0.978298,-0.0085 -1.40929,-0.08999 -1.40929,-0.26635 0,-0.139758 0.179272,-0.240702 0.398174,-0.224332 0.218965,0.0164 1.09666,0.02004 1.950355,0.0085 1.377063,-0.01919 1.504979,-0.05441 1.134075,-0.311734 -0.318661,-0.22104 -0.890539,-0.276018 -2.404988,-0.231181 -2.018098,0.05963 -3.048007,-0.117558 -1.672673,-0.28804 1.872192,-0.232031 1.901846,-0.268634 0.141098,-0.174393 -1.708969,0.09157 -1.940125,0.06072 -2.445209,-0.324741 -0.512422,-0.391097 -0.645822,-0.40742 -1.639307,-0.200589 -0.594803,0.123825 -1.461848,0.225146 -1.92669,0.225146 -0.616971,0 -0.9787,0.148609 -1.339437,0.5502 -0.271882,0.302613 -0.635552,0.550213 -0.808307,0.550213 -0.187919,0 -0.232442,0.293639 -0.111148,0.730545 0.154806,0.556916 0.08964,0.755562 -0.273548,0.835812 -0.341841,0.07554 -0.460118,0.348471 -0.418632,0.965903 0.04576,0.68272 0.198464,0.89719 0.737715,1.037373 0.373961,0.09716 0.863142,0.373816 1.087043,0.614699 0.346037,0.372225 0.584216,0.424313 1.586516,0.346904 0.690705,-0.05332 1.534275,0.01421 2.035857,0.16475 0.471064,0.140742 1.162611,0.257072 1.536805,0.25864 0.374151,0.0012 0.89537,0.08319 1.158161,0.181461 0.262792,0.09825 0.668728,0.138348 0.902077,0.08902 0.233159,-0.04931 0.842579,-0.08963 1.353842,-0.08963 z" />
      <path
         id="path10070-6"
         style="font-size:32px;line-height:1.25;fill:#666666;fill-opacity:1;stroke-width:0.241709"
         d="m 67.357095,36.422982 c -0.447822,-0.259392 -0.240499,-0.469052 0.35614,-0.360044 0.327245,0.05999 1.00173,0.0198 1.49882,-0.08915 0.960076,-0.210171 3.321534,-0.0708 3.321534,0.196071 0,0.08732 -0.609231,0.1494 -1.353822,0.13807 -0.744612,-0.01093 -1.855593,0.04104 -2.468809,0.116343 -0.613217,0.0753 -1.222425,0.07456 -1.353863,-0.0012 z m 1.868311,-1.510311 c -0.223121,-0.20779 3.193638,-0.527964 3.535246,-0.331299 0.329439,0.189671 -0.0042,0.267723 -1.705025,0.397547 -1.013268,0.07724 -1.702833,0.05234 -1.830221,-0.06631 z" />
      <path
         id="path10064"
         style="fill:#666666;fill-opacity:1;stroke-width:0.241709"
         d="m 103.51001,60.097313 c -0.33465,-0.124528 0.16661,-0.178619 1.67238,-0.180599 1.22438,-0.0012 2.15022,0.07614 2.15022,0.180599 0,0.234982 -3.19106,0.234982 -3.8226,0 z m -3.636379,-1.441844 c -0.35317,-0.329028 1.071159,-0.621075 2.318769,-0.47544 0.63707,0.07433 2.4126,0.128196 3.94566,0.119744 1.53304,-0.0085 2.78733,0.05502 2.78733,0.141021 0,0.257982 -5.23675,0.440877 -5.98878,0.209174 -0.84051,-0.258991 -2.06591,-0.260776 -2.51249,-0.0025 -0.2366,0.136235 -0.41098,0.139052 -0.550489,0.0097 z" />
      <path
         id="path10062"
         style="fill:#666666;fill-opacity:1;stroke-width:0.241709"
         d="m 91.349646,60.433727 c -0.513478,-0.206892 -0.875249,-0.22625 -1.533831,-0.0821 -1.069896,0.234181 -1.457546,0.238455 -1.457546,0.01603 0,-0.09497 0.60923,-0.247867 1.353842,-0.339835 1.029127,-0.1272 1.534401,-0.103471 2.106533,0.09873 0.413992,0.146243 1.166555,0.23095 1.672419,0.188214 0.619648,-0.05246 0.919729,0.0012 0.919729,0.165612 0,0.335051 -2.196885,0.30157 -3.061146,-0.04664 z M 94.3046,58.951445 c -0.116843,-0.06728 -0.212343,-0.504659 -0.212343,-0.972035 0,-0.986451 -0.39984,-1.289903 -1.699563,-1.289903 -0.595458,0 -1.211163,-0.171515 -1.695219,-0.472222 -0.610179,-0.379026 -0.945059,-0.448819 -1.697412,-0.353668 -0.738939,0.09351 -1.175646,0.0097 -2.063717,-0.398966 -0.992831,-0.456071 -1.126462,-0.616449 -1.126484,-1.351925 0,-0.458959 -0.165984,-0.930016 -0.368773,-1.046784 -0.425466,-0.244964 0.156916,-0.778053 0.850151,-0.778053 0.221876,0 0.49766,-0.289353 0.6129,-0.642985 0.165985,-0.509589 0.438204,-0.69801 1.311681,-0.908156 0.635066,-0.15274 1.232992,-0.46321 1.410809,-0.732488 0.25948,-0.392797 0.510904,-0.467388 1.575781,-0.467388 0.696904,0 1.62796,-0.0946 2.069054,-0.210353 0.618066,-0.162127 0.91298,-0.157354 1.286288,0.02114 0.322521,0.154185 0.945903,0.191602 1.865464,0.112214 1.749484,-0.151015 2.295295,-0.02684 2.76773,0.629807 0.249273,0.346613 0.689354,0.565649 1.288413,0.641406 1.57078,0.198633 2.55771,0.777494 2.47862,1.453803 -0.0449,0.383992 0.17927,0.778988 0.62907,1.108198 0.72053,0.52737 0.92239,1.356696 0.4049,1.663354 -0.16197,0.09594 -0.34093,0.421835 -0.39821,0.724424 -0.17231,0.910464 -1.68805,1.238034 -5.228521,1.129998 -1.592021,-0.04845 -3.073125,-0.02477 -3.291416,0.05294 -0.279516,0.09946 -0.331294,0.392859 -0.175054,0.99222 l 0.221645,0.851005 h 1.39731 c 0.768529,0 1.397331,0.08246 1.397331,0.183392 0,0.20184 -3.269692,0.257206 -3.610267,0.06121 z m 0.620365,-2.737779 c 0.92669,0.204706 5.538345,0.345362 5.538345,0.168904 0,-0.294938 -3.286666,-0.793477 -5.23103,-0.793477 -1.322944,0 -1.79327,-0.06339 -1.696906,-0.229248 0.175898,-0.302371 4.553091,-0.201136 6.574306,0.152108 1.89864,0.331796 1.94639,0.328966 1.94639,-0.115008 0,-0.506311 -2.235119,-1.082136 -4.220821,-1.087431 -0.924559,-0.0025 -1.513121,-0.08598 -1.513121,-0.215089 0,-0.152412 0.841546,-0.179227 3.026262,-0.09655 1.6644,0.06291 3.0224,0.05477 3.01769,-0.01822 -0.019,-0.321219 -3.541355,-1.141328 -4.899795,-1.141328 -0.78382,0 -1.523982,-0.09206 -1.644811,-0.204669 -0.156705,-0.145916 0.477054,-0.184389 2.211079,-0.133965 1.715339,0.04991 2.430757,0.0085 2.430757,-0.144178 0,-0.379014 -1.925547,-0.617554 -4.985111,-0.617554 -1.638315,0 -2.978722,-0.07286 -2.978722,-0.162006 0,-0.240616 1.204287,-0.382875 3.265178,-0.385693 1.007405,-0.0012 1.831677,-0.06849 1.831677,-0.149242 0,-0.358223 -0.878497,-0.58689 -2.254569,-0.58689 -0.935864,0 -1.637536,-0.102255 -1.886618,-0.275093 -0.23879,-0.165686 -0.935843,-0.275107 -1.752438,-0.275107 -1.206144,0 -1.399525,0.06072 -1.751679,0.5502 -0.233159,0.324304 -0.632219,0.55019 -0.971549,0.55019 -0.820666,0 -1.576878,0.498271 -1.576878,1.038975 0,0.301727 -0.212343,0.494568 -0.61096,0.55456 -0.539355,0.08124 -0.590185,0.213548 -0.433796,1.129088 0.223605,1.308374 0.896403,1.719546 2.892356,1.767407 1.097313,0.02635 1.568736,0.132701 1.913656,0.431756 0.273822,0.237483 0.793796,0.397971 1.29483,0.399635 0.460434,0.0012 1.052201,0.08197 1.314993,0.178583 0.344793,0.126921 0.507762,0.09679 0.585334,-0.107963 0.06095,-0.161047 0.305754,-0.239949 0.565951,-0.182457 z" />
      <path
         style="fill:#666666;fill-opacity:1;stroke-width:0.241709"
         d="m 72.723012,61.930712 c -0.108196,-0.100798 -0.05336,-0.183404 0.121694,-0.183404 0.175054,0 0.407137,0.08246 0.515418,0.183404 0.108618,0.100799 0.05336,0.183405 -0.121483,0.183405 -0.175055,0 -0.40718,-0.08246 -0.51546,-0.183405 z"
         id="path10060" />
      <path
         id="path7502"
         style="fill:#666666;fill-opacity:1;stroke-width:0.241709"
         d="m 77.71169,63.451895 c 0.206268,-0.118772 0.42169,-0.118772 0.627979,0 0.206269,0.118772 0.09871,0.180793 -0.314001,0.180793 -0.412578,0 -0.520289,-0.06205 -0.313978,-0.180793 z m 0.07519,-4.094124 c -3.373142,-0.09242 -2.84739,-0.414013 0.676911,-0.414013 3.235123,0 4.977395,0.136369 4.977395,0.389713 0,0.155448 -0.753301,0.15863 -5.654306,0.02429 z m -0.684039,-1.829647 c -0.280783,-0.122974 -0.976422,-0.226043 -1.545853,-0.22925 -0.569389,-0.0025 -1.035308,-0.08841 -1.035308,-0.189245 0,-0.252797 2.458327,-0.232297 2.732171,0.02271 0.147214,0.137219 0.873414,0.168381 2.169046,0.09327 2.017908,-0.117072 3.742084,0.03741 3.614042,0.323551 -0.114946,0.256963 -5.341193,0.238369 -5.934098,-0.02114 z" />
    </g>
  </g>
</svg>
