<?xml version="1.0" encoding="UTF-8" standalone="no"?>
<svg
   version="1.1"
   width="100"
   height="100"
   id="svg4460"
   sodipodi:docname="olivier.svg"
   inkscape:version="1.2.2 (732a01da63, 2022-12-09)"
   xmlns:inkscape="http://www.inkscape.org/namespaces/inkscape"
   xmlns:sodipodi="http://sodipodi.sourceforge.net/DTD/sodipodi-0.dtd"
   xmlns="http://www.w3.org/2000/svg"
   xmlns:svg="http://www.w3.org/2000/svg"
   xmlns:rdf="http://www.w3.org/1999/02/22-rdf-syntax-ns#"
   xmlns:cc="http://creativecommons.org/ns#"
   xmlns:dc="http://purl.org/dc/elements/1.1/">
  <sodipodi:namedview
     pagecolor="#ffffff"
     bordercolor="#666666"
     borderopacity="1"
     objecttolerance="10"
     gridtolerance="10"
     guidetolerance="10"
     inkscape:pageopacity="0"
     inkscape:pageshadow="2"
     inkscape:window-width="1920"
     inkscape:window-height="1009"
     id="namedview11"
     showgrid="true"
     inkscape:zoom="6.7"
     inkscape:cx="72.537313"
     inkscape:cy="35.671642"
     inkscape:window-x="-8"
     inkscape:window-y="-8"
     inkscape:window-maximized="1"
     inkscape:current-layer="text5282"
     inkscape:document-rotation="0"
     inkscape:pagecheckerboard="0"
     showguides="true"
     inkscape:guide-bbox="true"
     inkscape:showpageshadow="0"
     inkscape:deskcolor="#d1d1d1">
    <inkscape:grid
       type="xygrid"
       id="grid823"
       originx="0"
       originy="0" />
    <sodipodi:guide
       position="0,86"
       orientation="66,0"
       id="guide957"
       inkscape:locked="false" />
    <sodipodi:guide
       position="0,20"
       orientation="0,50"
       id="guide959"
       inkscape:locked="false" />
    <sodipodi:guide
       position="8.9999971,64.32985"
       orientation="8.5387222,0"
       id="guide1517"
       inkscape:locked="false" />
    <sodipodi:guide
       position="8.9999971,55.791128"
       orientation="0,26.227758"
       id="guide1519"
       inkscape:locked="false" />
    <sodipodi:guide
       position="95,90"
       orientation="-8.5387222,0"
       id="guide1521"
       inkscape:locked="false" />
    <sodipodi:guide
       position="35.227755,64.32985"
       orientation="0,-26.227758"
       id="guide1523"
       inkscape:locked="false" />
    <sodipodi:guide
       position="7.9247812,20.000001"
       orientation="0,-6.8495616"
       id="guide4054"
       inkscape:locked="false" />
    <sodipodi:guide
       position="85,75"
       orientation="0,6.8495616"
       id="guide4058"
       inkscape:locked="false" />
  </sodipodi:namedview>
  <defs
     id="defs4462" />
  <metadata
     id="metadata4465">
    <rdf:RDF>
      <cc:Work
         rdf:about="">
        <dc:format>image/svg+xml</dc:format>
        <dc:type
           rdf:resource="http://purl.org/dc/dcmitype/StillImage" />
      </cc:Work>
    </rdf:RDF>
  </metadata>
  <g
     aria-label="C"
     id="text3215"
     style="font-size:32px;line-height:1.25"
     transform="translate(-37.75,-4)">
    <g
       aria-label="A"
       id="text5282"
       transform="matrix(1.6290909,0,0,2.8292029,-41.002727,-68.776958)">
      <path
         id="path11003"
         style="fill:#666666;fill-opacity:1;stroke-width:0.232103"
         d="m 104.152,41.692569 c -1.63384,-0.07487 -1.85014,-0.254401 -1.46315,-1.214675 0.15129,-0.374984 0.27802,-0.939342 0.28204,-1.254139 0.004,-0.486936 -0.10167,-0.57237 -0.72233,-0.57237 -0.40129,0 -1.41761,-0.127976 -2.258544,-0.28429 -4.416178,-0.821138 -4.106795,-2.645932 0.560554,-3.306162 3.51947,-0.497839 6.6307,-0.322003 8.13394,0.459753 0.76986,0.400359 1.17765,1.402837 0.75542,1.857062 -0.386,0.415228 -2.6211,1.049556 -4.21523,1.196331 -1.40452,0.129317 -1.63475,0.403694 -1.63475,1.948491 v 0.770491 h 1.68245 c 1.29153,0 1.68241,0.06146 1.68241,0.264173 0,0.165946 -0.25582,0.252372 -0.68827,0.232419 -0.37855,-0.01738 -1.33007,-0.06123 -2.11454,-0.09714 z m 2.8955,-4.343404 c 0.95362,-0.271975 1.14659,-0.413106 1.07062,-0.782981 -0.20232,-0.984425 -4.08717,-1.580609 -7.43491,-1.140961 -2.249069,0.295345 -3.287235,0.767389 -3.152216,1.433228 0.151903,0.749989 1.177961,0.929452 4.988356,0.872648 2.54789,-0.0379 3.64726,-0.130682 4.52815,-0.381934 z" />
      <path
         id="path11003-8"
         style="font-size:32px;line-height:1.25;fill:#666666;fill-opacity:1;stroke-width:0.232103"
         d="m 56.112561,34.633345 c -1.63384,-0.07487 -1.85014,-0.254401 -1.46315,-1.214675 0.15129,-0.374984 0.27802,-0.939342 0.28204,-1.254139 0.004,-0.486936 -0.10167,-0.57237 -0.72233,-0.57237 -0.40129,0 -1.41761,-0.127976 -2.25855,-0.28429 -4.416176,-0.821138 -4.106793,-2.645932 0.56056,-3.306162 3.51947,-0.497839 6.6307,-0.322003 8.13394,0.459753 0.76986,0.400359 1.17765,1.402837 0.75542,1.857062 -0.386,0.415228 -2.6211,1.049556 -4.21523,1.196331 -1.40452,0.129317 -1.63475,0.403694 -1.63475,1.948491 v 0.770491 h 1.68245 c 1.29153,0 1.68241,0.06146 1.68241,0.264173 0,0.165946 -0.25582,0.252372 -0.68827,0.232419 -0.37855,-0.01738 -1.33007,-0.06123 -2.11454,-0.09714 z m 2.8955,-4.343404 c 0.95362,-0.271975 1.14659,-0.413106 1.07062,-0.782981 -0.20232,-0.984425 -4.08717,-1.580609 -7.43491,-1.140961 -2.24907,0.295345 -3.28724,0.767389 -3.15222,1.433228 0.1519,0.749989 1.17796,0.929452 4.98836,0.872648 2.54789,-0.0379 3.64726,-0.130682 4.52815,-0.381934 z" />
      <path
         id="path10999"
         style="fill:#666666;fill-opacity:1;stroke-width:0.232103"
         d="m 62.006378,44.012447 c -0.229787,-0.132302 -0.36708,-0.790561 -0.36708,-1.761132 0,-1.411887 -0.05246,-1.549787 -0.588441,-1.549787 -1.411853,0 -3.778904,-0.449082 -4.472862,-0.848648 -0.97638,-0.562096 -1.004552,-1.424785 -0.06258,-1.909926 1.111263,-0.572252 2.251266,-0.759121 6.314314,-1.035084 3.04677,-0.206903 6.456751,0.919995 6.456751,2.133772 0,0.389887 -0.211417,0.641769 -0.688266,0.820101 -0.915906,0.342528 -3.488987,0.81154 -4.805856,0.876018 -0.966072,0.04723 -1.080925,0.113468 -1.312473,0.756276 -0.139542,0.387448 -0.213788,1.061066 -0.164857,1.496959 0.08445,0.752987 0.138528,0.795249 1.082991,0.84768 0.546801,0.03032 0.994162,0.129468 0.994162,0.22015 0,0.240197 -1.954159,0.202203 -2.385966,-0.0463 z m 4.136667,-4.010566 c 1.214067,-0.426189 1.516297,-1.023445 0.87767,-1.734462 -0.615155,-0.684882 -1.322013,-0.813429 -4.238721,-0.770888 -4.237809,0.06169 -6.342911,0.509665 -6.342911,1.349462 0,0.995493 1.951729,1.48461 5.964956,1.494919 2.213252,0.007 2.946378,-0.06076 3.739006,-0.339031 z" />
      <path
         id="path10999-7"
         style="font-size:32px;line-height:1.25;fill:#666666;fill-opacity:1;stroke-width:0.232103"
         d="m 99.376148,33.168485 c -0.229787,-0.132302 -0.36708,-0.790561 -0.36708,-1.761132 0,-1.411887 -0.05246,-1.549787 -0.588441,-1.549787 -1.411853,0 -3.778904,-0.449082 -4.472862,-0.848648 -0.97638,-0.562096 -1.004552,-1.424785 -0.06258,-1.909926 1.111263,-0.572252 2.251266,-0.759121 6.314315,-1.035084 3.04677,-0.206903 6.45675,0.919995 6.45675,2.133772 0,0.389887 -0.21142,0.641769 -0.68827,0.820101 -0.9159,0.342528 -3.48898,0.81154 -4.80585,0.876018 -0.96607,0.04723 -1.08093,0.113468 -1.312475,0.756276 -0.139542,0.387448 -0.213788,1.061066 -0.164857,1.496959 0.08445,0.752987 0.138528,0.795249 1.082992,0.84768 0.5468,0.03032 0.99416,0.129468 0.99416,0.22015 0,0.240197 -1.954158,0.202203 -2.385965,-0.0463 z m 4.136672,-4.010566 c 1.21406,-0.426189 1.51629,-1.023445 0.87767,-1.734462 -0.61516,-0.684882 -1.32202,-0.813429 -4.23873,-0.770888 -4.237805,0.06169 -6.342907,0.509665 -6.342907,1.349462 0,0.995493 1.951729,1.48461 5.964956,1.494919 2.213251,0.007 2.946381,-0.06076 3.739011,-0.339031 z" />
      <path
         id="path10995"
         style="fill:#666666;fill-opacity:1;stroke-width:0.232103"
         d="m 85.017833,45.038345 c -1.758621,-0.07114 -1.797511,-0.107871 -1.99726,-1.892152 -0.07839,-0.699121 -0.08302,-0.701652 -1.913837,-0.980997 -2.356883,-0.359648 -4.320399,-0.947202 -4.765472,-1.425986 -0.468627,-0.504137 -0.15797,-1.713506 0.536351,-2.088187 1.069381,-0.57708 3.066902,-0.879773 5.805772,-0.879773 3.024488,0 4.353128,0.187871 6.066443,0.857791 1.619238,0.633104 2.218414,1.255339 1.826529,1.896828 -0.36176,0.592207 -2.395632,1.447351 -3.657613,1.537811 -0.504715,0.03615 -1.447519,0.125807 -2.095083,0.198996 -1.11118,0.125807 -1.167092,0.162891 -0.994161,0.660707 0.100861,0.29011 0.183285,0.790609 0.183285,1.112204 0,0.571146 0.03317,0.585979 1.429109,0.63841 0.798689,0.03009 1.484601,0.150787 1.554961,0.273818 0.06905,0.121072 0.01213,0.205492 -0.128804,0.187556 -0.140152,-0.01784 -0.972677,-0.06157 -1.84994,-0.09691 z m 1.773889,-3.385682 c 1.776037,-0.478611 2.374401,-1.987138 1.083106,-2.730574 -0.911789,-0.524942 -2.774649,-0.697011 -6.29501,-0.581455 -3.075043,0.100874 -4.314871,0.378763 -4.731042,1.060064 -0.632005,1.034595 0.693998,1.864922 3.780625,2.367404 1.603989,0.261129 5.001096,0.197492 6.162321,-0.115335 z" />
      <path
         id="path10991"
         style="fill:#666666;fill-opacity:1;stroke-width:0.232103"
         d="m 66.04157,51.747589 c -0.244146,-0.05936 -0.38235,-0.466784 -0.38235,-1.127014 v -1.033999 l -1.147111,-0.11067 c -2.063463,-0.19909 -4.054786,-0.633279 -4.996312,-1.089382 -0.757713,-0.367053 -0.907542,-0.559367 -0.831716,-1.067248 0.06258,-0.418072 0.341156,-0.723796 0.857234,-0.940321 1.807774,-0.75842 7.216997,-1.09716 10.684091,-0.669069 2.753187,0.339941 3.83952,1.644749 2.236299,2.686003 -0.751759,0.488276 -2.702759,0.95442 -4.59932,1.098897 l -1.620497,0.123498 0.09094,0.900799 0.09093,0.900777 2.676592,0.05096 c 1.472125,0.02787 2.676592,0.112769 2.676592,0.188535 0,0.154297 -5.13881,0.23348 -5.735535,0.0884 z m 3.836826,-2.949533 c 1.39152,-0.4158 1.768362,-1.047131 1.048622,-1.756621 -1.086575,-1.071142 -4.6219,-1.438405 -8.621478,-0.895691 -2.209443,0.299811 -3.070101,0.64606 -3.070101,1.235095 0,0.348476 1.500541,1.294803 2.088252,1.316972 0.113416,0.0035 0.894196,0.122553 1.735411,0.262727 1.947557,0.324652 5.470021,0.240722 6.819294,-0.162482 z" />
      <path
         id="path10987"
         style="fill:#666666;fill-opacity:1;stroke-width:0.232103"
         d="m 96.904748,52.406044 c -0.286354,-0.104372 -0.380912,-0.429734 -0.305882,-1.052156 0.115037,-0.953616 -0.05203,-1.080683 -1.418677,-1.080683 -1.125321,0 -4.060942,-0.711716 -4.879535,-1.18299 -1.53683,-0.884787 -0.982209,-1.973913 1.304783,-2.562142 1.734309,-0.446085 7.400478,-0.639192 9.438673,-0.321713 1.76907,0.275567 2.85184,1.048904 2.85184,2.036817 0,0.649687 -0.15716,0.84017 -1.07623,1.304785 -1.10944,0.560825 -1.50754,0.644066 -3.766857,0.787564 -0.728915,0.04629 -1.369827,0.11067 -1.424229,0.143008 -0.21589,0.128384 -0.409039,1.254698 -0.25498,1.485916 0.1199,0.180115 0.774238,0.245981 2.443472,0.245981 1.441804,0 2.210064,0.06484 2.090474,0.176104 -0.23025,0.214517 -4.42357,0.230867 -5.002896,0.01947 z m 2.249848,-2.488953 c 1.788164,-0.144535 2.279984,-0.260535 2.982464,-0.703739 0.99976,-0.630714 1.02491,-0.789803 0.24229,-1.528854 -0.79788,-0.753372 -2.30641,-0.975494 -6.797202,-1.000834 -3.186027,-0.01808 -3.665897,0.01994 -4.435482,0.350423 -2.208811,0.948555 -0.883095,2.184408 2.985607,2.783249 2.016883,0.312197 2.319038,0.318202 5.022384,0.09971 z" />
      <path
         id="path10987-4"
         style="font-size:32px;line-height:1.25;fill:#666666;fill-opacity:1;stroke-width:0.232103"
         d="m 75.445368,32.152778 c -0.28635,-0.104372 -0.38091,-0.429734 -0.30588,-1.052156 0.11504,-0.953616 -0.052,-1.080683 -1.41868,-1.080683 -1.12532,0 -4.06094,-0.711716 -4.879533,-1.18299 -1.53683,-0.884787 -0.982209,-1.973913 1.304783,-2.562142 1.734309,-0.446085 7.40048,-0.639192 9.43867,-0.321713 1.76907,0.275567 2.85184,1.048904 2.85184,2.036817 0,0.649687 -0.15716,0.84017 -1.07623,1.304785 -1.10944,0.560825 -1.50754,0.644066 -3.76685,0.787564 -0.72892,0.04629 -1.36983,0.11067 -1.42423,0.143008 -0.21589,0.128384 -0.40904,1.254698 -0.25498,1.485916 0.1199,0.180115 0.77423,0.245981 2.44347,0.245981 1.4418,0 2.21006,0.06484 2.09047,0.176104 -0.23025,0.214517 -4.42357,0.230867 -5.00289,0.01947 z m 2.24985,-2.488953 c 1.78816,-0.144535 2.27998,-0.260535 2.98246,-0.703739 0.99976,-0.630714 1.02491,-0.789803 0.24229,-1.528854 -0.79788,-0.753372 -2.30641,-0.975494 -6.7972,-1.000834 -3.186026,-0.01808 -3.665896,0.01994 -4.435481,0.350423 -2.208811,0.948555 -0.883095,2.184408 2.985611,2.783249 2.01688,0.312197 2.31903,0.318202 5.02238,0.09971 z" />
      <path
         id="path10983"
         style="fill:#666666;fill-opacity:1;stroke-width:0.232103"
         d="m 79.118431,58.03917 v -1.220109 l -1.758883,-0.122017 c -4.412063,-0.306028 -6.412763,-1.717786 -3.960489,-2.794643 1.412765,-0.62037 3.70091,-0.855225 7.525038,-0.772404 2.743586,0.05947 3.461144,0.136455 4.407021,0.472989 1.265954,0.450446 1.683338,1.063375 1.16779,1.714812 -0.436021,0.550958 -2.984803,1.244296 -5.145495,1.399724 l -1.62319,0.116862 v 1.036379 1.036378 H 81.5656 c 1.019624,0 1.835362,0.07825 1.835362,0.176104 0,0.100641 -0.917672,0.176128 -2.141258,0.176128 h -2.141273 z m 3.490144,-2.055942 c 3.058044,-0.854654 1.813443,-1.916607 -2.556659,-2.181514 -3.173855,-0.192385 -7.051369,0.50311 -7.051369,1.264797 0,1.134711 6.581244,1.762637 9.608028,0.916717 z" />
      <path
         id="path10983-1"
         style="font-size:32px;line-height:1.25;fill:#666666;fill-opacity:1;stroke-width:0.232103"
         d="M 57.474813,59.496554 V 58.276445 L 55.71593,58.154428 c -4.412063,-0.306028 -6.412763,-1.717786 -3.960489,-2.794643 1.412765,-0.62037 3.70091,-0.855225 7.525038,-0.772404 2.743586,0.05947 3.461144,0.136455 4.407021,0.472989 1.265954,0.450446 1.683338,1.063375 1.16779,1.714812 -0.436021,0.550958 -2.984803,1.244296 -5.145495,1.399724 l -1.62319,0.116862 v 1.036379 1.036378 h 1.835377 c 1.019624,0 1.835362,0.07825 1.835362,0.176104 0,0.100641 -0.917672,0.176128 -2.141258,0.176128 h -2.141273 z m 3.490144,-2.055942 c 3.058044,-0.854654 1.813443,-1.916607 -2.556659,-2.181514 -3.173855,-0.192385 -7.051369,0.50311 -7.051369,1.264797 0,1.134711 6.581244,1.762637 9.608028,0.916717 z" />
      <path
         id="path10983-6"
         style="font-size:32px;line-height:1.25;fill:#666666;fill-opacity:1;stroke-width:0.232103"
         d="m 100.09691,59.590507 v -1.220109 l -1.758883,-0.122017 c -4.412063,-0.306028 -6.412763,-1.717786 -3.960489,-2.794643 1.412765,-0.62037 3.70091,-0.855225 7.525042,-0.772404 2.74358,0.05947 3.46114,0.136455 4.40702,0.472989 1.26595,0.450446 1.68333,1.063375 1.16779,1.714812 -0.43602,0.550958 -2.98481,1.244296 -5.1455,1.399724 l -1.62319,0.116862 v 1.036379 1.036378 h 1.83538 c 1.01962,0 1.83536,0.07825 1.83536,0.176104 0,0.100641 -0.91767,0.176128 -2.14126,0.176128 h -2.14127 z m 3.49014,-2.055942 c 3.05805,-0.854654 1.81345,-1.916607 -2.55666,-2.181514 -3.17385,-0.192385 -7.051364,0.50311 -7.051364,1.264797 0,1.134711 6.581244,1.762637 9.608024,0.916717 z" />
    </g>
  </g>
</svg>
