<?xml version="1.0" encoding="UTF-8" standalone="no"?>
<svg
   version="1.1"
   width="100"
   height="100"
   id="svg4460"
   sodipodi:docname="pres.svg"
   inkscape:version="1.2.2 (732a01da63, 2022-12-09)"
   xmlns:inkscape="http://www.inkscape.org/namespaces/inkscape"
   xmlns:sodipodi="http://sodipodi.sourceforge.net/DTD/sodipodi-0.dtd"
   xmlns="http://www.w3.org/2000/svg"
   xmlns:svg="http://www.w3.org/2000/svg"
   xmlns:rdf="http://www.w3.org/1999/02/22-rdf-syntax-ns#"
   xmlns:cc="http://creativecommons.org/ns#"
   xmlns:dc="http://purl.org/dc/elements/1.1/">
  <sodipodi:namedview
     pagecolor="#ffffff"
     bordercolor="#666666"
     borderopacity="1"
     objecttolerance="10"
     gridtolerance="10"
     guidetolerance="10"
     inkscape:pageopacity="0"
     inkscape:pageshadow="2"
     inkscape:window-width="1920"
     inkscape:window-height="1009"
     id="namedview11"
     showgrid="true"
     inkscape:zoom="3.27"
     inkscape:cx="3.3639144"
     inkscape:cy="-37.003058"
     inkscape:window-x="-8"
     inkscape:window-y="-8"
     inkscape:window-maximized="1"
     inkscape:current-layer="text5282"
     inkscape:document-rotation="0"
     inkscape:pagecheckerboard="0"
     showguides="true"
     inkscape:guide-bbox="true"
     inkscape:showpageshadow="0"
     inkscape:deskcolor="#d1d1d1">
    <inkscape:grid
       type="xygrid"
       id="grid823"
       originx="0"
       originy="0" />
    <sodipodi:guide
       position="0,86"
       orientation="66,0"
       id="guide957"
       inkscape:locked="false" />
    <sodipodi:guide
       position="0,20"
       orientation="0,50"
       id="guide959"
       inkscape:locked="false" />
    <sodipodi:guide
       position="8.9999971,64.32985"
       orientation="8.5387222,0"
       id="guide1517"
       inkscape:locked="false" />
    <sodipodi:guide
       position="8.9999971,55.791128"
       orientation="0,26.227758"
       id="guide1519"
       inkscape:locked="false" />
    <sodipodi:guide
       position="95,90"
       orientation="-8.5387222,0"
       id="guide1521"
       inkscape:locked="false" />
    <sodipodi:guide
       position="70,70"
       orientation="0,-26.227758"
       id="guide1523"
       inkscape:locked="false" />
    <sodipodi:guide
       position="7.9247812,20.000001"
       orientation="0,-6.8495616"
       id="guide4054"
       inkscape:locked="false" />
    <sodipodi:guide
       position="85,75"
       orientation="0,6.8495616"
       id="guide4058"
       inkscape:locked="false" />
  </sodipodi:namedview>
  <defs
     id="defs4462" />
  <metadata
     id="metadata4465">
    <rdf:RDF>
      <cc:Work
         rdf:about="">
        <dc:format>image/svg+xml</dc:format>
        <dc:type
           rdf:resource="http://purl.org/dc/dcmitype/StillImage" />
      </cc:Work>
    </rdf:RDF>
  </metadata>
  <g
     aria-label="C"
     id="text3215"
     style="font-size:32px;line-height:1.25"
     transform="translate(-37.75,-4)">
    <g
       aria-label="A"
       id="text5282"
       transform="matrix(1.6290909,0,0,2.8292029,-41.002727,-68.776958)">
      <path
         style="fill:#666666;fill-opacity:1;stroke-width:0.251966"
         d="m 82.69363,37.571168 c 0,-0.450874 1.308682,-2.136526 1.550592,-1.997232 0.113447,0.06495 -0.05979,0.528949 -0.384048,1.030753 -0.661685,1.023676 -1.166544,1.441978 -1.166544,0.966479 z"
         id="path14628" />
      <path
         id="path14584"
         style="fill:#666666;fill-opacity:1;stroke-width:0.251966"
         d="m 49.261078,37.081034 c -0.446642,0 -0.535103,0.438998 -0.412423,2.028232 0.154671,2.000458 0.720542,1.758598 0.720542,-0.307893 0,-0.946363 -0.138828,-1.720339 -0.308119,-1.720339 z m 1.268442,0.34103 c -0.253115,0.0026 -0.297961,0.572223 -0.122289,1.651995 0.129651,0.796446 0.380727,1.447653 0.557491,1.447653 0.296523,0 0.04098,-2.843111 -0.27335,-3.042349 -0.06115,-0.03878 -0.114979,-0.05778 -0.161852,-0.0573 z m 2.078901,0.628214 c -0.08945,5.46e-4 -0.22695,0.02755 -0.360871,0.07525 -0.398931,0.141965 -0.489847,2.63715 -0.104305,2.861479 0.225707,0.131332 0.77352,-2.762912 0.552696,-2.920158 -0.01616,-0.01147 -0.04686,-0.01682 -0.08752,-0.01657 z m 1.528603,0.218839 c -0.258533,-0.0077 -0.540054,0.752227 -0.559888,1.632665 -0.01297,0.552039 0.112913,1.003761 0.279345,1.003761 0.318556,0 0.674499,-2.261337 0.40403,-2.568082 -0.03984,-0.04521 -0.08118,-0.06709 -0.123487,-0.06834 z m 1.21569,0.406613 c -0.320902,0.0088 -0.514674,0.379846 -0.697763,1.269544 -0.135322,0.657695 -0.07798,0.960269 0.181035,0.960269 0.212339,0 0.378854,-0.298781 0.378854,-0.68137 0,-0.37493 0.148956,-0.843353 0.332096,-1.040349 0.203803,-0.219101 0.213716,-0.400584 0.02398,-0.468054 -0.0786,-0.02797 -0.151598,-0.04187 -0.2182,-0.04004 z m 2.910941,0.509474 c -0.149482,0 -0.524911,0.279549 -0.833239,0.621311 l -0.559889,0.62131 0.194223,-0.62131 c 0.271876,-0.867723 -0.335595,-0.779011 -0.802067,0.117358 -0.211613,0.406515 -0.38365,0.79415 -0.38365,0.86086 0,0.06671 0.149615,0.12081 0.332097,0.12081 0.182592,0 0.334692,-0.107439 0.336892,-0.238859 0.0035,-0.161927 0.104809,-0.148342 0.314113,0.04211 0.357555,0.325493 0.350164,0.32978 1.101794,-0.622001 0.650096,-0.823289 0.67643,-0.90159 0.299726,-0.901589 z m 1.310403,0.382451 c -0.234277,0.0083 -0.53243,0.282752 -1.304409,1.194987 -0.06695,0.07877 0.0084,0.142901 0.166648,0.142901 0.275812,0 1.426697,-0.987395 1.426697,-1.223981 0,-0.06267 -0.124905,-0.113907 -0.278146,-0.113907 -0.0037,0 -0.0071,-1.32e-4 -0.01079,0 z m 1.174927,0.06973 c -0.09713,0.0029 -0.271186,0.104636 -0.553894,0.312726 -0.357136,0.262866 -0.647211,0.606472 -0.645011,0.764212 0.0026,0.20006 0.201431,0.150505 0.657,-0.164302 0.359115,-0.248231 0.64721,-0.592527 0.64501,-0.764902 -0.0024,-0.09958 -0.03223,-0.14984 -0.103105,-0.147734 z m 1.704842,0.176728 c -0.254779,0.0041 -1.247553,0.786245 -1.255253,1.043801 -0.0041,0.131421 0.104988,0.238226 0.242179,0.237479 0.28089,-0.0017 1.085011,-0.923526 1.071821,-1.231575 -0.0013,-0.03496 -0.02235,-0.05029 -0.05875,-0.04971 z m -1.801954,1.295777 c -0.118967,0.0022 -0.304736,0.03948 -0.594657,0.103552 -0.289135,0.06383 -0.526319,0.192683 -0.526319,0.286493 0,0.094 0.298901,0.171205 0.664194,0.171205 0.368965,0 0.664193,-0.127962 0.664193,-0.287183 0,-0.196125 -0.02182,-0.277509 -0.207411,-0.274067 z m 4.469518,0.03521 c -0.09817,0.0027 -0.195049,0.01817 -0.281743,0.04901 -0.185784,0.06605 -0.252558,0.200499 -0.147465,0.298229 l 0.0012,-6.9e-4 c 0.249275,0.232842 1.147352,0.231242 1.147352,-0.0014 0,-0.201683 -0.368735,-0.354958 -0.719343,-0.345172 z m -7.42242,0.143591 c -0.540349,0.0083 -0.898549,0.275835 -0.593458,0.451486 0.396843,0.228495 1.096998,0.122977 1.096998,-0.164993 0,-0.1577 -0.215041,-0.286493 -0.478363,-0.286493 -0.0087,0 -0.0166,-1.31e-4 -0.02518,0 z m -2.246748,0.02002 c -0.391418,0.0072 -0.901577,0.175253 -0.901577,0.356218 0,0.242491 0.343902,0.247847 0.986699,0.01381 0.267603,-0.09782 0.386339,-0.236614 0.26256,-0.307894 -0.08072,-0.04647 -0.206106,-0.06475 -0.347682,-0.06213 z m 7.607051,0.0014 c -0.429276,0.0066 -1.020627,0.13519 -1.122175,0.312726 -0.07495,0.13137 0.01272,0.23955 0.195422,0.23955 0.616283,0 1.383536,-0.230865 1.383536,-0.416278 0,-0.09969 -0.199217,-0.139971 -0.456783,-0.135998 z m -13.20234,6.9e-4 c -0.223963,0.0096 -0.338953,0.15781 -0.13188,0.350696 0.122174,0.113929 0.373669,0.152503 0.559889,0.08629 0.226738,-0.08067 0.221915,-0.187018 -0.01678,-0.324462 -0.146489,-0.08436 -0.29391,-0.117552 -0.411224,-0.112527 z m 2.334268,0.02554 c -0.105362,9.92e-4 -0.210437,0.01666 -0.303323,0.0497 -0.185252,0.06594 -0.250389,0.200541 -0.146267,0.298229 0.250034,0.232349 1.148551,0.230388 1.148551,-0.0021 0,-0.19765 -0.354779,-0.349103 -0.698961,-0.345863 z m 12.659236,0.954747 c -0.216775,5.26e-4 -0.481159,0.106427 -0.593458,0.3003 -0.07231,0.124863 0.10404,0.226433 0.393241,0.226433 0.289113,0 0.526319,-0.135896 0.526319,-0.302371 0,-0.152971 -0.146488,-0.224798 -0.326102,-0.224362 z m -8.490644,0.115978 c -0.169195,0.0055 -0.353737,0.0962 -0.417219,0.205722 -0.06547,0.113098 0.129589,0.205723 0.434004,0.205723 0.304502,0 0.499523,-0.09267 0.434003,-0.205723 -0.06539,-0.113122 -0.260316,-0.205722 -0.434003,-0.205722 -0.0054,0 -0.01133,-1.79e-4 -0.01678,0 z m -2.972085,0.02899 c -0.456602,0 -0.829642,0.08615 -0.829642,0.191226 0,0.105215 0.37304,0.191225 0.829642,0.191225 0.456599,0 0.830841,-0.08615 0.830841,-0.191225 0,-0.105214 -0.374242,-0.191226 -0.830841,-0.191226 z m 5.645643,0 c -0.273965,0 -0.498745,0.128766 -0.498745,0.286493 0,0.157715 0.224802,0.287184 0.498745,0.287184 0.27392,0 0.497545,-0.129445 0.497545,-0.287184 0,-0.157689 -0.223625,-0.286493 -0.497545,-0.286493 z m 2.964891,0 c -0.498805,0.0069 -0.629112,0.229412 -0.252968,0.445963 0.382091,0.220064 0.774492,0.13907 0.774492,-0.15947 0,-0.157716 -0.223603,-0.286493 -0.497545,-0.286493 -0.0081,0 -0.01606,-1.09e-4 -0.02398,0 z m -11.426762,0.02692 c -0.09236,8.66e-4 -0.201645,0.02024 -0.321306,0.06282 -0.197873,0.07035 -0.266048,0.215418 -0.151062,0.322391 0.140159,0.130418 0.326247,0.127643 0.564684,-0.0097 0.326321,-0.187814 0.209406,-0.378377 -0.09232,-0.375547 z m 0.02997,0.929203 c -0.36639,0 -0.724168,0.496353 -0.465175,0.645473 0.10419,0.06026 0.318767,0.06342 0.475965,0.0076 0.376993,-0.134218 0.368639,-0.653066 -0.01079,-0.653066 z m 1.457868,0.190536 c -0.603039,0 -0.660929,0.312985 -0.08272,0.447343 0.22819,0.05317 0.453014,0.102245 0.498744,0.111145 0.04553,0.0083 0.08273,-0.113565 0.08273,-0.271305 0,-0.157714 -0.224802,-0.287183 -0.498745,-0.287183 z m 4.921505,0.0214 c -0.03739,8.75e-4 -0.08041,0.0055 -0.127084,0.0145 -0.239733,0.04598 -0.50045,0.196776 -0.58027,0.334817 -0.08302,0.143498 0.04121,0.214783 0.290135,0.167063 0.23971,-0.04601 0.501659,-0.196085 0.581469,-0.334127 0.06745,-0.116571 -0.0022,-0.186043 -0.16425,-0.182251 z m 1.660483,0 c -0.03739,8.75e-4 -0.08041,0.0055 -0.127084,0.0145 -0.239712,0.04598 -0.501659,0.196776 -0.581469,0.334817 -0.08304,0.143498 0.04241,0.214783 0.291334,0.167063 0.239733,-0.04601 0.50046,-0.196085 0.58027,-0.334127 0.06745,-0.116571 -10e-4,-0.186043 -0.163051,-0.182251 z m -4.126631,0.01312 c -0.169791,0.0012 -0.296129,0.0963 -0.296129,0.236788 0,0.166424 0.235985,0.302371 0.52512,0.302371 0.586603,0 0.485033,-0.411253 -0.13068,-0.529494 -0.0339,-0.0065 -0.06687,-0.0099 -0.09831,-0.0097 z m 6.540026,6.9e-4 c -0.305955,0.0067 -0.666776,0.110616 -0.769697,0.288564 -0.07678,0.132721 0.154809,0.215349 0.553894,0.198129 0.376991,-0.01636 0.684575,-0.146904 0.684575,-0.289945 0,-0.141096 -0.215266,-0.202262 -0.468772,-0.196748 z m 2.439772,0.174657 c -0.04833,0.0012 -0.102693,0.0051 -0.161852,0.01174 -0.325455,0.03632 -0.658914,0.182199 -0.740924,0.323772 -0.09518,0.164619 0.06502,0.232685 0.443595,0.190535 0.325521,-0.03635 0.658913,-0.181506 0.740923,-0.323081 0.0803,-0.138887 -0.02076,-0.209603 -0.281742,-0.202962 z m 2.526092,0.173277 c -0.267736,0.0052 -0.567906,0.08943 -0.677381,0.191225 -0.112897,0.105227 0.01859,0.191226 0.292533,0.191226 0.273987,0 0.589771,-0.08615 0.702558,-0.191226 0.112875,-0.105226 -0.01859,-0.191225 -0.292533,-0.191225 -0.0086,0 -0.01654,-1.66e-4 -0.02518,0 z" />
      <path
         id="path14552"
         style="fill:#666666;fill-opacity:1;stroke-width:0.251966"
         d="m 88.903759,39.845379 c -0.466912,-0.268841 -0.213042,-0.452684 0.624968,-0.452684 0.538628,0 0.806435,0.08899 0.719687,0.238963 -0.159841,0.2764 -1.003018,0.410415 -1.344655,0.213721 z m -9.30043,-0.192445 c -0.346211,-0.199339 0.09212,-0.451292 0.785376,-0.451292 0.354521,0 0.644579,0.129066 0.644579,0.286768 0,0.283577 -1.019416,0.400881 -1.429955,0.164524 z m 2.952537,-0.02088 c -0.09673,-0.0557 -0.09673,-0.175502 0,-0.265968 0.232589,-0.21662 1.465661,-0.212948 1.465661,0.0038 0,0.196428 -1.205612,0.411555 -1.466034,0.261613 z m 3.29765,-0.04317 c -0.268468,-0.249978 0.495934,-0.46194 0.8762,-0.243016 0.212602,0.122293 0.148623,0.226445 -0.184241,0.300011 -0.280253,0.06191 -0.591704,0.03633 -0.691849,-0.05684 z m 6.470176,0.01481 c 0,-0.211024 0.861606,-0.416594 1.120724,-0.267386 0.104431,0.06001 0.109928,0.18311 0.01535,0.273589 -0.233085,0.217164 -1.133585,0.212227 -1.133585,-0.0064 z m -26.89775,-0.3076 c 0,-0.175249 0.160497,-0.287806 0.356962,-0.250143 0.196333,0.03785 0.356983,0.150296 0.356983,0.250143 0,0.100011 -0.160497,0.212454 -0.356983,0.250131 -0.196334,0.03772 -0.356962,-0.07482 -0.356962,-0.250131 z m 2.988617,-0.01139 c 0,-0.163881 0.149504,-0.24489 0.332096,-0.179921 0.182482,0.0652 0.332052,0.199124 0.332052,0.298086 0,0.09887 -0.149285,0.179894 -0.332052,0.179894 -0.182482,0 -0.332096,-0.134079 -0.332096,-0.298059 z m 2.732681,0.07101 c 0.205347,-0.354497 0.920105,-0.413275 0.920105,-0.07571 0,0.166499 -0.236677,0.302718 -0.525768,0.302718 -0.289201,0 -0.466605,-0.102163 -0.394337,-0.227039 z m 2.580472,0.03253 c 0,-0.2794 0.949084,-0.355206 1.310223,-0.104822 0.283418,0.196579 0.180063,0.251522 -0.473861,0.251522 -0.460009,0 -0.836362,-0.06596 -0.836362,-0.146864 z m 2.988618,0.0026 c 0,-0.105076 0.298875,-0.191199 0.664168,-0.191199 0.365251,0 0.664126,0.08596 0.664126,0.191199 0,0.105076 -0.298875,0.191174 -0.664126,0.191174 -0.365293,0 -0.664168,-0.08596 -0.664168,-0.191174 z m -5.553612,-0.827238 c 0.158958,-0.274969 1.236701,-0.418466 1.236701,-0.164677 0,0.100518 -0.307406,0.229191 -0.683099,0.285742 -0.434528,0.06546 -0.635983,0.02127 -0.553602,-0.121027 z m 14.279224,-1.9e-4 c 0.07102,-0.123052 0.395678,-0.253383 0.721156,-0.289705 0.361095,-0.04026 0.537552,0.02785 0.452622,0.174489 -0.07652,0.132307 -0.401131,0.262652 -0.7212,0.289705 -0.323126,0.02735 -0.524405,-0.05027 -0.452578,-0.174489 z m 3.212586,-0.02114 c 0.218539,-0.151448 0.610216,-0.228305 0.870835,-0.170729 0.779967,0.172324 0.536258,0.446153 -0.396974,0.446153 -0.720476,0 -0.802328,-0.04748 -0.473861,-0.275424 z m 2.423737,0.03646 c 0.209309,-0.361764 1.245427,-0.413188 1.245427,-0.06178 0,0.177336 -0.284012,0.300794 -0.691807,0.300794 -0.405786,0 -0.634683,-0.09875 -0.55362,-0.23899 z m 2.953308,0.06557 c -0.33401,-0.119507 -0.349798,-0.197011 -0.06093,-0.299794 0.45568,-0.162209 0.797735,-0.01848 0.629062,0.263955 -0.06899,0.115709 -0.303496,0.130394 -0.568156,0.03583 z M 64.761796,38.455719 c 0,-0.214898 0.863755,-0.415365 1.129761,-0.262195 0.399747,0.230141 0.181823,0.432912 -0.465615,0.432912 -0.365294,0 -0.664146,-0.07671 -0.664146,-0.170717 z m 3.071657,-0.06823 c 0.07607,-0.131433 0.337592,-0.238976 0.581106,-0.238976 0.243559,0 0.505014,0.107606 0.581129,0.238976 0.08223,0.142156 -0.153241,0.238977 -0.581129,0.238977 -0.427996,0 -0.663444,-0.09685 -0.581106,-0.238977 z m 5.894259,0.04772 c 0,-0.105076 0.298854,-0.1912 0.664147,-0.1912 0.365294,0 0.664147,0.08596 0.664147,0.1912 0,0.105075 -0.298853,0.191161 -0.664147,0.191161 -0.365293,0 -0.664147,-0.08596 -0.664147,-0.191161 z m 2.656566,0 c 0,-0.105076 0.298876,-0.1912 0.664125,-0.1912 0.365294,0 0.664169,0.08596 0.664169,0.1912 0,0.105075 -0.298875,0.191161 -0.664169,0.191161 -0.365249,0 -0.664125,-0.08596 -0.664125,-0.191161 z m 2.988639,-0.09571 c 0,-0.196909 0.21744,-0.290679 0.581129,-0.250382 0.699917,0.07761 0.655814,0.416908 -0.06553,0.503374 -0.300833,0.03621 -0.515612,-0.06938 -0.515612,-0.252992 z m 3.120553,3.9e-5 c 0.346519,-0.150941 0.759918,-0.228356 0.918611,-0.171881 0.479092,0.170475 -0.04441,0.459041 -0.821059,0.452545 -0.703656,-0.0076 -0.706843,-0.01481 -0.09762,-0.280664 z m 7.254611,-0.605957 c -0.598872,-0.13775 -0.163139,-0.445685 0.630465,-0.445685 0.37129,0 0.613359,0.10153 0.54076,0.227014 -0.155662,0.269246 -0.59507,0.351243 -1.171225,0.218671 z m 2.575611,-0.158905 c 0,-0.159386 0.295185,-0.286768 0.664125,-0.286768 0.368969,0 0.664144,0.127459 0.664144,0.286768 0,0.159398 -0.295175,0.28678 -0.664144,0.28678 -0.36894,0 -0.664125,-0.127457 -0.664125,-0.28678 z m -26.89775,-0.0957 c 0,-0.105075 0.224167,-0.191162 0.498089,-0.191162 0.273943,0 0.498132,0.08596 0.498132,0.191162 0,0.105076 -0.224168,0.1912 -0.498132,0.1912 -0.273944,0 -0.498089,-0.08596 -0.498089,-0.1912 z m 2.554904,0.06874 c -0.309912,-0.178425 0.06464,-0.451306 0.619339,-0.451306 0.263302,0 0.478522,0.129078 0.478522,0.286781 0,0.28797 -0.700996,0.39302 -1.097861,0.164525 z m 3.665163,0.0076 c -0.130375,-0.07494 -0.08289,-0.243256 0.104873,-0.373714 0.244592,-0.169729 0.102234,-0.44076 -0.50099,-0.952402 -0.463659,-0.393337 -0.842958,-0.84939 -0.842958,-1.013473 0,-0.402553 0.414257,-0.131724 1.449699,0.947541 0.699214,0.728869 0.775242,0.938894 0.436572,1.205571 -0.225683,0.177615 -0.516842,0.26155 -0.647239,0.186477 z m 3.486068,-0.111912 c 0.205348,-0.354471 0.920128,-0.413276 0.920128,-0.07571 0,0.1665 -0.236656,0.302705 -0.525769,0.302705 -0.289178,0 -0.466647,-0.102163 -0.394359,-0.227025 z m 3.244642,0.03583 c 0,-0.105075 0.448268,-0.191187 0.996198,-0.191187 0.547908,0 0.996242,0.08596 0.996242,0.191187 0,0.105076 -0.448334,0.191188 -0.996242,0.191188 -0.54793,0 -0.996198,-0.08596 -0.996198,-0.191188 z m 4.648984,0.126091 c 0,-0.262537 2.111385,-2.420281 2.368266,-2.420281 0.164674,0 -0.07762,0.428441 -0.538476,0.952072 -0.460933,0.523643 -0.799711,1.056237 -0.752772,1.183543 0.0466,0.127306 -0.176106,0.264385 -0.49589,0.304617 -0.319628,0.04026 -0.581128,0.03128 -0.581128,-0.01987 z m 4.396389,-0.651848 c 0.642249,-0.638467 1.797317,-1.386086 2.14148,-1.386086 0.243557,0 -0.528272,0.702487 -1.040563,0.947263 -0.284012,0.135686 -0.516227,0.451217 -0.516227,0.70122 0,0.324494 -0.186878,0.454534 -0.652978,0.454534 -0.637082,0 -0.635411,-0.01734 0.06837,-0.716931 z m -17.427171,-0.2867 c -0.657245,-0.578852 -1.028232,-1.290492 -0.6727,-1.290492 0.158517,0 0.614986,0.387146 1.01427,0.860328 0.751827,0.890927 0.51715,1.186442 -0.34157,0.430164 z m 14.691149,0.283308 c 0,-0.221773 1.698798,-1.615428 1.857646,-1.523962 0.194355,0.111784 -1.304901,1.66727 -1.608613,1.669194 -0.137191,9.47e-4 -0.248923,-0.06456 -0.248923,-0.145093 z M 68.598382,36.650067 c -0.33403,-0.140549 -0.546412,-0.360789 -0.47199,-0.489323 0.08662,-0.149296 0.423842,-0.05671 0.933758,0.25565 0.845793,0.518314 0.559076,0.663431 -0.461768,0.233673 z m 4.185546,-0.453673 c -0.394139,-0.442698 -0.709613,-0.958897 -0.701105,-1.147108 0.0067,-0.188187 0.390732,0.07304 0.849422,0.580522 0.458667,0.50749 0.774141,1.023677 0.701061,1.147096 -0.07299,0.123432 -0.455283,-0.137902 -0.849378,-0.58051 z m 7.170118,0.555773 c -0.319608,-0.03596 -0.581129,-0.145384 -0.581129,-0.242839 0,-0.09748 -0.186879,-0.155587 -0.415092,-0.129369 -0.294653,0.03393 -0.443365,-0.354332 -0.512643,-1.33827 -0.05628,-0.797561 0.03804,-1.386072 0.221353,-1.386072 0.175447,0 0.394294,0.107608 0.486436,0.238964 0.100035,0.14289 0.177865,0.10419 0.193694,-0.0957 0.04859,-0.61949 0.593265,-0.341167 0.935366,0.47794 0.189297,0.452749 0.357048,0.627048 0.379232,0.393666 0.02308,-0.230393 0.189517,-0.472054 0.371956,-0.537036 0.410848,-0.146132 0.395744,0.07735 -0.103333,1.533317 -0.319037,0.930577 -0.505828,1.138398 -0.975708,1.085291 z m 1.52157,-0.362043 c 0.241273,-0.743783 1.170877,-2.060644 1.372816,-1.94439 0.2148,0.123685 -0.837,2.140666 -1.232723,2.364389 -0.228761,0.129369 -0.274228,-0.0076 -0.139829,-0.419999 z m 4.870778,0.361548 c 0,-0.08469 0.373582,-0.445569 0.830206,-0.801889 0.968056,-0.755431 1.054394,-0.666015 0.270468,0.280286 -0.512136,0.618336 -1.100762,0.897242 -1.100762,0.521603 z m 2.668525,0.03178 c -0.01539,-0.286058 1.206913,-1.150412 1.439126,-1.017409 0.09872,0.05659 -0.181826,0.357788 -0.623671,0.669115 -0.441938,0.311365 -0.808903,0.46808 -0.815455,0.348294 z M 73.592874,35.82092 c -0.61956,-1.046919 -0.716231,-1.700122 -0.171929,-1.162225 0.546258,0.539861 1.261391,2.056594 0.969684,2.056594 -0.147526,0 -0.506554,-0.402465 -0.797689,-0.894369 z m 1.919997,0.587181 c -0.12246,-0.199086 -0.424919,-0.652076 -0.671929,-1.006649 -0.516865,-0.74201 -0.560067,-0.980367 -0.177646,-0.980367 0.336317,0 1.51115,2.096372 1.25684,2.24278 -0.101354,0.05836 -0.284584,-0.05671 -0.407265,-0.255764 z m 0.74688,-0.290261 c -0.309934,-0.892218 -0.255299,-2.185469 0.08354,-1.973963 0.37598,0.234785 0.724301,2.571412 0.383367,2.571412 -0.142688,0 -0.352476,-0.268854 -0.466627,-0.597449 z m 0.94596,-0.626503 c -0.207546,-1.115421 -0.04529,-2.025237 0.323741,-1.812946 0.21634,0.124319 0.307252,2.837963 0.09938,2.957585 -0.104432,0.06014 -0.294984,-0.454939 -0.423249,-1.144639 z" />
      <path
         id="path14520"
         style="fill:#666666;fill-opacity:1;stroke-width:0.251966"
         d="m 99.171487,44.352434 c -0.437559,0 -0.325047,3.115787 0.118692,3.28535 0.188221,0.07278 0.437053,0.09693 0.552695,0.05592 0.372866,-0.132888 0.376746,-2.38514 0.0036,-2.38514 -0.192289,0 -0.348882,-0.214855 -0.348882,-0.477719 0,-0.26288 -0.146701,-0.478409 -0.326102,-0.478409 z m -1.132965,0.02209 c -0.167943,0 -0.308616,0.667268 -0.310516,1.48217 -0.0035,1.027232 -0.103902,1.393781 -0.327301,1.194987 -0.176833,-0.15774 -0.325401,-0.669762 -0.327301,-1.137688 -0.0035,-0.583031 -0.112111,-0.789399 -0.346484,-0.654447 -0.209085,0.120229 -0.255101,0.618507 -0.11989,1.28128 0.180547,0.884431 0.334768,1.083841 0.839233,1.083841 0.468556,0 0.62819,-0.15061 0.657,-0.62131 0.02089,-0.341748 0.08345,-1.073033 0.139073,-1.625072 0.05583,-0.552037 -0.03606,-1.003761 -0.203814,-1.003761 z m -2.390616,0.764902 c -0.334778,0 -0.08074,1.978306 0.299726,2.332675 0.379713,0.35371 0.454758,0.0024 0.244577,-1.154257 -0.117688,-0.648225 -0.362478,-1.178418 -0.544303,-1.178418 z m -1.314,0.131166 c -0.01539,6.15e-4 -0.0292,0.0067 -0.04196,0.01864 -0.244958,0.228192 0.248177,2.182965 0.643812,2.551514 h 0.0012 c 0.418839,0.39079 0.422888,0.02753 0.01678,-1.359979 -0.208149,-0.711295 -0.471026,-1.216124 -0.619834,-1.210174 z m 6.758224,0.243001 c -0.0908,-8.6e-4 -0.24574,0.07998 -0.38365,0.205723 -0.37069,0.337417 -0.42105,1.782591 -0.0695,1.987502 0.24784,0.144484 0.74625,-2.007063 0.50474,-2.178728 -0.0131,-0.0093 -0.0307,-0.0143 -0.0516,-0.0145 z m 1.81754,0.04763 c -0.0178,-6.52e-4 -0.0386,0.0055 -0.0623,0.01864 -0.28194,0.155777 -1.08928,1.74709 -1.11498,2.200128 -0.0271,0.463344 0.59661,0.03768 0.79008,-0.539159 0.10538,-0.31425 0.28308,-0.850488 0.39564,-1.192225 0.0952,-0.288414 0.0874,-0.483865 -0.008,-0.487383 z m -9.775868,0.142901 c -0.261518,0.02145 0.280777,1.977311 0.643812,2.229123 0.211365,0.146511 0.420726,0.266473 0.465175,0.266473 0.148146,0 -0.874452,-2.38524 -1.064627,-2.48386 -0.01687,-0.0087 -0.0315,-0.01279 -0.04436,-0.01174 z m -1.197705,0.275448 c -0.289283,0.0026 0.103023,1.620358 0.543103,2.093815 0.179401,0.1931 0.375213,0.321813 0.435203,0.286493 0.205261,-0.120812 -0.585222,-2.16674 -0.911168,-2.358217 -0.02553,-0.015 -0.04785,-0.02226 -0.06714,-0.02209 z m 11.987853,0.343791 c -0.0439,0.0019 -0.10151,0.02473 -0.17384,0.06972 -0.50704,0.315442 -1.09352,1.598713 -0.83924,1.835626 0.14673,0.136736 0.41828,-0.109523 0.68218,-0.617858 0.42644,-0.820996 0.5425,-1.296862 0.3309,-1.287493 z m -13.32703,0.02692 c -0.296074,0.0056 -0.166862,0.526538 0.333295,1.215697 0.276336,0.38079 0.584858,0.644902 0.685774,0.586792 0.254994,-0.146826 -0.470211,-1.632119 -0.865609,-1.772805 -0.05977,-0.02127 -0.111163,-0.03048 -0.15346,-0.02968 z m -1.372746,0.411445 c -0.152576,0.01154 -0.05534,0.285548 0.395638,0.767663 0.344847,0.36865 0.74125,0.670325 0.882394,0.670325 0.404477,0 0.308987,-0.193235 -0.444793,-0.895377 -0.409171,-0.381178 -0.706818,-0.552171 -0.833239,-0.542611 z m 17.059216,0.09803 c -0.12615,0.01077 -0.43798,0.230323 -0.7625,0.591625 -0.29601,0.330506 -0.42609,0.730291 -0.29373,0.907803 0.18458,0.247473 0.29036,0.191161 0.48076,-0.256117 0.13445,-0.315468 0.35351,-0.724473 0.48675,-0.908494 0.17385,-0.239722 0.18079,-0.342676 0.0887,-0.334817 z m -18.750871,0.117359 c -0.194417,0.0086 -0.01639,0.271406 0.594657,0.718648 0.671335,0.491361 1.304408,0.660685 1.304408,0.348624 0,-0.08548 -0.448362,-0.402604 -0.99629,-0.704842 -0.46218,-0.254932 -0.769753,-0.368307 -0.902775,-0.36243 z m -1.17133,0.265782 c -0.185127,0 -0.149011,0.127293 0.08152,0.287184 0.227378,0.1577 0.563237,0.286493 0.745719,0.286493 0.185128,0 0.149022,-0.126438 -0.08152,-0.286493 -0.227345,-0.157694 -0.563237,-0.287184 -0.745719,-0.287184 z m 21.286551,0.01381 c -0.21219,8.62e-4 -1.28162,0.779435 -1.28162,0.964412 0,0.09354 0.12609,0.169824 0.27934,0.169824 0.2722,0 1.06145,-0.840922 1.03825,-1.108003 -0.001,-0.01808 -0.014,-0.02632 -0.036,-0.02623 z m 1.52741,0.492906 c -0.13634,0.0067 -0.36309,0.127971 -0.58986,0.327224 -0.3153,0.277246 -0.439,0.503951 -0.27455,0.503951 0.4589,0 1.12386,-0.532862 0.97831,-0.784231 -0.02,-0.03461 -0.0605,-0.04958 -0.1139,-0.04694 z m -22.210912,0.64064 c -0.662407,0.0069 -0.878133,0.230379 -0.480761,0.506023 0.201743,0.139495 0.498784,0.207404 0.660597,0.149804 0.457744,-0.162904 0.346037,-0.655827 -0.148664,-0.655827 -0.01074,0 -0.02066,-1.1e-4 -0.03117,0 z m -2.770669,0.02623 c -0.247082,0.0034 -0.407628,0.09624 -0.407628,0.246453 0,0.17735 0.283889,0.30099 0.691768,0.30099 0.809208,0 0.69521,-0.446799 -0.137874,-0.539849 -0.0512,-0.0057 -0.10051,-0.0082 -0.146266,-0.0076 z m -1.895469,0.0083 c -0.298265,0.0032 -0.642549,0.108502 -0.754111,0.3003 -0.08001,0.139871 0.148728,0.238859 0.553894,0.238859 0.407814,0 0.691768,-0.12364 0.691768,-0.30099 0,-0.164656 -0.2281,-0.240966 -0.491551,-0.238169 z m 10.476031,0.186393 c -0.386678,0.003 -0.825765,0.109806 -0.937544,0.305133 -0.08568,0.149735 0.183901,0.238859 0.721741,0.238859 0.558017,0 0.857217,-0.105087 0.857217,-0.3003 0,-0.168562 -0.300228,-0.246349 -0.641414,-0.243692 z m -2.837808,0.0048 c -0.298576,0.0031 -0.642919,0.10812 -0.754111,0.3003 -0.08106,0.140227 0.146883,0.238859 0.552695,0.238859 0.407792,0 0.691768,-0.123654 0.691768,-0.30099 0,-0.164716 -0.226902,-0.240947 -0.490352,-0.238169 z m 10.148727,0.02002 c -0.167486,0.0012 -0.40582,0.04754 -0.70855,0.14083 -0.586309,0.180679 -0.642654,0.261546 -0.276947,0.394877 0.664479,0.242344 0.952557,0.212438 1.174927,-0.121501 0.18319,-0.274858 0.10915,-0.41628 -0.18943,-0.414206 z m 6.10363,0.03176 c -0.35283,0.0079 -0.81766,0.157671 -0.81766,0.315487 0,0.0939 0.29773,0.171205 0.663,0.171205 0.64747,0 0.86612,-0.20268 0.46637,-0.432846 -0.0707,-0.04068 -0.1841,-0.05671 -0.31171,-0.05385 z m -3.14593,0.01726 c -0.0842,0.0013 -0.18831,0.01127 -0.31052,0.02969 -0.37569,0.05656 -0.68217,0.184467 -0.68217,0.285112 v 6.91e-4 c 0,0.253762 1.07711,0.109989 1.23607,-0.164993 0.0592,-0.102366 -0.0282,-0.153862 -0.24338,-0.150495 z m -7.135881,0.08698 c -0.806234,0 -1.060496,0.18602 -0.609043,0.445962 0.417734,0.240433 1.438686,0.127285 1.438686,-0.159469 0,-0.178399 -0.313067,-0.286493 -0.829643,-0.286493 z m 13.020111,0.209864 c -0.0743,7.25e-4 -0.15878,0.005 -0.25537,0.01312 -0.41697,0.03513 -0.82487,0.178695 -0.90517,0.318939 -0.0992,0.173208 0.0975,0.234526 0.61264,0.191226 0.41698,-0.03514 0.82347,-0.178557 0.90397,-0.31894 0.0806,-0.14073 -0.034,-0.207484 -0.35607,-0.204342 z m -26.909423,0.65997 c -0.178762,0.0031 -0.383704,0.06224 -0.55869,0.183631 -0.341463,0.236946 -0.292804,0.285113 0.293732,0.285113 0.387631,0 0.704956,-0.08131 0.704956,-0.18018 0,-0.191521 -0.195029,-0.292795 -0.439998,-0.288564 z m 1.57656,0.08629 c -0.262243,0.0052 -0.472369,0.08943 -0.472369,0.191225 0,0.105228 0.223603,0.191226 0.497546,0.191226 0.273942,0 0.498744,-0.08615 0.498744,-0.191226 0,-0.105226 -0.224802,-0.191225 -0.498744,-0.191225 -0.0086,0 -0.01672,-1.66e-4 -0.02518,0 z m 3.165108,0 c -0.359927,0.0052 -0.648607,0.08943 -0.648607,0.191225 0,0.105228 0.215061,0.191226 0.478363,0.191226 0.263169,0 0.570589,-0.08615 0.683376,-0.191226 0.112897,-0.105226 -0.102319,-0.191225 -0.478363,-0.191225 -0.01175,0 -0.02316,-1.66e-4 -0.03477,0 z m 3.159115,6.9e-4 c -0.621964,0.0099 -0.921449,0.327143 -0.406429,0.446653 0.72509,0.168298 0.914764,0.134646 0.914764,-0.16016 0,-0.157702 -0.215061,-0.286493 -0.478363,-0.286493 -0.01003,0 -0.0201,-1.57e-4 -0.02997,0 z m 12.11853,0 c -0.67439,0.0077 -1.09376,0.255287 -0.75291,0.451486 v -0.0014 c 0.25956,0.150781 0.2557,0.150768 0.90397,0.0076 0.73369,-0.162069 0.65711,-0.457699 -0.11869,-0.457699 -0.0108,0 -0.0217,-1.22e-4 -0.0324,0 z m -5.626461,0.01726 c -0.05535,2.06e-4 -0.118443,0.0045 -0.189426,0.01243 -0.325518,0.03633 -0.658954,0.18152 -0.740924,0.323081 -0.09515,0.16462 0.06497,0.233386 0.443595,0.191226 0.325452,-0.03633 0.658953,-0.181508 0.740923,-0.323081 0.07731,-0.133722 -0.0143,-0.204548 -0.254168,-0.203652 z m 2.467347,0.03106 c -0.43339,0.0034 -0.855541,0.139468 -0.666591,0.315488 v 6.9e-4 c 0.103597,0.09672 0.449595,0.146216 0.768498,0.111146 0.318899,-0.03532 0.646674,-0.0698 0.728934,-0.0787 0.0822,-0.0081 -0.01949,-0.11201 -0.226593,-0.231265 -0.14712,-0.0847 -0.377229,-0.119127 -0.604248,-0.117359 z m 6.104824,0 c -0.0982,0.0027 -0.19505,0.01818 -0.28174,0.04902 -0.18529,0.06596 -0.25038,0.200532 -0.14627,0.298229 0.25002,0.232347 1.14735,0.230429 1.14735,-0.0021 0,-0.201695 -0.36874,-0.354958 -0.71934,-0.345173 z m -11.925507,0.05109 c -0.220552,0.006 -0.472999,0.09521 -0.564685,0.253356 -0.09311,0.160819 0.05898,0.232376 0.40523,0.191226 0.304795,-0.03635 0.544411,-0.152423 0.535911,-0.257499 -0.0122,-0.133055 -0.181852,-0.192362 -0.376456,-0.187083 z m 15.850717,0.364502 c -0.11309,0.0023 -0.24913,0.04569 -0.42801,0.131165 -0.38779,0.185174 -0.3989,0.261919 -0.0563,0.383832 v -6.9e-4 c 0.52875,0.188047 1.09261,-0.101979 0.77449,-0.398329 -0.0861,-0.07993 -0.17705,-0.118295 -0.29014,-0.115978 z m -24.002072,0.683441 c -0.437048,0.0051 -0.78768,0.08944 -0.78768,0.191225 0,0.105214 0.37302,0.191226 0.829642,0.191226 0.456578,0 0.830841,-0.08615 0.830841,-0.191226 0,-0.105212 -0.374263,-0.191225 -0.830841,-0.191225 -0.01427,0 -0.02786,-1.66e-4 -0.04196,0 z m -2.767072,0.01243 c -0.09554,0.0022 -0.175254,0.01669 -0.226593,0.04625 -0.101464,0.05845 -0.100825,0.183578 0,0.278209 0.23703,0.220291 1.209695,0.225335 1.209695,0.0069 0,-0.163331 -0.60831,-0.340023 -0.983102,-0.331366 z m 5.929783,0.178109 c -0.349634,0.0051 -0.629425,0.08943 -0.629425,0.191226 0,0.105226 0.298902,0.191225 0.664194,0.191225 0.365271,0 0.664193,-0.08615 0.664193,-0.191225 0,-0.105213 -0.298922,-0.191226 -0.664193,-0.191226 -0.01141,0 -0.02349,-1.66e-4 -0.03477,0 z m 9.454564,0 c -0.251983,0.0051 -0.454385,0.08943 -0.454385,0.191226 0,0.105226 0.307328,0.191225 0.683376,0.191225 0.376038,0 0.591143,-0.08615 0.478363,-0.191225 -0.112837,-0.105213 -0.420364,-0.191226 -0.683376,-0.191226 -0.0082,0 -0.01585,-1.66e-4 -0.02398,0 z m -6.200736,0.03037 c -0.452508,0.0017 -0.919115,0.17456 -0.730133,0.350695 0.259543,0.242014 1.061683,0.250586 1.315199,0.0145 0.105076,-0.09787 0.0325,-0.234502 -0.161852,-0.303752 -0.12286,-0.04372 -0.272378,-0.062 -0.423214,-0.06144 z m 13.376183,0.06903 c -0.22493,0.0011 -0.48949,0.09056 -0.58387,0.253356 -0.0931,0.160914 0.0589,0.232375 0.40523,0.191226 0.30474,-0.03632 0.54491,-0.152423 0.53591,-0.257499 -0.0118,-0.128621 -0.1709,-0.188019 -0.35727,-0.187083 z m -9.980884,6.9e-4 c -0.220571,0.006 -0.473113,0.09522 -0.564684,0.253357 -0.09311,0.160939 0.05776,0.232375 0.404031,0.191225 0.304745,-0.03635 0.545609,-0.152424 0.537109,-0.257499 -0.01221,-0.133055 -0.181833,-0.192364 -0.376456,-0.187083 z m 6.687494,0.09113 c -0.37604,0 -0.68338,0.08615 -0.68338,0.191225 0,0.10524 0.21507,0.191225 0.47836,0.191225 0.26319,0 0.57059,-0.08615 0.68338,-0.191225 0.11283,-0.105227 -0.10229,-0.191225 -0.47836,-0.191225 z" />
      <path
         id="path14414"
         style="fill:#666666;fill-opacity:1;stroke-width:0.251966"
         d="m 64.574689,45.128382 c -0.207348,0 -0.402024,0.322253 -0.432804,0.716577 l -0.05515,0.717268 -0.130681,-0.720719 c -0.222473,-1.227394 -0.754111,-0.576905 -0.754111,0.92299 0,0.820943 0.14038,1.422801 0.332097,1.422801 0.182702,0 0.34858,-0.322971 0.37166,-0.717268 0.03902,-0.713488 0.04003,-0.71374 0.292533,-0.142902 0.246593,0.557752 0.254283,0.559802 0.292533,0.07456 0.0217,-0.274488 0.134486,-0.898345 0.250571,-1.386212 0.144096,-0.605982 0.09118,-0.887093 -0.166648,-0.887093 z m 1.323591,0.08767 c -0.01272,8.02e-4 -0.02599,0.0035 -0.03956,0.0083 -0.182745,0.06497 -0.329501,0.651002 -0.327301,1.30199 0.0035,0.834807 0.100321,1.099008 0.327301,0.896757 0.420672,-0.374777 0.433944,-2.231885 0.03956,-2.207032 z m -3.965977,0.190536 c -0.02464,6.11e-4 -0.0504,0.0058 -0.07673,0.01519 -0.277813,0.09891 -0.155215,1.287472 0.201416,1.953675 0.222122,0.414897 0.724747,0.258485 0.615038,-0.191225 -0.330988,-1.354392 -0.501542,-1.783546 -0.739724,-1.777637 z m -1.782771,0.296157 c -0.418308,0.01252 -0.280264,0.424688 0.629425,1.911565 0.136838,0.223558 0.211554,0.230843 0.33929,0.03314 0.213372,-0.330898 -0.573652,-1.944701 -0.948334,-1.944701 -0.0069,0 -0.01374,-1.98e-4 -0.02038,0 z m 7.358878,0 c -0.506539,0.0275 -1.156387,1.788946 -0.781686,2.137998 0.1714,0.159689 0.323005,0.08422 0.468771,-0.234027 0.444267,-0.970517 0.603705,-1.903971 0.324904,-1.903971 -0.004,0 -0.008,-2.16e-4 -0.01199,0 z m -8.720834,0.191226 c -0.393023,0.01315 -0.249356,0.440731 0.442395,1.318558 0.364524,0.462547 0.746271,0.792887 0.847626,0.734527 0.24279,-0.139814 -0.941492,-2.053085 -1.270839,-2.053085 -0.0065,0 -0.01294,-2.09e-4 -0.01918,0 z m -1.589748,0.376238 c -0.04957,3.45e-4 -0.09529,0.01279 -0.137874,0.03728 -0.188177,0.108367 0.60389,1.306832 1.021467,1.545682 0.448225,0.256435 0.482532,0.02777 0.09591,-0.637879 -0.350957,-0.604279 -0.711846,-0.946947 -0.979505,-0.945081 z m 12.186868,0.03935 c -0.211324,0.01343 -0.839047,0.543875 -1.140159,1.065892 h -0.0012 c -0.285017,0.494349 -0.266494,0.621311 0.08752,0.621311 0.244657,0 0.541754,-0.236884 0.661796,-0.526043 0.119691,-0.289173 0.301577,-0.6975 0.404031,-0.907803 0.08967,-0.184411 0.0707,-0.25861 -0.01199,-0.253357 z m -13.550023,0.347934 c -0.42604,0 -0.321198,0.237144 0.412423,0.929894 0.37444,0.353598 0.754769,0.600914 0.844029,0.549515 0.224431,-0.129205 -0.922267,-1.479409 -1.256452,-1.479409 z m 14.726148,0.191225 c -0.289552,0 -1.049041,0.837392 -1.049041,1.156328 0,0.332556 0.30852,0.189129 0.821249,-0.381761 0.580162,-0.645732 0.617796,-0.774567 0.227792,-0.774567 z m 1.853507,0.257499 c -0.107983,0.0037 -0.358098,0.107166 -0.74452,0.316178 -0.456622,0.246965 -0.829642,0.520093 -0.829642,0.606813 0,0.314517 0.599058,0.147269 1.123374,-0.313417 0.463171,-0.406976 0.60861,-0.614995 0.450788,-0.609574 z m -18.116651,0.164302 c -0.09992,0.0097 0.0057,0.21949 0.323704,0.62131 0.211965,0.267829 0.510953,0.486693 0.664193,0.486693 0.441212,0 0.316454,-0.248728 -0.384848,-0.764902 -0.322671,-0.237474 -0.525338,-0.350657 -0.603049,-0.343101 z m 19.406673,0.04073 c -0.136072,0.0031 -0.42516,0.123694 -0.704956,0.301681 -0.331299,0.210962 -0.447601,0.383832 -0.258964,0.383832 0.417795,0 1.2458,-0.546675 1.022666,-0.675157 -0.01375,-0.0079 -0.03355,-0.01092 -0.05875,-0.01036 z m 1.128169,0.323772 c -0.313042,4.39e-4 -0.672585,0.236501 -0.672585,0.508784 v 6.9e-4 c 0,0.29098 0.04461,0.290454 0.562286,-0.0076 0.30866,-0.177754 0.467564,-0.376931 0.353677,-0.442511 -0.07149,-0.04116 -0.155726,-0.05949 -0.243378,-0.05937 z m -21.552712,0.182941 c -0.05279,0.0034 -0.02627,0.07478 0.06234,0.22022 0.110281,0.18064 0.05827,0.378971 -0.116294,0.44113 -0.174678,0.06212 -0.31771,0.193837 -0.31771,0.292707 0,0.099 0.273112,0.18018 0.607845,0.18018 0.713794,0 0.757262,-0.638822 0.06834,-1.006523 -0.162156,-0.08661 -0.260781,-0.130507 -0.304521,-0.127714 z m 3.67824,0.578509 c -0.337515,0.0035 -0.469052,0.143005 -0.244577,0.352076 0.275746,0.256887 0.741637,0.261795 1.010677,0.01105 0.113689,-0.105899 -0.03272,-0.245835 -0.326102,-0.310655 -0.168915,-0.03731 -0.317918,-0.05372 -0.439998,-0.05247 z m -5.96695,0.0083 c -0.247094,0.0034 -0.407627,0.09624 -0.407627,0.246453 0,0.177351 0.283865,0.300991 0.691768,0.300991 0.809186,0 0.695211,-0.4468 -0.137874,-0.53985 -0.0512,-0.0057 -0.100508,-0.0082 -0.146267,-0.0076 z m 12.191664,0.165683 c -0.644492,0 -0.84013,0.205947 -0.423214,0.445963 0.269457,0.154722 0.262874,0.154929 0.911168,0.01174 0.675865,-0.149295 0.34722,-0.457698 -0.487954,-0.457698 z m 7.622637,0 c -0.349635,0.0052 -0.629425,0.08943 -0.629425,0.191225 0,0.105226 0.298901,0.191226 0.664193,0.191226 0.365272,0 0.664193,-0.08615 0.664193,-0.191226 0,-0.105226 -0.298921,-0.191225 -0.664193,-0.191225 -0.01141,0 -0.02349,-1.66e-4 -0.03477,0 z m 3.320966,0 c -0.349634,0.0052 -0.630624,0.08943 -0.630624,0.191225 0,0.105226 0.298901,0.191226 0.664194,0.191226 0.365273,0 0.664193,-0.08615 0.664193,-0.191226 0,-0.105226 -0.29892,-0.191225 -0.664193,-0.191225 -0.01142,0 -0.02229,-1.66e-4 -0.03357,0 z m 3.183093,0 c -0.257407,0.0052 -0.548724,0.08943 -0.658199,0.191225 -0.112831,0.105228 0.102296,0.191226 0.478363,0.191226 0.376046,0 0.683376,-0.08615 0.683376,-0.191226 0,-0.105226 -0.215061,-0.191225 -0.478363,-0.191225 -0.0082,0 -0.01687,-1.66e-4 -0.02518,0 z m -17.188699,0.0028 c -0.301129,0.0036 -0.628064,0.08667 -0.737327,0.188464 -0.25976,0.241964 0.179325,0.241964 0.829642,0 0.429162,-0.159747 0.420409,-0.185864 -0.06354,-0.188464 -0.0097,-5.1e-5 -0.01906,-1.15e-4 -0.02877,0 z m 6.881714,0.04625 c -0.122823,4.65e-4 -0.247242,0.01587 -0.371661,0.04625 -0.540585,0.131977 -0.515428,0.164122 0.224195,0.294086 1.319037,0.231723 1.507552,0.205287 0.926754,-0.129094 -0.245138,-0.141099 -0.509079,-0.212267 -0.779288,-0.211246 z m -1.108987,0.811846 c -0.06041,8.81e-4 -0.128303,0.0094 -0.201416,0.02554 -0.273943,0.06053 -0.497546,0.226844 -0.497546,0.370025 0,0.152885 0.20509,0.215055 0.497546,0.150495 0.273964,-0.06054 0.498744,-0.226844 0.498744,-0.370024 0,-0.114681 -0.116103,-0.178681 -0.297328,-0.176038 z m -3.695025,0.0028 c -0.224957,0.0011 -0.489603,0.09056 -0.583867,0.253357 -0.09311,0.160793 0.05774,0.232375 0.404031,0.191225 0.304747,-0.03632 0.54591,-0.151732 0.53711,-0.256808 -0.0118,-0.128627 -0.170881,-0.188709 -0.357274,-0.187774 z m -3.286198,0.09182 c -0.407793,0 -0.691768,0.123641 -0.691768,0.30099 0,0.178088 0.226241,0.275449 0.553894,0.238859 0.833195,-0.09302 0.947169,-0.539849 0.137874,-0.539849 z m 10.612706,0 c -0.70586,0.0076 -1.124492,0.252712 -0.768498,0.457698 0.33414,0.192351 1.178921,0.05416 1.336778,-0.218839 0.08018,-0.138712 -0.144639,-0.238859 -0.534711,-0.238859 -0.01135,0 -0.02237,-1.21e-4 -0.03357,0 z m 3.492409,0 c -0.263149,0 -0.570587,0.08615 -0.683375,0.191225 -0.112875,0.105202 0.102296,0.191226 0.478363,0.191226 0.376066,0 0.683375,-0.08615 0.683375,-0.191226 0,-0.105226 -0.21504,-0.191225 -0.478363,-0.191225 z m 4.045105,0.01795 c -0.117855,7.58e-4 -0.259466,0.01733 -0.418417,0.05247 -0.293376,0.06482 -0.439768,0.204693 -0.326103,0.310655 0.269172,0.250728 0.734999,0.245818 1.010677,-0.01105 0.229202,-0.21316 0.08741,-0.354351 -0.266157,-0.352075 z m -22.170148,0.08137 c -0.224925,0.0011 -0.489482,0.09056 -0.583867,0.253356 -0.09311,0.160782 0.05895,0.232375 0.40523,0.191225 0.304768,-0.03632 0.54261,-0.152422 0.53591,-0.257498 -0.01178,-0.128632 -0.170907,-0.18802 -0.357273,-0.187083 z m -3.752573,0.0055 c -0.178762,0.0031 -0.384902,0.06225 -0.559888,0.183632 v 6.9e-4 c -0.341505,0.236958 -0.291607,0.284422 0.294931,0.284422 0.387631,0 0.704956,-0.08131 0.704956,-0.18018 0,-0.191513 -0.195028,-0.292792 -0.439999,-0.288564 z m 6.74384,1.042421 c -0.443066,0.0054 -0.574528,0.09459 -0.441197,0.294777 0.217483,0.326143 0.829528,0.286349 1.034655,-0.06765 0.07302,-0.126002 -0.171877,-0.227123 -0.550297,-0.227123 -0.01494,0 -0.02887,-1.74e-4 -0.04316,0 z m 4.318456,0 c -0.664027,0.0061 -0.857894,0.20468 -0.431606,0.450104 0.307668,0.177109 0.862049,0.05642 1.023865,-0.222981 0.07343,-0.126875 -0.174601,-0.227123 -0.561088,-0.227123 -0.01078,0 -0.02063,-9.8e-5 -0.03117,0 z m -11.575427,0.01795 c -0.32169,0.009 -0.442663,0.146754 -0.222996,0.351385 0.275746,0.256898 0.742836,0.262499 1.011876,0.01174 0.113667,-0.105886 -0.03394,-0.245835 -0.327301,-0.310655 -0.178864,-0.0395 -0.3357,-0.05599 -0.461579,-0.05247 z m 3.951591,0.02692 c -0.359767,0.0013 -0.681804,0.175539 -0.493949,0.350695 0.105049,0.09784 0.323202,0.178109 0.484357,0.178109 0.465221,0 0.708255,-0.344322 0.336893,-0.476338 -0.103667,-0.03688 -0.217169,-0.05286 -0.327301,-0.05247 z m 11.612592,0.05039 c -0.243536,0 -0.505399,0.107426 -0.581469,0.238859 -0.08231,0.14214 0.153452,0.23955 0.581469,0.23955 0.427867,0 0.663699,-0.0974 0.581469,-0.23955 -0.07614,-0.13134 -0.337909,-0.23883 -0.581469,-0.23883 z m 3.461238,0.09596 c -0.262222,0.0052 -0.472368,0.08944 -0.472368,0.191226 0,0.105213 0.223602,0.190535 0.497545,0.190535 0.273919,0 0.498745,-0.08546 0.498745,-0.190535 0,-0.105226 -0.224802,-0.191226 -0.498745,-0.191226 -0.0086,0 -0.01672,-1.66e-4 -0.02518,0 z m 3.81012,0 c -0.70366,0.0091 -0.859651,0.303019 -0.214604,0.436298 0.502288,0.10372 0.912367,-0.01208 0.912367,-0.256808 0,-0.09889 -0.298901,-0.17949 -0.664194,-0.17949 -0.01144,0 -0.0224,-1.45e-4 -0.03357,0 z m 3.474426,0 c -0.561763,0.0097 -0.59861,0.320278 -0.03717,0.436298 h 0.0012 c 0.228323,0.04704 0.52916,0.04846 0.668989,0.0028 0.379233,-0.123684 -0.05665,-0.439059 -0.606646,-0.439059 -0.0092,0 -0.01746,-1.53e-4 -0.02638,0 z" />
      <path
         id="path14520-7"
         style="font-size:32px;line-height:1.25;fill:#666666;fill-opacity:1;stroke-width:0.251966"
         d="m 59.873837,25.827727 c 0.43756,0 0.32504,3.115787 -0.11869,3.28535 -0.188222,0.07278 -0.437062,0.09693 -0.552702,0.05592 -0.37286,-0.132888 -0.37634,-2.385141 -0.004,-2.385141 0.19229,0 0.34889,-0.214854 0.34889,-0.477718 0,-0.26288 0.14669,-0.478409 0.326102,-0.478409 z m 1.13296,0.02209 c 0.16795,0 0.30862,0.667269 0.31052,1.48217 0.004,1.027231 0.1039,1.39378 0.3273,1.194987 0.17683,-0.15774 0.3254,-0.669763 0.3273,-1.137688 0.003,-0.583031 0.1121,-0.789399 0.34648,-0.654447 0.20908,0.120229 0.2551,0.618507 0.1199,1.28128 -0.18055,0.88443 -0.33477,1.083841 -0.83924,1.083841 -0.46855,0 -0.62819,-0.150611 -0.657,-0.621311 -0.0209,-0.341747 -0.0835,-1.073032 -0.13907,-1.625071 -0.0558,-0.552036 0.0361,-1.003761 0.20381,-1.003761 z m 33.463835,0.753856 c 0.207348,0 0.402025,0.322255 0.432805,0.716578 l 0.05515,0.717268 0.130681,-0.72072 c 0.222473,-1.227392 0.754111,-0.576902 0.754111,0.922991 0,0.820942 -0.14038,1.4228 -0.332096,1.4228 -0.182702,0 -0.348581,-0.322971 -0.371661,-0.717268 -0.03902,-0.713487 -0.04003,-0.713738 -0.292533,-0.142901 -0.246593,0.557752 -0.254283,0.559799 -0.292533,0.07456 -0.0217,-0.274487 -0.134486,-0.898345 -0.250571,-1.386212 -0.144096,-0.605981 -0.09118,-0.887093 0.166648,-0.887093 z m -31.073215,0.01105 c 0.33478,0 0.0807,1.978306 -0.29973,2.332674 -0.37971,0.35371 -0.45476,0.0024 -0.24457,-1.154256 0.11768,-0.648224 0.36247,-1.178418 0.5443,-1.178418 z m 29.749624,0.07663 c 0.01272,8.02e-4 0.02599,0.0035 0.03956,0.0083 0.182745,0.06497 0.329501,0.651003 0.327301,1.30199 -0.0035,0.834806 -0.100321,1.099009 -0.327301,0.896758 -0.420672,-0.374777 -0.433947,-2.231885 -0.03956,-2.207032 z m -28.435624,0.05454 c 0.0154,6.15e-4 0.02916,0.0067 0.04196,0.01864 0.24496,0.228192 -0.24818,2.182965 -0.64381,2.551513 h -0.0012 c -0.41884,0.39079 -0.42287,0.02753 -0.01679,-1.359978 0.20815,-0.711295 0.47103,-1.216125 0.61984,-1.210175 z m 32.401601,0.135998 c 0.02464,6.11e-4 0.0504,0.0058 0.07673,0.01519 0.277813,0.09891 0.155215,1.287473 -0.201416,1.953675 -0.222121,0.414897 -0.724747,0.258484 -0.615038,-0.191225 0.330988,-1.354391 0.501543,-1.783547 0.739724,-1.777638 z m -39.159832,0.106996 c 0.0908,-8.6e-4 0.24574,0.07998 0.38365,0.205722 0.370689,0.337417 0.421089,1.782592 0.0695,1.987503 -0.24784,0.144483 -0.74625,-2.007063 -0.50474,-2.178728 0.0131,-0.0093 0.0307,-0.0143 0.0516,-0.0145 z m -1.817539,0.04763 c 0.0178,-6.52e-4 0.0386,0.0055 0.0623,0.01864 0.28193,0.155777 1.089279,1.747091 1.114979,2.200128 0.0271,0.463344 -0.596609,0.03768 -0.790079,-0.539159 -0.10538,-0.31425 -0.28308,-0.850488 -0.39564,-1.192225 -0.0952,-0.288414 -0.087,-0.483865 0.008,-0.487383 z m 42.760143,0.14152 c 0.418308,0.01252 0.280263,0.424689 -0.629425,1.911564 -0.136838,0.223558 -0.211554,0.23084 -0.33929,0.03314 -0.213372,-0.330898 0.573652,-1.944701 0.948334,-1.944701 0.0069,0 0.01374,-1.98e-4 0.02038,0 z m -7.358878,0 c 0.506538,0.0275 1.156386,1.788946 0.781686,2.137997 -0.1714,0.159689 -0.323006,0.08422 -0.468772,-0.234026 -0.444266,-0.970516 -0.603704,-1.903971 -0.324903,-1.903971 0.004,0 0.008,-2.16e-4 0.01199,0 z m -25.625395,0.0014 c 0.26152,0.02145 -0.28077,1.977311 -0.64381,2.229123 -0.21136,0.146511 -0.42073,0.266473 -0.46517,0.266473 -0.14815,0 0.87445,-2.38524 1.06462,-2.48386 0.0169,-0.0087 0.03146,-0.01279 0.04436,-0.01174 z m 34.346233,0.18983 c 0.39302,0.01315 0.24935,0.440732 -0.4424,1.318558 -0.364524,0.462546 -0.746271,0.792886 -0.847626,0.734527 -0.24279,-0.139814 0.941493,-2.053085 1.270836,-2.053085 0.006,0 0.0129,-2.09e-4 0.0192,0 z m -33.148523,0.0856 c 0.28928,0.0026 -0.10302,1.620359 -0.54311,2.093816 -0.1794,0.193099 -0.37521,0.321813 -0.4352,0.286493 -0.20526,-0.120812 0.58522,-2.166741 0.91117,-2.358218 0.0255,-0.015 0.04784,-0.02226 0.06714,-0.02209 z m 34.738263,0.290635 c 0.0496,3.45e-4 0.0953,0.01279 0.13788,0.03728 0.18818,0.108367 -0.60389,1.306832 -1.02147,1.545682 -0.44822,0.256434 -0.48253,0.02777 -0.0959,-0.637879 0.35096,-0.604278 0.71185,-0.946948 0.97951,-0.945082 z m -12.186864,0.03935 c 0.211324,0.01343 0.839047,0.543876 1.140158,1.065892 h 0.0012 c 0.285017,0.494349 0.266494,0.62131 -0.08752,0.62131 -0.244657,0 -0.541753,-0.236884 -0.661795,-0.526042 -0.119691,-0.289173 -0.301577,-0.697501 -0.404031,-0.907803 -0.08967,-0.184411 -0.0707,-0.25861 0.01199,-0.253357 z m -34.539249,0.01381 c 0.0439,0.0019 0.10151,0.02473 0.17384,0.06973 0.50704,0.315441 1.09351,1.598713 0.83923,1.835626 -0.14673,0.136736 -0.41827,-0.109524 -0.68217,-0.617858 -0.42644,-0.820995 -0.5425,-1.296862 -0.3309,-1.287493 z m 13.32703,0.02692 c 0.29607,0.0056 0.16686,0.526539 -0.3333,1.215697 -0.27634,0.38079 -0.58486,0.644903 -0.68577,0.586793 -0.255,-0.146826 0.47022,-1.632119 0.86561,-1.772805 0.0598,-0.02127 0.11117,-0.03048 0.15346,-0.02969 z m 34.762243,0.307204 c 0.42604,0 0.3212,0.237145 -0.41242,0.929894 -0.37444,0.353598 -0.75477,0.600913 -0.84403,0.549514 -0.22443,-0.129205 0.92226,-1.479408 1.25645,-1.479408 z m -33.389503,0.104242 c 0.15258,0.01154 0.0553,0.285549 -0.39564,0.767663 -0.34484,0.36865 -0.74125,0.670325 -0.88239,0.670325 -0.40448,0 -0.30899,-0.193236 0.44479,-0.895377 0.40917,-0.381178 0.70682,-0.552171 0.83324,-0.542611 z m 18.663353,0.08698 c 0.289552,0 1.049042,0.837392 1.049042,1.156327 0,0.332556 -0.308521,0.189129 -0.82125,-0.38176 -0.580161,-0.645731 -0.617795,-0.774567 -0.227792,-0.774567 z m -35.722573,0.01105 c 0.12614,0.01077 0.43798,0.230323 0.76251,0.591625 0.296,0.330506 0.42609,0.730291 0.29373,0.907803 -0.18458,0.247473 -0.29036,0.19116 -0.48076,-0.256118 -0.13445,-0.315467 -0.35352,-0.724472 -0.48676,-0.908493 -0.17385,-0.239722 -0.18081,-0.342676 -0.0887,-0.334817 z m 18.75088,0.117359 c 0.19441,0.0086 0.0164,0.271408 -0.59466,0.718649 -0.67134,0.491361 -1.30441,0.660685 -1.30441,0.348624 0,-0.08548 0.44836,-0.402604 0.99629,-0.704842 0.46218,-0.254931 0.76975,-0.368308 0.90278,-0.362431 z m 15.118186,0.129095 c 0.107983,0.0037 0.358099,0.107166 0.74452,0.316178 0.456622,0.246964 0.829642,0.520093 0.829642,0.606813 0,0.314516 -0.599058,0.147269 -1.123374,-0.313417 -0.46317,-0.406975 -0.60861,-0.614995 -0.450788,-0.609574 z M 72.684137,28.7182 c 0.18512,0 0.14898,0.127293 -0.08153,0.287183 -0.22738,0.1577 -0.56324,0.286493 -0.74572,0.286493 -0.18513,0 -0.14899,-0.126438 0.08153,-0.286493 0.22734,-0.157693 0.56323,-0.287183 0.74572,-0.287183 z m -21.28656,0.01381 c 0.21219,8.62e-4 1.28163,0.779435 1.28163,0.964411 0,0.09354 -0.1261,0.169825 -0.27935,0.169825 -0.27219,0 -1.06144,-0.840922 -1.03825,-1.108003 10e-4,-0.01808 0.014,-0.02632 0.036,-0.02623 z m 53.350073,0.01381 c 0.0999,0.0097 -0.006,0.21949 -0.32371,0.62131 -0.21196,0.267829 -0.51095,0.486693 -0.66419,0.486693 -0.44121,0 -0.31646,-0.248728 0.38485,-0.764902 0.32267,-0.237474 0.52533,-0.350657 0.60305,-0.343101 z m -19.406678,0.04073 c 0.136071,0.0031 0.42516,0.123694 0.704956,0.301681 0.331298,0.210962 0.4476,0.383831 0.258963,0.383831 -0.417795,0 -1.2458,-0.546675 -1.022666,-0.675157 0.01375,-0.0079 0.03355,-0.01092 0.05875,-0.01036 z m -1.12817,0.323772 c 0.313042,4.39e-4 0.672586,0.236501 0.672586,0.508784 v 6.9e-4 c 0,0.29098 -0.04461,0.29046 -0.562287,-0.0076 -0.308659,-0.177754 -0.467563,-0.376931 -0.353677,-0.442511 0.07149,-0.04116 0.155726,-0.05949 0.243378,-0.05937 z m -34.342625,0.114597 c 0.13634,0.0067 0.36309,0.127971 0.58986,0.327223 0.3153,0.277246 0.43899,0.503952 0.27455,0.503952 -0.4589,0 -1.12386,-0.532863 -0.97831,-0.784232 0.02,-0.03461 0.0605,-0.04958 0.1139,-0.04694 z m 55.895343,0.06834 c 0.0528,0.0034 0.0263,0.07478 -0.0623,0.22022 -0.11029,0.18064 -0.0583,0.378971 0.11629,0.44113 0.17468,0.06212 0.31771,0.193836 0.31771,0.292706 0,0.099 -0.27311,0.18018 -0.60785,0.18018 -0.71379,0 -0.75725,-0.638822 -0.0683,-1.006522 0.16216,-0.08661 0.26079,-0.130507 0.30453,-0.127714 z m -33.684433,0.572296 c 0.6624,0.0069 0.87813,0.230379 0.48076,0.506022 -0.20174,0.139495 -0.49879,0.207405 -0.6606,0.149805 -0.45774,-0.162904 -0.34604,-0.655827 0.14867,-0.655827 0.0107,0 0.02067,-1.1e-4 0.03117,0 z m 30.006193,0.0062 c 0.33751,0.0035 0.46905,0.143005 0.24457,0.352076 -0.27574,0.256886 -0.74164,0.26179 -1.01068,0.01104 -0.11368,-0.105899 0.0327,-0.245835 0.32611,-0.310655 0.16891,-0.03731 0.31792,-0.05372 0.44,-0.05247 z m 5.96694,0.0083 c 0.2471,0.0034 0.40763,0.09624 0.40763,0.246453 0,0.177351 -0.28386,0.30099 -0.69177,0.30099 -0.80918,0 -0.69521,-0.446799 0.13788,-0.539849 0.0512,-0.0057 0.10051,-0.0082 0.14626,-0.0076 z m -33.202463,0.01174 c 0.24708,0.0034 0.40762,0.09624 0.40762,0.246453 0,0.17735 -0.28388,0.30099 -0.69176,0.30099 -0.80921,0 -0.69521,-0.446799 0.13787,-0.539849 0.0512,-0.0057 0.10051,-0.0082 0.14627,-0.0076 z m 1.89546,0.0083 c 0.29826,0.0032 0.64255,0.108502 0.75412,0.3003 0.08,0.139871 -0.14873,0.238859 -0.5539,0.238859 -0.40781,0 -0.69177,-0.12364 -0.69177,-0.30099 0,-0.164656 0.22809,-0.240966 0.49155,-0.238169 z m 19.115344,0.145663 c 0.644491,0 0.840129,0.205947 0.423213,0.445962 -0.269457,0.154722 -0.262874,0.154925 -0.911168,0.01174 -0.675864,-0.149295 -0.347219,-0.457698 0.487955,-0.457698 z m -7.622637,0 c 0.349634,0.0052 0.629425,0.08943 0.629425,0.191225 0,0.105226 -0.298902,0.191226 -0.664194,0.191226 -0.365271,0 -0.664193,-0.08615 -0.664193,-0.191226 0,-0.105226 0.298922,-0.191225 0.664193,-0.191225 0.01141,0 0.02349,-1.66e-4 0.03477,0 z m -3.320967,0 c 0.349634,0.0052 0.630624,0.08943 0.630624,0.191225 0,0.105226 -0.298901,0.191226 -0.664193,0.191226 -0.365273,0 -0.664194,-0.08615 -0.664194,-0.191226 0,-0.105226 0.298921,-0.191225 0.664194,-0.191225 0.01142,0 0.02229,-1.66e-4 0.03357,0 z m -3.183092,0 c 0.257406,0.0052 0.548724,0.08943 0.658198,0.191225 0.112831,0.105228 -0.102296,0.191226 -0.478363,0.191226 -0.376045,0 -0.683375,-0.08615 -0.683375,-0.191226 0,-0.105226 0.215061,-0.191225 0.478363,-0.191225 0.0082,0 0.01687,-1.66e-4 0.02518,0 z m 17.188699,0.0028 c 0.301128,0.0036 0.628063,0.08667 0.737326,0.188464 0.25976,0.241964 -0.179326,0.241964 -0.829642,0 -0.429162,-0.159747 -0.420407,-0.185864 0.06354,-0.188464 0.0097,-5.1e-5 0.01906,-1.15e-4 0.02877,0 z m -32.653377,0.03797 c 0.38668,0.003 0.82577,0.109806 0.93755,0.305132 0.0857,0.149735 -0.1839,0.23886 -0.72174,0.23886 -0.55802,0 -0.85722,-0.105087 -0.85722,-0.3003 0,-0.168562 0.30023,-0.246349 0.64141,-0.243692 z m 2.83781,0.0048 c 0.29858,0.0031 0.64292,0.108121 0.75411,0.3003 0.0811,0.140227 -0.14688,0.23886 -0.55269,0.23886 -0.40779,0 -0.69177,-0.123655 -0.69177,-0.300991 0,-0.164715 0.2269,-0.240947 0.49035,-0.238169 z m 22.933853,0.0035 c 0.122823,4.65e-4 0.247241,0.01587 0.37166,0.04625 0.540585,0.131977 0.515427,0.164123 -0.224195,0.294087 -1.319036,0.231723 -1.507551,0.205286 -0.926753,-0.129094 0.245137,-0.141099 0.509079,-0.212267 0.779288,-0.211246 z m -33.082585,0.01657 c 0.16748,0.0012 0.40583,0.04754 0.70855,0.140831 0.586302,0.180679 0.642662,0.261546 0.276952,0.394877 -0.664482,0.242344 -0.952562,0.212438 -1.174922,-0.121501 -0.18319,-0.274857 -0.10916,-0.416281 0.18942,-0.414207 z m -6.103618,0.03176 c 0.35283,0.0079 0.81765,0.157672 0.81765,0.315488 0,0.0939 -0.29772,0.171205 -0.66299,0.171205 -0.64747,0 -0.86613,-0.20268 -0.46638,-0.432846 0.0707,-0.04068 0.18411,-0.05671 0.31172,-0.05385 z m 3.14592,0.01726 c 0.0842,0.0013 0.18831,0.01127 0.31052,0.02969 0.37569,0.05656 0.68218,0.184467 0.68218,0.285112 v 6.9e-4 c 0,0.253762 -1.07711,0.10999 -1.23607,-0.164992 -0.0592,-0.102366 0.0282,-0.153862 0.24337,-0.150495 z m 7.13589,0.08698 c 0.80622,0 1.06049,0.186021 0.60904,0.445963 -0.41773,0.240433 -1.43869,0.127284 -1.43869,-0.15947 0,-0.178398 0.31307,-0.286493 0.82965,-0.286493 z m -13.02011,0.209865 c 0.0743,7.25e-4 0.15878,0.005 0.25537,0.01312 0.41696,0.03513 0.82487,0.178695 0.90517,0.318939 0.0992,0.173208 -0.0975,0.234525 -0.61264,0.191225 -0.41698,-0.03514 -0.82348,-0.178556 -0.90398,-0.318939 -0.0806,-0.14073 0.034,-0.207484 0.35608,-0.204342 z m 43.03349,0.449414 c 0.06041,8.81e-4 0.128303,0.0094 0.201416,0.02554 0.273942,0.06053 0.497545,0.226844 0.497545,0.370025 0,0.152885 -0.20509,0.215055 -0.497545,0.150495 -0.273964,-0.06054 -0.498745,-0.226845 -0.498745,-0.370025 0,-0.114681 0.116104,-0.178681 0.297329,-0.176038 z m 3.695025,0.0028 c 0.224956,0.0011 0.489602,0.09056 0.583866,0.253356 0.09311,0.160793 -0.05774,0.232376 -0.404031,0.191226 -0.304746,-0.03632 -0.545909,-0.151733 -0.537109,-0.256808 0.0118,-0.128627 0.170881,-0.188709 0.357274,-0.187774 z m 3.286198,0.09182 c 0.40779,0 0.69177,0.123641 0.69177,0.30099 0,0.178088 -0.22624,0.275449 -0.5539,0.238859 -0.83319,-0.09302 -0.947164,-0.539849 -0.13787,-0.539849 z m -10.612706,0 c 0.705859,0.0076 1.124492,0.252712 0.768498,0.457698 -0.33414,0.192351 -1.178922,0.05416 -1.336779,-0.218839 -0.08018,-0.138712 0.14464,-0.238859 0.534712,-0.238859 0.01135,0 0.02237,-1.21e-4 0.03357,0 z m -3.49241,0 c 0.263149,0 0.570588,0.08615 0.683376,0.191225 0.112875,0.105202 -0.102297,0.191226 -0.478363,0.191226 -0.376066,0 -0.683376,-0.08615 -0.683376,-0.191226 0,-0.105226 0.21504,-0.191225 0.478363,-0.191225 z m -4.045105,0.01795 c 0.117855,7.58e-4 0.259467,0.01733 0.418418,0.05247 0.293376,0.06482 0.439767,0.204693 0.326102,0.310655 -0.269172,0.250728 -0.734999,0.245822 -1.010677,-0.01105 -0.229202,-0.213159 -0.08741,-0.354351 0.266157,-0.352075 z m 22.170151,0.08146 c 0.22492,0.0011 0.48948,0.09056 0.58386,0.253357 0.0931,0.160782 -0.0589,0.232375 -0.40522,0.191225 -0.30477,-0.03632 -0.54262,-0.152422 -0.53592,-0.257498 0.0118,-0.128632 0.17091,-0.188021 0.35728,-0.187084 z m 3.75257,0.0055 c 0.17876,0.0031 0.3849,0.06225 0.55989,0.183632 v 6.9e-4 c 0.3415,0.236958 0.29161,0.284422 -0.29493,0.284422 -0.38763,0 -0.70496,-0.08131 -0.70496,-0.18018 0,-0.191513 0.19503,-0.292792 0.44,-0.288564 z m -30.877793,0.01105 c 0.17876,0.0031 0.3837,0.06224 0.55869,0.183631 0.34146,0.236946 0.2928,0.285113 -0.29373,0.285113 -0.38763,0 -0.70496,-0.08131 -0.70496,-0.18018 0,-0.191521 0.19503,-0.292795 0.44,-0.288564 z m -1.57656,0.08629 c 0.26224,0.0052 0.47237,0.08943 0.47237,0.191225 0,0.105228 -0.22361,0.191226 -0.49755,0.191226 -0.27394,0 -0.49874,-0.08615 -0.49874,-0.191226 0,-0.105226 0.2248,-0.191225 0.49874,-0.191225 0.009,0 0.01668,-1.66e-4 0.02518,0 z m -3.16511,0 c 0.35993,0.0052 0.64861,0.08943 0.64861,0.191225 0,0.105228 -0.21506,0.191226 -0.47837,0.191226 -0.26316,0 -0.57058,-0.08615 -0.68337,-0.191226 -0.1129,-0.105226 0.10232,-0.191225 0.47836,-0.191225 0.0117,0 0.02317,-1.66e-4 0.03477,0 z m -3.15911,6.9e-4 c 0.62195,0.0099 0.92144,0.327143 0.40642,0.446653 -0.72509,0.168298 -0.91476,0.134646 -0.91476,-0.16016 0,-0.157702 0.21506,-0.286493 0.47836,-0.286493 0.01,0 0.02008,-1.57e-4 0.02998,0 z m -12.11854,0 c 0.674389,0.0077 1.093769,0.255287 0.752919,0.451485 v -0.0014 c -0.25956,0.150781 -0.25571,0.150761 -0.903979,0.0076 -0.73369,-0.162068 -0.6571,-0.457698 0.11869,-0.457698 0.0108,0 0.0217,-1.22e-4 0.0324,0 z m 5.62647,0.01726 c 0.0554,2.06e-4 0.11844,0.0045 0.18942,0.01243 0.32552,0.03633 0.65896,0.18152 0.74093,0.323081 0.0951,0.16462 -0.065,0.233386 -0.4436,0.191226 -0.32545,-0.03633 -0.65895,-0.181509 -0.74092,-0.323082 -0.0773,-0.133722 0.0143,-0.204547 0.25417,-0.203651 z m -2.46735,0.03107 c 0.43339,0.0034 0.85554,0.139468 0.66659,0.315488 v 6.9e-4 c -0.1036,0.09672 -0.44959,0.146215 -0.7685,0.111145 -0.3189,-0.03532 -0.646672,-0.0698 -0.728932,-0.0787 -0.0822,-0.0081 0.0195,-0.11201 0.22659,-0.231265 0.14712,-0.0847 0.377232,-0.119127 0.604252,-0.117358 z m -6.10482,0 c 0.0982,0.0027 0.19505,0.01817 0.28174,0.04902 0.18529,0.06596 0.25037,0.200532 0.14626,0.298228 -0.25002,0.232347 -1.14735,0.230458 -1.14735,-0.0021 0,-0.201694 0.36875,-0.354957 0.71935,-0.345172 z m 11.9255,0.05109 c 0.22055,0.006 0.473,0.09521 0.56469,0.253356 0.0931,0.160819 -0.059,0.232376 -0.40523,0.191226 -0.3048,-0.03635 -0.54441,-0.152423 -0.53591,-0.257499 0.0122,-0.133055 0.18185,-0.192362 0.37645,-0.187083 z m -15.85072,0.364502 c 0.11309,0.0023 0.24913,0.04569 0.42801,0.131165 0.38779,0.185174 0.39895,0.261919 0.0563,0.383832 v -6.91e-4 c -0.52875,0.188047 -1.09261,-0.101979 -0.77449,-0.398329 0.0861,-0.07993 0.17704,-0.118294 0.29013,-0.115977 z m 51.024193,0.480479 c 0.44307,0.0054 0.57453,0.09459 0.4412,0.294778 -0.21749,0.326142 -0.82953,0.286344 -1.03466,-0.06765 -0.073,-0.126002 0.17188,-0.227124 0.5503,-0.227124 0.0149,0 0.0289,-1.74e-4 0.0432,0 z m -4.318455,0 c 0.664026,0.0061 0.857893,0.204681 0.431606,0.450105 -0.307668,0.177109 -0.862049,0.05642 -1.023865,-0.222981 -0.07343,-0.126875 0.174601,-0.227124 0.561087,-0.227124 0.01078,0 0.02063,-9.8e-5 0.03117,0 z m 11.575425,0.01795 c 0.32169,0.009 0.44266,0.146755 0.223,0.351386 -0.27575,0.256898 -0.74284,0.262494 -1.01188,0.01174 -0.11366,-0.105886 0.0339,-0.245835 0.3273,-0.310655 0.17887,-0.0395 0.3357,-0.05599 0.46158,-0.05247 z m -3.95159,0.02692 c 0.35977,0.0013 0.6818,0.175539 0.49395,0.350695 -0.10505,0.09784 -0.3232,0.178109 -0.48436,0.178109 -0.46522,0 -0.70825,-0.344322 -0.33689,-0.476338 0.10367,-0.03688 0.21717,-0.05286 0.3273,-0.05247 z m -11.612592,0.05039 c 0.243536,0 0.505399,0.107426 0.581469,0.238859 0.08231,0.14214 -0.153452,0.23955 -0.581469,0.23955 -0.427866,0 -0.663698,-0.0974 -0.581469,-0.23955 0.07614,-0.13134 0.33791,-0.238859 0.581469,-0.238859 z m -3.461238,0.09596 c 0.262222,0.0052 0.472369,0.08944 0.472369,0.191225 0,0.105213 -0.223603,0.190535 -0.497546,0.190535 -0.273919,0 -0.498744,-0.08546 -0.498744,-0.190535 0,-0.105226 0.224801,-0.191225 0.498744,-0.191225 0.0086,0 0.01672,-1.66e-4 0.02518,0 z m -3.81012,0 c 0.70366,0.0091 0.859651,0.303019 0.214604,0.436298 -0.502287,0.10372 -0.912366,-0.01208 -0.912366,-0.256808 0,-0.09889 0.2989,-0.17949 0.664193,-0.17949 0.01144,0 0.0224,-1.45e-4 0.03357,0 z m -3.474426,0 c 0.561763,0.0097 0.598606,0.320278 0.03717,0.436298 h -0.0012 c -0.228323,0.04704 -0.52916,0.04842 -0.668989,0.0028 -0.379232,-0.123684 0.05665,-0.439059 0.606646,-0.439059 0.0092,0 0.01746,-1.53e-4 0.02638,0 z m -7.969117,0.01174 c 0.43705,0.0051 0.78768,0.08944 0.78768,0.191225 0,0.105214 -0.37302,0.191226 -0.82965,0.191226 -0.45656,0 -0.83084,-0.08615 -0.83084,-0.191226 0,-0.105212 0.37428,-0.191225 0.83084,-0.191225 0.0143,0 0.02787,-1.66e-4 0.04197,0 z m 2.76707,0.01243 c 0.0955,0.0022 0.17525,0.01669 0.22659,0.04625 0.10147,0.05845 0.10083,0.183578 0,0.278209 -0.23703,0.220291 -1.20969,0.225338 -1.20969,0.0069 0,-0.16333 0.60831,-0.340022 0.9831,-0.331365 z m -5.92978,0.178109 c 0.34963,0.0051 0.62942,0.08943 0.62942,0.191225 0,0.105226 -0.2989,0.191226 -0.66419,0.191226 -0.36527,0 -0.6642,-0.08615 -0.6642,-0.191226 0,-0.105213 0.29893,-0.191225 0.6642,-0.191225 0.0114,0 0.02347,-1.66e-4 0.03477,0 z m -9.45457,0 c 0.25198,0.0051 0.45439,0.08943 0.45439,0.191225 0,0.105226 -0.30733,0.191226 -0.68338,0.191226 -0.37604,0 -0.59114,-0.08615 -0.47836,-0.191226 0.11284,-0.105213 0.42036,-0.191225 0.68337,-0.191225 0.008,0 0.01588,-1.66e-4 0.02398,0 z m 6.20074,0.03037 c 0.45251,0.0017 0.91911,0.17456 0.73013,0.350695 -0.25954,0.242014 -1.06168,0.250583 -1.3152,0.0145 -0.10507,-0.09787 -0.0325,-0.234501 0.16185,-0.303751 0.12286,-0.04372 0.27238,-0.062 0.42322,-0.06144 z m -13.37618,0.06903 c 0.22493,0.0011 0.48948,0.09056 0.58386,0.253356 0.0931,0.160914 -0.0589,0.232374 -0.40523,0.191225 -0.30474,-0.03632 -0.54491,-0.152422 -0.53591,-0.257498 0.0118,-0.128621 0.17091,-0.188019 0.35728,-0.187083 z m 9.98088,6.9e-4 c 0.22057,0.006 0.47311,0.09522 0.56468,0.253356 0.0931,0.160939 -0.0578,0.232376 -0.40403,0.191226 -0.30474,-0.03635 -0.54561,-0.152424 -0.53711,-0.257499 0.0122,-0.133055 0.18184,-0.192364 0.37646,-0.187083 z m -6.687491,0.09112 c 0.37604,0 0.68337,0.08615 0.68337,0.191226 0,0.10524 -0.21507,0.191225 -0.47836,0.191225 -0.26319,0 -0.57059,-0.08615 -0.683379,-0.191225 -0.11283,-0.105227 0.102299,-0.191226 0.478369,-0.191226 z" />
      <path
         id="path14366"
         style="fill:#666666;fill-opacity:1;stroke-width:0.251966"
         d="m 108.94495,37.628395 c -0.25974,0.01371 -0.2855,0.514401 -0.0767,1.493906 l 0.27815,1.305441 0.0983,-1.313035 c 0.0545,-0.72221 0.0173,-1.360368 -0.0827,-1.417968 -0.0848,-0.04881 -0.15706,-0.07151 -0.21701,-0.06834 z m -0.98669,0.325152 c -0.005,3.06e-4 -0.01,0.0011 -0.0144,0.0028 -0.2624,0.09338 -0.0874,1.971032 0.23738,2.546681 0.0827,0.146513 0.22451,0.223495 0.31531,0.171205 0.27801,-0.160059 -0.2414,-2.739929 -0.5383,-2.720648 z m -3.09318,0.352076 c -0.29994,0.0242 0.08,1.79267 0.52752,2.282279 0.1764,0.192988 0.38328,0.314986 0.45918,0.271306 0.23601,-0.135877 -0.55889,-2.332218 -0.91716,-2.534255 -0.0262,-0.01478 -0.0495,-0.02094 -0.0695,-0.01933 z m 1.79117,0.114597 c -0.3639,0 -0.44201,1.179649 -0.12349,1.863931 0.11011,0.236597 0.34983,0.430084 0.53231,0.430084 0.18272,0 0.24181,-0.193487 0.13188,-0.430084 -0.11009,-0.236572 -0.20301,-0.752364 -0.20501,-1.146663 -0.003,-0.394324 -0.1532,-0.717268 -0.33569,-0.717268 z m -3.05961,0.191226 c -0.29949,0 0.004,1.370053 0.46038,2.081389 h -10e-4 c 0.52421,0.816424 0.65824,0.282375 0.22899,-0.914017 -0.23031,-0.641998 -0.53977,-1.167372 -0.68817,-1.167372 z m -1.097,0.546753 c -0.0399,-2.35e-4 -0.07,0.02501 -0.0887,0.07663 -0.0668,0.184871 0.0505,0.636986 0.26136,1.005142 0.21105,0.36813 0.51096,0.624294 0.6666,0.568844 0.15571,-0.05541 0.0385,-0.508231 -0.26137,-1.005832 -0.25119,-0.416588 -0.45829,-0.644079 -0.57787,-0.644782 z m -1.8559,0.02692 c -0.3955,0 -0.0351,0.915139 0.58506,1.487002 0.25775,0.239545 0.38186,0.519147 0.27215,0.621311 -0.10864,0.102187 -0.10914,0.267999 -0.001,0.368644 h -0.001 c 0.22247,0.20725 1.17133,0.05182 1.17133,-0.191916 0,-0.08768 -0.13807,-0.208414 -0.30692,-0.268544 -0.1687,-0.06003 -0.55461,-0.537923 -0.85722,-1.062441 -0.30259,-0.524515 -0.69053,-0.954056 -0.86201,-0.954056 z m -1.101796,0.382451 c -0.110967,0.0071 -0.191825,0.06415 -0.191825,0.182251 0,0.100202 0.172906,0.401115 0.384849,0.668944 0.427662,0.540467 1.155342,0.683539 0.775692,0.152566 -0.13154,-0.183996 -0.31451,-0.484923 -0.40643,-0.668944 -0.109335,-0.218965 -0.377341,-0.346629 -0.562286,-0.334817 z m -1.744407,0.270615 c -0.266793,0.0087 -0.113123,0.365322 0.441197,0.717959 0.302255,0.192375 0.681137,0.350004 0.841632,0.350004 0.375336,0 -0.203153,-0.626755 -0.875201,-0.947843 -0.183068,-0.08749 -0.318697,-0.123011 -0.407628,-0.12012 z m -1.405116,0.307203 c -0.385545,0.0031 -0.303422,0.106153 0.300925,0.378309 1.083699,0.487994 1.597919,0.487994 0.830841,0 -0.33058,-0.210302 -0.840429,-0.379609 -1.131766,-0.378309 z m 1.857103,0.98098 c -0.449671,0.0028 -0.914245,0.176464 -0.727735,0.351386 0.262323,0.243387 1.496233,0.253374 1.496233,0.01243 0,-0.09894 -0.15619,-0.235642 -0.347682,-0.303752 -0.121852,-0.04335 -0.270773,-0.06098 -0.420816,-0.06006 z m -2.901349,0.0048 c -0.179277,-0.0061 -0.315312,0.09041 -0.315312,0.236097 0,0.166412 0.237142,0.303062 0.526319,0.303062 0.586407,0 0.483831,-0.411945 -0.13188,-0.530185 -0.02711,-0.0052 -0.05352,-0.0081 -0.07913,-0.009 z m 9.554075,0.184322 c -0.13286,-4.24e-4 -0.29198,0.01626 -0.46518,0.05454 -0.4971,0.109835 -0.51174,0.155658 -0.0995,0.302371 v 6.9e-4 c 0.29314,0.103805 0.60983,0.101026 0.79847,-0.0076 0.33496,-0.192828 0.1648,-0.348734 -0.23378,-0.350004 z m 2.74909,0.06765 c -0.24353,0 -0.50417,0.107439 -0.58027,0.23886 -0.0823,0.142122 0.15224,0.238859 0.58027,0.238859 0.42788,0 0.66367,-0.0967 0.58147,-0.238859 -0.0761,-0.13137 -0.33792,-0.23886 -0.58147,-0.23886 z m -12.577715,1.052086 c -0.405083,0 -0.704956,0.121639 -0.704956,0.286493 0,0.157702 0.131057,0.286493 0.291334,0.286493 0.160248,0 0.477491,-0.128754 0.704956,-0.286493 0.345353,-0.239547 0.29752,-0.286493 -0.291334,-0.286493 z m 2.836609,0.03452 c -0.31121,0.0011 -0.690208,0.106207 -0.796072,0.289254 -0.07679,0.132696 0.154827,0.215349 0.553894,0.198129 0.377014,-0.01634 0.685773,-0.146917 0.685773,-0.289945 0,-0.136282 -0.201542,-0.198281 -0.443595,-0.197438 z m 2.552466,0.02347 c -0.21237,6.94e-4 -0.496476,0.07877 -0.718141,0.206413 -0.49514,0.28508 -0.466019,0.309274 0.364471,0.309274 0.91707,0 1.19648,-0.254833 0.53711,-0.489454 -0.05,-0.01781 -0.11264,-0.02647 -0.18344,-0.02623 z m 2.37383,0.133236 c -0.86298,0 -1.13875,0.288139 -0.41482,0.433536 0.53402,0.10724 1.24567,-0.04293 1.24567,-0.263021 0,-0.09401 -0.37427,-0.170515 -0.83085,-0.170515 z m 3.00806,0 c -0.26317,0 -0.57038,0.08615 -0.68338,0.191226 -0.11288,0.105226 0.10229,0.191225 0.47836,0.191225 0.37603,0 0.68338,-0.08615 0.68338,-0.191225 0,-0.105227 -0.21507,-0.191226 -0.47836,-0.191226 z m 2.61721,0 c -0.26325,0 -0.47837,0.08615 -0.47837,0.191226 0,0.105226 0.30853,0.191225 0.68458,0.191225 0.37606,0 0.59115,-0.08615 0.47836,-0.191225 -0.11287,-0.105227 -0.42128,-0.191226 -0.68457,-0.191226 z m -11.228947,0.86435 c -0.329189,-0.0045 -0.70081,0.08394 -0.797272,0.250595 -0.101228,0.174571 0.09779,0.235025 0.63542,0.191225 0.431211,-0.03512 0.747029,-0.149661 0.701359,-0.254737 -0.05362,-0.123456 -0.283471,-0.183564 -0.539507,-0.187083 z m -2.697536,0.09113 c -0.273919,0 -0.498744,0.08615 -0.498744,0.191225 0,0.105214 0.224825,0.191226 0.498744,0.191226 0.273967,0 0.497546,-0.08615 0.497546,-0.191226 0,-0.105226 -0.223597,-0.191225 -0.497546,-0.191225 z m 5.507773,0.05178 c -0.348982,-0.0032 -0.692172,0.141583 -0.692971,0.34103 v 6.9e-4 c 7.77e-4,0.222015 0.356196,0.225669 0.948331,0.0097 0.31397,-0.11457 0.33884,-0.203627 0.0827,-0.294777 -0.10531,-0.03747 -0.22163,-0.05553 -0.33809,-0.05661 z m 3.29219,0.139449 c -0.36523,0 -0.66419,0.08615 -0.66419,0.191226 0,0.10524 0.29896,0.191225 0.66419,0.191225 0.36529,0 0.66419,-0.08615 0.66419,-0.191225 0,-0.105226 -0.2989,-0.191226 -0.66419,-0.191226 z m 2.8414,0 c -0.55462,0 -0.92856,0.272383 -0.61863,0.450795 0.39686,0.228496 1.097,0.123655 1.097,-0.164302 0,-0.157713 -0.21505,-0.286493 -0.47837,-0.286493 z m 2.60043,0.07318 c -0.0397,-0.001 -0.0839,0.0058 -0.12948,0.02209 -0.18277,0.06497 -0.3321,0.199359 -0.3321,0.298229 0,0.099 0.14962,0.179489 0.3321,0.179489 0.18257,0 0.33209,-0.133671 0.33209,-0.297538 0,-0.122485 -0.0836,-0.199121 -0.20261,-0.202271 z" />
      <path
         style="fill:#666666;fill-opacity:1;stroke-width:0.251966"
         d="m 80.701189,50.61513 c 0,-0.105075 0.149283,-0.191174 0.332095,-0.191174 0.182483,0 0.332051,0.08609 0.332051,0.191174 0,0.105076 -0.149283,0.1912 -0.332051,0.1912 -0.182482,0 -0.332095,-0.08609 -0.332095,-0.1912 z"
         id="path14346" />
      <path
         style="fill:#666666;fill-opacity:1;stroke-width:0.251966"
         d="m 80.867226,51.762276 c 0.113007,-0.105074 0.420566,-0.191186 0.683736,-0.191186 0.263302,0 0.478521,0.08596 0.478521,0.191186 0,0.105076 -0.307691,0.191174 -0.683737,0.191174 -0.376067,0 -0.591395,-0.08596 -0.47852,-0.191174 z"
         id="path14322" />
      <path
         style="fill:#666666;fill-opacity:1;stroke-width:0.251966"
         d="m 75.908528,53.833551 c 0.195893,-1.35617 0.47575,-1.41262 0.47575,-0.09596 0,0.595866 -0.13917,1.083379 -0.309119,1.083379 -0.170171,0 -0.244834,-0.444355 -0.166653,-0.987445 z"
         id="path14280" />
      <path
         style="fill:#666666;fill-opacity:1;stroke-width:0.251966"
         d="m 69.956181,54.320051 c -0.31565,-0.381032 -0.492723,-0.739492 -0.393612,-0.796574 0.09916,-0.0571 0.21744,-0.06798 0.263324,-0.02405 0.544875,0.522832 1.245254,1.310039 1.245254,1.399643 0,0.343244 -0.616151,0.02343 -1.114966,-0.578928 z"
         id="path14278" />
      <path
         style="fill:#666666;fill-opacity:1;stroke-width:0.251966"
         d="m 78.630434,54.200416 c 0.08596,-0.552026 0.310133,-1.089733 0.498243,-1.194886 0.232566,-0.12995 0.273372,-0.07912 0.127078,0.15907 -0.118284,0.192605 -0.215021,0.730301 -0.215021,1.194872 0,0.464587 -0.127518,0.844682 -0.283419,0.844682 -0.15566,0 -0.213043,-0.451661 -0.127078,-1.003712 z"
         id="path14276" />
      <path
         style="fill:#666666;fill-opacity:1;stroke-width:0.251966"
         d="m 77.279715,53.818043 c 0.18468,-1.328357 0.300349,-1.63976 0.54472,-1.465727 0.234633,0.16712 -0.20051,2.851813 -0.462097,2.851813 -0.151482,0 -0.188638,-0.623744 -0.08244,-1.386086 z"
         id="path14274" />
      <path
         style="fill:#666666;fill-opacity:1;stroke-width:0.251966"
         d="m 74.924554,54.992515 c -0.364328,-0.659722 -0.543314,-2.30009 -0.239229,-2.191876 0.373518,0.132889 0.882247,2.172646 0.584603,2.344007 -0.10927,0.06279 -0.264445,-0.0038 -0.345463,-0.152119 z"
         id="path14272" />
      <path
         style="fill:#666666;fill-opacity:1;stroke-width:0.251966"
         d="M 73.919693,54.992515 C 73.397046,54.098766 73.155972,53.282 73.390209,53.198661 c 0.316243,-0.112672 1.172173,1.779852 0.880838,1.947568 -0.10751,0.06191 -0.265633,-0.0076 -0.351354,-0.153752 z"
         id="path14270" />
      <path
         style="fill:#666666;fill-opacity:1;stroke-width:0.251966"
         d="m 68.614498,54.791605 c -0.29261,-0.240509 -0.525394,-0.611704 -0.517304,-0.824893 0.01319,-0.282122 0.198093,-0.187591 0.688156,0.347344 0.757653,0.826893 0.643238,1.146716 -0.17083,0.477549 z"
         id="path14268" />
      <path
         style="fill:#666666;fill-opacity:1;stroke-width:0.251966"
         d="m 66.739021,54.804765 c -0.492216,-0.529491 -0.107949,-0.72402 0.506158,-0.256459 0.568245,0.432429 0.631102,0.65519 0.1849,0.65519 -0.176106,0 -0.487161,-0.179426 -0.691035,-0.398731 z"
         id="path14266" />
      <path
         style="fill:#666666;fill-opacity:1;stroke-width:0.251966"
         d="m 83.536235,54.773245 c 0.242547,-0.651785 0.401394,-0.833654 0.612349,-0.701018 0.250967,0.157739 -0.209525,1.322355 -0.522823,1.322355 -0.187979,0 -0.225178,-0.257295 -0.08925,-0.621337 z"
         id="path14264" />
      <path
         style="fill:#666666;fill-opacity:1;stroke-width:0.251966"
         d="m 81.995844,55.283063 c -0.106851,-0.557558 0.135434,-1.540698 0.420237,-1.704718 0.221617,-0.127456 0.253518,0.127307 0.0963,0.764736 -0.225684,0.914903 -0.444794,1.313507 -0.516468,0.939982 z"
         id="path14262" />
      <path
         style="fill:#666666;fill-opacity:1;stroke-width:0.251966"
         d="m 80.168012,54.305076 c 0.213261,-1.044134 0.38851,-1.361145 0.657507,-1.188746 0.27247,0.174718 -0.228763,2.278252 -0.543225,2.278252 -0.214142,0 -0.255828,-0.396489 -0.114327,-1.089506 z"
         id="path14260" />
      <path
         style="fill:#666666;fill-opacity:1;stroke-width:0.251966"
         d="m 72.40874,54.94315 c -0.187757,-0.277461 -0.485116,-0.716512 -0.660783,-0.975658 -0.180943,-0.267132 -0.192814,-0.516161 -0.02858,-0.575041 0.329259,-0.117101 1.516119,1.77508 1.220211,1.945429 -0.104871,0.06038 -0.344187,-0.117356 -0.531946,-0.39473 z"
         id="path14258" />
      <path
         style="fill:#666666;fill-opacity:1;stroke-width:0.251966"
         d="m 86.346394,55.278117 c 0,-0.21124 0.234368,-0.551063 0.520711,-0.755175 0.49512,-0.352827 0.510312,-0.342863 0.308616,0.202441 -0.263875,0.712955 -0.829327,1.089924 -0.829327,0.552734 z"
         id="path14256" />
      <path
         style="fill:#666666;fill-opacity:1;stroke-width:0.251966"
         d="m 84.932949,55.351297 c -0.110589,-0.166108 0.0067,-0.460927 0.263588,-0.655153 0.358719,-0.272588 0.461833,-0.28773 0.451983,-0.06646 -0.0043,0.15774 -0.125539,0.452533 -0.263324,0.655139 -0.213262,0.313467 -0.280846,0.323354 -0.451962,0.06646 z"
         id="path14254" />
      <path
         style="fill:#666666;fill-opacity:1;stroke-width:0.251966"
         d="m 65.49234,55.355097 c -0.218979,-0.126091 -0.398493,-0.298251 -0.398493,-0.382348 0,-0.281704 0.500177,-0.156917 0.91916,0.229406 0.454095,0.418618 0.114106,0.518453 -0.520667,0.152929 z"
         id="path14252" />
      <path
         style="fill:#666666;fill-opacity:1;stroke-width:0.251966"
         d="m 87.685262,55.573807 c -0.0043,-0.163867 0.209085,-0.46504 0.476961,-0.669154 0.389808,-0.296692 0.489688,-0.311352 0.498131,-0.07317 0.0043,0.163867 -0.209085,0.465053 -0.477004,0.66914 -0.389786,0.296692 -0.489667,0.311353 -0.498088,0.07317 z"
         id="path14250" />
      <path
         style="fill:#666666;fill-opacity:1;stroke-width:0.251966"
         d="m 94.356628,56.282341 c -0.352688,-0.244648 -0.191711,-0.506046 0.311342,-0.506046 0.372371,0 0.650831,0.548698 0.335375,0.6609 -0.153899,0.05482 -0.44499,-0.01481 -0.646717,-0.154917 z"
         id="path14248" />
      <path
         style="fill:#666666;fill-opacity:1;stroke-width:0.251966"
         d="m 90.529782,56.40033 c -0.399768,-0.230115 -0.181818,-0.432899 0.465592,-0.432899 0.365302,0 0.664154,0.07672 0.664154,0.170729 0,0.214886 -0.86374,0.41534 -1.129746,0.26217 z"
         id="path14246" />
      <path
         style="fill:#666666;fill-opacity:1;stroke-width:0.251966"
         d="m 86.257418,56.158593 c -0.651485,-0.438051 -0.607139,-0.452559 0.585459,-0.191529 0.479466,0.104949 0.779242,0.277033 0.666169,0.382361 -0.304261,0.283439 -0.617317,0.235698 -1.251628,-0.190832 z"
         id="path14244" />
      <path
         style="fill:#666666;fill-opacity:1;stroke-width:0.251966"
         d="m 83.098168,56.320309 c 0.172149,-0.297681 0.915246,-0.349827 0.941278,-0.06596 0.0088,0.105076 -0.231554,0.220887 -0.536321,0.257234 -0.346299,0.04127 -0.498089,-0.03026 -0.404957,-0.1912 z"
         id="path14242" />
      <path
         style="fill:#666666;fill-opacity:1;stroke-width:0.251966"
         d="m 78.771803,56.231689 c 0.295533,-0.170184 0.701149,-0.251144 0.901308,-0.179919 0.659376,0.234633 0.379695,0.489309 -0.537399,0.489309 -0.830447,0 -0.859073,-0.02431 -0.363909,-0.30939 z"
         id="path14240" />
      <path
         style="fill:#666666;fill-opacity:1;stroke-width:0.251966"
         d="m 74.796376,56.511734 c 0.172368,-0.297694 0.915225,-0.349826 0.9413,-0.06596 0.0088,0.105075 -0.231577,0.220924 -0.536343,0.257244 -0.346277,0.04139 -0.498067,-0.03025 -0.404957,-0.191173 z"
         id="path14238" />
      <path
         style="fill:#666666;fill-opacity:1;stroke-width:0.251966"
         d="m 71.403199,56.561744 c 0,-0.214898 0.863777,-0.41534 1.129783,-0.26217 0.399746,0.230127 0.181823,0.432912 -0.465637,0.432912 -0.365293,0 -0.664146,-0.07672 -0.664146,-0.170742 z"
         id="path14236" />
      <path
         style="fill:#666666;fill-opacity:1;stroke-width:0.251966"
         d="m 68.411547,56.447807 c 0.414741,-0.287743 0.999211,-0.22647 0.999211,0.104821 0,0.09887 -0.317146,0.179895 -0.704777,0.179895 -0.586536,0 -0.635938,-0.04772 -0.294434,-0.284654 z"
         id="path14234" />
      <path
         style="fill:#666666;fill-opacity:1;stroke-width:0.251966"
         d="m 64.505859,56.696569 c 0.205347,-0.354497 0.920083,-0.413301 0.920083,-0.07558 0,0.166488 -0.236655,0.302706 -0.525768,0.302706 -0.289201,0 -0.466627,-0.102163 -0.394315,-0.227014 z"
         id="path14232" />
      <path
         style="fill:#666666;fill-opacity:1;stroke-width:0.251966"
         d="m 60.776936,56.732269 c 0,-0.105075 0.224167,-0.191174 0.498111,-0.191174 0.273942,0 0.498088,0.08596 0.498088,0.191174 0,0.105077 -0.224146,0.191188 -0.498088,0.191188 -0.273922,0 -0.498111,-0.08596 -0.498111,-0.191188 z"
         id="path14230" />
      <path
         style="fill:#666666;fill-opacity:1;stroke-width:0.251966"
         d="m 92.731855,58.226332 c 0.205348,-0.354497 0.920106,-0.413289 0.920106,-0.07558 0,0.166488 -0.236676,0.302718 -0.525767,0.302718 -0.289196,0 -0.466597,-0.102163 -0.394339,-0.227026 z"
         id="path14228" />
      <path
         style="fill:#666666;fill-opacity:1;stroke-width:0.251966"
         d="m 89.002981,58.262032 c 0,-0.105075 0.298849,-0.191174 0.664123,-0.191174 0.365291,0 0.664154,0.08596 0.664154,0.191174 0,0.105076 -0.298863,0.1912 -0.664154,0.1912 -0.365274,0 -0.664123,-0.08596 -0.664123,-0.1912 z"
         id="path14226" />
      <path
         style="fill:#666666;fill-opacity:1;stroke-width:0.251966"
         d="m 85.91057,58.329642 c -0.433056,-0.249307 -0.226212,-0.450064 0.463503,-0.450064 0.386445,0 0.633785,0.100264 0.560374,0.227025 -0.161815,0.279388 -0.716209,0.400186 -1.023877,0.223039 z"
         id="path14224" />
      <path
         style="fill:#666666;fill-opacity:1;stroke-width:0.251966"
         d="m 81.697432,58.262032 c 0,-0.105075 0.298852,-0.191174 0.664124,-0.191174 0.365295,0 0.664147,0.08596 0.664147,0.191174 0,0.105076 -0.298852,0.1912 -0.664147,0.1912 -0.365272,0 -0.664124,-0.08596 -0.664124,-0.1912 z"
         id="path14222" />
      <path
         style="fill:#666666;fill-opacity:1;stroke-width:0.251966"
         d="m 77.712572,58.254432 c 0,-0.246409 0.946115,-0.468942 1.24998,-0.293997 0.12378,0.07128 0.0043,0.209632 -0.263324,0.307453 -0.642798,0.234065 -0.98659,0.229356 -0.98659,-0.0133 z"
         id="path14220" />
      <path
         style="fill:#666666;fill-opacity:1;stroke-width:0.251966"
         d="m 73.603163,58.316212 c -0.104433,-0.06 -0.109929,-0.183122 -0.01539,-0.273613 0.233094,-0.217164 1.133632,-0.212227 1.133632,0.0076 0,0.211012 -0.861624,0.416592 -1.120726,0.267398 z"
         id="path14218" />
      <path
         style="fill:#666666;fill-opacity:1;stroke-width:0.251966"
         d="m 69.161549,58.21253 c 0.209304,-0.361751 1.245452,-0.413199 1.245452,-0.06191 0,0.17735 -0.284013,0.300795 -0.691806,0.300795 -0.405813,0 -0.634686,-0.09875 -0.553646,-0.238978 z"
         id="path14216" />
      <path
         style="fill:#666666;fill-opacity:1;stroke-width:0.251966"
         d="m 65.166312,58.23076 c 0.172588,-0.297706 0.915269,-0.349812 0.941278,-0.06596 0.0088,0.105076 -0.231554,0.220898 -0.536322,0.25722 -0.346298,0.04115 -0.498043,-0.03038 -0.404956,-0.191174 z"
         id="path14214" />
      <path
         style="fill:#666666;fill-opacity:1;stroke-width:0.251966"
         d="m 61.639593,58.502033 c -0.356368,-0.205137 -0.209085,-0.432911 0.279988,-0.432911 0.263017,0 0.561145,0.07697 0.662191,0.171146 0.211283,0.196795 -0.642887,0.434101 -0.942202,0.261765 z"
         id="path14212" />
      <path
         style="fill:#666666;fill-opacity:1;stroke-width:0.251966"
         d="m 78.314455,59.850083 c 0.239733,-0.05532 0.526098,-0.04848 0.636467,0.01481 0.110368,0.06355 -0.08596,0.108747 -0.435825,0.100391 -0.386883,-0.01013 -0.46555,-0.05444 -0.20073,-0.115582 z"
         id="path14210" />
      <path
         style="fill:#666666;fill-opacity:1;stroke-width:0.251966"
         d="m 93.402757,59.932993 c 0.209309,-0.361751 1.245427,-0.413174 1.245427,-0.06178 0,0.177338 -0.283984,0.300795 -0.691779,0.300795 -0.405814,0 -0.634711,-0.09874 -0.553648,-0.238989 z"
         id="path14208" />
      <path
         style="fill:#666666;fill-opacity:1;stroke-width:0.251966"
         d="m 89.667104,59.980713 c 0,-0.105076 0.298852,-0.191187 0.664154,-0.191187 0.365264,0 0.664116,0.08596 0.664116,0.191187 0,0.105076 -0.298852,0.191187 -0.664116,0.191187 -0.365302,0 -0.664154,-0.08596 -0.664154,-0.191187 z"
         id="path14206" />
      <path
         style="fill:#666666;fill-opacity:1;stroke-width:0.251966"
         d="m 85.018143,59.980713 c 0,-0.105076 0.224146,-0.191187 0.498067,-0.191187 0.273943,0 0.498132,0.08596 0.498132,0.191187 0,0.105076 -0.224167,0.191187 -0.498132,0.191187 -0.273943,0 -0.498067,-0.08596 -0.498067,-0.191187 z"
         id="path14204" />
      <path
         style="fill:#666666;fill-opacity:1;stroke-width:0.251966"
         d="m 81.697432,60.001353 c 0,-0.09381 0.224144,-0.220253 0.498066,-0.280791 0.303447,-0.0671 0.498132,-3.8e-4 0.498132,0.170742 0,0.154435 -0.224167,0.280779 -0.498132,0.280779 -0.273943,0 -0.498066,-0.07672 -0.498066,-0.17073 z"
         id="path14202" />
      <path
         style="fill:#666666;fill-opacity:1;stroke-width:0.251966"
         d="m 74.391859,59.980713 c 0,-0.105076 0.224145,-0.191187 0.498067,-0.191187 0.273942,0 0.498131,0.08596 0.498131,0.191187 0,0.105076 -0.224166,0.191187 -0.498131,0.191187 -0.273922,0 -0.498067,-0.08596 -0.498067,-0.191187 z"
         id="path14200" />
      <path
         style="fill:#666666;fill-opacity:1;stroke-width:0.251966"
         d="m 71.071147,60.076413 c 0,-0.15774 0.224145,-0.28678 0.498088,-0.28678 0.273922,0 0.49811,0.129065 0.49811,0.28678 0,0.15774 -0.224167,0.286768 -0.49811,0.286768 -0.273943,0 -0.498088,-0.129078 -0.498088,-0.286768 z"
         id="path14198" />
      <path
         style="fill:#666666;fill-opacity:1;stroke-width:0.251966"
         d="m 68.165504,60.124133 c 0.07607,-0.131433 0.337614,-0.238978 0.581151,-0.238978 0.243558,0 0.505035,0.107607 0.581107,0.238978 0.08223,0.142155 -0.153242,0.238977 -0.581107,0.238977 -0.42802,0 -0.663465,-0.09685 -0.581151,-0.238977 z"
         id="path14196" />
      <path
         style="fill:#666666;fill-opacity:1;stroke-width:0.251966"
         d="m 64.761796,60.363185 c 0,-0.105074 0.224167,-0.191174 0.49811,-0.191174 0.273943,0 0.498088,0.08596 0.498088,0.191174 0,0.105076 -0.224145,0.191174 -0.498088,0.191174 -0.273922,0 -0.49811,-0.08596 -0.49811,-0.191174 z"
         id="path14194" />
      <path
         style="fill:#666666;fill-opacity:1;stroke-width:0.251966"
         d="m 61.971666,60.604922 c -0.399746,-0.23014 -0.181823,-0.432911 0.465615,-0.432911 0.365273,0 0.664169,0.07672 0.664169,0.170717 0,0.214898 -0.863755,0.415364 -1.129784,0.262194 z"
         id="path5020" />
    </g>
  </g>
</svg>
