<?xml version="1.0" encoding="UTF-8" standalone="no"?>
<svg
   version="1.1"
   width="100"
   height="100"
   id="svg4460"
   sodipodi:docname="vigne.svg"
   inkscape:version="1.2.2 (732a01da63, 2022-12-09)"
   xmlns:inkscape="http://www.inkscape.org/namespaces/inkscape"
   xmlns:sodipodi="http://sodipodi.sourceforge.net/DTD/sodipodi-0.dtd"
   xmlns="http://www.w3.org/2000/svg"
   xmlns:svg="http://www.w3.org/2000/svg"
   xmlns:rdf="http://www.w3.org/1999/02/22-rdf-syntax-ns#"
   xmlns:cc="http://creativecommons.org/ns#"
   xmlns:dc="http://purl.org/dc/elements/1.1/">
  <sodipodi:namedview
     pagecolor="#ffffff"
     bordercolor="#666666"
     borderopacity="1"
     objecttolerance="10"
     gridtolerance="10"
     guidetolerance="10"
     inkscape:pageopacity="0"
     inkscape:pageshadow="2"
     inkscape:window-width="1920"
     inkscape:window-height="1009"
     id="namedview11"
     showgrid="true"
     inkscape:zoom="6.7"
     inkscape:cx="51.641791"
     inkscape:cy="53.880597"
     inkscape:window-x="-8"
     inkscape:window-y="-8"
     inkscape:window-maximized="1"
     inkscape:current-layer="text5282"
     inkscape:document-rotation="0"
     inkscape:pagecheckerboard="0"
     showguides="true"
     inkscape:guide-bbox="true"
     inkscape:showpageshadow="0"
     inkscape:deskcolor="#d1d1d1">
    <inkscape:grid
       type="xygrid"
       id="grid823"
       originx="0"
       originy="0" />
    <sodipodi:guide
       position="0,86"
       orientation="66,0"
       id="guide957"
       inkscape:locked="false" />
    <sodipodi:guide
       position="0,20"
       orientation="0,50"
       id="guide959"
       inkscape:locked="false" />
    <sodipodi:guide
       position="8.9999971,64.32985"
       orientation="8.5387222,0"
       id="guide1517"
       inkscape:locked="false" />
    <sodipodi:guide
       position="8.9999971,55.791128"
       orientation="0,26.227758"
       id="guide1519"
       inkscape:locked="false" />
    <sodipodi:guide
       position="95,90"
       orientation="-8.5387222,0"
       id="guide1521"
       inkscape:locked="false" />
    <sodipodi:guide
       position="70,70"
       orientation="0,-26.227758"
       id="guide1523"
       inkscape:locked="false" />
    <sodipodi:guide
       position="7.9247812,20.000001"
       orientation="0,-6.8495616"
       id="guide4054"
       inkscape:locked="false" />
    <sodipodi:guide
       position="85,75"
       orientation="0,6.8495616"
       id="guide4058"
       inkscape:locked="false" />
  </sodipodi:namedview>
  <defs
     id="defs4462" />
  <metadata
     id="metadata4465">
    <rdf:RDF>
      <cc:Work
         rdf:about="">
        <dc:format>image/svg+xml</dc:format>
        <dc:type
           rdf:resource="http://purl.org/dc/dcmitype/StillImage" />
      </cc:Work>
    </rdf:RDF>
  </metadata>
  <g
     aria-label="C"
     id="text3215"
     style="font-size:32px;line-height:1.25"
     transform="translate(-37.75,-4)">
    <g
       aria-label="A"
       id="text5282"
       transform="matrix(1.6290909,0,0,2.8292029,-41.002727,-68.776958)">
      <path
         id="path11241"
         style="fill:#666666;fill-opacity:1;stroke-width:0.247046"
         d="m 71.266419,39.355426 c 0,-0.388972 -0.24706,-0.755824 -0.651181,-0.966303 -0.835509,-0.435332 -0.824106,-0.752547 0.03945,-1.100818 0.592395,-0.238866 0.714837,-0.521437 0.859653,-1.98403 0.09291,-0.93804 0.300563,-1.752363 0.461525,-1.809635 0.485174,-0.172634 2.524659,1.263248 2.7421,1.93052 0.249323,0.765605 -0.415244,1.416642 -1.809111,1.771863 -0.762692,0.194369 -0.991342,0.373158 -0.991342,0.775113 0,0.291508 0.215781,0.57017 0.488364,0.63037 0.268593,0.05934 0.488363,0.183235 0.488363,0.275298 0,0.09198 -0.21977,0.167395 -0.488363,0.167395 -0.268573,0 -0.488364,0.126559 -0.488364,0.281169 0,0.215866 0.41602,0.281181 1.790701,0.281181 0.984918,0 1.790745,0.08428 1.790745,0.187454 0,0.105631 -0.922511,0.187442 -2.116313,0.187442 h -2.116313 z m 2.271865,-3.572785 c -0.0021,-0.112954 -0.293752,-0.416143 -0.643937,-0.673889 l -0.636694,-0.468647 -0.0065,1.01316 c -0.0065,1.001393 3.23e-4,1.009238 0.643937,0.673913 0.358118,-0.18661 0.647924,-0.431658 0.643915,-0.544537 z" />
      <path
         id="path11237"
         style="fill:#666666;fill-opacity:1;stroke-width:0.247046"
         d="m 54.172394,41.928853 c 0.125891,-0.643267 0.02242,-0.86596 -0.528415,-1.153757 -0.894036,-0.465817 -0.863771,-0.753292 0.123303,-1.173244 0.735832,-0.313007 0.813479,-0.481718 0.870044,-1.890143 0.04096,-1.028563 0.188404,-1.546464 0.440141,-1.546464 0.20802,0 0.915269,0.309296 1.57186,0.687306 1.838233,1.058342 1.560779,2.214495 -0.647386,2.697863 -0.6016,0.131598 -0.76349,0.307185 -0.76349,0.827817 0,0.462341 0.146369,0.660718 0.488407,0.660718 0.268594,0 0.488342,0.08428 0.488342,0.187467 0,0.103024 -0.293019,0.187429 -0.651137,0.187429 -0.434128,0 -0.65118,0.124969 -0.65118,0.374908 0,0.302556 0.235548,0.381089 1.220941,0.406969 0.671529,0.01775 1.514001,0.04792 1.87212,0.06715 0.358161,0.01936 0.916239,0.04716 1.240169,0.06169 0.323973,0.01452 0.498452,0.110843 0.387802,0.213992 -0.1108,0.103024 -1.419972,0.187454 -2.909529,0.187454 h -2.708299 z m 2.171627,-4.285958 c -0.613866,-0.666392 -0.671809,-0.61704 -0.852582,0.725661 l -0.107352,0.797418 0.772048,-0.444481 c 0.763898,-0.439813 0.765882,-0.451133 0.187973,-1.078598 z" />
      <path
         id="path11231"
         style="fill:#666666;fill-opacity:1;stroke-width:0.247046"
         d="m 99.681393,44.986766 -2.930295,-0.105258 -0.09959,-0.589583 c -0.05454,-0.324277 -0.384353,-0.738011 -0.732552,-0.919433 -0.816846,-0.425601 -0.79895,-0.534124 0.181287,-1.09836 0.772413,-0.444678 0.808956,-0.560648 0.711173,-2.257938 -0.08855,-1.534361 -0.02927,-1.789141 0.413974,-1.789141 0.850945,0 2.85221,1.076017 3.04087,1.634977 0.2313,0.685532 -0.597395,1.666841 -1.734287,2.053492 -1.016325,0.345651 -1.530945,1.519194 -0.742578,1.693354 0.583126,0.128855 0.540116,0.429114 -0.06142,0.429114 -0.2686,0 -0.488409,0.126558 -0.488409,0.281181 0,0.211348 0.39291,0.281169 1.582485,0.281169 2.287239,0 4.616849,0.210988 4.414179,0.399794 -0.0962,0.08937 -0.27565,0.146704 -0.39949,0.12713 -0.12374,-0.01948 -1.5436,-0.08267 -3.155233,-0.140536 z m -3.093064,-1.990709 c 0,-0.16068 -0.148739,-0.239264 -0.330936,-0.174507 -0.181937,0.06467 -0.24656,0.196266 -0.14335,0.29224 0.279053,0.259993 0.474481,0.211522 0.474481,-0.117795 z m 2.178481,-2.234242 c 0.5099,-0.615649 0.506815,-0.673094 -0.05584,-1.030985 -0.924321,-0.588018 -1.145961,-0.461919 -1.145961,0.651981 0,1.185123 0.423387,1.318669 1.20171,0.379004 z" />
      <path
         id="path11264"
         style="fill:#666666;fill-opacity:1;stroke-width:0.247046"
         d="m 88.110218,40.248221 c 0,-0.330161 -0.30552,-0.681486 -0.813974,-0.936005 -1.026156,-0.513679 -1.037646,-0.932627 -0.03147,-1.152825 1.075887,-0.23549 1.161057,-0.358126 1.22855,-1.768934 0.03233,-0.680467 0.18668,-1.237182 0.342706,-1.237182 0.893712,0 2.216745,0.627714 2.474238,1.173903 0.35079,0.744031 -0.0043,1.193899 -1.272526,1.609023 -0.520547,0.170498 -0.970626,0.436524 -1.000137,0.591172 -0.107352,0.563256 0.07458,1.017765 0.462992,1.155966 0.28931,0.1029 0.220781,0.218237 -0.252212,0.423999 -0.598517,0.260378 -0.463918,0.28308 1.710877,0.288579 1.349722,0.0025 2.360528,0.08614 2.360528,0.193412 0,0.109355 -1.085306,0.187442 -2.604699,0.187442 H 88.110394 Z M 88.385,38.645937 c -0.07631,-0.202051 -0.256178,-0.244154 -0.566355,-0.132603 -0.273359,0.09843 -0.36644,0.295617 -0.233285,0.495049 0.271117,0.40692 0.970842,0.08999 0.799856,-0.362483 z m 1.799496,-1.660461 c 0.233048,-0.212751 0.205218,-0.387755 -0.09485,-0.596 -0.581595,-0.403457 -1.0024,-0.202994 -1.0024,0.47751 0,0.600406 0.509166,0.65537 1.097422,0.11854 z" />
      <path
         id="path11264-2"
         style="font-size:32px;line-height:1.25;fill:#666666;fill-opacity:1;stroke-width:0.247046"
         d="m 62.961688,36.120278 c 0,-0.330161 -0.30552,-0.681486 -0.813974,-0.936005 -1.026156,-0.51368 -1.037646,-0.932627 -0.03147,-1.152825 1.075887,-0.23549 1.161057,-0.358126 1.22855,-1.768935 0.03233,-0.680467 0.18668,-1.237181 0.342706,-1.237181 0.893712,0 2.216745,0.627713 2.474238,1.173903 0.35079,0.744031 -0.0043,1.193899 -1.272526,1.609023 -0.520547,0.170498 -0.970626,0.436524 -1.000137,0.591172 -0.107352,0.563256 0.07458,1.017765 0.462992,1.155966 0.28931,0.1029 0.220781,0.218237 -0.252212,0.423999 -0.598517,0.260378 -0.463918,0.28308 1.710877,0.288579 1.349722,0.0025 2.360528,0.08614 2.360528,0.193412 0,0.109355 -1.085306,0.187442 -2.604699,0.187442 h -2.604697 z m 0.274782,-1.602284 c -0.07631,-0.202051 -0.256178,-0.244154 -0.566355,-0.132603 -0.273359,0.09843 -0.36644,0.295617 -0.233285,0.495049 0.271117,0.40692 0.970842,0.08999 0.799856,-0.362483 z m 1.799496,-1.660461 c 0.233048,-0.212751 0.205218,-0.387755 -0.09485,-0.596 -0.581595,-0.403457 -1.0024,-0.202994 -1.0024,0.47751 0,0.600406 0.509166,0.65537 1.097422,0.11854 z" />
      <path
         id="path11264-2-6"
         style="font-size:32px;line-height:1.25;fill:#666666;fill-opacity:1;stroke-width:0.247046"
         d="m 89.235818,30.753462 c 0,-0.330161 -0.30552,-0.681486 -0.813974,-0.936005 -1.026156,-0.51368 -1.037646,-0.932627 -0.03147,-1.152825 1.075887,-0.23549 1.161057,-0.358126 1.22855,-1.768935 0.03233,-0.680467 0.18668,-1.237181 0.342706,-1.237181 0.893712,0 2.216745,0.627713 2.474238,1.173903 0.35079,0.744031 -0.0043,1.193899 -1.272526,1.609023 -0.520547,0.170498 -0.970626,0.436524 -1.000137,0.591172 -0.107352,0.563256 0.07458,1.017765 0.462992,1.155966 0.28931,0.1029 0.220781,0.218237 -0.252212,0.423999 -0.598517,0.260378 -0.463918,0.28308 1.710877,0.288579 1.349722,0.0025 2.360528,0.08614 2.360528,0.193412 0,0.109355 -1.085306,0.187442 -2.604699,0.187442 H 89.235994 Z M 89.5106,29.151178 c -0.07631,-0.202051 -0.256178,-0.244154 -0.566355,-0.132603 -0.273359,0.09843 -0.36644,0.295617 -0.233285,0.495049 0.271117,0.40692 0.970842,0.08999 0.799856,-0.362483 z m 1.799496,-1.660461 c 0.233048,-0.212751 0.205218,-0.387755 -0.09485,-0.596 -0.581595,-0.403457 -1.0024,-0.202994 -1.0024,0.47751 0,0.600406 0.509166,0.65537 1.097422,0.11854 z" />
      <path
         id="path11227"
         style="fill:#666666;fill-opacity:1;stroke-width:0.247046"
         d="m 81.367064,45.033288 c -0.223778,-0.04903 -0.406966,-0.274292 -0.406966,-0.500535 0,-0.226243 -0.293017,-0.555795 -0.651179,-0.732351 -0.767542,-0.378347 -0.824193,-0.624549 -0.190991,-0.830845 0.533416,-0.173813 0.858834,-3.427285 0.41339,-4.13321 -0.165986,-0.263072 -0.140334,-0.421766 0.06833,-0.421766 0.428221,0 2.555549,1.320693 3.371292,2.092988 0.782286,0.740581 0.444452,1.26928 -1.203976,1.88411 -0.856721,0.319561 -1.148467,0.560065 -1.151464,0.949347 -0.0021,0.292228 0.210607,0.568792 0.484354,0.629266 0.268594,0.05946 0.488363,0.192257 0.488363,0.295356 0,0.103024 -0.219791,0.138945 -0.488363,0.07956 -0.268595,-0.05934 -0.488386,-0.02606 -0.488386,0.07361 0,0.0998 0.647343,0.18157 1.438512,0.18157 1.503935,0 2.468547,0.13881 2.468547,0.354899 0,0.146058 -3.537385,0.21244 -4.151251,0.07795 z m 1.242605,-3.344766 c 1.043402,-0.310649 1.01415,-0.4346 -0.330699,-1.399426 l -0.653206,-0.468635 -0.05799,0.56235 c -0.03168,0.309283 -0.08688,0.794314 -0.121364,1.077841 -0.07416,0.602976 -0.0873,0.600333 1.1636,0.22787 z" />
      <path
         id="path11221"
         style="fill:#666666;fill-opacity:1;stroke-width:0.247046"
         d="m 67.000844,47.0971 c -0.739992,-0.06367 -0.895372,-0.171392 -0.895372,-0.620428 0,-0.35146 -0.230051,-0.614159 -0.651159,-0.743957 -0.835703,-0.257498 -0.822489,-0.526911 0.05217,-1.062934 0.600178,-0.367808 0.715678,-0.685755 0.787439,-2.167749 0.06403,-1.318756 0.195087,-1.749868 0.545121,-1.791363 0.666809,-0.07894 3.173532,1.55658 3.173532,2.070695 0,0.617126 -0.888194,1.262143 -2.158865,1.567802 -0.89257,0.214711 -1.097013,0.366504 -1.097013,0.814423 0,0.32023 0.238308,0.637382 0.569783,0.758169 0.408023,0.148653 0.454261,0.23559 0.162968,0.306106 -0.947604,0.229247 -0.281551,0.442121 1.383756,0.442121 0.984919,0 1.790724,0.08428 1.790724,0.187442 0,0.103024 -0.427574,0.187454 -0.950126,0.187454 -0.522595,0 -1.145255,0.02917 -1.383758,0.06467 -0.238307,0.03562 -0.836523,0.03004 -1.328982,-0.01291 z m -0.895372,-1.739268 c 0,-0.103024 -0.155207,-0.187454 -0.344797,-0.187454 -0.189697,0 -0.254216,0.08428 -0.14335,0.187454 0.111016,0.103024 0.26577,0.187454 0.344796,0.187454 0.07889,0 0.143351,-0.08428 0.143351,-0.187454 z m 2.355548,-2.155671 c 0.37836,-0.29651 0.290582,-0.605471 -0.262386,-0.923864 -0.856334,-0.493014 -1.116306,-0.337981 -1.116306,0.665621 0,0.887533 0.04311,0.940746 0.569782,0.702946 0.313368,-0.141539 0.677437,-0.341617 0.808996,-0.444703 z" />
      <path
         id="path11221-9"
         style="font-size:32px;line-height:1.25;fill:#666666;fill-opacity:1;stroke-width:0.247046"
         d="m 96.797395,36.24285 c -0.739992,-0.06367 -0.895372,-0.171392 -0.895372,-0.620428 0,-0.35146 -0.230051,-0.614159 -0.651159,-0.743957 -0.835703,-0.257498 -0.822489,-0.526911 0.05217,-1.062934 0.600178,-0.367808 0.715678,-0.685755 0.787439,-2.167749 0.06403,-1.318756 0.195087,-1.749868 0.545121,-1.791363 0.666809,-0.07894 3.173532,1.55658 3.173532,2.070695 0,0.617126 -0.888194,1.262143 -2.158865,1.567802 -0.89257,0.214711 -1.097013,0.366504 -1.097013,0.814423 0,0.32023 0.238308,0.637382 0.569783,0.758169 0.408023,0.148653 0.454261,0.23559 0.162968,0.306106 -0.947604,0.229247 -0.281551,0.442121 1.383756,0.442121 0.984919,0 1.790725,0.08428 1.790725,0.187442 0,0.103024 -0.42757,0.187454 -0.950127,0.187454 -0.522595,0 -1.145255,0.02917 -1.383758,0.06467 -0.238307,0.03562 -0.836523,0.03004 -1.328982,-0.01291 z m -0.895372,-1.739268 c 0,-0.103024 -0.155207,-0.187454 -0.344797,-0.187454 -0.189697,0 -0.254216,0.08428 -0.14335,0.187454 0.111016,0.103024 0.26577,0.187454 0.344796,0.187454 0.07889,0 0.143351,-0.08428 0.143351,-0.187454 z m 2.355548,-2.155671 c 0.37836,-0.29651 0.290582,-0.605471 -0.262386,-0.923864 -0.856334,-0.493014 -1.116306,-0.337981 -1.116306,0.665621 0,0.887533 0.04311,0.940746 0.569782,0.702946 0.313368,-0.141539 0.677437,-0.341617 0.808996,-0.444703 z" />
      <path
         id="path11264-22"
         style="font-size:32px;line-height:1.25;fill:#666666;fill-opacity:1;stroke-width:0.247046"
         d="m 103.50105,31.216613 c 0,-0.330161 -0.30552,-0.681486 -0.81398,-0.936005 -1.02615,-0.513679 -1.03764,-0.932627 -0.0315,-1.152825 1.07589,-0.23549 1.16106,-0.358126 1.22855,-1.768934 0.0323,-0.680467 0.18668,-1.237182 0.34271,-1.237182 0.89371,0 2.21674,0.627714 2.47424,1.173903 0.35079,0.744031 -0.004,1.193899 -1.27253,1.609023 -0.52055,0.170498 -0.97063,0.436524 -1.00014,0.591172 -0.10735,0.563256 0.0746,1.017765 0.463,1.155966 0.28931,0.1029 0.22078,0.218237 -0.25222,0.423999 -0.59851,0.260378 -0.46391,0.28308 1.71088,0.288579 1.34972,0.0025 2.36053,0.08614 2.36053,0.193412 0,0.109355 -1.08531,0.187442 -2.6047,0.187442 h -2.6047 z m 0.27478,-1.602284 c -0.0763,-0.202051 -0.25618,-0.244154 -0.56636,-0.132603 -0.27336,0.09843 -0.36644,0.295617 -0.23328,0.495049 0.27112,0.40692 0.97084,0.08999 0.79985,-0.362483 z m 1.79949,-1.660461 c 0.23305,-0.212751 0.20522,-0.387755 -0.0948,-0.596 -0.58159,-0.403457 -1.0024,-0.202994 -1.0024,0.47751 0,0.600406 0.50917,0.65537 1.09743,0.11854 z" />
      <path
         id="path11221-8"
         style="font-size:32px;line-height:1.25;fill:#666666;fill-opacity:1;stroke-width:0.247046"
         d="m 53.214804,34.475568 c -0.739992,-0.06367 -0.895372,-0.171392 -0.895372,-0.620428 0,-0.35146 -0.230051,-0.614159 -0.651159,-0.743957 -0.835703,-0.257498 -0.822489,-0.526911 0.05217,-1.062934 0.600178,-0.367808 0.715678,-0.685755 0.787439,-2.167749 0.06403,-1.318756 0.195087,-1.749868 0.545121,-1.791363 0.666809,-0.07894 3.173532,1.55658 3.173532,2.070695 0,0.617126 -0.888194,1.262143 -2.158865,1.567802 -0.89257,0.214711 -1.097013,0.366504 -1.097013,0.814423 0,0.32023 0.238308,0.637382 0.569783,0.758169 0.408023,0.148653 0.454261,0.23559 0.162968,0.306106 -0.947604,0.229247 -0.281551,0.442121 1.383756,0.442121 0.984919,0 1.790724,0.08428 1.790724,0.187442 0,0.103024 -0.427574,0.187454 -0.950126,0.187454 -0.522595,0 -1.145255,0.02917 -1.383758,0.06467 -0.238307,0.03562 -0.836523,0.03004 -1.328982,-0.01291 z M 52.319432,32.7363 c 0,-0.103024 -0.155207,-0.187454 -0.344797,-0.187454 -0.189697,0 -0.254216,0.08428 -0.14335,0.187454 0.111016,0.103024 0.26577,0.187454 0.344796,0.187454 0.07889,0 0.143351,-0.08428 0.143351,-0.187454 z m 2.355548,-2.155671 c 0.37836,-0.29651 0.290582,-0.605471 -0.262386,-0.923864 -0.856334,-0.493014 -1.116306,-0.337981 -1.116306,0.665621 0,0.887533 0.04311,0.940746 0.569782,0.702946 0.313368,-0.141539 0.677437,-0.341617 0.808996,-0.444703 z" />
      <path
         id="path11215"
         style="fill:#666666;fill-opacity:1;stroke-width:0.247046"
         d="m 82.479466,53.18391 c -0.119423,-0.06865 -0.217031,-0.32177 -0.217031,-0.562337 0,-0.240567 -0.118992,-0.437392 -0.264089,-0.437392 -0.145507,0 -0.585389,-0.172287 -0.977977,-0.38284 -0.652064,-0.349761 -0.67431,-0.42678 -0.257601,-0.890835 0.250832,-0.279393 0.729323,-0.650255 1.063126,-0.824167 0.693775,-0.361477 1.051355,-2.463377 0.455187,-2.675507 -0.189482,-0.06728 -0.344214,-0.244019 -0.344214,-0.392584 0,-0.441725 1.426223,-0.312361 2.705129,0.245371 2.017498,0.879849 1.946707,1.420874 -0.302395,2.311796 -1.356445,0.537289 -1.425943,0.609592 -1.425943,1.482453 0,0.735753 0.143351,0.975451 0.723589,1.209414 l 0.723631,0.291807 h -0.742817 c -0.412312,0 -0.653314,0.08341 -0.54163,0.187453 0.110801,0.103025 0.916498,0.187455 1.790745,0.187455 0.874204,0 1.68003,0.08428 1.790701,0.187429 0.225546,0.210045 -3.817101,0.270493 -4.178346,0.06244 z m -0.107782,-1.782054 c 0.197889,-0.436213 0.02889,-0.71727 -0.431994,-0.71727 -0.380796,0 -0.748335,0.697621 -0.492911,0.93557 0.332337,0.30958 0.727468,0.216313 0.924905,-0.2183 z m 1.977402,-2.760273 c 0.532123,-0.338502 0.522875,-0.370687 -0.188404,-0.657579 -0.693151,-0.279541 -0.762648,-0.277692 -0.947,0.02495 -0.226796,0.372426 -0.01725,0.988609 0.338911,0.988609 0.130418,0 0.488925,-0.160184 0.796666,-0.355943 z" />
      <path
         id="path11215-7"
         style="font-size:32px;line-height:1.25;fill:#666666;fill-opacity:1;stroke-width:0.247046"
         d="m 81.029552,33.444396 c -0.119423,-0.06865 -0.217031,-0.32177 -0.217031,-0.562337 0,-0.240567 -0.118992,-0.437392 -0.264089,-0.437392 -0.145507,0 -0.585389,-0.172287 -0.977977,-0.38284 -0.652064,-0.349761 -0.67431,-0.42678 -0.257601,-0.890835 0.250832,-0.279393 0.729323,-0.650255 1.063126,-0.824167 0.693775,-0.361477 1.051355,-2.463377 0.455187,-2.675507 -0.189482,-0.06728 -0.344214,-0.244019 -0.344214,-0.392584 0,-0.441725 1.426223,-0.312361 2.705129,0.245371 2.017498,0.879849 1.946707,1.420874 -0.302395,2.311796 -1.356445,0.537289 -1.425943,0.609592 -1.425943,1.482453 0,0.735753 0.143351,0.975451 0.723589,1.209414 l 0.723631,0.291807 h -0.742817 c -0.412312,0 -0.653314,0.08341 -0.54163,0.187453 0.110801,0.103025 0.916498,0.187455 1.790745,0.187455 0.874204,0 1.68003,0.08428 1.790701,0.187429 0.225546,0.210045 -3.817101,0.270493 -4.178346,0.06244 z M 80.92177,31.662342 c 0.197889,-0.436213 0.02889,-0.71727 -0.431994,-0.71727 -0.380796,0 -0.748335,0.697621 -0.492911,0.93557 0.332337,0.30958 0.727468,0.216313 0.924905,-0.2183 z m 1.977402,-2.760273 c 0.532123,-0.338502 0.522875,-0.370687 -0.188404,-0.657579 -0.693151,-0.279541 -0.762648,-0.277692 -0.947,0.02495 -0.226796,0.372426 -0.01725,0.988609 0.338911,0.988609 0.130418,0 0.488925,-0.160184 0.796666,-0.355943 z" />
      <path
         id="path11207"
         style="fill:#666666;fill-opacity:1;stroke-width:0.247046"
         d="m 98.867368,54.912432 c -1.006216,-0.08478 -1.151508,-0.167284 -1.24157,-0.705219 -0.05603,-0.335063 -0.228804,-0.609219 -0.383731,-0.609219 -0.36288,0 -1.304985,-0.54059 -1.304985,-0.748798 0,-0.08776 0.379996,-0.419668 0.844414,-0.737453 0.806104,-0.551551 0.839368,-0.662792 0.732571,-2.451412 -0.0616,-1.030513 0.0046,-1.873572 0.151982,-1.873473 0.512826,3.61e-4 3.806041,1.933437 3.798901,2.229911 -0.007,0.391218 -0.86642,0.978976 -2.189062,1.501258 -1.021872,0.403519 -1.055647,0.458693 -1.022625,1.670391 l 0.0341,1.253107 1.421696,0.0037 c 1.705751,0.0074 2.631991,0.378148 1.217901,0.4896 -0.50596,0.03997 -1.432712,0.02942 -2.059471,-0.02346 z m 1.302342,-4.787612 c 0,-0.113202 -0.423801,-0.439453 -0.941785,-0.725165 l -0.941807,-0.519489 -0.142708,0.906177 c -0.07824,0.4984 -0.08409,0.970784 -0.01292,1.049753 0.177198,0.195571 2.03882,-0.453877 2.03882,-0.711276 z" />
      <path
         id="path11201"
         style="fill:#666666;fill-opacity:1;stroke-width:0.247046"
         d="m 66.546404,55.5307 c -0.117698,-0.06765 -0.214056,-0.353819 -0.214056,-0.635746 0,-0.388226 -0.279588,-0.60758 -1.152736,-0.904165 -0.963189,-0.327182 -1.099211,-0.449122 -0.827189,-0.741773 0.178919,-0.192592 0.697785,-0.490617 1.152735,-0.662245 0.779205,-0.293916 0.82719,-0.40512 0.82719,-1.915936 v -1.603897 l 1.045319,0.132169 c 1.348987,0.170572 2.758159,0.774032 2.987715,1.279421 0.231064,0.508764 -1.072395,1.662583 -2.381006,2.107647 -1.40527,0.477907 -1.593589,1.438723 -0.319576,1.630547 0.341585,0.05139 0.621066,0.177847 0.621066,0.280945 0,0.103024 -0.293018,0.143278 -0.651159,0.08938 -0.445357,-0.06703 -0.65118,-0.0074 -0.65118,0.19392 0,0.425713 0.297524,0.469145 2.213339,0.323074 0.948725,-0.07236 1.800467,-0.06132 1.892751,0.02483 0.09205,0.08602 -0.02522,0.190867 -0.259865,0.233094 -0.896708,0.160979 -4.079315,0.286283 -4.283563,0.168699 z M 66.27865,53.232309 c -0.09894,-0.369223 -0.167494,-0.381648 -0.747817,-0.135632 -0.550857,0.233505 -0.577436,0.313466 -0.192716,0.580249 0.54967,0.3813 1.09324,0.124237 0.940728,-0.44463 z m 2.34921,-2.853553 c -1.305852,-0.608773 -1.645108,-0.456694 -1.635408,0.733059 l 0.0065,1.07783 1.183045,-0.733059 1.183065,-0.733035 -0.739583,-0.344795 z" />
      <path
         id="path11201-5"
         style="font-size:32px;line-height:1.25;fill:#666666;fill-opacity:1;stroke-width:0.247046"
         d="m 69.076112,32.189482 c -0.117698,-0.06765 -0.214056,-0.353819 -0.214056,-0.635746 0,-0.388226 -0.279588,-0.60758 -1.152736,-0.904165 -0.963189,-0.327182 -1.099211,-0.449122 -0.827189,-0.741773 0.178919,-0.192592 0.697785,-0.490617 1.152735,-0.662245 0.779205,-0.293916 0.82719,-0.40512 0.82719,-1.915936 V 25.72572 l 1.045319,0.132169 c 1.348987,0.170572 2.758159,0.774032 2.987715,1.279421 0.231064,0.508764 -1.072395,1.662583 -2.381006,2.107647 -1.40527,0.477907 -1.593589,1.438723 -0.319576,1.630547 0.341585,0.05139 0.621066,0.177847 0.621066,0.280945 0,0.103024 -0.293018,0.143278 -0.651159,0.08938 -0.445357,-0.06703 -0.65118,-0.0074 -0.65118,0.19392 0,0.425713 0.297524,0.469145 2.213339,0.323074 0.948725,-0.07236 1.800467,-0.06132 1.892751,0.02483 0.09205,0.08602 -0.02522,0.190867 -0.259865,0.233094 -0.896708,0.160979 -4.079315,0.286283 -4.283563,0.168699 z m -0.267754,-2.298391 c -0.09894,-0.369223 -0.167494,-0.381648 -0.747817,-0.135632 -0.550857,0.233505 -0.577436,0.313466 -0.192716,0.580249 0.54967,0.3813 1.09324,0.124237 0.940728,-0.44463 z m 2.34921,-2.853553 C 69.851716,26.428765 69.51246,26.580844 69.52216,27.770597 l 0.0065,1.07783 1.183045,-0.733059 1.183065,-0.733035 -0.739583,-0.344795 z" />
      <path
         id="path11195"
         style="fill:#666666;fill-opacity:1;stroke-width:0.247046"
         d="m 57.374986,59.715577 c 0.14637,-1.220909 0.116405,-1.284622 -0.857454,-1.815854 -1.251141,-0.682478 -1.259979,-0.900777 -0.05864,-1.45095 0.90503,-0.414516 0.956831,-0.518235 1.082376,-2.167575 0.07221,-0.952748 0.201554,-1.772385 0.286789,-1.821463 0.08515,-0.04903 0.587113,-0.02483 1.115356,0.05374 1.20958,0.180069 2.271735,1.299479 1.944745,2.049581 -0.120932,0.277495 -0.794855,0.819376 -1.497533,1.204227 -1.122816,0.614953 -1.277591,0.8035 -1.277591,1.556604 0,0.588789 0.15262,0.890699 0.488406,0.964839 0.268595,0.05934 0.488385,0.183209 0.488385,0.275285 0,0.09198 -0.21979,0.167383 -0.488385,0.167383 -0.36271,0 -0.488406,0.219912 -0.488406,0.854602 0,0.470013 0.129986,0.808354 0.288793,0.751814 0.408755,-0.1454 3.943876,0.286084 3.943876,0.481408 0,0.08899 -1.152563,0.161636 -2.561241,0.161636 h -2.561234 z m -0.05907,-3.005197 c -0.107352,-0.06169 -0.421775,0.01825 -0.69895,0.177809 -0.454756,0.261842 -0.446069,0.323582 0.08903,0.633573 0.574547,0.332755 0.596319,0.327206 0.69895,-0.177809 0.05842,-0.286705 0.01725,-0.571809 -0.08903,-0.633573 z m 1.928448,-1.906081 c 0.665428,-0.740879 0.625699,-1.081069 -0.154561,-1.321462 -0.5379,-0.16572 -0.651805,-0.142546 -0.654759,0.134055 -0.002,0.184053 -0.09442,0.65095 -0.205433,1.037576 -0.247577,0.861776 0.302201,0.942992 1.01458,0.149943 z" />
      <path
         id="path11189"
         style="fill:#666666;fill-opacity:1;stroke-width:0.247046"
         d="m 75.726971,58.532233 c 0,-0.547418 -0.235052,-0.930369 -0.813931,-1.326526 -0.447707,-0.306317 -0.813975,-0.717221 -0.813975,-0.913128 0,-0.19592 0.366268,-0.494379 0.813975,-0.663251 0.749349,-0.282683 0.813931,-0.419482 0.813931,-1.72348 0,-1.062227 -0.136452,-1.503243 -0.545789,-1.763659 -0.403064,-0.256405 -0.450381,-0.402153 -0.181075,-0.557297 0.534472,-0.307719 2.018791,0.09719 3.421885,0.933621 1.866127,1.112274 1.764036,1.727488 -0.416085,2.507727 -1.575071,0.563715 -1.627907,0.610932 -1.627907,1.454376 0,0.479446 0.175902,0.972956 0.390713,1.096671 0.303882,0.174955 0.303882,0.224941 0,0.224941 -0.214703,0 -0.390713,0.210888 -0.390713,0.468647 0,0.435766 0.111448,0.468598 1.58723,0.468598 0.872997,0 2.045112,0.05276 2.60472,0.117174 1.947633,0.22427 0.99839,0.4452 -1.912841,0.4452 h -2.930288 z m 0,-2.036263 c 0,-0.417632 -0.121578,-0.529555 -0.488363,-0.448576 -0.588364,0.130009 -0.631304,0.47288 -0.09787,0.780102 0.54829,0.315664 0.586058,0.294302 0.586058,-0.331526 z m 2.277924,-2.217039 0.722143,-0.33664 -0.877782,-0.600617 c -0.482801,-0.330335 -1.011303,-0.600592 -1.174465,-0.600592 -0.163183,0 -0.296618,0.421765 -0.296618,0.937245 0,1.038606 0.383491,1.180183 1.626722,0.600604 z" />
      <path
         id="path11183"
         style="fill:#666666;fill-opacity:1;stroke-width:0.247046"
         d="m 90.689905,59.434533 c -0.243572,-0.168972 -0.399642,-0.497196 -0.346806,-0.729372 0.06704,-0.294016 -0.206081,-0.546028 -0.899317,-0.830237 -1.250991,-0.512849 -1.251293,-0.732848 -0.0017,-1.32428 0.9952,-0.47108 0.999921,-0.482202 1.090847,-2.578951 0.05001,-1.158225 0.175467,-2.154318 0.278463,-2.213538 0.391489,-0.225486 4.474295,2.037007 4.474295,2.479513 0,0.560129 -0.715866,1.023128 -2.456195,1.588593 -1.722797,0.559768 -1.776474,0.601672 -1.776474,1.387212 0,0.464725 0.173752,0.856625 0.407034,0.919359 0.325565,0.08751 0.325565,0.131311 0,0.218683 -0.223805,0.0602 -0.407034,0.228862 -0.407034,0.374895 0,0.189205 0.415266,0.265567 1.443986,0.265567 1.877212,0 3.454457,0.323793 2.777672,0.570244 -0.84118,0.306304 -4.089597,0.215841 -4.584798,-0.127713 z m -0.288022,-2.263499 c 0,-0.468796 -0.04138,-0.484945 -0.526927,-0.205439 -0.289785,0.166862 -0.427661,0.39581 -0.306341,0.508776 0.39955,0.372227 0.833268,0.21434 0.833268,-0.303337 z m 3.255882,-2.612129 c 0,-0.13202 -0.475735,-0.552097 -1.057245,-0.933373 l -1.057198,-0.693239 -0.226295,0.73358 c -0.1246,0.403457 -0.234797,1.013123 -0.245055,1.354778 l -0.01942,0.62121 1.302336,-0.421418 c 0.716302,-0.231767 1.302337,-0.529469 1.302337,-0.661538 z m 3.907266,-1.014861 c 0,-0.212279 -0.146369,-0.333835 -0.325612,-0.270109 -0.178917,0.06368 -0.325565,0.237389 -0.325565,0.385967 0,0.148492 0.146369,0.270109 0.325565,0.270109 0.178918,0 0.325612,-0.173676 0.325612,-0.385967 z" />
      <path
         id="path11177"
         style="fill:#666666;fill-opacity:1;stroke-width:0.247046"
         d="m 106.35566,60.552473 c -1.41926,-0.108858 -1.46354,-0.132033 -1.4137,-0.739712 0.0399,-0.485604 -0.18064,-0.75009 -0.97679,-1.171123 l -1.02816,-0.543891 1.09055,-0.526291 c 0.98415,-0.474966 1.10727,-0.646234 1.262,-1.755554 0.11274,-0.808565 0.0457,-1.273873 -0.1953,-1.35968 -0.20156,-0.07175 -0.3666,-0.252 -0.3666,-0.40054 0,-0.930009 4.80645,1.058478 4.85721,2.009488 0.0343,0.644124 -1.61046,1.469395 -2.92862,1.469395 -0.86762,0 -0.95181,0.0571 -0.95181,0.645017 0,0.35475 0.14636,0.697137 0.32559,0.760863 0.50134,0.17838 0.38575,0.468636 -0.18646,0.468636 -0.97887,0 -0.35317,0.653048 0.67781,0.707463 1.61847,0.08528 2.43911,0.226988 2.43911,0.420797 0,0.194008 -0.25449,0.195474 -2.6047,0.01452 z m -1.44427,-2.787184 c -0.10714,-0.06169 -0.36167,-0.01626 -0.56601,0.101907 -0.27819,0.160183 -0.25647,0.294214 0.0869,0.533938 0.42431,0.296299 0.46631,0.288752 0.56601,-0.101907 0.0591,-0.23204 0.0194,-0.472322 -0.0869,-0.533913 z m 3.15362,-1.107359 c 0.50755,-0.172 0.2065,-0.570367 -0.89538,-1.185321 l -1.13954,-0.635894 v 0.77124 c 0,0.424186 -0.0953,0.914157 -0.21169,1.088827 -0.18301,0.274676 -0.0621,0.29908 0.89538,0.180726 0.60887,-0.07522 1.21691,-0.174061 1.35125,-0.219578 z" />
      <path
         id="path7919"
         style="fill:#666666;fill-opacity:1;stroke-width:0.247046"
         d="m 53.86594,48.698154 c 0,-0.44237 -1.690614,-1.507563 -2.057484,-1.296364 -0.122227,0.07025 -0.221537,0.708296 -0.221537,1.418044 v 1.290456 l 1.139565,-0.500398 c 0.692072,-0.303909 1.139586,-0.661961 1.139586,-0.911738 z m -2.523219,4.643017 c -0.223779,-0.05188 -0.406966,-0.313341 -0.406966,-0.580769 0,-0.315403 -0.371743,-0.671481 -1.058146,-1.013594 l -1.058167,-0.527371 0.736932,-0.361888 c 0.405284,-0.199035 0.870625,-0.389604 1.03411,-0.423515 0.163398,-0.03389 0.344624,-0.946282 0.402611,-2.027487 0.125028,-2.328938 0.45286,-2.505804 2.547702,-1.373956 2.319311,1.253157 1.948991,2.687139 -0.868987,3.365025 -0.861464,0.207227 -1.084897,0.368552 -1.084897,0.783317 0,0.2873 0.159303,0.614047 0.353959,0.726145 0.254776,0.146704 0.254776,0.239015 0,0.329714 -0.194656,0.06926 -0.353959,0.239052 -0.353959,0.377304 0,0.182563 0.540638,0.251365 1.975247,0.251365 2.094153,0 2.707415,0.133907 1.922412,0.419718 -0.49815,0.181384 -3.431477,0.221017 -4.141851,0.05598 z" />
    </g>
  </g>
</svg>
