<?xml version="1.0" encoding="UTF-8" standalone="no"?>
<svg
   version="1.1"
   width="100"
   height="100"
   id="svg4460"
   sodipodi:docname="pinadas.svg"
   inkscape:version="1.2.2 (732a01da63, 2022-12-09)"
   xmlns:inkscape="http://www.inkscape.org/namespaces/inkscape"
   xmlns:sodipodi="http://sodipodi.sourceforge.net/DTD/sodipodi-0.dtd"
   xmlns="http://www.w3.org/2000/svg"
   xmlns:svg="http://www.w3.org/2000/svg"
   xmlns:rdf="http://www.w3.org/1999/02/22-rdf-syntax-ns#"
   xmlns:cc="http://creativecommons.org/ns#"
   xmlns:dc="http://purl.org/dc/elements/1.1/">
  <sodipodi:namedview
     pagecolor="#ffffff"
     bordercolor="#666666"
     borderopacity="1"
     objecttolerance="10"
     gridtolerance="10"
     guidetolerance="10"
     inkscape:pageopacity="0"
     inkscape:pageshadow="2"
     inkscape:window-width="1920"
     inkscape:window-height="1009"
     id="namedview11"
     showgrid="true"
     inkscape:zoom="2.8284273"
     inkscape:cx="45.078055"
     inkscape:cy="49.497472"
     inkscape:window-x="-8"
     inkscape:window-y="-8"
     inkscape:window-maximized="1"
     inkscape:current-layer="text5282"
     inkscape:document-rotation="0"
     inkscape:pagecheckerboard="0"
     showguides="true"
     inkscape:guide-bbox="true"
     inkscape:showpageshadow="0"
     inkscape:deskcolor="#d1d1d1">
    <inkscape:grid
       type="xygrid"
       id="grid823"
       originx="0"
       originy="0" />
    <sodipodi:guide
       position="0,86"
       orientation="66,0"
       id="guide957"
       inkscape:locked="false" />
    <sodipodi:guide
       position="0,20"
       orientation="0,50"
       id="guide959"
       inkscape:locked="false" />
    <sodipodi:guide
       position="50,86"
       orientation="0,-50"
       id="guide963"
       inkscape:locked="false" />
    <sodipodi:guide
       position="8.9999971,64.32985"
       orientation="8.5387222,0"
       id="guide1517"
       inkscape:locked="false" />
    <sodipodi:guide
       position="8.9999971,55.791128"
       orientation="0,26.227758"
       id="guide1519"
       inkscape:locked="false" />
    <sodipodi:guide
       position="35,93.437165"
       orientation="-8.5387222,0"
       id="guide1521"
       inkscape:locked="false" />
    <sodipodi:guide
       position="35.227755,64.32985"
       orientation="0,-26.227758"
       id="guide1523"
       inkscape:locked="false" />
    <sodipodi:guide
       position="7.9247812,20.000001"
       orientation="0,-6.8495616"
       id="guide4054"
       inkscape:locked="false" />
    <sodipodi:guide
       position="1.0752196,74.999813"
       orientation="0,6.8495616"
       id="guide4058"
       inkscape:locked="false" />
  </sodipodi:namedview>
  <defs
     id="defs4462" />
  <metadata
     id="metadata4465">
    <rdf:RDF>
      <cc:Work
         rdf:about="">
        <dc:format>image/svg+xml</dc:format>
        <dc:type
           rdf:resource="http://purl.org/dc/dcmitype/StillImage" />
      </cc:Work>
    </rdf:RDF>
  </metadata>
  <g
     aria-label="C"
     id="text3215"
     style="font-size:32px;line-height:1.25"
     transform="translate(-37.75,-4)">
    <g
       aria-label="A"
       id="text5282"
       transform="matrix(1.6290909,0,0,2.8292029,-41.002727,-68.776958)">
      <path
         style="fill:#666666;fill-opacity:1;stroke-width:0.234699"
         d="m 49.392753,36.341821 c 0.106084,-0.06097 2.182202,-0.123511 4.613981,-0.138911 4.255247,-0.02701 5.844533,-0.257129 2.812304,-0.407149 -0.804054,-0.03974 -1.496577,-0.09233 -1.538908,-0.116624 -0.160351,-0.09233 0.760351,-1.841431 1.373703,-2.609962 0.632827,-0.792917 0.639831,-0.7955 0.665635,-0.244983 0.01433,0.306008 -0.175302,0.884909 -0.42134,1.286456 -0.27698,0.451923 -0.333421,0.770689 -0.148268,0.836595 0.524205,0.186517 1.21421,-1.114619 1.21421,-2.289627 0,-1.07291 0.08416,-1.204229 1.529508,-2.389212 1.396722,-1.145055 3.374192,-2.27096 3.679659,-2.095104 0.20213,0.116389 -1.485764,1.685844 -3.244436,3.017052 -1.762519,1.334107 -1.926844,1.724358 -0.373212,0.886405 1.425905,-0.769085 5.213406,-4.265028 5.213406,-4.812067 0,-0.06474 -0.529571,-0.06887 -1.176856,-0.0094 -1.385868,0.127627 -3.724139,0.844508 -5.60335,1.717989 -1.346752,0.626 -3.548919,2.304333 -3.249617,2.476652 0.08806,0.0507 0.934035,-0.407986 1.879846,-1.019292 0.945872,-0.611328 2.157421,-1.241595 2.692316,-1.400625 l 0.972598,-0.289097 -1.221768,0.78399 c -0.671984,0.431193 -2.02365,1.264805 -3.003661,1.85248 -2.331964,1.398341 -4.313081,2.942242 -4.068149,3.170385 0.190661,0.177591 1.065962,-0.317457 3.103395,-1.755158 l 0.996108,-0.702896 -0.877677,1.157531 c -0.482735,0.636635 -0.968788,1.447854 -1.080092,1.802705 l -0.202334,0.645173 -2.190208,0.124337 c -2.416237,0.13706 -3.054859,0.236232 -3.054859,0.474304 0,0.182862 0.424,0.211717 0.708066,0.04811 z"
         id="path9893" />
      <path
         id="path9885"
         style="fill:#666666;fill-opacity:1;stroke-width:0.234699"
         d="m 92.835445,36.462326 c 0,-0.08584 1.183143,-0.15614 2.629198,-0.15614 1.446056,0 2.628913,0.06014 2.628627,0.133511 -3.07e-4,0.07334 -1.183411,0.143687 -2.629159,0.15614 -1.445769,0.01239 -2.628666,-0.04764 -2.628666,-0.133511 z m -2.510842,-1.121569 c 1.746035,-0.264852 2.913718,-0.311973 6.031653,-0.243331 2.126538,0.04682 4.139494,0.111318 4.473224,0.143535 0.38239,0.03679 0.64815,-0.05684 0.71864,-0.253284 0.0827,-0.230655 -0.0883,-0.311632 -0.65882,-0.311632 -1.215458,0 -1.750968,-0.18535 -1.727478,-0.597829 0.0213,-0.370369 0.02929,-0.371123 0.27612,-0.02548 0.293406,0.410804 0.261869,0.447832 1.208868,-1.424659 0.34671,-0.685609 0.84114,-1.406841 1.09873,-1.602745 0.35447,-0.269558 0.32676,-0.128853 -0.11407,0.578771 -0.32683,0.524741 -0.44557,0.93492 -0.2707,0.93492 0.17142,0 0.38614,-0.164065 0.47723,-0.364614 0.51229,-1.127804 2.42867,-2.978185 4.15867,-4.015436 1.04757,-0.628076 1.82322,-1.18884 1.72371,-1.246139 -0.0995,-0.0573 -0.99209,0.212436 -1.98351,0.599397 -0.99138,0.38696 -2.97092,1.135374 -4.39897,1.663133 -1.428014,0.527746 -2.746321,1.015307 -2.929528,1.083442 -0.183084,0.06815 -0.239627,0.177636 -0.125537,0.243367 0.114068,0.06569 0.875689,-0.115447 1.692256,-0.40261 2.436059,-0.85663 2.857259,-0.868399 1.484759,-0.04151 -1.08316,0.652602 -5.056472,2.302869 -5.544511,2.302869 -0.619783,0 0.573868,-2.181705 1.53297,-2.801879 l 0.761887,-0.492642 -0.49742,0.712341 c -0.27354,0.391772 -0.702273,0.941594 -0.952712,1.221823 -0.334548,0.374331 -0.352611,0.489789 -0.0682,0.43519 0.21284,-0.0408 0.983083,-0.750961 1.711383,-1.577981 0.887568,-1.007865 1.839313,-1.778861 2.886333,-2.338164 0.85917,-0.458963 1.56214,-0.879673 1.56214,-0.934931 0,-0.31991 -1.08647,0.0606 -3.516363,1.231741 -1.50872,0.727092 -3.630897,1.58627 -4.715925,1.909282 -1.885887,0.561401 -2.429077,0.85439 -1.583921,0.85439 0.215215,0 0.926088,-0.16502 1.579784,-0.366725 0.653696,-0.201717 1.234833,-0.340086 1.291418,-0.307504 0.476468,0.274297 -5.027168,3.345474 -5.995097,3.345474 -0.156666,0 -0.457996,0.120233 -0.669792,0.267116 -0.311652,0.216221 -0.300963,0.267128 0.05632,0.267128 0.54452,0 3.037964,-0.900001 3.616132,-1.305205 0.789412,-0.553299 0.916874,-0.302032 0.322055,0.63488 -0.325557,0.512818 -0.591929,1.06284 -0.591929,1.222246 0,0.210278 -0.508847,0.351985 -1.854063,0.516333 -1.717138,0.209818 -3.147097,0.594562 -2.78521,0.749404 0.08478,0.03632 1.128526,-0.08184 2.319411,-0.262458 z m 2.938498,-1.111989 c 0,-0.272706 0.176326,-0.443198 0.458078,-0.443198 0.251956,0 0.540261,-0.220384 0.640712,-0.489728 0.445278,-1.194193 0.643865,-1.208852 1.030921,-0.07618 0.43422,1.270725 0.96971,1.342149 0.725905,0.09681 -0.111201,-0.568949 -0.05755,-0.793484 0.170797,-0.712235 0.183288,0.06521 0.426131,0.03219 0.539484,-0.07334 0.113249,-0.105539 0.505732,-0.266361 0.871982,-0.357279 0.36625,-0.09092 1.001247,-0.304556 1.411139,-0.474765 0.40987,-0.170208 0.687629,-0.231126 0.617263,-0.135421 -0.07045,0.09575 -0.539258,0.791573 -1.042001,1.546225 l -0.914069,1.372138 -1.552956,0.0526 c -0.854126,0.02889 -1.86889,0.07181 -2.255045,0.09516 -0.561663,0.03408 -0.702129,-0.04611 -0.702129,-0.400687 z" />
      <path
         id="path7538"
         style="fill:#666666;fill-opacity:1;stroke-width:0.234699"
         d="m 79.521426,43.657263 c 0.293241,-0.16884 3.935381,-0.184725 4.11439,-0.01793 0.08109,0.0757 -0.857997,0.137674 -2.087239,0.137674 -1.229262,0 -2.141467,-0.05377 -2.027151,-0.119691 z m -1.401002,-0.971192 c -0.615338,-0.216469 0.341163,-0.350004 1.907084,-0.266255 0.952731,0.05082 1.554369,0.01227 1.554369,-0.100116 0,-0.334155 -0.979499,-2.367008 -1.271409,-2.638746 -0.198033,-0.184336 -0.276654,0.0094 -0.253574,0.623299 0.04955,1.322268 0.0041,1.544302 -0.286708,1.440355 -0.146017,-0.05188 -0.337866,-0.765065 -0.426663,-1.58481 -0.08888,-0.819755 -0.330411,-1.672141 -0.536821,-1.894188 -0.39189,-0.421593 -0.08396,-0.798636 0.474257,-0.580646 0.177965,0.06945 0.621072,0.406606 0.985314,0.749428 0.364202,0.342798 1.505221,1.101589 2.535487,1.686197 1.030328,0.584609 1.873293,1.125528 1.873293,1.202048 0,0.363682 -1.273477,0.07334 -2.123692,-0.484163 -0.522833,-0.342799 -1.000961,-0.623275 -1.062521,-0.623275 -0.06164,0 0.170182,0.520895 0.515092,1.157531 l 0.627032,1.157531 h 1.331372 c 0.732233,0 1.331352,0.08054 1.331352,0.178675 0,0.193392 -6.618463,0.172308 -7.173223,-0.02288 z" />
      <path
         id="path9961"
         style="font-size:32px;line-height:1.25;fill:#666666;fill-opacity:1;stroke-width:0.234699"
         d="m 57.161859,49.044686 c 0,-0.09788 0.278394,-0.178086 0.618655,-0.178086 0.340222,0 0.618616,0.08007 0.618616,0.178086 0,0.09788 -0.278394,0.178061 -0.618616,0.178061 -0.340261,0 -0.618655,-0.08007 -0.618655,-0.178061 z m 1.237271,-0.899567 c -0.765574,-0.07842 -2.05308,-0.09823 -2.861147,-0.04386 -0.898238,0.06037 -1.469279,0.02866 -1.469279,-0.08159 0,-0.500625 6.007527,-0.395958 6.904209,0.120233 0.390086,0.224582 -0.415032,0.226151 -2.573783,0.0035 z m -8.042217,-1.218083 c 0,-0.08727 0.886176,-0.260171 1.9693,-0.384119 l 1.969256,-0.225349 0.196192,-1.337137 c 0.107924,-0.735407 0.134753,-1.372396 0.06021,-1.415532 -0.07495,-0.04316 -0.311734,0.41091 -0.526253,1.008938 -0.396416,1.104891 -0.884947,1.456263 -0.884947,0.63647 0,-0.557781 1.095124,-2.47961 1.824224,-3.201327 0.489719,-0.484741 1.581198,-2.139678 1.576202,-2.389837 -0.0041,-0.201529 -1.289288,0.990636 -2.338069,2.16871 -1.098196,1.233568 -1.858628,1.597734 -1.487485,0.712319 0.75943,-1.811644 5.529728,-5.473751 6.516251,-5.002406 0.383636,0.183309 0.379438,0.232637 -0.03071,0.364803 -0.26078,0.08408 -0.624,0.472784 -0.8069,0.863836 -0.415215,0.88775 -0.436718,3.966521 -0.03072,4.403232 0.176326,0.189535 0.189433,0.429329 0.03195,0.576155 -0.386463,0.360002 -0.872311,-0.447821 -0.963812,-1.602581 -0.100552,-1.269604 -0.476755,-1.277882 -0.731107,-0.01604 -0.230432,1.144077 -0.119393,1.486039 0.857689,2.639101 0.724677,0.855097 1.004914,0.934293 1.260248,0.356147 0.09748,-0.220384 0.795924,-0.801361 1.552445,-1.291078 1.070815,-0.693179 1.45947,-0.843647 1.754472,-0.679253 0.298197,0.16614 0.271247,0.273142 -0.126766,0.502158 -0.700429,0.403269 -0.927277,1.041296 -0.703849,1.979705 0.120827,0.50671 0.07843,0.758237 -0.115503,0.689206 -0.168134,-0.05979 -0.30557,-0.228945 -0.30557,-0.375876 0,-0.14693 -0.139053,-0.217589 -0.309317,-0.157048 -0.548658,0.19522 -0.328855,0.773803 0.340425,0.896087 0.369445,0.06745 0.533442,0.185715 0.380156,0.27398 -0.15339,0.0882 -0.921953,0.04222 -1.781526,-0.10672 -1.873599,-0.324626 -3.459753,-0.323259 -6.053339,0.0035 -2.365734,0.299602 -3.093155,0.325086 -3.093155,0.108369 z m 9.356406,-1.221398 c 0.184109,-0.849036 0.04833,-0.939069 -0.437291,-0.290124 -0.210935,0.281999 -0.413025,0.539257 -0.449068,0.571686 -0.240713,0.216481 -1.507759,-0.480838 -1.993895,-1.097286 l -0.585561,-0.742482 -0.002,0.801372 c -0.002,1.150173 0.352919,1.349544 2.506488,1.403988 0.720294,0.01816 0.833852,-0.05802 0.961375,-0.647154 z" />
      <path
         id="path10002"
         style="font-size:32px;line-height:1.25;fill:#666666;fill-opacity:1;stroke-width:0.234699"
         d="m 73.902414,37.090805 c -0.10342,-0.09622 0.0315,-0.223403 0.29969,-0.282635 0.81982,-0.181129 5.07663,-0.122143 5.07663,0.07028 0,0.09941 -0.85343,0.179147 -1.93322,0.180504 -1.06326,0.0011 -2.2307,0.04835 -2.59424,0.104478 -0.36359,0.05614 -0.74555,0.02334 -0.84886,-0.07276 z m -5.639782,-2.886933 c -0.01228,-1.555646 0.144583,-1.54119 -1.742021,-0.161363 -0.371308,0.271561 -0.823836,0.43493 -1.015665,0.366665 -0.226868,-0.08078 -0.02397,-0.333577 0.586606,-0.734569 0.51286,-0.336326 1.15566,-0.859934 1.428423,-1.163582 0.632623,-0.704311 1.412613,-1.971993 1.26547,-2.056684 -0.06205,-0.03561 -0.483002,0.257293 -0.935633,0.651057 -0.796742,0.693167 -1.432785,0.923587 -1.432785,0.519056 0,-0.108251 0.369465,-0.448869 0.821053,-0.756844 0.92918,-0.633701 2.580786,-2.546603 2.581154,-2.989529 2.46e-4,-0.280112 0.863852,-0.605187 1.157954,-0.435862 0.07741,0.0447 -0.0299,0.380097 -0.23936,0.745289 -0.499754,0.871842 -0.06492,4.491037 0.62957,5.237988 0.294799,0.317116 0.412494,0.332822 0.930016,0.124066 0.90249,-0.36393 2.01238,-1.218167 1.40976,-1.085033 -0.74673,0.164972 -0.59285,-0.04103 0.77431,-1.036828 0.69271,-0.504539 1.53935,-1.243437 1.88145,-1.642012 l 0.62197,-0.724664 -1.20928,0.789733 c -0.69228,0.452112 -1.29482,0.710055 -1.40935,0.603335 -0.11018,-0.102592 0.31818,-0.510802 0.95168,-0.907278 0.63353,-0.396476 1.63461,-1.248956 2.22468,-1.894412 0.59008,-0.645457 1.17344,-1.173558 1.29635,-1.173558 0.43467,0 0.52847,0.294109 0.28882,0.905804 -0.13333,0.340464 -0.12002,1.208238 0.0293,1.928398 0.1493,0.720148 0.20459,1.348022 0.12248,1.395261 -0.0823,0.04728 -0.36594,-0.183851 -0.63083,-0.51356 l -0.48158,-0.599467 0.16546,0.801349 c 0.0912,0.440756 0.3817,1.182389 0.64598,1.648063 0.26429,0.46566 0.41511,0.946486 0.33512,1.068488 -0.17899,0.27306 -1.09254,-0.909 -1.46722,-1.898564 -0.22141,-0.584997 -0.25196,-0.447607 -0.15503,0.695715 0.0666,0.783555 0.33859,1.771467 0.60444,2.195325 0.3532,0.5631 0.38066,0.751303 0.10197,0.69871 -0.53424,-0.100823 -1.17638,-1.273943 -1.38906,-2.537876 -0.15996,-0.951345 -0.20714,-1.009916 -0.43071,-0.534244 -0.13803,0.293849 -0.34173,1.111058 -0.45274,1.816065 l -0.20192,1.281797 1.59472,0.121873 c 2.9343,0.224098 1.9517,0.417407 -2.12859,0.418716 -2.22234,7.32e-4 -4.732674,0.05425 -5.578587,0.118866 L 68.273,35.607011 68.26072,34.20392 Z m 7.307432,-0.807846 c 0.19495,-0.847963 0.44486,-1.749498 0.55555,-2.00342 0.31357,-0.71931 0.0276,-0.549657 -0.8863,0.525683 -0.87249,1.026687 -2.73165,2.21812 -3.461285,2.21812 -0.595086,0 -1.619926,-1.027936 -1.857791,-1.863387 -0.154619,-0.542545 -0.24954,-0.625905 -0.411509,-0.360251 -0.257056,0.421736 0.184517,1.636341 0.788612,2.169819 0.281876,0.248933 0.329899,0.431735 0.131885,0.502182 -0.171,0.06097 -0.584188,-0.235408 -0.917712,-0.658522 l -0.606409,-0.769298 -0.0041,0.941168 -0.0041,0.941157 3.162109,-0.0507 3.1621,-0.0507 0.3543,-1.541757 z" />
      <path
         id="path9953"
         style="font-size:32px;line-height:1.25;fill:#666666;fill-opacity:1;stroke-width:0.234699"
         d="m 93.632894,49.795766 c -0.224246,-0.208344 0.268438,-0.2832 2.733866,-0.415178 2.629384,-0.140763 4.43048,-0.01734 4.65482,0.31866 0.10936,0.16417 -0.76592,0.217754 -3.556358,0.217754 -2.035975,0 -3.760466,-0.0546 -3.832328,-0.121188 z M 104.4931,48.81494 c -2.80763,-0.588169 -8.443031,-0.642284 -12.836574,-0.123239 -0.966121,0.11403 -1.039026,0.0974 -0.677555,-0.155786 0.495643,-0.347079 0.236861,-1.30536 -0.505384,-1.871914 -0.512062,-0.390815 -0.520666,-0.381477 -0.413309,0.447477 0.155845,1.204205 -0.364716,0.772718 -1.019828,-0.845121 -0.301096,-0.743579 -0.826514,-1.514268 -1.185348,-1.738649 -0.514709,-0.321856 -0.566727,-0.447407 -0.258099,-0.623288 0.307243,-0.175172 0.450966,-0.154277 0.702169,0.102002 0.65017,0.663629 2.253789,1.57876 4.007714,2.287069 0.996104,0.402289 1.734793,0.802422 1.641608,0.889236 -0.192915,0.179631 -0.471266,0.104243 -1.960575,-0.530883 -0.916977,-0.391018 -1.026515,-0.405557 -0.808862,-0.107309 0.13844,0.189735 0.415946,0.603948 0.616649,0.920438 0.200693,0.316489 0.446053,0.622166 0.545233,0.679276 0.238834,0.13752 2.437493,-0.103299 2.28546,-0.250289 -0.06488,-0.06274 -0.01233,-0.513125 0.119185,-1.000896 0.182063,-0.680856 0.135367,-0.929789 -0.201926,-1.071649 -0.537721,-0.22635 -1.131045,-2.45006 -0.871817,-3.267305 0.255728,-0.806042 -0.591085,-2.281065 -1.753792,-3.054974 -0.577312,-0.384283 -0.851299,-0.486711 -0.714462,-0.267117 1.73889,2.790653 2.145199,3.65068 1.724738,3.65068 -0.157686,0 -0.732931,-0.78135 -1.278534,-1.736315 -1.188327,-2.079938 -1.602765,-2.574844 -2.970281,-3.547073 -1.856994,-1.320252 -1.191381,-1.499305 1.614479,-0.434283 2.229279,0.846172 3.961121,1.794157 5.700088,3.120198 1.622769,1.237435 1.353184,1.560411 -0.346731,0.415426 -0.680875,-0.458598 -1.683344,-1.007122 -2.227742,-1.218981 l -0.989758,-0.385168 0.970076,0.547558 c 0.533499,0.301161 1.633953,1.133016 2.445357,1.848576 0.811441,0.715551 2.036534,1.639915 2.722417,2.054126 1.264902,0.763862 1.300169,0.963764 0.187185,1.061556 -0.435903,0.03821 -0.713457,-0.09021 -0.939751,-0.434966 -0.35486,-0.540612 -2.165773,-2.224594 -2.304896,-2.143323 -0.230677,0.13475 1.416508,2.535105 2.168154,3.159584 0.675344,0.561071 0.931907,0.662366 1.243684,0.491073 0.216154,-0.118723 1.028136,-0.431522 1.804688,-0.695149 1.35399,-0.459669 2.01939,-0.964587 2.53455,-1.923374 0.1966,-0.36637 0.16343,-0.408515 -0.1929,-0.241563 -1.05718,0.49572 -2.73859,0.930179 -2.92564,0.755926 -0.10813,-0.100823 -0.148065,-0.202837 -0.0885,-0.226716 0.0598,-0.02383 0.83791,-0.306938 1.72962,-0.629042 0.95936,-0.346513 1.89491,-0.865887 2.29142,-1.272092 0.3686,-0.37755 0.86222,-0.72891 1.09695,-0.78076 0.62093,-0.137202 0.85869,0.389306 0.39909,0.883741 -0.28912,0.31103 -0.33743,0.871595 -0.17939,2.080458 0.16015,1.224016 0.12615,1.602756 -0.13106,1.455224 -0.19128,-0.109785 -0.45093,-0.750808 -0.57744,-1.42467 l -0.22996,-1.225184 -0.24526,1.358965 c -0.14602,0.809073 -0.12083,1.69509 0.0629,2.189724 0.22615,0.610422 0.21426,0.813271 -0.0445,0.76477 -0.19373,-0.03632 -0.50223,-0.500791 -0.68558,-1.032204 -0.27772,-0.804887 -0.37254,-0.897574 -0.56784,-0.555152 -0.33827,0.593004 0.0754,2.027228 0.77617,2.69062 0.33126,0.313613 1.01689,0.653416 1.52361,0.755112 0.50672,0.101767 0.92128,0.257211 0.92128,0.345569 0,0.197637 -0.14704,0.185515 -1.70121,-0.139996 z m -1.40289,-0.812303 c -0.005,-0.122426 -0.20998,-0.42295 -0.45299,-0.667814 l -0.44206,-0.445191 -0.0102,0.667803 c -0.006,0.477678 0.12102,0.667814 0.45299,0.667814 0.25517,0 0.45906,-0.100233 0.45302,-0.222612 z M 96.831271,46.60234 c -0.208091,-1.747847 -0.844356,-2.35906 -0.844356,-0.811101 0,0.561437 -0.201727,1.298707 -0.448168,1.638358 l -0.448206,0.617567 h 0.956351 0.956398 z m 4.088449,0.77701 c 0.48623,-1.008019 0.4133,-1.053749 -0.69445,-0.435614 -0.926977,0.517286 -1.763821,0.736067 -1.763821,0.461121 0,-0.05932 0.722203,-0.498409 1.604921,-0.975531 0.88273,-0.477135 1.51873,-0.917126 1.41332,-0.977797 -0.28314,-0.163026 -2.090289,0.497608 -2.090289,0.764169 0,0.349261 -0.650844,0.273378 -1.474522,-0.171966 l -0.741031,-0.400685 0.205711,0.47171 c 0.113047,0.259452 0.243643,0.740254 0.290415,1.0685 0.04667,0.328224 0.104644,0.656884 0.129221,0.730349 0.024,0.07358 0.663876,0.133511 1.421441,0.133511 1.328184,0 1.388894,-0.02383 1.699524,-0.667802 z m -5.660149,-3.21878 c -0.325843,-1.641164 -0.488367,-2.177661 -0.737189,-2.433645 -0.310506,-0.319474 -0.261599,1.999716 0.06535,3.10015 0.189434,0.638169 0.290786,0.728131 0.535473,0.476416 0.16609,-0.170668 0.227337,-0.684984 0.136182,-1.142921 z" />
      <path
         id="path9949"
         style="font-size:32px;line-height:1.25;fill:#666666;fill-opacity:1;stroke-width:0.234699"
         d="m 75.54931,50.530762 c -0.510382,-0.08914 -2.285088,-0.214535 -3.943778,-0.27859 -1.658691,-0.06392 -3.015826,-0.165102 -3.015826,-0.224571 0,-0.340723 8.127245,0.164809 8.519155,0.529917 0.214991,0.200291 -0.311652,0.191269 -1.559551,-0.02665 z m 1.23725,-0.841064 c -1.706653,-0.422279 -2.222709,-0.460037 -6.417705,-0.469554 -2.508966,-0.007 -4.562067,-0.0619 -4.562373,-0.124878 -0.0012,-0.230361 1.032397,-0.330712 3.406302,-0.330712 2.844784,0 2.966861,-0.08184 2.591396,-1.738131 -0.245792,-1.084526 -0.313353,-1.042204 -0.89621,0.561838 -0.123695,0.340593 -0.291296,0.455591 -0.493877,0.338966 -0.201719,-0.116153 -0.203562,-0.545506 -0.0041,-1.253909 0.330472,-1.181492 0.07045,-2.782269 -0.542494,-3.340263 -0.367437,-0.334449 -0.380442,-0.329025 -0.21284,0.08903 0.09789,0.244852 0.25812,0.926027 0.355949,1.513702 0.209276,1.260064 -0.343313,1.042628 -0.67909,-0.267117 -0.338828,-1.32156 -1.937044,-3.58535 -3.115989,-4.413692 -0.819987,-0.57613 -1.015482,-0.828566 -0.756952,-0.977418 0.400184,-0.230371 0.257567,-0.303802 2.709437,1.395746 1.716299,1.189724 4.125101,2.528571 5.670644,3.151835 0.383432,0.15462 0.640836,0.378447 0.571963,0.49737 -0.07639,0.131872 -0.83,-0.114266 -1.931002,-0.630598 -0.9932,-0.465744 -1.692727,-0.737011 -1.554513,-0.602839 0.570366,0.553725 3.956189,2.826158 4.210827,2.826158 0.151546,0 0.36029,-0.244215 0.463956,-0.542699 0.313065,-0.901146 1.138929,-0.606825 1.258487,0.448515 0.05509,0.486027 0.444501,1.316749 0.865409,1.846054 0.870959,1.095281 0.87186,1.097439 0.462256,1.097439 -0.1667,0 -0.61159,-0.340571 -0.988674,-0.756846 -0.518082,-0.57185 -0.715624,-0.676316 -0.808231,-0.427419 -0.06758,0.181186 -0.03789,0.589503 0.06594,0.907384 0.156462,0.479835 0.397521,0.617697 1.420559,0.81208 0.842944,0.160174 1.232213,0.337645 1.232213,0.561802 0,0.399401 -0.01638,0.398246 -2.319862,-0.171906 z m -1.094981,-2.127156 -0.01433,-1.202047 -0.490293,0.534245 c -0.669034,0.72898 -1.370283,1.168085 -1.68599,1.055729 -0.144378,-0.0513 0.09871,-0.407773 0.540466,-0.792021 l 0.80301,-0.698639 -1.949352,-1.29622 c -1.072168,-0.71293 -1.844499,-1.135975 -1.716279,-0.940072 0.70385,1.075318 1.430083,2.950025 1.430083,3.691624 v 0.84946 h 1.546546 1.546587 l -0.01433,-1.202059 z m -6.376501,-4.949446 c -0.100553,-0.151094 -0.249539,-0.236598 -0.330554,-0.189925 -0.08109,0.0467 -0.0557,0.170339 0.05652,0.274793 0.305016,0.284133 0.483288,0.228934 0.274114,-0.0849 z" />
      <path
         id="path9937"
         style="font-size:32px;line-height:1.25;fill:#666666;fill-opacity:1;stroke-width:0.234699"
         d="m 89.362008,60.252091 c -1.746033,-0.264851 -2.913719,-0.311973 -6.031651,-0.243331 -2.126537,0.04682 -4.139497,0.111319 -4.473226,0.143535 -0.382387,0.03679 -0.648146,-0.05684 -0.718636,-0.253284 -0.08274,-0.230655 0.08826,-0.311632 0.658817,-0.311632 1.215459,0 1.75097,-0.185349 1.72748,-0.597828 -0.0213,-0.370369 -0.02929,-0.371123 -0.27612,-0.02548 -0.293406,0.410804 -0.261869,0.447831 -1.208866,-1.42466 -0.346713,-0.685609 -0.841142,-1.406841 -1.098729,-1.602745 -0.354474,-0.269557 -0.326765,-0.128853 0.11407,0.578772 0.326826,0.52474 0.445564,0.934919 0.270692,0.934919 -0.17141,0 -0.386134,-0.164065 -0.477225,-0.364614 -0.512287,-1.127804 -2.428668,-2.978184 -4.158667,-4.015435 -1.047572,-0.628076 -1.823221,-1.18884 -1.723713,-1.246139 0.09953,-0.0573 0.992094,0.212436 1.983511,0.599396 0.991377,0.38696 2.970916,1.135375 4.398971,1.663133 1.428012,0.527747 2.746319,1.015307 2.929525,1.083442 0.183085,0.06815 0.239627,0.177637 0.125537,0.243367 -0.114068,0.06569 -0.875688,-0.115446 -1.692256,-0.40261 -2.436059,-0.85663 -2.857254,-0.868399 -1.484761,-0.04151 1.083166,0.652602 5.056475,2.302869 5.544514,2.302869 0.619783,0 -0.573868,-2.181705 -1.53297,-2.801878 l -0.761887,-0.492643 0.497419,0.712342 c 0.273541,0.391771 0.702273,0.941593 0.952713,1.221823 0.334547,0.37433 0.352611,0.489788 0.0682,0.435189 -0.21284,-0.0408 -0.983084,-0.750961 -1.711384,-1.57798 -0.887568,-1.007866 -1.839317,-1.778861 -2.886336,-2.338165 -0.859163,-0.458963 -1.562131,-0.879672 -1.562131,-0.934931 0,-0.31991 1.086461,0.0606 3.516358,1.231741 1.50872,0.727092 3.630896,1.586271 4.715923,1.909282 1.885886,0.561402 2.42908,0.85439 1.583927,0.85439 -0.215216,0 -0.926093,-0.16502 -1.579791,-0.366724 -0.653694,-0.201718 -1.234831,-0.340087 -1.291415,-0.307505 -0.476468,0.274297 5.027171,3.345474 5.995094,3.345474 0.156671,0 0.457995,0.120234 0.669796,0.267117 0.311653,0.21622 0.300963,0.267128 -0.05634,0.267128 -0.544521,0 -3.037969,-0.900002 -3.616135,-1.305206 -0.789407,-0.553299 -0.916873,-0.302031 -0.32205,0.63488 0.32555,0.512818 0.591929,1.06284 0.591929,1.222247 0,0.210278 0.508847,0.351985 1.854063,0.516332 1.717131,0.209818 3.14709,0.594562 2.785211,0.749404 -0.0848,0.03632 -1.128531,-0.08184 -2.319419,-0.262458 z m -2.938495,-1.111988 c 0,-0.272707 -0.176325,-0.443198 -0.458081,-0.443198 -0.251952,0 -0.540262,-0.220384 -0.640713,-0.489729 -0.445275,-1.194193 -0.643861,-1.208851 -1.030918,-0.07618 -0.434219,1.270725 -0.96971,1.34215 -0.725904,0.09681 0.111201,-0.56895 0.05755,-0.793484 -0.170797,-0.712236 -0.183288,0.06521 -0.426131,0.03219 -0.539484,-0.07334 -0.113249,-0.10554 -0.505732,-0.266362 -0.871982,-0.35728 -0.36625,-0.09092 -1.001248,-0.304556 -1.411139,-0.474764 -0.40987,-0.170208 -0.68763,-0.231126 -0.617264,-0.135421 0.07045,0.09575 0.539259,0.791572 1.042002,1.546225 l 0.914068,1.372137 1.552957,0.0526 c 0.854125,0.02889 1.868886,0.07181 2.255048,0.09516 0.561661,0.03408 0.702122,-0.04611 0.702122,-0.400687 z" />
      <path
         id="path9935"
         style="font-size:32px;line-height:1.25;fill:#666666;fill-opacity:1;stroke-width:0.234699"
         d="m 97.544044,60.100628 c -0.10342,-0.09623 0.03149,-0.223403 0.299692,-0.282636 0.819817,-0.181128 5.076644,-0.122143 5.076644,0.07028 0,0.09941 -0.85343,0.179147 -1.93322,0.180503 -1.063266,0.0011 -2.230706,0.04835 -2.594255,0.104478 -0.363586,0.05613 -0.745546,0.02334 -0.848861,-0.07276 z m -2.366818,-2.815966 c -0.01233,-1.555647 0.144577,-1.54119 -1.74202,-0.161364 -0.371308,0.271562 -0.823839,0.434931 -1.015664,0.366666 -0.226872,-0.08078 -0.024,-0.333578 0.586599,-0.73457 0.512859,-0.336325 1.155659,-0.859933 1.428423,-1.163581 0.632622,-0.704311 1.412619,-1.971993 1.265471,-2.056684 -0.06203,-0.03561 -0.482998,0.257292 -0.935634,0.651057 -0.796739,0.693167 -1.432786,0.923586 -1.432786,0.519056 0,-0.108252 0.369468,-0.44887 0.82106,-0.756845 0.929175,-0.6337 2.580781,-2.546602 2.58115,-2.989529 2.47e-4,-0.280112 0.863849,-0.605186 1.157955,-0.435862 0.0774,0.0447 -0.02988,0.380097 -0.239356,0.74529 -0.499759,0.871842 -0.06488,4.491036 0.629568,5.237988 0.294798,0.317115 0.412494,0.332822 0.930019,0.124065 0.902489,-0.36393 2.012379,-1.218167 1.409769,-1.085033 -0.746736,0.164973 -0.59285,-0.04103 0.77431,-1.036827 0.69271,-0.504539 1.53935,-1.243437 1.88144,-1.642013 l 0.62197,-0.724664 -1.20928,0.789733 c -0.69227,0.452113 -1.29481,0.710055 -1.40934,0.603335 -0.11018,-0.102591 0.31818,-0.510801 0.95168,-0.907278 0.63352,-0.396476 1.63461,-1.248956 2.22468,-1.894411 0.59008,-0.645457 1.17343,-1.173558 1.29634,-1.173558 0.43467,0 0.52848,0.294108 0.28883,0.905803 -0.13333,0.340464 -0.12002,1.208238 0.0293,1.928399 0.1493,0.720148 0.20459,1.348021 0.12247,1.395261 -0.0823,0.04728 -0.36594,-0.183852 -0.63083,-0.513561 l -0.48157,-0.599467 0.16546,0.801349 c 0.0912,0.440757 0.38169,1.182389 0.64598,1.648063 0.26428,0.46566 0.41511,0.946487 0.33512,1.068489 -0.17899,0.273059 -1.09254,-0.909001 -1.46723,-1.898565 -0.22141,-0.584997 -0.25195,-0.447607 -0.15503,0.695716 0.0666,0.783554 0.33859,1.771467 0.60444,2.195325 0.3532,0.563099 0.38066,0.751303 0.10198,0.69871 -0.53425,-0.100824 -1.17638,-1.273944 -1.38906,-2.537877 -0.15996,-0.951344 -0.20714,-1.009916 -0.43071,-0.534244 -0.13803,0.29385 -0.34173,1.111059 -0.45274,1.816065 l -0.20192,1.281797 1.59471,0.121873 c 2.93431,0.224099 1.95171,0.417407 -2.12859,0.418716 -2.22234,7.32e-4 -4.732677,0.05425 -5.578589,0.118866 l -1.538008,0.11745 -0.01224,-1.403092 z m 7.307444,-0.807847 c 0.19495,-0.847962 0.44486,-1.749498 0.55555,-2.003419 0.31357,-0.719311 0.0276,-0.549657 -0.8863,0.525683 -0.87249,1.026686 -2.731664,2.21812 -3.461303,2.21812 -0.595079,0 -1.619924,-1.027936 -1.857791,-1.863387 -0.154612,-0.542546 -0.249533,-0.625906 -0.411507,-0.360252 -0.257055,0.421736 0.184521,1.636342 0.788611,2.169819 0.281879,0.248933 0.329903,0.431736 0.131885,0.502182 -0.170994,0.06097 -0.584189,-0.235408 -0.917707,-0.658522 l -0.606414,-0.769298 -0.0038,0.941169 -0.0038,0.941157 3.162115,-0.0507 3.162111,-0.0507 0.3543,-1.541756 z m -3.574806,-6.552232 c 0,-0.103771 0.139056,-0.139065 0.30932,-0.07843 0.16997,0.06061 0.309301,0.145386 0.309301,0.188604 0,0.04316 -0.139056,0.07843 -0.309301,0.07843 -0.169979,0 -0.30932,-0.08478 -0.30932,-0.188593 z" />
      <path
         id="path7538-6"
         style="font-size:32px;line-height:1.25;fill:#666666;fill-opacity:1;stroke-width:0.234699"
         d="m 53.00595,60.497776 c 0.29324,-0.168841 3.935381,-0.184725 4.114389,-0.01793 0.08109,0.0757 -0.857996,0.137674 -2.087238,0.137674 -1.229262,0 -2.141467,-0.05377 -2.027151,-0.11969 z m 11.339896,-0.08043 c 0,-0.08584 1.183143,-0.156141 2.629199,-0.156141 1.446056,0 2.628912,0.06014 2.628627,0.133511 -3.07e-4,0.07334 -1.183412,0.143688 -2.629159,0.15614 -1.445769,0.01239 -2.628667,-0.04764 -2.628667,-0.13351 z m 7.024831,-0.62313 c -0.106083,-0.06097 -2.182201,-0.123511 -4.61398,-0.138912 -4.255248,-0.02701 -5.844534,-0.257128 -2.812304,-0.407148 0.804053,-0.03974 1.496577,-0.09233 1.538908,-0.116625 0.160351,-0.09233 -0.760351,-1.841431 -1.373703,-2.609962 -0.632827,-0.792917 -0.639831,-0.7955 -0.665635,-0.244982 -0.01433,0.306008 0.175302,0.884908 0.421339,1.286455 0.276981,0.451924 0.333421,0.77069 0.148269,0.836595 -0.524205,0.186517 -1.214211,-1.114619 -1.214211,-2.289626 0,-1.072911 -0.08416,-1.204229 -1.529507,-2.389213 -1.396722,-1.145055 -3.374192,-2.27096 -3.679659,-2.095103 -0.20213,0.116389 1.485764,1.685844 3.244435,3.017052 1.76252,1.334106 1.926845,1.724357 0.373213,0.886405 -1.425905,-0.769086 -5.213407,-4.265028 -5.213407,-4.812067 0,-0.06474 0.529572,-0.06887 1.176856,-0.0094 1.385868,0.127627 3.72414,0.844508 5.60335,1.71799 1.346753,0.625999 3.54892,2.304332 3.249617,2.476652 -0.08806,0.0507 -0.934034,-0.407986 -1.879846,-1.019293 -0.945871,-0.611327 -2.15742,-1.241595 -2.692315,-1.400624 l -0.972598,-0.289097 1.221768,0.783989 c 0.671984,0.431193 2.02365,1.264806 3.003661,1.852481 2.331964,1.39834 4.31308,2.942241 4.068148,3.170384 -0.19066,0.177591 -1.065961,-0.317457 -3.103394,-1.755158 l -0.996108,-0.702896 0.877677,1.157531 c 0.482735,0.636636 0.968788,1.447855 1.080092,1.802705 l 0.202334,0.645173 2.190208,0.124338 c 2.416237,0.137059 3.054859,0.236232 3.054859,0.474304 0,0.182861 -0.424001,0.211717 -0.708067,0.04811 z M 51.604948,59.526583 c -0.615338,-0.216468 0.341163,-0.350003 1.907083,-0.266254 0.952731,0.05082 1.554369,0.01226 1.554369,-0.100116 0,-0.334155 -0.979499,-2.367008 -1.271408,-2.638746 -0.198034,-0.184337 -0.276654,0.0094 -0.253574,0.623299 0.04955,1.322268 0.0041,1.544302 -0.286708,1.440355 -0.146017,-0.05189 -0.337867,-0.765066 -0.426664,-1.58481 -0.08888,-0.819756 -0.330411,-1.672141 -0.536821,-1.894189 -0.39189,-0.421593 -0.08397,-0.798635 0.474257,-0.580646 0.177965,0.06945 0.621073,0.406606 0.985315,0.749428 0.364202,0.342798 1.50522,1.101589 2.535486,1.686198 1.030329,0.584609 1.873294,1.125527 1.873294,1.202047 0,0.363683 -1.273478,0.07334 -2.123692,-0.484162 -0.522833,-0.342799 -1.000961,-0.623275 -1.062522,-0.623275 -0.06164,0 0.170183,0.520895 0.515093,1.15753 l 0.627032,1.157531 h 1.331372 c 0.732232,0 1.331352,0.08054 1.331352,0.178676 0,0.193392 -6.618463,0.172308 -7.173223,-0.02288 z" />
    </g>
  </g>
</svg>
