<?xml version="1.0" encoding="UTF-8" standalone="no"?>
<svg
   version="1.1"
   width="100"
   height="100"
   id="svg4460"
   sodipodi:docname="sapin.svg"
   inkscape:version="1.2.2 (732a01da63, 2022-12-09)"
   xmlns:inkscape="http://www.inkscape.org/namespaces/inkscape"
   xmlns:sodipodi="http://sodipodi.sourceforge.net/DTD/sodipodi-0.dtd"
   xmlns="http://www.w3.org/2000/svg"
   xmlns:svg="http://www.w3.org/2000/svg"
   xmlns:rdf="http://www.w3.org/1999/02/22-rdf-syntax-ns#"
   xmlns:cc="http://creativecommons.org/ns#"
   xmlns:dc="http://purl.org/dc/elements/1.1/">
  <sodipodi:namedview
     pagecolor="#ffffff"
     bordercolor="#666666"
     borderopacity="1"
     objecttolerance="10"
     gridtolerance="10"
     guidetolerance="10"
     inkscape:pageopacity="0"
     inkscape:pageshadow="2"
     inkscape:window-width="1920"
     inkscape:window-height="1009"
     id="namedview11"
     showgrid="true"
     inkscape:zoom="2.3688077"
     inkscape:cx="87.385733"
     inkscape:cy="24.907045"
     inkscape:window-x="-8"
     inkscape:window-y="-8"
     inkscape:window-maximized="1"
     inkscape:current-layer="text5282"
     inkscape:document-rotation="0"
     inkscape:pagecheckerboard="0"
     showguides="true"
     inkscape:guide-bbox="true"
     inkscape:showpageshadow="0"
     inkscape:deskcolor="#d1d1d1">
    <inkscape:grid
       type="xygrid"
       id="grid823"
       originx="0"
       originy="0" />
    <sodipodi:guide
       position="0,86"
       orientation="66,0"
       id="guide957"
       inkscape:locked="false" />
    <sodipodi:guide
       position="0,20"
       orientation="0,50"
       id="guide959"
       inkscape:locked="false" />
    <sodipodi:guide
       position="8.9999971,64.32985"
       orientation="8.5387222,0"
       id="guide1517"
       inkscape:locked="false" />
    <sodipodi:guide
       position="8.9999971,55.791128"
       orientation="0,26.227758"
       id="guide1519"
       inkscape:locked="false" />
    <sodipodi:guide
       position="35,93.437165"
       orientation="-8.5387222,0"
       id="guide1521"
       inkscape:locked="false" />
    <sodipodi:guide
       position="35.227755,64.32985"
       orientation="0,-26.227758"
       id="guide1523"
       inkscape:locked="false" />
    <sodipodi:guide
       position="7.9247812,20.000001"
       orientation="0,-6.8495616"
       id="guide4054"
       inkscape:locked="false" />
    <sodipodi:guide
       position="85,75"
       orientation="0,6.8495616"
       id="guide4058"
       inkscape:locked="false" />
  </sodipodi:namedview>
  <defs
     id="defs4462" />
  <metadata
     id="metadata4465">
    <rdf:RDF>
      <cc:Work
         rdf:about="">
        <dc:format>image/svg+xml</dc:format>
        <dc:type
           rdf:resource="http://purl.org/dc/dcmitype/StillImage" />
      </cc:Work>
    </rdf:RDF>
  </metadata>
  <g
     aria-label="C"
     id="text3215"
     style="font-size:32px;line-height:1.25"
     transform="translate(-37.75,-4)">
    <g
       aria-label="A"
       id="text5282"
       transform="matrix(1.6290909,0,0,2.8292029,-41.002727,-68.776958)">
      <path
         style="fill:#666666;fill-opacity:1;stroke-width:0.209171"
         d="m 85.124669,38.292678 c 0,-0.08723 0.124111,-0.158715 0.275692,-0.158715 0.151489,0 0.275692,0.07136 0.275692,0.158715 0,0.08723 -0.12393,0.158705 -0.275692,0.158705 -0.151489,0 -0.275692,-0.07136 -0.275692,-0.158705 z"
         id="path10373" />
      <path
         style="fill:#666666;fill-opacity:1;stroke-width:0.209171"
         d="m 97.380105,38.629667 c -0.061,-0.0351 -0.0449,-0.125305 0.0358,-0.200428 0.1954,-0.181983 2.595095,-0.176297 2.595095,0.0063 0,0.14046 -2.414575,0.318766 -2.630795,0.194259 z"
         id="path10371" />
      <path
         style="font-size:32px;line-height:1.25;fill:#666666;fill-opacity:1;stroke-width:0.209171"
         d="m 90.660629,30.872303 c -0.061,-0.0351 -0.0449,-0.125305 0.0358,-0.200428 0.1954,-0.181983 2.595096,-0.176297 2.595096,0.0063 0,0.14046 -2.414576,0.318766 -2.630796,0.194259 z"
         id="path10371-6" />
      <path
         style="fill:#666666;fill-opacity:1;stroke-width:0.209171"
         d="m 72.650559,38.999668 c -0.51968,-0.314309 0.08907,-0.366173 4.479655,-0.381654 3.041424,-0.01093 4.686411,0.04067 4.686411,0.146503 0,0.08954 -0.538753,0.163003 -1.197219,0.163003 -0.65852,0 -2.674327,0.04446 -4.479674,0.09858 -1.805346,0.05434 -3.375466,0.04236 -3.489173,-0.02638 z"
         id="path10369" />
      <path
         style="fill:#666666;fill-opacity:1;stroke-width:0.209171"
         d="m 98.081265,39.403708 c 0,-0.08723 0.31011,-0.158716 0.68916,-0.158716 0.37906,0 0.68917,0.07146 0.68917,0.158716 0,0.08723 -0.31011,0.158725 -0.68917,0.158725 -0.37905,0 -0.68916,-0.07146 -0.68916,-0.158725 z"
         id="path10367" />
      <path
         style="font-size:32px;line-height:1.25;fill:#666666;fill-opacity:1;stroke-width:0.209171"
         d="m 96.145662,36.132438 c 0,-0.08723 0.31011,-0.158716 0.68916,-0.158716 0.37906,0 0.68917,0.07146 0.68917,0.158716 0,0.08723 -0.31011,0.158725 -0.68917,0.158725 -0.37905,0 -0.68916,-0.07146 -0.68916,-0.158725 z"
         id="path10367-4" />
      <path
         style="font-size:32px;line-height:1.25;fill:#666666;fill-opacity:1;stroke-width:0.209171"
         d="m 97.37334,34.718612 c 0,-0.08723 0.31011,-0.158716 0.68916,-0.158716 0.37906,0 0.68917,0.07146 0.68917,0.158716 0,0.08723 -0.31011,0.158725 -0.68917,0.158725 -0.37905,0 -0.68916,-0.07146 -0.68916,-0.158725 z"
         id="path10367-9" />
      <path
         style="fill:#666666;fill-opacity:1;stroke-width:0.209171"
         d="m 82.36799,39.562433 c 0,-0.08723 0.186076,-0.158725 0.413473,-0.158725 0.227417,0 0.413529,0.07136 0.413529,0.158725 0,0.08723 -0.186094,0.158705 -0.413529,0.158705 -0.227415,0 -0.413473,-0.07136 -0.413473,-0.158705 z"
         id="path10365" />
      <path
         style="fill:#666666;fill-opacity:1;stroke-width:0.209171"
         d="m 85.265299,39.718552 c 0.09509,-0.0887 0.288631,-0.120208 0.42979,-0.06989 0.382354,0.136036 0.311063,0.231305 -0.173209,0.231305 -0.236487,0 -0.351856,-0.07252 -0.256618,-0.161301 z"
         id="path10363" />
      <path
         style="fill:#666666;fill-opacity:1;stroke-width:0.209171"
         d="m 77.681707,40.611013 c 0,-0.191116 0.272352,-0.255046 1.086413,-0.255046 0.597524,0 1.163107,0.07136 1.256774,0.158694 0.09892,0.09217 -0.173573,0.158715 -0.650343,0.158715 -0.451401,0 -1.016966,0.0434 -1.256793,0.09627 -0.286131,0.06327 -0.436051,0.0084 -0.436051,-0.158693 z"
         id="path10361" />
      <path
         style="fill:#666666;fill-opacity:1;stroke-width:0.209171"
         d="m 69.273724,40.673333 c -0.094,-0.08723 0.02391,-0.158726 0.259411,-0.158726 0.236469,0 0.429754,0.07136 0.429754,0.158726 0,0.08723 -0.116811,0.158715 -0.259375,0.158715 -0.142545,0 -0.336086,-0.07136 -0.42979,-0.158715 z"
         id="path10359" />
      <path
         style="fill:#666666;fill-opacity:1;stroke-width:0.209171"
         d="m 58.513994,41.141491 c -0.26193,-0.244021 0.09692,-0.401444 0.450689,-0.197748 0.197939,0.113861 0.20283,0.202751 0.0146,0.269749 -0.154227,0.05497 -0.363665,0.02259 -0.465126,-0.07199 z"
         id="path10357" />
      <path
         style="fill:#666666;fill-opacity:1;stroke-width:0.209171"
         d="m 71.61693,41.308183 c 0,-0.08723 0.123928,-0.158726 0.275673,-0.158726 0.151489,0 0.275673,0.07136 0.275673,0.158726 0,0.08723 -0.123928,0.158705 -0.275673,0.158705 -0.151489,0 -0.275673,-0.07136 -0.275673,-0.158705 z"
         id="path10355" />
      <path
         style="fill:#666666;fill-opacity:1;stroke-width:0.209171"
         d="m 82.230281,42.26038 c -0.09381,-0.08723 0.02391,-0.158716 0.259393,-0.158716 0.236469,0 0.42979,0.07136 0.42979,0.158716 0,0.08723 -0.116627,0.158715 -0.259392,0.158715 -0.142546,0 -0.336068,-0.07136 -0.429791,-0.158715 z"
         id="path10353" />
      <path
         style="fill:#666666;fill-opacity:1;stroke-width:0.209171"
         d="m 63.855307,40.684272 c -0.128492,-0.155468 -0.162805,-0.486266 -0.07611,-0.735154 0.236705,-0.68146 -0.06059,-0.701638 -1.353198,-0.09175 -1.118902,0.527863 -1.788939,0.693924 -1.755501,0.435064 0.01095,-0.06558 0.69077,-0.425952 1.516203,-0.801059 1.222862,-0.555724 1.500799,-0.77056 1.500799,-1.160044 0,-0.513738 -0.201553,-0.505488 -1.280355,0.05244 -0.325154,0.168153 -0.653831,0.246806 -0.730397,0.174774 -0.07648,-0.07199 0.408966,-0.404986 1.078949,-0.739883 l 1.218135,-0.608913 0.897143,0.450198 c 0.493416,0.247615 1.204319,0.567389 1.579774,0.710603 0.375456,0.143214 0.595352,0.312522 0.488635,0.37621 -0.106591,0.06379 -0.726984,-0.11056 -1.378349,-0.387255 l -1.184334,-0.503082 -0.09035,0.422767 c -0.101479,0.474864 0.717164,1.050735 2.510702,1.766309 0.597669,0.238472 0.944671,0.460822 0.771096,0.494159 -0.173573,0.03321 -0.987269,-0.231389 -1.808175,-0.588209 l -1.492531,-0.648776 -0.08943,0.832147 c -0.06425,0.597131 -0.155322,0.752336 -0.322763,0.549501 z"
         id="path10349" />
      <path
         style="font-size:32px;line-height:1.25;fill:#666666;fill-opacity:1;stroke-width:0.209171"
         d="m 57.716914,35.145557 c -0.128492,-0.155468 -0.162805,-0.486266 -0.07611,-0.735154 0.236705,-0.68146 -0.06059,-0.701638 -1.353198,-0.09175 -1.118902,0.527863 -1.788939,0.693924 -1.755501,0.435064 0.01095,-0.06558 0.69077,-0.425952 1.516203,-0.801059 1.222862,-0.555724 1.500799,-0.77056 1.500799,-1.160044 0,-0.513738 -0.201553,-0.505488 -1.280355,0.05244 -0.325154,0.168153 -0.653831,0.246806 -0.730397,0.174774 -0.07648,-0.07199 0.408966,-0.404986 1.078949,-0.739883 l 1.218135,-0.608913 0.897143,0.450198 c 0.493416,0.247615 1.204319,0.567389 1.579774,0.710603 0.375456,0.143214 0.595352,0.312522 0.488635,0.37621 -0.106591,0.06379 -0.726984,-0.11056 -1.378349,-0.387255 l -1.184334,-0.503082 -0.09035,0.422767 c -0.101479,0.474864 0.717164,1.050735 2.510702,1.766309 0.597669,0.238472 0.944671,0.460822 0.771096,0.494159 -0.173573,0.03321 -0.987269,-0.231389 -1.808175,-0.588209 l -1.492531,-0.648776 -0.08943,0.832147 c -0.06425,0.597131 -0.155322,0.752336 -0.322763,0.549501 z"
         id="path10349-4" />
      <path
         style="font-size:32px;line-height:1.25;fill:#666666;fill-opacity:1;stroke-width:0.209171"
         d="m 97.433781,29.428281 c -0.128492,-0.155468 -0.162805,-0.486266 -0.07611,-0.735154 0.236705,-0.68146 -0.06059,-0.701638 -1.353198,-0.09175 -1.118902,0.527863 -1.788939,0.693924 -1.755501,0.435064 0.01095,-0.06558 0.69077,-0.425952 1.516203,-0.801059 1.222862,-0.555724 1.500799,-0.77056 1.500799,-1.160044 0,-0.513738 -0.201553,-0.505488 -1.280355,0.05244 -0.325154,0.168153 -0.653831,0.246806 -0.730397,0.174774 -0.07648,-0.07199 0.408966,-0.404986 1.078949,-0.739883 l 1.218135,-0.608913 0.897143,0.450198 c 0.493416,0.247615 1.204319,0.567389 1.579771,0.710603 0.37546,0.143214 0.59535,0.312522 0.48864,0.37621 -0.10659,0.06379 -0.726986,-0.11056 -1.378351,-0.387255 l -1.184334,-0.503082 -0.09035,0.422767 c -0.101479,0.474864 0.717164,1.050735 2.510705,1.766309 0.59767,0.238472 0.94467,0.460822 0.77109,0.494159 -0.17357,0.03321 -0.98727,-0.231389 -1.808172,-0.588209 l -1.492531,-0.648776 -0.08943,0.832147 c -0.06425,0.597131 -0.155322,0.752336 -0.322763,0.549501 z"
         id="path10349-5" />
      <path
         style="font-size:32px;line-height:1.25;fill:#666666;fill-opacity:1;stroke-width:0.209171"
         d="m 95.77495,34.438644 c -0.128492,-0.155468 -0.162805,-0.486266 -0.07611,-0.735154 0.236705,-0.68146 -0.06059,-0.701638 -1.353198,-0.09175 -1.118902,0.527863 -1.788939,0.693924 -1.755501,0.435064 0.01095,-0.06558 0.69077,-0.425952 1.516203,-0.801059 1.222862,-0.555724 1.500799,-0.77056 1.500799,-1.160044 0,-0.513738 -0.201553,-0.505488 -1.280355,0.05244 -0.325154,0.168153 -0.653831,0.246806 -0.730397,0.174774 -0.07648,-0.07199 0.408966,-0.404986 1.078949,-0.739883 l 1.218135,-0.608913 0.897143,0.450198 c 0.493416,0.247615 1.204319,0.567389 1.579771,0.710603 0.375462,0.143214 0.595352,0.312522 0.488642,0.37621 -0.10659,0.06379 -0.726988,-0.11056 -1.378353,-0.387255 l -1.184334,-0.503082 -0.09035,0.422767 c -0.101479,0.474864 0.717164,1.050735 2.510707,1.766309 0.59767,0.238472 0.94467,0.460822 0.77109,0.494159 -0.17357,0.03321 -0.98727,-0.231389 -1.808174,-0.588209 l -1.492531,-0.648776 -0.08943,0.832147 c -0.06425,0.597131 -0.155322,0.752336 -0.322763,0.549501 z"
         id="path10349-5-6" />
      <path
         style="fill:#666666;fill-opacity:1;stroke-width:0.209171"
         d="m 69.687252,42.57781 c 0,-0.08723 0.123929,-0.158715 0.275637,-0.158715 0.15149,0 0.275692,0.07146 0.275692,0.158715 0,0.08723 -0.123929,0.158694 -0.275692,0.158694 -0.151489,0 -0.275637,-0.07136 -0.275637,-0.158694 z"
         id="path10347" />
      <path
         id="path10359-6"
         style="font-size:32px;line-height:1.25;fill:#666666;fill-opacity:1;stroke-width:0.209171"
         d="m 85.584298,34.120146 c -0.220932,0.0043 -0.329644,0.07428 -0.238582,0.158779 0.0937,0.08736 0.287862,0.158779 0.430407,0.158779 0.142564,0 0.258964,-0.07155 0.258964,-0.158779 0,-0.08737 -0.192739,-0.158779 -0.429208,-0.158779 -0.0074,0 -0.01445,-1.38e-4 -0.02158,0 z m 2.381026,0.634427 c -0.151744,0 -0.275749,0.07155 -0.275749,0.158779 0,0.08734 0.12426,0.158779 0.275749,0.158779 0.151744,0 0.275748,-0.07155 0.275748,-0.158779 0,-0.08737 -0.12426,-0.158779 -0.275748,-0.158779 z m -1.930237,1.269543 c -0.151708,0 -0.275748,0.07155 -0.275748,0.15878 0,0.08733 0.124259,0.158779 0.275748,0.158779 0.151763,0 0.275748,-0.07155 0.275748,-0.158779 0,-0.08725 -0.124258,-0.15878 -0.275748,-0.15878 z" />
      <path
         style="font-size:32px;line-height:1.25;fill:#666666;fill-opacity:1;stroke-width:0.209171"
         d="m 88.503893,27.353572 c -0.094,-0.08723 0.02391,-0.158726 0.259411,-0.158726 0.236469,0 0.429754,0.07136 0.429754,0.158726 0,0.08723 -0.116811,0.158715 -0.259375,0.158715 -0.142545,0 -0.336086,-0.07136 -0.42979,-0.158715 z"
         id="path10359-7" />
      <path
         style="font-size:32px;line-height:1.25;fill:#666666;fill-opacity:1;stroke-width:0.209171"
         d="m 90.847099,27.988422 c 0,-0.08723 0.123928,-0.158726 0.275673,-0.158726 0.151489,0 0.275673,0.07136 0.275673,0.158726 0,0.08723 -0.123928,0.158705 -0.275673,0.158705 -0.151489,0 -0.275673,-0.07136 -0.275673,-0.158705 z"
         id="path10355-6" />
      <path
         style="font-size:32px;line-height:1.25;fill:#666666;fill-opacity:1;stroke-width:0.209171"
         d="m 88.917421,29.258049 c 0,-0.08723 0.123929,-0.158715 0.275637,-0.158715 0.15149,0 0.275692,0.07146 0.275692,0.158715 0,0.08723 -0.123929,0.158694 -0.275692,0.158694 -0.151489,0 -0.275637,-0.07136 -0.275637,-0.158694 z"
         id="path10347-2" />
      <path
         style="font-size:32px;line-height:1.25;fill:#666666;fill-opacity:1;stroke-width:0.209171"
         d="m 106.54409,29.892899 c 0.094,0.08723 -0.0239,0.158726 -0.25941,0.158726 -0.23647,0 -0.42975,-0.07136 -0.42975,-0.158726 0,-0.08723 0.11681,-0.158715 0.25937,-0.158715 0.14255,0 0.33609,0.07136 0.42979,0.158715 z"
         id="path10359-4" />
      <path
         style="font-size:32px;line-height:1.25;fill:#666666;fill-opacity:1;stroke-width:0.209171"
         d="m 104.20089,29.258049 c 0,0.08723 -0.12393,0.158726 -0.27568,0.158726 -0.15149,0 -0.27567,-0.07136 -0.27567,-0.158726 0,-0.08723 0.12393,-0.158705 0.27567,-0.158705 0.15149,0 0.27568,0.07136 0.27568,0.158705 z"
         id="path10355-0" />
      <path
         style="font-size:32px;line-height:1.25;fill:#666666;fill-opacity:1;stroke-width:0.209171"
         d="m 106.13056,27.988422 c 0,0.08723 -0.12393,0.158715 -0.27563,0.158715 -0.15149,0 -0.2757,-0.07146 -0.2757,-0.158715 0,-0.08723 0.12393,-0.158694 0.2757,-0.158694 0.15149,0 0.27563,0.07136 0.27563,0.158694 z"
         id="path10347-7" />
      <path
         style="fill:#666666;fill-opacity:1;stroke-width:0.209171"
         d="m 59.211719,42.806498 c 0,-0.136036 0.123929,-0.203297 0.275691,-0.149352 0.151489,0.05402 0.275656,0.165306 0.275656,0.247448 0,0.08208 -0.123929,0.14933 -0.275656,0.14933 -0.151488,0 -0.275691,-0.111307 -0.275691,-0.247426 z"
         id="path10345" />
      <path
         style="fill:#666666;fill-opacity:1;stroke-width:0.209171"
         d="m 98.357065,43.202964 c 0,-0.09248 0.12393,-0.12394 0.27565,-0.06989 0.15149,0.05402 0.2757,0.129562 0.2757,0.168069 0,0.03846 -0.12411,0.06989 -0.2757,0.06989 -0.15148,0 -0.27565,-0.07556 -0.27565,-0.16809 z"
         id="path10343" />
      <path
         style="fill:#666666;fill-opacity:1;stroke-width:0.209171"
         d="m 87.054529,43.212464 c 0,-0.08723 0.123928,-0.158705 0.275673,-0.158705 0.151489,0 0.275691,0.07136 0.275691,0.158705 0,0.08723 -0.123928,0.158715 -0.275691,0.158715 -0.151489,0 -0.275673,-0.07136 -0.275673,-0.158715 z"
         id="path10341" />
      <path
         style="fill:#666666;fill-opacity:1;stroke-width:0.209171"
         d="m 95.324615,43.609252 c 0,-0.130949 0.12393,-0.238073 0.27568,-0.238073 0.15149,0 0.27565,0.107155 0.27565,0.238073 0,0.130949 -0.12393,0.238072 -0.27565,0.238072 -0.15149,0 -0.27568,-0.107155 -0.27568,-0.238072 z"
         id="path10339" />
      <path
         style="fill:#666666;fill-opacity:1;stroke-width:0.209171"
         d="m 62.795382,44.006019 c 0,-0.08723 0.123928,-0.158695 0.275691,-0.158695 0.151489,0 0.275655,0.07136 0.275655,0.158695 0,0.08723 -0.123929,0.158726 -0.275655,0.158726 -0.151489,0 -0.275691,-0.07136 -0.275691,-0.158726 z"
         id="path10337" />
      <path
         style="fill:#666666;fill-opacity:1;stroke-width:0.209171"
         d="m 54.73199,44.232121 c -0.11389,-0.066 -0.206646,-0.429777 -0.206646,-0.808037 0,-0.378259 -0.09308,-0.687524 -0.206645,-0.68724 -0.113708,2.94e-4 -0.951058,0.285734 -1.860795,0.634335 -0.909719,0.348623 -1.809088,0.634062 -1.998614,0.634346 -0.512617,7.57e-4 -0.416722,-0.267605 0.137983,-0.385648 0.265324,-0.05654 1.254785,-0.403377 2.198798,-0.770865 1.670795,-0.650425 1.716571,-0.686946 1.722922,-1.37489 l 0.0055,-0.706747 -1.070954,0.602071 c -0.627876,0.352974 -1.144507,0.533612 -1.24867,0.436588 -0.09746,-0.09091 0.384234,-0.463713 1.070972,-0.828174 1.006781,-0.534263 1.248652,-0.766335 1.248652,-1.197899 0,-0.640546 -0.08195,-0.651456 -1.042974,-0.138505 -0.714352,0.381338 -1.162395,0.498857 -1.162395,0.304892 0,-0.05055 0.548336,-0.407581 1.218555,-0.793449 0.799607,-0.46034 1.368275,-0.668461 1.654004,-0.605329 0.239517,0.05287 0.435504,0.155488 0.435504,0.227951 0,0.07241 0.461475,0.382401 1.025488,0.688755 0.56405,0.306374 0.93434,0.609501 0.822896,0.673672 -0.111518,0.06421 -0.609843,-0.110571 -1.107548,-0.388317 -1.1066,-0.6175 -1.292366,-0.627347 -1.291526,-0.06842 7.86e-4,0.536723 1.09302,1.279033 2.755018,1.872423 0.681682,0.243391 1.092418,0.470734 0.912712,0.505237 -0.404147,0.07746 -1.587349,-0.336096 -2.772449,-0.969286 l -0.895931,-0.478692 v 0.731812 c 0,0.689731 0.07538,0.763581 1.30943,1.284046 0.720212,0.303726 2.05377,0.755195 2.963489,1.003273 2.010532,0.548251 1.918288,0.514915 1.72785,0.62454 -0.168463,0.097 -2.993129,-0.687933 -4.675661,-1.299432 -0.571168,-0.207585 -1.09678,-0.377419 -1.168034,-0.377419 -0.07136,0 -0.166821,0.399321 -0.21214,0.887384 -0.04527,0.488075 -0.175763,0.833271 -0.289435,0.767113 z"
         id="path10335" />
      <path
         style="font-size:32px;line-height:1.25;fill:#666666;fill-opacity:1;stroke-width:0.209171"
         d="m 90.966411,41.927658 c -0.11389,-0.066 -0.206646,-0.429777 -0.206646,-0.808037 0,-0.378259 -0.09308,-0.687524 -0.206645,-0.68724 -0.113708,2.94e-4 -0.951058,0.285734 -1.860795,0.634335 -0.909719,0.348623 -1.809088,0.634062 -1.998614,0.634346 -0.512617,7.57e-4 -0.416722,-0.267605 0.137983,-0.385648 0.265324,-0.05654 1.254785,-0.403377 2.198798,-0.770865 1.670795,-0.650425 1.716571,-0.686946 1.722922,-1.37489 l 0.0055,-0.706747 -1.070954,0.602071 c -0.627876,0.352974 -1.144507,0.533612 -1.24867,0.436588 -0.09746,-0.09091 0.384234,-0.463713 1.070972,-0.828174 1.006781,-0.534263 1.248652,-0.766335 1.248652,-1.197899 0,-0.640546 -0.08195,-0.651456 -1.042974,-0.138505 -0.714352,0.381338 -1.162395,0.498857 -1.162395,0.304892 0,-0.05055 0.548336,-0.407581 1.218555,-0.793449 0.799607,-0.46034 1.368275,-0.668461 1.654004,-0.605329 0.239517,0.05287 0.435504,0.155488 0.435504,0.227951 0,0.07241 0.461475,0.382401 1.025488,0.688755 0.56405,0.306374 0.93434,0.609501 0.822896,0.673672 -0.111518,0.06421 -0.609843,-0.110571 -1.107548,-0.388317 -1.1066,-0.6175 -1.292366,-0.627347 -1.291526,-0.06842 7.86e-4,0.536723 1.09302,1.279033 2.755018,1.872423 0.681682,0.243391 1.092418,0.470734 0.912712,0.505237 -0.404147,0.07746 -1.587349,-0.336096 -2.772449,-0.969286 L 91.310268,38.30643 v 0.731812 c 0,0.689731 0.07538,0.763581 1.30943,1.284046 0.720212,0.303726 2.05377,0.755195 2.963489,1.003273 2.010532,0.548251 1.918288,0.514915 1.72785,0.62454 -0.168463,0.097 -2.993129,-0.687933 -4.675661,-1.299432 -0.571168,-0.207585 -1.09678,-0.377419 -1.168034,-0.377419 -0.07136,0 -0.166821,0.399321 -0.21214,0.887384 -0.04527,0.488075 -0.175763,0.833271 -0.289435,0.767113 z"
         id="path10335-1" />
      <path
         style="fill:#666666;fill-opacity:1;stroke-width:0.209171"
         d="m 56.45493,44.323551 c 0,-0.08723 0.12393,-0.158705 0.275655,-0.158705 0.151489,0 0.275711,0.07136 0.275711,0.158705 0,0.08723 -0.12393,0.158726 -0.275711,0.158726 -0.151488,0 -0.275655,-0.07136 -0.275655,-0.158726 z"
         id="path10333" />
      <path
         style="fill:#666666;fill-opacity:1;stroke-width:0.209171"
         d="m 91.534042,44.998453 c -1.569958,-0.02859 -2.825619,-0.1196 -2.825619,-0.2046 0,-0.172452 4.453558,-0.208962 6.433442,-0.05276 1.40922,0.11118 1.4901,0.395222 0.0975,0.342233 -0.48382,-0.01839 -2.151186,-0.05665 -3.705317,-0.08492 z"
         id="path10331" />
      <path
         style="fill:#666666;fill-opacity:1;stroke-width:0.209171"
         d="m 60.58994,45.275599 c 0,-0.08723 0.123929,-0.158704 0.275655,-0.158704 0.151489,0 0.275674,0.07136 0.275674,0.158704 0,0.08723 -0.124112,0.158716 -0.275674,0.158716 -0.151489,0 -0.275655,-0.07136 -0.275655,-0.158716 z"
         id="path10329" />
      <path
         style="fill:#666666;fill-opacity:1;stroke-width:0.209171"
         d="m 51.645194,45.289369 c -0.08889,-0.08271 -0.0438,-0.192157 0.09984,-0.243255 0.143641,-0.05118 0.333732,-0.02522 0.42249,0.05748 0.08889,0.08271 0.0438,0.192146 -0.09984,0.243244 -0.14364,0.05118 -0.33375,0.02522 -0.422489,-0.05748 z"
         id="path10327" />
      <path
         style="fill:#666666;fill-opacity:1;stroke-width:0.209171"
         d="m 67.366771,45.773249 c -0.118819,-0.110571 -0.141634,-0.244 -0.05056,-0.29638 0.246709,-0.142057 0.515701,0.06684 0.382446,0.297021 -0.09327,0.161269 -0.158242,0.161143 -0.33198,-6.31e-4 z"
         id="path10325" />
      <path
         style="fill:#666666;fill-opacity:1;stroke-width:0.209171"
         d="m 92.29214,45.910658 c 0.539371,-0.20068 1.102674,-0.20068 1.102674,0 0,0.08723 -0.341138,0.157611 -0.758083,0.156277 -0.590711,-10e-4 -0.666809,-0.03636 -0.344591,-0.156277 z"
         id="path10323" />
      <path
         style="fill:#666666;fill-opacity:1;stroke-width:0.209171"
         d="m 100.28662,46.475567 c 0,-0.136173 0.12411,-0.247437 0.27567,-0.247437 0.15149,0 0.27567,0.06726 0.27567,0.149341 0,0.08208 -0.12393,0.19348 -0.27567,0.247447 -0.15149,0.05391 -0.27567,-0.01377 -0.27567,-0.149351 z"
         id="path10321" />
      <path
         style="fill:#666666;fill-opacity:1;stroke-width:0.209171"
         d="m 68.901444,46.553447 c 0.118272,-0.204611 0.496556,-0.241352 0.530668,-0.0515 0.01278,0.06337 -0.128309,0.143634 -0.31015,0.178547 -0.181788,0.03489 -0.281186,-0.02218 -0.220481,-0.126956 z"
         id="path10319" />
      <path
         style="fill:#666666;fill-opacity:1;stroke-width:0.209171"
         d="m 52.319775,47.20238 c 0,-0.117277 0.652735,-0.180638 1.860814,-0.180491 1.023427,1.26e-4 3.478022,-0.08218 5.45466,-0.18272 3.35663,-0.170885 5.64081,-0.110203 5.641357,0.150003 1.28e-4,0.06148 -1.023317,0.117529 -2.274287,0.124486 -1.251024,0.0074 -4.166329,0.07031 -6.478543,0.141048 -3.090867,0.09438 -4.204001,0.08061 -4.204001,-0.05234 z"
         id="path10317" />
      <path
         style="fill:#666666;fill-opacity:1;stroke-width:0.209171"
         d="m 106.90445,48.766747 c -0.0889,-0.08271 -0.0438,-0.192157 0.0998,-0.243254 0.14364,-0.05107 0.33376,-0.02522 0.4225,0.05748 0.0889,0.08271 0.0438,0.192145 -0.0998,0.243243 -0.14364,0.05118 -0.33376,0.02522 -0.4225,-0.05748 z"
         id="path10315" />
      <path
         style="fill:#666666;fill-opacity:1;stroke-width:0.209171"
         d="m 98.757594,48.752977 c 0,-0.08723 0.123927,-0.158716 0.275657,-0.158716 0.15149,0 0.27569,0.07136 0.27569,0.158716 0,0.08723 -0.12393,0.158715 -0.27569,0.158715 -0.15149,0 -0.275657,-0.07136 -0.275657,-0.158715 z"
         id="path10313" />
      <path
         style="fill:#666666;fill-opacity:1;stroke-width:0.209171"
         d="m 102.49199,45.887057 v -2.105662 l -1.1716,0.631855 c -2.149035,1.158972 -2.644855,1.372789 -2.940055,1.267746 -0.16719,-0.05938 0.40311,-0.437838 1.32945,-0.881657 1.984895,-0.951029 2.783175,-1.573373 2.779135,-2.16669 l -0.002,-0.451637 -0.75504,0.546034 c -0.41528,0.300331 -0.89995,0.65732 -1.07711,0.793313 -0.17704,0.136036 -0.4028,0.200764 -0.50155,0.143918 -0.0987,-0.05685 0.3873,-0.546675 1.08015,-1.088527 1.10208,-0.861919 1.25966,-1.085016 1.25966,-1.783585 v -0.798463 l -1.14328,0.747775 c -0.68256,0.446435 -1.21766,0.678507 -1.32783,0.575871 -0.101305,-0.09459 0.35096,-0.493676 1.00547,-0.886923 0.65448,-0.393267 1.18995,-0.820911 1.18995,-0.950304 0,-0.340174 0.75757,-0.289139 1.0949,0.07388 0.15788,0.16997 0.78872,0.642606 1.4016,1.050282 1.49019,0.991271 1.19944,1.078616 -0.39243,0.117886 l -1.26426,-0.763004 -0.006,0.730077 c -0.005,0.843812 0.82116,1.615371 2.76156,2.571613 0.65269,0.321645 1.11614,0.625455 1.02989,0.675123 -0.0861,0.0495 -0.9761,-0.350903 -1.97737,-0.890148 l -1.81954,-0.980437 v 0.708238 c 0,0.655702 0.11772,0.772641 1.5851,1.576643 0.87182,0.477617 1.8322,0.947372 2.13415,1.043882 0.30199,0.09637 0.4602,0.226638 0.3516,0.28916 -0.22071,0.126966 -2.49319,-0.86213 -3.44922,-1.5013 l -0.6189,-0.413761 -0.002,2.014208 c -7.8e-4,1.170721 -0.11699,2.055289 -0.27702,2.112314 -0.1785,0.06348 -0.27565,-0.644225 -0.27565,-2.007587 z"
         id="path10311" />
      <path
         style="fill:#666666;fill-opacity:1;stroke-width:0.209171"
         d="m 88.593437,47.8366 c -0.118818,-0.110571 -0.141633,-0.244011 -0.05055,-0.296391 0.246726,-0.142058 0.51572,0.06684 0.382464,0.297021 -0.09327,0.161279 -0.15806,0.161142 -0.33198,-6.3e-4 z"
         id="path10309" />
      <path
         style="fill:#666666;fill-opacity:1;stroke-width:0.209171"
         d="m 57.557533,48.132706 c 0,-0.09259 0.918935,-0.158715 2.205387,-0.158715 1.286488,0 2.205368,0.066 2.205368,0.158715 0,0.09259 -0.91888,0.158694 -2.205368,0.158694 -1.286452,0 -2.205387,-0.066 -2.205387,-0.158694 z"
         id="path10307" />
      <path
         style="font-size:32px;line-height:1.25;fill:#666666;fill-opacity:1;stroke-width:0.209171"
         d="m 60.254435,50.270695 c 0,-0.09259 0.918935,-0.158715 2.205387,-0.158715 1.286488,0 2.205368,0.066 2.205368,0.158715 0,0.09259 -0.91888,0.158694 -2.205368,0.158694 -1.286452,0 -2.205387,-0.066 -2.205387,-0.158694 z"
         id="path10307-1" />
      <path
         style="fill:#666666;fill-opacity:1;stroke-width:0.209171"
         d="m 67.642426,48.471281 c -0.118819,-0.110571 -0.141634,-0.243989 -0.05037,-0.29638 0.246727,-0.142036 0.515738,0.06684 0.382464,0.297022 -0.09327,0.161279 -0.158059,0.161153 -0.33198,-6.42e-4 z"
         id="path10305" />
      <path
         style="fill:#666666;fill-opacity:1;stroke-width:0.209171"
         d="m 89.535425,49.084881 c 0,-0.08723 0.186094,-0.158704 0.413528,-0.158704 0.227416,0 0.413492,0.07136 0.413492,0.158704 0,0.08723 -0.186076,0.158716 -0.413492,0.158716 -0.227415,0 -0.413528,-0.07146 -0.413528,-0.158716 z"
         id="path10303" />
      <path
         style="fill:#666666;fill-opacity:1;stroke-width:0.209171"
         d="m 66.807119,49.73331 c -0.08889,-0.08271 -0.0438,-0.192136 0.09984,-0.243233 0.143641,-0.05107 0.333733,-0.02522 0.42249,0.05748 0.08889,0.08271 0.0438,0.192124 -0.09984,0.243232 -0.143641,0.05118 -0.33375,0.02522 -0.42249,-0.05748 z"
         id="path10301" />
      <path
         style="fill:#666666;fill-opacity:1;stroke-width:0.209171"
         d="m 87.054383,50.205231 c 0,-0.08219 0.123929,-0.193481 0.275673,-0.247437 0.151489,-0.05391 0.275674,0.01377 0.275674,0.149362 0,0.136025 -0.12393,0.247415 -0.275674,0.247415 -0.151488,0 -0.275673,-0.06726 -0.275673,-0.14934 z"
         id="path10299" />
      <path
         style="fill:#666666;fill-opacity:1;stroke-width:0.209171"
         d="m 73.070913,49.497402 c 0.07063,-0.646042 0.04398,-1.253148 -0.05896,-1.349131 -0.117906,-0.109836 -0.72691,0.0907 -1.642396,0.540558 -0.800263,0.393267 -1.586983,0.668113 -1.748237,0.610731 -0.173938,-0.0619 0.03194,-0.239607 0.506557,-0.437008 2.007539,-0.835194 2.808131,-1.370792 2.934341,-1.963068 0.06954,-0.325638 0.04435,-0.724161 -0.05549,-0.885619 -0.160797,-0.259564 -0.279944,-0.229202 -1.029614,0.26236 -0.466293,0.305766 -0.908678,0.652139 -0.983071,0.769699 -0.100202,0.158337 -0.220499,0.167848 -0.463502,0.03679 -0.249427,-0.134522 0.0055,-0.375401 1.068216,-1.002516 l 1.396491,-0.825462 -0.01278,-1.140076 -0.01278,-1.140086 -0.927367,0.604278 c -0.613366,0.399699 -0.994644,0.541547 -1.126184,0.419015 -0.118088,-0.10995 0.319934,-0.483954 1.076977,-0.919795 l 1.275811,-0.734523 1.571798,0.904935 c 0.864509,0.497701 1.502259,0.944976 1.417261,0.993931 -0.08505,0.04897 -0.699459,-0.216277 -1.365372,-0.589429 l -1.210816,-0.678412 -0.08323,1.019553 -0.08323,1.019541 2.006116,1.162755 c 2.348827,1.361376 2.207832,1.566165 -0.191606,0.278409 l -1.647814,-0.88435 -0.08505,0.739368 c -0.108416,0.945512 0.324386,1.325338 2.589566,2.271134 0.975954,0.407508 1.641921,0.766346 1.479919,0.797433 -0.162075,0.031 -1.000721,-0.25968 -1.863843,-0.646159 -2.522072,-1.129303 -2.367864,-1.16368 -2.182134,0.486561 0.139625,1.239927 0.101662,1.453303 -0.258426,1.453303 -0.352331,0 -0.400734,-0.193702 -0.293487,-1.17461 z"
         id="path10297" />
      <path
         style="font-size:32px;line-height:1.25;fill:#666666;fill-opacity:1;stroke-width:0.209171"
         d="m 66.765392,35.390532 c 0.07063,-0.646042 0.04398,-1.253148 -0.05896,-1.349131 -0.117906,-0.109836 -0.72691,0.0907 -1.642396,0.540558 -0.800263,0.393267 -1.586983,0.668113 -1.748237,0.610731 -0.173938,-0.0619 0.03194,-0.239607 0.506557,-0.437008 2.007539,-0.835194 2.808131,-1.370792 2.934341,-1.963068 0.06954,-0.325638 0.04435,-0.724161 -0.05549,-0.885619 -0.160797,-0.259564 -0.279944,-0.229202 -1.029614,0.26236 -0.466293,0.305766 -0.908678,0.652139 -0.983071,0.769699 -0.100202,0.158337 -0.220499,0.167848 -0.463502,0.03679 -0.249427,-0.134522 0.0055,-0.375401 1.068216,-1.002516 l 1.396491,-0.825462 -0.01278,-1.140076 -0.01278,-1.140086 -0.927367,0.604278 c -0.613366,0.399699 -0.994644,0.541547 -1.126184,0.419015 -0.118088,-0.10995 0.319934,-0.483954 1.076977,-0.919795 l 1.275811,-0.734523 1.571798,0.904935 c 0.864509,0.497701 1.502259,0.944976 1.417261,0.993931 -0.08505,0.04897 -0.699459,-0.216277 -1.365372,-0.589429 l -1.210816,-0.678412 -0.08323,1.019553 -0.08323,1.019541 2.006116,1.162755 c 2.348827,1.361376 2.207832,1.566165 -0.191606,0.278409 l -1.647814,-0.88435 -0.08505,0.739368 c -0.108416,0.945512 0.324386,1.325338 2.589566,2.271134 0.975954,0.407508 1.641921,0.766346 1.479919,0.797433 -0.162075,0.031 -1.000721,-0.25968 -1.863843,-0.646159 -2.522072,-1.129303 -2.367864,-1.16368 -2.182134,0.486561 0.139625,1.239927 0.101662,1.453303 -0.258426,1.453303 -0.352331,0 -0.400734,-0.193702 -0.293487,-1.17461 z"
         id="path10297-7-4" />
      <path
         style="fill:#666666;fill-opacity:1;stroke-width:0.209171"
         d="m 99.859731,52.856693 c 7.9e-4,-0.217611 0.980899,-0.294741 3.744639,-0.294741 1.61128,0 2.87202,0.06558 2.87202,0.149394 0,0.08229 -1.48472,0.171379 -3.30858,0.198389 -1.81971,0.02701 -3.308369,0.0021 -3.308079,-0.05307 z"
         id="path10295" />
      <path
         style="fill:#666666;fill-opacity:1;stroke-width:0.209171"
         d="m 69.411433,51.782998 c 0,-0.08723 0.123929,-0.158726 0.275655,-0.158726 0.151489,0 0.275692,0.07136 0.275692,0.158726 0,0.08723 -0.123929,0.158704 -0.275692,0.158704 -0.151489,0 -0.275655,-0.07136 -0.275655,-0.158704 z"
         id="path10293" />
      <path
         style="fill:#666666;fill-opacity:1;stroke-width:0.209171"
         d="m 102.61697,53.514233 c 0,-0.08723 0.17869,-0.158705 0.39725,-0.158705 0.2186,0 0.47392,0.07136 0.56761,0.158705 0.0938,0.08723 -0.085,0.158716 -0.39723,0.158716 -0.31219,0 -0.56763,-0.07136 -0.56763,-0.158716 z"
         id="path10291" />
      <path
         style="fill:#666666;fill-opacity:1;stroke-width:0.209171"
         d="m 56.965522,53.119352 c 0.0606,-0.104675 0.200294,-0.185104 0.310133,-0.178546 0.329625,0.01965 0.26578,0.237316 -0.08943,0.305523 -0.181787,0.03489 -0.281185,-0.02218 -0.22048,-0.126966 z"
         id="path10289" />
      <path
         style="fill:#666666;fill-opacity:1;stroke-width:0.209171"
         d="m 59.680879,53.279497 c 0,-0.266071 0.48889,-0.331945 0.651622,-0.08775 0.096,0.144076 -8.66e-4,0.237158 -0.246763,0.237158 -0.222653,0 -0.404859,-0.06726 -0.404859,-0.14934 z"
         id="path10287" />
      <path
         style="fill:#666666;fill-opacity:1;stroke-width:0.209171"
         d="m 98.523374,54.315681 c 0.11826,-0.2046 0.496567,-0.241352 0.530657,-0.0515 0.0127,0.06337 -0.1283,0.143624 -0.310157,0.178547 -0.18179,0.03489 -0.28115,-0.02218 -0.22048,-0.126976 z"
         id="path10285" />
      <path
         style="fill:#666666;fill-opacity:1;stroke-width:0.209171"
         d="m 84.849123,53.211351 c 0,-0.08723 0.12393,-0.158726 0.275656,-0.158726 0.151489,0 0.275655,0.07136 0.275655,0.158726 0,0.08723 -0.123929,0.158705 -0.275655,0.158705 -0.151489,0 -0.275656,-0.07136 -0.275656,-0.158705 z"
         id="path10283" />
      <path
         style="fill:#666666;fill-opacity:1;stroke-width:0.209171"
         d="m 102.34141,54.942607 c 0,-0.08723 0.12392,-0.158715 0.27567,-0.158715 0.15149,0 0.27568,0.07136 0.27568,0.158715 0,0.08723 -0.12393,0.158704 -0.27568,0.158704 -0.15149,0 -0.27567,-0.07136 -0.27567,-0.158704 z"
         id="path10281" />
      <path
         style="fill:#666666;fill-opacity:1;stroke-width:0.209171"
         d="m 69.135851,53.687485 c 0,-0.08723 0.123928,-0.158704 0.275673,-0.158704 0.151489,0 0.275673,0.07146 0.275673,0.158704 0,0.08723 -0.123928,0.158716 -0.275673,0.158716 -0.151489,0 -0.275673,-0.07136 -0.275673,-0.158716 z"
         id="path10279" />
      <path
         style="fill:#666666;fill-opacity:1;stroke-width:0.209171"
         d="m 51.410824,54.698496 c 0,-0.09406 1.010814,-0.158716 2.481042,-0.158716 1.470264,0 2.48106,0.06474 2.48106,0.158716 0,0.09396 -1.010796,0.158715 -2.48106,0.158715 -1.470228,0 -2.481042,-0.06463 -2.481042,-0.158715 z"
         id="path10277" />
      <path
         style="fill:#666666;fill-opacity:1;stroke-width:0.209171"
         d="m 75.016196,54.004911 c -2.969896,-0.07021 -4.026412,-0.179724 -3.652016,-0.378375 0.203269,-0.10788 6.816327,0.136035 7.030036,0.259334 0.337108,0.194479 0.125754,0.20193 -3.37802,0.118988 z"
         id="path10275" />
      <path
         style="fill:#666666;fill-opacity:1;stroke-width:0.209171"
         d="m 58.578313,54.857206 c 0,-0.08723 0.123929,-0.158715 0.275655,-0.158715 0.151489,0 0.275655,0.07136 0.275655,0.158715 0,0.08723 -0.123929,0.158705 -0.275655,0.158705 -0.151489,0 -0.275655,-0.07136 -0.275655,-0.158705 z"
         id="path10273" />
      <path
         style="fill:#666666;fill-opacity:1;stroke-width:0.209171"
         d="m 87.881494,54.093511 c 0,-0.136035 0.123929,-0.247436 0.275673,-0.247436 0.15149,0 0.275674,0.06726 0.275674,0.149341 0,0.08208 -0.123929,0.193481 -0.275674,0.247447 -0.151489,0.05402 -0.275673,-0.01377 -0.275673,-0.149352 z"
         id="path10271" />
      <path
         style="fill:#666666;fill-opacity:1;stroke-width:0.209171"
         d="m 53.937696,55.511568 c -0.306501,-0.111791 -0.306501,-0.147177 0,-0.212262 0.503035,-0.106787 1.095484,0.02827 0.904462,0.206155 -0.191807,0.178757 -0.427035,0.180344 -0.904462,0.0063 z"
         id="path10269" />
      <path
         style="fill:#666666;fill-opacity:1;stroke-width:0.209171"
         d="m 101.51439,56.450877 c 0,-0.130949 0.12393,-0.238073 0.27565,-0.238073 0.15149,0 0.27571,0.107144 0.27571,0.238073 0,0.130949 -0.12393,0.238061 -0.27571,0.238061 -0.15148,0 -0.27565,-0.107155 -0.27565,-0.238061 z"
         id="path10265" />
      <path
         style="fill:#666666;fill-opacity:1;stroke-width:0.209171"
         d="m 98.757674,57.165105 c 0,-0.08723 0.123917,-0.158715 0.275687,-0.158715 0.15149,0 0.27567,0.07146 0.27567,0.158715 0,0.08723 -0.12393,0.158695 -0.27567,0.158695 -0.1515,0 -0.275687,-0.07136 -0.275687,-0.158695 z"
         id="path10263" />
      <path
         id="path10291-7"
         style="font-size:32px;line-height:1.25;fill:#666666;fill-opacity:1;stroke-width:0.209171"
         d="m 55.152501,48.878334 c -0.21856,0 -0.39684,0.07155 -0.39684,0.158779 0,0.08736 0.2549,0.158779 0.56708,0.158779 0.31223,0 0.49184,-0.07155 0.39804,-0.158779 -0.09369,-0.08734 -0.34968,-0.158779 -0.56828,-0.158779 z m -4.1626,0.784922 c -0.12138,0.0019 -0.26382,0.06346 -0.3285,0.175347 -0.06067,0.104796 0.03881,0.161914 0.2206,0.127024 0.18185,-0.03492 0.32322,-0.114739 0.31052,-0.178109 -0.01545,-0.08603 -0.10204,-0.125823 -0.20262,-0.124262 z m 3.75138,0.644091 c -0.14524,0.0043 -0.26137,0.07359 -0.26137,0.158089 0,0.08734 0.12426,0.158779 0.27575,0.158779 0.15175,0 0.27575,-0.07155 0.27575,-0.158779 0,-0.08735 -0.12426,-0.158089 -0.27575,-0.158089 -0.0047,0 -0.0097,-1.38e-4 -0.01438,0 z m -0.82005,1.428323 c -0.14848,0.0033 -0.26856,0.109266 -0.26856,0.238169 0,0.130906 0.12427,0.238169 0.27575,0.238169 0.15178,0 0.27575,-0.10722 0.27575,-0.238169 0,-0.130929 -0.12426,-0.238169 -0.27575,-0.238169 -0.0024,0 -0.0048,-5.2e-5 -0.0072,0 z m -2.76348,0.793897 c -0.14525,0.0043 -0.26136,0.07428 -0.26136,0.158779 0,0.08733 0.12425,0.158779 0.27575,0.158779 0.15174,0 0.27574,-0.07155 0.27574,-0.158779 0,-0.08726 -0.12425,-0.158779 -0.27574,-0.158779 -0.0048,0 -0.0097,-1.38e-4 -0.01439,0 z" />
      <path
         id="path10291-7-9"
         style="font-size:32px;line-height:1.25;fill:#666666;fill-opacity:1;stroke-width:0.209171"
         d="m 76.636876,27.670947 c -0.21856,0 -0.39684,0.07155 -0.39684,0.158779 0,0.08736 0.2549,0.158779 0.56708,0.158779 0.31223,0 0.49184,-0.07155 0.39804,-0.158779 -0.09369,-0.08734 -0.34968,-0.158779 -0.56828,-0.158779 z m -4.1626,0.784922 c -0.12138,0.0019 -0.26382,0.06346 -0.3285,0.175347 -0.06067,0.104796 0.03881,0.161914 0.2206,0.127024 0.18185,-0.03492 0.32322,-0.114739 0.31052,-0.178109 -0.01545,-0.08603 -0.10204,-0.125823 -0.20262,-0.124262 z m 3.75138,0.644091 c -0.14524,0.0043 -0.26137,0.07359 -0.26137,0.158089 0,0.08734 0.12426,0.158779 0.27575,0.158779 0.15175,0 0.27575,-0.07155 0.27575,-0.158779 0,-0.08735 -0.12426,-0.158089 -0.27575,-0.158089 -0.0047,0 -0.0097,-1.38e-4 -0.01438,0 z m -0.82005,1.428323 c -0.14848,0.0033 -0.26856,0.109266 -0.26856,0.238169 0,0.130906 0.12427,0.238169 0.27575,0.238169 0.15178,0 0.27575,-0.10722 0.27575,-0.238169 0,-0.130929 -0.12426,-0.238169 -0.27575,-0.238169 -0.0024,0 -0.0048,-5.2e-5 -0.0072,0 z m -2.76348,0.793897 c -0.14525,0.0043 -0.26136,0.07428 -0.26136,0.158779 0,0.08733 0.12425,0.158779 0.27575,0.158779 0.15174,0 0.27574,-0.07155 0.27574,-0.158779 0,-0.08726 -0.12425,-0.158779 -0.27574,-0.158779 -0.0048,0 -0.0097,-1.38e-4 -0.01439,0 z" />
      <path
         id="path10291-7-99"
         style="font-size:32px;line-height:1.25;fill:#666666;fill-opacity:1;stroke-width:0.209171"
         d="m 58.776786,27.137311 c 0.21856,0 0.39684,0.07155 0.39684,0.158779 0,0.08736 -0.2549,0.158779 -0.56708,0.158779 -0.31223,0 -0.49184,-0.07155 -0.39804,-0.158779 0.09369,-0.08734 0.34968,-0.158779 0.56828,-0.158779 z m 4.1626,0.784922 c 0.12138,0.0019 0.26382,0.06346 0.3285,0.175347 0.06067,0.104796 -0.03881,0.161914 -0.2206,0.127024 -0.18185,-0.03492 -0.32322,-0.114739 -0.31052,-0.178109 0.01545,-0.08603 0.10204,-0.125823 0.20262,-0.124262 z m -3.75138,0.644091 c 0.14524,0.0043 0.26137,0.07359 0.26137,0.158089 0,0.08734 -0.12426,0.158779 -0.27575,0.158779 -0.15175,0 -0.27575,-0.07155 -0.27575,-0.158779 0,-0.08735 0.12426,-0.158089 0.27575,-0.158089 0.0047,0 0.0097,-1.38e-4 0.01438,0 z m 0.82005,1.428323 c 0.14848,0.0033 0.26856,0.109266 0.26856,0.238169 0,0.130906 -0.12427,0.238169 -0.27575,0.238169 -0.15178,0 -0.27575,-0.10722 -0.27575,-0.238169 0,-0.130929 0.12426,-0.238169 0.27575,-0.238169 0.0024,0 0.0048,-5.2e-5 0.0072,0 z m 2.76348,0.793897 c 0.14525,0.0043 0.26136,0.07428 0.26136,0.158779 0,0.08733 -0.12425,0.158779 -0.27575,0.158779 -0.15174,0 -0.27574,-0.07155 -0.27574,-0.158779 0,-0.08726 0.12425,-0.158779 0.27574,-0.158779 0.0048,0 0.0097,-1.38e-4 0.01439,0 z" />
      <path
         id="path10291-7-99-7"
         style="font-size:32px;line-height:1.25;fill:#666666;fill-opacity:1;stroke-width:0.209171"
         d="m 50.800474,32.640048 c 0.21856,0 0.39684,0.07155 0.39684,0.158779 0,0.08736 -0.2549,0.158779 -0.56708,0.158779 -0.31223,0 -0.49184,-0.07155 -0.39804,-0.158779 0.09369,-0.08734 0.34968,-0.158779 0.56828,-0.158779 z m 4.1626,0.784922 c 0.12138,0.0019 0.26382,0.06346 0.3285,0.175347 0.06067,0.104796 -0.03881,0.161914 -0.2206,0.127024 -0.18185,-0.03492 -0.32322,-0.114739 -0.31052,-0.178109 0.01545,-0.08603 0.102041,-0.125823 0.20262,-0.124262 z m -3.75138,0.644091 c 0.14524,0.0043 0.26137,0.07359 0.26137,0.158089 0,0.08734 -0.12426,0.158779 -0.27575,0.158779 -0.15175,0 -0.27575,-0.07155 -0.27575,-0.158779 0,-0.08735 0.12426,-0.158089 0.27575,-0.158089 0.0047,0 0.0097,-1.38e-4 0.01438,0 z m 0.82005,1.428323 c 0.14848,0.0033 0.26856,0.109266 0.26856,0.238169 0,0.130906 -0.12427,0.238169 -0.27575,0.238169 -0.15178,0 -0.27575,-0.10722 -0.27575,-0.238169 0,-0.130929 0.12426,-0.238169 0.27575,-0.238169 0.0024,0 0.0048,-5.2e-5 0.0072,0 z m 2.763481,0.793897 c 0.145249,0.0043 0.26136,0.07428 0.26136,0.158779 0,0.08733 -0.12425,0.158779 -0.27575,0.158779 -0.15174,0 -0.27574,-0.07155 -0.27574,-0.158779 0,-0.08726 0.12425,-0.158779 0.27574,-0.158779 0.0048,0 0.0097,-1.38e-4 0.01439,0 z" />
      <path
         style="fill:#666666;fill-opacity:1;stroke-width:0.209171"
         d="m 83.195102,53.291246 c 0,-1.440323 -0.09308,-2.617214 -0.206646,-2.615312 -0.113525,0.001 -1.073053,0.392301 -2.131905,0.867585 -1.361813,0.611287 -2.007175,0.81346 -2.205388,0.690929 -0.191806,-0.118621 -0.168828,-0.196644 0.07191,-0.247415 0.51968,-0.109468 3.139726,-1.301892 3.823562,-1.740119 0.482775,-0.309391 0.56708,-0.517197 0.457442,-1.127528 -0.07392,-0.411522 -0.163535,-0.765631 -0.199655,-0.786912 -0.03577,-0.02134 -0.581316,0.215592 -1.212021,0.526433 -1.760375,0.867521 -1.902683,0.477649 -0.166638,-0.45644 1.526206,-0.821164 1.532649,-0.828604 1.444493,-1.66218 l -0.08852,-0.837316 -1.014775,0.482766 c -0.64401,0.306353 -1.08216,0.419972 -1.199209,0.310936 -0.101479,-0.09459 -0.140902,-0.187396 -0.08779,-0.20646 0.05311,-0.01902 0.683033,-0.303485 1.399904,-0.632066 l 1.303407,-0.597415 1.453308,0.622985 c 0.799315,0.342632 1.763113,0.715196 2.141762,0.827932 0.37865,0.112641 0.545908,0.232303 0.371714,0.265723 -0.174303,0.03342 -1.005284,-0.192797 -1.846796,-0.502724 -0.841549,-0.309938 -1.598081,-0.563511 -1.681163,-0.563511 -0.08304,0 -0.151124,0.378795 -0.151124,0.841772 0,0.745012 0.10294,0.897211 0.895939,1.323878 0.492759,0.265145 1.320691,0.649962 1.839824,0.855172 0.519132,0.205188 0.802526,0.400204 0.629701,0.433372 -0.172661,0.0331 -0.894533,-0.194805 -1.603793,-0.506613 -0.709279,-0.311797 -1.407296,-0.566906 -1.551119,-0.566906 -0.149847,0 -0.204748,0.387235 -0.128309,0.907804 0.119548,0.814048 0.243112,0.962506 1.197073,1.437486 0.585112,0.291325 1.71511,0.746682 2.511139,1.011891 0.795992,0.265208 1.447248,0.544951 1.447248,0.62165 0,0.171032 -2.51676,-0.670047 -3.928291,-1.312811 -0.568576,-0.258892 -1.04719,-0.411165 -1.06358,-0.338366 -0.01643,0.07283 -0.0055,1.292969 0.02135,2.711454 0.03541,1.75932 -0.04289,2.579054 -0.24585,2.579054 -0.201134,0 -0.29774,-0.849435 -0.29774,-2.618728 z"
         id="path10261" />
      <path
         style="fill:#666666;fill-opacity:1;stroke-width:0.209171"
         d="m 58.935991,57.990114 c 0,-0.109593 0.589255,-0.356221 1.309448,-0.547999 0.720194,-0.191768 1.960706,-0.719873 2.756716,-1.173538 1.198789,-0.683237 1.447267,-0.92048 1.447267,-1.381807 v -0.556932 l -1.127333,0.662102 c -1.297932,0.762341 -2.075837,1.042894 -2.303545,0.8308 -0.08578,-0.08008 0.261455,-0.294215 0.771955,-0.475882 1.077196,-0.383262 2.347787,-1.3728 2.537932,-1.97649 0.176677,-0.561083 0.05476,-0.53008 -0.840508,0.213639 -1.134415,0.942464 -1.343578,0.612696 -0.265251,-0.418259 0.51424,-0.491679 0.869272,-0.955182 0.788947,-1.03001 -0.08031,-0.07493 0.03303,-0.136035 0.252,-0.136035 0.219058,0 0.617035,0.196413 0.884623,0.436472 0.267625,0.240049 0.871153,0.625896 1.341152,0.857422 1.20649,0.594335 0.766242,0.705337 -0.4702,0.118621 -0.958122,-0.454696 -1.018407,-0.463355 -1.018407,-0.146451 0,0.561179 0.73682,1.203333 2.262295,1.971623 0.79738,0.40157 1.260151,0.730151 1.028355,0.730151 -0.231687,0 -1.066975,-0.369726 -1.856032,-0.821615 l -1.434618,-0.821647 v 0.608808 c 0,0.522692 0.185236,0.707355 1.30943,1.305569 0.720193,0.38322 2.022724,0.923999 2.894534,1.201746 1.337264,0.425983 1.966728,0.74911 1.459404,0.74911 -0.345029,0 -3.20222,-1.057281 -4.353938,-1.611145 l -1.30943,-0.629712 v 1.120434 c 0,1.429677 -0.499531,1.470055 -0.607672,0.04908 l -0.08159,-1.071301 -1.240548,0.650289 c -1.134196,0.594578 -3.51197,1.492324 -3.952529,1.492324 -0.100384,0 -0.182516,-0.08975 -0.182516,-0.199323 z"
         id="path10259" />
      <path
         style="font-size:32px;line-height:1.25;fill:#666666;fill-opacity:1;stroke-width:0.209171"
         d="m 77.972312,33.342326 c 0,-0.109593 0.589255,-0.356221 1.309448,-0.547999 0.720194,-0.191768 1.960706,-0.719873 2.756716,-1.173538 1.198789,-0.683237 1.447267,-0.92048 1.447267,-1.381807 V 29.68205 l -1.127333,0.662102 c -1.297932,0.762341 -2.075837,1.042894 -2.303545,0.8308 -0.08578,-0.08008 0.261455,-0.294215 0.771955,-0.475882 1.077196,-0.383262 2.347787,-1.3728 2.537932,-1.97649 0.176677,-0.561083 0.05476,-0.53008 -0.840508,0.213639 -1.134415,0.942464 -1.343578,0.612696 -0.265251,-0.418259 0.51424,-0.491679 0.869272,-0.955182 0.788947,-1.03001 -0.08031,-0.07493 0.03303,-0.136035 0.252,-0.136035 0.219058,0 0.617035,0.196413 0.884623,0.436472 0.267625,0.240049 0.871153,0.625896 1.341152,0.857422 1.20649,0.594335 0.766242,0.705337 -0.4702,0.118621 -0.958122,-0.454696 -1.018407,-0.463355 -1.018407,-0.146451 0,0.561179 0.73682,1.203333 2.262295,1.971623 0.79738,0.40157 1.260151,0.730151 1.028355,0.730151 -0.231687,0 -1.066975,-0.369726 -1.856032,-0.821615 l -1.434618,-0.821647 v 0.608808 c 0,0.522692 0.185236,0.707355 1.30943,1.305569 0.720193,0.38322 2.022724,0.923999 2.894534,1.201746 1.337264,0.425983 1.966728,0.74911 1.459404,0.74911 -0.345029,0 -3.20222,-1.057281 -4.353938,-1.611145 l -1.30943,-0.629712 v 1.120434 c 0,1.429677 -0.499531,1.470055 -0.607672,0.04908 l -0.08159,-1.071301 -1.240548,0.650289 c -1.134196,0.594578 -3.51197,1.492324 -3.952529,1.492324 -0.100384,0 -0.182516,-0.08975 -0.182516,-0.199323 z"
         id="path10259-8" />
      <path
         style="fill:#666666;fill-opacity:1;stroke-width:0.209171"
         d="m 56.223737,56.75183 c -0.100019,-0.09311 -0.115533,-0.207384 -0.0345,-0.253962 0.197538,-0.113619 0.735142,0.0866 0.735142,0.273899 0,0.202813 -0.475931,0.189277 -0.700554,-0.01986 z"
         id="path10257" />
      <path
         style="fill:#666666;fill-opacity:1;stroke-width:0.209171"
         d="m 60.672438,57.739518 c -0.09527,-0.08881 -0.03924,-0.209371 0.125024,-0.267794 0.423858,-0.150802 0.697305,0.05581 0.343497,0.25947 -0.197958,0.113987 -0.352185,0.116667 -0.468521,0.0084 z"
         id="path10253" />
      <path
         style="fill:#666666;fill-opacity:1;stroke-width:0.209171"
         d="m 102.89266,59.069802 c 0,-0.08723 0.12393,-0.158705 0.27566,-0.158705 0.15149,0 0.27567,0.07136 0.27567,0.158705 0,0.08723 -0.12393,0.158725 -0.27567,0.158725 -0.15149,0 -0.27566,-0.07136 -0.27566,-0.158725 z"
         id="path10251" />
      <path
         style="fill:#666666;fill-opacity:1;stroke-width:0.209171"
         d="m 54.495941,58.655068 c 0.05439,-0.09385 0.216703,-0.170591 0.360672,-0.170591 0.144189,0 0.306373,0.07672 0.36069,0.170591 0.05439,0.09385 -0.107867,0.170633 -0.36069,0.170633 -0.252676,0 -0.414988,-0.07672 -0.360672,-0.170633 z"
         id="path10249" />
      <path
         style="fill:#666666;fill-opacity:1;stroke-width:0.209171"
         d="m 51.135059,59.063774 c 0,-0.130939 0.123929,-0.238062 0.275655,-0.238062 0.151489,0 0.27571,0.107145 0.27571,0.238062 0,0.130948 -0.123929,0.238073 -0.27571,0.238073 -0.151489,0 -0.275655,-0.107145 -0.275655,-0.238073 z"
         id="path10245" />
      <path
         id="path10277-7"
         style="font-size:32px;line-height:1.25;fill:#666666;fill-opacity:1;stroke-width:0.209171"
         d="m 103.58705,31.025332 c -1.47022,0 -2.48173,0.06472 -2.48173,0.158779 0,0.09408 1.01151,0.158779 2.48173,0.158779 1.47027,0 2.48054,-0.06482 2.48054,-0.158779 0,-0.09398 -1.01027,-0.158779 -2.48054,-0.158779 z m 0.37886,0.7221 c -0.10946,0.0023 -0.22326,0.01461 -0.3333,0.03797 -0.3065,0.06508 -0.3065,0.100145 0,0.211936 0.47743,0.174044 0.71217,0.172544 0.90398,-0.0062 0.14923,-0.138973 -0.17976,-0.251898 -0.57068,-0.243692 z m 2.05972,1.203271 c -0.0552,0.0014 -0.10444,0.01183 -0.14147,0.03314 -0.081,0.04658 -0.0653,0.160936 0.0348,0.254046 0.22463,0.209137 0.70016,0.222143 0.70016,0.01933 0,-0.15218 -0.35441,-0.31254 -0.59345,-0.306513 z m -1.47466,2.019258 c -0.14397,0 -0.30528,0.07736 -0.35967,0.171205 -0.0543,0.09391 0.107,0.170516 0.35967,0.170516 0.25283,0 0.41526,-0.07667 0.36087,-0.170516 -0.0543,-0.09387 -0.21668,-0.171205 -0.36087,-0.171205 z m -3.46004,0.341721 c -0.14521,0.0064 -0.26136,0.111321 -0.26136,0.238168 0,0.130928 0.12426,0.237479 0.27575,0.237479 0.15178,0 0.27575,-0.106531 0.27575,-0.237479 0,-0.130916 -0.12426,-0.238168 -0.27575,-0.238168 -0.005,0 -0.01,-2.07e-4 -0.0144,0 z" />
      <path
         style="fill:#666666;fill-opacity:1;stroke-width:0.209171"
         d="m 59.581498,59.350443 c -0.310442,-0.178747 -0.189051,-0.366017 0.237199,-0.366017 0.227416,0 0.413492,0.06726 0.413492,0.149352 0,0.200133 -0.430502,0.343463 -0.650727,0.216665 z"
         id="path10243" />
      <path
         style="fill:#666666;fill-opacity:1;stroke-width:0.209171"
         d="m 93.775033,60.537796 c -0.01274,-0.06537 -0.02683,-0.958208 -0.03454,-1.983897 -0.0055,-1.02567 -0.09947,-1.864857 -0.203473,-1.864857 -0.104215,0 -0.553792,0.221436 -0.999073,0.492067 -0.850112,0.516671 -3.321955,1.408437 -3.910992,1.410981 -0.705628,0.0021 -0.306318,-0.26338 0.900739,-0.60101 2.499312,-0.699095 4.654013,-2.239963 4.162788,-2.976924 -0.121011,-0.181552 -0.559102,-0.0743 -1.97224,0.482662 -0.999188,0.393855 -1.932907,0.716089 -2.07496,0.716089 -0.554632,0 -0.212358,-0.259512 0.726398,-0.550543 0.541546,-0.1679 1.549294,-0.608009 2.239408,-0.978008 1.185066,-0.635355 1.243872,-0.706421 1.05832,-1.278266 -0.108046,-0.333037 -0.233855,-0.62741 -0.279429,-0.654209 -0.04563,-0.0268 -0.642311,0.178305 -1.325948,0.455736 -0.747534,0.303358 -1.379955,0.455684 -1.586601,0.382148 -0.238768,-0.08492 -0.09107,-0.199828 0.483907,-0.376378 1.749804,-0.537248 2.560785,-1.070198 2.560785,-1.682873 V 50.95416 l -1.199976,0.566107 c -1.199208,0.56574 -1.832414,0.706526 -1.832414,0.407403 0,-0.08723 0.132325,-0.158705 0.293597,-0.158705 0.161527,0 0.90656,-0.362338 1.655811,-0.80521 l 1.362285,-0.80521 1.371852,0.86419 c 0.754542,0.475325 1.744557,0.953069 2.200067,1.061716 0.45552,0.108491 0.75707,0.263738 0.67014,0.344714 -0.18819,0.175488 -1.33604,-0.223644 -2.696928,-0.937947 -0.54052,-0.283704 -1.048061,-0.515818 -1.127911,-0.515818 -0.07995,0 -0.145289,0.271682 -0.145289,0.60371 0,0.474895 0.191185,0.708165 0.895937,1.093214 0.492782,0.269234 1.299121,0.606485 1.791871,0.749415 0.49277,0.142961 0.89593,0.331335 0.89593,0.418637 0,0.167301 -0.95938,-0.09248 -2.34321,-0.63443 -1.123427,-0.439992 -1.240528,-0.41601 -1.240528,0.254068 0,0.46529 0.206864,0.692958 1.045237,1.150649 0.574891,0.313836 1.625741,0.74148 2.335271,0.950305 0.70946,0.208835 1.22858,0.436882 1.15352,0.506781 -0.12119,0.113009 -2.21562,-0.545498 -3.91376,-1.230479 -0.615319,-0.248215 -0.620268,-0.2446 -0.620268,0.453666 0,0.56329 0.151307,0.78521 0.758083,1.111195 0.998074,0.53625 2.712645,1.139277 3.997275,1.405852 0.8748,0.181531 1.409666,0.468169 0.87359,0.468169 -0.24428,0 -3.978225,-1.094328 -4.627986,-1.356341 C 94.75755,56.792855 94.434601,56.68901 94.354609,56.689 c -0.07995,-3.2e-5 -0.101666,0.892733 -0.04823,1.983898 0.06718,1.373997 0.0039,1.983929 -0.206651,1.983929 -0.167182,0 -0.313218,-0.0536 -0.32446,-0.118988 z"
         id="path10239" />
      <path
         id="path7532"
         style="fill:#666666;fill-opacity:1;stroke-width:0.104585"
         d="m 76.11717,58.564697 c 0.09475,-0.02197 0.24982,-0.02197 0.344583,0 0.09474,0.02196 0.01716,0.04004 -0.172296,0.04004 -0.189516,0 -0.267058,-0.01803 -0.172287,-0.04004 z m -1.481744,-0.338549 c 0,-0.07871 2.116465,-0.142872 3.204685,-0.09718 0.360096,0.01513 0.654724,0.05974 0.654724,0.0992 0,0.03941 -0.868369,0.0717 -1.929695,0.0717 -1.096306,0 -1.929714,-0.03179 -1.929714,-0.07372 z m 4.755338,-0.323079 c -0.227415,-0.03332 -1.731564,-0.06478 -3.342512,-0.06996 -3.407488,-0.01093 -4.084689,-0.151374 -0.895938,-0.185814 2.875342,-0.03106 4.858715,0.07554 4.858715,0.261131 0,0.08184 -0.02655,0.08162 -0.620265,-0.0055 z m -4.265582,-0.707403 c -0.04444,-0.04136 -0.0219,-0.09606 0.04992,-0.121622 0.07182,-0.02553 0.166875,-0.01261 0.211245,0.02874 0.04444,0.04136 0.0219,0.09606 -0.04992,0.121611 -0.07182,0.02559 -0.166866,0.01261 -0.211263,-0.02874 z m -1.854267,-2.238065 c 0,-0.08723 0.123929,-0.158694 0.275655,-0.158694 0.151489,0 0.275674,0.07136 0.275674,0.158694 0,0.08723 -0.12393,0.158715 -0.275674,0.158715 -0.151489,0 -0.275655,-0.07136 -0.275655,-0.158715 z" />
      <path
         id="path7532-6"
         style="font-size:32px;line-height:1.25;fill:#666666;fill-opacity:1;stroke-width:0.104585"
         d="m 77.310541,36.762907 c 0.09475,-0.02197 0.24982,-0.02197 0.344583,0 0.09474,0.02196 0.01716,0.04004 -0.172296,0.04004 -0.189516,0 -0.267058,-0.01803 -0.172287,-0.04004 z m -1.481744,-0.338549 c 0,-0.07871 2.116465,-0.142872 3.204685,-0.09718 0.360096,0.01513 0.654724,0.05974 0.654724,0.0992 0,0.03941 -0.868369,0.0717 -1.929695,0.0717 -1.096306,0 -1.929714,-0.03179 -1.929714,-0.07372 z m 4.755338,-0.323079 c -0.227415,-0.03332 -1.731564,-0.06478 -3.342512,-0.06996 -3.407488,-0.01093 -4.084689,-0.151374 -0.895938,-0.185814 2.875342,-0.03106 4.858715,0.07554 4.858715,0.261131 0,0.08184 -0.02655,0.08162 -0.620265,-0.0055 z m -4.265582,-0.707403 c -0.04444,-0.04136 -0.0219,-0.09606 0.04992,-0.121622 0.07182,-0.02553 0.166875,-0.01261 0.211245,0.02874 0.04444,0.04136 0.0219,0.09606 -0.04992,0.121611 -0.07182,0.02559 -0.166866,0.01261 -0.211263,-0.02874 z m -1.854267,-2.238065 c 0,-0.08723 0.123929,-0.158694 0.275655,-0.158694 0.151489,0 0.275674,0.07136 0.275674,0.158694 0,0.08723 -0.12393,0.158715 -0.275674,0.158715 -0.151489,0 -0.275655,-0.07136 -0.275655,-0.158715 z" />
      <path
         id="path7532-5"
         style="font-size:32px;line-height:1.25;fill:#666666;fill-opacity:1;stroke-width:0.104585"
         d="m 53.934988,31.050007 c 0.09475,-0.02197 0.24982,-0.02197 0.344583,0 0.09474,0.02196 0.01716,0.04004 -0.172296,0.04004 -0.189516,0 -0.267058,-0.01803 -0.172287,-0.04004 z m -1.481744,-0.338549 c 0,-0.07871 2.116465,-0.142872 3.204685,-0.09718 0.360096,0.01513 0.654724,0.05974 0.654724,0.0992 0,0.03941 -0.868369,0.0717 -1.929695,0.0717 -1.096306,0 -1.929714,-0.03179 -1.929714,-0.07372 z m 4.755338,-0.323079 c -0.227415,-0.03332 -1.731564,-0.06478 -3.342512,-0.06996 -3.407488,-0.01093 -4.084689,-0.151374 -0.895938,-0.185814 2.875342,-0.03106 4.858715,0.07554 4.858715,0.261131 0,0.08184 -0.02655,0.08162 -0.620265,-0.0055 z M 52.943,29.680976 c -0.04444,-0.04136 -0.0219,-0.09606 0.04992,-0.121622 0.07182,-0.02553 0.166875,-0.01261 0.211245,0.02874 0.04444,0.04136 0.0219,0.09606 -0.04992,0.121611 -0.07182,0.02559 -0.166866,0.01261 -0.211263,-0.02874 z m -1.854267,-2.238065 c 0,-0.08723 0.123929,-0.158694 0.275655,-0.158694 0.151489,0 0.275674,0.07136 0.275674,0.158694 0,0.08723 -0.12393,0.158715 -0.275674,0.158715 -0.151489,0 -0.275655,-0.07136 -0.275655,-0.158715 z" />
    </g>
  </g>
</svg>
