<?xml version="1.0" encoding="UTF-8" standalone="no"?>
<svg
   version="1.1"
   width="100"
   height="100"
   id="svg4460"
   sodipodi:docname="friche.svg"
   inkscape:version="1.2.2 (732a01da63, 2022-12-09)"
   xmlns:inkscape="http://www.inkscape.org/namespaces/inkscape"
   xmlns:sodipodi="http://sodipodi.sourceforge.net/DTD/sodipodi-0.dtd"
   xmlns="http://www.w3.org/2000/svg"
   xmlns:svg="http://www.w3.org/2000/svg"
   xmlns:rdf="http://www.w3.org/1999/02/22-rdf-syntax-ns#"
   xmlns:cc="http://creativecommons.org/ns#"
   xmlns:dc="http://purl.org/dc/elements/1.1/">
  <sodipodi:namedview
     pagecolor="#ffffff"
     bordercolor="#666666"
     borderopacity="1"
     objecttolerance="10"
     gridtolerance="10"
     guidetolerance="10"
     inkscape:pageopacity="0"
     inkscape:pageshadow="2"
     inkscape:window-width="1920"
     inkscape:window-height="1009"
     id="namedview11"
     showgrid="true"
     inkscape:zoom="4.7376154"
     inkscape:cx="29.550731"
     inkscape:cy="54.246699"
     inkscape:window-x="-8"
     inkscape:window-y="-8"
     inkscape:window-maximized="1"
     inkscape:current-layer="text5282"
     inkscape:document-rotation="0"
     inkscape:pagecheckerboard="0"
     showguides="true"
     inkscape:guide-bbox="true"
     inkscape:showpageshadow="0"
     inkscape:deskcolor="#d1d1d1">
    <inkscape:grid
       type="xygrid"
       id="grid823"
       originx="0"
       originy="0" />
    <sodipodi:guide
       position="0,86"
       orientation="66,0"
       id="guide957"
       inkscape:locked="false" />
    <sodipodi:guide
       position="0,20"
       orientation="0,50"
       id="guide959"
       inkscape:locked="false" />
    <sodipodi:guide
       position="8.9999971,64.32985"
       orientation="8.5387222,0"
       id="guide1517"
       inkscape:locked="false" />
    <sodipodi:guide
       position="8.9999971,55.791128"
       orientation="0,26.227758"
       id="guide1519"
       inkscape:locked="false" />
    <sodipodi:guide
       position="95,90"
       orientation="-8.5387222,0"
       id="guide1521"
       inkscape:locked="false" />
    <sodipodi:guide
       position="70,70"
       orientation="0,-26.227758"
       id="guide1523"
       inkscape:locked="false" />
    <sodipodi:guide
       position="7.9247812,20.000001"
       orientation="0,-6.8495616"
       id="guide4054"
       inkscape:locked="false" />
    <sodipodi:guide
       position="85,75"
       orientation="0,6.8495616"
       id="guide4058"
       inkscape:locked="false" />
  </sodipodi:namedview>
  <defs
     id="defs4462" />
  <metadata
     id="metadata4465">
    <rdf:RDF>
      <cc:Work
         rdf:about="">
        <dc:format>image/svg+xml</dc:format>
        <dc:type
           rdf:resource="http://purl.org/dc/dcmitype/StillImage" />
      </cc:Work>
    </rdf:RDF>
  </metadata>
  <g
     aria-label="C"
     id="text3215"
     style="font-size:32px;line-height:1.25"
     transform="translate(-37.75,-4)">
    <g
       aria-label="A"
       id="text5282"
       transform="matrix(1.6290909,0,0,2.8292029,-41.002727,-68.776958)">
      <path
         style="fill:#666666;fill-opacity:1;stroke-width:0.231128"
         d="m 55.562309,37.726034 c -0.322299,-0.488073 -0.156703,-0.766606 0.291523,-0.490106 0.145812,0.09012 0.35848,0.341254 0.472367,0.558285 0.295637,0.563382 -0.387058,0.502438 -0.76389,-0.06828 z"
         id="path12148" />
      <path
         style="fill:#666666;fill-opacity:1;stroke-width:0.231128"
         d="m 63.008722,38.087191 c 0.101846,-0.152557 0.184735,-0.428766 0.184735,-0.613804 0,-0.185015 0.136939,-0.336388 0.304592,-0.336388 0.338857,0 0.404704,0.522645 0.119595,0.950192 -0.101847,0.152581 -0.321977,0.277418 -0.489509,0.277418 -0.167391,0 -0.221562,-0.124872 -0.119594,-0.277418 z"
         id="path12146" />
      <path
         style="fill:#666666;fill-opacity:1;stroke-width:0.231128"
         d="m 58.925725,37.970007 c -0.0018,-0.21702 -0.08833,-0.710249 -0.191996,-1.096072 -0.132702,-0.493973 -0.09217,-0.649618 0.136737,-0.526117 0.481704,0.259546 0.832237,2.016791 0.402283,2.016791 -0.18897,0 -0.34533,-0.177571 -0.347185,-0.394602 z"
         id="path12144" />
      <path
         style="fill:#666666;fill-opacity:1;stroke-width:0.231128"
         d="m 57.149663,37.686597 c -0.42108,-0.809097 -0.430881,-0.900349 -0.0964,-0.900349 0.140973,0 0.415151,0.30509 0.609225,0.677988 0.421059,0.80912 0.43082,0.900373 0.0964,0.900373 -0.140972,0 -0.415171,-0.305114 -0.609203,-0.678012 z"
         id="path12142" />
      <path
         id="path12140"
         style="fill:#666666;fill-opacity:1;stroke-width:0.231128"
         d="m 95.935644,36.526688 c -0.148922,0.01145 -0.517434,0.381311 -0.828443,0.831865 -0.315416,0.45696 -0.619586,0.891206 -0.676183,0.965102 -0.05472,0.0727 0.04677,0.131856 0.227792,0.131856 0.181488,0 0.330817,-0.01933 0.330898,-0.04349 1.21e-4,-0.0241 0.273506,-0.458025 0.607845,-0.964411 0.333714,-0.506387 0.48928,-0.92092 0.345284,-0.92092 -0.0023,0 -0.0048,-1.82e-4 -0.0072,0 z m -1.887076,0.08146 c -0.231469,-0.0153 -0.575196,0.947182 -0.579071,1.658207 -0.0018,0.23314 0.0703,0.381325 0.160653,0.329295 0.286642,-0.164936 0.671845,-1.90022 0.439998,-1.98267 -0.0072,-0.0026 -0.01411,-0.0043 -0.02158,-0.0048 z m -1.44588,0.347933 c -0.01632,-6.9e-5 -0.03275,0.0034 -0.05035,0.0097 -0.167672,0.05962 -0.304521,0.458733 -0.304521,0.887093 0,0.428348 0.137131,0.778709 0.304521,0.778709 0.167654,0 0.304522,-0.399114 0.304522,-0.887093 0,-0.495548 -0.09643,-0.787705 -0.254168,-0.788374 z m -1.276833,0.272686 c -0.164083,0.01086 -0.29613,0.361783 -0.29613,0.789064 0,0.434038 0.137131,0.789064 0.304522,0.789064 0.167653,0 0.304522,-0.355026 0.304522,-0.789064 0,-0.434063 -0.13713,-0.789064 -0.304522,-0.789064 -0.0026,0 -0.0058,-1.72e-4 -0.0084,0 z m -1.783971,0.09734 c -0.141876,0.0029 -0.16283,0.279208 0.06714,0.775257 h 0.0012 c 0.179915,0.38803 0.435578,0.705532 0.568281,0.705532 0.318264,0 0.306824,-0.09774 -0.107902,-0.894686 -0.209619,-0.40312 -0.411162,-0.588484 -0.528717,-0.586103 z m 1.617323,1.831484 c -0.457555,0.0063 -0.576426,0.210733 -0.231389,0.409375 0.350493,0.201712 0.710951,0.127487 0.710951,-0.146353 0,-0.144672 -0.205494,-0.263022 -0.456783,-0.263022 -0.0074,0 -0.01552,-10e-5 -0.02278,0 z m -1.800755,0.02071 c -0.06208,5.05e-4 -0.132119,0.0045 -0.209808,0.01104 -0.915691,0.07757 -1.047787,0.450732 -0.193024,0.544682 0.386592,0.04262 0.737338,0.0872 0.779288,0.10079 0.04196,0.01313 0.07553,-0.139323 0.07553,-0.338959 0,-0.230133 -0.116769,-0.320286 -0.451987,-0.317558 z m 4.380798,0.154637 c -0.320686,0.0047 -0.577872,0.08197 -0.577872,0.175347 0,0.09652 0.273999,0.175348 0.609044,0.175348 0.335084,0 0.609043,-0.07896 0.609043,-0.175348 0,-0.09651 -0.273959,-0.175347 -0.609043,-0.175347 -0.01047,0 -0.02083,-1.53e-4 -0.03117,0 z m 2.044133,0.02968 c -0.515294,0.0023 -0.674435,0.146518 -0.176239,0.327913 0.555072,0.2019 0.645591,0.202547 1.194109,0.0028 C 97.146341,39.567634 97.05971,39.50608 96.405615,39.41167 96.165691,39.377 95.955148,39.3619 95.783383,39.36266 Z m -8.413914,0.846362 c -0.609151,0.0056 -0.786654,0.18771 -0.395639,0.412826 0.282226,0.162486 0.791508,0.05194 0.939942,-0.204342 0.06736,-0.116392 -0.159844,-0.208484 -0.514331,-0.208484 -0.0099,0 -0.0203,-8.9e-5 -0.02997,0 z m 2.44097,0 c -0.338454,0 -0.609044,0.116805 -0.609044,0.263021 0,0.146147 0.27059,0.263022 0.609044,0.263022 0.338473,0 0.609044,-0.116957 0.609044,-0.263022 0,-0.146146 -0.270571,-0.263021 -0.609044,-0.263021 z m 2.131653,6.9e-4 c -0.39876,0.0097 -0.67412,0.322371 -0.455584,0.526043 0.318366,0.296566 0.761305,0.19453 0.761305,-0.175348 0,-0.192899 -0.12903,-0.350695 -0.286539,-0.350695 -0.0064,0 -0.01285,-1.54e-4 -0.01918,0 z m 2.590833,0.08008 c -0.292606,0.0054 -0.457981,0.139879 -0.457981,0.387284 0,0.128611 0.273979,0.234027 0.609043,0.234027 0.692657,0 0.830138,-0.439465 0.182234,-0.582651 -0.12454,-0.02751 -0.23576,-0.04046 -0.333296,-0.03866 z m 3.023638,0.09527 c -0.442565,0.01126 -0.598138,0.373567 -0.239781,0.579889 0.284283,0.163659 0.718144,-0.03423 0.718144,-0.327223 0,-0.139005 -0.205492,-0.252666 -0.456782,-0.252666 -0.0072,0 -0.01456,-1.79e-4 -0.02158,0 z m -1.517813,1.074867 c -0.468047,0.0038 -0.601134,0.17717 -0.237383,0.386593 0.111707,0.06443 0.465373,0.116668 0.786481,0.116668 0.789965,0 0.508617,-0.423337 -0.3285,-0.494287 -0.08004,-0.0068 -0.153734,-0.0095 -0.220598,-0.009 z m 2.687944,0.0021 c -0.244753,6.49e-4 -0.387246,0.08577 -0.387246,0.238168 0,0.168441 0.197596,0.264936 0.473568,0.231956 0.661909,-0.07933 0.702024,-0.39065 0.05994,-0.46184 -0.05212,-0.0058 -0.100942,-0.0084 -0.146267,-0.0083 z m -7.403237,0.01657 c -0.321724,0.0074 -0.602807,0.1643 -0.434004,0.3217 0.09638,0.08972 0.296965,0.162922 0.444794,0.162922 0.426747,0 0.649968,-0.315071 0.309318,-0.436298 -0.101433,-0.03609 -0.212867,-0.0508 -0.320108,-0.04832 z m 2.757481,0.0014 c -0.198631,4.82e-4 -0.442287,0.098 -0.545502,0.275447 -0.06537,0.114246 0.09729,0.207794 0.36207,0.207794 0.265203,0 0.481959,-0.124823 0.481959,-0.277519 0,-0.14032 -0.133758,-0.206123 -0.298527,-0.205722 z m -9.266336,0.0214 c -0.07818,0.0025 -0.161738,0.02962 -0.250571,0.08077 -0.167789,0.09647 -0.205535,0.267845 -0.08392,0.38107 0.147384,0.137146 0.323271,0.147292 0.526319,0.03037 0.16778,-0.09647 0.204335,-0.267845 0.08272,-0.38107 -0.08292,-0.07714 -0.174026,-0.114334 -0.27455,-0.111146 z m 1.919447,0.111146 c -0.320685,0.0047 -0.579071,0.08197 -0.579071,0.175347 0,0.0965 0.275199,0.175348 0.610243,0.175348 0.335085,0 0.609043,-0.07896 0.609043,-0.175348 0,-0.09653 -0.273958,-0.175347 -0.609043,-0.175347 -0.01047,0 -0.02083,-1.53e-4 -0.03117,0 z m 2.451761,0 c -0.160491,0.0047 -0.288936,0.08197 -0.288936,0.175347 0,0.0965 0.13713,0.175348 0.304521,0.175348 0.167653,0 0.304522,-0.07896 0.304522,-0.175348 0,-0.09653 -0.137132,-0.175347 -0.304522,-0.175347 -0.0052,0 -0.01041,-1.53e-4 -0.01559,0 z" />
      <path
         style="fill:#666666;fill-opacity:1;stroke-width:0.231128"
         d="m 60.965681,38.414638 c -0.295012,-0.270787 0.0843,-1.978678 0.439534,-1.978678 0.311832,0 0.315865,0.514446 0.0121,1.490651 -0.133308,0.427629 -0.309392,0.618159 -0.45117,0.488027 z"
         id="path12138" />
      <path
         style="fill:#666666;fill-opacity:1;stroke-width:0.231128"
         d="m 58.929073,39.592602 c 0,-0.09639 0.197441,-0.175364 0.438928,-0.175364 0.241528,0 0.523673,0.07885 0.627214,0.175364 0.103661,0.09639 -0.09398,0.175365 -0.438949,0.175365 -0.344947,0 -0.627193,-0.07885 -0.627193,-0.175365 z"
         id="path12124" />
      <path
         style="fill:#666666;fill-opacity:1;stroke-width:0.231128"
         d="m 55.882975,39.592602 c 0,-0.09639 0.213595,-0.175364 0.474907,-0.175364 0.261312,0 0.390163,0.07885 0.286622,0.175364 -0.10346,0.09639 -0.317236,0.175365 -0.474887,0.175365 -0.157509,0 -0.286642,-0.07885 -0.286642,-0.175365 z"
         id="path12122" />
      <path
         style="fill:#666666;fill-opacity:1;stroke-width:0.231128"
         d="m 65.841831,39.831709 c -0.243364,-0.140143 0.03166,-0.413972 0.415856,-0.413972 0.157711,0 0.286643,0.118404 0.286643,0.263076 0,0.271193 -0.359448,0.348395 -0.702499,0.150908 z"
         id="path12116" />
      <path
         style="fill:#666666;fill-opacity:1;stroke-width:0.231128"
         d="m 62.279783,39.667946 c 0,-0.163322 0.207263,-0.252775 0.507801,-0.219214 0.764192,0.08535 0.869165,0.495134 0.126854,0.495134 -0.374149,0 -0.634594,-0.113225 -0.634594,-0.27592 z"
         id="path12114" />
      <path
         style="fill:#666666;fill-opacity:1;stroke-width:0.231128"
         d="m 68.371961,40.819946 c 0,-0.09639 0.205628,-0.175377 0.456937,-0.175377 0.251289,0 0.456898,0.07885 0.456898,0.175377 0,0.09638 -0.205609,0.175375 -0.456898,0.175375 -0.251289,0 -0.456937,-0.07885 -0.456937,-0.175375 z"
         id="path12104" />
      <path
         style="fill:#666666;fill-opacity:1;stroke-width:0.231128"
         d="m 65.325882,40.819946 c 0,-0.09639 0.136939,-0.175377 0.304612,-0.175377 0.167391,0 0.304612,0.07885 0.304612,0.175377 0,0.09638 -0.136938,0.175375 -0.304612,0.175375 -0.167391,0 -0.304612,-0.07885 -0.304612,-0.175375 z"
         id="path12102" />
      <path
         style="fill:#666666;fill-opacity:1;stroke-width:0.231128"
         d="m 62.584375,40.819946 c 0,-0.09639 0.205629,-0.175377 0.456938,-0.175377 0.251289,0 0.456918,0.07885 0.456918,0.175377 0,0.09638 -0.205629,0.175375 -0.456918,0.175375 -0.251289,0 -0.456938,-0.07885 -0.456938,-0.175375 z"
         id="path12100" />
      <path
         style="fill:#666666;fill-opacity:1;stroke-width:0.231128"
         d="m 59.538277,40.717637 c 0,-0.309702 0.65579,-0.25576 0.844035,0.06932 0.06635,0.114503 -0.0964,0.208252 -0.361727,0.208252 -0.265244,0 -0.482308,-0.124999 -0.482308,-0.277662 z"
         id="path12098" />
      <path
         style="fill:#666666;fill-opacity:1;stroke-width:0.231128"
         d="m 56.79683,40.819946 c 0,-0.09639 0.20561,-0.175377 0.456898,-0.175377 0.251268,0 0.456918,0.07885 0.456918,0.175377 0,0.09638 -0.20563,0.175375 -0.456918,0.175375 -0.251288,0 -0.456898,-0.07885 -0.456898,-0.175375 z"
         id="path12096" />
      <path
         style="fill:#666666;fill-opacity:1;stroke-width:0.231128"
         d="m 54.359935,40.819946 c 0,-0.09639 0.136938,-0.175377 0.304592,-0.175377 0.167392,0 0.304632,0.07885 0.304632,0.175377 0,0.09638 -0.13714,0.175375 -0.304632,0.175375 -0.167391,0 -0.304592,-0.07885 -0.304592,-0.175375 z"
         id="path12094" />
      <path
         style="fill:#666666;fill-opacity:1;stroke-width:0.231128"
         d="m 51.770775,40.819946 c 0.103662,-0.09639 0.317236,-0.175377 0.474867,-0.175377 0.157711,0 0.286622,0.07885 0.286622,0.175377 0,0.09638 -0.213575,0.175375 -0.474887,0.175375 -0.261292,0 -0.390163,-0.07885 -0.286602,-0.175375 z"
         id="path12092" />
      <path
         style="fill:#666666;fill-opacity:1;stroke-width:0.231128"
         d="m 70.986411,42.246434 c -0.131291,-0.122178 -0.156501,-0.269603 -0.05566,-0.327504 0.272585,-0.156935 0.569856,0.07385 0.422612,0.328224 -0.103057,0.178197 -0.174854,0.178058 -0.366869,-7.09e-4 z"
         id="path12074" />
      <path
         style="fill:#666666;fill-opacity:1;stroke-width:0.231128"
         d="m 67.51655,42.209734 c 0.0601,-0.103703 0.23941,-0.188522 0.398533,-0.188522 0.159325,0 0.338473,0.08477 0.398512,0.188522 0.0601,0.103702 -0.11919,0.188498 -0.398512,0.188498 -0.279261,0 -0.458572,-0.08477 -0.398533,-0.188498 z"
         id="path12072" />
      <path
         style="fill:#666666;fill-opacity:1;stroke-width:0.231128"
         d="m 64.107455,42.223324 c 0,-0.09639 0.282226,-0.175388 0.627173,-0.175388 0.344987,0 0.542509,0.07885 0.438948,0.175388 -0.10346,0.09639 -0.385786,0.175364 -0.627172,0.175364 -0.241549,0 -0.438949,-0.07885 -0.438949,-0.175364 z"
         id="path12070" />
      <path
         style="fill:#666666;fill-opacity:1;stroke-width:0.231128"
         d="m 60.756745,42.223324 c 0,-0.09639 0.205608,-0.175388 0.456897,-0.175388 0.251289,0 0.456938,0.07885 0.456938,0.175388 0,0.09639 -0.205609,0.175364 -0.456938,0.175364 -0.251289,0 -0.456897,-0.07885 -0.456897,-0.175364 z"
         id="path12068" />
      <path
         style="fill:#666666;fill-opacity:1;stroke-width:0.231128"
         d="m 58.015258,42.223324 c 0,-0.09639 0.205629,-0.175388 0.456917,-0.175388 0.251249,0 0.456898,0.07885 0.456898,0.175388 0,0.09639 -0.205609,0.175364 -0.456898,0.175364 -0.251288,0 -0.456917,-0.07885 -0.456917,-0.175364 z"
         id="path12066" />
      <path
         style="fill:#666666;fill-opacity:1;stroke-width:0.231128"
         d="m 54.969159,42.325516 c 0,-0.152743 0.217105,-0.277696 0.482309,-0.277696 0.265265,0 0.428018,0.09372 0.361707,0.208264 -0.188366,0.32518 -0.844016,0.37911 -0.844016,0.06945 z"
         id="path12064" />
      <path
         style="fill:#666666;fill-opacity:1;stroke-width:0.231128"
         d="m 52.088355,42.410756 c -0.0962,-0.08965 -0.0359,-0.212827 0.134517,-0.273399 0.363482,-0.129331 0.918777,0.03484 0.918777,0.271622 0,0.213408 -0.824473,0.21479 -1.053133,0.0011 z"
         id="path12062" />
      <path
         style="fill:#666666;fill-opacity:1;stroke-width:0.231128"
         d="m 50.565335,42.410756 c -0.0964,-0.08965 -0.0359,-0.212827 0.134115,-0.273399 0.363501,-0.129331 0.918777,0.03484 0.918777,0.271622 0,0.213408 -0.824473,0.21479 -1.053093,0.0011 z"
         id="path12060" />
      <path
         id="path12058"
         style="fill:#666666;fill-opacity:1;stroke-width:0.231128"
         d="m 106.30857,43.183681 c -0.12773,0.0078 -0.37022,0.209331 -0.6594,0.625452 -0.44437,0.639389 -0.56997,0.707023 -0.8752,0.466673 -0.27165,-0.214011 -0.44199,-0.232848 -0.71215,-0.07732 -0.27043,0.155623 -0.35488,0.131258 -0.35488,-0.103552 0,-0.169801 -0.13712,-0.25989 -0.30452,-0.2002 -0.52932,0.188347 -0.3309,0.619302 0.35248,0.764902 1.21772,0.259359 1.97837,0.0393 2.39901,-0.694487 0.29712,-0.518321 0.30882,-0.790866 0.15466,-0.78147 z m -4.822,0.448034 c -0.14414,0.0035 -0.21505,0.06108 -0.15585,0.131165 0.0612,0.07232 0.30019,0.349137 0.53111,0.614407 0.23094,0.265236 0.54568,0.48186 0.70016,0.48186 0.15362,0 0.23134,-0.05893 0.17024,-0.131165 -0.72577,-0.85758 -0.9941,-1.096267 -1.23247,-1.096267 -0.005,0 -0.009,-1.14e-4 -0.0132,0 z" />
      <path
         id="path12058-9"
         style="font-size:32px;line-height:1.25;fill:#666666;fill-opacity:1;stroke-width:0.231128"
         d="m 87.080529,26.911568 c -0.12773,0.0078 -0.37022,0.209331 -0.6594,0.625452 -0.44437,0.639389 -0.56997,0.707023 -0.8752,0.466673 -0.27165,-0.214011 -0.44199,-0.232848 -0.71215,-0.07732 -0.27043,0.155623 -0.35488,0.131258 -0.35488,-0.103552 0,-0.169801 -0.13712,-0.25989 -0.30452,-0.2002 -0.52932,0.188347 -0.3309,0.619302 0.35248,0.764902 1.21772,0.259359 1.97837,0.0393 2.39901,-0.694487 0.29712,-0.518321 0.30882,-0.790866 0.15466,-0.78147 z m -4.822,0.448034 c -0.14414,0.0035 -0.21505,0.06108 -0.15585,0.131165 0.0612,0.07232 0.30019,0.349137 0.53111,0.614407 0.23094,0.265236 0.54568,0.48186 0.70016,0.48186 0.15362,0 0.23134,-0.05893 0.17024,-0.131165 -0.72577,-0.85758 -0.9941,-1.096267 -1.23247,-1.096267 -0.005,0 -0.009,-1.14e-4 -0.0132,0 z" />
      <path
         id="path12054"
         style="fill:#666666;fill-opacity:1;stroke-width:0.231128"
         d="m 79.02509,38.809657 c -0.164064,0.0072 -0.29613,0.241209 -0.29613,0.526043 0,0.289379 0.137131,0.526043 0.304522,0.526043 0.167693,0 0.304522,-0.236664 0.304522,-0.526043 0,-0.289355 -0.137131,-0.526043 -0.304522,-0.526043 -0.0026,0 -0.0058,-1.15e-4 -0.0084,0 z m -0.921958,0.175348 c -0.160473,0.0071 -0.288936,0.122859 -0.288936,0.263021 0,0.144671 0.137131,0.263021 0.304522,0.263021 0.167673,0 0.30572,-0.118326 0.30572,-0.263021 0,-0.14465 -0.138329,-0.263021 -0.30572,-0.263021 -0.0052,0 -0.01041,-2.28e-4 -0.01559,0 z m -1.080214,0.22022 c -0.08584,0.0021 -0.122288,0.0803 -0.122288,0.24162 0,0.196139 0.103145,0.416525 0.228991,0.489455 0.125705,0.07297 0.275616,-0.0014 0.333296,-0.164993 0.0577,-0.163588 -0.04587,-0.383204 -0.228991,-0.488764 -0.09046,-0.05207 -0.159506,-0.07859 -0.211008,-0.07732 z" />
      <path
         id="path12054-3"
         style="font-size:32px;line-height:1.25;fill:#666666;fill-opacity:1;stroke-width:0.286738"
         d="m 77.859755,44.036974 c -0.164064,0.01108 -0.29613,0.371244 -0.29613,0.809631 0,0.445382 0.137131,0.809631 0.304522,0.809631 0.167693,0 0.304522,-0.364249 0.304522,-0.809631 0,-0.445346 -0.137131,-0.809631 -0.304522,-0.809631 -0.0026,0 -0.0058,-1.77e-4 -0.0084,0 z m -0.921958,0.269877 c -0.160473,0.01093 -0.288936,0.189092 -0.288936,0.404815 0,0.222662 0.137131,0.404815 0.304522,0.404815 0.167673,0 0.30572,-0.182116 0.30572,-0.404815 0,-0.222631 -0.138329,-0.404815 -0.30572,-0.404815 -0.0052,0 -0.01041,-3.51e-4 -0.01559,0 z m -1.080214,0.33894 c -0.08584,0.0032 -0.122288,0.123589 -0.122288,0.371876 0,0.301877 0.103145,0.641073 0.228991,0.753319 0.125705,0.112308 0.275616,-0.0022 0.333296,-0.25394 0.0577,-0.251778 -0.04587,-0.589788 -0.228991,-0.752255 -0.09046,-0.08014 -0.159506,-0.120958 -0.211008,-0.119003 z" />
      <path
         id="path12054-8"
         style="font-size:32px;line-height:1.25;fill:#666666;fill-opacity:1;stroke-width:0.231128"
         d="m 51.571369,27.095201 c -0.164064,0.0072 -0.29613,0.241209 -0.29613,0.526043 0,0.289379 0.137131,0.526043 0.304522,0.526043 0.167693,0 0.304523,-0.236664 0.304523,-0.526043 0,-0.289355 -0.137131,-0.526043 -0.304523,-0.526043 -0.0026,0 -0.0058,-1.15e-4 -0.0084,0 z m -0.921958,0.175348 c -0.160473,0.0071 -0.288936,0.122859 -0.288936,0.263021 0,0.144671 0.137131,0.263021 0.304522,0.263021 0.167673,0 0.30572,-0.118326 0.30572,-0.263021 0,-0.14465 -0.138329,-0.263021 -0.30572,-0.263021 -0.0052,0 -0.01041,-2.28e-4 -0.01559,0 z m -1.080214,0.22022 c -0.08584,0.0021 -0.122288,0.0803 -0.122288,0.24162 0,0.196139 0.103145,0.416525 0.228991,0.489455 0.125705,0.07297 0.275616,-0.0014 0.333296,-0.164993 0.0577,-0.163588 -0.04587,-0.383204 -0.22899,-0.488764 -0.09046,-0.05207 -0.159506,-0.07859 -0.211009,-0.07732 z" />
      <path
         style="fill:#666666;fill-opacity:1;stroke-width:0.231128"
         d="m 55.578342,46.335335 c 0,-0.20694 0.941809,-1.131072 1.150099,-1.128541 0.12141,0.0011 0.406439,0.07038 0.633567,0.153335 0.340107,0.124059 0.320524,0.231768 -0.111326,0.611099 -0.446087,0.391989 -1.672461,0.658967 -1.672461,0.364107 z"
         id="path12048" />
      <path
         style="fill:#666666;fill-opacity:1;stroke-width:0.231128"
         d="m 52.727749,45.77409 c -0.27188,-0.946976 -0.238624,-1.307506 0.109107,-1.183772 0.167392,0.05969 0.306689,0.320756 0.30925,0.580325 0.0061,0.815484 0.500057,1.022993 0.73271,0.309016 0.113746,-0.349823 0.331394,-0.591857 0.483156,-0.537845 0.152064,0.05411 0.224829,0.194281 0.162551,0.311767 -0.06252,0.117591 -0.19623,0.430614 -0.297129,0.695885 -0.288196,0.757246 -1.264511,0.64308 -1.499484,-0.175376 z"
         id="path12046" />
      <path
         style="fill:#666666;fill-opacity:1;stroke-width:0.231128"
         d="m 51.793867,45.85247 c -0.621062,-0.825564 -0.987448,-1.861017 -0.570684,-1.612863 0.465106,0.276918 1.374827,1.818572 1.216068,2.060779 -0.07885,0.120564 -0.36939,-0.08106 -0.645384,-0.447916 z"
         id="path12044" />
      <path
         style="fill:#666666;fill-opacity:1;stroke-width:0.231128"
         d="m 54.664527,46.457879 c 0,-0.338535 0.688846,-1.253762 0.943643,-1.253762 0.367475,0 0.350131,0.08291 -0.166584,0.794802 -0.417531,0.57532 -0.7771,0.787695 -0.7771,0.45896 z"
         id="path12042" />
      <path
         style="fill:#666666;fill-opacity:1;stroke-width:0.231128"
         d="m 51.009245,46.958007 c 0,-0.09639 0.274139,-0.175376 0.609203,-0.175376 0.335086,0 0.609225,0.07885 0.609225,0.175376 0,0.09639 -0.274139,0.175353 -0.609225,0.175353 -0.335064,0 -0.609203,-0.07885 -0.609203,-0.175353 z"
         id="path12040" />
      <path
         style="fill:#666666;fill-opacity:1;stroke-width:0.231128"
         d="m 55.045151,47.089486 c 0.191996,-0.331846 1.142436,-0.379017 1.142436,-0.05679 0,0.162683 -0.260505,0.27592 -0.634575,0.27592 -0.372254,0 -0.58222,-0.09058 -0.507861,-0.219204 z"
         id="path12038" />
      <path
         style="fill:#666666;fill-opacity:1;stroke-width:0.231128"
         d="m 53.21752,47.089486 c 0.191996,-0.331846 1.142415,-0.379017 1.142415,-0.05679 0,0.162683 -0.260525,0.27592 -0.634594,0.27592 -0.372254,0 -0.5822,-0.09058 -0.507821,-0.219204 z"
         id="path12036" />
      <path
         style="fill:#666666;fill-opacity:1;stroke-width:0.231128"
         d="m 48.876962,47.130596 c -0.406135,-0.153498 -0.406135,-0.19189 0,-0.345388 0.684852,-0.258837 0.913855,-0.215556 0.913855,0.172694 0,0.388262 -0.228821,0.431519 -0.913855,0.172694 z"
         id="path12034" />
      <path
         style="fill:#666666;fill-opacity:1;stroke-width:0.231128"
         d="m 56.872822,47.26477 c 0.191996,-0.331835 1.142436,-0.379018 1.142436,-0.05667 0,0.162683 -0.260505,0.27592 -0.634595,0.27592 -0.372254,0 -0.582199,-0.09058 -0.507841,-0.219238 z"
         id="path12032" />
      <path
         style="fill:#666666;fill-opacity:1;stroke-width:0.231128"
         d="m 48.946762,47.802268 c 0.188366,-0.325182 0.844055,-0.379123 0.844055,-0.06945 0,0.152731 -0.217104,0.277685 -0.482308,0.277685 -0.265285,0 -0.428058,-0.09372 -0.361747,-0.208264 z"
         id="path12030" />
      <path
         style="fill:#666666;fill-opacity:1;stroke-width:0.231128"
         d="m 56.094331,48.07439 c -0.284282,-0.163671 0.05929,-0.413985 0.568143,-0.413985 0.241548,0 0.438948,0.118404 0.438948,0.263065 0,0.264156 -0.643025,0.360518 -1.007091,0.15092 z"
         id="path12028" />
      <path
         style="fill:#666666;fill-opacity:1;stroke-width:0.231128"
         d="m 53.903018,48.01133 c -0.121611,-0.113225 -0.08409,-0.284862 0.08369,-0.381317 0.203047,-0.116918 0.378303,-0.106606 0.525668,0.03043 0.121612,0.113225 0.08409,0.284874 -0.08369,0.381306 -0.203047,0.116918 -0.378283,0.106722 -0.525668,-0.03043 z"
         id="path12026" />
      <path
         style="fill:#666666;fill-opacity:1;stroke-width:0.231128"
         d="m 51.615887,48.00313 c -0.402727,-0.148933 -0.402727,-0.187151 0,-0.336119 0.289769,-0.107187 0.560156,-0.107187 0.746303,0 0.446189,0.256886 -0.188365,0.542606 -0.746303,0.336119 z"
         id="path12024" />
      <path
         style="fill:#666666;fill-opacity:1;stroke-width:0.231128"
         d="m 59.094387,48.197946 c -0.225292,-0.209842 0.34775,-0.417793 0.753483,-0.273399 0.340671,0.121098 0.117174,0.436663 -0.309593,0.436663 -0.147829,0 -0.347488,-0.07351 -0.44389,-0.163264 z"
         id="path12022" />
      <path
         id="path12020"
         style="fill:#666666;fill-opacity:1;stroke-width:0.231128"
         d="m 96.134661,46.152853 c -0.01385,4.85e-4 -0.0284,0.0037 -0.04316,0.009 -0.16765,0.05963 -0.304522,0.498179 -0.304522,0.974766 0,0.476577 0.137133,0.866383 0.304522,0.866383 0.167694,0 0.304522,-0.438582 0.304522,-0.974767 0,-0.557972 -0.09795,-0.881081 -0.261362,-0.875357 z m -2.556065,0.09734 c -0.330085,-9.64e-4 -0.283304,0.228783 0.183433,0.898828 0.226561,0.32525 0.521487,0.749433 0.655801,0.942321 0.223762,0.321144 0.256269,0.323649 0.375257,0.0359 0.142624,-0.3449 -0.848087,-1.876047 -1.214491,-1.877047 z m -3.136335,0.0932 c -0.02687,0.0012 -0.04617,0.01001 -0.05635,0.02761 -0.0652,0.112598 0.26112,0.535 0.725337,0.938869 0.464239,0.403904 0.897581,0.642138 0.962721,0.529494 0.06518,-0.112609 -0.261099,-0.535 -0.725338,-0.938869 -0.391667,-0.340783 -0.761297,-0.563431 -0.906372,-0.557108 z m 8.117785,0.08146 c -0.329277,0 -1.55498,1.23838 -1.55498,1.571224 0,0.100255 0.110654,0.182251 0.245776,0.182251 0.203108,0 0.621598,-0.442853 1.531001,-1.621619 0.05588,-0.0724 -0.04371,-0.131856 -0.221797,-0.131856 z m -6.199537,6.9e-4 c -0.415675,-0.0012 -0.23855,0.529095 0.428009,1.277828 0.361508,0.406041 0.716289,0.63826 0.788879,0.515688 0.154933,-0.2621 -0.883315,-1.792656 -1.216888,-1.793516 z m -6.017304,1.966792 c -0.127817,0.0038 -0.267642,0.04777 -0.443594,0.131856 -0.258347,0.123467 -0.469971,0.298885 -0.469971,0.390045 0,0.09127 0.308821,0.110842 0.685773,0.04418 0.926783,-0.164007 1.007422,-0.225581 0.601851,-0.45908 -0.130152,-0.07495 -0.246241,-0.110814 -0.374059,-0.107003 z m 2.433777,0.138069 c -0.609133,0.0056 -0.786693,0.187698 -0.395638,0.412826 0.282164,0.162474 0.790308,0.05125 0.938742,-0.205032 0.06738,-0.116392 -0.159844,-0.207794 -0.51433,-0.207794 -0.0099,0 -0.0191,-8.9e-5 -0.02877,0 z m 2.428981,0 c -0.618698,0.007 -1.003167,0.233588 -0.690569,0.413516 0.376569,0.216788 1.311602,0.10962 1.311602,-0.150495 0,-0.144661 -0.265856,-0.263021 -0.59106,-0.263021 -0.0099,0 -0.02015,-1.12e-4 -0.02997,0 z m 4.220146,0 c -0.562216,0.01117 -0.72421,0.193362 -0.350081,0.408684 0.371002,0.213664 1.015473,0.121337 1.015473,-0.145663 0,-0.146147 -0.270596,-0.263021 -0.609044,-0.263021 -0.01896,0 -0.03821,-3.6e-4 -0.05635,0 z m -11.394392,0.0041 c -0.221135,0.0045 -0.454867,0.05297 -0.555093,0.146353 -0.08874,0.083 -0.08381,0.196246 0.01199,0.251286 l -0.0012,0.0014 c 0.237735,0.136857 1.02866,-0.0515 1.02866,-0.245072 0,-0.107147 -0.233738,-0.159076 -0.484357,-0.153947 z m 9.298706,0.01174 c -0.04433,0.0011 -0.09441,0.005 -0.148664,0.01104 -0.2986,0.03332 -0.604549,0.166293 -0.679779,0.296158 -0.08733,0.150985 0.05916,0.214018 0.406428,0.175348 0.29858,-0.03333 0.60459,-0.166304 0.679779,-0.296158 0.07366,-0.127404 -0.01839,-0.192484 -0.257764,-0.186393 z m 7.790487,0.768353 c -0.27514,0.0063 -0.46038,0.115601 -0.46038,0.296849 0,0.196245 0.83424,0.1877 1.04664,-0.01036 0.0927,-0.08634 -0.0226,-0.199605 -0.25656,-0.251285 -0.11865,-0.02621 -0.23018,-0.03748 -0.3297,-0.03521 z m -16.625217,0.0048 c -0.217238,0.0059 -0.444333,0.102043 -0.511932,0.218839 -0.07549,0.130374 0.139691,0.21953 0.532313,0.21953 0.392463,0 0.608943,-0.08913 0.533513,-0.21953 -0.06978,-0.120505 -0.310096,-0.218839 -0.533513,-0.218839 -0.007,0 -0.01337,-1.9e-4 -0.02038,0 z m -2.219173,0.01657 c -0.130452,0.0026 -0.249601,0.0312 -0.344086,0.0856 -0.203269,0.116906 -0.153738,0.229012 0.147466,0.336198 0.280309,0.09918 0.567539,0.09362 0.756509,-0.01519 0.203269,-0.116906 0.153758,-0.229012 -0.147466,-0.336198 -0.140155,-0.04959 -0.281971,-0.07301 -0.412423,-0.07041 z m 5.096545,0.07111 c -0.76695,0.0078 -0.989054,0.260246 -0.344086,0.410064 0.725448,0.168467 1.142556,0.114779 1.142556,-0.147043 0,-0.163774 -0.287486,-0.263021 -0.761304,-0.263021 -0.01245,0 -0.02499,-1.25e-4 -0.03717,0 z m 11.649758,0 c -0.230795,0 -0.589817,0.118326 -0.79847,0.263021 -0.320689,0.222523 -0.255931,0.263021 0.419616,0.263021 0.506959,0 0.798471,-0.09607 0.798471,-0.263021 0,-0.14466 -0.188934,-0.263021 -0.419617,-0.263021 z m -3.070395,0.03452 c -0.121162,3.89e-4 -0.246437,0.01273 -0.366865,0.03935 -0.376087,0.08302 -0.399943,0.158615 -0.115095,0.356217 0.36104,0.25042 1.230076,0.188513 1.230076,-0.08767 0,-0.181516 -0.352321,-0.309167 -0.748116,-0.307894 z m -2.895355,0.02278 c -0.404334,0.0051 -0.925555,0.155447 -0.925555,0.312036 0,0.08623 0.342464,0.156708 0.761305,0.156708 0.752759,0 1.021263,-0.237697 0.484357,-0.428704 -0.08349,-0.02971 -0.196332,-0.0416 -0.320107,-0.04004 z m -2.789852,0.03037 c -0.377572,0.0059 -0.733269,0.102745 -0.800868,0.21953 -0.08369,0.144654 0.201747,0.218839 0.838034,0.218839 0.636188,0 0.920736,-0.07429 0.836836,-0.218839 -0.06978,-0.120517 -0.445906,-0.21953 -0.836836,-0.21953 -0.01222,0 -0.02499,-1.9e-4 -0.03717,0 z M 83.200876,50.1534 c -0.07783,0.0018 -0.169888,0.03915 -0.291334,0.109075 -0.287955,0.165737 -0.270406,0.246092 0.07793,0.370024 0.567458,0.201831 0.744807,0.09951 0.490352,-0.282351 -0.09036,-0.135528 -0.170286,-0.199229 -0.276947,-0.196748 z m 6.073652,0.05592 c -0.112257,-2.41e-4 -0.239546,0.02604 -0.365666,0.08629 -0.235866,0.112064 -0.350724,0.273509 -0.258964,0.358979 0.222207,0.207028 0.658969,0.197126 0.891986,-0.02002 0.240893,-0.224413 0.043,-0.424585 -0.267356,-0.425252 z m -7.939148,0.07456 c -0.508873,0 -0.851365,0.250537 -0.567082,0.414207 0.364066,0.209598 1.00708,0.11297 1.00708,-0.151185 0,-0.14466 -0.198471,-0.263022 -0.439998,-0.263022 z m 10.028839,0 c -0.495725,0.0076 -0.824144,0.253095 -0.544303,0.414207 0.364066,0.209599 1.00708,0.112959 1.00708,-0.151185 0,-0.14466 -0.197272,-0.263022 -0.438799,-0.263022 -0.008,0 -0.01611,-1.21e-4 -0.02398,0 z m -6.013707,0.01657 c -0.108108,6.95e-4 -0.237843,0.01609 -0.383649,0.04832 -0.269122,0.05946 -0.403993,0.187912 -0.299727,0.285112 0.246912,0.229993 0.675092,0.225269 0.927953,-0.01035 0.210262,-0.195537 0.07975,-0.325167 -0.244577,-0.323081 z m 1.37994,0.0083 c -0.244755,6.49e-4 -0.386048,0.08577 -0.386048,0.238169 0,0.168429 0.196395,0.265045 0.472369,0.231955 0.6617,-0.07932 0.702001,-0.38996 0.05994,-0.46115 -0.05212,-0.0058 -0.100941,-0.0091 -0.146266,-0.009 z m 11.415972,6.9e-4 c -0.308801,0.0039 -0.70433,0.147074 -0.779288,0.371405 -0.111808,0.334332 -0.03545,0.356133 0.679779,0.198129 0.26494,-0.05855 0.481959,-0.221608 0.481959,-0.363121 0,-0.146182 -0.171165,-0.209057 -0.38245,-0.206413 z m 2.211976,0.01105 c -0.35677,0.0044 -0.700412,0.264369 -0.466371,0.483241 0.157861,0.146975 0.328971,0.143725 0.655801,-0.01243 0.30716,-0.146762 0.34601,-0.267422 0.12589,-0.394187 -0.0953,-0.05488 -0.20602,-0.07799 -0.31532,-0.07663 z m -4.402375,0.01104 c -0.05082,0.0019 -0.118245,0.02874 -0.203814,0.07801 -0.186354,0.107325 -0.247016,0.280349 -0.134278,0.385212 0.314977,0.293512 0.473568,0.228771 0.473568,-0.194677 0,-0.185919 -0.03846,-0.272084 -0.135476,-0.268544 z m 6.900895,0.0097 c -0.43034,0.01408 -0.99839,0.30814 -0.80446,0.488764 h 0.001 c 0.24141,0.22485 0.61307,0.191513 1.02147,-0.09182 0.25451,-0.176781 0.26181,-0.281343 0.024,-0.365883 -0.0695,-0.02471 -0.15286,-0.03399 -0.24218,-0.03106 z m -9.202793,0.03037 c -0.223398,0 -0.462514,0.09898 -0.532314,0.21953 -0.07547,0.130373 0.139693,0.218839 0.532314,0.218839 0.392482,0 0.608963,-0.08844 0.533513,-0.218839 -0.06978,-0.120482 -0.310081,-0.21953 -0.533513,-0.21953 z" />
      <path
         style="fill:#666666;fill-opacity:1;stroke-width:0.231128"
         d="m 53.199954,48.697244 c 0.0601,-0.103703 0.239409,-0.188522 0.398532,-0.188522 0.159325,0 0.338494,0.08477 0.398533,0.188522 0.0603,0.103702 -0.119393,0.188522 -0.398533,0.188522 -0.279221,0 -0.458572,-0.08477 -0.398532,-0.188522 z"
         id="path12014" />
      <path
         style="fill:#666666;fill-opacity:1;stroke-width:0.231128"
         d="m 51.009306,48.622684 c 0,-0.144695 0.205629,-0.263076 0.456917,-0.263076 0.251289,0 0.456918,0.118404 0.456918,0.263076 0,0.144695 -0.205629,0.263053 -0.456918,0.263053 -0.251288,0 -0.456917,-0.118404 -0.456917,-0.263053 z"
         id="path12012" />
      <path
         style="fill:#666666;fill-opacity:1;stroke-width:0.231128"
         d="m 49.235462,48.613384 c 0.137946,-0.380945 0.678378,-0.404252 0.802046,-0.03461 0.06414,0.191959 -0.08531,0.306914 -0.398956,0.306914 -0.292632,0 -0.460527,-0.113456 -0.40309,-0.272319 z"
         id="path12010" />
      <path
         style="fill:#666666;fill-opacity:1;stroke-width:0.231128"
         d="m 60.452193,48.797998 c 0,-0.160755 0.147224,-0.263993 0.327482,-0.229433 0.180097,0.03461 0.327441,0.137855 0.327441,0.229433 0,0.09174 -0.147223,0.194886 -0.327441,0.229446 -0.180097,0.03472 -0.327482,-0.06863 -0.327482,-0.229446 z"
         id="path12004" />
      <path
         style="fill:#666666;fill-opacity:1;stroke-width:0.231128"
         d="m 58.396083,48.841778 c 0.06978,-0.120552 0.309694,-0.219214 0.533091,-0.219214 0.223417,0 0.463251,0.09871 0.533051,0.219214 0.07543,0.1304 -0.140569,0.219214 -0.533051,0.219214 -0.392624,0 -0.608579,-0.08884 -0.533091,-0.219214 z"
         id="path12002" />
      <path
         style="fill:#666666;fill-opacity:1;stroke-width:0.231128"
         d="m 54.79233,48.862688 c -0.25976,-0.24186 0.336637,-0.575437 0.759593,-0.424947 0.182315,0.06492 0.331153,0.183656 0.331153,0.264097 0,0.23329 -0.87457,0.36225 -1.090746,0.16085 z"
         id="path12000" />
      <path
         style="fill:#666666;fill-opacity:1;stroke-width:0.231128"
         d="m 56.99167,49.114638 c -0.343052,-0.19751 -0.208896,-0.404438 0.262118,-0.404438 0.251289,0 0.456918,0.07432 0.456918,0.165029 0,0.221143 -0.475693,0.379529 -0.719056,0.239409 z"
         id="path11998" />
      <path
         id="path11984"
         style="fill:#666666;fill-opacity:1;stroke-width:0.231128"
         d="M 70.261096 47.3078 C 69.939746 47.3078 69.504219 48.281297 69.123335 49.851029 C 68.811765 51.13503 69.415192 50.6226 69.846274 49.237313 C 70.041315 48.610352 70.285325 47.919708 70.388179 47.702677 C 70.494502 47.478538 70.439781 47.3078 70.261096 47.3078 z M 67.450863 48.185228 C 67.285309 48.199529 67.153534 48.661861 67.153534 49.237313 C 67.153534 49.821875 67.288849 50.289398 67.458056 50.289398 C 67.627383 50.289398 67.762578 49.821875 67.762578 49.237313 C 67.762578 48.652727 67.627464 48.185228 67.458056 48.185228 C 67.455411 48.185228 67.45349 48.185001 67.450863 48.185228 z M 65.254469 48.886618 C 65.106972 48.894878 65.053778 49.029614 65.138175 49.193131 C 65.225279 49.361946 65.386533 49.717649 65.496648 49.982885 C 65.606562 50.248132 65.86803 50.464746 66.078116 50.464746 C 66.374253 50.464746 66.359567 50.287372 66.009779 49.675682 C 65.761576 49.241631 65.427777 48.886618 65.268856 48.886618 C 65.263902 48.886618 65.259227 48.886351 65.254469 48.886618 z M 71.269375 49.127548 C 71.125187 49.13512 70.841846 49.41173 70.562021 49.894521 C 70.290626 50.362749 70.309989 50.464746 70.67232 50.464746 C 70.914715 50.464746 71.113517 50.395909 71.113517 50.311489 C 71.113517 50.227087 71.20046 49.891447 71.306541 49.565917 C 71.406146 49.259814 71.374593 49.122023 71.269375 49.127548 z M 63.453714 49.254572 C 63.391421 49.256689 63.337726 49.271682 63.290663 49.298754 C 63.198416 49.351859 63.446782 49.631254 63.843358 49.920064 C 64.813001 50.626178 65.593384 50.647658 64.723354 49.944226 C 64.139514 49.472131 63.72365 49.245396 63.453714 49.254572 z M 64.361285 51.017712 C 64.216301 51.019953 64.107117 51.11564 64.107117 51.25381 C 64.107117 51.414612 64.254321 51.518304 64.434418 51.483694 C 64.614616 51.449146 64.762918 51.34532 64.762918 51.25381 C 64.762918 51.162208 64.614515 51.059225 64.434418 51.024615 C 64.409069 51.019755 64.385009 51.017345 64.361285 51.017712 z M 70.204747 51.03359 C 70.005899 51.034072 69.763457 51.131197 69.660444 51.309037 C 69.594133 51.423568 69.757269 51.516831 70.022513 51.516831 C 70.287717 51.516831 70.504473 51.39202 70.504473 51.239312 C 70.504473 51.098992 70.369507 51.03319 70.204747 51.03359 z M 67.236259 51.103314 C 67.111966 51.104335 66.977428 51.12534 66.846614 51.17373 C 66.443867 51.322709 66.443867 51.360983 66.846614 51.509927 C 67.136382 51.617113 67.406187 51.617113 67.592333 51.509927 C 67.93393 51.313281 67.642281 51.09998 67.236259 51.103314 z M 70.509269 51.911018 C 70.310415 51.9115 70.067979 52.008625 69.964966 52.186465 C 69.898634 52.300985 70.061751 52.394259 70.327035 52.394259 C 70.59224 52.394259 70.808995 52.269448 70.808995 52.11674 C 70.808995 51.97642 70.674034 51.910618 70.509269 51.911018 z M 72.740431 52.033899 C 72.606331 52.035979 72.448742 52.10425 72.377163 52.227886 C 72.310086 52.34368 72.420869 52.407266 72.621739 52.368716 C 72.82283 52.330114 72.978746 52.241308 72.964626 52.171278 C 72.947555 52.076218 72.851542 52.032176 72.740431 52.033899 z M 61.232143 52.043564 C 60.990716 52.043564 60.707578 52.122521 60.603917 52.218911 C 60.500396 52.315305 60.698968 52.394949 61.043915 52.394949 C 61.388883 52.394949 61.670942 52.315301 61.670942 52.218911 C 61.670942 52.122373 61.473691 52.043564 61.232143 52.043564 z M 63.211535 52.043564 C 62.866568 52.043564 62.584508 52.122521 62.584508 52.218911 C 62.584508 52.315305 62.78178 52.394949 63.023307 52.394949 C 63.264734 52.394949 63.546874 52.315301 63.650334 52.218911 C 63.753874 52.122373 63.556482 52.043564 63.211535 52.043564 z M 67.940016 52.043564 C 67.674791 52.043564 67.458056 52.169065 67.458056 52.321773 C 67.458056 52.631444 68.11372 52.577229 68.302085 52.252048 C 68.368396 52.137506 68.205279 52.043564 67.940016 52.043564 z M 65.777191 52.044254 C 65.281466 52.051873 64.953049 52.29668 65.232889 52.457771 C 65.596934 52.667357 66.239969 52.571419 66.239969 52.307275 C 66.239969 52.162603 66.042697 52.044254 65.801169 52.044254 C 65.793218 52.044254 65.78506 52.044133 65.777191 52.044254 z M 74.48244 52.744954 C 74.071139 52.744954 73.785484 53.065164 74.010071 53.274448 L 74.008872 53.274448 C 74.114087 53.372348 74.327542 53.407157 74.483638 53.351767 C 74.854719 53.220124 74.8531 52.744954 74.48244 52.744954 z M 70.335428 52.836079 C 70.204988 52.837489 70.059359 52.862055 69.91701 52.912708 C 69.694884 52.992012 69.602678 53.141183 69.713196 53.244073 C 69.932842 53.448701 70.808995 53.323348 70.808995 53.087365 C 70.808995 52.926401 70.602518 52.833193 70.335428 52.836079 z M 72.179343 52.894068 C 72.02024 52.894068 71.841407 52.978831 71.781307 53.082532 C 71.721248 53.186284 71.900143 53.270997 72.179343 53.270997 C 72.458684 53.270997 72.638679 53.186234 72.578579 53.082532 C 72.51856 52.978781 72.338667 52.894068 72.179343 52.894068 z M 62.2644 52.920992 C 62.103947 52.928072 61.975464 53.04384 61.975464 53.184013 C 61.975464 53.328674 62.112595 53.447034 62.279986 53.447034 C 62.44766 53.447034 62.584508 53.328697 62.584508 53.184013 C 62.584508 53.039341 62.447377 52.920992 62.279986 52.920992 C 62.274747 52.920992 62.269576 52.920763 62.2644 52.920992 z M 64.236599 52.920992 C 63.996098 52.928072 63.802595 53.04384 63.802595 53.184013 C 63.802595 53.328674 64.00809 53.447034 64.259378 53.447034 C 64.510687 53.447034 64.716161 53.328697 64.716161 53.184013 C 64.716161 53.039341 64.510667 52.920992 64.259378 52.920992 C 64.251526 52.920992 64.244357 52.920763 64.236599 52.920992 z M 66.386235 52.920992 C 65.89053 52.928611 65.56209 53.174086 65.841932 53.335199 C 66.205977 53.544786 66.849012 53.448158 66.849012 53.184013 C 66.849012 53.039341 66.65174 52.920992 66.410213 52.920992 C 66.402262 52.920992 66.394103 52.920871 66.386235 52.920992 z M 60.432473 52.93687 C 60.388143 52.937998 60.338073 52.941873 60.283809 52.947915 C 59.985228 52.981245 59.680459 53.114898 59.605229 53.244763 C 59.517984 53.395748 59.664391 53.458781 60.011658 53.420111 C 60.310239 53.386794 60.615008 53.253129 60.690238 53.123263 C 60.763886 52.995869 60.671861 52.930779 60.432473 52.93687 z M 68.272112 52.93756 C 68.168256 52.939929 68.045529 52.955667 67.908844 52.985884 C 67.639702 53.045341 67.504852 53.173106 67.609118 53.270306 C 67.85603 53.500298 68.28421 53.495574 68.53707 53.259951 C 68.751714 53.060359 68.611377 52.929822 68.272112 52.93756 z " />
      <path
         id="path11984-3"
         style="font-size:32px;line-height:1.25;fill:#666666;fill-opacity:1;stroke-width:0.231128"
         d="m 78.989123,28.997102 c -0.32135,0 -0.756877,0.973497 -1.137761,2.543229 -0.31157,1.284001 0.291857,0.771571 0.722939,-0.613716 0.195041,-0.626961 0.439051,-1.317605 0.541905,-1.534636 0.106323,-0.224139 0.0516,-0.394877 -0.127083,-0.394877 z M 76.17889,29.87453 c -0.165554,0.0143 -0.297329,0.476633 -0.297329,1.052085 0,0.584562 0.135315,1.052085 0.304522,1.052085 0.169327,0 0.304522,-0.467523 0.304522,-1.052085 0,-0.584586 -0.135114,-1.052085 -0.304522,-1.052085 -0.0026,0 -0.0046,-2.27e-4 -0.0072,0 z m -2.196394,0.70139 c -0.147497,0.0083 -0.200691,0.142996 -0.116294,0.306513 0.0871,0.168815 0.248358,0.524518 0.358473,0.789754 0.109914,0.265247 0.371382,0.481861 0.581468,0.481861 0.296137,0 0.281451,-0.177374 -0.06834,-0.789064 C 74.4896,30.930933 74.155801,30.57592 73.99688,30.57592 c -0.005,0 -0.0096,-2.67e-4 -0.01439,0 z m 6.014906,0.24093 c -0.144188,0.0076 -0.427529,0.284182 -0.707354,0.766973 -0.271395,0.468228 -0.252032,0.570225 0.110299,0.570225 0.242395,0 0.441197,-0.06884 0.441197,-0.153257 0,-0.0844 0.08694,-0.420042 0.193024,-0.745572 0.09961,-0.306103 0.06805,-0.443894 -0.03717,-0.438369 z m -7.815661,0.127024 c -0.06229,0.0021 -0.115988,0.01711 -0.163051,0.04418 -0.09225,0.0531 0.156119,0.3325 0.552695,0.62131 0.969643,0.706114 1.750026,0.727594 0.879996,0.02416 -0.58384,-0.472095 -0.999704,-0.69883 -1.26964,-0.689654 z m 0.907571,1.76314 c -0.144984,0.0022 -0.254168,0.09793 -0.254168,0.236098 0,0.160802 0.147204,0.264494 0.327301,0.229884 0.180198,-0.03455 0.3285,-0.138374 0.3285,-0.229884 0,-0.0916 -0.148403,-0.194585 -0.3285,-0.229195 -0.02535,-0.0049 -0.04941,-0.0073 -0.07313,-0.0069 z m 5.843462,0.01588 c -0.198848,4.82e-4 -0.44129,0.09761 -0.544303,0.275447 -0.06631,0.114531 0.09682,0.207794 0.362069,0.207794 0.265204,0 0.48196,-0.124811 0.48196,-0.277519 0,-0.14032 -0.134966,-0.206122 -0.299726,-0.205722 z m -2.968488,0.06972 c -0.124293,10e-4 -0.258831,0.02203 -0.389645,0.07042 -0.402747,0.148979 -0.402747,0.187253 0,0.336197 0.289768,0.107186 0.559573,0.107186 0.745719,0 0.341597,-0.196646 0.04995,-0.409947 -0.356074,-0.406613 z m 3.27301,0.807704 c -0.198854,4.82e-4 -0.44129,0.09761 -0.544303,0.275447 -0.06633,0.11452 0.09678,0.207794 0.362069,0.207794 0.265205,0 0.48196,-0.124811 0.48196,-0.277519 0,-0.14032 -0.134961,-0.206122 -0.299726,-0.205722 z m 2.231162,0.122881 c -0.1341,0.0021 -0.291689,0.07035 -0.363268,0.193987 -0.06708,0.115794 0.04371,0.17938 0.244576,0.14083 0.201091,-0.0386 0.357007,-0.127408 0.342887,-0.197438 -0.01707,-0.09506 -0.113084,-0.139102 -0.224195,-0.137379 z m -11.508288,0.0097 c -0.241427,0 -0.524565,0.07896 -0.628226,0.175347 -0.103521,0.09639 0.09505,0.176038 0.439998,0.176038 0.344968,0 0.627027,-0.07965 0.627027,-0.176038 0,-0.09654 -0.197251,-0.175347 -0.438799,-0.175347 z m 1.979392,0 c -0.344967,0 -0.627027,0.07896 -0.627027,0.175347 0,0.09639 0.197272,0.176038 0.438799,0.176038 0.241427,0 0.523567,-0.07965 0.627027,-0.176038 0.10354,-0.09654 -0.09385,-0.175347 -0.438799,-0.175347 z m 4.728481,0 c -0.265225,0 -0.48196,0.125501 -0.48196,0.278209 0,0.309671 0.655664,0.255456 0.844029,-0.06972 0.06631,-0.114542 -0.09681,-0.208484 -0.362069,-0.208484 z m -2.162825,6.9e-4 c -0.495725,0.0076 -0.824142,0.252426 -0.544302,0.413517 0.364045,0.209586 1.00708,0.113648 1.00708,-0.150496 0,-0.144672 -0.197272,-0.263021 -0.4388,-0.263021 -0.008,0 -0.01611,-1.21e-4 -0.02398,0 z m 8.705249,0.7007 c -0.411301,0 -0.696956,0.32021 -0.472369,0.529494 h -0.0012 c 0.105215,0.0979 0.31867,0.132709 0.474766,0.07732 0.371081,-0.131643 0.369462,-0.606813 -0.0012,-0.606813 z m -4.147012,0.09112 c -0.13044,0.0014 -0.276069,0.02598 -0.418418,0.07663 -0.222126,0.0793 -0.314332,0.228475 -0.203814,0.331365 0.219646,0.204628 1.095799,0.07928 1.095799,-0.156708 0,-0.160964 -0.206477,-0.254172 -0.473567,-0.251287 z m 1.843915,0.05799 c -0.159103,0 -0.337936,0.08476 -0.398036,0.188464 -0.06006,0.103752 0.118836,0.188465 0.398036,0.188465 0.279341,0 0.459336,-0.08476 0.399236,-0.188465 -0.06002,-0.103751 -0.239912,-0.188464 -0.399236,-0.188464 z m -9.914943,0.02692 c -0.160453,0.0071 -0.288936,0.122848 -0.288936,0.263021 0,0.144661 0.137131,0.263021 0.304522,0.263021 0.167674,0 0.304522,-0.118337 0.304522,-0.263021 0,-0.144672 -0.137131,-0.263021 -0.304522,-0.263021 -0.0052,0 -0.01041,-2.29e-4 -0.01559,0 z m 1.972199,0 c -0.240501,0.0071 -0.434004,0.122848 -0.434004,0.263021 0,0.144661 0.205495,0.263021 0.456783,0.263021 0.251309,0 0.456783,-0.118337 0.456783,-0.263021 0,-0.144672 -0.205494,-0.263021 -0.456783,-0.263021 -0.0079,0 -0.01502,-2.29e-4 -0.02278,0 z m 2.149636,0 c -0.495705,0.0076 -0.824145,0.253094 -0.544303,0.414207 0.364045,0.209587 1.00708,0.112959 1.00708,-0.151186 0,-0.144672 -0.197272,-0.263021 -0.438799,-0.263021 -0.008,0 -0.01611,-1.21e-4 -0.02398,0 z m -5.953762,0.01588 c -0.04433,0.0011 -0.0944,0.005 -0.148664,0.01105 -0.298581,0.03333 -0.60335,0.166983 -0.67858,0.296848 -0.08725,0.150985 0.05916,0.214018 0.406429,0.175348 0.298581,-0.03332 0.60335,-0.166982 0.67858,-0.296848 0.07365,-0.127394 -0.01838,-0.192484 -0.257765,-0.186393 z m 7.839639,6.9e-4 c -0.103856,0.0024 -0.226583,0.01811 -0.363268,0.04832 -0.269142,0.05946 -0.403992,0.187222 -0.299726,0.284422 0.246912,0.229992 0.675092,0.225268 0.927952,-0.01035 0.214644,-0.199592 0.07431,-0.330129 -0.264958,-0.322392 z" />
      <path
         style="fill:#666666;fill-opacity:1;stroke-width:0.231128"
         d="m 101.01825,55.749042 c -0.52452,-0.191459 -0.87473,-1.600948 -0.39774,-1.600948 0.18977,0 0.35398,0.25648 0.36531,0.569955 0.0182,0.537602 0.0393,0.547565 0.35118,0.175387 0.38764,-0.46278 0.92035,-0.537183 0.62775,-0.08779 -0.17585,0.270323 -0.13773,0.277812 0.32154,0.06271 0.71434,-0.334634 0.79863,-0.208577 0.31006,0.463419 -0.41848,0.575518 -0.83942,0.686792 -1.5781,0.417178 z"
         id="path11902" />
      <path
         style="fill:#666666;fill-opacity:1;stroke-width:0.231128"
         d="m 99.44219,55.776682 c -0.506507,-0.06724 -2.221582,-2.102261 -2.025176,-2.402974 0.06841,-0.104631 0.494598,0.243961 0.9474,0.774444 l 0.823223,0.964569 -0.161748,-0.915819 c -0.250485,-1.416816 0.2571,-1.240465 0.688926,0.239329 0.211944,0.726413 0.340235,1.338836 0.284974,1.360924 -0.055,0.02206 -0.306071,0.01208 -0.557356,-0.02056 z"
         id="path11900" />
      <path
         style="fill:#666666;fill-opacity:1;stroke-width:0.231128"
         d="m 102.48825,55.995536 c 0,-0.268081 1.05589,-1.291399 1.25822,-1.219411 0.28616,0.101728 -0.64486,1.301142 -1.01,1.301142 -0.13654,0 -0.24812,-0.03681 -0.24812,-0.08176 z"
         id="path11898" />
      <path
         id="path11892"
         style="fill:#666666;fill-opacity:1;stroke-width:0.231128"
         d="M 56.959246 54.171206 C 56.664907 54.168375 56.491673 54.667478 56.491673 55.56156 C 56.491673 56.231059 56.618541 56.778638 56.772217 56.778638 C 57.038877 56.778638 57.382296 54.365649 57.135485 54.225053 C 57.072975 54.189445 57.013753 54.17173 56.959246 54.171206 z M 58.975804 54.704152 C 58.942144 54.704295 58.902032 54.708878 58.854715 54.717959 C 58.396567 54.805892 57.647231 56.584449 57.912375 56.954675 C 58.022288 57.108137 58.250701 56.80984 58.461474 56.239478 C 58.660125 55.70175 58.915416 55.123005 59.028556 54.953366 C 59.139638 54.786559 59.121666 54.703532 58.975804 54.704152 z M 52.760681 55.903971 C 52.403171 55.901184 52.489213 56.188537 53.046021 56.860789 C 53.573968 57.498167 53.892903 57.589646 54.636967 57.318487 C 55.000549 57.185963 54.984123 57.063929 54.533862 56.517687 C 53.904168 55.753769 53.496755 55.826698 54.055499 56.60329 C 54.26948 56.898847 54.355411 57.190894 54.248522 57.252214 C 54.141856 57.313633 53.81482 57.036152 53.521986 56.635046 C 53.229173 56.233929 52.886123 55.904971 52.760681 55.903971 z M 55.188464 55.975767 C 55.059293 55.981818 54.969064 56.119123 54.969064 56.329914 C 54.969064 56.576743 55.106194 56.778638 55.273586 56.778638 C 55.441259 56.778638 55.578108 56.625507 55.578108 56.438298 C 55.578108 56.251087 55.440977 56.049384 55.273586 55.989574 C 55.243904 55.979009 55.215273 55.974511 55.188464 55.975767 z M 55.647644 57.327462 C 55.420996 57.330563 55.273586 57.416092 55.273586 57.553895 C 55.273586 57.716589 55.534836 57.830032 55.909005 57.830032 C 56.651295 57.830032 56.546113 57.419715 55.781922 57.334365 C 55.734959 57.329119 55.689616 57.326887 55.647644 57.327462 z M 58.015481 57.478647 C 57.680396 57.478647 57.406438 57.557605 57.406438 57.653995 C 57.406438 57.75052 57.680396 57.829342 58.015481 57.829342 C 58.350546 57.829342 58.624525 57.750384 58.624525 57.653995 C 58.624525 57.557457 58.350546 57.478647 58.015481 57.478647 z M 54.994241 58.183489 C 54.620151 58.183489 54.36002 58.296943 54.36002 58.459627 C 54.36002 58.622981 54.566558 58.712026 54.867157 58.678466 C 55.631428 58.593136 55.73661 58.183489 54.994241 58.183489 z M 60.17351 58.183489 C 59.79938 58.183489 59.53809 58.296943 59.53809 58.459627 C 59.53809 58.622981 59.745828 58.712026 60.046426 58.678466 C 60.810678 58.593136 60.915819 58.183489 60.17351 58.183489 z M 52.523298 58.2256 C 52.162176 58.231553 51.82389 58.475037 52.059322 58.694344 C 52.171877 58.799291 52.384266 58.884879 52.53169 58.884879 C 53.002383 58.884879 53.222481 58.510817 52.870981 58.308441 C 52.765927 58.247956 52.643672 58.223615 52.523298 58.2256 z M 57.716954 58.231123 C 57.403494 58.233728 57.101916 58.365073 57.101916 58.544539 C 57.101916 58.748864 57.428561 58.751882 57.972321 58.553514 C 58.260301 58.448407 58.282783 58.366508 58.047852 58.282899 C 57.945222 58.24638 57.830333 58.23018 57.716954 58.231123 z M 60.395307 58.974624 C 60.078719 58.983102 59.53809 59.243942 59.53809 59.434393 C 59.53809 59.519076 59.81205 59.58834 60.147134 59.58834 C 60.732581 59.58834 60.972986 59.245081 60.555961 59.004999 C 60.516327 58.982179 60.461015 58.972864 60.395307 58.974624 z M 55.693203 58.98705 C 55.382848 58.987726 55.184938 59.187919 55.425847 59.412302 C 55.658945 59.629407 56.096783 59.639331 56.319031 59.432322 C 56.410894 59.346794 56.293276 59.185407 56.058869 59.073343 C 55.932737 59.013085 55.805459 58.986806 55.693203 58.98705 z M 63.002926 59.074033 C 62.893793 59.07606 62.723368 59.109835 62.457424 59.168611 C 62.192239 59.227151 61.975464 59.345582 61.975464 59.431632 C 61.975464 59.517873 62.249463 59.58834 62.584508 59.58834 C 62.922961 59.58834 63.193551 59.471373 63.193551 59.325319 C 63.193551 59.145419 63.173173 59.070872 63.002926 59.074033 z M 53.858878 59.114073 C 53.547182 59.121643 53.156938 59.381408 53.146729 59.631832 C 53.144147 59.704091 53.415892 59.762997 53.750977 59.762997 C 54.401241 59.762997 54.584335 59.338075 54.02073 59.137545 C 53.97138 59.119985 53.9166 59.112672 53.858878 59.114073 z M 57.990304 59.153423 C 57.787991 59.158911 57.556483 59.240315 57.472377 59.385379 C 57.386967 59.532996 57.526419 59.599157 57.844038 59.561417 C 58.123603 59.528087 58.341689 59.421709 58.335589 59.325319 C 58.324396 59.203264 58.168816 59.148581 57.990304 59.153423 z M 50.272954 59.242478 C 49.759607 59.244605 49.486472 59.333904 49.486472 59.499976 C 49.48741 59.831962 49.81793 59.833819 50.570282 59.506189 C 51.13677 59.259627 51.125676 59.248278 50.323308 59.242478 C 50.306251 59.242364 50.289513 59.242409 50.272954 59.242478 z M 52.007769 59.261117 C 51.969494 59.261206 51.925037 59.265496 51.875889 59.274924 C 51.650476 59.318146 51.41844 59.494434 51.36036 59.666349 C 51.29302 59.866338 51.404003 59.950666 51.666081 59.900376 C 51.891516 59.857142 52.122321 59.680866 52.180411 59.508951 C 52.235109 59.346469 52.173626 59.260729 52.007769 59.261117 z " />
      <path
         id="path11892-6"
         style="font-size:32px;line-height:1.25;fill:#666666;fill-opacity:1;stroke-width:0.231128"
         d="m 60.473236,26.306132 c -0.294339,-0.0028 -0.467573,0.496272 -0.467573,1.390354 0,0.669499 0.126868,1.217078 0.280544,1.217078 0.26666,0 0.610079,-2.412989 0.363268,-2.553585 -0.06251,-0.03561 -0.121732,-0.05332 -0.176239,-0.05385 z m 2.016558,0.532946 c -0.03366,1.43e-4 -0.07377,0.0047 -0.121089,0.01381 -0.458148,0.08793 -1.207484,1.86649 -0.94234,2.236716 0.109913,0.153462 0.338326,-0.144835 0.549099,-0.715197 0.198651,-0.537728 0.453942,-1.116473 0.567082,-1.286112 0.111082,-0.166807 0.09311,-0.249834 -0.05275,-0.249214 z m -6.215123,1.199819 c -0.35751,-0.0028 -0.271468,0.284566 0.28534,0.956818 0.527947,0.637378 0.846882,0.728857 1.590946,0.457698 0.363582,-0.132524 0.347156,-0.254558 -0.103105,-0.8008 -0.629694,-0.763918 -1.037107,-0.690989 -0.478363,0.0856 0.213981,0.295557 0.299912,0.587604 0.193023,0.648924 -0.106666,0.06142 -0.433702,-0.216062 -0.726536,-0.617168 -0.292813,-0.401117 -0.635863,-0.730075 -0.761305,-0.731075 z m 2.427783,0.0718 c -0.129171,0.0061 -0.2194,0.143356 -0.2194,0.354147 0,0.246829 0.13713,0.448724 0.304522,0.448724 0.167673,0 0.304522,-0.153131 0.304522,-0.34034 0,-0.187211 -0.137131,-0.388914 -0.304522,-0.448724 -0.02968,-0.01056 -0.05831,-0.01506 -0.08512,-0.01381 z m 0.45918,1.351695 c -0.226648,0.0031 -0.374058,0.08863 -0.374058,0.226433 0,0.162694 0.26125,0.276137 0.635419,0.276137 0.74229,0 0.637108,-0.410317 -0.127083,-0.495667 -0.04696,-0.0052 -0.09231,-0.0075 -0.134278,-0.0069 z m 2.367837,0.151185 c -0.335085,0 -0.609043,0.07896 -0.609043,0.175348 0,0.09652 0.273958,0.175347 0.609043,0.175347 0.335065,0 0.609044,-0.07896 0.609044,-0.175347 0,-0.09654 -0.273979,-0.175348 -0.609044,-0.175348 z m -3.02124,0.704842 c -0.37409,0 -0.634221,0.113454 -0.634221,0.276138 0,0.163354 0.206538,0.252399 0.507137,0.218839 0.764271,-0.08533 0.869453,-0.494977 0.127084,-0.494977 z m 5.179269,0 c -0.37413,0 -0.63542,0.113454 -0.63542,0.276138 0,0.163354 0.207738,0.252399 0.508336,0.218839 0.764252,-0.08533 0.869393,-0.494977 0.127084,-0.494977 z m -7.650212,0.04211 c -0.361122,0.006 -0.699408,0.249437 -0.463976,0.468744 0.112555,0.104947 0.324944,0.190535 0.472368,0.190535 0.470693,0 0.690791,-0.374062 0.339291,-0.576438 -0.105054,-0.06048 -0.227309,-0.08483 -0.347683,-0.08284 z m 5.193656,0.0055 c -0.31346,0.0026 -0.615038,0.13395 -0.615038,0.313416 0,0.204325 0.326645,0.207343 0.870405,0.009 0.28798,-0.105107 0.310462,-0.187006 0.07553,-0.270615 -0.10263,-0.03652 -0.217519,-0.05272 -0.330898,-0.05178 z m 2.678353,0.743501 c -0.316588,0.0085 -0.857217,0.269318 -0.857217,0.459769 0,0.08468 0.27396,0.153947 0.609044,0.153947 0.585447,0 0.825852,-0.343259 0.408827,-0.583341 -0.03963,-0.02282 -0.09495,-0.03213 -0.160654,-0.03037 z m -4.702104,0.01243 c -0.310355,6.76e-4 -0.508265,0.200869 -0.267356,0.425252 0.233098,0.217105 0.670936,0.227029 0.893184,0.02002 0.09186,-0.08553 -0.02576,-0.246915 -0.260162,-0.358979 -0.126132,-0.06026 -0.25341,-0.08654 -0.365666,-0.08629 z m 7.309723,0.08698 c -0.109133,0.002 -0.279558,0.0358 -0.545502,0.09458 -0.265185,0.05854 -0.48196,0.176971 -0.48196,0.263021 0,0.08624 0.273999,0.156708 0.609044,0.156708 0.338453,0 0.609043,-0.116967 0.609043,-0.263021 0,-0.1799 -0.02038,-0.254447 -0.190625,-0.251286 z m -9.144048,0.04004 c -0.311696,0.0076 -0.70194,0.267335 -0.712149,0.517759 -0.0026,0.07226 0.269163,0.131165 0.604248,0.131165 0.650264,0 0.833358,-0.424922 0.269753,-0.625452 -0.04935,-0.01756 -0.10413,-0.02487 -0.161852,-0.02347 z m 4.131426,0.03935 c -0.202313,0.0055 -0.433821,0.08689 -0.517927,0.231956 -0.08541,0.147617 0.05404,0.213778 0.371661,0.176038 0.279565,-0.03333 0.497651,-0.139708 0.491551,-0.236098 -0.01119,-0.122055 -0.166773,-0.176738 -0.345285,-0.171896 z m -7.71735,0.08906 c -0.513347,0.0021 -0.786482,0.09143 -0.786482,0.257498 9.38e-4,0.331986 0.331458,0.333843 1.08381,0.0062 0.566488,-0.246562 0.555394,-0.257911 -0.246974,-0.263711 -0.01706,-1.14e-4 -0.03379,-6.9e-5 -0.05035,0 z m 1.734815,0.01864 c -0.03828,8.9e-5 -0.08273,0.0044 -0.13188,0.01381 -0.225413,0.04322 -0.457449,0.21951 -0.515529,0.391425 -0.06734,0.199989 0.04364,0.284317 0.305721,0.234027 0.225435,-0.04323 0.45624,-0.21951 0.51433,-0.391425 0.0547,-0.162482 -0.0068,-0.248222 -0.172642,-0.247834 z" />
      <path
         style="fill:#666666;fill-opacity:1;stroke-width:0.231128"
         d="m 99.13754,56.954331 c 0,-0.09639 0.274173,-0.175376 0.609239,-0.175376 0.335081,0 0.609231,0.07885 0.609231,0.175376 0,0.09639 -0.27415,0.175364 -0.609231,0.175364 -0.335066,0 -0.609239,-0.07885 -0.609239,-0.175364 z"
         id="path11884" />
      <path
         style="fill:#666666;fill-opacity:1;stroke-width:0.231128"
         d="m 96.700679,56.954331 c 0,-0.09639 0.205613,-0.175376 0.456906,-0.175376 0.251284,0 0.456931,0.07885 0.456931,0.175376 0,0.09639 -0.205603,0.175364 -0.456931,0.175364 -0.251293,0 -0.456906,-0.07885 -0.456906,-0.175364 z"
         id="path11882" />
      <path
         style="fill:#666666;fill-opacity:1;stroke-width:0.231128"
         d="m 94.873014,56.954331 c 0,-0.09639 0.136939,-0.175376 0.304607,-0.175376 0.167389,0 0.304615,0.07885 0.304615,0.175376 0,0.09639 -0.136939,0.175364 -0.304615,0.175364 -0.16739,0 -0.304607,-0.07885 -0.304607,-0.175364 z"
         id="path11880" />
      <path
         style="fill:#666666;fill-opacity:1;stroke-width:0.231128"
         d="m 103.7067,57.151167 c 0,-0.08454 0.18756,-0.243438 0.4165,-0.3529 0.31467,-0.150304 0.50024,-0.140886 0.75889,0.03855 0.18836,0.130539 0.25233,0.289436 0.14198,0.352912 -0.2956,0.170197 -1.31734,0.140294 -1.31734,-0.03855 z"
         id="path11874" />
      <path
         style="fill:#666666;fill-opacity:1;stroke-width:0.231128"
         d="m 101.57444,57.042008 c 0,-0.146206 0.27076,-0.263053 0.60924,-0.263053 0.33841,0 0.6092,0.116917 0.6092,0.263053 0,0.146054 -0.27079,0.263064 -0.6092,0.263064 -0.33848,0 -0.60924,-0.116906 -0.60924,-0.263064 z"
         id="path11872" />
      <path
         style="fill:#666666;fill-opacity:1;stroke-width:0.231128"
         d="m 105.29955,57.796729 c 0.18837,-0.325181 0.84404,-0.379122 0.84404,-0.06945 0,0.152719 -0.2171,0.277672 -0.48233,0.277672 -0.26524,0 -0.42803,-0.09372 -0.36171,-0.208251 z"
         id="path11862" />
      <path
         style="fill:#666666;fill-opacity:1;stroke-width:0.231128"
         d="m 103.16394,57.803729 c 0.15832,-0.273051 0.83959,-0.320884 0.86348,-0.0605 0.006,0.09639 -0.2124,0.202644 -0.49201,0.235983 -0.31761,0.03786 -0.45687,-0.02776 -0.37147,-0.175387 z"
         id="path11860" />
      <path
         style="fill:#666666;fill-opacity:1;stroke-width:0.231128"
         d="m 98.739668,57.894079 c -0.284257,-0.163671 0.05928,-0.413985 0.568165,-0.413985 0.241531,0 0.438946,0.118404 0.438946,0.263065 0,0.264144 -0.64302,0.360519 -1.007111,0.15092 z"
         id="path11858" />
      <path
         style="fill:#666666;fill-opacity:1;stroke-width:0.231128"
         d="m 101.07035,57.911729 c -0.099,-0.148782 -0.10427,-0.314566 -0.0121,-0.36831 0.26676,-0.153567 0.81941,0.106953 0.81941,0.386229 0,0.336527 -0.58105,0.323648 -0.8087,-0.01788 z"
         id="path11856" />
      <path
         style="fill:#666666;fill-opacity:1;stroke-width:0.231128"
         d="m 96.700679,57.919929 c 0,-0.144696 0.205613,-0.263065 0.456906,-0.263065 0.251284,0 0.456931,0.118404 0.456931,0.263065 0,0.144695 -0.205603,0.263064 -0.456931,0.263064 -0.251293,0 -0.456906,-0.118405 -0.456906,-0.263064 z"
         id="path11854" />
      <path
         style="fill:#666666;fill-opacity:1;stroke-width:0.231128"
         d="m 95.038344,58.019679 c -0.207951,-0.193841 0.272425,-0.403125 0.553744,-0.241185 0.289567,0.166736 0.235698,0.404438 -0.09176,0.404438 -0.157715,0 -0.365518,-0.07351 -0.461878,-0.163253 z"
         id="path11852" />
      <path
         style="fill:#666666;fill-opacity:1;stroke-width:0.231128"
         d="m 93.045361,58.095509 c 0,-0.144696 0.205609,-0.263076 0.45692,-0.263076 0.251284,0 0.456914,0.118404 0.456914,0.263076 0,0.144695 -0.20563,0.263052 -0.456914,0.263052 -0.251293,0 -0.45692,-0.118403 -0.45692,-0.263052 z"
         id="path11850" />
      <path
         style="fill:#666666;fill-opacity:1;stroke-width:0.231128"
         d="m 106.14359,59.078855 c 0,-0.08605 0.21662,-0.204524 0.48182,-0.263064 0.68083,-0.150467 0.73661,-0.138621 0.73661,0.15661 0,0.146065 -0.27077,0.263064 -0.60922,0.263064 -0.33507,0 -0.60921,-0.07038 -0.60921,-0.15661 z"
         id="path11832" />
      <path
         style="fill:#666666;fill-opacity:1;stroke-width:0.231128"
         d="m 104.52725,59.123335 c -0.28425,-0.163659 0.0593,-0.413973 0.56815,-0.413973 0.24155,0 0.43895,0.118404 0.43895,0.263065 0,0.264156 -0.64301,0.360506 -1.0071,0.150919 z"
         id="path11830" />
      <path
         style="fill:#666666;fill-opacity:1;stroke-width:0.231128"
         d="m 102.18368,58.972414 c 0,-0.144695 0.20561,-0.263064 0.45689,-0.263064 0.25128,0 0.4569,0.118405 0.4569,0.263064 0,0.144684 -0.20562,0.263042 -0.4569,0.263042 -0.25128,0 -0.45689,-0.118392 -0.45689,-0.263042 z"
         id="path11828" />
      <path
         style="fill:#666666;fill-opacity:1;stroke-width:0.231128"
         d="m 97.005294,58.960344 c 0,-0.163334 0.207264,-0.252775 0.50782,-0.219214 0.764189,0.08535 0.869103,0.495134 0.126855,0.495134 -0.374167,0 -0.634614,-0.113225 -0.634614,-0.27592 z"
         id="path11826" />
      <path
         style="fill:#666666;fill-opacity:1;stroke-width:0.231128"
         d="m 94.634734,59.033854 c 0.07519,-0.129865 0.380782,-0.263227 0.679365,-0.296555 0.347245,-0.03867 0.493745,0.02438 0.406434,0.175375 -0.07519,0.129867 -0.380782,0.263228 -0.679364,0.296568 -0.347262,0.03867 -0.493746,-0.02438 -0.406435,-0.175388 z"
         id="path11824" />
      <path
         style="fill:#666666;fill-opacity:1;stroke-width:0.231128"
         d="m 108.60306,59.244195 c -0.48084,-0.171091 -0.17365,-0.534141 0.45229,-0.534141 0.46301,0 0.61013,0.444491 0.19583,0.591869 -0.13371,0.0475 -0.42538,0.0216 -0.64823,-0.05771 z"
         id="path11822" />
      <path
         style="fill:#666666;fill-opacity:1;stroke-width:0.231128"
         d="m 100.20675,59.240695 c -0.224591,-0.209274 0.0605,-0.528974 0.47183,-0.528974 0.37067,0 0.37307,0.474672 0.002,0.606327 -0.15589,0.05551 -0.36967,0.02067 -0.47492,-0.07723 z"
         id="path11820" />
      <path
         id="path6270"
         style="fill:#666666;fill-opacity:1;stroke-width:0.231128"
         d="m 74.694593,60.538522 c -0.308464,-0.177583 0.104266,-0.6003 0.586031,-0.6003 0.253104,0 0.403998,0.126626 0.348174,0.292364 -0.10588,0.313847 -0.626064,0.485367 -0.934205,0.307947 z m -3.276534,-0.354155 c 0,-0.301468 0.695077,-0.535767 0.841152,-0.283527 0.07059,0.121633 0.463996,0.159444 1.007958,0.09685 0.676664,-0.07792 0.892397,-0.03762 0.892397,0.166377 0,0.203815 -0.332605,0.266222 -1.370733,0.257199 -0.901332,-0.0082 -1.370774,-0.08895 -1.370774,-0.236877 z m 4.873749,0.03019 c 0,-0.162683 0.260526,-0.275919 0.634616,-0.275919 0.74235,0 0.637437,0.409814 -0.126654,0.495134 -0.300578,0.03356 -0.50784,-0.05586 -0.50784,-0.219215 z m 2.132304,-0.188254 c 0,-0.180602 0.199458,-0.266629 0.53305,-0.229666 0.642057,0.07118 0.601601,0.382444 -0.0601,0.461759 -0.275973,0.03298 -0.473011,-0.06364 -0.473011,-0.232093 z m 2.030719,0.146216 c -0.38619,-0.222338 -0.200668,-0.409187 0.406155,-0.409187 0.338454,0 0.609225,0.116917 0.609225,0.26304 0,0.266989 -0.644377,0.359741 -1.01538,0.146206 z m 1.983023,-0.155413 c 0.137744,-0.380923 0.678357,-0.40423 0.802006,-0.03461 0.06433,0.19196 -0.08531,0.306891 -0.398917,0.306891 -0.292672,0 -0.460567,-0.113457 -0.403089,-0.272319 z m 1.634545,0.108927 c -0.0964,-0.08965 -0.0359,-0.212827 0.134115,-0.273411 0.363482,-0.12932 0.918777,0.03484 0.918777,0.271646 0,0.213385 -0.824453,0.214766 -1.053114,0.0011 z m 1.74561,-0.06677 c 0.06675,-0.114618 0.339884,-0.209367 0.606844,-0.210598 0.266898,-0.0011 0.586393,-0.06039 0.70988,-0.13148 0.427312,-0.246006 1.036858,-0.127973 1.036858,0.200773 0,0.267419 -0.234933,0.33194 -1.237546,0.339906 -0.82655,0.007 -1.197171,-0.05934 -1.116036,-0.198543 z M 75.682605,59.412558 c 0,-0.38825 0.228822,-0.431507 0.913856,-0.172682 0.406136,0.153498 0.406136,0.191867 0,0.345364 -0.684872,0.258849 -0.913856,0.21558 -0.913856,-0.172682 z m -2.132243,-0.08706 c 0,-0.144683 0.205609,-0.263064 0.456898,-0.263064 0.251269,0 0.456897,0.118404 0.456897,0.263064 0,0.144696 -0.205628,0.263065 -0.456897,0.263065 -0.251289,0 -0.456898,-0.118404 -0.456898,-0.263065 z m 4.931551,-0.02078 c 0.271112,-0.156087 0.643165,-0.230351 0.826791,-0.16503 0.604848,0.21522 0.348275,0.448834 -0.492977,0.448834 -0.761792,0 -0.78803,-0.02241 -0.333814,-0.283804 z m 2.379073,-0.0468 c 0,-0.252205 0.140569,-0.328827 0.469785,-0.256073 0.519882,0.11485 0.45595,0.438266 -0.1083,0.546509 -0.200869,0.03855 -0.361726,-0.09058 -0.361726,-0.290436 z m 2.950908,0.217368 c -0.397242,-0.228713 -0.207505,-0.412869 0.425174,-0.412869 0.354487,0 0.581372,0.09197 0.514053,0.208252 -0.148434,0.256283 -0.657001,0.36708 -0.939227,0.204617 z m -8.067556,-0.91537 c -0.314514,-0.114735 -0.296323,-0.191542 0.08934,-0.375697 0.547309,-0.261531 1.286654,0.0035 0.931724,0.334761 -0.242859,0.226206 -0.486765,0.235995 -1.020825,0.041 z m 2.39775,-0.01765 c -0.480857,-0.17108 -0.173442,-0.534153 0.452279,-0.534153 0.463029,0 0.610172,0.444502 0.196029,0.591892 -0.133711,0.0475 -0.425335,0.0216 -0.648227,-0.05771 z m 5.060562,0.05411 c -0.397241,-0.228691 -0.207484,-0.412846 0.425175,-0.412846 0.354506,0 0.581392,0.09186 0.514052,0.208251 -0.148434,0.256283 -0.657001,0.367081 -0.939227,0.204595 z m -2.950887,-0.30638 c 0,-0.264539 0.73993,-0.498862 1.036354,-0.328201 0.401134,0.230943 0.146417,0.572487 -0.427131,0.572487 -0.335084,0 -0.609223,-0.109857 -0.609223,-0.244286 z m -3.179649,-0.941162 c -0.096,-0.168792 -0.730209,-0.650792 -1.409273,-1.071081 -0.679085,-0.420324 -1.143646,-0.814904 -1.032381,-0.876869 0.204439,-0.11369 2.669911,1.379876 3.215647,1.94795 0.220836,0.229991 0.18272,0.306902 -0.152466,0.306902 -0.246006,0 -0.52567,-0.138169 -0.621708,-0.306902 z m 0.339522,-1.101197 c -0.97222,-0.996596 -0.972765,-1.614686 -6.05e-4,-0.666016 0.345976,0.337584 0.868277,0.82402 1.160708,1.080952 0.412044,0.362075 0.438121,0.467078 0.115762,0.46695 -0.228579,-9.3e-5 -0.802833,-0.396948 -1.275925,-0.881886 z m 2.712627,0.224197 c 0.08894,-0.265248 0.188567,-0.909908 0.220836,-1.432587 0.03953,-0.6358 0.200466,-0.977309 0.485959,-1.031877 0.332806,-0.06364 0.383205,0.04447 0.22858,0.489978 -0.109107,0.314323 -0.198652,0.995691 -0.198652,1.514144 0,0.713872 -0.109106,0.942632 -0.449313,0.942632 -0.326293,0 -0.404967,-0.132025 -0.28741,-0.48229 z m 1.458544,0.08779 c 0.100838,-0.217031 0.185744,-0.493241 0.18776,-0.613816 0.002,-0.120552 0.141173,-0.219214 0.308746,-0.219214 0.338857,0 0.404704,0.522644 0.119594,0.950214 -0.286542,0.429906 -0.823444,0.327806 -0.616302,-0.117184 z m 1.415102,-0.08769 c 0.004,-0.382328 0.508102,-0.859322 0.755116,-0.717112 0.258408,0.148795 -0.158921,1.024014 -0.488198,1.024014 -0.149442,0 -0.26948,-0.138168 -0.266918,-0.306902 z m 1.213768,0.07746 c 0,-0.31286 0.818645,-0.935978 1.05263,-0.801259 0.238099,0.137101 -0.452825,1.030785 -0.796924,1.030785 -0.140569,0 -0.255746,-0.103237 -0.255746,-0.229526 z" />
      <path
         id="path6270-9"
         style="font-size:32px;line-height:1.25;fill:#666666;fill-opacity:1;stroke-width:0.231128"
         d="m 92.009801,32.967478 c -0.308464,-0.177583 0.104266,-0.6003 0.586031,-0.6003 0.253104,0 0.403998,0.126626 0.348174,0.292364 -0.10588,0.313847 -0.626064,0.485367 -0.934205,0.307947 z m -3.276534,-0.354155 c 0,-0.301468 0.695077,-0.535767 0.841152,-0.283527 0.07059,0.121633 0.463996,0.159444 1.007958,0.09685 0.676664,-0.07792 0.892397,-0.03762 0.892397,0.166377 0,0.203815 -0.332605,0.266222 -1.370733,0.257199 -0.901332,-0.0082 -1.370774,-0.08895 -1.370774,-0.236877 z m 4.873749,0.03019 c 0,-0.162683 0.260526,-0.275919 0.634616,-0.275919 0.74235,0 0.637437,0.409814 -0.126654,0.495134 -0.300578,0.03356 -0.50784,-0.05586 -0.50784,-0.219215 z m 2.132304,-0.188254 c 0,-0.180602 0.199458,-0.266629 0.53305,-0.229666 0.642057,0.07118 0.601601,0.382444 -0.0601,0.461759 -0.275973,0.03298 -0.473011,-0.06364 -0.473011,-0.232093 z m 2.030719,0.146216 c -0.38619,-0.222338 -0.200668,-0.409187 0.406155,-0.409187 0.338454,0 0.609225,0.116917 0.609225,0.26304 0,0.266989 -0.644377,0.359741 -1.01538,0.146206 z m 1.983023,-0.155413 c 0.137744,-0.380923 0.678358,-0.40423 0.802008,-0.03461 0.0643,0.19196 -0.0853,0.306891 -0.39892,0.306891 -0.292671,0 -0.460566,-0.113457 -0.403088,-0.272319 z m 1.634548,0.108927 c -0.0964,-0.08965 -0.0359,-0.212827 0.13411,-0.273411 0.36348,-0.12932 0.91878,0.03484 0.91878,0.271646 0,0.213385 -0.82445,0.214766 -1.05312,0.0011 z m 1.74561,-0.06677 c 0.0667,-0.114618 0.33988,-0.209367 0.60684,-0.210598 0.2669,-0.0011 0.58639,-0.06039 0.70988,-0.13148 0.42731,-0.246006 1.03686,-0.127973 1.03686,0.200773 0,0.267419 -0.23493,0.33194 -1.23755,0.339906 -0.82655,0.007 -1.19717,-0.05934 -1.11603,-0.198543 z M 92.997813,31.841514 c 0,-0.38825 0.228822,-0.431507 0.913856,-0.172682 0.406136,0.153498 0.406136,0.191867 0,0.345364 -0.684872,0.258849 -0.913856,0.21558 -0.913856,-0.172682 z m -2.132243,-0.08706 c 0,-0.144683 0.205609,-0.263064 0.456898,-0.263064 0.251269,0 0.456897,0.118404 0.456897,0.263064 0,0.144696 -0.205628,0.263065 -0.456897,0.263065 -0.251289,0 -0.456898,-0.118404 -0.456898,-0.263065 z m 4.931551,-0.02078 c 0.271112,-0.156087 0.643165,-0.230351 0.826791,-0.16503 0.604848,0.21522 0.348275,0.448834 -0.492977,0.448834 -0.761792,0 -0.78803,-0.02241 -0.333814,-0.283804 z m 2.379073,-0.0468 c 0,-0.252205 0.140569,-0.328827 0.469785,-0.256073 0.519882,0.11485 0.45595,0.438266 -0.1083,0.546509 -0.200869,0.03855 -0.361726,-0.09058 -0.361726,-0.290436 z m 2.950906,0.217368 c -0.39724,-0.228713 -0.2075,-0.412869 0.42518,-0.412869 0.35448,0 0.58137,0.09197 0.51405,0.208252 -0.14844,0.256283 -0.657,0.36708 -0.93923,0.204617 z m -8.067554,-0.91537 c -0.314514,-0.114735 -0.296323,-0.191542 0.08934,-0.375697 0.547309,-0.261531 1.286654,0.0035 0.931724,0.334761 -0.242859,0.226206 -0.486765,0.235995 -1.020825,0.041 z m 2.39775,-0.01765 c -0.480857,-0.17108 -0.173442,-0.534153 0.452279,-0.534153 0.463029,0 0.610172,0.444502 0.196029,0.591892 -0.133711,0.0475 -0.425335,0.0216 -0.648227,-0.05771 z m 5.060564,0.05411 c -0.39724,-0.228691 -0.20749,-0.412846 0.42517,-0.412846 0.35451,0 0.58139,0.09186 0.51405,0.208251 -0.14843,0.256283 -0.657,0.367081 -0.93922,0.204595 z m -2.950889,-0.30638 c 0,-0.264539 0.73993,-0.498862 1.036354,-0.328201 0.401134,0.230943 0.146417,0.572487 -0.427131,0.572487 -0.335084,0 -0.609223,-0.109857 -0.609223,-0.244286 z M 94.387322,29.77779 c -0.096,-0.168792 -0.730209,-0.650792 -1.409273,-1.071081 -0.679085,-0.420324 -1.143646,-0.814904 -1.032381,-0.876869 0.204439,-0.11369 2.669911,1.379876 3.215647,1.94795 0.220836,0.229991 0.18272,0.306902 -0.152466,0.306902 -0.246006,0 -0.52567,-0.138169 -0.621708,-0.306902 z m 0.339522,-1.101197 c -0.97222,-0.996596 -0.972765,-1.614686 -6.05e-4,-0.666016 0.345976,0.337584 0.868277,0.82402 1.160708,1.080952 0.412044,0.362075 0.438121,0.467078 0.115762,0.46695 -0.228579,-9.3e-5 -0.802833,-0.396948 -1.275925,-0.881886 z m 2.712627,0.224197 c 0.08894,-0.265248 0.188567,-0.909908 0.220836,-1.432587 0.03953,-0.6358 0.200466,-0.977309 0.485959,-1.031877 0.332806,-0.06364 0.383205,0.04447 0.22858,0.489978 -0.109107,0.314323 -0.198652,0.995691 -0.198652,1.514144 0,0.713872 -0.109106,0.942632 -0.449313,0.942632 -0.326293,0 -0.404967,-0.132025 -0.28741,-0.48229 z m 1.458544,0.08779 c 0.100838,-0.217031 0.185744,-0.493241 0.18776,-0.613816 0.002,-0.120552 0.141173,-0.219214 0.308746,-0.219214 0.338857,0 0.404704,0.522644 0.119594,0.950214 -0.286542,0.429906 -0.823444,0.327806 -0.616302,-0.117184 z m 1.415105,-0.08769 c 0.004,-0.382328 0.5081,-0.859322 0.75511,-0.717112 0.25841,0.148795 -0.15892,1.024014 -0.4882,1.024014 -0.14944,0 -0.26948,-0.138168 -0.26691,-0.306902 z m 1.21376,0.07746 c 0,-0.31286 0.81865,-0.935978 1.05263,-0.801259 0.2381,0.137101 -0.45282,1.030785 -0.79692,1.030785 -0.14057,0 -0.25575,-0.103237 -0.25575,-0.229526 z" />
      <path
         id="path12054-1"
         style="font-size:32px;line-height:1.25;fill:#666666;fill-opacity:1;stroke-width:0.231128"
         d="m 91.915715,54.361741 c -0.164064,0.0072 -0.29613,0.241209 -0.29613,0.526043 0,0.289379 0.137131,0.526043 0.304522,0.526043 0.167693,0 0.304522,-0.236664 0.304522,-0.526043 0,-0.289355 -0.137131,-0.526043 -0.304522,-0.526043 -0.0026,0 -0.0058,-1.15e-4 -0.0084,0 z m -0.921958,0.175348 c -0.160473,0.0071 -0.288936,0.122859 -0.288936,0.263021 0,0.144671 0.137131,0.263021 0.304522,0.263021 0.167673,0 0.30572,-0.118326 0.30572,-0.263021 0,-0.14465 -0.138329,-0.263021 -0.30572,-0.263021 -0.0052,0 -0.01041,-2.28e-4 -0.01559,0 z m -1.080214,0.22022 c -0.08584,0.0021 -0.122288,0.0803 -0.122288,0.24162 0,0.196139 0.103145,0.416525 0.228991,0.489455 0.125705,0.07297 0.275616,-0.0014 0.333296,-0.164993 0.0577,-0.163588 -0.04587,-0.383204 -0.228991,-0.488764 -0.09046,-0.05207 -0.159506,-0.07859 -0.211008,-0.07732 z" />
    </g>
  </g>
</svg>
