<?xml version="1.0" encoding="UTF-8" standalone="no"?>
<svg
   version="1.1"
   width="100"
   height="100"
   id="svg4460"
   sodipodi:docname="marais-salant.svg"
   inkscape:version="1.2.2 (732a01da63, 2022-12-09)"
   xmlns:inkscape="http://www.inkscape.org/namespaces/inkscape"
   xmlns:sodipodi="http://sodipodi.sourceforge.net/DTD/sodipodi-0.dtd"
   xmlns="http://www.w3.org/2000/svg"
   xmlns:svg="http://www.w3.org/2000/svg"
   xmlns:rdf="http://www.w3.org/1999/02/22-rdf-syntax-ns#"
   xmlns:cc="http://creativecommons.org/ns#"
   xmlns:dc="http://purl.org/dc/elements/1.1/">
  <sodipodi:namedview
     pagecolor="#ffffff"
     bordercolor="#666666"
     borderopacity="1"
     objecttolerance="10"
     gridtolerance="10"
     guidetolerance="10"
     inkscape:pageopacity="0"
     inkscape:pageshadow="2"
     inkscape:window-width="1920"
     inkscape:window-height="1009"
     id="namedview11"
     showgrid="true"
     inkscape:zoom="4.7376154"
     inkscape:cx="36.727337"
     inkscape:cy="57.201772"
     inkscape:window-x="-8"
     inkscape:window-y="-8"
     inkscape:window-maximized="1"
     inkscape:current-layer="text5282"
     inkscape:document-rotation="0"
     inkscape:pagecheckerboard="0"
     showguides="true"
     inkscape:guide-bbox="true"
     inkscape:showpageshadow="0"
     inkscape:deskcolor="#d1d1d1">
    <inkscape:grid
       type="xygrid"
       id="grid823"
       originx="0"
       originy="0" />
    <sodipodi:guide
       position="0,86"
       orientation="66,0"
       id="guide957"
       inkscape:locked="false" />
    <sodipodi:guide
       position="0,20"
       orientation="0,50"
       id="guide959"
       inkscape:locked="false" />
    <sodipodi:guide
       position="8.9999971,64.32985"
       orientation="8.5387222,0"
       id="guide1517"
       inkscape:locked="false" />
    <sodipodi:guide
       position="8.9999971,55.791128"
       orientation="0,26.227758"
       id="guide1519"
       inkscape:locked="false" />
    <sodipodi:guide
       position="95,90"
       orientation="-8.5387222,0"
       id="guide1521"
       inkscape:locked="false" />
    <sodipodi:guide
       position="70,70"
       orientation="0,-26.227758"
       id="guide1523"
       inkscape:locked="false" />
    <sodipodi:guide
       position="7.9247812,20.000001"
       orientation="0,-6.8495616"
       id="guide4054"
       inkscape:locked="false" />
    <sodipodi:guide
       position="85,75"
       orientation="0,6.8495616"
       id="guide4058"
       inkscape:locked="false" />
  </sodipodi:namedview>
  <defs
     id="defs4462" />
  <metadata
     id="metadata4465">
    <rdf:RDF>
      <cc:Work
         rdf:about="">
        <dc:format>image/svg+xml</dc:format>
        <dc:type
           rdf:resource="http://purl.org/dc/dcmitype/StillImage" />
      </cc:Work>
    </rdf:RDF>
  </metadata>
  <g
     aria-label="C"
     id="text3215"
     style="font-size:32px;line-height:1.25"
     transform="translate(-37.75,-4)">
    <g
       aria-label="A"
       id="text5282"
       transform="matrix(1.6290909,0,0,2.8292029,-41.002727,-68.776958)">
      <g
         id="g11728"
         transform="translate(2.1715939,0.47325197)">
        <path
           id="path11680"
           style="fill:#666666;fill-opacity:1;stroke-width:0.289417"
           d="m 67.916797,31.536416 c -0.106399,-0.171813 -0.143898,-1.327022 -0.08354,-2.567142 l 0.110051,-2.254796 2.206564,-0.02895 c 1.213638,-0.01568 4.401815,-0.09547 7.084876,-0.176895 5.803608,-0.175884 5.528659,-0.329509 5.461774,3.052746 l -0.04261,2.163747 -7.271814,0.06168 c -5.890014,0.05007 -7.308599,0.0015 -7.465353,-0.250586 z m 13.740451,-0.108133 c 0.344679,-0.142976 0.44519,-0.783019 0.367789,-2.341427 l -0.106651,-2.144682 -5.876769,0.07149 c -3.232204,0.03921 -5.94504,0.113717 -6.028507,0.165327 -0.08354,0.05158 0.05772,0.250223 0.313246,0.441145 0.378064,0.282105 0.370612,0.354966 -0.03967,0.388915 -0.277647,0.02308 0.819244,0.106636 2.437382,0.185944 l 2.94211,0.144182 -2.94211,0.08717 -2.942079,0.08716 4.229214,0.136793 4.229276,0.136791 -4.115594,0.0454 c -2.263584,0.02504 -4.21791,0.147801 -4.342896,0.273192 -0.134651,0.134832 0.344165,0.240948 1.173515,0.260071 l 1.400807,0.03243 -1.471061,0.153955 c -1.885394,0.197377 -1.084202,0.428158 1.838818,0.52966 l 2.206564,0.07677 -2.482385,0.04313 c -3.023037,0.05248 -3.314474,0.481638 -0.367757,0.541635 l 2.114617,0.04313 -2.114617,0.08235 c -1.326837,0.05173 -2.114187,0.183969 -2.113431,0.35551 0,0.328392 10.930191,0.519328 11.689791,0.204239 z m -8.289194,-2.029986 c 0.556249,-0.05218 1.466453,-0.05218 2.02267,0 0.556207,0.05218 0.101277,0.09487 -1.011324,0.09487 -1.112497,0 -1.567594,-0.04268 -1.011346,-0.09487 z m 0.942341,-1.814557 c 0.265503,-0.06591 0.582717,-0.05776 0.704921,0.01764 0.122236,0.07571 -0.09519,0.129554 -0.48271,0.119599 -0.428439,-0.01207 -0.515538,-0.06484 -0.222306,-0.137696 z" />
        <path
           id="path11668"
           style="fill:#666666;fill-opacity:1;stroke-width:0.289417"
           d="m 52.878904,32.121485 c -2.64702,-0.04737 -4.129332,-0.166713 -4.315566,-0.348419 -0.156083,-0.152026 -0.2862,-1.215823 -0.289391,-2.363868 l -0.0052,-2.087343 2.666258,-0.148102 c 1.466453,-0.08145 4.569442,-0.115829 6.895524,-0.07632 l 4.229266,0.07165 0.105664,2.244011 c 0.06381,1.356733 -0.04964,2.360037 -0.287428,2.537505 -0.403,0.300702 -1.04091,0.312843 -8.998628,0.170937 z m 8.628835,-2.560896 v -2.277614 l -1.379113,0.001 c -0.758509,4.53e-4 -3.229108,0.06711 -5.490278,0.147651 l -4.111144,0.146746 0.02844,0.649425 c 0.02844,0.610964 0.129772,0.651836 1.720696,0.690476 l 1.690901,0.04103 -1.74685,0.08552 c -1.762875,0.08612 -2.451949,0.492904 -0.919409,0.542825 0.660706,0.02157 0.605061,0.06003 -0.275673,0.192053 -1.162002,0.173728 -0.851286,0.354951 0.919408,0.536053 0.604285,0.06168 0.421503,0.104667 -0.533264,0.125029 -1.463189,0.03122 -1.473296,0.335165 -0.01952,0.55189 0.555934,0.0828 0.488535,0.115979 -0.275673,0.136038 -0.556249,0.01357 -1.011356,0.124878 -1.011356,0.24496 0,0.203153 2.075859,0.302585 8.734321,0.418355 l 2.66631,0.04646 z m -4.137308,0.532435 c 0.252763,-0.06305 0.666573,-0.06305 0.919409,0 0.252763,0.06304 0.04576,0.114923 -0.459684,0.114923 -0.505704,0 -0.712572,-0.05173 -0.459725,-0.114923 z m 1.861802,-0.003 c 0.265493,-0.06591 0.582643,-0.05777 0.704869,0.01764 0.122236,0.07571 -0.09467,0.129554 -0.482668,0.119599 -0.428481,-0.01207 -0.515559,-0.06484 -0.222306,-0.137698 z m -4.780886,-0.683283 c 0.265504,-0.06591 0.582643,-0.05776 0.704848,0.01764 0.122236,0.07571 -0.09519,0.129554 -0.482657,0.119599 -0.42845,-0.01207 -0.51557,-0.06484 -0.222306,-0.137697 z M 52.037925,28.26037 c 0.556196,-0.05218 1.466432,-0.05218 2.022628,0 0.556249,0.05218 0.101277,0.09487 -1.011324,0.09487 -1.112445,0 -1.567552,-0.04268 -1.011304,-0.09487 z" />
        <path
           id="path11660"
           style="fill:#666666;fill-opacity:1;stroke-width:0.289417"
           d="m 95.10663,32.351137 c -7.352773,-0.07933 -6.73918,0.208206 -6.747292,-3.161259 -0.0021,-1.392235 0.146826,-2.154667 0.454698,-2.308277 0.258965,-0.129401 3.709624,-0.271819 7.906817,-0.326581 l 7.447197,-0.09713 0.002,1.152766 c 0,0.63404 0.10859,1.998343 0.23838,3.031811 l 0.23618,1.879018 -1.61747,-0.05128 c -0.8896,-0.0282 -4.45392,-0.08174 -7.920684,-0.119146 z m 8.69363,-1.830695 c 0,-0.868758 -0.10762,-2.065245 -0.23862,-2.658822 l -0.23886,-1.079257 -4.81784,0.126688 c -2.649835,0.06954 -5.306091,0.131061 -5.902777,0.13649 -1.161414,0.01065 -0.937943,0.349508 0.349381,0.529901 0.404552,0.05671 0.280469,0.08295 -0.275674,0.05867 -0.556248,-0.02458 -1.011356,0.04041 -1.011356,0.144031 0,0.103462 1.282601,0.189895 2.850121,0.191856 1.567604,0.0015 3.098403,0.10301 3.401797,0.224297 0.378468,0.151482 -0.503997,0.221852 -2.810778,0.224266 -2.645888,0.0015 -3.407556,0.07632 -3.574102,0.345134 -0.176537,0.284458 0.294155,0.349386 2.810796,0.38801 l 3.022482,0.04646 -3.034047,0.07677 c -1.668725,0.04222 -3.034005,0.175131 -3.034005,0.295303 0,0.120354 0.455097,0.228776 1.011324,0.241249 l 1.011325,0.02277 -0.909176,0.156928 c -0.651649,0.112354 -0.909607,0.315707 -0.910551,0.717517 0,0.541544 0.10474,0.564998 3.115761,0.68903 l 3.117105,0.128347 -3.309847,0.07827 c -2.868791,0.06771 -3.064829,0.09607 -1.471029,0.213243 1.011346,0.0745 3.866074,0.168312 6.34386,0.209018 l 4.50507,0.0739 v -1.579582 z m -5.14864,1.001044 c 0,-0.04886 0.57923,-0.131062 1.28717,-0.182009 0.70792,-0.05128 1.28715,-0.01207 1.28715,0.08898 0,0.100139 -0.57923,0.182024 -1.28715,0.182024 -0.70794,0 -1.28717,-0.04012 -1.28717,-0.08898 z M 94.703221,29.85268 c 0.55904,-0.05248 1.386491,-0.05098 1.838786,0.003 0.452379,0.054 -0.0052,0.09683 -1.016383,0.09532 -1.011356,-0.0015 -1.381433,-0.04585 -0.822403,-0.09819 z" />
        <path
           id="path11646"
           style="fill:#666666;fill-opacity:1;stroke-width:0.289417"
           d="m 90.11727,40.45998 c -0.2279,-0.08522 -0.287113,-0.40359 -0.141463,-0.762869 0.137328,-0.339055 0.252763,-1.425853 0.256174,-2.415115 0.0052,-2.108005 -0.456031,-1.93369 5.661547,-2.129225 2.224944,-0.07118 5.121062,-0.191871 6.435822,-0.268276 l 2.39044,-0.139055 -0.0436,2.702666 c -0.0253,1.486453 -0.0653,2.834558 -0.0918,2.995767 -0.038,0.230225 -1.55338,0.27909 -7.062071,0.227782 -3.8575,-0.0359 -7.189722,-0.131213 -7.404965,-0.211735 z m 13.8759,-0.479964 c 0.11372,-0.28185 0.15827,-1.48615 0.0989,-2.676212 l -0.1081,-2.163717 -1.10327,0.02518 c -3.35178,0.07677 -10.848987,0.629711 -10.848987,0.800348 0,0.109645 1.365334,0.211251 3.034079,0.22579 1.668661,0.01357 2.744397,0.07345 2.390438,0.130457 -0.353988,0.05731 -0.64361,0.199141 -0.64361,0.315225 0,0.116132 -1.117072,0.193441 -2.482385,0.1718 l -2.482384,-0.03921 2.390448,-0.155342 2.390437,-0.155343 -2.390437,0.02383 c -1.862589,0.01764 -2.390448,0.09908 -2.390448,0.365462 0,0.22365 0.508044,0.389444 1.471039,0.480132 l 1.471071,0.1383 -1.379082,0.03243 c -1.896551,0.04434 -1.745275,0.478502 0.184073,0.527624 l 1.562965,0.03982 -1.654881,0.124576 c -1.431221,0.107682 -1.232287,0.142674 1.471029,0.259407 l 3.125945,0.134832 -3.262905,0.04238 c -2.85433,0.0371 -3.205641,0.08506 -2.80515,0.384073 0.251934,0.18792 0.313561,0.355149 0.136845,0.371618 -0.176537,0.01568 0.25843,0.10542 0.966322,0.197783 l 1.287176,0.167785 -1.440404,0.02986 c -0.792188,0.01583 -1.329094,0.09895 -1.19311,0.183184 0.136111,0.08415 2.439167,0.196003 5.11804,0.248232 2.678896,0.05218 4.939656,0.136943 5.023936,0.188523 0.0843,0.05142 0.53625,0.09351 1.00435,0.09351 0.57619,0 0.91788,-0.165493 1.05784,-0.51245 z M 92.767586,39.147242 c 0,-0.113718 0.330972,-0.152899 0.735525,-0.08748 0.404532,0.06545 0.735504,0.158329 0.735504,0.206454 0,0.04796 -0.330972,0.08748 -0.735504,0.08748 -0.404553,0 -0.735525,-0.09289 -0.735525,-0.20644 z m 3.960015,-0.186336 c 0.661021,-0.05068 1.653959,-0.04976 2.206579,0.0015 0.55265,0.05203 0.0122,0.09349 -1.201803,0.09214 -1.213617,-0.0014 -1.665754,-0.04373 -1.004776,-0.09441 z m 0.912808,-1.130747 c 0.353991,-0.05717 0.933221,-0.05717 1.287181,0 0.35398,0.05747 0.0643,0.104064 -0.64354,0.104064 -0.707965,0 -0.997597,-0.04691 -0.643641,-0.104064 z m 0.18798,-1.142885 c 0.457491,-0.05445 1.119451,-0.05248 1.471071,0.003 0.35161,0.05686 -0.0219,0.101504 -0.83175,0.09893 -0.809092,-0.0015 -1.096793,-0.04902 -0.639321,-0.103613 z m 2.593041,-0.222263 c 0.2655,-0.06591 0.58267,-0.05776 0.70489,0.01764 0.12224,0.07571 -0.095,0.129554 -0.48271,0.1196 -0.42841,-0.01207 -0.51556,-0.06484 -0.2223,-0.137697 z" />
        <path
           id="path11638"
           style="fill:#666666;fill-opacity:1;stroke-width:0.289417"
           d="m 48.883426,40.777273 c -0.337605,-0.351679 -0.67352,-4.334853 -0.374684,-4.443036 0.425176,-0.153941 13.643467,-0.458517 14.000761,-0.3226 0.156806,0.05973 0.233504,1.194904 0.169957,2.522559 l -0.115666,2.413909 h -6.758186 c -3.717065,0 -6.83205,-0.07691 -6.922255,-0.170757 z m 8.303268,-0.281579 4.68896,-0.003 V 38.44281 36.392993 l -1.011346,-0.01583 c -2.984384,-0.04435 -7.792242,0.04857 -8.912044,0.171993 -1.078797,0.119146 -1.165864,0.169173 -0.551672,0.317864 0.685369,0.165855 0.679481,0.177468 -0.09813,0.192444 -0.455128,0.009 -0.827808,0.09276 -0.828228,0.186939 -3.36e-4,0.09381 1.944178,0.159536 4.321203,0.145841 l 4.321958,-0.02504 -4.229287,0.165856 c -4.766203,0.186925 -4.413139,0.150668 -4.413139,0.453481 0,0.131816 1.430004,0.247614 3.401783,0.275018 l 3.401794,0.04737 -3.49373,0.11598 -3.49371,0.115829 3.861498,0.133925 3.861498,0.133778 -3.769561,0.04464 c -3.458593,0.04086 -4.426164,0.221915 -3.362511,0.629019 0.288751,0.110401 0.273145,0.207043 -0.05384,0.332101 -0.787518,0.301456 -0.09152,0.976309 0.846289,0.820634 0.452642,-0.07511 2.933022,-0.138 5.511951,-0.139808 z m 1.19523,-0.914171 c -0.651764,-0.173561 -0.620311,-0.197571 0.275673,-0.211733 0.556249,-0.009 1.011356,0.08657 1.011356,0.211733 0,0.267327 -0.282737,0.267327 -1.287176,0 z m -5.884169,-2.733117 c -0.287805,-0.288274 0.199417,-0.288274 0.919409,0 0.475405,0.190274 0.465718,0.221252 -0.07032,0.224267 -0.342002,0.0015 -0.724158,-0.09893 -0.849165,-0.224267 z" />
        <path
           id="path11632"
           style="fill:#666666;fill-opacity:1;stroke-width:0.289417"
           d="M 73.047084,41.005188 67.853176,40.935362 67.5393,38.834658 c -0.172392,-1.155406 -0.317727,-2.297161 -0.322524,-2.537249 -0.01217,-0.571134 1.852063,-0.988358 2.791486,-0.625007 0.456713,0.176668 2.623092,0.209969 7.110956,0.109498 l 6.454207,-0.144485 v 2.626654 2.626654 l -1.14924,0.142372 c -0.632097,0.07827 -1.831881,0.119599 -2.666259,0.0923 -0.834367,-0.0276 -3.854288,-0.0816 -6.710958,-0.119901 z m 9.711819,-2.593246 c 0.104006,-2.183942 0.100333,-2.19468 -0.832478,-2.339691 -1.289664,-0.200453 -11.960018,0.116281 -11.960018,0.355117 0,0.106183 1.117073,0.211206 2.482406,0.233768 l 2.482385,0.04102 -2.758205,0.145691 c -2.561444,0.135284 -2.627039,0.151316 -0.919409,0.222517 l 1.838786,0.07691 -1.838786,0.156217 -1.838818,0.156219 2.206554,0.07798 2.206585,0.07798 -1.930764,0.08355 c -1.377823,0.05973 -1.930734,0.178057 -1.930734,0.413394 0,0.247976 0.57005,0.34061 2.298501,0.373622 l 2.298522,0.04373 -2.390437,0.120355 c -2.378169,0.119599 -2.371599,0.120956 1.287166,0.253645 l 3.677593,0.133324 -3.585678,0.0442 c -5.362857,0.06606 -4.511184,0.489873 1.103293,0.549145 l 4.688939,0.04962 -4.688939,0.07118 c -3.769037,0.05702 -4.68896,0.134983 -4.68896,0.397151 0,0.340201 2.452947,0.457597 9.561804,0.457597 h 3.125952 z M 74.379567,37.0756 c 0.505652,-0.100299 1.333103,-0.180424 1.838776,-0.178055 0.825835,0.003 0.807112,0.02187 -0.184073,0.178055 -0.606771,0.09562 -1.434264,0.1759 -1.838828,0.178071 -0.576304,0.003 -0.536517,-0.03544 0.184084,-0.178071 z" />
        <path
           id="path11614"
           style="fill:#666666;fill-opacity:1;stroke-width:0.289417"
           d="m 97.364735,49.568273 c -1.618127,-0.111452 -4.140488,-0.174783 -5.605283,-0.140714 -1.884156,0.04404 -2.71506,-0.02201 -2.840549,-0.225729 -0.258704,-0.42015 0.02193,-4.365711 0.325903,-4.552966 0.141473,-0.08763 2.026059,-0.178254 4.188377,-0.20145 2.162348,-0.02322 5.503727,-0.06621 7.425287,-0.09562 l 3.49375,-0.05325 0.18408,2.766901 0.18408,2.766914 -2.20659,-0.03076 c -1.21358,-0.01765 -3.53049,-0.122013 -5.148645,-0.233437 z m 6.435815,-2.58453 v -2.392236 l -5.976139,0.133625 c -6.689236,0.149612 -6.895495,0.169369 -6.895495,0.657795 0,0.274369 0.529727,0.358314 2.482405,0.393409 l 2.482385,0.0445 -2.482385,0.07963 c -3.399211,0.109036 -3.137559,0.504773 0.367737,0.556143 l 2.850142,0.04177 -2.942079,0.144181 -2.94211,0.144183 3.677614,0.08597 3.677617,0.08597 -3.677617,0.139506 -3.677614,0.139659 2.94211,0.08988 2.942079,0.08988 -2.883307,0.07798 c -2.310528,0.0626 -2.843425,0.142373 -2.682326,0.402384 0.110545,0.178463 0.04261,0.384995 -0.150478,0.459017 -0.193571,0.0739 -0.351721,0.219666 -0.351721,0.323595 0,0.18338 6.847069,0.589911 11.124762,0.660374 l 2.11462,0.03484 z m -5.51638,1.253436 c -0.47144,-0.188718 -0.458069,-0.221294 0.0918,-0.224281 0.35396,-0.0015 0.64358,0.09893 0.64358,0.224281 0,0.277778 -0.0411,0.277778 -0.7355,0 z m -1.172271,-1.749915 c 0.265493,-0.06591 0.582685,-0.05777 0.704893,0.01764 0.122236,0.07571 -0.09519,0.129554 -0.482692,0.119599 -0.428439,-0.01207 -0.51558,-0.06484 -0.222306,-0.137697 z m 1.999691,-0.0014 c 0.35399,-0.05716 0.93322,-0.05716 1.28717,0 0.35396,0.05747 0.0643,0.104065 -0.64358,0.104065 -0.70792,0 -0.99755,-0.04691 -0.64359,-0.104065 z m -1.83877,-0.692187 c 0.758459,-0.04902 1.99967,-0.04902 2.75818,0 0.75851,0.04902 0.13781,0.08927 -1.3791,0.08927 -1.517017,0 -2.1376,-0.04027 -1.37908,-0.08927 z M 96.353379,45.34334 c 0.455108,-0.05429 1.199837,-0.05429 1.654948,0 0.455093,0.05429 0.08281,0.09864 -0.827455,0.09864 -0.910225,0 -1.28259,-0.04435 -0.827493,-0.09864 z" />
        <path
           id="path11604"
           style="fill:#666666;fill-opacity:1;stroke-width:0.289417"
           d="m 67.92048,49.578105 c -0.07787,-0.07677 -0.104426,-1.182944 -0.0594,-2.458264 0.07525,-2.113932 0.147309,-2.327114 0.817974,-2.413306 0.404501,-0.05203 3.760956,-0.131363 7.458658,-0.176473 l 6.723132,-0.08175 -0.103481,2.634708 -0.103482,2.634692 h -7.296088 c -4.012848,0 -7.359773,-0.06274 -7.437647,-0.139657 z M 82.102564,47.05425 v -2.298489 l -4.505087,0.141166 c -2.477777,0.07781 -5.208391,0.14358 -6.068052,0.146294 -0.859629,0.0015 -1.562997,0.104064 -1.562997,0.225082 0,0.122013 1.675106,0.252577 3.769562,0.293598 l 3.76953,0.07375 -3.953393,0.04812 c -4.172698,0.05068 -5.584335,0.470357 -1.838839,0.546656 l 2.114659,0.04283 -2.114659,0.08235 c -3.005857,0.116884 -2.622336,0.506358 0.551662,0.560245 l 2.666269,0.0454 -2.677855,0.07858 c -2.900666,0.08551 -3.39154,0.514035 -0.588626,0.514035 1.009666,0 1.566324,0.08884 1.427632,0.22778 -0.124902,0.125181 -0.879475,0.227752 -1.676606,0.227752 -0.797131,0 -1.449336,0.102408 -1.449336,0.22775 0,0.132117 1.430004,0.247645 3.401794,0.275032 l 3.401815,0.04737 -3.401815,0.07511 c -2.355132,0.05203 -3.401038,0.160079 -3.399327,0.351302 0,0.203303 1.602679,0.288123 6.068052,0.3215 l 6.065617,0.0454 z m -8.182701,0.576548 c 0.252773,-0.06304 0.666573,-0.06304 0.919409,0 0.252773,0.06305 0.04576,0.114923 -0.459705,0.114923 -0.505672,0 -0.71254,-0.05173 -0.459704,-0.114923 z m 1.746881,-0.07691 c -0.124912,-0.12518 0.0319,-0.22775 0.346043,-0.22775 0.31546,0 0.573345,0.102407 0.573345,0.22775 0,0.12518 -0.155831,0.227765 -0.346022,0.227765 -0.19016,0 -0.44838,-0.102408 -0.573366,-0.227765 z m -0.252763,-0.611101 c 0.265494,-0.06591 0.582686,-0.05777 0.7049,0.01764 0.122226,0.07571 -0.09498,0.129554 -0.482699,0.1196 -0.428408,-0.01207 -0.515559,-0.06484 -0.222295,-0.137698 z" />
        <path
           id="path11594"
           style="fill:#666666;fill-opacity:1;stroke-width:0.289417"
           d="m 51.394505,49.848193 -2.574343,-0.130457 -0.196982,-1.06116 c -0.10835,-0.583637 -0.191135,-1.695924 -0.184072,-2.471747 l 0.01459,-1.410591 7.039862,-0.100891 7.039811,-0.100751 0.07651,1.889332 c 0.04209,1.039124 0.101278,2.190773 0.131483,2.559191 0.04387,0.533945 -0.131483,0.702649 -0.864184,0.831404 -1.066676,0.187331 -6.749989,0.185159 -10.481202,-0.003 z m 9.708178,-0.442818 c 0.854832,-0.148407 0.879517,-0.215641 0.802651,-2.194348 -0.04355,-1.122783 -0.12953,-2.072592 -0.191136,-2.110644 -0.250496,-0.155162 -7.206629,-0.0819 -9.238703,0.09698 L 50.291076,45.39 l 3.125962,0.128346 3.125973,0.128346 -3.034026,0.04238 c -4.505422,0.06305 -3.78904,0.488712 0.919409,0.546326 l 3.953435,0.04827 -3.953435,0.07315 c -2.216545,0.04103 -3.953466,0.169881 -3.953466,0.293281 0,0.120956 0.455108,0.235396 1.011356,0.254159 l 1.011345,0.03409 -1.103292,0.135134 c -0.650893,0.07978 0.555493,0.187332 2.94211,0.262499 l 4.045382,0.12714 -3.953435,0.0451 c -2.174397,0.02488 -3.953655,0.121862 -3.95398,0.215837 -2.42e-4,0.09396 0.951356,0.156383 2.114669,0.138904 l 2.115132,-0.03183 -2.016667,0.145692 c -1.86241,0.134681 -2.022387,0.192867 -2.091245,0.761256 -0.07179,0.593456 0,0.618326 2.016667,0.697144 3.635687,0.142222 7.575782,0.128043 8.489566,-0.03031 z m -5.662796,-0.712738 c -0.651817,-0.173561 -0.620332,-0.197558 0.275673,-0.211734 0.556249,-0.0075 1.011356,0.08657 1.011356,0.211734 0,0.26734 -0.282736,0.26734 -1.287155,0 z m -2.022702,-1.735519 c 2.134506,-0.169354 5.517723,-0.187528 5.517062,-0.02956 -3.36e-4,0.09412 -1.448696,0.155344 -3.21854,0.136642 -1.769886,-0.01976 -2.804195,-0.06711 -2.298522,-0.107088 z" />
        <path
           id="path11572"
           style="fill:#666666;fill-opacity:1;stroke-width:0.289417"
           d="m 89.318859,58.144308 c 0.132206,-0.375809 0.228141,-1.731803 0.212808,-3.013337 -0.017,-1.281504 0.105423,-2.38091 0.26776,-2.443076 0.162159,-0.06213 3.751384,-0.170064 7.975465,-0.239681 l 7.680138,-0.126689 v 3.321702 3.32167 l -8.188644,-0.06862 -8.188662,-0.06863 z m 15.401001,-2.555693 v -2.910584 l -3.12599,0.0045 c -1.71926,0.003 -4.780881,0.106323 -6.803561,0.22775 l -3.677583,0.220963 4.596991,0.124728 4.597003,0.124575 -4.505055,0.0463 c -3.726217,0.03816 -4.505055,0.10528 -4.505055,0.387814 0,0.259182 0.510343,0.3518 2.114617,0.383774 l 2.114586,0.04222 -2.014663,0.08551 c -2.086154,0.08838 -2.825111,0.399578 -2.148505,0.904518 0.285528,0.213122 0.25503,0.302979 -0.113231,0.331635 -0.277647,0.02172 0.570983,0.106474 1.88572,0.188508 l 2.390437,0.149009 -2.206554,0.03966 -2.206564,0.03951 -0.04387,0.796848 -0.04387,0.79685 4.640903,0.04917 4.640874,0.04931 -4.542923,0.0718 c -3.14922,0.04977 -4.692539,0.164438 -5.030375,0.373713 -0.404752,0.25063 0.740489,0.308515 6.749475,0.341047 l 7.236963,0.03921 V 55.586395 Z M 91.69495,57.02617 c 0.285276,-0.17338 3.245984,-0.231068 3.508759,-0.06847 0.143656,0.08898 -0.621822,0.161467 -1.700545,0.161467 -1.078777,0 -1.892437,-0.04208 -1.808214,-0.09335 z m 7.62341,-0.745675 c 0.26549,-0.06591 0.58269,-0.05777 0.70492,0.01764 0.12223,0.07571 -0.0952,0.129554 -0.48272,0.11975 -0.42844,-0.01207 -0.51556,-0.06484 -0.2223,-0.137698 z m -1.739211,-0.382477 c 0.370542,-0.199562 3.279251,-0.309161 3.279251,-0.123669 0,0.113264 -0.77233,0.206092 -1.71625,0.206092 -0.9439,0 -1.647245,-0.0371 -1.563001,-0.08266 z M 92.698686,55.36946 c 0.265494,-0.06591 0.582633,-0.05776 0.704869,0.01765 0.122225,0.07571 -0.09519,0.129553 -0.482668,0.119599 -0.428492,-0.01207 -0.515559,-0.06484 -0.222306,-0.137697 z m 4.045351,-0.683282 c 0.265472,-0.06591 0.582685,-0.05776 0.70489,0.01764 0.122235,0.07571 -0.09519,0.129552 -0.482689,0.119598 -0.428419,-0.01207 -0.515559,-0.06484 -0.222306,-0.137697 z m -0.390752,-0.450781 c 0.252784,-0.06304 0.666572,-0.06304 0.919409,0 0.252794,0.06304 0.04576,0.114923 -0.459705,0.114923 -0.505673,0 -0.71252,-0.05173 -0.459704,-0.114923 z m 2.597305,-0.003 c 0.26551,-0.06591 0.58272,-0.05776 0.7049,0.01765 0.12223,0.07571 -0.0952,0.129553 -0.48268,0.119599 -0.42842,-0.01207 -0.51557,-0.06484 -0.22231,-0.137697 z" />
        <path
           id="path11558"
           style="fill:#666666;fill-opacity:1;stroke-width:0.289417"
           d="m 48.625007,58.826588 c -0.0052,0 -0.109086,-1.039983 -0.226683,-2.311036 -0.195523,-2.121759 -0.156807,-2.321081 0.472026,-2.433968 0.376866,-0.06756 3.690974,-0.193439 7.364695,-0.279571 l 6.679451,-0.156565 0.200634,1.223996 c 0.110545,0.673223 0.277941,1.810154 0.372145,2.526571 l 0.171415,1.302544 -1.167501,0.123218 c -0.642098,0.06771 -4.021684,0.09667 -7.51023,0.0641 -3.488567,-0.03259 -6.348868,-0.05927 -6.356215,-0.05927 z m 13.986224,-2.145105 c 0,-2.622717 0.15559,-2.524263 -3.992812,-2.522378 -1.950453,9.2e-4 -4.638804,0.06545 -5.974058,0.14358 -2.365218,0.1383 -2.428598,0.158841 -2.457848,0.795536 l -0.02844,0.653526 4.296581,0.04886 4.296612,0.04886 -4.281153,0.07193 -4.28109,0.07195 -0.166064,0.699542 c -0.0911,0.384752 -0.08963,0.945298 0.0021,1.245683 l 0.16874,0.546114 h 6.209053 6.209084 v -1.803442 z m -11.83732,0.736838 c 0.265494,-0.06591 0.582686,-0.05776 0.70489,0.01764 0.122236,0.07571 -0.09498,0.129554 -0.482689,0.119599 -0.42846,-0.01207 -0.51558,-0.06484 -0.222306,-0.137696 z m 6.233255,-0.0045 c 0.457469,-0.05445 1.119413,-0.05234 1.471029,0.003 0.351574,0.05686 -0.02193,0.101655 -0.831723,0.09893 -0.809116,-0.0015 -1.096817,-0.04902 -0.639306,-0.103613 z m -6.037805,-0.78041 c -0.373005,-0.09095 1.183663,-0.172506 3.45917,-0.181209 2.625946,-0.01065 4.137297,0.07028 4.137297,0.219999 0,0.26639 -6.48035,0.233377 -7.596467,-0.03876 z m 5.297966,-1.486964 c 0.252795,-0.06304 0.666573,-0.06304 0.919409,0 0.252795,0.06305 0.04576,0.114923 -0.459673,0.114923 -0.505704,0 -0.712551,-0.05173 -0.459736,-0.114923 z m -1.647944,-0.462515 c 0.35785,-0.05776 0.854319,-0.054 1.103261,0.009 0.248828,0.06228 -0.04355,0.109645 -0.650546,0.105119 -0.606772,-0.003 -0.810502,-0.0558 -0.452715,-0.113264 z" />
        <path
           id="path6246"
           style="fill:#666666;fill-opacity:1;stroke-width:0.289417"
           d="m 79.129818,59.301847 c -0.08427,-0.05128 -2.387394,-0.129251 -5.118008,-0.173215 l -4.96479,-0.07992 -0.326974,-2.190427 c -0.511424,-3.425282 -0.684424,-3.290964 4.457649,-3.459835 2.380331,-0.07813 5.569022,-0.208822 7.086051,-0.290325 l 2.758227,-0.148405 -0.106893,2.932815 c -0.05888,1.613079 -0.177744,3.060965 -0.264087,3.217561 -0.143897,0.260584 -3.139627,0.423436 -3.520734,0.191448 z m 2.972746,-3.235115 v -2.872865 l -1.562976,0.140412 c -2.171469,0.195023 -8.376461,0.585885 -9.37792,0.590649 -0.757061,0.003 -0.827472,0.110707 -0.827472,1.256635 v 1.252698 l 1.930754,0.04223 1.930744,0.04222 -1.930744,0.08355 c -1.622084,0.07028 -1.930754,0.15465 -1.930754,0.527279 0,0.244007 0.142439,0.443647 0.316751,0.443647 0.174092,0 0.238868,0.252227 0.143898,0.560515 -0.191136,0.618884 -0.966101,0.55361 9.009312,0.758753 l 2.298522,0.04737 z m -10.573139,0.887671 c 0.556249,-0.05218 1.466453,-0.05218 2.022702,0 0.556248,0.05218 0.101277,0.09487 -1.011346,0.09487 -1.112496,0 -1.567604,-0.04253 -1.011356,-0.09487 z m 3.498044,-1.592294 c 0.457438,-0.05445 1.119413,-0.05248 1.471029,0.003 0.351574,0.05686 -0.02193,0.101656 -0.831754,0.09894 -0.809085,-0.0015 -1.096786,-0.04902 -0.639275,-0.103612 z m 1.657589,-0.680027 c 0.357829,-0.05776 0.854298,-0.054 1.103293,0.009 0.249111,0.0626 -0.04355,0.109645 -0.650578,0.105118 -0.606793,-0.003 -0.810491,-0.05565 -0.452715,-0.113264 z m -5.339516,-0.448533 c 0.252794,-0.06304 0.666572,-0.06304 0.919408,0 0.252774,0.06304 0.04576,0.114924 -0.459704,0.114924 -0.505673,0 -0.712541,-0.05158 -0.459704,-0.114924 z" />
      </g>
    </g>
  </g>
</svg>
