<?xml version="1.0" encoding="UTF-8" standalone="no"?>
<svg
   version="1.1"
   width="100"
   height="100"
   id="svg4460"
   sodipodi:docname="rocher.svg"
   inkscape:version="1.2.2 (732a01da63, 2022-12-09)"
   xmlns:inkscape="http://www.inkscape.org/namespaces/inkscape"
   xmlns:sodipodi="http://sodipodi.sourceforge.net/DTD/sodipodi-0.dtd"
   xmlns="http://www.w3.org/2000/svg"
   xmlns:svg="http://www.w3.org/2000/svg"
   xmlns:rdf="http://www.w3.org/1999/02/22-rdf-syntax-ns#"
   xmlns:cc="http://creativecommons.org/ns#"
   xmlns:dc="http://purl.org/dc/elements/1.1/">
  <sodipodi:namedview
     pagecolor="#ffffff"
     bordercolor="#666666"
     borderopacity="1"
     objecttolerance="10"
     gridtolerance="10"
     guidetolerance="10"
     inkscape:pageopacity="0"
     inkscape:pageshadow="2"
     inkscape:window-width="1920"
     inkscape:window-height="1009"
     id="namedview11"
     showgrid="true"
     inkscape:zoom="6.54"
     inkscape:cx="66.819572"
     inkscape:cy="54.281346"
     inkscape:window-x="-8"
     inkscape:window-y="-8"
     inkscape:window-maximized="1"
     inkscape:current-layer="text5282"
     inkscape:document-rotation="0"
     inkscape:pagecheckerboard="0"
     showguides="true"
     inkscape:guide-bbox="true"
     inkscape:showpageshadow="0"
     inkscape:deskcolor="#d1d1d1">
    <inkscape:grid
       type="xygrid"
       id="grid823"
       originx="0"
       originy="0" />
    <sodipodi:guide
       position="0,86"
       orientation="66,0"
       id="guide957"
       inkscape:locked="false" />
    <sodipodi:guide
       position="0,20"
       orientation="0,50"
       id="guide959"
       inkscape:locked="false" />
    <sodipodi:guide
       position="8.9999971,64.32985"
       orientation="8.5387222,0"
       id="guide1517"
       inkscape:locked="false" />
    <sodipodi:guide
       position="8.9999971,55.791128"
       orientation="0,26.227758"
       id="guide1519"
       inkscape:locked="false" />
    <sodipodi:guide
       position="95,90"
       orientation="-8.5387222,0"
       id="guide1521"
       inkscape:locked="false" />
    <sodipodi:guide
       position="70,70"
       orientation="0,-26.227758"
       id="guide1523"
       inkscape:locked="false" />
    <sodipodi:guide
       position="7.9247812,20.000001"
       orientation="0,-6.8495616"
       id="guide4054"
       inkscape:locked="false" />
    <sodipodi:guide
       position="85,75"
       orientation="0,6.8495616"
       id="guide4058"
       inkscape:locked="false" />
  </sodipodi:namedview>
  <defs
     id="defs4462" />
  <metadata
     id="metadata4465">
    <rdf:RDF>
      <cc:Work
         rdf:about="">
        <dc:format>image/svg+xml</dc:format>
        <dc:type
           rdf:resource="http://purl.org/dc/dcmitype/StillImage" />
      </cc:Work>
    </rdf:RDF>
  </metadata>
  <g
     aria-label="C"
     id="text3215"
     style="font-size:32px;line-height:1.25"
     transform="translate(-37.75,-4)">
    <g
       aria-label="A"
       id="text5282"
       transform="matrix(1.6290909,0,0,2.8292029,-41.002727,-68.776958)">
      <path
         style="fill:#666666;fill-opacity:1;stroke-width:0.229707"
         d="m 87.288265,35.61325 c 0.158343,-0.08333 0.932573,-0.289539 1.720912,-0.458389 1.184395,-0.253691 1.946677,-0.286076 4.389671,-0.186509 1.833614,0.07467 3.517782,0.04801 4.43458,-0.07052 1.575312,-0.203474 2.044567,-0.132946 1.437815,0.215986 -0.263079,0.151318 -1.736445,0.215754 -4.975018,0.217624 -3.083772,0.0011 -4.819276,0.07363 -5.262435,0.217879 -0.755128,0.24575 -2.190913,0.29824 -1.745525,0.06383 z"
         id="path13928" />
      <path
         style="fill:#666666;fill-opacity:1;stroke-width:0.229707"
         d="m 58.092461,36.811772 c -1.260102,-0.26798 -2.088389,-0.330672 -3.40578,-0.257823 -2.089167,0.115668 -2.352177,-0.155382 -0.30276,-0.31186 1.016895,-0.07756 2.058627,-0.0081 3.557186,0.241573 2.052009,0.340217 6.431668,0.501946 7.104973,0.26237 0.171578,-0.06117 0.473336,-0.05378 0.670401,0.0165 1.425427,0.507175 -5.267367,0.550455 -7.62402,0.04928 z"
         id="path13926" />
      <path
         style="fill:#666666;fill-opacity:1;stroke-width:0.229707"
         d="m 88.635435,36.142007 c 0,-0.303562 1.628911,-0.503469 3.405798,-0.417971 2.342725,0.112759 2.224089,0.374645 -0.151527,0.334227 -1.04067,-0.01766 -2.198629,0.03209 -2.57326,0.110336 -0.408195,0.08541 -0.681166,0.07467 -0.681166,-0.02655 z"
         id="path13924" />
      <path
         style="fill:#666666;fill-opacity:1;stroke-width:0.229707"
         d="m 57.262611,38.176022 c 0.151932,-0.262671 1.995187,-0.483908 2.227613,-0.267403 0.237956,0.221745 0.146922,0.250068 -1.19065,0.368978 -0.812736,0.07225 -1.120187,0.04213 -1.036963,-0.101564 z"
         id="path13922" />
      <path
         style="font-size:32px;line-height:1.25;fill:#666666;fill-opacity:1;stroke-width:0.229707"
         d="m 52.829107,29.863387 c 0.151932,-0.262671 1.995187,-0.483908 2.227613,-0.267403 0.237956,0.221745 0.146922,0.250068 -1.19065,0.368978 -0.812736,0.07225 -1.120187,0.04213 -1.036963,-0.101564 z"
         id="path13922-5" />
      <path
         style="fill:#666666;fill-opacity:1;stroke-width:0.229707"
         d="m 55.663943,39.080227 c -1.078148,-0.242057 -0.832737,-0.513442 0.295805,-0.327094 0.537311,0.08875 1.252508,0.11045 1.589359,0.04824 1.228275,-0.226684 4.287658,-0.08252 3.76594,0.17753 -0.308954,0.153962 -5.038829,0.238734 -5.651104,0.101334 z"
         id="path13916" />
      <path
         style="font-size:32px;line-height:1.25;fill:#666666;fill-opacity:1;stroke-width:0.229707"
         d="m 51.114909,31.352426 c -1.078148,-0.242057 -0.832737,-0.513442 0.295805,-0.327094 0.537311,0.08875 1.252508,0.11045 1.589359,0.04824 1.228275,-0.226684 4.287658,-0.08252 3.76594,0.17753 -0.308954,0.153962 -5.038829,0.238734 -5.651104,0.101334 z"
         id="path13916-9" />
      <path
         style="fill:#666666;fill-opacity:1;stroke-width:0.229707"
         d="m 99.241316,39.576715 c -0.01201,-0.298587 0.804764,-0.786799 1.064414,-0.637327 0.0834,0.04801 -0.11986,0.27487 -0.451375,0.504139 -0.466402,0.322432 -0.605263,0.352601 -0.613039,0.133211 z"
         id="path13912" />
      <path
         style="fill:#666666;fill-opacity:1;stroke-width:0.229707"
         d="m 49.582555,40.445781 c -3.8e-4,-0.23107 1.030951,-0.323158 3.430351,-0.306308 2.122826,0.01512 4.598875,0.234729 3.683779,0.327014 -0.911562,0.09198 -7.113992,0.07398 -7.11413,-0.02066 z"
         id="path13910" />
      <path
         style="font-size:32px;line-height:1.25;fill:#666666;fill-opacity:1;stroke-width:0.229707"
         d="m 98.62917,57.338396 c 0.151932,-0.262671 1.99519,-0.483908 2.22761,-0.267403 0.23796,0.221745 0.14692,0.250068 -1.190647,0.368978 -0.812736,0.07225 -1.120187,0.04213 -1.036963,-0.101564 z"
         id="path13922-2" />
      <path
         style="font-size:32px;line-height:1.25;fill:#666666;fill-opacity:1;stroke-width:0.229707"
         d="m 97.71829,58.248044 c -1.078148,-0.242057 -0.832737,-0.513442 0.295805,-0.327094 0.537311,0.08875 1.252508,0.11045 1.589359,0.04824 1.228276,-0.226684 4.287656,-0.08252 3.765936,0.17753 -0.30895,0.153962 -5.038825,0.238734 -5.6511,0.101334 z"
         id="path13916-4" />
      <path
         style="font-size:32px;line-height:1.25;fill:#666666;fill-opacity:1;stroke-width:0.229707"
         d="m 90.949114,59.608155 c -3.8e-4,-0.23107 1.030951,-0.323158 3.430351,-0.306308 2.122826,0.01512 4.598875,0.234729 3.683779,0.327014 -0.911562,0.09198 -7.113992,0.07398 -7.11413,-0.02066 z"
         id="path13910-1" />
      <path
         style="font-size:32px;line-height:1.25;fill:#666666;fill-opacity:1;stroke-width:0.229707"
         d="m 52.591218,59.105678 c 0.15193,-0.262671 1.99519,-0.483908 2.22761,-0.267403 0.23796,0.221745 0.14693,0.250068 -1.19065,0.368978 -0.81273,0.07225 -1.12018,0.04213 -1.03696,-0.101564 z"
         id="path13922-7" />
      <path
         style="font-size:32px;line-height:1.25;fill:#666666;fill-opacity:1;stroke-width:0.229707"
         d="m 51.680338,60.015326 c -1.07815,-0.242057 -0.83274,-0.513442 0.29581,-0.327094 0.53731,0.08875 1.2525,0.11045 1.58936,0.04824 1.22827,-0.226684 4.28765,-0.08252 3.76594,0.17753 -0.30896,0.153962 -5.03883,0.238734 -5.65111,0.101334 z"
         id="path13916-6" />
      <path
         style="font-size:32px;line-height:1.25;fill:#666666;fill-opacity:1;stroke-width:0.229707"
         d="m 55.346426,28.150531 c -3.7e-4,-0.23107 1.03096,-0.323158 3.43036,-0.306308 2.12282,0.01512 4.59887,0.234729 3.68378,0.327014 -0.91157,0.09198 -7.114,0.07398 -7.11414,-0.02066 z"
         id="path13910-9" />
      <path
         style="fill:#666666;fill-opacity:1;stroke-width:0.229707"
         d="m 94.88692,41.755323 c -0.772727,-0.302292 -1.581204,-0.460697 -2.351504,-0.460697 -1.540736,0 -1.751737,-0.2283 -0.333421,-0.360819 0.71658,-0.06706 1.41861,-0.012 1.961771,0.152058 0.46525,0.140932 1.25459,0.3797 1.754121,0.530523 1.452917,0.438654 1.900491,0.282049 2.281161,-0.798156 0.624259,-1.771441 1.031651,-2.254125 2.287942,-2.710714 0.92118,-0.334793 1.18287,-0.539132 1.18287,-0.923588 0,-0.271511 0.26899,-0.633818 0.59775,-0.805127 0.5597,-0.291617 0.64631,-0.293071 1.3623,-0.02285 0.42055,0.158648 0.76462,0.365054 0.76462,0.4587 0,0.231752 -0.40787,0.214336 -0.84261,-0.0359 -0.48107,-0.27696 -0.72927,-0.0996 -0.94881,0.678056 -0.1375,0.487 -0.44833,0.751979 -1.23955,1.056753 -1.11064,0.427827 -1.545225,0.995271 -1.942647,2.536658 -0.207156,0.803961 -0.190214,0.832584 0.390752,0.653588 0.801035,-0.246812 3.033245,-0.237972 4.699555,0.01858 1.14215,0.175879 1.44846,0.163507 2.10773,-0.08529 0.44222,-0.166818 0.84682,-0.220694 0.94819,-0.126251 0.0972,0.0906 -0.1828,0.300307 -0.62202,0.46603 -0.71804,0.270876 -1.05592,0.279925 -3.34268,0.08968 -1.57885,-0.131479 -2.74374,-0.151504 -3.07073,-0.05298 -0.28977,0.08737 -1.413453,0.168677 -2.497078,0.180703 -1.667892,0.01846 -2.150784,-0.04882 -3.147712,-0.438815 z"
         id="path13906" />
      <path
         id="path13894"
         style="fill:#666666;fill-opacity:1;stroke-width:0.229707"
         d="m 75.801405,47.503676 c -0.998397,-0.241204 -2.223968,-0.492021 -2.72349,-0.557392 -0.875312,-0.114605 -1.157648,-0.504959 -0.291477,-0.403071 0.25183,0.02966 0.508024,-0.14833 0.627343,-0.435734 0.110843,-0.267195 0.343054,-0.58883 0.515747,-0.714746 0.172771,-0.125848 0.392333,-0.753364 0.488058,-1.394349 0.17138,-1.147399 0.188011,-1.165912 1.082217,-1.196727 1.511916,-0.05205 2.503393,0.280583 3.36832,1.130329 0.447815,0.439923 1.183833,0.978917 1.635597,1.197776 0.45179,0.21886 0.903692,0.634776 1.004246,0.924235 0.178992,0.514941 0.221567,0.526287 1.988959,0.526287 3.061439,0 2.348868,0.311848 -0.858758,0.375833 -2.537398,0.05055 -3.113457,0.11673 -3.708851,0.426143 -1.116213,0.579955 -1.214046,0.583752 -3.127911,0.121427 z m 2.877143,-0.487659 c 0.431219,-0.264251 1.045759,-0.435733 1.561584,-0.435733 h 0.850533 l -0.505268,-0.61002 c -0.277921,-0.33552 -0.615135,-0.610044 -0.749366,-0.610044 -0.134092,0 -0.668682,-0.433159 -1.187669,-0.962586 -1.027581,-1.048269 -1.50287,-1.264728 -2.770135,-1.261669 -0.799181,0.0011 -0.83259,0.03774 -0.834395,0.895265 -8.64e-4,0.491282 -0.205523,1.117922 -0.454088,1.392492 -0.808002,0.891941 -0.60488,1.227761 0.985766,1.629828 1.905312,0.481576 2.263053,0.47726 3.103038,-0.03751 z m 7.189941,-0.558718 c -0.457881,-0.04074 -0.832719,-0.166923 -0.832961,-0.280387 -2.59e-4,-0.139119 0.517147,-0.189763 1.589385,-0.155519 1.916457,0.06129 3.673101,-0.441955 3.355283,-0.961052 -0.64406,-1.051928 -1.417703,-1.81179 -2.260236,-2.219963 -0.530236,-0.256864 -1.521359,-0.869516 -2.202456,-1.361422 L 84.279121,40.584568 84.127594,38.658795 83.976067,36.733 82.840796,36.75296 c -1.28336,0.02251 -1.422144,-0.09429 -0.504318,-0.424319 0.869109,-0.312494 2.252098,-0.10468 3.013741,0.452677 0.557009,0.407688 0.602547,0.603291 0.420437,1.805407 -0.316833,2.090792 -0.09722,2.456434 2.306941,3.843398 1.487656,0.858182 2.244789,1.455229 2.623109,2.068469 0.292479,0.474132 0.704173,0.86205 0.914837,0.86205 0.210638,0 0.383055,0.117676 0.383055,0.261447 0,0.225253 -0.764788,0.359364 -1.5985,0.280341 -0.129885,-0.01212 -0.606704,0.08656 -1.059573,0.219805 -1.023564,0.30108 -2.381862,0.432168 -3.472364,0.335127 z m -2.078308,-3.145178 -1.02479,-1.350793 -0.177592,0.958628 c -0.131483,0.710107 -0.193221,0.800476 -0.236893,0.348596 -0.03266,-0.335531 -0.306311,-1.021817 -0.608302,-1.525079 -0.301999,-0.503297 -0.442951,-0.915047 -0.313265,-0.915047 0.129678,0 0.325551,0.162768 0.435228,0.361719 0.109842,0.19895 0.241627,0.3362 0.293196,0.305004 0.125272,-0.07571 -0.70413,-2.570278 -0.92199,-2.773257 -0.094,-0.08772 -0.0349,-0.159306 0.131691,-0.159306 0.481829,0 0.671801,0.287427 0.957481,1.448813 0.16376,0.665431 0.801124,1.745405 1.640738,2.779848 1.47563,1.81801 1.507483,1.871655 1.111219,1.871655 -0.144114,0 -0.722998,-0.607862 -1.286625,-1.350781 z m 0.110637,-1.714427 c -1.135133,-1.375226 -1.286643,-1.703139 -1.286643,-2.784764 0,-0.711549 -0.150326,-1.312532 -0.358259,-1.432228 -0.197022,-0.113567 -0.281352,-0.250517 -0.187407,-0.3046 0.09381,-0.05401 0.386303,0.02563 0.649693,0.177333 0.337655,0.194403 0.474693,0.59512 0.464879,1.359079 -0.01806,1.369236 0.214828,1.905633 1.318004,3.039113 0.487047,0.500481 0.840736,1.043815 0.785936,1.207414 -0.0559,0.166784 -0.664812,-0.387318 -1.38622,-1.261347 z m -8.358682,0.839382 c -0.09741,-0.09083 0.102222,-0.623131 0.443747,-1.182727 0.341646,-0.559596 0.553666,-1.217559 0.471211,-1.462155 -0.09821,-0.29172 0.08199,-0.624528 0.52456,-0.967561 0.370985,-0.287599 0.851069,-0.775177 1.066882,-1.083539 0.215994,-0.308375 0.660518,-0.609651 0.988176,-0.669517 0.775025,-0.141693 1.148274,0.07536 0.492827,0.28655 -0.63917,0.205922 -2.410009,2.067547 -2.174991,2.286487 0.180987,0.168677 -1.016134,2.552886 -1.411957,2.811817 -0.122671,0.08033 -0.302881,0.07155 -0.400455,-0.01928 z" />
      <path
         id="path13894-3"
         style="font-size:32px;line-height:1.25;fill:#666666;fill-opacity:1;stroke-width:0.202725"
         d="m 105.27243,34.632923 c 0.99839,-0.18787 2.22396,-0.383227 2.72349,-0.434143 0.87531,-0.08927 1.15764,-0.393303 0.29147,-0.313944 -0.25183,0.0231 -0.50802,-0.115532 -0.62734,-0.339385 -0.11084,-0.208114 -0.34305,-0.458629 -0.51575,-0.556703 -0.17277,-0.09802 -0.39233,-0.586782 -0.48805,-1.086033 -0.17138,-0.893688 -0.18802,-0.908108 -1.08222,-0.932109 -1.51192,-0.04054 -2.50339,0.218541 -3.36832,0.880392 -0.44782,0.342648 -1.18383,0.762461 -1.6356,0.932926 -0.45179,0.170467 -0.903691,0.494416 -1.004245,0.71987 -0.178992,0.401078 -0.221567,0.409916 -1.988959,0.409916 -3.061439,0 -2.348868,0.242893 0.858758,0.29273 2.537396,0.03936 3.113456,0.09091 3.708856,0.331914 1.11621,0.451717 1.21404,0.454674 3.12791,0.09459 z m -2.87715,-0.379829 c -0.43122,-0.20582 -1.04576,-0.339384 -1.56158,-0.339384 h -0.850534 l 0.505264,-0.475134 c 0.27793,-0.261331 0.61514,-0.475153 0.74937,-0.475153 0.13409,0 0.66868,-0.33738 1.18767,-0.74974 1.02758,-0.816477 1.50287,-0.985074 2.77013,-0.982691 0.79919,8.58e-4 0.83259,0.0294 0.8344,0.697306 8.6e-4,0.38265 0.20552,0.870729 0.45409,1.084586 0.808,0.694718 0.60488,0.95628 -0.98577,1.269445 -1.90531,0.37509 -2.26305,0.371729 -3.10304,-0.02922 z m -7.189938,-0.435176 c 0.457881,-0.03173 0.832719,-0.130013 0.832961,-0.218388 2.59e-4,-0.108357 -0.517147,-0.147803 -1.589385,-0.12113 -1.916457,0.04773 -3.673101,-0.344232 -3.355283,-0.748545 0.64406,-0.819329 1.417703,-1.411172 2.260236,-1.72909 0.530236,-0.200067 1.521359,-0.67725 2.202456,-1.060387 l 1.238383,-0.696623 0.151527,-1.499949 0.151527,-1.499967 1.135271,0.01555 c 1.28336,0.01754 1.422144,-0.07344 0.504318,-0.330493 -0.869109,-0.243396 -2.252098,-0.08154 -3.013741,0.352581 -0.557009,0.317541 -0.602547,0.469894 -0.420437,1.4062 0.316833,1.62848 0.09722,1.913271 -2.306941,2.993552 -1.487656,0.668423 -2.244789,1.133451 -2.623109,1.611093 -0.292479,0.369293 -0.704173,0.671435 -0.914837,0.671435 -0.210638,0 -0.383055,0.09165 -0.383055,0.203637 0,0.175445 0.764788,0.279902 1.5985,0.218352 0.129885,-0.0095 0.606704,0.06742 1.059573,0.171202 1.023564,0.234506 2.381862,0.336608 3.472364,0.261025 z m 2.078308,-2.449721 1.02479,-1.052108 0.177592,0.746657 c 0.131483,0.55309 0.193221,0.623476 0.236893,0.271515 0.03266,-0.261338 0.306311,-0.795873 0.608302,-1.187856 0.301999,-0.392008 0.442951,-0.712712 0.313265,-0.712712 -0.129678,0 -0.325551,0.126776 -0.435228,0.281735 -0.109842,0.15496 -0.241627,0.26186 -0.293196,0.237562 -0.125272,-0.05897 0.70413,-2.001942 0.92199,-2.160039 0.094,-0.06833 0.0349,-0.12408 -0.131691,-0.12408 -0.481829,0 -0.671801,0.223871 -0.957481,1.128453 -0.16376,0.518292 -0.801124,1.359465 -1.640738,2.165174 -1.47563,1.416014 -1.507483,1.457798 -1.111219,1.457798 0.144114,0 0.722998,-0.473453 1.286625,-1.052099 z m -0.110637,-1.335336 c 1.135133,-1.071139 1.286643,-1.326544 1.286643,-2.169002 0,-0.554212 0.150326,-1.022308 0.358259,-1.115538 0.197022,-0.08844 0.281352,-0.195122 0.187407,-0.237246 -0.09381,-0.04208 -0.386303,0.01997 -0.649693,0.138122 -0.337655,0.151417 -0.474693,0.463527 -0.464879,1.058562 0.01806,1.066473 -0.214828,1.484263 -1.318004,2.367109 -0.487047,0.389815 -0.840736,0.813008 -0.785936,0.940434 0.0559,0.129904 0.664812,-0.301676 1.38622,-0.982441 z m 8.358687,0.653779 c 0.0974,-0.07075 -0.10223,-0.485345 -0.44375,-0.921204 -0.34165,-0.435859 -0.55367,-0.948335 -0.47121,-1.138847 0.0982,-0.227215 -0.082,-0.486434 -0.52456,-0.753615 -0.37099,-0.224006 -0.85107,-0.603771 -1.06688,-0.843949 -0.216,-0.240188 -0.66052,-0.474846 -0.98818,-0.521475 -0.77503,-0.110355 -1.14827,0.0587 -0.49283,0.223189 0.63917,0.160389 2.41001,1.610375 2.17499,1.780904 -0.18098,0.131379 1.01614,1.988395 1.41196,2.190073 0.12267,0.06256 0.30288,0.05573 0.40046,-0.01502 z" />
      <path
         style="fill:#666666;fill-opacity:1;stroke-width:0.229707"
         d="m 86.778454,49.579719 c -1.432001,-0.280687 -8.613398,-0.487311 -9.852256,-0.283479 -0.590081,0.09706 -1.407465,0.148341 -1.816438,0.113913 -0.600967,-0.05055 -0.442364,-0.120757 0.827043,-0.365412 2.039085,-0.393168 7.814053,-0.41826 9.961009,-0.04328 0.817367,0.142744 2.06508,0.260408 2.772744,0.261447 1.376933,0.0011 1.726959,0.241884 0.605476,0.414924 -0.891225,0.13747 -1.396761,0.117676 -2.497578,-0.0981 z"
         id="path13886" />
      <path
         style="fill:#666666;fill-opacity:1;stroke-width:0.229707"
         d="m 81.799937,50.65909 c 0,-0.09579 0.136097,-0.183012 0.302742,-0.193654 0.451462,-0.02886 1.425902,-0.02343 2.194836,0.012 0.652959,0.03035 0.656112,0.03797 0.07559,0.181419 -0.847708,0.20973 -2.573268,0.20973 -2.573268,0 z"
         id="path13882" />
      <path
         id="path13880"
         style="fill:#666666;fill-opacity:1;stroke-width:0.229707"
         d="m 70.151639,51.249356 c -3.251299,-0.298206 -5.661541,-0.361234 -6.299355,-0.164695 -0.387599,0.119407 -0.694851,0.129725 -0.805056,0.02724 -0.09801,-0.09129 0.06393,-0.238065 0.360048,-0.326113 1.133768,-0.337229 2.77188,-0.381121 4.659965,-0.124913 2.690004,0.365065 2.925852,0.351631 2.187484,-0.124635 -0.334363,-0.215697 -0.975901,-0.745112 -1.425686,-1.176495 -0.44976,-0.431359 -1.285494,-1.120519 -1.857199,-1.531427 -0.602971,-0.43339 -1.295982,-1.243064 -1.650431,-1.928253 -0.356903,-0.689957 -0.923295,-1.350054 -1.361953,-1.587322 -0.413059,-0.223395 -0.970734,-0.787099 -1.239299,-1.252621 -0.473431,-0.820604 -0.524542,-0.846446 -1.674924,-0.846446 -0.652665,0 -1.186624,-0.07837 -1.186624,-0.174298 0,-0.09579 0.73937,-0.174286 1.643079,-0.174286 1.414437,0 1.730363,0.06383 2.2705,0.459243 0.345093,0.252572 0.627446,0.554852 0.627446,0.67172 0,0.116868 0.338121,0.422531 0.751397,0.679268 0.935822,0.581352 1.36724,1.036913 1.369641,1.446321 8.64e-4,0.174055 0.205515,0.541129 0.454097,0.815722 0.248694,0.27457 0.452239,0.591992 0.452239,0.705375 0,0.113336 0.539618,0.509506 1.199151,0.880284 0.659516,0.370768 1.530992,1.072969 1.936578,1.560454 0.405586,0.487462 1.227834,1.156343 1.827237,1.486392 0.782965,0.43114 0.983529,0.638954 0.712398,0.738094 -0.429362,0.156964 -0.649339,0.152612 -2.950733,-0.0584 z M 61.38852,50.678108 c -0.198231,-0.137619 -0.794092,-0.30003 -1.323723,-0.360865 -0.529631,-0.06082 -1.621213,-0.231196 -2.425724,-0.378545 -1.379819,-0.252711 -1.55723,-0.247079 -3.129993,0.09949 -1.984241,0.437165 -2.218836,0.44836 -2.218836,0.105835 0,-0.155451 0.278025,-0.261447 0.68584,-0.261447 0.377215,0 1.296777,-0.189095 2.043491,-0.420246 1.162287,-0.359768 1.424536,-0.385805 1.822788,-0.180946 0.255778,0.131607 1.325062,0.354795 2.376073,0.495934 1.78074,0.239183 3.06213,0.659221 3.06213,1.003755 0,0.2301 -0.494157,0.173063 -0.892046,-0.102949 z m 4.2437,-1.762889 c -0.504714,-0.458216 -1.141362,-1.192768 -1.414782,-1.632344 -0.273395,-0.439612 -0.69321,-1.11738 -0.932911,-1.506186 -0.244487,-0.396505 -0.793202,-0.834523 -1.2497,-0.997546 -0.761997,-0.272134 -0.771838,-0.290958 -0.154534,-0.295298 0.925896,-0.0069 1.81014,0.718764 2.518961,2.066059 0.333871,0.634568 1.015815,1.578411 1.515501,2.097416 1.143972,1.188266 0.942233,1.379646 -0.282396,0.267899 z m -2.284297,-0.244296 c -0.253929,-0.282811 -0.462399,-0.655367 -0.463021,-0.827876 -6.48e-4,-0.172532 -0.280418,-0.577427 -0.621779,-0.89979 -0.34136,-0.322374 -0.548491,-0.627667 -0.460282,-0.678448 0.372895,-0.214682 1.123003,0.419633 1.573869,1.330929 0.266517,0.538671 0.605718,1.053902 0.753798,1.144987 0.355702,0.218755 0.342613,0.444447 -0.02626,0.444447 -0.162153,0 -0.502814,-0.231405 -0.756848,-0.514249 z M 50.104367,48.302129 c -0.476559,-0.159917 -0.444386,-0.246282 0.378424,-1.016174 0.494581,-0.462774 0.899243,-0.926334 0.899243,-1.030126 0,-0.318842 1.294098,-0.731342 2.294457,-0.731342 0.857661,0 0.945636,0.04986 0.916495,0.518196 -0.02626,0.415524 -0.195432,0.538948 -0.856546,0.622843 -0.867476,0.110104 -2.179268,0.881103 -2.505259,1.472438 -0.215986,0.391888 -0.37788,0.415467 -1.126814,0.164165 z m 5.386531,-3.105072 c -0.100822,-0.09383 -0.06255,-0.213596 0.08475,-0.266041 0.147319,-0.0524 0.352246,-0.398985 0.455332,-0.770144 0.102818,-0.37116 0.46493,-0.877931 0.804088,-1.126151 0.716856,-0.524683 2.337749,-1.03704 2.57669,-0.814464 0.09,0.08402 -0.255235,0.277547 -0.767509,0.430078 -1.105371,0.32908 -2.11296,1.211234 -2.114567,1.851273 -8.64e-4,0.496176 -0.729288,0.983661 -1.038683,0.695449 z" />
      <path
         id="path13880-1"
         style="font-size:32px;line-height:1.25;fill:#666666;fill-opacity:1;stroke-width:0.229707"
         d="m 106.24515,56.165877 c -3.2513,-0.298206 -5.66154,-0.361234 -6.299353,-0.164695 -0.387599,0.119407 -0.694851,0.129725 -0.805056,0.02724 -0.09801,-0.09129 0.06393,-0.238065 0.360048,-0.326113 1.133771,-0.337229 2.771881,-0.381121 4.659961,-0.124913 2.69001,0.365065 2.92586,0.351631 2.18749,-0.124635 -0.33436,-0.215697 -0.9759,-0.745112 -1.42569,-1.176495 -0.44976,-0.431359 -1.28549,-1.120519 -1.8572,-1.531427 -0.60297,-0.43339 -1.29598,-1.243064 -1.65043,-1.928253 -0.3569,-0.689957 -0.92329,-1.350054 -1.36195,-1.587322 -0.41306,-0.223395 -0.970735,-0.787099 -1.2393,-1.252621 -0.473431,-0.820604 -0.524542,-0.846446 -1.674924,-0.846446 -0.652665,0 -1.186624,-0.07837 -1.186624,-0.174298 0,-0.09579 0.73937,-0.174286 1.643079,-0.174286 1.414437,0 1.730363,0.06383 2.2705,0.459243 0.345089,0.252572 0.627449,0.554852 0.627449,0.67172 0,0.116868 0.33812,0.422531 0.75139,0.679268 0.93583,0.581352 1.36724,1.036913 1.36965,1.446321 8.6e-4,0.174055 0.20551,0.541129 0.45409,0.815722 0.2487,0.27457 0.45224,0.591992 0.45224,0.705375 0,0.113336 0.53962,0.509506 1.19915,0.880284 0.65952,0.370768 1.53099,1.072969 1.93658,1.560454 0.40559,0.487462 1.22783,1.156343 1.82724,1.486392 0.78296,0.43114 0.98353,0.638954 0.7124,0.738094 -0.42937,0.156964 -0.64934,0.152612 -2.95074,-0.0584 z m -8.763117,-0.571248 c -0.198231,-0.137619 -0.794092,-0.30003 -1.323723,-0.360865 -0.529631,-0.06082 -1.621213,-0.231196 -2.425724,-0.378545 -1.379819,-0.252711 -1.55723,-0.247079 -3.129993,0.09949 -1.984241,0.437165 -2.218836,0.44836 -2.218836,0.105835 0,-0.155451 0.278025,-0.261447 0.68584,-0.261447 0.377215,0 1.296777,-0.189095 2.043491,-0.420246 1.162287,-0.359768 1.424536,-0.385805 1.822788,-0.180946 0.255778,0.131607 1.325062,0.354795 2.376073,0.495934 1.78074,0.239183 3.06213,0.659221 3.06213,1.003755 0,0.2301 -0.494157,0.173063 -0.892046,-0.102949 z m 4.243697,-1.762889 c -0.50471,-0.458216 -1.14136,-1.192768 -1.41478,-1.632344 -0.27339,-0.439612 -0.693209,-1.11738 -0.93291,-1.506186 -0.244487,-0.396505 -0.793202,-0.834523 -1.2497,-0.997546 -0.761997,-0.272134 -0.771838,-0.290958 -0.154534,-0.295298 0.925896,-0.0069 1.81014,0.718764 2.518964,2.066059 0.33387,0.634568 1.01581,1.578411 1.5155,2.097416 1.14397,1.188266 0.94223,1.379646 -0.2824,0.267899 z m -2.284294,-0.244296 c -0.253929,-0.282811 -0.462399,-0.655367 -0.463021,-0.827876 -6.48e-4,-0.172532 -0.280418,-0.577427 -0.621779,-0.89979 -0.34136,-0.322374 -0.548491,-0.627667 -0.460282,-0.678448 0.372895,-0.214682 1.123003,0.419633 1.573869,1.330929 0.266517,0.538671 0.605717,1.053902 0.753797,1.144987 0.3557,0.218755 0.34261,0.444447 -0.0263,0.444447 -0.16215,0 -0.502813,-0.231405 -0.756847,-0.514249 z M 86.19788,53.21865 c -0.476559,-0.159917 -0.444386,-0.246282 0.378424,-1.016174 0.494581,-0.462774 0.899243,-0.926334 0.899243,-1.030126 0,-0.318842 1.294098,-0.731342 2.294457,-0.731342 0.857661,0 0.945636,0.04986 0.916495,0.518196 -0.02626,0.415524 -0.195432,0.538948 -0.856546,0.622843 -0.867476,0.110104 -2.179268,0.881103 -2.505259,1.472438 -0.215986,0.391888 -0.37788,0.415467 -1.126814,0.164165 z m 5.386531,-3.105072 c -0.100822,-0.09383 -0.06255,-0.213596 0.08475,-0.266041 0.147319,-0.0524 0.352246,-0.398985 0.455332,-0.770144 0.102818,-0.37116 0.46493,-0.877931 0.804088,-1.126151 0.716856,-0.524683 2.337749,-1.03704 2.57669,-0.814464 0.09,0.08402 -0.255235,0.277547 -0.767509,0.430078 -1.105371,0.32908 -2.11296,1.211234 -2.114567,1.851273 -8.64e-4,0.496176 -0.729288,0.983661 -1.038683,0.695449 z" />
      <path
         style="fill:#666666;fill-opacity:1;stroke-width:0.229707"
         d="m 87.273016,52.322556 c -0.103025,-0.09579 0.0934,-0.174309 0.436248,-0.174309 0.342846,0 0.62336,0.07837 0.62336,0.174309 0,0.09579 -0.196227,0.174299 -0.436256,0.174299 -0.240064,0 -0.520448,-0.07837 -0.623352,-0.174299 z"
         id="path13878" />
      <path
         id="path13876"
         style="fill:#666666;fill-opacity:1;stroke-width:0.229707"
         d="m 80.905154,27.205201 c -0.305007,0.174936 0.0122,0.222569 1.712875,0.27551 2.07824,0.0647 3.564688,0.394523 4.551026,1.008707 0.44873,0.27942 0.790089,0.388053 0.847022,0.270174 0.150721,-0.312337 -1.112251,-0.981653 -2.457578,-1.302542 -1.255369,-0.299433 -4.238417,-0.472783 -4.621657,-0.268722 -0.0111,0.0059 -0.02185,0.01123 -0.03169,0.01687 z m 2.489239,0.873848 c -0.183926,0.106923 0.225881,0.308573 1.068373,0.421228 0.662717,0.08863 1.93295,0.451376 2.821329,0.806093 1.392002,0.555833 1.530202,0.581266 1.002334,0.181834 -0.706793,-0.534577 -3.36762,-1.458871 -4.257784,-1.478896 -0.344468,-0.0077 -0.55065,0.02114 -0.634252,0.06974 z m 1.560321,1.060056 c -0.09889,0.06273 0.189605,0.201342 0.815146,0.389636 0.595235,0.179168 1.510645,0.586822 2.033087,0.907053 0.523411,0.319733 1.097289,0.584967 1.274977,0.589538 0.17753,0.0045 -0.09663,-0.285785 -0.608577,-0.645367 -0.974318,-0.68442 -2.939715,-1.396407 -3.471901,-1.257971 -0.01856,0.0048 -0.0325,0.01063 -0.04268,0.01714 z m -1.837717,4.035315 c -0.05242,0.02709 -0.08196,0.05685 -0.08403,0.088 -0.0034,0.04927 0.843509,0.127945 1.881731,0.175258 2.58921,0.118054 2.953194,-0.03207 0.926109,-0.382169 -0.879472,-0.151882 -2.356875,-0.0707 -2.723809,0.118915 z" />
      <path
         style="fill:#666666;fill-opacity:1;stroke-width:0.229707"
         d="m 68.049228,53.808996 c -0.583109,-0.188125 -1.540772,-0.220533 -4.171924,-0.141232 -2.252383,0.06797 -4.121392,0.02632 -5.489695,-0.122362 -1.539613,-0.167246 -2.317887,-0.176526 -3.018094,-0.03601 -1.080127,0.216759 -1.28311,-0.02412 -0.280591,-0.333107 0.509855,-0.157079 1.342444,-0.152462 3.606197,0.02008 1.827142,0.139282 3.966461,0.179815 5.641247,0.106989 2.100269,-0.09129 2.944453,-0.05794 3.810874,0.150453 0.612112,0.14728 1.112921,0.345087 1.112921,0.439669 0,0.229593 -0.302673,0.208461 -1.210935,-0.0846 z"
         id="path13872" />
      <path
         style="fill:#666666;fill-opacity:1;stroke-width:0.229707"
         d="m 59.26985,54.588501 c 0,-0.09579 0.613036,-0.174287 1.362307,-0.174287 0.74927,0 1.362332,0.07837 1.362332,0.174287 0,0.09579 -0.613062,0.174298 -1.362332,0.174298 -0.749271,0 -1.362307,-0.07837 -1.362307,-0.174298 z"
         id="path13870" />
      <path
         style="fill:#666666;fill-opacity:1;stroke-width:0.229707"
         d="m 60.178069,55.634312 c 0,-0.09579 0.272452,-0.174298 0.605459,-0.174298 0.333024,0 0.605476,0.07837 0.605476,0.174298 0,0.09579 -0.272452,0.174299 -0.605476,0.174299 -0.333007,0 -0.605459,-0.07837 -0.605459,-0.174299 z"
         id="path13866" />
      <path
         id="path13870-5"
         style="font-size:32px;line-height:1.25;fill:#666666;fill-opacity:1;stroke-width:0.229707"
         d="m 102.83054,43.94375 c -0.74927,0 -1.36315,0.07818 -1.36315,0.173967 0,0.09593 0.61388,0.174657 1.36315,0.174657 0.74927,0 1.36196,-0.07887 1.36196,-0.174657 0,-0.09592 -0.61269,-0.173967 -1.36196,-0.173967 z m 0.11989,1.045872 c -0.31873,0.0047 -0.57427,0.08117 -0.57427,0.173967 0,0.09593 0.27244,0.174657 0.60545,0.174657 0.33302,0 0.60544,-0.07887 0.60544,-0.174657 0,-0.09593 -0.27242,-0.173967 -0.60544,-0.173967 -0.0104,0 -0.0209,-1.51e-4 -0.0312,0 z" />
      <path
         id="path6186"
         style="fill:#666666;fill-opacity:1;stroke-width:0.229707"
         d="m 64.262501,60.68646 c -0.104425,-0.0973 0.184607,-0.173121 0.665797,-0.174633 1.142468,-0.0023 1.456891,-0.145018 2.003455,-0.900806 0.269991,-0.373329 0.843605,-0.754956 1.370627,-0.911861 0.498486,-0.14833 1.226495,-0.604596 1.617749,-1.013773 0.405197,-0.423684 0.970129,-0.76636 1.312397,-0.796033 0.799656,-0.06948 2.258275,-1.271848 2.296159,-1.892995 0.05814,-0.956146 0.884287,-1.928299 1.463327,-1.722263 0.272894,0.09706 0.252107,0.199978 -0.08475,0.416633 -0.245818,0.158255 -0.539999,0.67988 -0.653728,1.159182 -0.126473,0.531931 -0.554323,1.158051 -1.098727,1.606964 l -0.891882,0.735464 1.016851,0.24462 c 1.272215,0.306008 4.221031,2.728938 3.32133,2.728938 -0.160546,0 -0.790058,-0.464449 -1.398618,-1.032123 -0.785177,-0.732382 -1.513255,-1.163015 -2.507004,-1.482757 -1.525057,-0.49074 -2.018799,-0.420938 -2.34695,0.33178 -0.09982,0.229351 -0.624216,0.591254 -1.164957,0.804204 -2.035516,0.80163 -2.366795,1.496317 -0.756105,1.585741 1.77687,0.09868 0.881575,0.331618 -1.573203,0.409396 -1.407431,0.04467 -2.484015,0.0035 -2.591947,-0.09568 z m 22.137053,-0.324152 c -0.282276,-0.179572 -0.61911,-0.708987 -0.748572,-1.176494 -0.351589,-1.269715 -0.915899,-1.787727 -2.919,-2.679668 -1.303412,-0.580381 -2.11677,-1.125412 -2.879847,-1.929696 -1.148905,-1.211015 -2.295502,-1.620434 -4.007429,-1.430925 -0.496862,0.05505 -0.832529,0.01558 -0.832529,-0.09787 0,-0.352451 1.282072,-0.591519 2.684224,-0.500527 1.506378,0.09787 1.981494,0.343507 3.76842,1.949271 0.530443,0.47666 1.536953,1.104107 2.236694,1.394361 1.40019,0.580774 2.814688,1.957789 2.814688,2.740122 0,0.312609 0.379089,0.72975 1.054113,1.159921 0.579783,0.369474 0.965766,0.72264 0.857756,0.784825 -0.391132,0.225196 -1.526871,0.105604 -2.028518,-0.213412 z M 80.994638,59.657753 C 80.538632,59.2865 79.689697,58.333171 79.108091,57.53925 c -0.581606,-0.793943 -1.42598,-1.665007 -1.876482,-1.935687 -0.646306,-0.388402 -0.712234,-0.492205 -0.312583,-0.492205 0.649356,0 1.818598,1.019555 2.766904,2.412692 0.409595,0.601711 1.228214,1.481487 1.819159,1.955077 0.590971,0.473588 0.904435,0.859394 0.696597,0.85734 -0.207848,-0.0011 -0.751051,-0.307463 -1.207048,-0.678714 z m -11.297536,0.02886 c 0.635222,-0.672908 2.287701,-1.567273 2.287701,-1.238148 0,0.141832 -0.408696,0.483308 -0.908202,0.758835 -0.499505,0.275516 -0.908219,0.603926 -0.908219,0.729774 0,0.125847 -0.207847,0.228841 -0.46188,0.228841 -0.411738,0 -0.412766,-0.05205 -0.01201,-0.479302 z M 82.06704,58.727577 c -0.514304,-0.311572 -1.406463,-1.154716 -1.9826,-1.873687 -0.576154,-0.718958 -1.558914,-1.606053 -2.183941,-1.971291 -1.417124,-0.828129 -1.219333,-1.034316 0.269973,-0.281483 0.674566,0.34099 1.590258,1.140335 2.358415,2.058706 0.698885,0.835574 1.726881,1.752468 2.318327,2.067755 0.652,0.347511 0.887234,0.56644 0.608768,0.56644 -0.249748,0 -0.874629,-0.254915 -1.388942,-0.56644 z" />
      <path
         id="path6186-9"
         style="font-size:32px;line-height:1.25;fill:#666666;fill-opacity:1;stroke-width:0.229707"
         d="m 57.534287,34.741197 c -0.104425,-0.0973 0.184607,-0.173121 0.665797,-0.174633 1.142468,-0.0023 1.456891,-0.145018 2.003455,-0.900806 0.269991,-0.373329 0.843605,-0.754956 1.370627,-0.911861 0.498486,-0.14833 1.226495,-0.604596 1.617749,-1.013773 0.405197,-0.423684 0.970129,-0.76636 1.312397,-0.796033 0.799656,-0.06948 2.258275,-1.271848 2.296159,-1.892995 0.05814,-0.956146 0.884287,-1.928299 1.463327,-1.722263 0.272894,0.09706 0.252107,0.199978 -0.08475,0.416633 -0.245818,0.158255 -0.539999,0.67988 -0.653728,1.159182 -0.126473,0.531931 -0.554323,1.158051 -1.098727,1.606964 l -0.891882,0.735464 1.016851,0.24462 c 1.272215,0.306008 4.221031,2.728938 3.32133,2.728938 -0.160546,0 -0.790058,-0.464449 -1.398618,-1.032123 -0.785177,-0.732382 -1.513255,-1.163015 -2.507004,-1.482757 -1.525057,-0.49074 -2.018799,-0.420938 -2.34695,0.33178 -0.09982,0.229351 -0.624216,0.591254 -1.164957,0.804204 -2.035516,0.80163 -2.366795,1.496317 -0.756105,1.585741 1.77687,0.09868 0.881575,0.331618 -1.573203,0.409396 -1.407431,0.04467 -2.484015,0.0035 -2.591947,-0.09568 z M 79.67134,34.417045 c -0.282276,-0.179572 -0.61911,-0.708987 -0.748572,-1.176494 -0.351589,-1.269715 -0.915899,-1.787727 -2.919,-2.679668 -1.303412,-0.580381 -2.11677,-1.125412 -2.879847,-1.929696 -1.148905,-1.211015 -2.295502,-1.620434 -4.007429,-1.430925 -0.496862,0.05505 -0.832529,0.01558 -0.832529,-0.09787 0,-0.352451 1.282072,-0.591519 2.684224,-0.500527 1.506378,0.09787 1.981494,0.343507 3.76842,1.949271 0.530443,0.47666 1.536953,1.104107 2.236694,1.394361 1.40019,0.580774 2.814688,1.957789 2.814688,2.740122 0,0.312609 0.379089,0.72975 1.054113,1.159921 0.579783,0.369474 0.965766,0.72264 0.857756,0.784825 -0.391132,0.225196 -1.526871,0.105604 -2.028518,-0.213412 z M 74.266424,33.71249 c -0.456006,-0.371253 -1.304941,-1.324582 -1.886547,-2.118503 -0.581606,-0.793943 -1.42598,-1.665007 -1.876482,-1.935687 -0.646306,-0.388402 -0.712234,-0.492205 -0.312583,-0.492205 0.649356,0 1.818598,1.019555 2.766904,2.412692 0.409595,0.601711 1.228214,1.481487 1.819159,1.955077 0.590971,0.473588 0.904435,0.859394 0.696597,0.85734 -0.207848,-0.0011 -0.751051,-0.307463 -1.207048,-0.678714 z m -11.297536,0.02886 c 0.635222,-0.672908 2.287701,-1.567273 2.287701,-1.238148 0,0.141832 -0.408696,0.483308 -0.908202,0.758835 -0.499505,0.275516 -0.908219,0.603926 -0.908219,0.729774 0,0.125847 -0.207847,0.228841 -0.46188,0.228841 -0.411738,0 -0.412766,-0.05205 -0.01201,-0.479302 z m 12.369938,-0.959036 c -0.514304,-0.311572 -1.406463,-1.154716 -1.9826,-1.873687 -0.576154,-0.718958 -1.558914,-1.606053 -2.183941,-1.971291 -1.417124,-0.828129 -1.219333,-1.034316 0.269973,-0.281483 0.674566,0.34099 1.590258,1.140335 2.358415,2.058706 0.698885,0.835574 1.726881,1.752468 2.318327,2.067755 0.652,0.347511 0.887234,0.56644 0.608768,0.56644 -0.249748,0 -0.874629,-0.254915 -1.388942,-0.56644 z" />
    </g>
  </g>
</svg>
