<?xml version="1.0" encoding="UTF-8" standalone="no"?>
<svg
   version="1.1"
   width="100"
   height="100"
   id="svg4460"
   sodipodi:docname="marais.svg"
   inkscape:version="1.2.2 (732a01da63, 2022-12-09)"
   xmlns:inkscape="http://www.inkscape.org/namespaces/inkscape"
   xmlns:sodipodi="http://sodipodi.sourceforge.net/DTD/sodipodi-0.dtd"
   xmlns="http://www.w3.org/2000/svg"
   xmlns:svg="http://www.w3.org/2000/svg"
   xmlns:rdf="http://www.w3.org/1999/02/22-rdf-syntax-ns#"
   xmlns:cc="http://creativecommons.org/ns#"
   xmlns:dc="http://purl.org/dc/elements/1.1/">
  <sodipodi:namedview
     pagecolor="#ffffff"
     bordercolor="#666666"
     borderopacity="1"
     objecttolerance="10"
     gridtolerance="10"
     guidetolerance="10"
     inkscape:pageopacity="0"
     inkscape:pageshadow="2"
     inkscape:window-width="1920"
     inkscape:window-height="1009"
     id="namedview11"
     showgrid="true"
     inkscape:zoom="3.35"
     inkscape:cx="45.074627"
     inkscape:cy="37.014925"
     inkscape:window-x="-8"
     inkscape:window-y="-8"
     inkscape:window-maximized="1"
     inkscape:current-layer="text5282"
     inkscape:document-rotation="0"
     inkscape:pagecheckerboard="0"
     showguides="true"
     inkscape:guide-bbox="true"
     inkscape:showpageshadow="0"
     inkscape:deskcolor="#d1d1d1">
    <inkscape:grid
       type="xygrid"
       id="grid823"
       originx="0"
       originy="0" />
    <sodipodi:guide
       position="0,86"
       orientation="66,0"
       id="guide957"
       inkscape:locked="false" />
    <sodipodi:guide
       position="0,20"
       orientation="0,50"
       id="guide959"
       inkscape:locked="false" />
    <sodipodi:guide
       position="8.9999971,64.32985"
       orientation="8.5387222,0"
       id="guide1517"
       inkscape:locked="false" />
    <sodipodi:guide
       position="8.9999971,55.791128"
       orientation="0,26.227758"
       id="guide1519"
       inkscape:locked="false" />
    <sodipodi:guide
       position="95,90"
       orientation="-8.5387222,0"
       id="guide1521"
       inkscape:locked="false" />
    <sodipodi:guide
       position="70,70"
       orientation="0,-26.227758"
       id="guide1523"
       inkscape:locked="false" />
    <sodipodi:guide
       position="7.9247812,20.000001"
       orientation="0,-6.8495616"
       id="guide4054"
       inkscape:locked="false" />
    <sodipodi:guide
       position="85,75"
       orientation="0,6.8495616"
       id="guide4058"
       inkscape:locked="false" />
  </sodipodi:namedview>
  <defs
     id="defs4462" />
  <metadata
     id="metadata4465">
    <rdf:RDF>
      <cc:Work
         rdf:about="">
        <dc:format>image/svg+xml</dc:format>
        <dc:type
           rdf:resource="http://purl.org/dc/dcmitype/StillImage" />
      </cc:Work>
    </rdf:RDF>
  </metadata>
  <g
     aria-label="C"
     id="text3215"
     style="font-size:32px;line-height:1.25"
     transform="translate(-37.75,-4)">
    <g
       aria-label="A"
       id="text5282"
       transform="matrix(1.6290909,0,0,2.8292029,-41.002727,-68.776958)">
      <path
         style="fill:#666666;fill-opacity:1;stroke-width:0.231782"
         d="m 49.140123,36.220878 c 0,-0.190359 3.5032,-0.586952 5.184985,-0.586952 1.993407,0 1.406182,0.294798 -0.832024,0.417694 -1.134079,0.0623 -2.577415,0.16071 -3.207455,0.218741 -0.630039,0.058 -1.145506,0.03587 -1.145506,-0.0495 z"
         id="path12480" />
      <path
         style="fill:#666666;fill-opacity:1;stroke-width:0.231782"
         d="m 83.811119,37.543835 c -0.840015,-0.08921 -3.79547,-0.116841 -6.567608,-0.06137 -2.908837,0.05811 -5.427843,0.02947 -5.956719,-0.06778 -1.0837,-0.199291 -0.68046,-0.235428 2.291054,-0.205335 1.092072,0.01048 3.26014,-0.05741 4.817926,-0.152256 2.240088,-0.136276 3.288233,-0.117515 5.012243,0.08944 1.198885,0.143882 2.375777,0.218379 2.615263,0.165462 0.26073,-0.05765 0.384431,-0.0082 0.308223,0.123747 -0.164629,0.284944 -0.6553,0.305976 -2.520382,0.108071 z"
         id="path12478" />
      <path
         style="fill:#666666;fill-opacity:1;stroke-width:0.231782"
         d="m 84.880297,39.324487 c -0.588053,-0.07604 -1.842513,-0.239423 -2.787693,-0.363251 -1.48607,-0.194657 -2.112429,-0.182429 -4.630423,0.09049 -2.178807,0.236127 -3.13042,0.269747 -3.779956,0.133471 -0.857102,-0.179728 -0.852633,-0.182232 0.353831,-0.19864 0.672046,-0.0093 2.046659,-0.131317 3.054718,-0.271425 1.008039,-0.140086 2.406193,-0.257625 3.106959,-0.261072 1.439027,-0.0082 6.514756,0.640149 6.958309,0.887269 0.344383,0.191863 -0.72103,0.183966 -2.275745,-0.01689 z"
         id="path12476" />
      <path
         style="fill:#666666;fill-opacity:1;stroke-width:0.231782"
         d="m 82.741975,39.659112 c -0.588008,-0.07651 -1.825194,-0.0984 -2.74922,-0.04857 -1.112055,0.06021 -1.525185,0.03494 -1.221916,-0.07441 0.804802,-0.290116 3.167431,-0.368781 4.429351,-0.147387 1.448894,0.254097 1.081296,0.471066 -0.458215,0.270447 z"
         id="path12474" />
      <path
         id="path12472"
         style="fill:#666666;fill-opacity:1;stroke-width:0.231782"
         d="m 100.92788,36.879454 c -0.14116,-0.0021 -0.16305,0.0444 -0.16305,0.129784 0,0.07883 0.49972,0.280418 1.11019,0.448034 1.10673,0.303846 1.10899,0.306923 0.92555,1.199129 -0.10124,0.492155 -0.23073,0.921906 -0.28773,0.954746 -0.0571,0.03285 -0.81049,0.01199 -1.67368,-0.04694 -1.486936,-0.101374 -1.573898,-0.135836 -1.661678,-0.655137 -0.05101,-0.301494 -0.228599,-0.52648 -0.39444,-0.49981 -0.165596,0.02659 -0.257604,0.288564 -0.203814,0.582651 0.09481,0.520387 0.06632,0.53371 -1.073019,0.47979 l -1.170132,-0.05592 0.07313,-0.835317 c 0.04079,-0.459455 -0.04776,-0.835317 -0.196621,-0.835317 -0.397271,0 -0.640215,0.466462 -0.640215,1.225361 v 0.668944 l -1.684461,0.120811 c -0.926323,0.06662 -1.627728,0.17479 -1.557378,0.24024 0.07028,0.06547 3.770185,0.144708 8.220898,0.176038 6.00098,0.04228 8.14956,0.0027 8.3156,-0.151876 0.12315,-0.114662 0.0495,-0.270173 -0.16305,-0.345863 -0.22429,-0.08002 -0.32239,-0.329002 -0.23379,-0.595767 0.20935,-0.630416 -0.33301,-0.578928 -0.72533,0.06903 -0.24132,0.398456 -0.5079,0.527423 -1.09101,0.527423 -0.69486,0 -0.75369,-0.05255 -0.58866,-0.527423 0.13425,-0.386472 0.0682,-0.527423 -0.24697,-0.527423 -0.24231,0 -0.47312,0.210872 -0.52752,0.483241 -0.0806,0.402927 -0.26256,0.493159 -1.08981,0.539159 -1.10109,0.06113 -1.17305,-0.04632 -0.68817,-1.019639 0.42359,-0.850328 0.16634,-1.157883 -1.23847,-1.481479 -0.78615,-0.181146 -1.16487,-0.26372 -1.34637,-0.266473 z m -3.566739,4.036445 c -1.587346,0.0049 -2.878311,0.03977 -3.286198,0.113906 -0.505176,0.09181 1.317756,0.178539 5.010223,0.238169 3.192184,0.05161 6.055764,0.111016 6.363784,0.131856 0.33102,0.02252 0.50801,-0.05174 0.43281,-0.18156 -0.10335,-0.179085 -5.02846,-0.313219 -8.520619,-0.302371 z m -0.47117,1.401399 c -0.392536,0.0047 -0.707353,0.0824 -0.707353,0.176038 0,0.09678 0.421156,0.175348 0.935145,0.175348 0.545216,0 0.854752,-0.07275 0.74452,-0.175348 -0.103851,-0.09678 -0.523869,-0.176038 -0.933947,-0.176038 -0.01282,0 -0.0257,-1.53e-4 -0.03836,0 z" />
      <path
         id="path12472-1"
         style="font-size:32px;line-height:1.25;fill:#666666;fill-opacity:1;stroke-width:0.231782"
         d="m 71.27537,26.850126 c -0.14116,-0.0021 -0.16305,0.0444 -0.16305,0.129784 0,0.07883 0.49972,0.280418 1.11019,0.448034 1.10673,0.303846 1.10899,0.306923 0.92555,1.199129 -0.10124,0.492155 -0.23073,0.921906 -0.28773,0.954746 -0.0571,0.03285 -0.81049,0.01199 -1.67368,-0.04694 -1.48694,-0.101374 -1.5739,-0.135836 -1.66168,-0.655137 -0.051,-0.301494 -0.2286,-0.52648 -0.39444,-0.49981 -0.16559,0.02659 -0.2576,0.288564 -0.20381,0.582651 0.0948,0.520387 0.0663,0.53371 -1.07302,0.47979 l -1.170133,-0.05592 0.07313,-0.835317 c 0.04079,-0.459455 -0.04776,-0.835317 -0.196621,-0.835317 -0.397271,0 -0.640215,0.466462 -0.640215,1.225361 v 0.668944 L 64.2354,29.730935 c -0.926323,0.06662 -1.627728,0.17479 -1.557378,0.24024 0.07028,0.06547 3.770185,0.144708 8.220898,0.176038 6.00098,0.04228 8.14956,0.0027 8.3156,-0.151876 0.12315,-0.114662 0.0495,-0.270173 -0.16305,-0.345863 -0.22429,-0.08002 -0.32239,-0.329002 -0.23379,-0.595767 0.20935,-0.630416 -0.33301,-0.578928 -0.72533,0.06903 -0.24132,0.398456 -0.5079,0.527423 -1.09101,0.527423 -0.69486,0 -0.75369,-0.05255 -0.58866,-0.527423 0.13425,-0.386472 0.0682,-0.527423 -0.24697,-0.527423 -0.24231,0 -0.47312,0.210872 -0.52752,0.483241 -0.0806,0.402927 -0.26256,0.493159 -1.08981,0.539159 -1.10109,0.06113 -1.17305,-0.04632 -0.68817,-1.019639 0.42359,-0.850328 0.16634,-1.157883 -1.23847,-1.481479 -0.78615,-0.181146 -1.16487,-0.26372 -1.34637,-0.266473 z m -3.56674,4.036445 c -1.587345,0.0049 -2.87831,0.03977 -3.286197,0.113906 -0.505176,0.09182 1.317756,0.178539 5.010227,0.238169 3.19218,0.05161 6.05576,0.111016 6.36378,0.131856 0.33102,0.02252 0.50801,-0.05174 0.43281,-0.18156 -0.10335,-0.179085 -5.02846,-0.313219 -8.52062,-0.302371 z m -0.471169,1.401399 c -0.392536,0.0047 -0.707353,0.0824 -0.707353,0.176038 0,0.09678 0.421156,0.175348 0.935142,0.175348 0.54522,0 0.85476,-0.07275 0.74452,-0.175348 -0.10385,-0.09678 -0.52387,-0.176038 -0.933944,-0.176038 -0.01282,0 -0.0257,-1.53e-4 -0.03836,0 z" />
      <path
         style="fill:#666666;fill-opacity:1;stroke-width:0.231782"
         d="m 54.256769,40.94832 c -1.849104,-0.02818 -3.283823,-0.124143 -3.283823,-0.219835 0,-0.0934 0.481105,-0.169922 1.069137,-0.169922 1.238884,0 1.200478,0.04809 0.610948,-0.76428 -0.531363,-0.732173 -0.551851,-0.818536 -0.19436,-0.818536 0.145214,0 0.500219,0.356135 0.788926,0.79139 0.42213,0.636353 0.669659,0.791426 1.263396,0.791426 0.616833,0 0.738404,-0.08699 0.738404,-0.527605 0,-0.290186 0.137325,-0.527617 0.305514,-0.527617 0.167865,0 0.305453,0.237431 0.305453,0.527617 0,0.485728 0.08474,0.527605 1.069159,0.527605 1.033725,0 1.069118,-0.02201 1.069118,-0.66627 0,-0.36643 0.27995,-1.098486 0.622131,-1.626779 0.583362,-0.900743 0.610766,-0.916744 0.44005,-0.257043 -0.100315,0.386915 -0.255418,1.118949 -0.344913,1.62678 -0.157146,0.891334 -0.136516,0.923312 0.596407,0.923312 0.803284,0 1.130115,-0.283897 1.130115,-0.981668 0,-0.233903 0.155529,-0.425288 0.345681,-0.425288 0.228276,0 0.288727,0.244548 0.177977,0.720202 -0.156539,0.672314 -0.123775,0.7134 0.494332,0.617952 0.364207,-0.05625 0.83166,-0.103297 1.038862,-0.104578 0.207384,-0.0011 0.724974,-0.398095 1.150663,-0.88175 0.42569,-0.483631 0.9091,-0.879338 1.074296,-0.879338 0.394078,0 0.397193,-0.0082 -0.310611,0.791403 -0.630262,0.711734 -0.782352,1.158741 -0.381842,1.122324 0.523375,-0.04751 1.388931,0.02737 1.248773,0.107956 -0.142785,0.0821 -3.83175,0.266429 -6.518156,0.325623 -0.672046,0.01525 -2.699613,0.0035 -4.505718,-0.02294 z"
         id="path12470" />
      <path
         style="font-size:32px;line-height:1.25;fill:#666666;fill-opacity:1;stroke-width:0.231782"
         d="m 98.719254,29.274191 c -1.849104,-0.02818 -3.283823,-0.124143 -3.283823,-0.219835 0,-0.0934 0.481105,-0.169922 1.069137,-0.169922 1.238884,0 1.200478,0.04809 0.610948,-0.76428 -0.531363,-0.732173 -0.551851,-0.818536 -0.19436,-0.818536 0.145214,0 0.500219,0.356135 0.788926,0.79139 0.42213,0.636353 0.669659,0.791426 1.263396,0.791426 0.616833,0 0.738404,-0.08699 0.738404,-0.527605 0,-0.290186 0.137325,-0.527617 0.305518,-0.527617 0.16786,0 0.30545,0.237431 0.30545,0.527617 0,0.485728 0.0847,0.527605 1.06916,0.527605 1.03372,0 1.06912,-0.02201 1.06912,-0.66627 0,-0.36643 0.27995,-1.098486 0.62213,-1.626779 0.58336,-0.900743 0.61077,-0.916744 0.44005,-0.257043 -0.10032,0.386915 -0.25542,1.118949 -0.34491,1.62678 -0.15715,0.891334 -0.13652,0.923312 0.5964,0.923312 0.80329,0 1.13012,-0.283897 1.13012,-0.981668 0,-0.233903 0.15553,-0.425288 0.34568,-0.425288 0.22828,0 0.28873,0.244548 0.17798,0.720202 -0.15654,0.672314 -0.12378,0.7134 0.49433,0.617952 0.36421,-0.05625 0.83166,-0.103297 1.03886,-0.104578 0.20739,-0.0011 0.72498,-0.398095 1.15066,-0.88175 0.42569,-0.483631 0.9091,-0.879338 1.0743,-0.879338 0.39408,0 0.39719,-0.0082 -0.31061,0.791403 -0.63026,0.711734 -0.78235,1.158741 -0.38184,1.122324 0.52337,-0.04751 1.38893,0.02737 1.24877,0.107956 -0.14278,0.0821 -3.83175,0.266429 -6.51816,0.325623 -0.67204,0.01525 -2.69961,0.0035 -4.505717,-0.02294 z"
         id="path12470-5" />
      <path
         style="fill:#666666;fill-opacity:1;stroke-width:0.231782"
         d="m 57.846045,41.988752 c -0.461224,-0.11238 -0.161797,-0.174719 1.221915,-0.25469 1.00802,-0.05822 2.548697,-0.15852 3.423658,-0.222769 0.874941,-0.06428 1.837191,-0.05276 2.138296,0.02573 0.396788,0.103297 0.08494,0.176734 -1.132623,0.26679 -3.876184,0.286623 -5.07292,0.325798 -5.651246,0.184956 z"
         id="path12466" />
      <path
         style="fill:#666666;fill-opacity:1;stroke-width:0.231782"
         d="m 60.748026,42.844788 c 0,-0.09747 0.808584,-0.175849 1.814783,-0.175849 0.998169,0 1.899786,0.07908 2.003599,0.175849 0.11872,0.110401 -0.556825,0.175872 -1.814782,0.175872 -1.132077,0 -2.0036,-0.07639 -2.0036,-0.175872 z"
         id="path12462" />
      <path
         style="fill:#666666;fill-opacity:1;stroke-width:0.231782"
         d="m 87.68785,46.679941 c -0.551675,-0.317612 -8.415964,-0.816185 -13.728162,-0.870337 -1.386099,-0.01363 -2.520159,-0.09282 -2.520159,-0.174824 0,-0.147691 1.304574,-0.221011 2.716116,-0.152768 0.568678,0.02749 0.687154,-0.02993 0.534599,-0.258719 -0.107798,-0.161724 -0.195775,-0.434802 -0.195775,-0.606854 0,-0.17203 -0.350009,-0.609731 -0.77772,-0.972621 -0.427753,-0.362878 -0.726512,-0.74829 -0.663855,-0.856478 0.199617,-0.344991 2.054667,1.325134 2.249026,2.024989 0.166247,0.599216 0.28355,0.673304 1.064386,0.673304 0.818796,0 0.877366,-0.0467 0.877366,-0.697969 0,-0.562798 0.09304,-0.677368 0.480944,-0.591691 0.337611,0.07465 0.424739,0.235184 0.292328,0.538913 -0.248036,0.568843 0.306283,0.926608 1.435549,0.926608 0.812406,0 0.891868,-0.04646 0.726572,-0.425694 -0.215595,-0.494288 0.05865,-1.023605 0.456815,-0.881936 0.150472,0.05346 0.273479,0.361155 0.273479,0.683657 0,0.496489 0.398972,0.799846 1.051947,0.799846 0.04692,0 0.177168,-0.514143 0.288889,-1.142542 0.156539,-0.879932 0.09081,-1.267686 -0.285836,-1.68708 -0.687841,-0.765817 -0.344527,-0.833175 0.454189,-0.08909 0.566042,0.527326 0.632583,0.769101 0.457196,1.6616 -0.226863,1.154979 -0.302949,1.106148 2.081101,1.33771 1.066041,0.103646 1.145509,0.08117 1.145509,-0.322002 0,-0.553062 0.290038,-0.989634 0.657479,-0.989634 0.159172,0 0.202053,0.259383 0.09668,0.582841 -0.134293,0.411953 -0.05379,0.647963 0.274852,0.804912 0.61833,0.295449 1.905192,0.178375 1.767944,-0.160862 -0.610283,-1.50875 -0.12377,-2.000441 0.528819,-0.53443 0.324524,0.729006 0.522742,0.885523 1.235743,0.975683 0.467055,0.05904 0.97204,0.09421 1.122189,0.07814 0.715573,-0.07663 1.647624,0.03098 1.647624,0.190114 0,0.111682 -0.797253,0.142962 -2.146463,0.0842 -1.180561,-0.05148 -2.396673,-0.0163 -2.702446,0.0778 -0.375391,0.115757 -0.666668,0.107606 -0.896721,-0.02481 z"
         id="path12460" />
      <path
         style="fill:#666666;fill-opacity:1;stroke-width:0.231782"
         d="m 105.80512,47.553888 c -0.41627,-0.141437 -2.09549,-0.192037 -5.26941,-0.158719 -5.865527,0.06172 -6.243473,-0.245781 -0.45822,-0.372637 4.10991,-0.09002 6.98586,0.127252 7.85063,0.593298 0.43661,0.235289 -1.40665,0.181533 -2.123,-0.06196 z"
         id="path12458" />
      <path
         style="fill:#666666;fill-opacity:1;stroke-width:0.231782"
         d="m 83.20019,47.65602 c -1.512059,-0.0241 -4.330047,-0.142369 -6.262152,-0.262785 -2.856638,-0.178038 -3.31319,-0.243021 -2.443791,-0.347889 0.588033,-0.07104 2.031409,-0.05765 3.207455,0.02981 1.176066,0.08723 3.392632,0.161105 4.925725,0.164098 3.042602,0.007 4.696635,0.139468 4.696635,0.379159 0,0.08466 -0.309313,0.13764 -0.687337,0.117644 -0.378015,-0.01991 -1.924439,-0.0559 -3.436535,-0.08001 z"
         id="path12456" />
      <path
         style="fill:#666666;fill-opacity:1;stroke-width:0.231782"
         d="m 106.26075,48.656147 c -0.64977,-0.205814 -2.54111,-0.339831 -5.19046,-0.367781 -1.626071,-0.01723 -2.069379,-0.0651 -1.527354,-0.164983 1.888424,-0.348194 6.692254,-0.101317 7.198114,0.369947 0.27558,0.256727 0.0538,0.331946 -0.4803,0.162817 z"
         id="path12454" />
      <path
         style="fill:#666666;fill-opacity:1;stroke-width:0.231782"
         d="m 75.410668,48.827629 c 0,-0.09666 0.687336,-0.17586 1.52737,-0.17586 0.840032,0 1.527348,0.07908 1.527348,0.17586 0,0.09666 -0.687316,0.175884 -1.527348,0.175884 -0.840034,0 -1.52737,-0.07908 -1.52737,-0.175884 z"
         id="path12452" />
      <path
         style="fill:#666666;fill-opacity:1;stroke-width:0.231782"
         d="m 101.07029,49.003513 c 0,-0.09666 0.4124,-0.175884 0.91642,-0.175884 0.504,0 0.91642,0.07908 0.91642,0.175884 0,0.09666 -0.41242,0.17586 -0.91642,0.17586 -0.50402,0 -0.91642,-0.07908 -0.91642,-0.17586 z"
         id="path12450" />
      <path
         id="path12458-1"
         style="font-size:32px;line-height:1.25;fill:#666666;fill-opacity:1;stroke-width:0.231782"
         d="m 57.16186,26.533949 c -0.473658,0.0018 -0.968108,0.0081 -1.481846,0.01933 -5.785247,0.126856 -5.407539,0.434506 0.457982,0.372786 3.173915,-0.03332 4.852915,0.01665 5.269185,0.158089 0.71635,0.243493 2.55987,0.29742 2.12326,0.06213 -0.75667,-0.40779 -3.05297,-0.624683 -6.368581,-0.612336 z m 0.387247,0.956818 c -0.939412,0.0039 -1.813673,0.05411 -2.403805,0.162921 -0.542024,0.09988 -0.09866,0.147763 1.527405,0.164993 2.649344,0.02795 4.540294,0.162139 5.190064,0.367953 0.53409,0.169129 0.75634,0.09381 0.48076,-0.162921 -0.34778,-0.323994 -2.72772,-0.541522 -4.794424,-0.532946 z m -0.0072,0.867763 c -0.482418,0.0047 -0.869206,0.08171 -0.869206,0.175348 0,0.09678 0.411944,0.176037 0.915964,0.176037 0.503999,0 0.917162,-0.07938 0.917162,-0.176037 0,-0.0968 -0.413163,-0.175348 -0.917162,-0.175348 -0.01575,0 -0.0312,-1.53e-4 -0.04676,0 z" />
      <path
         style="fill:#666666;fill-opacity:1;stroke-width:0.231782"
         d="m 55.707749,49.584164 c -0.672047,-0.04216 -1.359342,-0.158613 -1.527348,-0.25873 -0.209953,-0.125226 0.220064,-0.148751 1.374611,-0.07547 1.401349,0.08874 1.553378,0.07349 0.916442,-0.09235 -0.420027,-0.109585 -2.035212,-0.191408 -3.589317,-0.182208 -1.636947,0.0093 -2.825633,-0.05474 -2.825633,-0.153408 0,-0.09363 0.343698,-0.170165 0.763684,-0.170165 0.8893,0 0.942693,-0.126437 0.282661,-0.668879 -0.2646,-0.217471 -0.425548,-0.491272 -0.357715,-0.608438 0.06795,-0.117109 0.495506,0.110866 0.950379,0.50655 0.669377,0.582305 0.967833,0.704048 1.565149,0.638297 0.703941,-0.07745 0.715914,-0.100618 0.259118,-0.501996 -0.384734,-0.33805 -0.396889,-0.420664 -0.06168,-0.420257 0.229226,3.5e-4 0.691886,0.23749 1.027919,0.527117 0.865253,0.745786 1.499075,0.700904 1.242039,-0.08804 -0.271435,-0.832978 0.304585,-0.793801 0.646605,0.0439 0.220287,0.539368 0.42047,0.669648 1.099495,0.71517 0.827453,0.05544 0.830223,0.05183 0.830223,-1.077664 0,-1.274451 -0.254103,-1.488336 -1.958296,-1.647555 -0.637746,-0.0595 -1.096422,-0.203157 -1.096422,-0.343231 0,-0.294158 -0.128831,-0.296102 1.758841,0.02667 1.70747,0.291922 1.987724,0.531938 1.900091,1.627257 -0.101124,1.266335 -0.02366,1.446796 0.617702,1.446796 0.336013,0 0.626803,-0.09899 0.646179,-0.219823 0.0182,-0.120894 0.0538,-0.317879 0.07625,-0.437713 0.06714,-0.355495 0.651276,-0.246981 0.661227,0.12292 0.02366,0.9187 1.21781,0.503208 1.520897,-0.529703 0.316597,-1.078886 0.875769,-1.092162 0.696235,-0.01665 -0.190921,1.144778 0.32224,1.200945 1.178816,0.129022 0.422029,-0.528211 0.531404,-0.867344 0.342344,-1.061838 -0.511705,-0.526464 -0.04449,-0.713201 0.52744,-0.210762 0.529746,0.465464 0.53282,0.52318 0.05278,0.990822 -0.911629,0.888504 -0.730233,1.004611 1.781533,1.14012 1.260079,0.06801 2.291033,0.196007 2.291033,0.284468 0,0.08839 -0.240633,0.165927 -0.534579,0.172134 -0.294007,0.007 -2.184106,0.0871 -4.200204,0.17989 -5.414475,0.249077 -7.496324,0.299316 -8.858681,0.213791 z"
         id="path12448" />
      <path
         style="fill:#666666;fill-opacity:1;stroke-width:0.231782"
         d="m 66.399251,50.953097 c -0.503999,-0.05648 -4.033491,-0.10283 -7.843278,-0.10283 -4.755615,0 -6.766395,-0.0552 -6.41491,-0.17585 0.765768,-0.263052 14.612465,-0.218123 15.076338,0.04879 0.496739,0.285993 0.265005,0.351046 -0.81815,0.22964 z"
         id="path12446" />
      <path
         style="fill:#666666;fill-opacity:1;stroke-width:0.231782"
         d="m 103.81953,52.844558 c -1.09205,-0.08955 -3.60074,-0.116852 -5.574859,-0.06067 -1.974129,0.05602 -3.589012,0.04029 -3.588672,-0.03494 8.72e-4,-0.286297 5.447931,-0.396569 10.614511,-0.214944 2.17422,0.0764 2.69082,0.19907 1.7315,0.411021 -0.54214,0.119822 -0.46296,0.122256 -3.18248,-0.100501 z"
         id="path12444" />
      <path
         style="fill:#666666;fill-opacity:1;stroke-width:0.231782"
         d="m 98.794525,53.24419 c 0.163008,-0.08956 0.825996,-0.09829 1.512085,-0.02027 l 1.22189,0.139177 -1.5121,0.02027 c -0.912161,0.01223 -1.396922,-0.04298 -1.221875,-0.139166 z"
         id="path12442" />
      <path
         style="fill:#666666;fill-opacity:1;stroke-width:0.231782"
         d="m 60.615999,53.422752 c -0.09243,-0.08618 0.298558,-0.20699 0.868955,-0.268595 1.208627,-0.130501 3.539686,0.04844 3.539686,0.271786 0,0.20232 -4.191266,0.199292 -4.408641,-0.0024 z"
         id="path12440" />
      <path
         style="font-size:32px;line-height:1.25;fill:#666666;fill-opacity:1;stroke-width:0.231782"
         d="m 65.417252,34.556705 c -0.09243,-0.08618 0.298558,-0.20699 0.868955,-0.268595 1.208627,-0.130501 3.539686,0.04844 3.539686,0.271786 0,0.20232 -4.191266,0.199292 -4.408641,-0.0024 z"
         id="path12440-7" />
      <path
         id="path12438"
         style="fill:#666666;fill-opacity:1;stroke-width:0.231782"
         d="M 79.686886 53.612717 C 78.993908 53.620917 79.008626 53.633097 79.840345 53.754928 C 81.112376 53.941282 81.815257 53.941282 81.062029 53.754928 C 80.726017 53.671778 80.106912 53.608001 79.686886 53.612717 z M 79.763615 54.827724 C 74.907813 54.808149 73.638252 55.11761 78.236211 55.199819 C 81.31279 55.254779 84.853354 55.240235 85.338523 55.170825 C 86.381043 55.021586 83.475654 54.842984 79.763615 54.827724 z " />
      <path
         style="fill:#666666;fill-opacity:1;stroke-width:0.231782"
         d="m 80.603683,54.201522 c -0.75606,-0.142357 -1.673027,-0.350592 -2.03772,-0.462798 -0.504343,-0.15512 -1.263558,-0.153443 -3.169836,0.0082 -1.785153,0.150288 -2.601038,0.156692 -2.834512,0.02213 -0.233433,-0.134413 -0.04045,-0.188752 0.670267,-0.188752 0.892192,0 0.976307,-0.04204 0.79293,-0.395707 -0.112855,-0.217645 -0.396992,-0.570986 -0.631517,-0.78523 -0.479467,-0.43797 -0.551972,-0.753624 -0.173123,-0.753624 0.139348,0 0.581763,0.403789 0.983264,0.897342 0.721637,0.887014 0.743581,0.896295 1.910283,0.806205 1.423475,-0.109935 1.546725,-0.169142 1.296585,-0.622856 -0.112247,-0.203938 -0.575291,-0.400924 -1.097048,-0.466908 -1.064203,-0.134554 -1.207495,-0.437923 -0.206676,-0.437923 0.937617,0 2.053514,0.473058 2.053514,0.870523 0,0.301366 0.558971,0.536422 1.275552,0.536422 0.19537,0 0.231815,-0.323691 0.0991,-0.879339 -0.141573,-0.592973 -0.101124,-0.879338 0.123977,-0.879338 0.183641,0 0.334132,0.18605 0.334132,0.413419 0,0.816976 0.599784,1.441602 1.591118,1.657023 0.530817,0.115524 1.023996,0.175826 1.095993,0.134426 0.07183,-0.04134 -0.0906,-0.449872 -0.361696,-0.907615 -0.532698,-0.900079 -0.66525,-2.35243 -0.214664,-2.35243 0.152899,0 0.268847,0.343884 0.257824,0.76421 -0.01214,0.420326 0.234866,1.172157 0.546149,1.670765 0.49496,0.792427 0.671863,0.906531 1.405551,0.906531 0.7824,0 0.845637,-0.05567 0.932445,-0.821623 0.05117,-0.451897 0.230638,-0.847663 0.398562,-0.879467 0.185264,-0.03517 0.263912,0.287939 0.199621,0.821623 -0.09424,0.781096 -0.03783,0.879467 0.501873,0.879467 0.63219,0 0.978578,-0.316365 0.978578,-0.893744 0,-0.185539 0.146427,-0.337329 0.32503,-0.337329 0.182631,0 0.283021,0.250242 0.228982,0.571557 -0.09061,0.540404 -0.04612,0.568493 0.820513,0.514912 1.049704,-0.06487 1.680107,-0.448648 1.680107,-1.022708 0,-0.324925 -0.332615,-0.466431 -1.840159,-0.782901 -1.012071,-0.21244 -1.787681,-0.416495 -1.723572,-0.4534 0.227342,-0.130909 3.702417,0.473547 4.126913,0.717942 0.345011,0.198616 0.362385,0.362308 0.08674,0.817384 -0.482973,0.797609 -0.469095,0.815695 0.724586,0.944612 0.647516,0.06987 1.069162,0.217704 1.069162,0.374664 0,0.183046 -0.207607,0.229186 -0.706454,0.157111 -0.960263,-0.138711 -2.48118,-0.1416 -6.624884,-0.01211 -2.683408,0.08362 -3.837511,0.04844 -4.887557,-0.149379 z"
         id="path12436" />
      <path
         id="path12438-0"
         style="font-size:32px;line-height:1.25;fill:#666666;fill-opacity:1;stroke-width:0.231782"
         d="m 90.13774,30.157569 c -0.450586,0 -0.318094,1.452616 0.214604,2.352694 0.271096,0.457743 0.433899,0.866464 0.362069,0.907804 -0.072,0.0414 -0.566181,-0.01909 -1.096998,-0.134618 -0.991333,-0.21542 -1.590947,-0.839851 -1.590947,-1.656827 0,-0.227368 -0.149654,-0.413516 -0.333295,-0.413516 -0.225101,0 -0.266259,0.286527 -0.124686,0.879499 0.132715,0.555647 0.09586,0.879499 -0.09951,0.879499 -0.716581,0 -1.274436,-0.235722 -1.274436,-0.537088 0,-0.397465 -1.116108,-0.870525 -2.053724,-0.870525 -1.000818,0 -0.857991,0.303815 0.206211,0.438369 0.521757,0.06598 0.984751,0.262735 1.096998,0.466673 0.25014,0.453714 0.127458,0.512756 -1.296016,0.622691 -1.166701,0.09009 -1.189418,0.08138 -1.911054,-0.805632 -0.401501,-0.493553 -0.843754,-0.897448 -0.983102,-0.897448 -0.378849,0 -0.305625,0.315196 0.173841,0.753166 0.234525,0.214244 0.517769,0.567967 0.630624,0.785612 0.183377,0.353667 0.09972,0.395567 -0.792476,0.395567 -0.710716,0 -0.903621,0.05405 -0.670188,0.188465 0.233474,0.134561 1.04906,0.128196 2.834211,-0.02209 1.906276,-0.161642 2.665562,-0.162713 3.169905,-0.0076 0.364692,0.112206 1.282079,0.320174 2.038138,0.462531 v 0.0014 c 1.050045,0.197819 2.203331,0.232735 4.886736,0.149115 4.1437,-0.12949 5.664886,-0.126285 6.625145,0.01243 0.49885,0.07208 0.70616,0.02565 0.70616,-0.157399 0,-0.15696 -0.42071,-0.304987 -1.068226,-0.374857 -1.19368,-0.128917 -1.20831,-0.146783 -0.725337,-0.944391 0.275644,-0.455076 0.258689,-0.618752 -0.08632,-0.817368 -0.424496,-0.244395 -3.899289,-0.848868 -4.126631,-0.717959 -0.06411,0.03691 0.710756,0.241117 1.722826,0.453557 1.507543,0.316469 1.840319,0.457926 1.840319,0.782851 0,0.574059 -0.629963,0.95753 -1.679665,1.0224 -0.866633,0.05358 -0.91186,0.02541 -0.82125,-0.514997 0.05404,-0.321315 -0.04636,-0.570915 -0.228991,-0.570915 -0.178603,0 -0.324903,0.151349 -0.324903,0.336888 0,0.577378 -0.346117,0.893996 -0.978307,0.893996 -0.539702,0 -0.596581,-0.0984 -0.502341,-0.879499 0.06429,-0.533683 -0.01375,-0.85668 -0.199018,-0.82151 -0.167924,0.0318 -0.348065,0.427603 -0.399235,0.879499 -0.08681,0.765952 -0.14915,0.82151 -0.931549,0.82151 -0.733688,0 -0.911356,-0.113996 -1.406316,-0.906422 -0.311283,-0.498608 -0.557642,-1.250999 -0.545502,-1.671325 0.01102,-0.420325 -0.104865,-0.764211 -0.257764,-0.764211 z m -3.20827,4.413373 c -4.123693,0.01817 -4.969979,0.295025 -0.659397,0.372096 3.076576,0.05496 6.617144,0.04041 7.102312,-0.029 1.042519,-0.149238 -1.862872,-0.327841 -5.574907,-0.343101 -0.303488,-0.0012 -0.593095,-0.0012 -0.868008,0 z" />
      <path
         style="fill:#666666;fill-opacity:1;stroke-width:0.231782"
         d="m 69.486633,56.251724 c -0.100113,-0.09316 0.03478,-0.217284 0.299527,-0.275792 0.779844,-0.172274 2.875244,-0.121708 2.875244,0.06941 0,0.09666 -0.46986,0.175884 -1.04414,0.175884 -0.574321,0 -1.247682,0.04496 -1.496466,0.09992 -0.248804,0.05485 -0.534134,0.02375 -0.634165,-0.06941 z"
         id="path12432" />
      <path
         style="font-size:32px;line-height:1.25;fill:#666666;fill-opacity:1;stroke-width:0.231782"
         d="m 67.838611,35.378977 c -0.100113,-0.09316 0.03478,-0.217284 0.299527,-0.275792 0.779844,-0.172274 2.875244,-0.121708 2.875244,0.06941 0,0.09666 -0.46986,0.175884 -1.04414,0.175884 -0.574321,0 -1.247682,0.04496 -1.496466,0.09992 -0.248804,0.05485 -0.534134,0.02375 -0.634165,-0.06941 z"
         id="path12432-4" />
      <path
         style="fill:#666666;fill-opacity:1;stroke-width:0.231782"
         d="m 61.556488,55.569381 c -0.11528,-0.06638 -2.875203,-0.102016 -6.132896,-0.07908 -3.883748,0.02736 -5.991303,-0.02189 -6.121288,-0.142961 -0.304968,-0.284096 12.592847,-0.339692 13.387556,-0.05776 0.144,0.05101 0.07503,0.160907 -0.152898,0.244069 -0.506994,0.184933 -0.708795,0.192305 -0.980656,0.03587 z"
         id="path12430" />
      <path
         style="fill:#666666;fill-opacity:1;stroke-width:0.231782"
         d="m 49.586805,56.027614 c 1.253507,-0.209424 9.954252,-0.337294 10.703031,-0.157333 0.427449,0.10283 0.06067,0.151195 -1.221876,0.161047 -1.008079,0.0082 -3.757343,0.04425 -6.109455,0.08082 -2.692413,0.04204 -3.941389,0.01048 -3.3717,-0.08455 z"
         id="path12428" />
      <path
         style="fill:#666666;fill-opacity:1;stroke-width:0.231782"
         d="m 51.889347,57.322154 c -1.653127,-0.170749 -1.244587,-0.387905 0.713547,-0.379228 2.027223,0.0093 2.656413,0.193352 1.34838,0.395147 -0.722527,0.111449 -0.836857,0.110517 -2.061927,-0.01595 z"
         id="path12426" />
      <path
         style="fill:#666666;fill-opacity:1;stroke-width:0.231782"
         d="m 106.11057,59.359499 c -0.52635,-0.09887 -2.67167,-0.130501 -5.04028,-0.07441 -3.209684,0.07593 -4.462461,0.03785 -5.651234,-0.17111 -1.192871,-0.209783 -2.303935,-0.242788 -5.073436,-0.15074 -2.512276,0.0835 -3.608435,0.05963 -3.76004,-0.0814 -0.149661,-0.139317 0.296594,-0.199338 1.48413,-0.199338 1.801436,0 1.964583,-0.08187 1.249603,-0.625883 -0.572806,-0.436037 -0.58019,-0.605201 -0.0265,-0.605201 0.242755,0 0.622191,0.217645 0.842944,0.483655 0.52099,0.627769 1.622772,0.739463 1.872379,0.189824 0.122358,-0.26941 -0.02362,-0.526197 -0.447206,-0.785696 -0.637926,-0.390921 -0.577479,-1.118855 0.09283,-1.118855 0.174541,0 0.230403,0.130909 0.12357,0.291141 -0.117912,0.176839 0.06372,0.449184 0.462888,0.693742 0.476331,0.291898 0.603057,0.52615 0.461014,0.852007 -0.159773,0.366115 -0.08613,0.449405 0.39586,0.449405 0.325499,0 0.809231,0.04809 1.074965,0.106674 0.376725,0.08327 0.483209,-0.01363 0.483209,-0.439681 0,-0.300527 0.137326,-0.546402 0.305451,-0.546402 0.167863,0 0.305495,0.239376 0.305495,0.531938 0,0.409204 0.180808,0.571556 0.783568,0.703478 1.066468,0.233448 1.049251,0.239294 1.049251,-0.356089 0,-0.290186 0.137326,-0.527606 0.305459,-0.527606 0.167864,0 0.305495,0.242672 0.305495,0.539299 0,0.484166 0.08578,0.533602 0.837425,0.483631 0.559068,-0.03714 0.869619,-0.172553 0.934294,-0.407388 0.211612,-0.768507 0.384272,-0.903329 0.718166,-0.560889 0.1707,0.175139 0.2346,0.432344 0.14157,0.571568 -0.12923,0.194052 0.11407,0.253119 1.04358,0.253119 1.19164,0 1.21283,-0.01048 1.24387,-0.659505 l 0.0316,-0.659515 0.30424,0.659515 c 0.16745,0.362727 0.39369,0.659003 0.50299,0.658398 0.45756,-0.0024 1.18761,-1.04721 1.05983,-1.516553 -0.13146,-0.483014 -0.1169,-0.490072 0.34077,-0.163446 0.58842,0.419999 0.59145,0.517345 0.0354,1.136276 l -0.44272,0.492925 1.67886,0.231888 c 0.92335,0.12752 1.74928,0.297499 1.83539,0.377691 0.20315,0.189101 -0.70295,0.1617 -1.86511,-0.05637 z"
         id="path12424" />
      <path
         style="fill:#666666;fill-opacity:1;stroke-width:0.231782"
         d="M 67.926641,59.931463 65.48285,59.82048 67.002615,59.66543 c 0.919476,-0.09386 2.427752,-0.08664 3.818402,0.01828 1.264246,0.09538 3.123381,0.113545 4.131461,0.04088 2.635055,-0.190568 5.424971,-0.184199 5.956699,0.01363 0.251999,0.09386 0.389467,0.172984 0.305453,0.176071 -2.372782,0.08664 -11.497982,0.09876 -13.287989,0.01735 z"
         id="path12422" />
      <path
         style="font-size:32px;line-height:1.25;fill:#666666;fill-opacity:1;stroke-width:0.231782"
         d="m 54.820146,32.646031 -2.443791,-0.110983 1.519765,-0.15505 c 0.919476,-0.09386 2.427752,-0.08664 3.818402,0.01828 1.264246,0.09538 3.123381,0.113545 4.131461,0.04088 2.635055,-0.190568 5.424971,-0.184199 5.956699,0.01363 0.251999,0.09386 0.389467,0.172984 0.305453,0.176071 -2.372782,0.08664 -11.497982,0.09876 -13.287989,0.01735 z"
         id="path12422-8" />
      <path
         style="fill:#666666;fill-opacity:1;stroke-width:0.231782"
         d="m 91.600663,60.252102 c 0,-0.29241 3.149868,-0.427254 5.269396,-0.225552 2.037191,0.193864 1.221473,0.32659 -2.061949,0.335487 -1.764097,0.0035 -3.207447,-0.04472 -3.207447,-0.109935 z"
         id="path5050" />
    </g>
  </g>
</svg>
