<?xml version="1.0" encoding="UTF-8" standalone="no"?>
<svg
   version="1.1"
   width="100"
   height="100"
   id="svg4460"
   sodipodi:docname="commanderie-r.svg"
   inkscape:version="1.2.2 (732a01da63, 2022-12-09)"
   xmlns:inkscape="http://www.inkscape.org/namespaces/inkscape"
   xmlns:sodipodi="http://sodipodi.sourceforge.net/DTD/sodipodi-0.dtd"
   xmlns="http://www.w3.org/2000/svg"
   xmlns:svg="http://www.w3.org/2000/svg"
   xmlns:rdf="http://www.w3.org/1999/02/22-rdf-syntax-ns#"
   xmlns:cc="http://creativecommons.org/ns#"
   xmlns:dc="http://purl.org/dc/elements/1.1/">
  <sodipodi:namedview
     pagecolor="#ffffff"
     bordercolor="#666666"
     borderopacity="1"
     objecttolerance="10"
     gridtolerance="10"
     guidetolerance="10"
     inkscape:pageopacity="0"
     inkscape:pageshadow="2"
     inkscape:window-width="1920"
     inkscape:window-height="1009"
     id="namedview11"
     showgrid="true"
     inkscape:zoom="11.313709"
     inkscape:cx="44.901281"
     inkscape:cy="56.922096"
     inkscape:window-x="-8"
     inkscape:window-y="-8"
     inkscape:window-maximized="1"
     inkscape:current-layer="text5282"
     inkscape:document-rotation="0"
     inkscape:pagecheckerboard="0"
     showguides="true"
     inkscape:guide-bbox="true"
     inkscape:showpageshadow="0"
     inkscape:deskcolor="#d1d1d1">
    <inkscape:grid
       type="xygrid"
       id="grid823"
       originx="0"
       originy="0" />
    <sodipodi:guide
       position="0,86"
       orientation="66,0"
       id="guide957"
       inkscape:locked="false" />
    <sodipodi:guide
       position="0,20"
       orientation="0,50"
       id="guide959"
       inkscape:locked="false" />
    <sodipodi:guide
       position="50,86"
       orientation="0,-50"
       id="guide963"
       inkscape:locked="false" />
    <sodipodi:guide
       position="8.9999971,64.32985"
       orientation="8.5387222,0"
       id="guide1517"
       inkscape:locked="false" />
    <sodipodi:guide
       position="8.9999971,55.791128"
       orientation="0,26.227758"
       id="guide1519"
       inkscape:locked="false" />
    <sodipodi:guide
       position="35,93.437165"
       orientation="-8.5387222,0"
       id="guide1521"
       inkscape:locked="false" />
    <sodipodi:guide
       position="35.227755,64.32985"
       orientation="0,-26.227758"
       id="guide1523"
       inkscape:locked="false" />
    <sodipodi:guide
       position="7.9247812,20.000001"
       orientation="0,-6.8495616"
       id="guide4054"
       inkscape:locked="false" />
    <sodipodi:guide
       position="1.0752196,74.999813"
       orientation="0,6.8495616"
       id="guide4058"
       inkscape:locked="false" />
  </sodipodi:namedview>
  <defs
     id="defs4462" />
  <metadata
     id="metadata4465">
    <rdf:RDF>
      <cc:Work
         rdf:about="">
        <dc:format>image/svg+xml</dc:format>
        <dc:type
           rdf:resource="http://purl.org/dc/dcmitype/StillImage" />
      </cc:Work>
    </rdf:RDF>
  </metadata>
  <g
     aria-label="C"
     id="text3215"
     style="font-size:32px;line-height:1.25"
     transform="translate(-37.75,-4)">
    <g
       aria-label="A"
       id="text5282"
       transform="matrix(1.6290909,0,0,2.8292029,-41.002727,-68.776958)">
      <path
         id="path979"
         style="font-size:32px;line-height:1.25;fill:#666666;stroke-width:0.262524"
         d="m 71.995302,53.876464 c -0.121801,-0.07014 -3.422915,-0.124773 -7.336027,-0.1217 -4.502375,0.004 -7.195341,-0.06933 -7.334241,-0.198809 -0.343015,-0.319573 -0.119481,-0.354908 2.582881,-0.408384 2.717234,-0.0537 2.811032,-0.09565 3.639907,-1.624746 0.342876,-0.632601 0.85523,-0.158464 0.642878,0.595022 -0.146626,0.520627 -0.09164,0.684461 0.19581,0.582185 0.22017,-0.07815 0.399972,-0.316301 0.399972,-0.528949 0,-0.223282 0.236224,-0.386636 0.559334,-0.386636 0.376354,0 0.503886,0.122101 0.389856,0.373143 -0.126441,0.278615 -0.01856,0.350233 0.430968,0.282717 0.395285,-0.05958 0.664779,0.0513 0.788691,0.324062 0.172378,0.379382 0.440689,0.414449 3.172306,0.414449 2.333386,0 3.027514,-0.06519 3.183257,-0.2988 0.109505,-0.164329 0.498782,-0.298801 0.864951,-0.298801 0.366169,0 0.755399,0.134472 0.864951,0.298801 0.150801,0.22618 0.787021,0.2988 2.617751,0.2988 h 2.4186 l -4.099039,-2.420661 c -2.254459,-1.33137 -5.155902,-3.046129 -6.447644,-3.81057 -1.990232,-1.177809 -2.404611,-1.545581 -2.715331,-2.409868 -0.201842,-0.56097 -0.666427,-1.320001 -1.032851,-1.686718 C 64.702914,41.7707 60.892997,39.43424 60.21084,39.43424 c -1.024405,0 -1.489315,0.864874 -1.081316,2.011623 0.194186,0.546329 0.222259,1.04001 0.06171,1.097066 -0.160314,0.05718 -0.952114,-0.213837 -1.759482,-0.601969 -0.807368,-0.388145 -1.921002,-0.916987 -2.474791,-1.175203 -1.147878,-0.535201 -0.973969,-0.925845 0.421826,-0.947686 1.272208,-0.01991 2.985034,-0.628006 3.107787,-1.103359 0.05545,-0.214853 -0.260493,-0.586125 -0.702271,-0.825078 -0.762383,-0.412351 -0.893882,-0.420647 -2.586547,-0.163647 -1.557802,0.236587 -1.808527,0.233087 -1.982413,-0.02779 -0.113913,-0.171062 0.229682,-0.579646 0.804213,-0.956503 0.551771,-0.361815 1.288355,-0.93573 1.636822,-1.275369 0.348467,-0.339639 0.778507,-0.589706 0.955664,-0.555694 0.17725,0.03393 0.514186,0.497355 0.748926,1.029698 0.432684,0.981097 1.533141,1.688134 2.64065,1.696617 0.798714,0.0067 1.132774,-1.015977 0.622856,-1.905579 -0.537224,-0.937173 -0.01856,-1.293764 1.050878,-0.720784 0.413845,0.221987 1.438808,0.613258 2.277705,0.86947 1.747047,0.533611 1.945524,0.905191 0.573811,1.074129 -1.689069,0.208026 -2.459154,0.458761 -3.077417,1.002044 l -0.605619,0.532168 1.538779,0.77776 c 2.583461,1.305761 8.214851,2.757549 10.696347,2.757549 0.576874,0 1.053244,0.0672 1.058603,0.149487 0.01392,0.22932 10.771586,6.52426 11.753606,6.87842 0.655011,0.236214 1.909842,0.316929 5.170216,0.332572 2.367885,0.01202 4.391872,0.07067 4.497735,0.131586 0.202306,0.11649 0.251514,0.497555 0.322205,2.493882 l 0.04315,1.221105 1.570957,-0.102063 c 1.69456,-0.109944 2.80219,-0.55393 3.35374,-1.344234 0.23263,-0.333307 0.40537,-0.407409 0.5225,-0.224111 0.34835,0.545274 1.49336,1.02088 2.45769,1.02088 0.85215,0 0.98919,0.07895 1.01409,0.5832 l 0.0299,0.583187 -9.923074,0.03019 c -13.039339,0.03981 -12.440216,0.03914 -17.015672,0.0183 -2.188315,-0.01069 -4.369901,0.0326 -4.847942,0.09472 -0.478041,0.06212 -0.968749,0.05571 -1.090457,-0.01376 z M 101.32289,53.0792 c -0.66109,-0.288113 -1.24643,-0.235853 -1.24643,0.11128 0,0.102998 0.42814,0.184595 0.95142,0.181108 0.90149,-0.0053 0.91699,-0.02137 0.29499,-0.292415 z m 2.55933,0.210898 c 0,-0.04836 -0.15567,-0.143275 -0.34598,-0.210951 -0.19024,-0.06773 -0.34596,-0.02819 -0.34596,0.0879 0,0.115956 0.15567,0.210951 0.34596,0.210951 0.19047,0 0.34598,-0.03954 0.34598,-0.0879 z m -17.964115,-0.62333 c 0.960791,-0.500628 0.891121,-2.002431 -0.125977,-2.710698 -1.077233,-0.750267 -2.306799,-0.882989 -3.437299,-0.371019 -1.072361,0.485679 -1.808318,1.617786 -1.504581,2.314551 0.390065,0.894825 1.492865,1.338396 3.031944,1.219555 0.753845,-0.05811 1.669906,-0.261796 2.035727,-0.452389 z m 2.369369,-0.334602 c -0.01392,-0.465628 -0.150105,-1.24996 -0.302693,-1.742987 -0.243115,-0.786564 -0.282393,-0.682831 -0.320302,0.846599 -0.02691,1.045808 0.09512,1.74296 0.302647,1.74296 0.190474,0 0.334431,-0.380958 0.320348,-0.846572 z m 2.101523,-0.846599 c 0,-0.931242 -0.132705,-1.693171 -0.295292,-1.693171 -0.162402,0 -0.221562,0.627458 -0.131314,1.394384 0.112058,0.953136 0.0413,1.39437 -0.22365,1.39437 -0.246131,0 -0.387768,-0.468299 -0.387768,-1.283023 0,-0.705648 -0.155674,-1.338423 -0.346008,-1.406127 -0.216691,-0.07722 -0.344199,0.345904 -0.341229,1.133617 0.007,1.636609 0.263809,2.153121 1.073567,2.153121 0.587035,0 0.651578,-0.167776 0.651578,-1.693171 z m 0.945293,-0.746995 c -0.07285,-0.465614 -0.132473,-0.08456 -0.132473,0.846599 0,0.931242 0.05962,1.3122 0.132473,0.846572 0.07285,-0.465614 0.07285,-1.22753 0,-1.693171 z m 1.534231,2.245405 c 0.242814,-0.410041 -0.130153,-2.992372 -0.432034,-2.992372 -0.174698,0 -0.317588,0.717097 -0.317588,1.593566 0,0.876456 0.142681,1.593567 0.317147,1.593567 0.174466,0 0.369046,-0.08764 0.432475,-0.194761 z m 2.241096,-0.286163 c -0.03759,-0.360666 -0.157994,-0.429277 -0.482356,-0.274407 -0.338561,0.161738 -0.432499,-0.07989 -0.432499,-1.112643 0,-0.746647 -0.150105,-1.319159 -0.345985,-1.319159 -0.201842,0 -0.345962,0.663981 -0.345962,1.593566 0,1.54824 0.0239,1.593567 0.828341,1.593567 0.658863,0 0.818156,-0.09832 0.778461,-0.480924 z m -15.30969,-1.06284 c -0.226666,-1.211887 0.608635,-2.18529 2.355774,-2.744991 l 1.281163,-0.410415 -4.687049,-2.729922 c -2.577893,-1.501469 -4.789152,-2.725967 -4.91397,-2.721118 -0.476416,0.01844 -5.070641,2.318065 -5.070641,2.538007 0,0.169165 10.682312,6.877138 11.141584,6.996394 0.03874,0.01069 -0.0093,-0.407556 -0.106722,-0.927955 z m -3.451822,-3.440353 c -0.396329,-0.0867 -1.613135,-0.742813 -2.703963,-1.45816 -1.967402,-1.29021 -1.978678,-1.304745 -1.401966,-1.811505 0.319768,-0.280979 0.665336,-0.510874 0.767904,-0.510874 0.437394,0 4.895526,2.917589 4.908889,3.212568 0.02088,0.475113 -0.738463,0.749934 -1.570864,0.567971 z m 18.75766,2.786631 C 94.937332,49.905279 94.54077,49.72325 94.54077,50.721994 c 0,0.698982 0.19697,1.062373 0.575946,1.062373 0.06287,0 0.05823,-0.361401 -0.0116,-0.803115 z M 68.959251,44.462575 c 0.487297,-0.191007 1.545924,-0.657182 2.352503,-1.035936 l 1.466556,-0.688669 -3.016911,-0.5556 c -1.659304,-0.305587 -3.078345,-0.520212 -3.153444,-0.476969 -0.189546,0.109143 1.04271,3.107393 1.276244,3.105763 0.103937,-7.88e-4 0.587731,-0.157595 1.075052,-0.348589 z" />
    </g>
  </g>
</svg>
