<?xml version="1.0" encoding="UTF-8" standalone="no"?>
<svg
   version="1.1"
   width="100"
   height="100"
   id="svg4460"
   sodipodi:docname="chapelle-r.svg"
   inkscape:version="1.2.2 (732a01da63, 2022-12-09)"
   xmlns:inkscape="http://www.inkscape.org/namespaces/inkscape"
   xmlns:sodipodi="http://sodipodi.sourceforge.net/DTD/sodipodi-0.dtd"
   xmlns="http://www.w3.org/2000/svg"
   xmlns:svg="http://www.w3.org/2000/svg"
   xmlns:rdf="http://www.w3.org/1999/02/22-rdf-syntax-ns#"
   xmlns:cc="http://creativecommons.org/ns#"
   xmlns:dc="http://purl.org/dc/elements/1.1/">
  <sodipodi:namedview
     pagecolor="#ffffff"
     bordercolor="#666666"
     borderopacity="1"
     objecttolerance="10"
     gridtolerance="10"
     guidetolerance="10"
     inkscape:pageopacity="0"
     inkscape:pageshadow="2"
     inkscape:window-width="1920"
     inkscape:window-height="1009"
     id="namedview11"
     showgrid="true"
     inkscape:zoom="2.8284271"
     inkscape:cx="57.805979"
     inkscape:cy="18.031223"
     inkscape:window-x="-8"
     inkscape:window-y="-8"
     inkscape:window-maximized="1"
     inkscape:current-layer="text5282"
     inkscape:document-rotation="0"
     inkscape:pagecheckerboard="0"
     showguides="true"
     inkscape:guide-bbox="true"
     inkscape:showpageshadow="0"
     inkscape:deskcolor="#d1d1d1">
    <inkscape:grid
       type="xygrid"
       id="grid823"
       originx="0"
       originy="0" />
    <sodipodi:guide
       position="0,86"
       orientation="66,0"
       id="guide957"
       inkscape:locked="false" />
    <sodipodi:guide
       position="0,20"
       orientation="0,50"
       id="guide959"
       inkscape:locked="false" />
    <sodipodi:guide
       position="50,20"
       orientation="-66,0"
       id="guide961"
       inkscape:locked="false" />
    <sodipodi:guide
       position="50,86"
       orientation="0,-50"
       id="guide963"
       inkscape:locked="false" />
    <sodipodi:guide
       position="8.9999971,64.32985"
       orientation="8.5387222,0"
       id="guide1517"
       inkscape:locked="false" />
    <sodipodi:guide
       position="8.9999971,55.791128"
       orientation="0,26.227758"
       id="guide1519"
       inkscape:locked="false" />
    <sodipodi:guide
       position="35,93.437165"
       orientation="-8.5387222,0"
       id="guide1521"
       inkscape:locked="false" />
    <sodipodi:guide
       position="35.227755,64.32985"
       orientation="0,-26.227758"
       id="guide1523"
       inkscape:locked="false" />
    <sodipodi:guide
       position="7.9247812,20.000001"
       orientation="0,-6.8495616"
       id="guide4054"
       inkscape:locked="false" />
    <sodipodi:guide
       position="1.0752196,74.999813"
       orientation="0,6.8495616"
       id="guide4058"
       inkscape:locked="false" />
  </sodipodi:namedview>
  <defs
     id="defs4462" />
  <metadata
     id="metadata4465">
    <rdf:RDF>
      <cc:Work
         rdf:about="">
        <dc:format>image/svg+xml</dc:format>
        <dc:type
           rdf:resource="http://purl.org/dc/dcmitype/StillImage" />
      </cc:Work>
    </rdf:RDF>
  </metadata>
  <g
     aria-label="C"
     id="text3215"
     style="font-size:32px;line-height:1.25"
     transform="translate(-37.75,-4)">
    <g
       aria-label="A"
       id="text5282"
       transform="matrix(1.6290909,0,0,2.8292029,-41.002727,-68.776958)">
      <path
         id="path1711"
         style="font-size:32px;line-height:1.25;fill:#666666;stroke-width:0.262524"
         d="m 60.724813,53.722604 c -3.51321,-0.0365 -5.261091,-0.125695 -5.180772,-0.264428 0.06658,-0.115154 1.181726,-0.224827 2.477946,-0.243729 2.116835,-0.03086 2.441685,-0.09126 3.191377,-0.593263 0.459063,-0.307396 0.834651,-0.688359 0.834651,-0.846587 0,-0.158237 0.155673,-0.287688 0.345985,-0.287688 0.190242,0 0.348374,0.291326 0.351275,0.647389 0.0023,0.468949 0.09257,0.568046 0.321624,0.359527 0.2707,-0.246409 0.518572,-0.232067 1.720645,0.0996 0.772382,0.213104 1.406073,0.454691 1.408254,0.536859 0.0021,0.08216 1.185067,0.149399 2.628608,0.149399 h 2.624619 l -0.09976,-2.688295 c -0.0587,-1.585531 0.03526,-2.709081 0.229682,-2.738958 0.190938,-0.02938 0.365171,0.91139 0.414541,2.240103 0.129458,3.487039 -0.31884,3.18715 4.765234,3.18715 l 4.318142,1e-6 -0.007,-3.535743 c -0.0023,-1.944658 -0.140362,-3.658354 -0.30513,-3.808214 -0.241908,-0.219843 -1.485626,-0.03782 -6.439129,0.942355 -3.376631,0.668156 -6.27529,1.166444 -6.441496,1.107305 -0.732176,-0.260534 -0.168202,-0.614889 1.514209,-0.951531 0.999001,-0.199887 4.930233,-1.016635 8.735998,-1.814999 3.805788,-0.798361 7.514158,-1.561221 8.240766,-1.695244 1.026587,-0.189348 1.266385,-0.316951 1.075516,-0.572318 -0.421432,-0.56384 -0.586339,-1.424094 -0.273716,-1.426941 0.164258,-0.0016 0.632461,-0.05426 1.040275,-0.117278 0.613948,-0.09484 0.811729,0.0079 1.14985,0.597857 0.405563,0.70753 0.415168,0.710377 1.403706,0.416061 1.27933,-0.380894 1.941,-0.375265 2.203604,0.01874 0.35487,0.532418 0.255109,0.608586 -1.147599,0.875094 -1.276662,0.242584 -1.336705,0.289016 -1.007192,0.778871 0.619539,0.921065 0.608333,1.212261 -0.05452,1.416488 -1.038094,0.319869 -1.308447,0.242657 -1.730946,-0.494413 -0.218778,-0.381927 -0.549103,-0.748165 -0.73373,-0.81386 -0.303598,-0.108021 -5.495507,0.868482 -5.495507,1.03361 0,0.134813 3.443261,1.072257 3.938447,1.072257 0.275804,0 0.553557,0.07943 0.616987,0.17654 0.06357,0.09709 1.633295,0.597611 3.488617,1.112252 1.855322,0.51464 3.373313,1.023889 3.373313,1.131664 0,0.214785 -1.354545,0.03399 -1.885598,-0.251678 -0.18073,-0.09725 -0.531076,-0.17681 -0.77846,-0.17681 -0.512772,0 -0.566364,0.800211 -0.223419,3.336547 l 0.222027,1.643373 h 1.618331 c 1.80637,0 2.854811,-0.464891 3.25701,-1.444177 0.259309,-0.631403 0.903765,-0.739557 0.903765,-0.151676 0,0.521616 1.014824,1.190067 1.607799,1.059056 0.273693,-0.06049 0.468111,0.02944 0.468111,0.216687 0,0.246589 0.357562,0.320108 1.556897,0.320108 0.8563,0 1.55692,0.08964 1.55692,0.199195 0,0.127739 -3.257775,0.199128 -9.082006,0.199004 -4.995054,-1.04e-4 -13.207795,0.0223 -18.25048,0.0498 -5.042638,0.02749 -11.554338,0.02522 -14.470467,-0.0049 z m 1.323202,-0.753473 c 0,-0.170804 -0.155674,-0.255153 -0.345962,-0.18744 -0.190474,0.06772 -0.346008,0.207458 -0.346008,0.310551 0,0.103091 0.155674,0.18744 0.346008,0.18744 0.190242,0 0.345962,-0.13975 0.345962,-0.310551 z m 20.613817,-3.421677 c -0.136417,-2.249171 -0.374846,-3.81246 -0.600329,-3.934137 -0.267707,-0.14453 -0.315407,0.732253 -0.167273,3.084837 0.113913,1.807712 0.210194,3.578074 0.213674,3.934138 0.0023,0.356065 0.18073,0.64739 0.393383,0.64739 0.279099,0 0.323666,-1.038086 0.160313,-3.732228 z m 1.488295,2.088854 c -0.07865,-3.171606 -0.462613,-5.592723 -0.900633,-5.675954 -0.325777,-0.06192 -0.380182,0.662654 -0.238034,3.171351 0.200218,3.535965 0.324293,4.147977 0.839941,4.147977 0.197898,0 0.322413,-0.685967 0.298888,-1.643374 z m 1.316729,-1.643237 c -0.195114,-3.255682 -0.30745,-3.685277 -0.963413,-3.685277 -0.20509,0 -0.276083,0.608467 -0.180498,1.543774 0.087,0.849077 0.170522,2.417752 0.185834,3.485946 0.0239,1.655273 0.111129,1.942168 0.59156,1.942168 0.505927,0 0.543395,-0.335996 0.366493,-3.286611 z m 1.470036,0.248859 c -0.05661,-2.787535 -0.275202,-3.535744 -1.03255,-3.535744 -0.264111,0 -0.0747,5.802436 0.206482,6.324499 0.07378,0.136953 0.303691,0.248997 0.511032,0.248997 0.258102,0 0.357399,-0.957554 0.315059,-3.037752 z m 1.306172,0.121433 c -0.121337,-1.724148 -0.36313,-3.006671 -0.591466,-3.13735 -0.284203,-0.162638 -0.364406,0.331559 -0.303854,1.870527 0.119249,3.034444 0.321207,4.183134 0.735076,4.183134 0.249426,0 0.300258,-0.92666 0.160082,-2.916311 z m 2.521331,1.151342 c 0,-0.970732 -0.09883,-2.180853 -0.219938,-2.689157 -0.410528,-1.72445 -0.712131,-0.934472 -0.616778,1.615571 l 0.09512,2.539761 -0.407558,-2.673714 c -0.266501,-1.747999 -0.55379,-2.70138 -0.829919,-2.753622 -0.32471,-0.06144 -0.378024,0.533995 -0.23061,2.574115 0.105561,1.459713 0.251815,2.766072 0.325035,2.903018 0.07308,0.136953 0.527318,0.248997 1.009024,0.248997 0.871192,0 0.875809,-0.0094 0.875809,-1.764969 z" />
    </g>
  </g>
</svg>
