<?xml version="1.0" encoding="UTF-8" standalone="no"?>
<svg
   version="1.1"
   width="100"
   height="100"
   id="svg4460"
   sodipodi:docname="moulin-p.svg"
   inkscape:version="1.2.2 (732a01da63, 2022-12-09)"
   xmlns:inkscape="http://www.inkscape.org/namespaces/inkscape"
   xmlns:sodipodi="http://sodipodi.sourceforge.net/DTD/sodipodi-0.dtd"
   xmlns="http://www.w3.org/2000/svg"
   xmlns:svg="http://www.w3.org/2000/svg"
   xmlns:rdf="http://www.w3.org/1999/02/22-rdf-syntax-ns#"
   xmlns:cc="http://creativecommons.org/ns#"
   xmlns:dc="http://purl.org/dc/elements/1.1/">
  <sodipodi:namedview
     pagecolor="#ffffff"
     bordercolor="#666666"
     borderopacity="1"
     objecttolerance="10"
     gridtolerance="10"
     guidetolerance="10"
     inkscape:pageopacity="0"
     inkscape:pageshadow="2"
     inkscape:window-width="1920"
     inkscape:window-height="1009"
     id="namedview11"
     showgrid="true"
     inkscape:zoom="16"
     inkscape:cx="51.4375"
     inkscape:cy="74.25"
     inkscape:window-x="-8"
     inkscape:window-y="-8"
     inkscape:window-maximized="1"
     inkscape:current-layer="text5282"
     inkscape:document-rotation="0"
     inkscape:pagecheckerboard="0"
     showguides="true"
     inkscape:guide-bbox="true"
     inkscape:showpageshadow="0"
     inkscape:deskcolor="#d1d1d1">
    <inkscape:grid
       type="xygrid"
       id="grid823"
       originx="0"
       originy="0" />
    <sodipodi:guide
       position="0,86"
       orientation="66,0"
       id="guide957"
       inkscape:locked="false" />
    <sodipodi:guide
       position="0,20"
       orientation="0,50"
       id="guide959"
       inkscape:locked="false" />
    <sodipodi:guide
       position="50,86"
       orientation="0,-50"
       id="guide963"
       inkscape:locked="false" />
    <sodipodi:guide
       position="8.9999971,64.32985"
       orientation="8.5387222,0"
       id="guide1517"
       inkscape:locked="false" />
    <sodipodi:guide
       position="8.9999971,55.791128"
       orientation="0,26.227758"
       id="guide1519"
       inkscape:locked="false" />
    <sodipodi:guide
       position="35,93.437165"
       orientation="-8.5387222,0"
       id="guide1521"
       inkscape:locked="false" />
    <sodipodi:guide
       position="35.227755,64.32985"
       orientation="0,-26.227758"
       id="guide1523"
       inkscape:locked="false" />
    <sodipodi:guide
       position="7.9247812,20.000001"
       orientation="0,-6.8495616"
       id="guide4054"
       inkscape:locked="false" />
    <sodipodi:guide
       position="1.0752196,74.999813"
       orientation="0,6.8495616"
       id="guide4058"
       inkscape:locked="false" />
  </sodipodi:namedview>
  <defs
     id="defs4462" />
  <metadata
     id="metadata4465">
    <rdf:RDF>
      <cc:Work
         rdf:about="">
        <dc:format>image/svg+xml</dc:format>
        <dc:type
           rdf:resource="http://purl.org/dc/dcmitype/StillImage" />
      </cc:Work>
    </rdf:RDF>
  </metadata>
  <g
     aria-label="C"
     id="text3215"
     style="font-size:32px;line-height:1.25"
     transform="translate(-37.75,-4)">
    <g
       aria-label="A"
       id="text5282"
       transform="matrix(1.6290909,0,0,2.8292029,-41.002727,-68.776958)">
      <path
         id="path623"
         style="font-size:32px;line-height:1.25;fill:#666666;stroke-width:0.262524"
         d="m 88.286007,53.788951 c -0.05174,-0.02979 -6.926567,-0.09405 -15.276815,-0.142407 -10.019574,-0.05824 -15.222804,-0.158117 -15.301569,-0.294178 -0.06566,-0.113418 0.129225,-0.206076 0.433195,-0.206076 1.342898,0 2.653061,-0.703364 2.968353,-1.59358 0.272811,-0.770573 0.872537,-0.587661 0.750341,0.228893 -0.123425,0.824851 0.50732,1.206544 1.153307,0.69794 0.561538,-0.442155 0.783448,-0.414809 0.965825,0.118895 l 0.153121,0.448167 0.257198,-0.448167 c 0.318864,-0.55552 0.868524,-0.587034 0.868524,-0.04969 0,0.373477 0.23061,0.398378 3.687583,0.398378 h 3.687629 l -0.21669,-4.309541 c -0.119249,-2.370245 -0.298587,-4.356699 -0.398696,-4.414316 -0.100225,-0.05758 -0.455374,0.03326 -0.78955,0.202135 -0.584994,0.295474 -5.04533,1.749051 -5.366954,1.749051 -0.08631,0 -0.818852,-0.543163 -1.627635,-1.206997 -0.808807,-0.663848 -1.767254,-1.366157 -2.129897,-1.560677 -0.647518,-0.347307 -0.645941,-0.360559 0.087,-0.735172 0.565366,-0.288968 0.784979,-0.317863 0.905412,-0.119028 0.08746,0.144304 0.498874,0.48982 0.914181,0.767834 l 0.755191,0.505477 3.977516,-1.092537 c 4.988141,-1.370125 5.447715,-1.747823 3.35234,-2.755157 -1.392431,-0.669419 -6.181375,-2.66648 -7.394121,-3.083468 -0.585643,-0.201373 -0.547989,-0.277252 0.54379,-1.095583 0.645152,-0.483569 1.558731,-1.122649 2.030159,-1.420154 0.837389,-0.528441 0.879846,-0.53321 1.841773,-0.206049 1.049996,0.357113 1.282834,0.647377 0.519314,0.647377 -0.256014,0 -0.759877,0.187373 -1.119851,0.416386 -0.642159,0.408531 -0.64202,0.42165 0.007,0.694827 0.363779,0.153121 1.805836,0.919633 3.2046,1.703311 1.398719,0.783651 2.597892,1.389775 2.664778,1.346933 0.446581,-0.286056 1.630466,-1.890711 2.261976,-3.06586 0.588543,-1.09525 0.73199,-1.810477 0.6687,-3.333935 -0.04431,-1.066742 0.0116,-1.993 0.125977,-2.058352 0.113681,-0.06546 0.491822,0.03019 0.84066,0.212261 2.104562,1.098549 4.856457,2.110158 6.035562,2.218713 0.73199,0.06733 1.604643,0.237777 1.939214,0.378634 0.546644,0.230135 0.485952,0.268595 -0.598241,0.379088 -0.663573,0.0676 -2.218522,0.0525 -3.455395,-0.03353 C 78.719804,33.435823 78.405,33.501723 78.405,34.475566 c 0,0.452496 0.483934,1.589158 1.0754,2.525904 0.59149,0.936772 1.150824,1.837675 1.243022,2.002004 0.128297,0.228786 0.300141,0.182109 0.733359,-0.199196 0.810616,-0.71349 4.989464,-3.206063 5.267101,-3.141659 0.128297,0.02966 1.602138,0.793991 3.275176,1.698288 2.978905,1.610185 3.028955,1.652399 2.416905,2.041773 -0.82644,0.52577 -1.06203,0.503327 -1.74939,-0.166573 -1.139013,-1.110145 -1.683476,-1.142767 -4.275707,-0.256105 -1.283483,0.439003 -2.534625,0.937627 -2.780292,1.108034 -0.245505,0.170367 -0.65188,0.309822 -0.902767,0.309822 -0.821474,0 -0.889705,0.379769 -0.223882,1.24634 0.59367,0.772737 0.992111,0.95323 4.25622,1.928222 1.98065,0.591643 3.936148,1.062333 4.345568,1.045995 1.06995,-0.04261 0.68881,0.651197 -0.915554,1.666894 -0.701899,0.444373 -1.436094,0.972454 -1.631555,1.173533 -0.267986,0.275623 -0.583115,0.332706 -1.280514,0.231926 -1.167621,-0.168644 -1.490359,-0.629342 -0.764494,-1.091109 0.308517,-0.19627 0.560936,-0.458614 0.560936,-0.582986 0,-0.223349 -2.333688,-1.236481 -2.848153,-1.236481 -0.303041,0 -0.284783,3.100006 0.03619,6.139255 l 0.217155,2.055694 3.286822,0.03594 3.286827,0.03593 0.51899,-0.64266 c 0.57179,-0.70812 1.2732,-0.762705 1.10266,-0.08577 -0.0596,0.23632 0.0573,0.429678 0.25961,0.429678 0.2023,0 0.36774,-0.134471 0.36774,-0.298787 0,-0.339946 0.542362,-0.400115 0.868412,-0.09632 0.11972,0.11128 0.35446,0.153628 0.52203,0.09405 0.16751,-0.05958 0.48874,0.08964 0.71364,0.331437 0.37468,0.40312 0.44438,0.411897 0.83393,0.105135 0.431362,-0.339639 1.211032,-0.458347 1.217022,-0.185303 0.002,0.08216 0.69623,0.324784 1.54316,0.539116 0.84692,0.214358 1.469553,0.430226 1.383573,0.479721 -0.16519,0.09512 -11.915903,0.16537 -12.077748,0.07214 z m -6.359483,-1.444547 c 1.263368,-0.727357 1.14094,-1.366464 -0.437812,-2.285749 -0.960489,-0.559287 -1.182979,-0.595757 -3.471078,-0.569186 -1.344639,0.0155 -2.602787,0.119429 -2.795859,0.230549 -0.562119,0.323635 -0.873559,1.488792 -0.547758,2.049375 0.401666,0.691087 2.118018,1.149354 4.362872,1.164863 1.605015,0.01069 1.978167,-0.06506 2.889635,-0.589852 z m 1.215738,-5.238151 c -0.117857,-1.569026 -0.30629,-2.991237 -0.419066,-3.160455 -0.171218,-0.256733 -0.977286,-0.306803 -4.87033,-0.302501 -2.565922,0.004 -4.743959,0.07842 -4.840124,0.167949 -0.09628,0.08964 -0.06659,1.422264 0.06566,2.96154 0.236526,2.750401 0.251815,2.791747 0.890123,2.397243 0.357237,-0.220771 1.019742,-0.454887 1.472239,-0.520279 0.452474,-0.06546 0.894833,-0.277734 0.983017,-0.471906 0.124817,-0.274621 0.496972,-0.348296 1.6761,-0.331717 1.273902,0.0179 1.5327,0.08977 1.621882,0.449997 0.06194,0.251149 0.517504,0.526812 1.099435,0.665598 0.546273,0.13025 1.262209,0.40797 1.590886,0.617078 0.328678,0.209095 0.675544,0.380184 0.770851,0.380184 0.09535,0 0.07703,-1.283759 -0.04083,-2.852798 z m -5.948376,-0.115155 c -1.502144,-0.129849 -1.406304,0.0155 -1.262834,-1.912418 l 0.05174,-0.697192 h 1.75287 1.752847 l -0.154746,1.336646 c -0.08514,0.735158 -0.289887,1.349217 -0.45542,1.36462 -0.165418,0.0155 -0.923648,-0.02592 -1.684824,-0.09164 z m 4.675635,-3.954179 c 0.0093,-0.310249 -4.299768,-6.424095 -4.528615,-6.424095 -0.132009,0 -0.594598,0.51543 -1.028373,1.145386 -0.433774,0.629956 -0.900424,1.235011 -1.03698,1.344569 -0.13665,0.109677 -0.64144,0.871486 -1.121917,1.693171 -0.480476,0.821684 -0.97833,1.644223 -1.106279,1.827829 -0.178874,0.25664 -0.007,0.353399 0.746026,0.41835 1.760039,0.151905 8.071103,0.147938 8.076138,-0.0053 z" />
    </g>
  </g>
</svg>
