<?xml version="1.0" encoding="UTF-8" standalone="no"?>
<svg
   version="1.1"
   width="100"
   height="100"
   id="svg4460"
   sodipodi:docname="commanderie.svg"
   inkscape:version="1.2.2 (732a01da63, 2022-12-09)"
   xmlns:inkscape="http://www.inkscape.org/namespaces/inkscape"
   xmlns:sodipodi="http://sodipodi.sourceforge.net/DTD/sodipodi-0.dtd"
   xmlns="http://www.w3.org/2000/svg"
   xmlns:svg="http://www.w3.org/2000/svg"
   xmlns:rdf="http://www.w3.org/1999/02/22-rdf-syntax-ns#"
   xmlns:cc="http://creativecommons.org/ns#"
   xmlns:dc="http://purl.org/dc/elements/1.1/">
  <sodipodi:namedview
     pagecolor="#ffffff"
     bordercolor="#666666"
     borderopacity="1"
     objecttolerance="10"
     gridtolerance="10"
     guidetolerance="10"
     inkscape:pageopacity="0"
     inkscape:pageshadow="2"
     inkscape:window-width="1920"
     inkscape:window-height="1009"
     id="namedview11"
     showgrid="true"
     inkscape:zoom="11.313709"
     inkscape:cx="44.945475"
     inkscape:cy="56.922096"
     inkscape:window-x="-8"
     inkscape:window-y="-8"
     inkscape:window-maximized="1"
     inkscape:current-layer="text5282"
     inkscape:document-rotation="0"
     inkscape:pagecheckerboard="0"
     showguides="true"
     inkscape:guide-bbox="true"
     inkscape:showpageshadow="0"
     inkscape:deskcolor="#d1d1d1">
    <inkscape:grid
       type="xygrid"
       id="grid823"
       originx="0"
       originy="0" />
    <sodipodi:guide
       position="0,86"
       orientation="66,0"
       id="guide957"
       inkscape:locked="false" />
    <sodipodi:guide
       position="0,20"
       orientation="0,50"
       id="guide959"
       inkscape:locked="false" />
    <sodipodi:guide
       position="50,86"
       orientation="0,-50"
       id="guide963"
       inkscape:locked="false" />
    <sodipodi:guide
       position="8.9999971,64.32985"
       orientation="8.5387222,0"
       id="guide1517"
       inkscape:locked="false" />
    <sodipodi:guide
       position="8.9999971,55.791128"
       orientation="0,26.227758"
       id="guide1519"
       inkscape:locked="false" />
    <sodipodi:guide
       position="35,93.437165"
       orientation="-8.5387222,0"
       id="guide1521"
       inkscape:locked="false" />
    <sodipodi:guide
       position="35.227755,64.32985"
       orientation="0,-26.227758"
       id="guide1523"
       inkscape:locked="false" />
    <sodipodi:guide
       position="7.9247812,20.000001"
       orientation="0,-6.8495616"
       id="guide4054"
       inkscape:locked="false" />
    <sodipodi:guide
       position="1.0752196,74.999813"
       orientation="0,6.8495616"
       id="guide4058"
       inkscape:locked="false" />
  </sodipodi:namedview>
  <defs
     id="defs4462" />
  <metadata
     id="metadata4465">
    <rdf:RDF>
      <cc:Work
         rdf:about="">
        <dc:format>image/svg+xml</dc:format>
        <dc:type
           rdf:resource="http://purl.org/dc/dcmitype/StillImage" />
      </cc:Work>
    </rdf:RDF>
  </metadata>
  <g
     aria-label="C"
     id="text3215"
     style="font-size:32px;line-height:1.25"
     transform="translate(-37.75,-4)">
    <g
       aria-label="A"
       id="text5282"
       transform="matrix(1.6290909,0,0,2.8292029,-41.002727,-68.776958)">
      <path
         id="path945"
         style="font-size:32px;line-height:1.25;fill:#666666;stroke-width:0.262524"
         d="m 55.15756,53.632085 c -0.357306,-0.205796 -0.07308,-0.440366 0.752175,-0.621046 0.502076,-0.109945 1.068022,-0.458173 1.286777,-0.791854 0.424031,-0.646762 1.111291,-0.838544 0.767023,-0.214038 -0.115769,0.209897 -0.04826,0.439284 0.149641,0.509752 0.204626,0.07281 0.360068,-0.04863 0.360068,-0.282048 0,-0.559541 0.685056,-0.523311 0.719253,0.03794 0.01392,0.246513 0.105793,0.336152 0.201842,0.199195 0.273693,-0.390336 0.808806,-0.291479 0.808806,0.149314 0,0.342417 0.230843,0.398472 1.643411,0.398872 l 1.643412,3.88e-4 -0.111826,-1.808954 c -0.09048,-1.467818 -0.204625,-1.788407 -0.605456,-1.69989 -0.94984,0.209856 -0.481497,-0.404484 0.937336,-1.229548 1.493491,-0.868467 1.805325,-0.92885 5.921022,-1.146588 l 2.335381,-0.123571 v -2.990755 c 0,-2.823221 -0.03874,-2.996581 -0.69197,-3.09493 -0.380553,-0.05731 -0.691947,-0.151223 -0.691947,-0.208814 0,-0.05744 0.593114,-0.652159 1.318005,-1.321364 1.884067,-1.739233 2.491542,-2.570455 2.731687,-3.737937 l 0.211354,-1.027025 -1.352039,0.124639 c -1.23808,0.114219 -2.304386,0.586593 -2.642598,1.170741 -0.07818,0.134993 -0.321184,0.165197 -0.582001,0.07254 -0.333364,-0.118627 -0.387003,-0.48628 -0.20973,-1.438749 0.164257,-0.883042 0.109737,-1.368427 -0.176322,-1.566741 -0.328979,-0.228212 -0.300768,-0.312387 0.137113,-0.409119 0.359372,-0.07935 0.869058,0.09565 1.46412,0.502778 0.79129,0.54144 2.480777,1.20788 3.062059,1.20788 0.364429,0 0.186761,-0.820376 -0.29346,-1.354949 -0.265921,-0.296101 -0.807182,-0.706997 -1.202769,-0.913113 -0.395564,-0.206102 -0.658655,-0.431161 -0.584646,-0.50012 0.155906,-0.145172 5.726094,-0.08964 5.985519,0.05971 0.09535,0.05491 -0.374359,0.468366 -1.043917,0.918738 -1.203999,0.809822 -1.780548,1.524006 -1.340718,1.660695 0.59019,0.183446 2.47319,-0.334215 3.62232,-0.995818 0.701459,-0.403869 1.337215,-0.696952 1.412755,-0.651318 0.223882,0.13534 0.399577,3.569013 0.182586,3.568986 -0.109505,-1.3e-5 -0.565088,-0.224257 -1.012272,-0.498316 -0.447185,-0.27406 -1.369556,-0.587315 -2.049694,-0.696097 -1.627681,-0.26026 -1.755584,-0.253073 -1.755584,0.09886 0,0.164328 -0.132473,0.2988 -0.294388,0.2988 -0.307008,0 0.04246,1.599511 0.5008,2.290758 0.145002,0.219114 0.600956,0.712128 1.012713,1.095584 0.411781,0.383443 1.027422,0.958895 1.368094,1.278775 0.507598,0.476609 0.638981,1.123838 0.727861,3.585538 0.144305,3.991157 0.452961,5.794473 0.94404,5.511744 0.20741,-0.119296 1.28223,-0.217031 2.388719,-0.217031 1.898381,0 2.050412,-0.03647 2.697327,-0.647389 0.377097,-0.356057 0.686193,-0.714612 0.686889,-0.79677 6.73e-4,-0.08216 -1.322088,-0.149487 -2.939538,-0.149487 -2.318677,0 -2.940837,-0.06025 -2.940837,-0.284693 0,-0.232674 0.742894,-0.278175 4.065283,-0.248999 l 4.065236,0.03567 2.420645,1.328698 c 1.33134,0.730776 2.30278,1.396535 2.15875,1.47944 -0.14384,0.08283 -0.72728,-0.105936 -1.29617,-0.419766 l -1.03431,-0.570535 v 0.960925 0.960925 l 2.23195,-0.103265 2.232,-0.103265 0.23442,1.370645 0.23444,1.370659 h 3.394679 c 3.075561,0 4.338251,0.176779 3.469891,0.485759 -0.36542,0.129983 -47.412534,0.256867 -47.635581,0.12838 z m 2.277775,-0.813389 c 0,-0.109677 -0.06867,-0.199196 -0.152657,-0.199196 -0.08398,0 -0.248823,0.08964 -0.366425,0.199196 -0.117393,0.109544 -0.04895,0.199196 0.152658,0.199196 0.201378,0 0.366424,-0.08964 0.366424,-0.199196 z m 8.218796,-0.248998 c -0.0239,-0.2465 -0.0116,-0.739513 0.02088,-1.09557 0.05846,-0.598149 0.15405,-0.647403 1.256223,-0.647403 h 1.192839 l 0.104633,1.045794 0.104633,1.045782 2.178525,0.05958 2.178478,0.05958 -0.967566,-0.841777 c -0.723568,-0.629526 -0.967565,-1.084039 -0.967565,-1.802512 v -0.960725 h -3.37329 -3.373312 v 0.868575 c 0,1.719501 0.390483,2.716963 1.063614,2.716963 0.428462,0 0.610421,-0.140175 0.58156,-0.448207 z m 11.903339,0.231965 c 1.053267,-0.324543 2.103843,-1.82294 1.703338,-2.429424 -0.703269,-1.065005 -3.884298,-1.946952 -5.632806,-1.561719 -0.513351,0.113017 -1.19277,0.433606 -1.509801,0.712181 -1.149293,1.009885 0.134793,2.907663 2.270165,3.355015 0.890889,0.186652 2.436952,0.149487 3.169104,-0.07615 z m 2.020601,0.01723 c 0,-0.109677 -0.06867,-0.199195 -0.152658,-0.199195 -0.08398,0 -0.248822,0.08964 -0.366401,0.199195 -0.117393,0.109678 -0.04895,0.199196 0.152658,0.199196 0.201378,0 0.366401,-0.08964 0.366401,-0.199196 z m 1.729878,-1.482219 c 0,-0.924776 -0.155673,-1.736828 -0.345962,-1.804518 -0.220866,-0.07855 -0.345961,0.529109 -0.345961,1.681415 0,1.070215 0.140825,1.804518 0.345961,1.804518 0.203234,0 0.345962,-0.693278 0.345962,-1.681415 z m 1.38394,0 c 0,-0.924776 -0.155674,-1.736828 -0.345985,-1.804518 -0.220866,-0.07855 -0.345962,0.529109 -0.345962,1.681415 0,1.070215 0.140826,1.804518 0.345962,1.804518 0.203234,0 0.345985,-0.693278 0.345985,-1.681415 z m 2.767833,-0.127979 c 0,-1.359343 -0.107649,-1.788541 -0.432452,-1.72562 -0.311417,0.06025 -0.401294,0.538968 -0.321068,1.709776 0.07285,1.063977 -0.01856,1.626029 -0.25961,1.626029 -0.232629,0 -0.370902,-0.589198 -0.370902,-1.581824 0,-1.454005 -0.337633,-2.096545 -0.85059,-1.618681 -0.113681,0.105803 -0.101849,0.913981 0.02691,1.796008 0.23177,1.599926 0.234717,1.603693 1.220471,1.603693 h 0.98819 v -1.809378 z m 1.343015,0.265603 c -0.02088,-0.84907 -0.147786,-1.81268 -0.278496,-2.141365 -0.22713,-0.571804 -0.249124,-0.578056 -0.503746,-0.145172 -0.43178,0.73413 -0.116001,3.828071 0.390692,3.829233 0.312437,8.01e-4 0.42113,-0.427501 0.39155,-1.542776 z m 1.30724,-0.796783 c -0.115769,-1.287298 -0.21669,-2.564658 -0.224578,-2.838544 -0.0116,-0.395425 -0.08329,-0.436451 -0.349767,-0.199195 -0.373222,0.332505 -0.467369,3.783825 -0.129689,4.755811 0.119017,0.342364 0.373291,0.622489 0.565273,0.622489 0.226898,0 0.275503,-0.819333 0.138738,-2.340561 z m 1.365543,2.025463 c -0.11531,-0.17328 -0.2102,-1.383403 -0.2102,-2.689137 0,-2.047732 -0.0763,-2.374065 -0.555965,-2.374065 -0.354801,0 -0.483122,0.109276 -0.354593,0.302126 0.110665,0.166226 0.219706,1.376296 0.242512,2.689151 0.0341,1.987923 0.12853,2.387023 0.564601,2.387023 0.335285,0 0.448045,-0.113284 0.313575,-0.315098 z m 5.66786,-0.03353 c -0.002,-0.191728 -0.10046,-0.684741 -0.21831,-1.095583 L 94.7107,50.826871 h -1.85762 -1.85764 v 1.095597 1.09557 h 2.0759 c 1.74782,0 2.07526,-0.05504 2.07206,-0.34859 z m -4.88891,-2.091576 c -0.0362,-0.903842 -0.19326,-1.867452 -0.34887,-2.141351 -0.16797,-0.295675 -0.2197,0.270826 -0.12736,1.394384 0.0854,1.040798 0.161,2.004409 0.16727,2.141365 0.007,0.136876 0.0935,0.248971 0.19326,0.248971 0.0998,0 0.15173,-0.7395 0.11553,-1.643369 z m -18.940273,-2.372609 0.778716,-0.629649 -1.668398,0.13172 c -0.917615,0.07227 -2.230539,0.131987 -2.917568,0.132788 -0.812936,6.15e-4 -1.611603,0.172104 -2.287055,0.490836 l -1.037955,0.489821 3.176784,0.0067 c 3.176343,0.0067 3.17683,0.0067 3.955476,-0.622488 z m 7.789174,-3.001336 c -0.130153,-1.997061 -0.349163,-3.689698 -0.486509,-3.761422 -0.137345,-0.0716 -1.534184,-0.191889 -3.104051,-0.267033 l -2.85437,-0.136542 0.01392,2.354254 c 0.0093,1.294833 0.151034,2.757628 0.317519,3.250628 0.240725,0.713637 0.190938,0.967725 -0.243719,1.246206 -0.686657,0.439898 -0.371853,0.647737 0.550588,0.363511 0.998213,-0.307563 2.410944,-0.249345 4.204136,0.17324 0.85632,0.201787 1.620165,0.376189 1.697445,0.387557 0.07726,0.01202 0.03387,-1.613284 -0.09628,-3.610332 z m -4.078716,-0.331062 c -0.07076,-0.426192 -0.07053,-1.193118 2.4e-5,-1.704286 0.112985,-0.818238 0.216922,-0.92209 0.870472,-0.868467 0.680602,0.05597 0.750411,0.197045 0.842586,1.704272 0.0993,1.624346 0.09094,1.643395 -0.742129,1.643395 -0.726422,0 -0.860311,-0.106871 -0.970953,-0.774914 z m 2.51871,-4.952015 c -0.383848,-0.301419 -1.095283,-0.816835 -1.580956,-1.145506 l -0.883024,-0.597601 -1.204974,0.796796 c -0.662714,0.438242 -1.156415,0.886409 -1.097092,0.99598 0.106489,0.19635 2.072824,0.409613 4.315961,0.468072 l 1.147994,0.02992 z" />
    </g>
  </g>
</svg>
