<?xml version="1.0" encoding="UTF-8" standalone="no"?>
<svg
   version="1.1"
   width="100"
   height="100"
   id="svg4460"
   sodipodi:docname="abbaye-r.svg"
   inkscape:version="1.2.2 (732a01da63, 2022-12-09)"
   xmlns:inkscape="http://www.inkscape.org/namespaces/inkscape"
   xmlns:sodipodi="http://sodipodi.sourceforge.net/DTD/sodipodi-0.dtd"
   xmlns="http://www.w3.org/2000/svg"
   xmlns:svg="http://www.w3.org/2000/svg"
   xmlns:rdf="http://www.w3.org/1999/02/22-rdf-syntax-ns#"
   xmlns:cc="http://creativecommons.org/ns#"
   xmlns:dc="http://purl.org/dc/elements/1.1/">
  <sodipodi:namedview
     pagecolor="#ffffff"
     bordercolor="#666666"
     borderopacity="1"
     objecttolerance="10"
     gridtolerance="10"
     guidetolerance="10"
     inkscape:pageopacity="0"
     inkscape:pageshadow="2"
     inkscape:window-width="1920"
     inkscape:window-height="1009"
     id="namedview11"
     showgrid="true"
     inkscape:zoom="2.8284271"
     inkscape:cx="57.805979"
     inkscape:cy="18.031223"
     inkscape:window-x="-8"
     inkscape:window-y="-8"
     inkscape:window-maximized="1"
     inkscape:current-layer="text5282"
     inkscape:document-rotation="0"
     inkscape:pagecheckerboard="0"
     showguides="true"
     inkscape:guide-bbox="true"
     inkscape:showpageshadow="0"
     inkscape:deskcolor="#d1d1d1">
    <inkscape:grid
       type="xygrid"
       id="grid823"
       originx="0"
       originy="0" />
    <sodipodi:guide
       position="0,86"
       orientation="66,0"
       id="guide957"
       inkscape:locked="false" />
    <sodipodi:guide
       position="0,20"
       orientation="0,50"
       id="guide959"
       inkscape:locked="false" />
    <sodipodi:guide
       position="50,20"
       orientation="-66,0"
       id="guide961"
       inkscape:locked="false" />
    <sodipodi:guide
       position="50,86"
       orientation="0,-50"
       id="guide963"
       inkscape:locked="false" />
    <sodipodi:guide
       position="8.9999971,64.32985"
       orientation="8.5387222,0"
       id="guide1517"
       inkscape:locked="false" />
    <sodipodi:guide
       position="8.9999971,55.791128"
       orientation="0,26.227758"
       id="guide1519"
       inkscape:locked="false" />
    <sodipodi:guide
       position="35,93.437165"
       orientation="-8.5387222,0"
       id="guide1521"
       inkscape:locked="false" />
    <sodipodi:guide
       position="35.227755,64.32985"
       orientation="0,-26.227758"
       id="guide1523"
       inkscape:locked="false" />
    <sodipodi:guide
       position="7.9247812,20.000001"
       orientation="0,-6.8495616"
       id="guide4054"
       inkscape:locked="false" />
    <sodipodi:guide
       position="1.0752196,74.999813"
       orientation="0,6.8495616"
       id="guide4058"
       inkscape:locked="false" />
  </sodipodi:namedview>
  <defs
     id="defs4462" />
  <metadata
     id="metadata4465">
    <rdf:RDF>
      <cc:Work
         rdf:about="">
        <dc:format>image/svg+xml</dc:format>
        <dc:type
           rdf:resource="http://purl.org/dc/dcmitype/StillImage" />
      </cc:Work>
    </rdf:RDF>
  </metadata>
  <g
     aria-label="C"
     id="text3215"
     style="font-size:32px;line-height:1.25"
     transform="translate(-37.75,-4)">
    <g
       aria-label="A"
       id="text5282"
       transform="matrix(1.6290909,0,0,2.8292029,-41.002727,-68.776958)">
      <path
         id="path1771"
         style="font-size:32px;line-height:1.25;fill:#666666;stroke-width:0.262524"
         d="m 63.3837,53.289989 c -0.76116,-0.111454 -2.74621,-0.151177 -4.41127,-0.08826 -2.4885,0.09401 -3.02731,0.06361 -3.02731,-0.170804 0,-0.193088 0.4748,-0.304948 1.47041,-0.346421 1.27404,-0.05307 1.53973,-0.147137 1.9894,-0.704331 0.65162,-0.807459 1.47463,-0.878162 1.20956,-0.10392 -0.17121,0.500181 -0.15776,0.508837 0.15521,0.09961 0.47062,-0.615356 1.04863,-0.562884 1.09719,0.0996 0.0239,0.337022 0.10092,0.413665 0.19836,0.199197 0.21669,-0.477261 0.82321,-0.438866 1.05283,0.06665 0.14175,0.311927 0.25931,0.349512 0.47217,0.151057 0.22574,-0.210386 0.37104,-0.213816 0.71315,-0.01691 0.27729,0.159652 1.51321,0.247332 3.48637,0.247332 2.91499,0 3.0402,-0.01786 2.69867,-0.3853 -0.19697,-0.21192 -0.35817,-1.281745 -0.35817,-2.377401 v -1.992094 l 1.9894,-1.305603 c 1.09415,-0.718081 2.17372,-1.306567 2.39902,-1.307748 0.22551,-0.0012 1.54794,0.490867 2.93917,1.093438 1.39122,0.60257 2.63053,1.095583 2.754,1.095583 0.23177,0 3.76617,-2.242448 6.6229,-4.20198 0.89356,-0.612935 1.52699,-1.170669 1.40761,-1.239406 -0.29678,-0.170785 1.30494,-0.504349 4.20364,-0.875507 3.42937,-0.439111 3.90068,-0.708588 2.52755,-1.445121 -0.50613,-0.271501 -0.64392,-0.473652 -0.41324,-0.606449 0.23061,-0.132788 0.61991,-0.05227 1.16778,0.241618 0.5125,0.274893 0.87187,0.354394 0.95476,0.211213 0.0879,-0.151539 0.68397,-0.192122 1.75382,-0.119362 1.34951,0.09178 1.72951,0.04102 2.26961,-0.303116 0.79294,-0.505247 0.84011,-1.347921 0.0993,-1.77444 -0.80319,-0.462428 -2.3049,-0.04125 -2.3049,0.646432 0,0.663925 -0.26559,0.634391 -1.85571,-0.206453 -1.4902,-0.787955 -1.4854,-1.173393 0.007,-0.49788 0.95097,0.430683 0.9558,0.430798 1.21418,0.02867 0.14268,-0.222051 0.64413,-0.459323 1.11435,-0.527274 2.89101,-0.417759 4.25277,1.454399 2.05225,2.82145 -0.72543,0.450678 -1.03243,0.506969 -2.18574,0.400793 -1.57608,-0.145101 -1.98452,0.08108 -1.03749,0.574523 0.3716,0.193621 0.58599,0.435539 0.47646,0.537591 -0.1095,0.102049 -0.49607,0.03086 -0.85892,-0.158202 -0.70352,-0.366557 -1.08431,-0.281227 -1.22167,0.273763 -0.0469,0.188555 -0.27251,1.104758 -0.50176,2.036002 -0.33415,1.357444 -0.60188,1.811666 -1.35013,2.290764 -1.50405,0.963005 -9.69127,6.84618 -9.69127,6.963937 0,0.05915 0.93919,0.107553 2.08702,0.107553 2.39519,0 4.25894,-0.378832 4.81693,-0.97912 0.50718,-0.545622 1.04667,-0.529184 1.08092,0.03293 0.0139,0.246505 0.10579,0.336146 0.20184,0.199197 0.24311,-0.346836 0.80878,-0.312004 0.80878,0.0498 0,0.164347 0.15568,0.298796 0.34601,0.298796 0.19047,0 0.34599,-0.08964 0.34599,-0.199197 0,-0.363039 0.60803,-0.206275 0.79479,0.204913 0.10092,0.222262 0.31371,0.390926 0.47284,0.374804 0.9594,-0.0972 5.37698,0.04339 5.16674,0.164434 -0.1399,0.08061 -2.85163,0.171563 -6.02582,0.202111 -7.19309,0.06924 -7.32257,0.06971 -10.26902,0.03704 -4.14674,-0.04595 -17.94628,0.152539 -18.85591,0.27121 -0.47572,0.06207 -1.48772,0.02167 -2.24887,-0.0898 z m 13.32024,-2.06457 c 0,-1.461077 0.0306,-1.514647 1.26142,-2.202789 l 1.26144,-0.705297 -1.33881,-0.789379 c -0.73633,-0.43416 -1.52217,-0.748864 -1.7463,-0.699345 -0.22435,0.04952 -0.52697,-0.105456 -0.673,-0.344377 -0.19163,-0.313361 -0.32858,-0.04586 -0.49196,0.959968 l -0.22666,1.394378 -0.0613,-1.24498 c -0.0336,-0.684739 -0.21669,-1.24498 -0.40707,-1.24498 -0.21275,0 -0.37534,1.207831 -0.4222,3.137349 l -0.0761,3.137351 -0.10602,-2.838556 c -0.13642,-3.642931 -0.75264,-3.786813 -0.85319,-0.199197 l -0.074,2.639357 -0.11043,-2.240963 c -0.0666,-1.349141 -0.25091,-2.240964 -0.46329,-2.240964 -0.22295,0 -0.33109,0.851351 -0.29348,2.314153 0.0455,1.770707 -0.052,2.354724 -0.41417,2.48691 -0.28989,0.105749 0.6336,0.173939 2.38067,0.175808 l 2.85432,0.0031 z m -1.03795,0.911663 c 0,-0.21265 0.15567,-0.442037 0.34601,-0.50975 0.19627,-0.06983 0.34596,0.09753 0.34596,0.386639 0,0.280361 -0.15568,0.509748 -0.34596,0.509748 -0.19025,0 -0.34601,-0.173986 -0.34601,-0.386637 z m -0.93073,-0.908143 c 0.002,-0.65735 0.0666,-0.902249 0.14361,-0.544223 0.077,0.358026 0.0756,0.895858 -0.002,1.195181 -0.0789,0.299323 -0.14175,0.0064 -0.13989,-0.650958 z m -0.0524,-1.892371 c 0,-0.273894 0.0787,-0.385942 0.17447,-0.248994 0.0958,0.136954 0.0958,0.361043 0,0.497991 -0.0958,0.136954 -0.17447,0.02489 -0.17447,-0.248997 z m 3.40517,3.298505 c 0,-0.04832 -0.15568,-0.143237 -0.34596,-0.210952 -0.19025,-0.06772 -0.34601,-0.02819 -0.34601,0.08785 0,0.116037 0.15567,0.210954 0.34601,0.210954 0.19047,0 0.34596,-0.03953 0.34596,-0.08785 z m 4.1405,-0.402338 c 0.23084,-0.160032 0.49961,-0.635022 0.59754,-1.055515 0.1457,-0.625762 0.0116,-0.87895 -0.74315,-1.394896 -0.78212,-0.535159 -1.08804,-0.613136 -2.02559,-0.516296 -2.55318,0.263717 -3.12395,2.046386 -0.96132,3.00236 0.76127,0.336531 2.62664,0.315301 3.13252,-0.03567 z M 71.42177,49.087574 c -0.0728,-0.465623 -0.13247,-0.08466 -0.13247,0.846587 0,0.931244 0.0596,1.312209 0.13247,0.846584 0.0728,-0.465622 0.0728,-1.227549 0,-1.693171 z m 16.24023,0.08705 c 1.74533,-1.170852 3.80998,-2.591109 4.58812,-3.156133 l 1.41482,-1.027315 -1.99327,-1.011636 c -1.09633,-0.556399 -2.1525,-1.012901 -2.34708,-1.014452 -0.36962,-0.0029 -5.96296,3.364257 -7.80362,4.697772 l -1.06292,0.770071 1.0055,0.150021 c 1.44221,0.215163 2.21606,0.80413 2.41906,1.841124 0.0974,0.497459 0.27369,0.89882 0.39157,0.891913 0.11809,-0.0069 1.64249,-0.97052 3.38782,-2.141365 z m -0.85818,-2.341291 -1.43347,-0.723447 1.40946,-0.962398 c 0.77523,-0.529322 1.62543,-1.010106 1.88931,-1.068414 0.26381,-0.05831 1.05674,0.198274 1.76182,0.570176 l 1.282,0.676185 -1.50319,0.959784 c -0.82676,0.527882 -1.60877,1.029932 -1.73781,1.11567 -0.12899,0.08574 -0.87971,-0.169663 -1.66812,-0.567556 z m 8.12532,-4.105952 c 0.15591,-0.858589 0.0984,-1.159486 -0.22133,-1.159486 -0.58286,0 -4.64086,0.608846 -4.84966,0.727629 -0.0914,0.05199 0.84275,0.616724 2.07589,1.254943 2.55968,1.324766 2.60756,1.311597 2.99512,-0.823086 z" />
    </g>
  </g>
</svg>
