<?xml version="1.0" encoding="UTF-8" standalone="no"?>
<svg
   version="1.1"
   width="100"
   height="100"
   id="svg4460"
   sodipodi:docname="abbaye.svg"
   inkscape:version="1.2.2 (732a01da63, 2022-12-09)"
   xmlns:inkscape="http://www.inkscape.org/namespaces/inkscape"
   xmlns:sodipodi="http://sodipodi.sourceforge.net/DTD/sodipodi-0.dtd"
   xmlns="http://www.w3.org/2000/svg"
   xmlns:svg="http://www.w3.org/2000/svg"
   xmlns:rdf="http://www.w3.org/1999/02/22-rdf-syntax-ns#"
   xmlns:cc="http://creativecommons.org/ns#"
   xmlns:dc="http://purl.org/dc/elements/1.1/">
  <sodipodi:namedview
     pagecolor="#ffffff"
     bordercolor="#666666"
     borderopacity="1"
     objecttolerance="10"
     gridtolerance="10"
     guidetolerance="10"
     inkscape:pageopacity="0"
     inkscape:pageshadow="2"
     inkscape:window-width="1920"
     inkscape:window-height="1009"
     id="namedview11"
     showgrid="true"
     inkscape:zoom="2.8284271"
     inkscape:cx="57.805979"
     inkscape:cy="18.031223"
     inkscape:window-x="-8"
     inkscape:window-y="-8"
     inkscape:window-maximized="1"
     inkscape:current-layer="text5282"
     inkscape:document-rotation="0"
     inkscape:pagecheckerboard="0"
     showguides="true"
     inkscape:guide-bbox="true"
     inkscape:showpageshadow="0"
     inkscape:deskcolor="#d1d1d1">
    <inkscape:grid
       type="xygrid"
       id="grid823"
       originx="0"
       originy="0" />
    <sodipodi:guide
       position="0,86"
       orientation="66,0"
       id="guide957"
       inkscape:locked="false" />
    <sodipodi:guide
       position="0,20"
       orientation="0,50"
       id="guide959"
       inkscape:locked="false" />
    <sodipodi:guide
       position="50,20"
       orientation="-66,0"
       id="guide961"
       inkscape:locked="false" />
    <sodipodi:guide
       position="50,86"
       orientation="0,-50"
       id="guide963"
       inkscape:locked="false" />
    <sodipodi:guide
       position="8.9999971,64.32985"
       orientation="8.5387222,0"
       id="guide1517"
       inkscape:locked="false" />
    <sodipodi:guide
       position="8.9999971,55.791128"
       orientation="0,26.227758"
       id="guide1519"
       inkscape:locked="false" />
    <sodipodi:guide
       position="35,93.437165"
       orientation="-8.5387222,0"
       id="guide1521"
       inkscape:locked="false" />
    <sodipodi:guide
       position="35.227755,64.32985"
       orientation="0,-26.227758"
       id="guide1523"
       inkscape:locked="false" />
    <sodipodi:guide
       position="7.9247812,20.000001"
       orientation="0,-6.8495616"
       id="guide4054"
       inkscape:locked="false" />
    <sodipodi:guide
       position="1.0752196,74.999813"
       orientation="0,6.8495616"
       id="guide4058"
       inkscape:locked="false" />
  </sodipodi:namedview>
  <defs
     id="defs4462" />
  <metadata
     id="metadata4465">
    <rdf:RDF>
      <cc:Work
         rdf:about="">
        <dc:format>image/svg+xml</dc:format>
        <dc:type
           rdf:resource="http://purl.org/dc/dcmitype/StillImage" />
      </cc:Work>
    </rdf:RDF>
  </metadata>
  <g
     aria-label="C"
     id="text3215"
     style="font-size:32px;line-height:1.25"
     transform="translate(-37.75,-4)">
    <g
       aria-label="A"
       id="text5282"
       transform="matrix(1.6290909,0,0,2.8292029,-41.002727,-68.776958)">
      <path
         id="path1727"
         style="font-size:32px;line-height:1.25;fill:#666666;stroke-width:0.262524"
         d="M 76.426726,53.689804 C 75.8602,53.551418 72.011445,53.501841 65.27215,53.546102 c -6.697023,0.04398 -10.297883,-0.0021 -10.313335,-0.131613 -0.0116,-0.109557 0.335754,-0.24589 0.775143,-0.302958 0.459225,-0.05963 1.019511,-0.375406 1.317819,-0.742675 0.631325,-0.777242 1.037978,-0.826272 1.037978,-0.125161 0,0.440198 0.0812,0.48363 0.515509,0.27606 0.426328,-0.203721 0.572141,-0.164883 0.843004,0.224606 0.2404,0.345633 0.33334,0.378182 0.349465,0.122328 0.02691,-0.423597 1.059832,-0.472145 1.059832,-0.0498 0,0.236387 0.487808,0.298158 2.335358,0.295744 1.550518,-0.0021 2.166948,-0.0644 1.834256,-0.185585 C 64.6447,52.78773 64.494177,52.140004 64.39147,50.191142 64.29519,48.362947 64.118078,47.548457 63.768173,47.323291 63.499259,47.150326 63.279437,46.964256 63.279437,46.9098 c 0,-0.05447 1.092058,-0.585229 2.426859,-1.179496 l 2.426837,-1.080485 -0.02691,-1.892371 c -0.0341,-2.447674 -0.02993,-2.483315 0.276106,-2.308293 0.142682,0.08165 0.431548,0.989434 0.641881,2.017282 l 0.382456,1.868821 1.984756,1.153266 1.984848,1.153263 -0.174465,-2.467377 c -0.119017,-1.682715 -0.313737,-2.51695 -0.612533,-2.623274 -0.332088,-0.118174 -0.0819,-0.621718 1.033918,-2.080775 0.809572,-1.058685 1.556527,-2.224747 1.659837,-2.591253 0.178642,-0.633705 0.131778,-0.669519 -0.951162,-0.730563 -1.616151,-0.09107 -1.769667,-0.562181 -0.18305,-0.562181 0.861726,0 1.23975,-0.08953 1.23975,-0.29368 0,-0.161534 0.428508,-0.421263 0.952253,-0.577197 2.328189,-0.693177 2.958006,-1.902092 1.466951,-2.815887 -0.821567,-0.503497 -2.176135,-0.641949 -3.074958,-0.314285 -0.32884,0.119884 -0.414542,0.372153 -0.268914,0.791314 0.184442,0.530445 0.100689,0.63168 -0.6065,0.73386 -1.235111,0.178476 -2.447578,0.02347 -2.447578,-0.312882 0,-0.198182 0.344269,-0.298794 1.022341,-0.298794 0.883326,0 1.055077,-0.09154 1.262882,-0.673139 0.307774,-0.861315 0.845161,-1.059112 2.556572,-0.941035 3.608423,0.248958 4.264642,3.035082 0.977796,4.151609 l -1.306892,0.443952 0.943971,0.191131 c 1.192074,0.241368 1.219334,0.512623 0.0515,0.512623 -0.825302,0 -0.874417,0.04869 -0.653064,0.64739 0.131546,0.356065 1.104424,1.343072 2.161728,2.193352 l 1.922347,1.545964 0.122961,2.62538 c 0.06775,1.443959 0.19697,2.66789 0.287173,2.719846 0.09025,0.05195 0.903857,-0.269197 1.808063,-0.713674 l 1.643945,-0.808137 -0.08352,-1.830361 c -0.06334,-1.385986 0.02088,-1.810365 0.346008,-1.747998 0.263485,0.05052 0.568429,0.79501 0.788669,1.926142 l 0.359023,1.843782 2.322343,1.298269 2.322319,1.298267 v 1.442722 c 0,0.793499 0.100689,2.128538 0.22365,2.966754 l 0.22365,1.524032 h 1.517805 c 1.386956,0 1.583949,-0.0644 2.284619,-0.746988 l 0.766791,-0.746989 0.217386,0.69719 c 0.194885,0.625426 0.243415,0.651054 0.472825,0.248995 0.28838,-0.505377 0.86687,-0.605097 0.86687,-0.149399 0,0.16433 0.15568,0.298795 0.34601,0.298795 0.19048,0 0.34599,-0.08964 0.34599,-0.199197 0,-0.35634 0.60638,-0.209907 0.78815,0.190335 0.15313,0.337511 0.456909,0.38506 2.27339,0.356075 1.94766,-0.03109 2.84667,0.102277 2.40473,0.356729 -0.10162,0.0585 -5.5378,0.132735 -12.080473,0.164987 -6.542673,0.03225 -12.284984,0.116276 -12.760727,0.186742 -0.475721,0.07047 -1.254181,0.03304 -1.729902,-0.08317 z m -9.273014,-2.196276 c -0.118785,-1.180792 -0.05615,-1.584092 0.230146,-1.482219 0.497158,0.176908 0.539057,-1.835832 0.04733,-2.273923 -0.267708,-0.23845 -0.343457,-0.19822 -0.375171,0.199197 l -0.0399,0.497992 -0.276987,-0.497992 -0.276988,-0.497991 -0.0689,0.497991 -0.0689,0.497992 -0.276987,-0.497992 c -0.363571,-0.653609 -0.409438,-0.457456 -0.419159,1.79277 l -0.0093,1.89237 -0.22249,-1.828069 c -0.122265,-1.005436 -0.359534,-1.901821 -0.52704,-1.991968 -0.174697,-0.09395 -0.209962,0.251705 -0.08282,0.810088 0.122033,0.535694 0.224346,1.611356 0.226898,2.390363 0.0023,0.988013 0.106721,1.326009 0.340695,1.117579 0.264111,-0.235389 0.336543,-0.189596 0.340695,0.215796 0.007,0.600091 0.247013,0.780187 1.043686,0.780187 0.504906,0 0.556689,-0.202905 0.413984,-1.622171 z m -0.639561,-0.568992 c 0,-0.931247 0.05963,-1.312209 0.132474,-0.846587 0.07285,0.465622 0.07285,1.227549 0,1.693172 -0.07285,0.465622 -0.132474,0.08466 -0.132474,-0.846585 z m 5.69888,0.416764 c -0.06125,-0.975919 0.007,-1.732555 0.148482,-1.681416 0.142681,0.05115 0.259587,0.849622 0.259587,1.774399 0,0.955043 0.145002,1.681416 0.336055,1.681416 0.199058,0 0.280004,-0.588339 0.198826,-1.444177 -0.07563,-0.794297 -0.148945,-2.049236 -0.163097,-2.788753 -0.02691,-1.407186 -0.673967,-1.905614 -0.775839,-0.597593 l -0.05823,0.746989 -0.135721,-0.746989 c -0.07471,-0.410842 -0.282091,-0.746988 -0.46078,-0.746988 -0.185137,0 -0.325104,1.063299 -0.325104,2.47367 0,1.360516 -0.09442,2.615457 -0.209962,2.788755 -0.151962,0.227881 -0.0014,0.315086 0.543535,0.315086 0.725958,0 0.749436,-0.0649 0.642483,-1.774399 z m 11.539003,0.529419 0.05962,-1.24498 0.226666,1.29478 c 0.214834,1.228423 0.232629,1.24884 0.346728,0.398394 l 0.120177,-0.896386 0.132473,0.846587 c 0.106025,0.679265 0.265295,0.846585 0.804514,0.846585 0.612231,0 0.67798,-0.164071 0.738324,-1.84257 l 0.06612,-1.84257 0.213442,1.89237 c 0.117625,1.040804 0.26142,1.713093 0.319908,1.493976 0.09234,-0.345659 0.127369,-0.352249 0.264691,-0.0498 0.374336,0.824692 0.804677,0.232869 0.869081,-1.19518 l 0.0696,-1.543776 0.117857,1.543776 c 0.08955,1.17481 0.236225,1.543773 0.613043,1.543773 0.406886,0 0.465977,-0.346198 0.331369,-1.942167 -0.125281,-1.484986 -0.08027,-1.801497 0.190242,-1.344579 0.19465,0.328673 0.269517,0.87645 0.166345,1.217277 -0.103009,0.340828 -0.02691,0.833841 0.16913,1.095582 0.256015,0.341357 0.298285,-0.284346 0.149874,-2.21326 -0.113914,-1.479036 -0.34928,-2.774315 -0.523142,-2.878396 -0.19465,-0.116384 -0.325499,-0.0013 -0.340417,0.298796 -0.02088,0.448036 -0.04756,0.455382 -0.308888,0.08964 -0.342667,-0.479839 -0.605178,-0.189003 -0.809061,0.896384 -0.12969,0.690415 -0.131546,0.689378 -0.18653,-0.106712 -0.04547,-0.66048 -0.178874,-0.803902 -0.747303,-0.803902 -0.552258,0 -0.701899,0.142217 -0.741084,0.704303 l -0.04918,0.704303 -0.247918,-0.796787 c -0.202306,-0.650699 -0.269493,-0.46809 -0.36654,0.995983 l -0.118785,1.792771 -0.119481,-1.592877 c -0.166114,-2.213871 -0.762708,-2.419153 -0.841565,-0.289533 l -0.06241,1.683213 -0.22133,-1.493976 -0.22133,-1.493976 -0.122033,1.195182 -0.122033,1.19518 -0.226667,-1.294779 c -0.22597,-1.291472 -0.226898,-1.28969 -0.35668,0.697189 l -0.130153,1.991967 -0.109041,-1.693173 c -0.139898,-2.17659 -0.530033,-2.660433 -0.802635,-0.995983 l -0.211818,1.294779 -0.05962,-1.233224 c -0.03294,-0.678272 -0.238637,-1.296871 -0.457207,-1.374661 -0.288982,-0.102797 -0.339512,0.125281 -0.185369,0.83483 0.116697,0.536947 0.323666,1.783014 0.460037,2.769038 0.171681,1.24304 0.324269,1.640071 0.496879,1.294781 0.231074,-0.46266 0.251514,-0.452063 0.283298,0.149399 0.02691,0.507974 0.183514,0.647389 0.726445,0.647389 0.61179,0 0.698861,-0.144255 0.751664,-1.244981 z m 1.773866,0.0498 c 0,-0.602571 0.06473,-0.849076 0.144306,-0.547791 0.07911,0.301285 0.07911,0.794296 0,1.095581 -0.07911,0.301285 -0.144306,0.05477 -0.144306,-0.54779 z m 1.411085,-1.991968 c 0,-1.25992 0.05614,-1.775342 0.124585,-1.145382 0.06867,0.62996 0.06867,1.660804 0,2.290763 -0.06867,0.629959 -0.124585,0.114526 -0.124585,-1.145381 z m -7.69939,2.543247 c 0.227131,-0.244589 0.427465,-0.819979 0.44461,-1.278645 0.05614,-1.49103 -2.256825,-2.342366 -4.216479,-1.552103 -0.968192,0.390439 -1.057373,1.766069 -0.155905,2.402916 1.327238,0.937499 3.258332,1.147854 3.927658,0.427832 z M 68.373928,48.288747 c -0.07703,-0.358026 -0.141522,-0.113137 -0.14361,0.544225 -0.0021,0.657349 0.06125,0.950279 0.139898,0.650955 0.07888,-0.299323 0.08074,-0.837153 0.0023,-1.19518 z m 1.830428,1.39081 c 0.0023,-0.166004 0.117161,-0.149398 0.340695,0.0498 0.236225,0.21056 0.336937,-0.06885 0.340672,-0.946184 0.007,-1.264759 -0.64775,-1.797826 -0.732199,-0.59759 l -0.04547,0.64739 -0.254808,-0.697189 c -0.229915,-0.629055 -0.265016,-0.58039 -0.358606,0.497992 l -0.103705,1.19518 -0.229682,-1.19518 -0.229683,-1.195181 -0.05823,1.24498 c -0.05243,1.123344 0.0093,1.24498 0.633784,1.24498 0.380599,0 0.694359,-0.112042 0.697259,-0.248995 z m 3.358836,-1.593575 c -0.07679,-0.356063 -0.139434,-0.06474 -0.139434,0.647391 0,0.712128 0.06264,1.003453 0.139434,0.647389 0.07679,-0.356065 0.07679,-0.938715 0,-1.29478 z m 6.461123,0.398395 C 79.905298,48.018754 79.833377,46.831043 79.864466,45.845019 79.895556,44.858995 79.817136,43.402369 79.69,42.60807 l -0.230842,-1.444177 h -2.547617 c -2.452612,0 -2.555992,0.01925 -2.772543,0.516 -0.123889,0.283801 -0.105793,1.561151 0.0399,2.838554 0.145698,1.277405 0.235019,2.79289 0.198362,3.367739 l -0.06612,1.045187 0.907245,-0.1986 c 1.373708,-0.3007 2.652388,-0.238064 3.803073,0.186285 0.570865,0.210531 1.078671,0.389336 1.128506,0.397345 0.04965,0.0079 -0.007,-0.366404 -0.125514,-0.832026 z m -4.635544,-4.510416 c 0,-1.424477 0.201842,-1.614886 1.710135,-1.614886 0.503422,0 0.651277,0.226352 0.811265,1.242193 0.222723,1.41349 -0.06774,1.74576 -1.525809,1.74576 h -0.995591 z m -4.889285,2.196421 -0.04547,-0.723758 -0.254809,0.69719 c -0.2491,0.680959 -0.256014,0.675163 -0.300396,-0.248996 -0.0239,-0.520402 -0.201146,-0.946185 -0.391573,-0.946185 -0.190474,0 -0.369325,0.425783 -0.397931,0.946185 l -0.05174,0.946184 -0.241932,-0.896384 -0.241909,-0.896387 -0.05197,0.929585 c -0.05359,0.958612 0.258404,1.17997 1.418461,1.006729 0.448461,-0.06696 0.593648,-0.278094 0.559938,-0.814163 z m -4.56186,0.334477 c -0.110433,-0.158911 -0.19233,-0.111695 -0.209034,0.120351 -0.01392,0.209986 0.06682,0.327637 0.181657,0.261446 0.114842,-0.06619 0.127138,-0.238 0.02691,-0.381793 z m 1.123308,-0.112042 c -0.02088,-0.485411 -0.05823,-0.502426 -0.321671,-0.149399 -0.406073,0.544082 -0.406073,0.69719 0,0.69719 0.190474,0 0.335035,-0.246506 0.321671,-0.547791 z m 1.062246,-0.260754 c 0,-0.488303 -0.137114,-0.759783 -0.345962,-0.685432 -0.190474,0.06772 -0.345985,0.431557 -0.345985,0.808543 0,0.376988 0.155674,0.685434 0.345985,0.685434 0.190474,0 0.345962,-0.363846 0.345962,-0.808545 z m 3.800498,0.559548 c -0.0023,-0.136954 -0.137113,-0.368621 -0.297984,-0.51483 -0.22365,-0.203106 -0.335985,-0.170578 -0.476045,0.137869 -0.100689,0.222035 -0.09651,0.45371 0.0093,0.514832 0.340742,0.196192 0.76983,0.118815 0.764332,-0.137867 z m 9.697996,0 c 0.0023,-0.165987 0.117161,-0.149399 0.340742,0.0498 0.267104,0.23787 0.340927,0.197254 0.362596,-0.199197 0.02691,-0.496077 0.02993,-0.49627 0.340138,-0.0498 0.430249,0.6163 0.681182,0.561267 0.681182,-0.149399 0,-0.707047 -0.520381,-0.759842 -1.621092,-0.164468 -0.847273,0.458271 -1.028582,0.762066 -0.454794,0.762066 0.190473,0 0.348351,-0.112042 0.351274,-0.248997 z m 4.964593,-0.38928 c -0.189778,-0.93844 -0.810338,-1.191709 -0.852052,-0.347747 l -0.03387,0.687227 -0.451012,-0.896384 -0.451082,-0.896386 -0.09443,0.995983 -0.09442,0.995984 -0.132473,-0.846585 c -0.176322,-1.126018 -0.784609,-1.087401 -0.784609,0.0498 v 0.896387 h 1.511541 c 1.497087,0 1.510288,-0.006 1.382432,-0.638278 z m 0.802171,0.0033 c -0.110433,-0.158909 -0.192562,-0.111694 -0.209034,0.120351 -0.01392,0.209985 0.06682,0.327636 0.181657,0.261445 0.114842,-0.06619 0.12737,-0.238001 0.02691,-0.381795 z M 78.955434,40.16787 c -0.723035,-0.656998 -2.987794,-2.390362 -3.123168,-2.390362 -0.125513,0 -1.664778,1.980733 -1.971183,2.536581 -0.198826,0.360463 -0.02691,0.383801 2.715099,0.368313 l 2.927311,-0.01658 z" />
    </g>
  </g>
</svg>
