<?xml version="1.0" encoding="UTF-8" standalone="no"?>
<svg
   version="1.1"
   width="100"
   height="100"
   id="svg4460"
   sodipodi:docname="ferme.svg"
   inkscape:version="1.2.2 (732a01da63, 2022-12-09)"
   xmlns:inkscape="http://www.inkscape.org/namespaces/inkscape"
   xmlns:sodipodi="http://sodipodi.sourceforge.net/DTD/sodipodi-0.dtd"
   xmlns="http://www.w3.org/2000/svg"
   xmlns:svg="http://www.w3.org/2000/svg"
   xmlns:rdf="http://www.w3.org/1999/02/22-rdf-syntax-ns#"
   xmlns:cc="http://creativecommons.org/ns#"
   xmlns:dc="http://purl.org/dc/elements/1.1/">
  <sodipodi:namedview
     pagecolor="#ffffff"
     bordercolor="#666666"
     borderopacity="1"
     objecttolerance="10"
     gridtolerance="10"
     guidetolerance="10"
     inkscape:pageopacity="0"
     inkscape:pageshadow="2"
     inkscape:window-width="1920"
     inkscape:window-height="1009"
     id="namedview11"
     showgrid="true"
     inkscape:zoom="22.627417"
     inkscape:cx="49.983611"
     inkscape:cy="68.589358"
     inkscape:window-x="-8"
     inkscape:window-y="-8"
     inkscape:window-maximized="1"
     inkscape:current-layer="text5282"
     inkscape:document-rotation="0"
     inkscape:pagecheckerboard="0"
     showguides="true"
     inkscape:guide-bbox="true"
     inkscape:showpageshadow="0"
     inkscape:deskcolor="#d1d1d1">
    <inkscape:grid
       type="xygrid"
       id="grid823"
       originx="0"
       originy="0" />
    <sodipodi:guide
       position="0,86"
       orientation="66,0"
       id="guide957"
       inkscape:locked="false" />
    <sodipodi:guide
       position="0,20"
       orientation="0,50"
       id="guide959"
       inkscape:locked="false" />
    <sodipodi:guide
       position="50,86"
       orientation="0,-50"
       id="guide963"
       inkscape:locked="false" />
    <sodipodi:guide
       position="8.9999971,64.32985"
       orientation="8.5387222,0"
       id="guide1517"
       inkscape:locked="false" />
    <sodipodi:guide
       position="8.9999971,55.791128"
       orientation="0,26.227758"
       id="guide1519"
       inkscape:locked="false" />
    <sodipodi:guide
       position="35,93.437165"
       orientation="-8.5387222,0"
       id="guide1521"
       inkscape:locked="false" />
    <sodipodi:guide
       position="35.227755,64.32985"
       orientation="0,-26.227758"
       id="guide1523"
       inkscape:locked="false" />
    <sodipodi:guide
       position="7.9247812,20.000001"
       orientation="0,-6.8495616"
       id="guide4054"
       inkscape:locked="false" />
    <sodipodi:guide
       position="1.0752196,74.999813"
       orientation="0,6.8495616"
       id="guide4058"
       inkscape:locked="false" />
  </sodipodi:namedview>
  <defs
     id="defs4462" />
  <metadata
     id="metadata4465">
    <rdf:RDF>
      <cc:Work
         rdf:about="">
        <dc:format>image/svg+xml</dc:format>
        <dc:type
           rdf:resource="http://purl.org/dc/dcmitype/StillImage" />
      </cc:Work>
    </rdf:RDF>
  </metadata>
  <g
     aria-label="C"
     id="text3215"
     style="font-size:32px;line-height:1.25"
     transform="translate(-37.75,-4)">
    <g
       aria-label="A"
       id="text5282"
       transform="matrix(1.6290909,0,0,2.8292029,-41.002727,-68.776958)">
      <path
         id="path649"
         style="font-size:32px;line-height:1.25;fill:#666666;stroke-width:0.262524"
         d="m 54.578251,53.466301 c 0.713546,-0.335631 1.297403,-0.780819 1.297403,-0.9893 0,-0.537485 0.683548,-0.472948 0.732106,0.06907 0.03039,0.337275 0.07934,0.361922 0.198362,0.09952 0.220867,-0.486855 0.754031,-0.434995 1.724334,0.167789 0.457184,0.284038 1.019951,0.47566 1.250608,0.425857 0.23061,-0.04983 1.234298,-0.02952 2.230307,0.04502 0.996032,0.07454 1.975291,0.07721 2.176158,0.0053 0.226202,-0.08055 0.327054,-0.842485 0.264993,-2.005651 l -0.100225,-1.875735 -1.47043,-0.06132 c -1.883742,-0.07855 -1.934876,-0.444347 -0.05615,-0.401972 0.892397,0.02017 1.530682,-0.07227 1.729925,-0.250427 0.256595,-0.229494 0.370392,-0.233569 0.607962,-0.02178 0.223882,0.19949 1.622369,0.252739 5.968165,0.227263 6.400501,-0.0374 5.760477,0.08096 10.928234,-2.024006 1.556758,-0.634124 2.996889,-1.152947 3.200309,-1.152947 0.203234,0 0.369835,-0.08964 0.369835,-0.199196 0,-0.12691 -2.855577,-0.199209 -7.874783,-0.199209 h -7.874713 l -2.411177,0.931308 c -1.326124,0.512197 -2.570005,1.007709 -2.764121,1.101141 -1.866295,0.898125 -5.528405,2.316942 -5.763956,2.233128 -0.566782,-0.20168 -0.291975,-0.443398 0.999697,-0.879529 1.826461,-0.61665 7.882625,-3.133643 8.3947,-3.488885 0.234438,-0.162606 0.275804,-0.295555 0.09211,-0.295555 -0.480964,0 -0.265295,-4.847948 0.219706,-4.941034 0.26381,-0.05063 0.329165,0.49129 0.21553,1.786791 -0.09002,1.022711 -0.07308,2.150797 0.03689,2.506867 l 0.200218,0.647376 h 8.744699 8.744698 l 0.237431,-0.91175 c 0.130618,-0.50147 0.198826,-1.95283 0.151034,-3.22522 -0.06125,-1.638359 0.03271,-2.336312 0.321741,-2.391765 0.303992,-0.05838 0.377769,0.617425 0.289283,2.649033 -0.06542,1.500027 -0.04686,2.944346 0.0413,3.209589 0.145001,0.437146 5.40839,3.118909 8.153974,4.154671 0.504466,0.190312 0.917198,0.470156 0.917198,0.621901 0,0.364967 -0.499733,0.350459 -1.04879,-0.03032 -0.242813,-0.16847 -1.041876,-0.580061 -1.775606,-0.914636 l -1.334036,-0.608315 0.217386,2.358809 c 0.31144,3.382682 0.807902,4.353225 0.722455,1.412379 -0.05127,-1.760861 0.03921,-2.340762 0.364452,-2.340575 0.320883,2.14e-4 0.432476,0.591363 0.432476,2.291026 v 2.290772 h 1.330301 c 1.589656,0 2.320161,-0.396949 2.657701,-1.444173 0.284203,-0.882214 0.855718,-0.996179 0.855718,-0.170714 0,0.325585 0.223418,0.625601 0.513165,0.689644 0.310704,0.06867 0.426512,0.24328 0.293484,0.442703 -0.17423,0.261342 -0.0719,0.302341 0.495678,0.198635 0.39403,-0.072 0.8207,-0.03246 0.95021,0.08817 0.12922,0.120498 0.64837,0.168991 1.15356,0.108074 0.50516,-0.06092 1.15205,-0.02137 1.43746,0.0879 1.0251,0.392755 -0.32573,0.526264 -4.590605,0.453672 -2.327517,-0.03954 -12.721101,-0.100861 -23.096892,-0.135848 -10.375743,-0.035 -19.209554,-0.12691 -19.630731,-0.203765 -0.482356,-0.08817 -1.051689,-0.02471 -1.538337,0.17157 -1.431895,0.577442 -1.873117,0.318705 -0.53212,-0.312039 z M 84.882872,50.10494 c -0.168201,-4.506279 -0.809827,-4.466269 -0.809827,0.05063 0,2.671596 0.09327,3.336299 0.468158,3.336553 0.380158,1.87e-4 0.444377,-0.636355 0.341669,-3.387064 z m 1.271767,-3.53472 c -0.105561,-0.246514 -0.36545,-0.448208 -0.577616,-0.448208 -0.447115,0 -0.167274,6.812748 0.296777,7.225234 0.312299,0.277559 0.576155,-6.087489 0.280909,-6.777026 z m 1.725818,2.987937 c -0.131777,-2.163768 -0.292879,-3.965521 -0.35726,-4.003875 -0.0645,-0.03834 -0.299492,-0.0053 -0.522098,0.07428 -0.300327,0.106872 -0.340533,1.102023 -0.155673,3.854495 0.137113,2.040731 0.318005,3.777667 0.402199,3.859824 0.08422,0.08216 0.315059,0.149314 0.513003,0.149314 0.245227,0 0.283298,-1.254436 0.119945,-3.934141 z m 1.628308,0.429398 c -0.109737,-3.695924 -0.223882,-4.263774 -0.85806,-4.264241 -0.32891,-2.14e-4 -0.374962,0.736828 -0.202074,3.236935 0.122961,1.780499 0.239821,3.536069 0.25961,3.901251 0.0239,0.4376 0.183282,0.634952 0.468274,0.578804 0.328469,-0.06479 0.408416,-0.894931 0.332459,-3.452749 z m 1.503468,0.865395 c -0.267708,-3.2704 -0.488945,-4.332533 -0.901932,-4.332533 -0.303019,0 -0.251514,1.172919 0.23351,5.328512 0.105561,0.903842 0.347725,1.643369 0.538175,1.643369 0.224579,0 0.270399,-0.928156 0.130154,-2.639348 z m 1.345775,-0.398405 c -0.249426,-3.117934 -0.306359,-3.336553 -0.86922,-3.336553 -0.191866,0 -0.253601,0.557563 -0.148713,1.344595 0.0986,0.739513 0.248822,2.106498 0.333503,3.037739 0.08491,0.931241 0.160778,1.760407 0.16913,1.842565 0.0093,0.08216 0.182354,0.149313 0.386562,0.149313 0.259309,0 0.298285,-0.91855 0.128529,-3.037739 z m -22.124152,1.756613 v -0.98234 l 2.421871,0.02084 2.421849,0.02084 -0.111129,1.011222 -0.11113,1.011208 h 2.458714 2.45869 l -0.0986,-2.039342 -0.0986,-2.03937 -5.362732,0.05344 c -2.949468,0.02952 -6.180053,0.105937 -7.179077,0.170034 l -1.816392,0.116356 0.0023,1.122409 c 0.0021,0.617345 0.101385,1.462408 0.220634,1.877912 l 0.21669,0.755464 2.287728,-0.05838 2.287681,-0.05838 z m 11.590322,-1.706811 c 0,-1.726381 -0.131777,-2.788755 -0.345985,-2.788755 -0.393754,0 -0.375751,-0.115822 -0.487228,3.137358 -0.06566,1.917147 0.01392,2.440138 0.374823,2.440138 0.358722,0 0.45839,-0.606404 0.45839,-2.788741 z m 1.729925,0.625387 c 0,-2.852356 -0.277591,-4.014307 -0.925179,-3.871259 -0.377027,0.08336 -0.479479,0.488671 -0.436582,1.727156 0.101849,2.941114 0.38517,4.307457 0.892977,4.307457 0.365589,0 0.468784,-0.47606 0.468784,-2.163354 z m -3.113842,-2.617345 c 0,-0.109677 -0.146625,-0.199209 -0.325569,-0.199209 -0.178873,0 -0.42178,0.08964 -0.539405,0.199209 -0.117625,0.109544 0.02993,0.199196 0.325546,0.199196 0.296777,0 0.539428,-0.08964 0.539428,-0.199196 z" />
    </g>
  </g>
</svg>
