<?xml version="1.0" encoding="UTF-8" standalone="no"?>
<svg
   version="1.1"
   width="100"
   height="100"
   id="svg4460"
   sodipodi:docname="auberge.svg"
   inkscape:version="1.2.2 (732a01da63, 2022-12-09)"
   xmlns:inkscape="http://www.inkscape.org/namespaces/inkscape"
   xmlns:sodipodi="http://sodipodi.sourceforge.net/DTD/sodipodi-0.dtd"
   xmlns="http://www.w3.org/2000/svg"
   xmlns:svg="http://www.w3.org/2000/svg"
   xmlns:rdf="http://www.w3.org/1999/02/22-rdf-syntax-ns#"
   xmlns:cc="http://creativecommons.org/ns#"
   xmlns:dc="http://purl.org/dc/elements/1.1/">
  <sodipodi:namedview
     pagecolor="#ffffff"
     bordercolor="#666666"
     borderopacity="1"
     objecttolerance="10"
     gridtolerance="10"
     guidetolerance="10"
     inkscape:pageopacity="0"
     inkscape:pageshadow="2"
     inkscape:window-width="1920"
     inkscape:window-height="1009"
     id="namedview11"
     showgrid="true"
     inkscape:zoom="16"
     inkscape:cx="34.78125"
     inkscape:cy="78.5625"
     inkscape:window-x="-8"
     inkscape:window-y="-8"
     inkscape:window-maximized="1"
     inkscape:current-layer="text5282"
     inkscape:document-rotation="0"
     inkscape:pagecheckerboard="0"
     showguides="true"
     inkscape:guide-bbox="true"
     inkscape:showpageshadow="0"
     inkscape:deskcolor="#d1d1d1">
    <inkscape:grid
       type="xygrid"
       id="grid823"
       originx="0"
       originy="0" />
    <sodipodi:guide
       position="0,86"
       orientation="66,0"
       id="guide957"
       inkscape:locked="false" />
    <sodipodi:guide
       position="0,20"
       orientation="0,50"
       id="guide959"
       inkscape:locked="false" />
    <sodipodi:guide
       position="50,20"
       orientation="-66,0"
       id="guide961"
       inkscape:locked="false" />
    <sodipodi:guide
       position="50,86"
       orientation="0,-50"
       id="guide963"
       inkscape:locked="false" />
    <sodipodi:guide
       position="8.9999971,64.32985"
       orientation="8.5387222,0"
       id="guide1517"
       inkscape:locked="false" />
    <sodipodi:guide
       position="8.9999971,55.791128"
       orientation="0,26.227758"
       id="guide1519"
       inkscape:locked="false" />
    <sodipodi:guide
       position="35,93.437165"
       orientation="-8.5387222,0"
       id="guide1521"
       inkscape:locked="false" />
    <sodipodi:guide
       position="35.227755,64.32985"
       orientation="0,-26.227758"
       id="guide1523"
       inkscape:locked="false" />
    <sodipodi:guide
       position="7.9247812,20.000001"
       orientation="0,-6.8495616"
       id="guide4054"
       inkscape:locked="false" />
    <sodipodi:guide
       position="1.0752196,74.999813"
       orientation="0,6.8495616"
       id="guide4058"
       inkscape:locked="false" />
  </sodipodi:namedview>
  <defs
     id="defs4462" />
  <metadata
     id="metadata4465">
    <rdf:RDF>
      <cc:Work
         rdf:about="">
        <dc:format>image/svg+xml</dc:format>
        <dc:type
           rdf:resource="http://purl.org/dc/dcmitype/StillImage" />
      </cc:Work>
    </rdf:RDF>
  </metadata>
  <g
     aria-label="C"
     id="text3215"
     style="font-size:32px;line-height:1.25"
     transform="translate(-37.75,-4)">
    <g
       aria-label="A"
       id="text5282"
       transform="matrix(1.6290909,0,0,2.8292029,-41.002727,-68.776958)">
      <path
         id="path1303"
         style="font-size:32px;line-height:1.25;fill:#666666;stroke-width:0.262524"
         d="m 62.031485,53.942543 c -0.124818,-0.07187 -1.383314,-0.117692 -2.796718,-0.102062 -1.941325,0.02164 -2.616173,-0.04088 -2.759342,-0.255705 -0.120177,-0.180479 0.09628,-0.325651 0.593091,-0.397429 0.8179,-0.118227 1.593182,-0.860973 1.593182,-1.526384 0,-0.718901 0.598891,-0.39743 0.790316,0.424214 0.208106,0.893583 0.502006,1.181736 0.871934,0.855042 0.132473,-0.116891 0.668793,-0.272897 1.192097,-0.346639 0.709834,-0.09992 0.951465,-0.06025 0.951465,0.156741 0,0.430921 0.648051,0.583307 1.252441,0.294512 0.423264,-0.202268 0.584112,-0.20311 0.797577,-0.004 0.167042,0.155526 0.83899,0.225553 1.790036,0.186385 l 1.522631,-0.06265 v -3.187146 c 0,-3.079112 0.03086,-3.217538 0.907709,-4.083534 1.282694,-1.266672 2.902719,-3.477183 3.576616,-4.880324 l 0.574043,-1.195174 5.807458,0.06249 5.807434,0.06249 1.783285,-1.185161 c 0.980813,-0.651845 1.783308,-1.285046 1.783308,-1.407117 0,-0.122074 0.168434,-0.221947 0.374243,-0.221947 0.206018,0 1.037561,-0.312942 1.848269,-0.695427 1.446998,-0.682656 1.929261,-0.718906 1.929261,-0.145015 0,0.158583 0.65492,0.61425 1.45535,1.012584 0.800478,0.398336 1.929262,0.965192 2.508362,1.259678 l 1.053012,0.535431 -1.814141,0.969376 -1.814142,0.969374 -0.979885,-0.608419 c -0.538894,-0.334603 -1.487157,-0.989351 -2.107183,-1.454982 -0.620073,-0.465622 -1.308191,-0.846586 -1.52922,-0.846586 -0.220866,0 -1.058649,0.425782 -1.861331,0.946183 -1.037885,0.672858 -1.402523,1.061261 -1.262417,1.344574 0.108113,0.21912 1.721225,1.721808 3.58411,3.339307 l 3.387024,2.9409 0.251212,3.084803 0.251235,3.08479 h 0.975616 c 1.137275,0 1.453193,-0.22574 1.5008,-1.072366 0.02088,-0.382441 0.235041,-0.637544 0.563742,-0.674014 0.420945,-0.04662 0.501937,0.105536 0.396121,0.744269 -0.130386,0.787913 0.35487,1.107112 0.759784,0.499613 0.170057,-0.25497 0.327448,-0.262905 0.988469,-0.04983 0.432452,0.139467 0.880703,0.327615 0.996124,0.418216 0.115306,0.09057 0.483977,0.135326 0.819037,0.09966 0.57332,-0.06132 1.55583,0.509592 1.20775,0.701734 -0.0884,0.04889 -8.772206,0.14759 -19.297336,0.219675 -10.52513,0.072 -19.329801,0.173627 -19.565956,0.22582 -0.236225,0.0521 -0.531471,0.03607 -0.656241,-0.0358 z m 9.849423,-2.421516 0.100921,-1.543777 2.681366,-0.05811 2.68132,-0.05811 v 1.60197 1.601942 h 1.610281 1.610304 l -0.21321,-2.714746 c -0.117161,-1.493107 -0.309468,-2.770466 -0.427232,-2.83857 -0.117857,-0.068 -2.692595,-0.152413 -5.721895,-0.187306 -5.125092,-0.05905 -5.510076,-0.03834 -5.540237,0.2988 -0.09234,1.032569 0.07471,4.418097 0.241329,4.894024 0.169594,0.484437 0.347168,0.547798 1.533883,0.547798 h 1.341855 z m 10.135506,0.406367 c -0.03364,-0.524781 -0.09257,-2.07465 -0.131314,-3.444133 -0.06705,-2.38176 -0.09373,-2.46496 -0.611395,-1.91481 -0.450154,0.478519 -0.501798,1.014107 -0.30745,3.18716 0.12853,1.436598 0.311579,2.770172 0.406863,2.96349 0.319119,0.647523 0.705078,0.172611 0.643388,-0.791707 z m 1.434702,-0.68597 c -0.123426,-1.002846 -0.229683,-2.952496 -0.235924,-4.332533 -0.0093,-2.28317 -0.05823,-2.473269 -0.534324,-2.110759 -0.395262,0.300898 -0.482077,0.73962 -0.354755,1.792762 0.09257,0.766913 0.177482,2.537285 0.188154,3.934141 0.01856,2.222627 0.09118,2.539756 0.590562,2.539756 0.505185,0 0.54495,-0.209535 0.345985,-1.823367 z m 1.278912,0.111146 c -0.204394,-6.049749 -0.206018,-8.463655 -0.007,-8.579325 0.127137,-0.07319 0.23177,0.800643 0.232327,1.941874 0.0021,3.753073 0.439923,8.349659 0.79535,8.349659 0.221562,0 0.262905,-1.318158 0.117857,-3.734931 -0.123425,-2.054211 -0.242512,-4.698555 -0.264714,-5.87631 -0.02088,-1.177754 -0.08816,-2.141363 -0.146626,-2.141363 -0.05846,0 -0.518478,0.515413 -1.022271,1.145374 l -0.915992,1.145396 0.246108,4.738431 c 0.173306,3.339145 0.359743,4.715895 0.631139,4.662099 0.245528,-0.04863 0.365891,-0.647243 0.331995,-1.650904 z m 2.750062,-0.695669 c -0.16565,-5.313776 -0.515973,-8.326311 -1.009465,-8.687303 -0.424843,-0.310742 -0.460432,0.386055 -0.266501,5.218884 0.122961,3.067636 0.296174,5.64946 0.384567,5.737416 0.08839,0.08804 0.341345,0.124907 0.56177,0.08216 0.278194,-0.05397 0.379022,-0.773659 0.329768,-2.351075 z m 1.125164,-2.323047 c -0.139201,-2.602009 -0.389323,-4.865382 -0.556388,-5.029711 -0.361297,-0.355382 -0.399322,-0.230668 -0.364266,1.195175 0.101617,4.143142 0.526923,8.56546 0.823492,8.56546 0.23293,0 0.265294,-1.57962 0.09721,-4.730924 z m 1.423937,1.493989 c -0.121801,-1.780325 -0.222954,-3.645614 -0.225042,-4.145079 -0.0021,-0.499453 -0.219242,-1.077416 -0.481845,-1.28432 -0.410134,-0.322953 -0.452451,0.200612 -0.298866,3.696859 0.166114,3.779176 0.404079,4.969475 0.993248,4.969475 0.12853,0 0.13433,-1.45661 0.0116,-3.236935 z m 1.791081,2.138519 c -0.09211,-0.660989 -0.0116,-0.819667 0.370043,-0.735171 0.395889,0.0875 0.444633,-0.07214 0.259611,-0.849912 -0.125281,-0.526705 -0.258126,-1.55019 -0.294991,-2.274421 -0.05823,-1.140429 -0.09535,-1.050016 -0.279099,0.67519 l -0.211818,1.991972 -0.06682,-2.218888 C 91.538969,46.6285 91.43596,46.274286 90.814125,45.865969 l -0.716099,-0.470263 0.183746,0.502204 c 0.101153,0.276224 0.204162,1.881466 0.228986,3.567196 0.0239,1.685744 0.121338,3.179625 0.214834,3.319748 0.0935,0.140162 0.404357,0.202936 0.691066,0.139641 0.379022,-0.08376 0.489246,-0.345263 0.403869,-0.958106 z m 0.646219,-0.144317 c -0.08282,-0.247769 -0.153354,-0.09204 -0.157298,0.346292 -0.0023,0.438215 0.0638,0.64095 0.15057,0.450505 0.08654,-0.190446 0.08955,-0.549001 0.007,-0.796797 z M 80.260783,46.577388 c 0.29919,-0.172104 0.543674,-0.38904 0.543674,-0.481965 0,-0.09284 0.85632,-1.210231 1.902906,-2.482901 1.046585,-1.272698 1.902905,-2.445207 1.902905,-2.605602 0,-0.241368 -0.759993,-0.289632 -4.411267,-0.280138 -2.426187,0.0069 -5.019717,0.0737 -5.763331,0.149831 -1.300581,0.133082 -1.381109,0.187651 -2.112635,1.432709 -0.418277,0.711902 -1.407419,2.033896 -2.198059,2.937752 l -1.437556,1.643369 h 5.514833 c 4.552186,0 5.609745,-0.0545 6.05853,-0.313028 z M 95.673574,39.04829 c -0.0093,-0.240695 -3.910166,-2.316919 -4.35387,-2.316919 -0.145466,0 -0.615897,0.190222 -1.04575,0.422718 l -0.781523,0.422718 1.91657,1.365738 1.916571,1.365731 1.178038,-0.517312 c 0.647913,-0.284522 1.174395,-0.618724 1.169964,-0.742674 z" />
    </g>
  </g>
</svg>
