<?xml version="1.0" encoding="UTF-8" standalone="no"?>
<svg
   version="1.1"
   width="100"
   height="100"
   id="svg4460"
   sodipodi:docname="hameau-r.svg"
   inkscape:version="1.2.2 (732a01da63, 2022-12-09)"
   xmlns:inkscape="http://www.inkscape.org/namespaces/inkscape"
   xmlns:sodipodi="http://sodipodi.sourceforge.net/DTD/sodipodi-0.dtd"
   xmlns="http://www.w3.org/2000/svg"
   xmlns:svg="http://www.w3.org/2000/svg"
   xmlns:rdf="http://www.w3.org/1999/02/22-rdf-syntax-ns#"
   xmlns:cc="http://creativecommons.org/ns#"
   xmlns:dc="http://purl.org/dc/elements/1.1/">
  <sodipodi:namedview
     pagecolor="#ffffff"
     bordercolor="#666666"
     borderopacity="1"
     objecttolerance="10"
     gridtolerance="10"
     guidetolerance="10"
     inkscape:pageopacity="0"
     inkscape:pageshadow="2"
     inkscape:window-width="1920"
     inkscape:window-height="1009"
     id="namedview11"
     showgrid="true"
     inkscape:zoom="8"
     inkscape:cx="53.0625"
     inkscape:cy="55.625"
     inkscape:window-x="-8"
     inkscape:window-y="-8"
     inkscape:window-maximized="1"
     inkscape:current-layer="text5282"
     inkscape:document-rotation="0"
     inkscape:pagecheckerboard="0"
     showguides="true"
     inkscape:guide-bbox="true"
     inkscape:showpageshadow="0"
     inkscape:deskcolor="#d1d1d1">
    <inkscape:grid
       type="xygrid"
       id="grid823"
       originx="0"
       originy="0" />
    <sodipodi:guide
       position="0,86"
       orientation="66,0"
       id="guide957"
       inkscape:locked="false" />
    <sodipodi:guide
       position="0,20"
       orientation="0,50"
       id="guide959"
       inkscape:locked="false" />
    <sodipodi:guide
       position="50,20"
       orientation="-66,0"
       id="guide961"
       inkscape:locked="false" />
    <sodipodi:guide
       position="50,86"
       orientation="0,-50"
       id="guide963"
       inkscape:locked="false" />
    <sodipodi:guide
       position="8.9999971,64.32985"
       orientation="8.5387222,0"
       id="guide1517"
       inkscape:locked="false" />
    <sodipodi:guide
       position="8.9999971,55.791128"
       orientation="0,26.227758"
       id="guide1519"
       inkscape:locked="false" />
    <sodipodi:guide
       position="35,93.437165"
       orientation="-8.5387222,0"
       id="guide1521"
       inkscape:locked="false" />
    <sodipodi:guide
       position="35.227755,64.32985"
       orientation="0,-26.227758"
       id="guide1523"
       inkscape:locked="false" />
    <sodipodi:guide
       position="7.9247812,20.000001"
       orientation="0,-6.8495616"
       id="guide4054"
       inkscape:locked="false" />
    <sodipodi:guide
       position="1.0752196,74.999813"
       orientation="0,6.8495616"
       id="guide4058"
       inkscape:locked="false" />
  </sodipodi:namedview>
  <defs
     id="defs4462" />
  <metadata
     id="metadata4465">
    <rdf:RDF>
      <cc:Work
         rdf:about="">
        <dc:format>image/svg+xml</dc:format>
        <dc:type
           rdf:resource="http://purl.org/dc/dcmitype/StillImage" />
      </cc:Work>
    </rdf:RDF>
  </metadata>
  <g
     aria-label="C"
     id="text3215"
     style="font-size:32px;line-height:1.25"
     transform="translate(-37.75,-4)">
    <g
       aria-label="A"
       id="text5282"
       transform="matrix(1.6290909,0,0,2.8292029,-41.002727,-68.776958)">
      <path
         id="path2147"
         style="font-size:32px;line-height:1.25;fill:#666666;stroke-width:0.262524"
         d="m 52.490538,53.683704 c -0.359418,-0.206937 -0.155673,-0.432609 0.390576,-0.432609 1.244437,0 3.362316,-0.503285 4.347444,-1.033111 0.573138,-0.308254 1.103449,-0.560464 1.178478,-0.560464 0.07494,0 0.136418,0.327627 0.136418,0.728062 0,0.692717 0.03062,0.712057 0.632716,0.398394 0.846391,-0.441008 1.089483,-0.415674 1.137322,0.118521 0.03016,0.337275 0.07911,0.361925 0.198361,0.09961 0.087,-0.191726 0.380368,-0.348593 0.651834,-0.348593 0.271605,0 0.499106,0.156873 0.505858,0.348593 0.0093,0.266675 0.129457,0.231566 0.511588,-0.149399 l 0.499338,-0.497992 0.222722,0.452392 c 0.187458,0.380722 0.307055,0.412277 0.755585,0.199198 0.424356,-0.201598 0.562652,-0.202453 0.678537,-0.0041 0.109505,0.187124 1.707351,0.248302 6.430871,0.246209 l 6.285308,-0.0028 -4.849702,-2.736169 c -2.667376,-1.504895 -6.453954,-3.623015 -8.414605,-4.706938 l -3.564877,-1.970766 1.579378,-0.923194 1.579356,-0.923196 -2.921187,-1.673123 c -1.606662,-0.920217 -2.84509,-1.744015 -2.75208,-1.830662 0.09303,-0.08665 1.447415,0.555203 3.009811,1.426329 1.562373,0.871127 3.021458,1.585401 3.242394,1.587275 0.220866,0.0019 0.794724,-0.265511 1.275085,-0.594185 0.480383,-0.328675 0.976381,-0.59759 1.102265,-0.59759 0.125978,0 2.354545,1.134965 4.952552,2.522148 2.598031,1.387181 5.66199,3.023085 6.80885,3.635342 4.54799,2.427983 4.27833,2.316047 4.81732,1.999698 0.27067,-0.15891 1.4482,-1.386987 2.61663,-2.729076 1.16841,-1.342089 2.26263,-2.44016 2.4316,-2.44016 0.16913,0 0.49344,0.200337 0.72106,0.445196 0.22759,0.244857 1.73955,1.461389 3.3599,2.703402 l 2.94606,2.258208 -0.0863,2.156701 -0.0863,2.156704 1.84191,0.07615 c 1.64042,0.06781 1.94896,0.01554 2.81999,-0.477776 0.537936,-0.304655 1.033586,-0.553917 1.101476,-0.553917 0.0677,0 0.18977,0.246505 0.2704,0.54779 0.14175,0.528252 0.15637,0.531807 0.40929,0.0996 0.32455,-0.554864 0.75666,-0.575428 1.0464,-0.0498 0.26203,0.475461 0.63353,0.503182 1.3345,0.0996 0.65694,-0.378222 0.91439,-0.378222 0.91439,0 0,0.210607 0.36989,0.298794 1.25328,0.298794 1.08767,0 1.19502,0.04042 0.81243,0.305861 -0.35012,0.242885 -1.04905,0.290823 -3.39466,0.232835 -1.62457,-0.04017 -3.550446,-0.01015 -4.279676,0.06658 -0.72925,0.07677 -1.4009,0.06972 -1.49256,-0.01571 -0.0916,-0.0854 -3.78602,-0.117132 -8.20959,-0.07054 -14.050168,0.148035 -36.576194,0.21714 -36.757504,0.11275 z M 57.851484,52.8527 c 0,-0.427726 -0.505417,-0.534125 -0.879938,-0.185237 -0.125978,0.117239 -0.563186,0.290832 -0.971858,0.385768 -0.620258,0.144082 -0.528617,0.174696 0.554369,0.185237 1.074078,0.01055 1.297427,-0.05596 1.297427,-0.385768 z m 24.91059,0.07521 c 0,-0.264692 -0.0937,-0.278303 -0.51899,-0.07521 -0.28538,0.136385 -0.51896,0.281821 -0.51896,0.323186 0,0.04136 0.23353,0.07521 0.51896,0.07521 0.28539,0 0.51899,-0.145428 0.51899,-0.323186 z m 1.80104,-1.618983 0.071,-1.94217 0.11669,1.791271 c 0.0643,0.985201 0.28451,1.881585 0.48948,1.991969 0.26562,0.143012 0.31348,-0.314642 0.16612,-1.592076 -0.11392,-0.986024 -0.21043,-2.263372 -0.21461,-2.838554 -0.002,-0.57518 -0.16332,-1.045783 -0.35373,-1.045783 -0.19047,0 -0.34598,0.274207 -0.34598,0.609348 0,0.355505 -0.14431,0.55806 -0.34597,0.486235 -0.22295,-0.07937 -0.34598,0.69512 -0.34598,2.17941 0,2.857176 0.66021,3.168944 0.76312,0.36035 z m 1.99396,1.493974 0.3129,-0.448193 0.0209,0.462048 c 0.0186,0.362466 0.18978,0.44833 0.80036,0.398394 0.75636,-0.06185 0.77638,-0.123076 0.70467,-2.15522 -0.1341,-3.797903 -0.50115,-6.573496 -0.86946,-6.573496 -0.35612,0 -0.10672,6.632455 0.29409,7.818476 0.10185,0.301285 0.0439,0.547791 -0.12923,0.547791 -0.17307,0 -0.33974,-0.515422 -0.37085,-1.145381 -0.16913,-3.423399 -0.53219,-6.204149 -0.79783,-6.109638 -0.16612,0.0591 -0.32402,0.617578 -0.35105,1.241073 -0.0473,1.096621 -0.0573,1.107616 -0.29677,0.336836 -0.23593,-0.758968 -0.44726,-0.654031 -0.40095,0.199198 0.12389,2.282873 0.50333,5.876306 0.62054,5.876306 0.0819,0 0.28958,-0.201686 0.46159,-0.448194 z m -0.10463,-0.680588 c -0.12691,-0.07303 -0.20231,-1.036655 -0.1682,-2.141365 l 0.0626,-2.008567 0.20091,2.091566 c 0.22249,2.318467 0.22597,2.243285 -0.0953,2.058366 z m 5.57176,-1.931139 c -0.10602,-1.81854 -0.34366,-3.212549 -0.58543,-3.436144 -0.31654,-0.292714 -0.3568,0.353336 -0.18143,2.910522 0.12413,1.807712 0.29648,3.353977 0.38318,3.436145 0.46934,0.444462 0.54569,-0.134622 0.38364,-2.910523 z m -2.37728,0.719356 c -0.0564,-3.487767 -0.43484,-5.979068 -0.95151,-6.265071 -0.39159,-0.216757 -0.43428,0.06383 -0.26381,1.733343 0.11183,1.095584 0.30191,3.045222 0.4222,4.332531 0.12018,1.28731 0.35573,2.340563 0.52321,2.340563 0.16751,0 0.28898,-0.963615 0.2698,-2.141366 z m 1.23458,-0.697188 c -0.23532,-3.445204 -0.43709,-4.483006 -0.90383,-4.64908 -0.24131,-0.08582 -0.28687,0.763282 -0.14152,2.634714 0.27998,3.607652 0.51427,4.85292 0.91332,4.85292 0.1979,0 0.2497,-1.115769 0.13224,-2.838554 z m 2.25991,0.165555 c -0.0951,-1.470602 -0.30056,-2.746873 -0.45644,-2.836159 -0.15591,-0.08928 -0.24641,0.903591 -0.20115,2.206394 0.0854,2.465864 0.24043,3.302471 0.61149,3.303172 0.12041,2e-4 0.14106,-1.202803 0.0462,-2.673407 z m 0.8605,-0.679221 c -0.38547,-2.117738 -0.61175,-1.196428 -0.29467,1.20012 0.23263,1.757671 0.32272,2.011322 0.41106,1.156109 0.0624,-0.60257 0.009,-1.662874 -0.11623,-2.356229 z m -12.62385,2.75463 c 1.70121,-0.979448 -0.0501,-3.423421 -2.65468,-3.704746 -1.50498,-0.162553 -3.409578,0.305805 -3.749229,0.921967 -1.0551,1.913911 4.055679,4.134761 6.403909,2.782779 z m -6.97496,-3.73494 c 0.234137,-0.246506 0.459133,-0.449544 0.499988,-0.451192 0.04083,-0.0016 0.670324,-0.122475 1.398719,-0.26849 l 1.324383,-0.265487 -4.611206,-2.466267 c -2.536155,-1.356444 -5.078274,-2.714246 -5.649138,-3.017334 -0.570865,-0.303092 -1.193606,-0.547371 -1.383917,-0.542848 -0.190474,0.0045 -1.280096,0.502155 -2.421872,1.105842 l -2.075863,1.097614 6.054656,3.391886 6.054632,3.391886 0.191866,-0.763709 c 0.105561,-0.42004 0.3835,-0.965396 0.617659,-1.211901 z m -6.229771,-2.259815 c -0.824675,-0.4486 -2.005404,-1.041889 -2.623852,-1.31842 -0.618449,-0.276531 -1.124446,-0.5831 -1.124446,-0.681264 0,-0.09816 0.505997,-0.49019 1.124446,-0.871168 l 1.124422,-0.692687 2.713985,1.481021 c 1.801869,0.98328 2.627588,1.568529 2.456881,1.741397 -0.412825,0.418101 -1.635871,1.15676 -1.915364,1.15676 -0.14129,0 -0.931373,-0.367036 -1.756072,-0.815639 z" />
    </g>
  </g>
</svg>
