<?xml version="1.0" encoding="UTF-8" standalone="no"?>
<svg
   version="1.1"
   width="100"
   height="100"
   id="svg4460"
   sodipodi:docname="hameau.svg"
   inkscape:version="1.2.2 (732a01da63, 2022-12-09)"
   xmlns:inkscape="http://www.inkscape.org/namespaces/inkscape"
   xmlns:sodipodi="http://sodipodi.sourceforge.net/DTD/sodipodi-0.dtd"
   xmlns="http://www.w3.org/2000/svg"
   xmlns:svg="http://www.w3.org/2000/svg"
   xmlns:rdf="http://www.w3.org/1999/02/22-rdf-syntax-ns#"
   xmlns:cc="http://creativecommons.org/ns#"
   xmlns:dc="http://purl.org/dc/elements/1.1/">
  <sodipodi:namedview
     pagecolor="#ffffff"
     bordercolor="#666666"
     borderopacity="1"
     objecttolerance="10"
     gridtolerance="10"
     guidetolerance="10"
     inkscape:pageopacity="0"
     inkscape:pageshadow="2"
     inkscape:window-width="1920"
     inkscape:window-height="1009"
     id="namedview11"
     showgrid="true"
     inkscape:zoom="8"
     inkscape:cx="53.0625"
     inkscape:cy="55.625"
     inkscape:window-x="-8"
     inkscape:window-y="-8"
     inkscape:window-maximized="1"
     inkscape:current-layer="text5282"
     inkscape:document-rotation="0"
     inkscape:pagecheckerboard="0"
     showguides="true"
     inkscape:guide-bbox="true"
     inkscape:showpageshadow="0"
     inkscape:deskcolor="#d1d1d1">
    <inkscape:grid
       type="xygrid"
       id="grid823"
       originx="0"
       originy="0" />
    <sodipodi:guide
       position="0,86"
       orientation="66,0"
       id="guide957"
       inkscape:locked="false" />
    <sodipodi:guide
       position="0,20"
       orientation="0,50"
       id="guide959"
       inkscape:locked="false" />
    <sodipodi:guide
       position="50,20"
       orientation="-66,0"
       id="guide961"
       inkscape:locked="false" />
    <sodipodi:guide
       position="50,86"
       orientation="0,-50"
       id="guide963"
       inkscape:locked="false" />
    <sodipodi:guide
       position="8.9999971,64.32985"
       orientation="8.5387222,0"
       id="guide1517"
       inkscape:locked="false" />
    <sodipodi:guide
       position="8.9999971,55.791128"
       orientation="0,26.227758"
       id="guide1519"
       inkscape:locked="false" />
    <sodipodi:guide
       position="35,93.437165"
       orientation="-8.5387222,0"
       id="guide1521"
       inkscape:locked="false" />
    <sodipodi:guide
       position="35.227755,64.32985"
       orientation="0,-26.227758"
       id="guide1523"
       inkscape:locked="false" />
    <sodipodi:guide
       position="7.9247812,20.000001"
       orientation="0,-6.8495616"
       id="guide4054"
       inkscape:locked="false" />
    <sodipodi:guide
       position="1.0752196,74.999813"
       orientation="0,6.8495616"
       id="guide4058"
       inkscape:locked="false" />
  </sodipodi:namedview>
  <defs
     id="defs4462" />
  <metadata
     id="metadata4465">
    <rdf:RDF>
      <cc:Work
         rdf:about="">
        <dc:format>image/svg+xml</dc:format>
        <dc:type
           rdf:resource="http://purl.org/dc/dcmitype/StillImage" />
      </cc:Work>
    </rdf:RDF>
  </metadata>
  <g
     aria-label="C"
     id="text3215"
     style="font-size:32px;line-height:1.25"
     transform="translate(-37.75,-4)">
    <g
       aria-label="A"
       id="text5282"
       transform="matrix(1.6290909,0,0,2.8292029,-41.002727,-68.776958)">
      <path
         id="path2083"
         style="font-size:32px;line-height:1.25;fill:#666666;stroke-width:0.262524"
         d="m 100.26272,53.959812 c -0.10648,-0.06133 -43.140211,-0.327503 -50.124128,-0.310023 l -1.210936,0.0031 1.124445,-0.51255 c 0.618449,-0.281904 1.124422,-0.635222 1.124422,-0.785153 0,-0.149934 0.176554,-0.335445 0.392478,-0.412251 0.271907,-0.09673 0.343433,0.05266 0.232931,0.486235 -0.08793,0.344238 -0.03086,0.625887 0.126441,0.625887 0.157297,0 0.285989,-0.140493 0.285989,-0.31222 0,-0.361438 1.2056,-0.217276 1.997957,0.2389 0.260191,0.149883 0.773565,0.272515 1.140546,0.272515 0.609795,0 0.667262,-0.155008 0.667262,-1.799779 0,-1.744189 -0.02088,-1.793127 -0.699116,-1.584362 -0.384497,0.11848 -0.851587,0.161154 -1.037954,0.09485 -0.768693,-0.273524 -0.214138,-0.694149 1.996541,-1.513979 1.284458,-0.476369 3.241582,-1.295032 4.349138,-1.819246 1.156438,-0.547326 2.187549,-0.893537 2.421871,-0.813172 0.224578,0.07697 1.731456,0.692674 3.348906,1.368231 1.617497,0.675557 3.382941,1.391461 3.923298,1.5909 l 0.982413,0.362615 -0.100689,-4.650702 c -0.05545,-2.557886 -0.193954,-5.069602 -0.308169,-5.581591 -0.296498,-1.331154 -0.227826,-1.375127 1.945757,-1.24596 l 1.905272,0.113217 -0.246433,-1.748803 c -0.204626,-1.453126 -0.164489,-1.733253 0.237431,-1.656822 0.327356,0.06224 0.512563,0.473379 0.572837,1.271426 0.157298,2.085163 0.213442,2.138496 2.131312,2.032392 l 1.666913,-0.09222 0.212282,2.109595 c 0.116697,1.160275 0.315778,3.526194 0.442475,5.257596 0.126905,1.731403 0.345312,3.075981 0.485882,2.987953 0.140593,-0.08803 1.086722,-1.639088 2.102613,-3.446799 1.63963,-2.917585 1.845207,-3.471885 1.830336,-4.935074 -0.02088,-2.014514 0.606732,-2.124795 0.985638,-0.173306 0.25272,1.30108 1.560401,3.18756 4.971878,7.171998 1.352086,1.57919 1.327586,1.521928 0.650975,1.521928 -0.285409,0 -0.518966,-0.129168 -0.518966,-0.287039 0,-0.157874 -0.170522,-0.347696 -0.37886,-0.421833 -0.266802,-0.09492 -0.325104,0.269897 -0.197434,1.233224 0.09976,0.75241 0.192562,1.368019 0.206018,1.368019 3.926406,0 9.461329,0.08821 9.573109,0.152556 0.084,0.04829 0.25031,0.818063 0.36986,1.710598 l 0.217389,1.622792 h 1.30378 c 1.02269,0 1.45407,-0.118107 2.00081,-0.54779 l 0.69705,-0.547792 0.34782,0.497992 c 0.24402,0.349151 0.35441,0.393803 0.36979,0.149399 0.0116,-0.191725 0.17006,-0.348593 0.35069,-0.348593 0.18073,0 0.48939,0.156873 0.68564,0.348593 0.31026,0.303074 0.40106,0.309704 0.6955,0.05076 0.2926,-0.257278 0.404,-0.246357 0.81878,0.08023 0.29798,0.23462 0.64838,0.318201 0.92351,0.220298 0.29496,-0.104988 0.38999,-0.06518 0.28387,0.118962 -0.0998,0.173367 -0.73048,0.288694 -1.68828,0.308771 -0.84084,0.01762 -2.63545,0.08262 -3.98805,0.144462 -1.35259,0.06182 -2.52281,0.07583 -2.60049,0.03113 z m -38.494552,-2.000405 0.03921,-1.394377 2.153329,-0.05975 c 1.252348,-0.03475 2.35125,0.03481 2.626358,0.166263 0.281488,0.134503 0.514418,0.723289 0.575273,1.454137 l 0.102313,1.228112 2.075863,0.05738 2.075887,0.05738 0.0645,-1.686379 0.0645,-1.686376 -1.794236,-0.777278 c -4.187223,-1.813945 -6.651899,-2.833317 -6.854854,-2.835109 -0.392223,-0.0035 -6.099641,2.770456 -6.235595,3.030617 -0.07308,0.139819 -0.08004,1.034095 -0.01392,1.987277 l 0.117161,1.733061 1.791452,0.07599 c 3.346099,0.141924 3.170543,0.215699 3.214647,-1.350939 z m 12.395695,1.201515 c -0.872212,-0.379816 -1.536551,-0.382554 -1.536551,-0.0064 0,0.203173 0.353316,0.298795 1.104052,0.298795 1.045078,0 1.068208,-0.01571 0.432499,-0.292462 z m 5.03707,-0.20553 c 0,-0.625228 -0.344685,-0.623336 -1.140592,0.0063 -0.616639,0.487813 -0.614574,0.491734 0.25961,0.491734 0.709208,0 0.881098,-0.09716 0.881098,-0.497992 z m 2.798272,0.0498 c 0.05777,-0.851173 0.06148,-1.649386 0.01392,-3.300976 -0.04199,-1.50691 -0.09558,-1.629144 -0.58975,-1.344577 -0.29919,0.172166 -0.734543,0.313023 -0.967844,0.313023 -0.432243,0 -0.436651,1.388263 -0.0116,3.73494 0.156137,0.862292 0.306359,1.045784 0.856343,1.045784 0.452126,0 0.676867,-0.144428 0.697492,-0.448194 z m 6.889191,-1.045783 c 0,-0.863185 -0.145929,-1.493975 -0.345985,-1.493975 -0.195346,0 -0.345962,0.56831 -0.345962,1.306535 0,0.820299 -0.128529,1.26072 -0.346008,1.183426 -0.190474,-0.06772 -0.345985,-0.670593 -0.345985,-1.339736 0,-0.669143 -0.106721,-1.155144 -0.237408,-1.080001 -0.130385,0.07514 -0.200913,0.543449 -0.155905,1.040682 0.09327,1.037398 -0.180266,1.677849 -0.716353,1.677849 -0.244624,0 -0.301464,-0.388383 -0.166578,-1.140478 0.160082,-0.893627 0.08282,-1.218015 -0.358583,-1.498684 -0.803493,-0.511167 -0.132241,-0.810071 1.604899,-0.71469 l 1.413891,0.07763 v -1.950686 c 0,-1.896318 -0.04338,-2.004408 -1.564298,-3.878034 -1.832841,-2.258173 -1.834511,-2.257882 -3.583043,0.631548 -1.005057,1.660911 -1.080017,1.973056 -1.07649,4.481929 0.0021,1.483176 0.100457,3.032828 0.218314,3.443673 l 0.21437,0.746987 h 2.895597 2.89555 z m 1.383917,0 c 0,-0.863185 -0.14593,-1.493975 -0.345985,-1.493975 -0.199986,0 -0.345985,0.63079 -0.345985,1.493975 0,0.863187 0.145929,1.493977 0.345985,1.493977 0.199986,0 0.345985,-0.63079 0.345985,-1.493977 z m 2.743519,0.348598 c -0.03805,-1.786429 -0.61411,-2.232454 -0.643319,-0.497993 -0.01392,0.820653 -0.173538,1.444177 -0.370299,1.444177 -0.197898,0 -0.345985,-0.59759 -0.345985,-1.394378 0,-0.796787 -0.148481,-1.394377 -0.345961,-1.394377 -0.199986,0 -0.346008,0.63079 -0.346008,1.493975 v 1.493977 h 1.037954 c 1.035751,0 1.037886,-0.0024 1.013618,-1.145381 z m 1.408254,-0.365194 c 0,-1.11938 -0.112057,-1.489349 -0.432499,-1.428607 -0.474514,0.08993 -0.771477,1.734438 -0.447416,2.477789 0.419808,0.963035 0.879915,0.414425 0.879915,-1.049182 z m 1.672179,0.126883 c -0.0747,-0.761028 -0.256316,-1.45313 -0.403823,-1.538006 -0.513653,-0.295724 -0.748601,0.300251 -0.633389,1.606519 0.08955,1.017622 0.235645,1.315172 0.644502,1.315172 0.436327,0 0.504837,-0.241339 0.39271,-1.383685 z m 1.370275,-0.04455 c -0.0689,-0.969181 -0.249402,-1.456395 -0.561468,-1.51583 -0.361924,-0.06892 -0.435608,0.235249 -0.346009,1.428052 0.08074,1.073178 0.244624,1.515697 0.561515,1.515832 0.334037,1.4e-4 0.42185,-0.362235 0.345962,-1.428054 z m 1.685241,-0.115528 c -0.0578,-1.57005 -0.485673,-2.003372 -0.963041,-0.975662 -0.368025,0.792279 0.02993,2.519437 0.578753,2.519437 0.324618,0 0.426188,-0.408029 0.384288,-1.543775 z m -21.370609,0.44126 c 1.406305,-0.922156 1.448182,-1.840494 0.122266,-2.682836 -0.523281,-0.332467 -1.460408,-0.68667 -2.082453,-0.787113 -1.569611,-0.253439 -2.814976,0.364356 -3.086836,1.531264 -0.255713,1.0978 0.351298,1.905335 1.729345,2.300551 1.635523,0.469051 2.133261,0.414765 3.317609,-0.361866 z m 0.910772,-4.425197 c -0.117161,-0.849078 -0.354291,-2.5298 -0.52704,-3.73494 -0.172609,-1.205141 -0.411061,-2.958536 -0.529591,-3.896433 -0.118321,-0.937899 -0.336566,-1.818073 -0.48456,-1.955943 -0.183514,-0.170838 -0.974154,-0.230427 -2.482749,-0.187101 l -2.213696,0.06358 0.02088,2.489959 c 0.0116,1.369478 0.05127,3.772378 0.08654,5.339777 l 0.06403,2.849817 1.015682,-0.34543 c 0.862701,-0.293406 1.218963,-0.310361 2.365542,-0.112576 0.742407,0.12806 1.632855,0.4129 1.97877,0.632962 0.345915,0.220063 0.693872,0.400114 0.773287,0.400114 0.07934,0 0.04849,-0.694699 -0.06867,-1.543775 z M 74.771059,43.74996 c -1.038558,-0.114313 -1.336657,-0.634444 -1.3809,-2.409204 l -0.03619,-1.455608 1.280096,0.06122 1.280119,0.06123 0.110665,1.942169 c 0.06078,1.068192 -0.01856,1.92996 -0.173074,1.915042 -0.155905,-0.01484 -0.642275,-0.06661 -1.080666,-0.11486 z" />
    </g>
  </g>
</svg>
