<?xml version="1.0" encoding="UTF-8" standalone="no"?>
<svg
   version="1.1"
   width="100"
   height="100"
   id="svg4460"
   sodipodi:docname="chateau-r.svg"
   inkscape:version="1.2.2 (732a01da63, 2022-12-09)"
   xmlns:inkscape="http://www.inkscape.org/namespaces/inkscape"
   xmlns:sodipodi="http://sodipodi.sourceforge.net/DTD/sodipodi-0.dtd"
   xmlns="http://www.w3.org/2000/svg"
   xmlns:svg="http://www.w3.org/2000/svg"
   xmlns:rdf="http://www.w3.org/1999/02/22-rdf-syntax-ns#"
   xmlns:cc="http://creativecommons.org/ns#"
   xmlns:dc="http://purl.org/dc/elements/1.1/">
  <sodipodi:namedview
     pagecolor="#ffffff"
     bordercolor="#666666"
     borderopacity="1"
     objecttolerance="10"
     gridtolerance="10"
     guidetolerance="10"
     inkscape:pageopacity="0"
     inkscape:pageshadow="2"
     inkscape:window-width="1920"
     inkscape:window-height="1009"
     id="namedview11"
     showgrid="true"
     inkscape:zoom="16"
     inkscape:cx="34.78125"
     inkscape:cy="78.5625"
     inkscape:window-x="-8"
     inkscape:window-y="-8"
     inkscape:window-maximized="1"
     inkscape:current-layer="text5282"
     inkscape:document-rotation="0"
     inkscape:pagecheckerboard="0"
     showguides="true"
     inkscape:guide-bbox="true"
     inkscape:showpageshadow="0"
     inkscape:deskcolor="#d1d1d1">
    <inkscape:grid
       type="xygrid"
       id="grid823"
       originx="0"
       originy="0" />
    <sodipodi:guide
       position="0,86"
       orientation="66,0"
       id="guide957"
       inkscape:locked="false" />
    <sodipodi:guide
       position="0,20"
       orientation="0,50"
       id="guide959"
       inkscape:locked="false" />
    <sodipodi:guide
       position="50,20"
       orientation="-66,0"
       id="guide961"
       inkscape:locked="false" />
    <sodipodi:guide
       position="50,86"
       orientation="0,-50"
       id="guide963"
       inkscape:locked="false" />
    <sodipodi:guide
       position="8.9999971,64.32985"
       orientation="8.5387222,0"
       id="guide1517"
       inkscape:locked="false" />
    <sodipodi:guide
       position="8.9999971,55.791128"
       orientation="0,26.227758"
       id="guide1519"
       inkscape:locked="false" />
    <sodipodi:guide
       position="35,93.437165"
       orientation="-8.5387222,0"
       id="guide1521"
       inkscape:locked="false" />
    <sodipodi:guide
       position="35.227755,64.32985"
       orientation="0,-26.227758"
       id="guide1523"
       inkscape:locked="false" />
    <sodipodi:guide
       position="7.9247812,20.000001"
       orientation="0,-6.8495616"
       id="guide4054"
       inkscape:locked="false" />
    <sodipodi:guide
       position="1.0752196,74.999813"
       orientation="0,6.8495616"
       id="guide4058"
       inkscape:locked="false" />
  </sodipodi:namedview>
  <defs
     id="defs4462" />
  <metadata
     id="metadata4465">
    <rdf:RDF>
      <cc:Work
         rdf:about="">
        <dc:format>image/svg+xml</dc:format>
        <dc:type
           rdf:resource="http://purl.org/dc/dcmitype/StillImage" />
      </cc:Work>
    </rdf:RDF>
  </metadata>
  <g
     aria-label="C"
     id="text3215"
     style="font-size:32px;line-height:1.25"
     transform="translate(-37.75,-4)">
    <g
       aria-label="A"
       id="text5282"
       transform="matrix(1.6290909,0,0,2.8292029,-41.002727,-68.776958)">
      <path
         id="path1327"
         style="font-size:32px;line-height:1.25;fill:#666666;stroke-width:0.262524"
         d="m 57.060613,53.629008 c 0,-0.1526 0.220634,-0.277439 0.49029,-0.277439 0.269795,0 1.198918,-0.174869 2.065006,-0.38864 1.116998,-0.275649 1.639096,-0.536229 1.796115,-0.896374 0.121801,-0.279256 0.334199,-0.507749 0.472147,-0.507749 0.528014,0 0.638471,0.250054 0.358653,0.811773 -0.236503,0.474951 -0.182818,0.588209 0.291093,0.61295 1.122311,0.05851 1.277381,0.08136 1.771824,0.259177 0.3226,0.116224 0.546482,0.09672 0.634318,-0.05504 0.160777,-0.277426 1.008142,-0.314283 1.173676,-0.05103 0.108113,0.172104 12.743605,0.411417 12.743605,0.24141 0,-0.151905 -8.800379,-5.450599 -9.199098,-5.538688 -0.221794,-0.04903 -1.084054,0.179104 -1.916199,0.506867 -1.945896,0.766485 -2.263832,0.382427 -0.440526,-0.532142 0.742198,-0.372262 1.310488,-0.757655 1.262904,-0.856405 -0.04756,-0.09872 0.185834,-0.18279 0.518966,-0.186745 0.332993,-0.004 1.060691,-0.221412 1.617079,-0.483288 l 1.011599,-0.476127 -2.008675,-1.413541 c -1.104772,-0.777466 -2.115675,-1.45165 -2.246501,-1.498187 -0.130618,-0.04661 -1.519081,0.638309 -3.085027,1.521953 -2.832283,1.598148 -3.845692,1.88375 -2.691133,0.758456 0.332737,-0.32433 0.834396,-1.03444 1.114771,-1.578003 0.280305,-0.543583 0.915295,-1.26579 1.410944,-1.604927 l 0.90112,-0.616583 -0.736676,-0.451476 c -0.74496,-0.456569 -1.005405,-1.012806 -0.416955,-0.890594 0.17609,0.03659 2.061085,1.231699 4.18945,2.655952 2.128366,1.424273 3.981043,2.614171 4.117043,2.644269 0.136185,0.03006 1.309861,-0.485345 2.608494,-1.145399 1.298632,-0.660028 2.493769,-1.200073 2.655822,-1.200073 0.561608,0 0.289586,0.326606 -0.748787,0.899429 -0.573904,0.316541 -1.002041,0.646962 -0.951441,0.734223 0.05058,0.08737 1.945408,1.229694 4.210678,2.538728 l 4.118713,2.380063 0.674291,-0.736467 c 0.370856,-0.405045 1.13644,-1.206824 1.701343,-1.781728 0.616406,-0.627311 0.982552,-1.257548 0.915712,-1.576187 -0.06264,-0.298119 0.07818,-0.567663 0.321115,-0.6147 0.298587,-0.05784 0.432452,0.165545 0.432452,0.721893 0,0.648779 0.370623,1.119069 1.902906,2.414676 l 1.902905,1.60897 v 1.888466 1.888466 l 0.951418,-0.131319 c 1.209358,-0.167094 1.163445,-0.138266 1.432939,-0.896962 0.125513,-0.353439 0.44092,-0.683419 0.700832,-0.733288 0.345521,-0.06626 0.425771,0.0501 0.298564,0.433298 -0.119017,0.358302 -0.0239,0.523993 0.297079,0.523993 0.259007,0 0.470988,0.143957 0.470988,0.320095 0,0.213784 0.186993,0.278802 0.562837,0.195762 0.309538,-0.0684 0.740737,-0.03941 0.958239,0.06452 0.217618,0.103933 1.05677,0.217511 1.865113,0.252432 0.808362,0.03487 1.467022,0.132921 1.463702,0.217751 -0.002,0.0847 -9.892483,0.187266 -21.97588,0.22761 -18.60665,0.06212 -21.969824,0.03086 -21.969824,-0.204045 z M 86.30735,48.809795 c -0.37589,-0.216402 -0.459109,0.110879 -0.585342,2.302581 -0.07099,1.233488 -0.02088,2.085057 0.111593,1.892367 0.197434,-0.287673 0.258404,-0.261262 0.339466,0.147577 0.05429,0.273912 0.148017,-0.56725 0.20857,-1.869216 0.06055,-1.301953 0.02691,-2.414957 -0.07424,-2.473363 z m 1.254019,1.787098 c -0.06357,-1.497769 -0.2575,-2.808379 -0.430945,-2.912459 -0.359348,-0.215534 -0.433565,3.934488 -0.09164,5.125495 0.413591,1.440886 0.637403,0.493213 0.522632,-2.213036 z m -3.827179,2.342738 c 1.109226,-0.454753 1.344731,-1.331009 0.607915,-2.262077 -0.790872,-0.999358 -3.887615,-1.088503 -4.771752,-0.13741 -0.499153,0.536991 -0.463007,1.670006 0.06542,2.051365 1.133424,0.817984 2.640093,0.945923 4.09839,0.348082 z m 4.515924,-3.771188 -0.302091,-1.892366 -0.04756,2.113551 c -0.02691,1.162472 0.06914,2.551873 0.211818,3.087569 l 0.259611,0.973976 0.09025,-1.195175 c 0.04942,-0.657355 -0.04594,-2.046756 -0.211818,-3.087555 z m 1.249981,3.691181 c -0.09002,-0.270599 -0.02993,-0.444573 0.132706,-0.386649 0.162865,0.05798 0.295895,0.27931 0.295895,0.491958 0,0.418243 0.259889,0.475072 0.97673,0.213437 0.7715,-0.281621 0.423589,-3.019906 -0.514883,-4.052114 l -0.776558,-0.854187 -0.0747,1.892367 -0.0747,1.892367 -0.20045,-2.125014 c -0.110433,-1.168751 -0.339025,-2.199597 -0.508247,-2.290772 -0.179338,-0.09645 -0.216227,0.54176 -0.08839,1.527426 0.120409,0.931242 0.219938,2.253407 0.22133,2.938162 0.0014,0.783117 0.145465,1.244964 0.388395,1.244964 0.224346,0 0.317796,-0.206397 0.222954,-0.491945 z m 0.881864,-1.599618 c 0.0021,-0.657329 0.06659,-0.902239 0.143609,-0.544218 0.07703,0.358021 0.07563,0.895853 -0.0023,1.195188 -0.07888,0.299321 -0.141753,0.0067 -0.139897,-0.65097 z m -12.009782,0.333253 c 0.08538,-1.420354 1.110896,-2.177461 3.076466,-2.27112 0.481637,-0.02298 0.835162,-0.105269 0.785606,-0.183005 -0.215762,-0.338757 -6.923179,-4.153175 -7.292364,-4.147203 -0.225043,0.004 -1.421269,0.536243 -2.658166,1.183539 l -2.248868,1.1769 3.158549,1.854213 c 1.737186,1.019838 3.516782,2.100741 3.954664,2.402026 0.999813,0.687921 1.182005,0.68565 1.224113,-0.0155 z m -3.407092,-3.2084 c -0.903881,-0.539342 -1.643411,-1.107634 -1.643411,-1.262825 0,-0.332759 1.216735,-1.01364 1.630071,-0.912191 0.157297,0.03861 1.046956,0.542642 1.976728,1.120017 l 1.690554,1.049762 -0.806115,0.494015 c -0.443333,0.271695 -0.895691,0.493521 -1.005242,0.492933 -0.109505,-6.01e-4 -0.938728,-0.442356 -1.842585,-0.981711 z m 10.349063,1.530579 c -0.09582,-0.13689 -0.174465,-0.02485 -0.174465,0.248998 0,0.273886 0.07865,0.385927 0.174465,0.248998 0.09582,-0.13689 0.09582,-0.36104 0,-0.497996 z" />
    </g>
  </g>
</svg>
