<?xml version="1.0" encoding="UTF-8" standalone="no"?>
<svg
   version="1.1"
   width="100"
   height="100"
   id="svg4460"
   sodipodi:docname="chateau.svg"
   inkscape:version="1.2.2 (732a01da63, 2022-12-09)"
   xmlns:inkscape="http://www.inkscape.org/namespaces/inkscape"
   xmlns:sodipodi="http://sodipodi.sourceforge.net/DTD/sodipodi-0.dtd"
   xmlns="http://www.w3.org/2000/svg"
   xmlns:svg="http://www.w3.org/2000/svg"
   xmlns:rdf="http://www.w3.org/1999/02/22-rdf-syntax-ns#"
   xmlns:cc="http://creativecommons.org/ns#"
   xmlns:dc="http://purl.org/dc/elements/1.1/">
  <sodipodi:namedview
     pagecolor="#ffffff"
     bordercolor="#666666"
     borderopacity="1"
     objecttolerance="10"
     gridtolerance="10"
     guidetolerance="10"
     inkscape:pageopacity="0"
     inkscape:pageshadow="2"
     inkscape:window-width="1920"
     inkscape:window-height="1009"
     id="namedview11"
     showgrid="true"
     inkscape:zoom="16"
     inkscape:cx="34.78125"
     inkscape:cy="78.5625"
     inkscape:window-x="-8"
     inkscape:window-y="-8"
     inkscape:window-maximized="1"
     inkscape:current-layer="text5282"
     inkscape:document-rotation="0"
     inkscape:pagecheckerboard="0"
     showguides="true"
     inkscape:guide-bbox="true"
     inkscape:showpageshadow="0"
     inkscape:deskcolor="#d1d1d1">
    <inkscape:grid
       type="xygrid"
       id="grid823"
       originx="0"
       originy="0" />
    <sodipodi:guide
       position="0,86"
       orientation="66,0"
       id="guide957"
       inkscape:locked="false" />
    <sodipodi:guide
       position="0,20"
       orientation="0,50"
       id="guide959"
       inkscape:locked="false" />
    <sodipodi:guide
       position="50,20"
       orientation="-66,0"
       id="guide961"
       inkscape:locked="false" />
    <sodipodi:guide
       position="50,86"
       orientation="0,-50"
       id="guide963"
       inkscape:locked="false" />
    <sodipodi:guide
       position="8.9999971,64.32985"
       orientation="8.5387222,0"
       id="guide1517"
       inkscape:locked="false" />
    <sodipodi:guide
       position="8.9999971,55.791128"
       orientation="0,26.227758"
       id="guide1519"
       inkscape:locked="false" />
    <sodipodi:guide
       position="35,93.437165"
       orientation="-8.5387222,0"
       id="guide1521"
       inkscape:locked="false" />
    <sodipodi:guide
       position="35.227755,64.32985"
       orientation="0,-26.227758"
       id="guide1523"
       inkscape:locked="false" />
    <sodipodi:guide
       position="7.9247812,20.000001"
       orientation="0,-6.8495616"
       id="guide4054"
       inkscape:locked="false" />
    <sodipodi:guide
       position="1.0752196,74.999813"
       orientation="0,6.8495616"
       id="guide4058"
       inkscape:locked="false" />
  </sodipodi:namedview>
  <defs
     id="defs4462" />
  <metadata
     id="metadata4465">
    <rdf:RDF>
      <cc:Work
         rdf:about="">
        <dc:format>image/svg+xml</dc:format>
        <dc:type
           rdf:resource="http://purl.org/dc/dcmitype/StillImage" />
      </cc:Work>
    </rdf:RDF>
  </metadata>
  <g
     aria-label="C"
     id="text3215"
     style="font-size:32px;line-height:1.25"
     transform="translate(-37.75,-4)">
    <g
       aria-label="A"
       id="text5282"
       transform="matrix(1.6290909,0,0,2.8292029,-41.002727,-68.776958)">
      <path
         id="path1267"
         style="font-size:32px;line-height:1.25;fill:#666666;stroke-width:0.262524"
         d="m 55.809552,53.802891 c -0.40902,-0.235532 -0.03318,-0.414983 0.869081,-0.414983 1.222048,0 2.063892,-0.442089 2.336518,-1.22697 0.297682,-0.856658 0.989025,-0.576253 0.851169,0.34517 -0.113681,0.758643 -0.0986,0.770199 0.550658,0.431842 0.367027,-0.191234 0.784399,-0.280271 0.927545,-0.197873 0.143377,0.08229 0.364011,0.152947 0.490893,0.156915 0.126905,0.004 0.542027,0.103398 0.922627,0.221211 0.380553,0.117693 1.270398,0.22379 1.977378,0.235599 l 1.285455,0.02137 0.0986,-2.035428 0.09837,-2.035455 2.248867,-0.0175 c 1.236897,-0.01069 2.871631,0.01991 3.632808,0.06546 l 1.383916,0.08283 -0.112753,1.693678 c -0.06194,0.931522 -0.007,1.84326 0.121105,2.026077 0.477693,0.678931 0.708187,-0.438027 0.578869,-2.804972 -0.106489,-1.949864 -0.217386,-2.340548 -0.664315,-2.340548 -0.466696,0 -0.502355,-0.265309 -0.274598,-2.04176 0.455745,-3.552484 0.567965,-3.227985 -1.140778,-3.298826 -0.964526,-0.04005 -1.443449,-0.145688 -1.354197,-0.298798 0.09025,-0.155008 1.142495,-0.246115 3.0438,-0.263498 l 2.905851,-0.02658 0.06403,-1.020971 c 0.08955,-1.429361 -0.335638,-1.621758 -3.258286,-1.47381 -3.478341,0.176086 -3.643712,0.174256 -3.768691,-0.0416 -0.0986,-0.170717 3.058346,-1.144966 5.243622,-1.61823 0.881469,-0.190901 1.531818,-0.66935 1.5459,-1.13733 0.007,-0.201591 0.204626,-0.328259 0.443496,-0.282747 0.301023,0.05739 0.501589,0.88427 0.659861,2.72047 0.125049,1.450921 0.324965,2.69422 0.444237,2.762904 0.11925,0.06871 1.63028,0.09908 3.357746,0.06766 2.498478,-0.04557 3.109781,-0.0035 2.988815,0.209021 -0.08352,0.146378 -0.739994,0.294621 -1.458598,0.329299 l -1.306497,0.063 0.19929,0.833347 c 0.109737,0.45832 0.301579,1.393556 0.426489,2.078311 0.125049,0.684728 0.339048,1.244964 0.475883,1.244964 0.364638,0 1.354406,-1.400409 1.467391,-2.0762 0.154746,-0.924455 0.962322,-0.889735 0.962322,0.04141 0,0.642179 0.326149,1.030378 1.771338,2.108181 0.9742,0.726568 1.925224,1.321043 2.113354,1.321043 0.198362,0 0.24402,0.224792 0.108578,0.535789 -0.12853,0.294699 -0.126906,1.403521 0.0023,2.464078 l 0.237431,1.928289 6.3583,0.09164 c 5.702618,0.08229 7.137858,0.177073 6.677378,0.441046 -0.18978,0.108876 -46.347281,0.240903 -46.534414,0.133056 z M 69.158637,51.91023 c 0,-0.81272 -0.09443,-1.619483 -0.209962,-1.792789 -0.354036,-0.531206 -0.825696,-0.350646 -0.86806,0.332305 -0.0239,0.39588 -0.09953,0.492612 -0.193258,0.248998 -0.08422,-0.219114 -0.230146,-0.530325 -0.324455,-0.691595 -0.381017,-0.652025 -0.815581,0.320563 -0.820801,1.836994 l -0.007,1.543765 h 1.210959 1.210913 z m -1.010602,0.763894 c 0.01392,-0.232059 0.0986,-0.279257 0.209034,-0.120365 0.09976,0.143783 0.08746,0.315593 -0.02691,0.381787 -0.114841,0.06613 -0.196738,-0.05143 -0.181658,-0.261436 z m 2.270304,-1.156194 c -0.116697,-0.888786 -0.21437,-1.638386 -0.216922,-1.665758 -0.0023,-0.02752 -0.160313,-0.0497 -0.350717,-0.0497 -0.378048,0 -0.49507,3.234104 -0.124818,3.447313 0.642693,0.37003 0.887966,-0.243387 0.692434,-1.731765 z m 1.162169,0.69969 c 0,-1.431094 -0.370275,-2.642607 -0.662784,-2.168483 -0.30963,0.501937 -0.01856,3.338771 0.344152,3.338771 0.175394,0 0.318632,-0.526638 0.318632,-1.170288 z m 1.380112,0.124506 c -0.007,-1.345597 -0.349743,-2.53977 -0.733405,-2.53977 -0.348723,0 -0.414774,3.254289 -0.07006,3.45275 0.568939,0.327576 0.806997,0.05718 0.803447,-0.91298 z m 15.538722,-0.214371 c -0.03828,-1.158318 -0.520706,-3.383911 -0.633366,-2.922986 -0.05267,0.215574 -0.155906,0.18784 -0.370368,-0.09966 -0.201378,-0.269852 -0.325987,0.180079 -0.386122,1.39437 l -0.08863,1.792789 -0.195114,-1.693184 -0.195113,-1.693171 -1.124423,-0.06252 c -1.018025,-0.05651 -1.129363,-0.008 -1.176274,0.497996 l -0.05197,0.560423 -0.144305,-0.547799 c -0.07911,-0.301285 -0.312925,-0.547798 -0.519268,-0.547798 -0.258705,0 -0.311323,0.648806 -0.169361,2.091563 0.124121,1.262424 0.0761,2.091576 -0.120873,2.091576 -0.184442,0 -0.326567,-0.918992 -0.326567,-2.108155 0,-1.598362 -0.104633,-2.087942 -0.432498,-2.024541 -0.487321,0.09418 -0.404032,3.875749 0.09327,4.232287 0.158225,0.113418 1.4821,0.171235 3.076396,0.134298 l 2.798573,-0.06492 z m -4.006818,-0.532623 c 0,-0.712127 0.06264,-1.00346 0.139433,-0.647403 0.07679,0.35607 0.07679,0.938722 0,1.294793 -0.07679,0.356057 -0.139433,0.06479 -0.139433,-0.64739 z m 1.100178,0.995966 c 0.117625,-0.109544 0.282393,-0.199196 0.366424,-0.199196 0.08398,0 0.152658,0.08964 0.152658,0.199196 0,0.109543 -0.164954,0.199209 -0.366378,0.199209 -0.201378,0 -0.27012,-0.08964 -0.152658,-0.199209 z m -0.06241,-2.191168 c 0,-0.712114 0.06264,-1.003446 0.139434,-0.647376 0.07679,0.356057 0.07679,0.938722 0,1.294779 -0.07679,0.356071 -0.139434,0.06466 -0.139434,-0.647403 z m 2.052385,-0.09966 c 0.0023,-0.438214 0.0747,-0.594047 0.157297,-0.346265 0.08282,0.247783 0.07981,0.606338 -0.007,0.796797 -0.08654,0.190446 -0.154281,-0.01202 -0.150569,-0.450532 z m -7.646771,2.67312 c 0.842191,-0.259485 1.75403,-1.430681 1.458761,-1.873665 -0.2662,-0.3993 -2.60114,-1.098242 -3.668907,-1.098242 -1.169848,0 -2.33965,0.546944 -2.33965,1.093901 0,0.665892 0.619747,1.550043 1.292647,1.844247 0.700043,0.306068 2.318978,0.322847 3.257149,0.0338 z m -4.187454,-3.279201 c 1.033361,-0.538448 2.920143,-0.589078 4.313455,-0.115823 0.684987,0.232687 1.275456,0.423239 1.312182,0.423453 0.03666,1.87e-4 0.01392,-0.522804 -0.04756,-1.162231 -0.158225,-1.607928 -1.091037,-2.276812 -3.213648,-2.304158 -0.948217,-0.01202 -1.907894,0.116758 -2.482262,0.333253 -0.869753,0.328057 -0.936384,0.452068 -0.936384,1.742974 0,0.764387 0.104633,1.389802 0.232327,1.389802 0.127601,0 0.497645,-0.138266 0.822053,-0.307311 z m 8.91457,-3.029257 c -0.100921,-0.509765 -0.174465,-0.475192 -1.06025,0.497996 -0.889311,0.97709 -0.907964,1.045782 -0.283576,1.045782 0.417952,0 0.724427,-0.167789 0.818202,-0.448181 0.124585,-0.372796 0.167274,-0.347668 0.252419,0.149487 l 0.102545,0.597574 0.139433,-0.647376 c 0.07679,-0.356071 0.09095,-0.893917 0.03109,-1.195188 z m 0.79484,0.142407 c -0.299932,-0.432604 -0.343038,-0.382414 -0.362341,0.421957 -0.0116,0.502137 0.09466,0.981311 0.237431,1.064818 0.40561,0.237362 0.504396,-0.939231 0.124817,-1.486775 z m 1.033431,0.660602 c -0.314711,-0.311318 -0.360021,-0.291721 -0.369255,0.159666 -0.007,0.283037 0.106025,0.582412 0.249124,0.665264 0.415632,0.241357 0.514303,-0.435249 0.120177,-0.824997 z M 81.070792,44.543258 80.827074,42.631164 H 77.81833 c -1.654826,0 -3.073636,0.03694 -3.152934,0.08216 -0.07911,0.04522 -0.09373,0.903798 -0.03248,1.908086 0.0993,1.623798 0.176089,1.809167 0.691993,1.674041 1.225575,-0.320963 4.159916,-0.321884 4.954222,-0.0013 0.425655,0.171583 0.832772,0.278228 0.90467,0.236815 0.07192,-0.04141 0.02088,-0.935717 -0.112985,-1.987376 z m -4.38925,0.727263 c -0.07099,-0.08216 -0.09976,-0.261435 -0.06357,-0.398391 0.03619,-0.13689 0.08514,-0.607554 0.108809,-1.045782 0.04014,-0.742799 0.112057,-0.796787 1.057861,-0.796787 1.154513,0 1.439295,0.321047 1.23692,1.394375 -0.07215,0.383456 -0.141521,0.764428 -0.153586,0.846585 -0.0116,0.08216 -0.479966,0.149487 -1.039625,0.149487 -0.559636,0 -1.075725,-0.06719 -1.146857,-0.149487 z" />
    </g>
  </g>
</svg>
