<?xml version="1.0" encoding="UTF-8" standalone="no"?>
<svg
   version="1.1"
   width="100"
   height="100"
   id="svg4460"
   sodipodi:docname="moulin-b.svg"
   inkscape:version="1.2.2 (732a01da63, 2022-12-09)"
   xmlns:inkscape="http://www.inkscape.org/namespaces/inkscape"
   xmlns:sodipodi="http://sodipodi.sourceforge.net/DTD/sodipodi-0.dtd"
   xmlns="http://www.w3.org/2000/svg"
   xmlns:svg="http://www.w3.org/2000/svg"
   xmlns:rdf="http://www.w3.org/1999/02/22-rdf-syntax-ns#"
   xmlns:cc="http://creativecommons.org/ns#"
   xmlns:dc="http://purl.org/dc/elements/1.1/">
  <sodipodi:namedview
     pagecolor="#ffffff"
     bordercolor="#666666"
     borderopacity="1"
     objecttolerance="10"
     gridtolerance="10"
     guidetolerance="10"
     inkscape:pageopacity="0"
     inkscape:pageshadow="2"
     inkscape:window-width="1920"
     inkscape:window-height="1009"
     id="namedview11"
     showgrid="true"
     inkscape:zoom="16"
     inkscape:cx="51.4375"
     inkscape:cy="74.25"
     inkscape:window-x="-8"
     inkscape:window-y="-8"
     inkscape:window-maximized="1"
     inkscape:current-layer="text5282"
     inkscape:document-rotation="0"
     inkscape:pagecheckerboard="0"
     showguides="true"
     inkscape:guide-bbox="true"
     inkscape:showpageshadow="0"
     inkscape:deskcolor="#d1d1d1">
    <inkscape:grid
       type="xygrid"
       id="grid823"
       originx="0"
       originy="0" />
    <sodipodi:guide
       position="0,86"
       orientation="66,0"
       id="guide957"
       inkscape:locked="false" />
    <sodipodi:guide
       position="0,20"
       orientation="0,50"
       id="guide959"
       inkscape:locked="false" />
    <sodipodi:guide
       position="50,86"
       orientation="0,-50"
       id="guide963"
       inkscape:locked="false" />
    <sodipodi:guide
       position="8.9999971,64.32985"
       orientation="8.5387222,0"
       id="guide1517"
       inkscape:locked="false" />
    <sodipodi:guide
       position="8.9999971,55.791128"
       orientation="0,26.227758"
       id="guide1519"
       inkscape:locked="false" />
    <sodipodi:guide
       position="35,93.437165"
       orientation="-8.5387222,0"
       id="guide1521"
       inkscape:locked="false" />
    <sodipodi:guide
       position="35.227755,64.32985"
       orientation="0,-26.227758"
       id="guide1523"
       inkscape:locked="false" />
    <sodipodi:guide
       position="7.9247812,20.000001"
       orientation="0,-6.8495616"
       id="guide4054"
       inkscape:locked="false" />
    <sodipodi:guide
       position="1.0752196,74.999813"
       orientation="0,6.8495616"
       id="guide4058"
       inkscape:locked="false" />
  </sodipodi:namedview>
  <defs
     id="defs4462" />
  <metadata
     id="metadata4465">
    <rdf:RDF>
      <cc:Work
         rdf:about="">
        <dc:format>image/svg+xml</dc:format>
        <dc:type
           rdf:resource="http://purl.org/dc/dcmitype/StillImage" />
      </cc:Work>
    </rdf:RDF>
  </metadata>
  <g
     aria-label="C"
     id="text3215"
     style="font-size:32px;line-height:1.25"
     transform="translate(-37.75,-4)">
    <g
       aria-label="A"
       id="text5282"
       transform="matrix(1.6290909,0,0,2.8292029,-41.002727,-68.776958)">
      <path
         id="path637"
         style="font-size:32px;line-height:1.25;fill:#666666;stroke-width:0.262524"
         d="m 89.129329,53.646587 c -0.05034,-0.02872 -7.043959,-0.05638 -15.54139,-0.06199 -13.20406,-0.008 -15.449842,-0.05157 -15.449842,-0.296516 0,-0.157596 0.297381,-0.286684 0.661184,-0.286684 0.363663,0 1.054241,-0.268916 1.534602,-0.597574 1.077581,-0.737349 1.261071,-0.74451 1.275015,-0.04969 0.0116,0.524447 0.03271,0.53134 0.518455,0.161577 0.499942,-0.380558 0.522585,-0.37985 1.526528,0.04742 0.835719,0.355723 1.302716,0.411403 2.595386,0.309394 1.072732,-0.08456 1.57627,-0.0521 1.57627,0.101795 0,0.124506 0.352342,0.226262 0.783008,0.226262 0.74642,0 0.782798,-0.07214 0.77846,-1.543765 l -0.0023,-1.543777 3.719298,0.03006 3.719297,0.03006 v -2.614072 c 0,-2.875776 -0.24163,-2.988125 -1.575759,-0.732674 -0.356448,0.602584 -0.686982,1.129689 -0.734542,1.171356 -0.04779,0.04155 -1.034174,-0.396936 -2.192514,-0.974672 l -2.10607,-1.050457 3.656865,-2.013265 c 2.011274,-1.1073 3.653966,-2.11283 3.650393,-2.234531 -0.007,-0.207759 -1.921535,-0.974524 -6.147595,-2.460831 -0.999002,-0.351355 -1.816369,-0.699971 -1.816369,-0.774715 0,-0.07468 0.38923,-0.46564 0.864951,-0.868721 0.475697,-0.403067 0.864951,-0.827255 0.864951,-0.942637 0,-0.353078 0.608634,-0.235519 1.62557,0.31403 1.744285,0.942583 5.657398,2.719742 5.803443,2.635661 0.07865,-0.04529 0.602557,-0.800163 1.164536,-1.677702 0.861726,-1.34557 0.995057,-1.797224 0.851169,-2.883202 -0.09373,-0.70824 -0.280305,-1.355149 -0.414588,-1.437614 -0.319026,-0.195976 -4.078321,0.207104 -5.286704,0.566875 -1.165255,0.346919 -2.013966,0.360105 -2.012226,0.03126 6.96e-4,-0.136889 0.698745,-0.414128 1.55126,-0.615969 1.243324,-0.294392 1.795582,-0.599779 2.791591,-1.543778 0.967286,-0.916774 1.427208,-1.176793 2.081524,-1.176793 0.461939,0 0.839894,-0.108876 0.839894,-0.241891 0,-0.16346 0.170058,-0.14413 0.523676,0.05958 0.371575,0.213918 0.578753,0.906193 0.713198,2.38323 0.104401,1.144971 0.324339,2.261034 0.48913,2.480148 0.164954,0.219114 0.794817,1.279243 1.400041,2.355804 l 1.100456,1.957425 1.346332,-1.260233 c 0.740505,-0.693118 1.398742,-1.349872 1.462728,-1.459429 0.06427,-0.109677 0.926408,0.247355 1.916455,0.793176 0.990046,0.545795 2.027607,1.065673 2.305708,1.155272 0.769319,0.247876 0.603994,0.54152 -0.304898,0.54152 -0.965616,0 -3.195645,0.682457 -4.72157,1.444934 l -1.097765,0.548547 0.572744,0.845824 c 0.524,0.773845 0.909193,0.95494 4.525853,2.127952 2.174209,0.705168 3.953111,1.399875 3.953111,1.543764 0,0.14397 -0.13062,0.261676 -0.29079,0.261676 -0.15985,0 -0.689351,0.322606 -1.176649,0.71691 l -0.885993,0.716897 -2.107068,-1.115302 c -1.158944,-0.613418 -2.232441,-1.115301 -2.385609,-1.115301 -0.282695,0 -0.225738,2.385099 0.137113,5.726902 0.129689,1.196631 0.340278,1.842191 0.600167,1.84147 1.201702,-0.004 3.072568,-0.479388 3.557081,-0.905165 0.787161,-0.691648 1.271164,-0.614714 0.97738,0.155352 -0.222259,0.582064 -0.190938,0.617465 0.324988,0.370898 0.486741,-0.232566 0.66234,-0.224684 1.19667,0.0537 0.45897,0.239125 1.29664,0.326279 3.13616,0.326279 1.8543,0 2.472241,0.06506 2.365557,0.248998 -0.10695,0.184675 -1.506987,0.248999 -5.419247,0.248999 -2.901183,0 -5.316072,-0.02351 -5.366393,-0.0521 z M 61.078912,53.001455 c 0.117625,-0.109678 0.04895,-0.19921 -0.152658,-0.19921 -0.201378,0 -0.366378,0.08964 -0.366378,0.19921 0,0.109677 0.06867,0.199195 0.152658,0.199195 0.08398,0 0.248799,-0.08964 0.366378,-0.199195 z m 19.476936,-1.355122 0.101849,-1.45474 1.627891,0.06038 1.627867,0.06038 0.173073,1.394371 0.173074,1.39437 1.511355,0.06252 1.511356,0.06225 -0.256618,-4.035295 c -0.162169,-2.550844 -0.399972,-4.11287 -0.646404,-4.246126 -0.216923,-0.117426 -2.3084,-0.238832 -4.714634,-0.273953 l -4.324731,-0.06319 0.288077,4.114167 c 0.15869,2.262784 0.229683,4.147897 0.157994,4.189136 -0.07169,0.04128 -0.467763,0.02418 -0.88024,-0.03794 -0.633575,-0.09538 -0.745214,-0.249947 -0.719207,-0.995846 0.01856,-0.485625 -0.06682,-0.939203 -0.18653,-1.007975 -0.119249,-0.06867 -0.216922,0.338116 -0.216922,0.904176 0,0.566047 -0.124353,1.029163 -0.276384,1.029163 -0.151962,0 -0.218778,-0.291319 -0.148482,-0.647376 0.07053,-0.356071 -0.02993,-0.871474 -0.220634,-1.145386 -0.305547,-0.436505 -0.351924,-0.375027 -0.37582,0.497996 -0.04223,1.542201 -0.696819,1.866677 -0.703269,0.348603 -0.0023,-0.695162 -0.157993,-1.244978 -0.351274,-1.244978 -0.190242,0 -0.345985,0.483409 -0.345985,1.07425 0,0.77116 -0.146625,1.106631 -0.518966,1.188949 -0.425608,0.09405 -0.518989,-0.09926 -0.518989,-1.074276 0,-1.58511 -0.67341,-1.535348 -0.758601,0.05611 l -0.06658,1.244977 -0.122961,-1.244977 c -0.06751,-0.684741 -0.257824,-1.244964 -0.422824,-1.244964 -0.164953,0 -0.352133,0.585097 -0.415933,1.30023 l -0.116002,1.300217 5.016724,-0.05517 5.016724,-0.05517 z m -0.390343,-3.160001 c -0.126906,-0.07307 -0.230611,-0.644037 -0.230611,-1.268877 v -1.136074 l 1.643388,-0.109544 c 0.903881,-0.06025 1.729183,-0.04956 1.834048,0.02378 0.104865,0.07347 0.129689,0.693772 0.05568,1.3785 l -0.134793,1.244977 h -1.468528 c -0.807692,0 -1.572325,-0.05971 -1.699161,-0.132788 z m -3.108111,3.282596 c -0.110433,-0.158985 -0.192562,-0.111681 -0.209034,0.120364 -0.01392,0.20999 0.06682,0.327643 0.181658,0.261436 0.114841,-0.06613 0.127369,-0.237977 0.02691,-0.381787 z m 8.413144,-7.683593 c 0,-0.08336 -0.778461,-1.521268 -1.729925,-3.195469 -0.951418,-1.674188 -1.729878,-3.214239 -1.729878,-3.422318 0,-0.932417 -0.715101,-0.461713 -1.734728,1.141846 -0.609609,0.958694 -1.551654,2.440686 -2.093495,3.293323 -0.541888,0.852611 -0.900006,1.678009 -0.795907,1.834189 0.133169,0.199583 0.925387,0.304291 2.666147,0.352343 1.36234,0.03767 3.138642,0.08617 3.947356,0.10794 0.808736,0.02178 1.47043,-0.02872 1.47043,-0.111814 z" />
    </g>
  </g>
</svg>
