<?xml version="1.0" encoding="UTF-8" standalone="no"?>
<svg
   version="1.1"
   width="100"
   height="100"
   id="svg4460"
   sodipodi:docname="chapelle.svg"
   inkscape:version="1.2.2 (732a01da63, 2022-12-09)"
   xmlns:inkscape="http://www.inkscape.org/namespaces/inkscape"
   xmlns:sodipodi="http://sodipodi.sourceforge.net/DTD/sodipodi-0.dtd"
   xmlns="http://www.w3.org/2000/svg"
   xmlns:svg="http://www.w3.org/2000/svg"
   xmlns:rdf="http://www.w3.org/1999/02/22-rdf-syntax-ns#"
   xmlns:cc="http://creativecommons.org/ns#"
   xmlns:dc="http://purl.org/dc/elements/1.1/">
  <sodipodi:namedview
     pagecolor="#ffffff"
     bordercolor="#666666"
     borderopacity="1"
     objecttolerance="10"
     gridtolerance="10"
     guidetolerance="10"
     inkscape:pageopacity="0"
     inkscape:pageshadow="2"
     inkscape:window-width="1920"
     inkscape:window-height="1009"
     id="namedview11"
     showgrid="true"
     inkscape:zoom="2.8284271"
     inkscape:cx="57.805979"
     inkscape:cy="18.031223"
     inkscape:window-x="-8"
     inkscape:window-y="-8"
     inkscape:window-maximized="1"
     inkscape:current-layer="text5282"
     inkscape:document-rotation="0"
     inkscape:pagecheckerboard="0"
     showguides="true"
     inkscape:guide-bbox="true"
     inkscape:showpageshadow="0"
     inkscape:deskcolor="#d1d1d1">
    <inkscape:grid
       type="xygrid"
       id="grid823"
       originx="0"
       originy="0" />
    <sodipodi:guide
       position="0,86"
       orientation="66,0"
       id="guide957"
       inkscape:locked="false" />
    <sodipodi:guide
       position="0,20"
       orientation="0,50"
       id="guide959"
       inkscape:locked="false" />
    <sodipodi:guide
       position="50,20"
       orientation="-66,0"
       id="guide961"
       inkscape:locked="false" />
    <sodipodi:guide
       position="50,86"
       orientation="0,-50"
       id="guide963"
       inkscape:locked="false" />
    <sodipodi:guide
       position="8.9999971,64.32985"
       orientation="8.5387222,0"
       id="guide1517"
       inkscape:locked="false" />
    <sodipodi:guide
       position="8.9999971,55.791128"
       orientation="0,26.227758"
       id="guide1519"
       inkscape:locked="false" />
    <sodipodi:guide
       position="35,93.437165"
       orientation="-8.5387222,0"
       id="guide1521"
       inkscape:locked="false" />
    <sodipodi:guide
       position="35.227755,64.32985"
       orientation="0,-26.227758"
       id="guide1523"
       inkscape:locked="false" />
    <sodipodi:guide
       position="7.9247812,20.000001"
       orientation="0,-6.8495616"
       id="guide4054"
       inkscape:locked="false" />
    <sodipodi:guide
       position="1.0752196,74.999813"
       orientation="0,6.8495616"
       id="guide4058"
       inkscape:locked="false" />
  </sodipodi:namedview>
  <defs
     id="defs4462" />
  <metadata
     id="metadata4465">
    <rdf:RDF>
      <cc:Work
         rdf:about="">
        <dc:format>image/svg+xml</dc:format>
        <dc:type
           rdf:resource="http://purl.org/dc/dcmitype/StillImage" />
      </cc:Work>
    </rdf:RDF>
  </metadata>
  <g
     aria-label="C"
     id="text3215"
     style="font-size:32px;line-height:1.25"
     transform="translate(-37.75,-4)">
    <g
       aria-label="A"
       id="text5282"
       transform="matrix(1.6290909,0,0,2.8292029,-41.002727,-68.776958)">
      <path
         id="path1675"
         style="font-size:32px;line-height:1.25;fill:#666666;stroke-width:0.262524"
         d="m 63.624682,53.698042 c -0.106489,-0.09914 -1.703778,-0.175359 -3.549728,-0.169405 -2.240677,0.0072 -3.40048,-0.06547 -3.489174,-0.218702 -0.108577,-0.187263 1.6645,-0.341807 3.055933,-0.266385 0.104633,0.0057 0.228987,-0.319679 0.276106,-0.723009 0.0471,-0.403326 0.234114,-0.818657 0.415168,-0.922952 0.379231,-0.218338 0.426931,-0.100219 0.337888,0.836234 -0.06844,0.719714 0.495836,0.88268 0.792799,0.228954 0.233533,-0.514254 0.913717,-0.317101 0.968702,0.280795 0.03086,0.336999 0.0761,0.357013 0.198362,0.08785 0.193026,-0.425166 1.145441,-0.466576 1.145441,-0.0498 0,0.222243 0.40728,0.298793 1.589749,0.298793 h 1.589726 l -0.118321,-2.938153 -0.118321,-2.938151 2.334453,-1.621769 2.334476,-1.621768 v -1.913977 -1.913975 h -1.579935 c -1.511518,0 -1.575133,-0.02318 -1.470407,-0.535991 0.09814,-0.479497 0.255109,-0.537235 1.491426,-0.547792 1.143794,-0.0099 1.382316,-0.08046 1.383917,-0.410193 0.0023,-0.606108 1.470848,-0.661999 1.618633,-0.06164 0.08747,0.355673 0.329095,0.458248 1.064705,0.452177 0.523304,-0.0043 0.953575,0.08532 0.956174,0.199197 0.0023,0.113872 0.102313,0.416797 0.221562,0.673156 0.185834,0.39964 0.09883,0.460407 -0.610189,0.426143 -1.679998,-0.08118 -1.691923,-0.06992 -1.691923,1.59771 v 1.593574 h 5.53569 c 3.101011,0 5.535689,0.07985 5.535689,0.181549 0,0.09986 1.224091,1.050438 2.720157,2.112416 l 2.720111,1.930873 0.220634,1.503178 c 0.121337,0.82675 0.220634,2.03967 0.220634,2.69538 v 1.192203 l 1.6052,-0.126683 c 0.882862,-0.06967 1.80405,-0.126683 2.047072,-0.126683 0.243115,0 0.579008,-0.236976 0.746722,-0.526614 0.392154,-0.677378 2.174627,-0.878054 2.174627,-0.244827 0,0.230321 0.154746,0.341477 0.369278,0.265164 0.204626,-0.07286 0.457184,0.06217 0.566596,0.303098 0.149409,0.328781 0.375171,0.405975 0.928171,0.317281 2.066055,-0.331371 2.287735,-0.34452 2.287735,-0.135694 0,0.121433 0.27251,0.223517 0.60545,0.226849 0.57235,0.0057 0.5727,0.01709 0.007,0.206977 -0.38076,0.127739 -5.42187,0.184982 -13.839236,0.157167 -16.408336,-0.05422 -22.035528,0.0057 -22.805961,0.243166 -0.355589,0.10957 -0.67733,0.111307 -0.792241,0.0043 z m 6.160332,-1.56382 c -0.0515,-0.520402 -0.140361,-1.349559 -0.19697,-1.842571 l -0.103473,-0.896386 2.018582,-0.06025 c 2.521401,-0.07524 2.997005,0.135417 3.001947,1.32961 0.0021,0.506988 0.100457,1.257939 0.218314,1.668784 0.198362,0.690946 0.301905,0.746988 1.380112,0.746988 h 1.165626 v -2.284703 c 0,-1.953265 -0.105793,-2.39395 -0.729694,-3.037753 -0.90801,-0.937023 -4.1959,-3.442205 -4.51771,-3.442205 -0.130617,0 -1.180312,0.6947 -2.332272,1.543776 l -2.09447,1.543776 -0.007,2.523467 c -0.0023,1.387907 0.08793,2.665256 0.203234,2.838554 0.120177,0.18015 0.611859,0.315088 1.148388,0.315088 0.901932,0 0.934737,-0.03671 0.844697,-0.946185 z m 9.275357,-0.398394 0.06125,-1.344579 0.22365,1.394377 0.223882,1.394379 0.12505,-1.095582 0.125049,-1.095584 0.144537,1.095584 c 0.107649,0.817179 0.217386,0.994344 0.430666,0.697189 0.243718,-0.339294 0.289887,-0.346682 0.310512,-0.0498 0.03735,0.538514 1.622786,0.460286 1.873836,-0.09247 0.112521,-0.247789 0.01392,-0.509655 -0.219243,-0.59759 -0.31768,-0.118534 -0.321346,-0.193206 -0.01392,-0.307663 0.22249,-0.08313 0.477066,-0.46409 0.56597,-0.846587 0.08909,-0.382496 0.140593,-0.04537 0.114609,0.749177 -0.03387,1.037547 0.07494,1.444501 0.385448,1.444177 0.237733,-2e-4 0.453681,-0.202134 0.479619,-0.448641 0.04431,-0.422641 0.0587,-0.419803 0.25091,0.0498 0.139433,0.340804 0.269517,0.08932 0.412129,-0.796787 l 0.208338,-1.294779 0.05962,1.244979 c 0.03294,0.684739 0.215531,1.24498 0.405703,1.24498 0.190474,0 0.345962,-0.13445 0.345962,-0.298794 0,-0.420778 1.025032,-0.374276 1.097672,0.0498 0.03294,0.191728 0.161473,-0.234056 0.286291,-0.946185 l 0.226666,-1.294779 0.05962,1.244979 c 0.05522,1.150644 0.119018,1.244981 0.843445,1.244981 h 0.783703 l -0.300768,-2.340563 c -0.165417,-1.287309 -0.370878,-2.382784 -0.456557,-2.434392 -0.08584,-0.05161 -0.300605,0.03802 -0.477669,0.199196 -0.28179,0.25665 -0.32949,0.255934 -0.383546,-0.0057 -0.03387,-0.164346 -0.166578,0.194217 -0.294968,0.796787 l -0.233232,1.095584 -0.05638,-1.045784 c -0.03109,-0.575174 -0.212282,-1.045776 -0.402408,-1.045776 -0.190474,0 -0.348352,0.112042 -0.351275,0.248996 -0.0023,0.166005 -0.117161,0.149399 -0.340672,-0.0498 -0.279076,-0.248552 -0.340347,-0.231802 -0.365009,0.09961 l -0.02993,0.398393 -0.297381,-0.398393 c -0.22133,-0.296319 -0.318029,-0.117693 -0.378048,0.697186 l -0.08074,1.095584 -0.203002,-0.995984 c -0.142914,-0.700553 -0.357075,-0.995983 -0.722107,-0.995983 -0.285386,0 -0.633343,0.08964 -0.773148,0.199197 -0.151033,0.11832 -0.270422,0.07788 -0.294086,-0.09961 -0.02088,-0.16433 -0.16449,-0.07469 -0.316845,0.199196 l -0.276988,0.497994 -0.07563,-0.497994 c -0.07146,-0.472057 -0.08932,-0.46687 -0.339535,0.09961 l -0.264111,0.59759 -0.04083,-0.547791 c -0.02088,-0.301285 -0.196738,-0.547792 -0.386887,-0.547792 -0.190473,0 -0.364406,0.246507 -0.386933,0.547792 l -0.04083,0.547791 -0.264112,-0.59759 -0.264088,-0.597591 -0.07563,0.597591 c -0.07424,0.588221 -0.07934,0.589781 -0.337772,0.0996 -0.248219,-0.471258 -0.271303,-0.460564 -0.429134,0.199197 l -0.166578,0.69719 -0.05545,-0.746988 c -0.03063,-0.410843 -0.211122,-0.746989 -0.401341,-0.746989 -0.383453,0 -0.470292,2.827251 -0.123889,4.033737 0.34102,1.187901 0.810337,0.86808 0.876968,-0.597591 z m 2.464467,-0.0498 c 0,-0.602571 0.06473,-0.849077 0.144306,-0.547791 0.07911,0.301285 0.07911,0.794296 0,1.095581 -0.07911,0.301285 -0.144306,0.05477 -0.144306,-0.54779 z m -1.025287,-0.796787 c 0,-0.821686 0.06125,-1.157832 0.135721,-0.746989 0.07471,0.410844 0.07471,1.083134 0,1.493976 -0.0747,0.410845 -0.135721,0.0747 -0.135721,-0.746987 z m 4.848267,-0.199196 c 0,-0.931247 0.05963,-1.312209 0.132473,-0.846587 0.07285,0.465622 0.07285,1.227549 0,1.693172 -0.07285,0.465624 -0.132473,0.08466 -0.132473,-0.846585 z M 82.216785,50.29165 c 0,-0.60257 0.06473,-0.849077 0.144306,-0.547791 0.07911,0.301285 0.07911,0.794297 0,1.095582 -0.07911,0.301285 -0.144306,0.05477 -0.144306,-0.547791 z m 5.542743,-0.199195 c 0,-0.71213 0.06264,-1.003455 0.139433,-0.647391 0.07679,0.356063 0.07679,0.938715 0,1.294778 -0.07679,0.356065 -0.139433,0.06474 -0.139433,-0.647387 z m -1.733405,-0.0996 c 0.0021,-0.65735 0.06658,-0.902251 0.143609,-0.544225 0.07702,0.358028 0.07563,0.895858 -0.0023,1.195182 -0.07888,0.299322 -0.141753,0.0064 -0.139897,-0.650957 z m -2.434864,-0.498 c 0,-0.493011 0.06751,-0.694698 0.149874,-0.448192 0.08236,0.246506 0.08236,0.649879 0,0.896385 -0.08236,0.246507 -0.149874,0.04481 -0.149874,-0.448193 z M 79.3726,49.777052 c 0.01392,-0.232055 0.0986,-0.279255 0.209034,-0.120351 0.09976,0.14379 0.08747,0.315604 -0.02691,0.381796 -0.114841,0.06619 -0.196738,-0.05146 -0.181658,-0.261446 z m 7.08811,-2.096234 c 0.164953,-0.15368 0.326728,-0.13861 0.534092,0.0498 0.236805,0.21529 0.298564,0.217224 0.30274,0.0095 0.0023,-0.143408 0.161009,-0.20535 0.351251,-0.137643 0.637264,0.226758 0.355219,-0.116343 -0.741595,-0.902155 -0.598172,-0.428555 -1.198338,-0.739797 -1.333642,-0.691646 -0.25961,0.09234 -1.440084,-0.589107 -1.897662,-1.095356 -0.148482,-0.16433 0.211354,0.01502 0.79941,0.398393 0.588242,0.383454 1.075818,0.601911 1.083543,0.485462 0.0093,-0.11645 -0.453007,-0.469359 -1.023872,-0.784249 -0.570865,-0.314891 -1.037932,-0.497045 -1.037932,-0.404788 0,0.09227 -0.312321,0.0049 -0.694104,-0.193907 -1.513699,-0.788703 -0.955571,-0.06471 1.064774,1.381254 1.17356,0.839895 2.069715,1.56392 1.991554,1.608945 -0.07818,0.04502 -1.17711,-0.665126 -2.441986,-1.578112 -1.806277,-1.303745 -2.489964,-1.659978 -3.185925,-1.659978 -0.487344,0 -0.886086,0.04331 -0.886086,0.09625 0,0.142547 3.585781,2.731231 3.890562,2.808698 0.143609,0.03652 0.261095,0.20384 0.261095,0.371818 0,0.219136 0.246711,0.278269 0.873257,0.209313 0.480244,-0.05285 0.956522,-0.01849 1.058324,0.07639 0.256316,0.238664 0.748996,0.215753 1.032086,-0.04798 z m -3.980625,-1.688743 c -1.184534,-0.830946 -2.097115,-1.543399 -2.027932,-1.583229 0.113913,-0.06559 2.909285,1.833605 4.015936,2.728475 1.071363,0.866316 -0.0017,0.248227 -1.988004,-1.145246 z m 3.80138,0.860972 -0.799202,-0.644939 0.978423,0.541756 c 0.53813,0.297964 0.897756,0.588188 0.799202,0.64494 -0.0986,0.05676 -0.538849,-0.18704 -0.978423,-0.541757 z m -6.59021,0.750431 c 0,-0.140855 -4.187176,-3.276826 -4.545458,-3.404313 -0.637867,-0.226975 -0.235621,0.193693 1.243208,1.300191 1.722292,1.288678 1.897662,1.483611 1.399344,1.555338 -0.190473,0.0274 -0.365426,-0.03984 -0.38923,-0.149398 -0.0239,-0.109557 -0.06264,-0.288836 -0.08654,-0.398395 -0.0239,-0.109557 -0.230842,-0.176787 -0.459967,-0.149399 -0.22945,0.0274 -0.44331,-0.06224 -0.475767,-0.199195 -0.03225,-0.136954 -0.07865,-0.338637 -0.102313,-0.448194 -0.0239,-0.109557 -0.238011,-0.176788 -0.475721,-0.149399 -0.237709,0.0274 -0.414379,-0.03984 -0.392269,-0.149399 0.02088,-0.109557 -0.514813,-0.468112 -1.193165,-0.796787 -0.678305,-0.328674 -1.094865,-0.463133 -0.925712,-0.298795 0.699,0.679009 4.083101,3.187149 4.300278,3.187149 0.129225,0 0.416583,-0.104628 0.638725,-0.232507 0.307774,-0.177208 0.456465,-0.153524 0.625154,0.0996 0.199058,0.29889 0.839291,0.476965 0.839291,0.233498 z m 2.075863,-0.01484 c 0,-0.0624 -1.017051,-0.863351 -2.260096,-1.779903 -1.568149,-1.156224 -2.468597,-1.657419 -2.94086,-1.636935 -0.374382,0.01623 -0.680695,0.06208 -0.680695,0.101862 0,0.125548 3.238218,2.525605 3.600141,2.668293 0.19001,0.07493 0.464724,0.09387 0.610282,0.04207 0.145698,-0.05181 0.462914,0.08857 0.705194,0.31194 0.412222,0.380015 0.966034,0.547808 0.966034,0.292678 z m -2.967935,-1.433924 c -1.095282,-0.764478 -2.624015,-2.095118 -1.998351,-1.739381 0.47869,0.272164 2.725098,1.933494 3.030181,2.240965 0.441593,0.445065 0.05545,0.257414 -1.03183,-0.501584 z m 3.017282,0.307453 c -2.627402,-1.927634 -3.45398,-2.44378 -3.693104,-2.30611 -0.264715,0.152471 3.815045,3.276715 4.450406,3.407966 0.810918,0.167523 0.646266,-0.0721 -0.757302,-1.101856 z" />
    </g>
  </g>
</svg>
