<?xml version="1.0" encoding="UTF-8" standalone="no"?>
<svg
   version="1.1"
   width="100"
   height="100"
   id="svg4460"
   sodipodi:docname="paroisse-r.svg"
   inkscape:version="1.2.2 (732a01da63, 2022-12-09)"
   xmlns:inkscape="http://www.inkscape.org/namespaces/inkscape"
   xmlns:sodipodi="http://sodipodi.sourceforge.net/DTD/sodipodi-0.dtd"
   xmlns="http://www.w3.org/2000/svg"
   xmlns:svg="http://www.w3.org/2000/svg"
   xmlns:rdf="http://www.w3.org/1999/02/22-rdf-syntax-ns#"
   xmlns:cc="http://creativecommons.org/ns#"
   xmlns:dc="http://purl.org/dc/elements/1.1/">
  <sodipodi:namedview
     pagecolor="#ffffff"
     bordercolor="#666666"
     borderopacity="1"
     objecttolerance="10"
     gridtolerance="10"
     guidetolerance="10"
     inkscape:pageopacity="0"
     inkscape:pageshadow="2"
     inkscape:window-width="1920"
     inkscape:window-height="1009"
     id="namedview11"
     showgrid="true"
     inkscape:zoom="8"
     inkscape:cx="53.0625"
     inkscape:cy="55.625"
     inkscape:window-x="-8"
     inkscape:window-y="-8"
     inkscape:window-maximized="1"
     inkscape:current-layer="text5282"
     inkscape:document-rotation="0"
     inkscape:pagecheckerboard="0"
     showguides="true"
     inkscape:guide-bbox="true"
     inkscape:showpageshadow="0"
     inkscape:deskcolor="#d1d1d1">
    <inkscape:grid
       type="xygrid"
       id="grid823"
       originx="0"
       originy="0" />
    <sodipodi:guide
       position="0,86"
       orientation="66,0"
       id="guide957"
       inkscape:locked="false" />
    <sodipodi:guide
       position="0,20"
       orientation="0,50"
       id="guide959"
       inkscape:locked="false" />
    <sodipodi:guide
       position="50,20"
       orientation="-66,0"
       id="guide961"
       inkscape:locked="false" />
    <sodipodi:guide
       position="50,86"
       orientation="0,-50"
       id="guide963"
       inkscape:locked="false" />
    <sodipodi:guide
       position="8.9999971,64.32985"
       orientation="8.5387222,0"
       id="guide1517"
       inkscape:locked="false" />
    <sodipodi:guide
       position="8.9999971,55.791128"
       orientation="0,26.227758"
       id="guide1519"
       inkscape:locked="false" />
    <sodipodi:guide
       position="35,93.437165"
       orientation="-8.5387222,0"
       id="guide1521"
       inkscape:locked="false" />
    <sodipodi:guide
       position="35.227755,64.32985"
       orientation="0,-26.227758"
       id="guide1523"
       inkscape:locked="false" />
    <sodipodi:guide
       position="7.9247812,20.000001"
       orientation="0,-6.8495616"
       id="guide4054"
       inkscape:locked="false" />
    <sodipodi:guide
       position="1.0752196,74.999813"
       orientation="0,6.8495616"
       id="guide4058"
       inkscape:locked="false" />
  </sodipodi:namedview>
  <defs
     id="defs4462" />
  <metadata
     id="metadata4465">
    <rdf:RDF>
      <cc:Work
         rdf:about="">
        <dc:format>image/svg+xml</dc:format>
        <dc:type
           rdf:resource="http://purl.org/dc/dcmitype/StillImage" />
      </cc:Work>
    </rdf:RDF>
  </metadata>
  <g
     aria-label="C"
     id="text3215"
     style="font-size:32px;line-height:1.25"
     transform="translate(-37.75,-4)">
    <g
       aria-label="A"
       id="text5282"
       transform="matrix(1.6290909,0,0,2.8292029,-41.002727,-68.776958)">
      <path
         id="path2055"
         style="font-size:32px;line-height:1.25;fill:#666666;stroke-width:0.262524"
         d="m 58.890504,53.693735 c -0.158457,-0.09582 -1.871052,-0.219028 -3.805788,-0.273807 -2.088786,-0.05914 -3.482586,-0.180512 -3.431197,-0.298795 0.04756,-0.109557 0.203234,-0.203603 0.345985,-0.208989 1.094958,-0.04132 1.816369,-0.365817 1.816369,-0.817017 0,-0.315262 0.160313,-0.468395 0.432498,-0.412812 0.238011,0.04859 0.395541,0.302571 0.350463,0.564389 -0.07424,0.43185 -0.03967,0.444322 0.375333,0.134382 0.308911,-0.230799 0.571097,-0.276156 0.807948,-0.139785 0.192794,0.111027 0.769644,0.22042 1.281789,0.243084 0.512145,0.02267 1.044521,0.146776 1.183003,0.275806 0.161009,0.149882 1.124306,0.221447 2.667631,0.198178 l 2.415816,-0.03642 0.01392,-2.286844 0.01392,-2.286844 2.579053,-0.02391 c 1.418485,-0.01309 3.60956,-0.03733 4.869054,-0.05372 l 2.289932,-0.0298 3.072754,-1.953624 c 7.347952,-4.671763 11.895265,-7.715629 11.895265,-7.962456 0,-0.09741 -0.480175,-0.423423 -1.067047,-0.724478 -0.586873,-0.301055 -0.98021,-0.597359 -0.874092,-0.658454 0.106025,-0.06109 0.807484,0.20859 1.558637,0.599295 l 1.365705,0.710371 1.670787,-0.289639 c 0.918892,-0.159307 2.231447,-0.376625 2.916737,-0.482942 0.91276,-0.141615 1.67607,-0.508512 2.85432,-1.371958 0.88462,-0.648261 1.60838,-1.273181 1.60838,-1.388712 0,-0.115529 -0.46709,-0.408873 -1.03796,-0.651873 -1.16418,-0.495562 -1.29007,-0.722096 -0.49831,-0.897017 0.32742,-0.07233 0.94459,0.10416 1.56926,0.448733 1.02524,0.565516 1.03055,0.566054 1.23066,0.125481 0.13664,-0.301043 0.46453,-0.442483 1.025561,-0.442483 0.96427,0 1.05004,0.323627 0.25841,0.974446 -0.55242,0.454077 -0.5269,0.484905 1.04039,1.25622 0.88372,0.434897 1.51857,0.872836 1.41083,0.973201 -0.3278,0.305402 -0.71381,0.211923 -2.10621,-0.510086 -0.73459,-0.380913 -1.439041,-0.694647 -1.565441,-0.69719 -0.12644,-0.0025 -0.74913,0.46598 -1.38392,1.041162 -1.05115,0.952493 -1.18822,1.259016 -1.53666,3.436145 l -0.3826,2.390363 0.99119,0.497991 c 1.42795,0.717472 1.21583,0.945495 -0.27191,0.292195 l -1.25676,-0.551877 -1.77057,1.096714 c -1.7167,1.063308 -7.361037,4.874613 -8.864179,5.985458 l -0.741224,0.547793 h 5.026677 5.026656 l 0.10162,1.439238 c 0.11089,1.571693 -0.10464,1.447653 2.38289,1.371649 0.39839,-0.01229 0.79686,-0.181726 0.88544,-0.376789 0.22202,-0.48905 1.89256,-0.434407 2.2207,0.07263 0.231541,0.357572 0.262901,0.359332 0.497551,0.02793 0.19976,-0.281731 0.35142,-0.305457 0.74661,-0.116637 0.40099,0.191611 0.5336,0.154406 0.6919,-0.194113 0.2575,-0.567178 0.74746,-0.54742 1.13927,0.04595 0.38122,0.577283 0.87307,0.695738 2.34918,0.565763 1.28381,-0.113044 1.5937,0.284013 0.34597,0.443296 -0.42814,0.05465 -8.718701,0.14158 -18.423468,0.193178 -9.704747,0.05159 -19.980358,0.154215 -22.834705,0.228028 -2.864416,0.07409 -5.318768,0.05618 -5.477759,-0.03997 z m 7.66489,-1.717984 -0.111129,-1.045784 1.902906,-0.01256 c 3.046538,-0.02028 3.113818,0.004 3.113818,1.121674 v 0.982558 h 2.646009 2.646055 l -1.175601,-0.449862 c -1.595341,-0.610398 -2.824373,-2.014469 -2.614039,-2.986345 l 0.161473,-0.746989 h -3.38366 c -1.860983,0 -3.870145,0.05603 -4.464814,0.124493 l -1.081176,0.124492 v 1.967071 1.967067 h 1.235667 1.235667 z m 17.360775,-0.149398 c 0,-0.929587 -0.115537,-1.195181 -0.518942,-1.195181 -0.399091,0 -0.518966,0.255836 -0.518966,1.107337 0,0.687502 -0.131313,1.060662 -0.346008,0.98423 -0.190474,-0.06772 -0.347006,-0.409148 -0.348259,-0.758746 l -0.0023,-0.635634 -0.63093,0.550903 c -0.347029,0.302999 -0.929819,0.681112 -1.295129,0.840252 -0.603902,0.263076 -0.467856,0.289924 1.498154,0.295685 l 2.162516,0.0064 z m 2.07591,0.315087 c 0,-1.478557 -0.49326,-1.762532 -0.720321,-0.414687 l -0.201378,1.195182 -0.05823,-1.145382 c -0.07726,-1.525543 -0.750087,-1.480888 -0.750087,0.0498 0,1.142061 0.03828,1.19518 0.864928,1.19518 0.792102,0 0.864951,-0.07412 0.864951,-0.880092 z m 1.037932,-0.315087 c 0,-0.66399 -0.153818,-1.195181 -0.345985,-1.195181 -0.192098,0 -0.345985,0.531191 -0.345985,1.195181 0,0.663988 0.153817,1.19518 0.345985,1.19518 0.192098,0 0.345985,-0.531192 0.345985,-1.19518 z m 1.037931,0 c 0,-0.66399 -0.153817,-1.195181 -0.345985,-1.195181 -0.192098,0 -0.345961,0.531191 -0.345961,1.195181 0,0.663988 0.153817,1.19518 0.345961,1.19518 0.192098,0 0.345985,-0.531192 0.345985,-1.19518 z m 2.277729,0.199195 c 0.03457,-1.075744 -0.176322,-1.626147 -0.569728,-1.486185 -0.159154,0.0566 -0.199986,0.536485 -0.09118,1.066409 0.126441,0.614723 0.05754,1.013561 -0.190474,1.101789 -0.271303,0.09656 -0.388627,-0.229502 -0.388627,-1.080406 0,-0.761737 -0.129921,-1.172531 -0.345985,-1.095582 -0.190474,0.06772 -0.345962,0.661606 -0.345962,1.319768 0,1.187923 0.007,1.196195 0.951442,1.133623 0.875646,-0.05802 0.953738,-0.134433 0.980302,-0.959416 z m 0.742616,-0.941741 c -0.07494,-0.413287 -0.137346,-0.123958 -0.139202,0.642946 -0.0014,0.766909 0.05962,1.105053 0.136186,0.751431 0.07633,-0.353621 0.07772,-0.981092 0.0023,-1.394377 z m 1.131428,0.63119 c 0,-0.867903 -0.122961,-1.262814 -0.365983,-1.176306 -0.21437,0.07628 -0.296174,0.514379 -0.197202,1.057538 0.09257,0.510022 0.17957,1.039361 0.193026,1.176307 0.01392,0.136954 0.102313,0.248997 0.197202,0.248997 0.09512,0 0.173073,-0.587941 0.173073,-1.306536 z m 1.165854,0.858343 c 0.42169,-0.906003 0.24822,-2.141365 -0.30093,-2.141365 -0.40806,0 -0.51896,0.276662 -0.51896,1.294778 0,1.281684 0.41695,1.71222 0.81989,0.846587 z M 78.997443,51.913859 c 1.325174,-0.534394 1.813701,-1.28953 1.294364,-2.00068 -0.582511,-0.797614 -2.103495,-1.473174 -3.316774,-1.473174 -1.140384,0 -2.400318,0.803486 -2.400318,1.530733 0,0.98645 1.751083,2.254008 3.113818,2.254008 0.295872,0 0.884903,-0.139905 1.30891,-0.310887 z m 9.442631,-6.187351 c 3.125395,-2.040213 5.728905,-3.821094 5.785555,-3.957511 0.11183,-0.26944 -4.785765,-2.890439 -5.401151,-2.890439 -0.206714,0 -0.500684,0.125748 -0.652854,0.279465 -0.152193,0.153697 -1.055123,0.767551 -2.006564,1.364102 -2.256802,1.415003 -5.653965,3.644554 -6.746626,4.427808 -0.47572,0.341012 -1.228707,0.840001 -1.673293,1.108864 -0.444586,0.26886 -1.09106,0.71447 -1.436604,0.990239 l -0.628239,0.501398 1.362805,-0.07482 c 1.535042,-0.08428 3.65262,0.580708 4.655589,1.462015 0.31195,0.274104 0.677794,0.498367 0.813028,0.498367 0.135258,0 2.802982,-1.669266 5.928354,-3.709479 z m -2.534485,-1.748034 c -1.456928,-0.741362 -1.620095,-1.162478 -0.608426,-1.570438 0.378929,-0.152817 1.158364,-0.650915 1.732036,-1.106877 0.573718,-0.455965 1.236711,-0.825349 1.473376,-0.820855 0.236828,0.0045 1.081131,0.347263 1.876597,0.76171 l 1.446232,0.753541 -2.156066,1.329855 c -1.185856,0.731422 -2.225899,1.326125 -2.311207,1.321565 -0.08538,-0.0045 -0.738996,-0.305386 -1.452542,-0.668501 z m 9.25712,-4.509489 c 0.2785,-0.912293 0.45266,-1.68974 0.38677,-1.727663 -0.0659,-0.03793 -1.41338,0.166333 -2.99447,0.453909 l -2.87479,0.522856 2.394193,1.253891 c 1.316797,0.689641 2.436367,1.231803 2.487967,1.204806 0.0515,-0.027 0.32174,-0.795506 0.60033,-1.707799 z" />
    </g>
  </g>
</svg>
