<?xml version="1.0" encoding="UTF-8" standalone="no"?>
<svg
   version="1.1"
   width="100"
   height="100"
   id="svg4460"
   sodipodi:docname="villa.svg"
   inkscape:version="1.2.2 (732a01da63, 2022-12-09)"
   xmlns:inkscape="http://www.inkscape.org/namespaces/inkscape"
   xmlns:sodipodi="http://sodipodi.sourceforge.net/DTD/sodipodi-0.dtd"
   xmlns="http://www.w3.org/2000/svg"
   xmlns:svg="http://www.w3.org/2000/svg"
   xmlns:rdf="http://www.w3.org/1999/02/22-rdf-syntax-ns#"
   xmlns:cc="http://creativecommons.org/ns#"
   xmlns:dc="http://purl.org/dc/elements/1.1/">
  <sodipodi:namedview
     pagecolor="#ffffff"
     bordercolor="#666666"
     borderopacity="1"
     objecttolerance="10"
     gridtolerance="10"
     guidetolerance="10"
     inkscape:pageopacity="0"
     inkscape:pageshadow="2"
     inkscape:window-width="1920"
     inkscape:window-height="1009"
     id="namedview11"
     showgrid="true"
     inkscape:zoom="16"
     inkscape:cx="34.78125"
     inkscape:cy="78.5625"
     inkscape:window-x="-8"
     inkscape:window-y="-8"
     inkscape:window-maximized="1"
     inkscape:current-layer="text5282"
     inkscape:document-rotation="0"
     inkscape:pagecheckerboard="0"
     showguides="true"
     inkscape:guide-bbox="true"
     inkscape:showpageshadow="0"
     inkscape:deskcolor="#d1d1d1">
    <inkscape:grid
       type="xygrid"
       id="grid823"
       originx="0"
       originy="0" />
    <sodipodi:guide
       position="0,86"
       orientation="66,0"
       id="guide957"
       inkscape:locked="false" />
    <sodipodi:guide
       position="0,20"
       orientation="0,50"
       id="guide959"
       inkscape:locked="false" />
    <sodipodi:guide
       position="50,20"
       orientation="-66,0"
       id="guide961"
       inkscape:locked="false" />
    <sodipodi:guide
       position="50,86"
       orientation="0,-50"
       id="guide963"
       inkscape:locked="false" />
    <sodipodi:guide
       position="8.9999971,64.32985"
       orientation="8.5387222,0"
       id="guide1517"
       inkscape:locked="false" />
    <sodipodi:guide
       position="8.9999971,55.791128"
       orientation="0,26.227758"
       id="guide1519"
       inkscape:locked="false" />
    <sodipodi:guide
       position="35,93.437165"
       orientation="-8.5387222,0"
       id="guide1521"
       inkscape:locked="false" />
    <sodipodi:guide
       position="35.227755,64.32985"
       orientation="0,-26.227758"
       id="guide1523"
       inkscape:locked="false" />
    <sodipodi:guide
       position="7.9247812,20.000001"
       orientation="0,-6.8495616"
       id="guide4054"
       inkscape:locked="false" />
    <sodipodi:guide
       position="1.0752196,74.999813"
       orientation="0,6.8495616"
       id="guide4058"
       inkscape:locked="false" />
  </sodipodi:namedview>
  <defs
     id="defs4462" />
  <metadata
     id="metadata4465">
    <rdf:RDF>
      <cc:Work
         rdf:about="">
        <dc:format>image/svg+xml</dc:format>
        <dc:type
           rdf:resource="http://purl.org/dc/dcmitype/StillImage" />
      </cc:Work>
    </rdf:RDF>
  </metadata>
  <g
     aria-label="C"
     id="text3215"
     style="font-size:32px;line-height:1.25"
     transform="translate(-37.75,-4)">
    <g
       aria-label="A"
       id="text5282"
       transform="matrix(1.6290909,0,0,2.8292029,-41.002727,-68.776958)">
      <path
         id="path1347"
         style="font-size:32px;line-height:1.25;fill:#666666;stroke-width:0.262524"
         d="m 93.552343,53.828186 c -0.111825,-0.06439 -8.556893,-0.119162 -18.76701,-0.1217 -16.072304,-0.004 -18.563915,-0.04382 -18.563915,-0.29665 0,-0.18056 0.338607,-0.29192 0.88771,-0.29192 1.478527,0 2.198917,-0.358969 2.61093,-1.301098 0.509547,-1.16497 1.087534,-1.142461 0.941164,0.0366 -0.119945,0.965868 0.499106,1.439751 0.855554,0.654951 0.11693,-0.257574 0.352017,-0.370271 0.593184,-0.284453 0.219706,0.07815 0.322552,0.311278 0.228754,0.518035 -0.09396,0.206744 -0.02993,0.375909 0.142913,0.375909 0.172378,0 0.313575,-0.134472 0.313575,-0.298801 0,-0.437734 0.581351,-0.364647 0.792218,0.09966 0.142217,0.312974 0.471915,0.398392 1.537827,0.398392 1.347121,0 1.359834,-0.0067 1.762312,-1.011182 0.429181,-1.070495 0.551771,-2.972748 0.191634,-2.972748 -0.117393,0 -0.745772,0.268917 -1.395958,0.597601 -1.333085,0.673881 -1.689231,0.727757 -1.975151,0.298787 -0.109505,-0.164329 -0.06682,-0.298787 0.09512,-0.298787 0.507342,0 3.357049,-1.79864 4.573878,-2.88685 l 1.164999,-1.041854 1.902906,0.08523 c 3.224947,0.144477 11.034166,-0.229481 11.546125,-0.552822 0.45433,-0.286951 0.386725,-1.683098 -0.296777,-6.128911 -0.218314,-1.419055 -0.179338,-1.625797 0.30499,-1.625797 0.388279,0 0.554996,0.182884 0.554996,0.60879 0,0.535864 0.19697,0.657966 1.643411,1.019308 0.903881,0.225781 2.037374,0.622021 2.518849,0.880529 0.567176,0.304494 1.531702,0.52439 2.739204,0.624438 1.025102,0.08492 1.931372,0.271145 2.013965,0.413812 0.120873,0.20883 -0.708257,0.231926 -4.254643,0.118414 l -4.404864,-0.140855 0.220402,2.009747 c 0.121105,1.105357 0.300721,2.130325 0.398974,2.277702 0.200218,0.300377 2.64877,1.249479 5.006423,1.940539 0.856297,0.251015 1.790431,0.533478 2.075863,0.627725 0.285386,0.09418 1.024986,0.302541 1.643412,0.462929 0.618448,0.160362 1.124445,0.385821 1.124445,0.500949 0,0.266365 -0.927568,0.274153 -1.210913,0.01069 -0.117625,-0.109677 -0.360346,-0.199209 -0.539405,-0.199209 -0.375565,0 -0.414309,1.122288 -0.103937,3.013119 0.212514,1.296062 0.234114,1.319413 1.196761,1.291546 1.189846,-0.03447 1.718835,-0.315472 2.196968,-1.167161 0.199986,-0.35615 0.519221,-0.602704 0.709533,-0.547932 0.364614,0.105002 0.362364,0.221839 -0.01856,0.94619 -0.145929,0.278148 -0.08909,0.448181 0.150802,0.448181 0.212514,0 0.386307,-0.134472 0.386307,-0.298787 0,-0.350006 0.400273,-0.387077 0.923995,-0.08563 0.20393,0.117425 1.119597,0.323314 2.035307,0.457799 2.83669,0.41664 2.34601,0.723322 -1.157294,0.723322 -1.704683,0 -3.548104,0.05157 -4.096534,0.114754 -0.548383,0.06319 -1.088485,0.06212 -1.200217,-0.0013 z m -33.525114,-0.71027 c 0,-0.109544 -0.06867,-0.199196 -0.152657,-0.199196 -0.08398,0 -0.248823,0.08964 -0.366425,0.199196 -0.117393,0.109544 -0.04895,0.199196 0.152658,0.199196 0.201378,0 0.366424,-0.08964 0.366424,-0.199196 z m 9.514459,-0.820148 v -1.020052 l 2.075863,-0.0013 2.075887,-0.0013 0.105329,1.033545 c 0.105329,1.031848 0.106953,1.033464 1.210912,0.971946 l 1.10563,-0.06158 v -1.527506 c 0,-0.840133 -0.09002,-1.579179 -0.199986,-1.642287 -0.109969,-0.06319 -1.822563,-0.04796 -3.805788,0.03353 l -3.605848,0.148285 -0.104401,1.273792 c -0.11577,1.411898 0.03921,1.813576 0.698906,1.81411 0.30281,1.87e-4 0.443333,-0.322953 0.443333,-1.019718 z m 8.817199,-1.122021 c -0.007,-2.137838 -0.267707,-2.811959 -0.993944,-2.55353 -0.409136,0.14568 -0.287799,3.692063 0.148713,4.346305 0.553929,0.830195 0.850173,0.201841 0.845208,-1.792775 z m 3.113818,-0.597574 c -0.007,-2.735666 -0.231538,-3.422438 -1.033315,-3.137131 -0.321207,0.11422 -0.363362,0.802568 -0.173769,2.839493 0.170289,1.830728 0.136417,2.648098 -0.106721,2.561665 -0.210426,-0.07494 -0.362666,-1.076066 -0.371227,-2.441528 -0.0093,-1.273044 -0.08747,-2.356725 -0.176786,-2.408184 -0.08932,-0.05143 -0.328585,-0.03447 -0.53154,0.03781 -0.404612,0.14397 -0.532979,4.9269 -0.138274,5.154123 0.126906,0.07294 0.749623,0.132788 1.38394,0.132788 h 1.15326 l -0.007,-2.738939 z m 1.36705,0.380878 c -0.06844,-2.662205 -0.332993,-4.215428 -0.718209,-4.215428 -0.339976,0 -0.414031,6.240863 -0.07633,6.435277 0.61302,0.352957 0.844024,-0.292495 0.794515,-2.219849 z m 1.809479,-1.127873 c -0.06357,-1.862482 -0.247616,-3.46548 -0.409229,-3.562199 -0.161474,-0.09672 -0.56017,-0.117025 -0.885924,-0.04502 -0.515811,0.113952 -0.56351,0.327028 -0.369255,1.650075 0.122729,0.835564 0.222954,2.408317 0.222954,3.494991 0,1.934995 0.01392,1.974444 0.778461,1.912111 0.777671,-0.06359 0.778344,-0.06693 0.662877,-3.449998 z m 1.058417,0.01069 c -0.08329,-1.539717 -0.300814,-2.933927 -0.483052,-3.098269 -0.21553,-0.194387 -0.263206,0.564764 -0.136185,2.172638 0.107185,1.359303 0.20625,2.927955 0.219474,3.485933 0.01392,0.682604 0.110665,0.887678 0.287775,0.626844 0.14477,-0.213236 0.195114,-1.647443 0.111826,-3.18716 z m 1.30601,0.400315 c 0,-2.411617 -0.08839,-2.894438 -0.572813,-3.125602 -0.529917,-0.252898 -0.556179,-0.07935 -0.350254,2.316181 0.122265,1.424241 0.224578,2.886168 0.226898,3.248705 0.0023,0.388198 0.146626,0.608541 0.350277,0.536029 0.204394,-0.07281 0.345962,-1.288715 0.345962,-2.975313 z m 1.729902,0.410134 c 0,-2.144437 -0.103009,-2.713944 -0.527318,-2.916734 -0.290165,-0.138613 -0.616476,-0.200652 -0.725425,-0.137918 -0.108809,0.06265 -0.08514,1.375241 0.05266,2.916734 0.194186,2.171904 0.357631,2.802675 0.725448,2.802675 0.378488,0 0.474607,-0.539543 0.474607,-2.66477 z m 1.471149,0.67169 0.117857,-1.692049 0.07053,1.74296 c 0.04686,1.155646 0.204394,1.742973 0.46767,1.742973 0.284806,0 0.334408,-0.464892 0.175162,-1.643369 -0.122265,-0.903855 -0.222954,-1.994456 -0.224114,-2.42356 -10e-4,-0.429104 -0.104633,-0.721198 -0.229682,-0.649113 -0.125282,0.07214 -0.440387,0.02939 -0.700346,-0.09472 -0.259912,-0.124238 -0.565853,-0.172277 -0.679789,-0.106738 -0.113914,0.06559 -0.0935,1.252084 0.04501,2.636662 0.282092,2.814685 0.778136,3.066863 0.957937,0.486895 z M 76.115286,48.310392 c 1.141729,-0.332465 2.542953,-0.820549 3.113818,-1.08463 l 1.037955,-0.480188 -5.189728,0.0053 -5.189681,0.0053 -0.939656,0.891485 c -1.432359,1.358956 -1.102846,1.560409 2.289491,1.399808 2.120361,-0.10046 3.306867,-0.279671 4.877801,-0.737109 z" />
    </g>
  </g>
</svg>
