<?xml version="1.0" encoding="UTF-8" standalone="no"?>
<svg
   version="1.1"
   width="100"
   height="100"
   id="svg4460"
   sodipodi:docname="uEA13-paroisse.svg"
   inkscape:version="1.2.2 (732a01da63, 2022-12-09)"
   xmlns:inkscape="http://www.inkscape.org/namespaces/inkscape"
   xmlns:sodipodi="http://sodipodi.sourceforge.net/DTD/sodipodi-0.dtd"
   xmlns="http://www.w3.org/2000/svg"
   xmlns:svg="http://www.w3.org/2000/svg"
   xmlns:rdf="http://www.w3.org/1999/02/22-rdf-syntax-ns#"
   xmlns:cc="http://creativecommons.org/ns#"
   xmlns:dc="http://purl.org/dc/elements/1.1/">
  <sodipodi:namedview
     pagecolor="#ffffff"
     bordercolor="#666666"
     borderopacity="1"
     objecttolerance="10"
     gridtolerance="10"
     guidetolerance="10"
     inkscape:pageopacity="0"
     inkscape:pageshadow="2"
     inkscape:window-width="1920"
     inkscape:window-height="1009"
     id="namedview11"
     showgrid="true"
     inkscape:zoom="8"
     inkscape:cx="11.0625"
     inkscape:cy="33.75"
     inkscape:window-x="-8"
     inkscape:window-y="-8"
     inkscape:window-maximized="1"
     inkscape:current-layer="text5282"
     inkscape:document-rotation="0"
     inkscape:pagecheckerboard="0"
     showguides="true"
     inkscape:guide-bbox="true"
     inkscape:showpageshadow="0"
     inkscape:deskcolor="#d1d1d1">
    <inkscape:grid
       type="xygrid"
       id="grid823"
       originx="0"
       originy="0" />
    <sodipodi:guide
       position="0,86"
       orientation="66,0"
       id="guide957"
       inkscape:locked="false" />
    <sodipodi:guide
       position="0,20"
       orientation="0,50"
       id="guide959"
       inkscape:locked="false" />
    <sodipodi:guide
       position="50,20"
       orientation="-66,0"
       id="guide961"
       inkscape:locked="false" />
    <sodipodi:guide
       position="50,86"
       orientation="0,-50"
       id="guide963"
       inkscape:locked="false" />
    <sodipodi:guide
       position="8.9999971,64.32985"
       orientation="8.5387222,0"
       id="guide1517"
       inkscape:locked="false" />
    <sodipodi:guide
       position="8.9999971,55.791128"
       orientation="0,26.227758"
       id="guide1519"
       inkscape:locked="false" />
    <sodipodi:guide
       position="35,93.437165"
       orientation="-8.5387222,0"
       id="guide1521"
       inkscape:locked="false" />
    <sodipodi:guide
       position="35.227755,64.32985"
       orientation="0,-26.227758"
       id="guide1523"
       inkscape:locked="false" />
    <sodipodi:guide
       position="7.9247812,20.000001"
       orientation="0,-6.8495616"
       id="guide4054"
       inkscape:locked="false" />
    <sodipodi:guide
       position="1.0752196,74.999813"
       orientation="0,6.8495616"
       id="guide4058"
       inkscape:locked="false" />
  </sodipodi:namedview>
  <defs
     id="defs4462" />
  <metadata
     id="metadata4465">
    <rdf:RDF>
      <cc:Work
         rdf:about="">
        <dc:format>image/svg+xml</dc:format>
        <dc:type
           rdf:resource="http://purl.org/dc/dcmitype/StillImage" />
      </cc:Work>
    </rdf:RDF>
  </metadata>
  <g
     aria-label="C"
     id="text3215"
     style="font-size:32px;line-height:1.25"
     transform="translate(-37.75,-4)">
    <g
       aria-label="A"
       id="text5282"
       transform="matrix(1.6290909,0,0,2.8292029,-41.002727,-68.776958)">
      <path
         id="path2113"
         style="font-size:32px;line-height:1.25;fill:#666666;stroke-width:0.262524"
         d="m 80.875,31.293185 c -0.24261,6.7e-5 -0.439413,0.19645 -0.439998,0.439059 v 0.972696 c -1.625201,0.0137 -1.943092,0.07719 -1.857103,0.334817 0.07679,0.229526 0.453396,0.343824 1.149749,0.348624 0.970442,0.0068 1.0421,0.06076 1.142557,0.862931 0.103032,0.822744 -1.542349,3.934532 -2.849797,5.390211 -0.371435,0.413806 -0.41787,0.755633 -0.183433,1.337888 0.173445,0.430165 0.321405,1.387433 0.323705,2.126951 l 0.0084,1.344792 -1.297215,-0.0145 c -1.992202,-0.02235 -3.355445,-0.571508 -3.461238,-1.394496 -0.349605,-2.718739 -1.033212,-3.228102 -0.983102,-0.732455 0.03248,1.619958 0.0099,1.666771 -1.6425,3.28673 -0.921929,0.903855 -1.905903,1.643711 -2.185604,1.643711 -0.435816,0 -0.472986,0.439669 -0.26256,3.087221 l 0.244577,3.087221 h -8.871896 c -4.879791,0 -8.873095,0.07507 -8.873095,0.166373 0,0.0913 0.109474,0.228683 0.242179,0.305133 h -0.0024 c 0.132775,0.07644 0.457034,0.09133 0.720542,0.03314 0.263369,-0.05819 12.84366,-0.106313 27.956063,-0.106313 19.156341,0 27.477705,-0.06376 27.477705,-0.211245 0,-0.141799 -1.51305,-0.190755 -4.58462,-0.149115 l -4.584609,0.06213 -0.09591,-2.722029 -0.09591,-2.722028 -2.931323,-1.859789 c -3.128007,-1.984235 -3.618692,-2.565941 -3.620692,-4.299466 -0.0011,-0.575181 -0.157443,-1.045872 -0.347683,-1.045872 -0.20331,0 -0.346483,0.690783 -0.346483,1.673395 v 1.672705 l -1.469858,0.06972 c -3.216846,0.152832 -3.359622,0.04563 -3.368922,-2.512164 -0.0044,-1.474603 -0.136604,-1.761866 -1.871491,-4.083389 -1.026401,-1.373509 -1.969747,-2.923037 -2.096884,-3.443439 l -0.23019,-0.946462 h 1.231275 c 0.864578,0 1.232474,-0.08926 1.232474,-0.298919 0,-0.238365 -0.368248,-0.290789 -2.56086,-0.292016 L 81.314998,31.732244 C 81.314413,31.489635 81.11761,31.293252 80.875,31.293185 Z m 0.06834,5.28735 c 0.250749,-0.08921 3.107561,3.05174 3.107561,3.416515 0,0.03946 -1.167246,0.0718 -2.59443,0.0718 -1.427183,0 -2.595629,-0.04062 -2.595629,-0.08975 0,-0.338137 1.817807,-3.304326 2.082498,-3.398566 z m -2.12446,3.88664 h 2.595629 c 1.427718,0 2.678644,0.07736 2.780261,0.171896 0.233069,0.217143 0.965041,8.219964 0.762503,8.336601 -0.08238,0.04743 -0.623424,-0.05472 -1.202501,-0.227123 -0.5791,-0.172423 -1.428796,-0.313416 -1.888275,-0.313416 h -0.0012 c -0.459504,0 -1.231167,0.179618 -1.715633,0.399019 l -0.881195,0.399019 -0.133079,-1.246072 c -0.07308,-0.685024 -0.174814,-2.656769 -0.225394,-4.382308 z m 2.377429,0.896067 c -0.903857,0 -1.6425,0.06764 -1.6425,0.149805 v 1.444201 l -0.0012,1.294396 h 1.745606 1.745605 l -0.101907,-1.444201 -0.101907,-1.444201 z m 4.877145,3.486241 h 1.780373 1.780374 l -0.712149,0.547443 c -2.437878,1.877083 -2.590015,1.893709 -2.75868,0.298919 z m -9.548079,0.0028 c 1.143677,0.0045 1.529684,0.218763 1.712037,0.951985 0.224508,0.903134 -0.09616,0.931293 -1.385934,0.122191 -1.304269,-0.818218 -1.384008,-1.078276 -0.326103,-1.074176 z m 12.582507,2.972624 c 0.211777,0.01291 0.484044,1.056401 0.641414,2.815225 h -0.0012 c 0.230239,2.572486 0.127278,3.465901 -0.318909,2.753785 -0.09561,-0.152627 -0.223859,-0.949738 -0.285339,-1.771424 l -0.111498,-1.494596 -0.06954,1.64371 c -0.06786,1.622041 -0.07982,1.64302 -0.957925,1.64302 -0.811102,0 -0.841644,-0.02765 -0.342886,-0.314797 0.300698,-0.173226 0.5122,-0.576282 0.46997,-0.896067 -0.07988,-0.603641 -0.436087,-0.764296 -0.738525,-0.332746 -0.09605,0.136945 -0.187496,-0.298416 -0.201416,-0.967863 -0.01508,-0.669449 -0.12084,-1.610831 -0.234985,-2.091745 -0.197527,-0.831216 -0.163805,-0.87552 0.676182,-0.90228 0.835601,-0.02661 0.890151,0.03312 1.00708,1.095577 l 0.123487,1.123191 0.06594,-1.145282 c 0.04584,-0.80247 0.15108,-1.165455 0.278146,-1.157708 z m 6.032889,0.0076 c 0.168378,-0.0061 0.363695,0.134527 0.484358,0.452866 0.26005,0.68557 0.274289,0.887414 0.23019,3.194224 l -0.04076,2.148353 -0.951931,-0.07249 c -0.940209,-0.07178 -0.953084,-0.09379 -1.144954,-1.849434 l -0.194222,-1.776947 -0.06594,1.809394 c -0.06691,1.852008 -0.105704,1.896736 -1.519013,1.7231 -0.461199,-0.05666 -0.616549,-0.340923 -0.712149,-1.304752 l -0.122288,-1.231574 -0.06714,1.244691 c -0.09372,1.750633 -0.757806,1.577141 -0.760106,-0.198819 -0.0014,-0.794297 -0.101659,-2.049474 -0.222996,-2.788993 -0.155999,-0.950795 -0.10494,-1.344791 0.17504,-1.344791 0.25634,0 0.395639,0.452739 0.395639,1.283351 0,0.705662 0.121743,1.325918 0.269753,1.378618 0.14777,0.0527 0.207279,-0.524989 0.133079,-1.283351 -0.11459,-1.167916 -0.0494,-1.378618 0.423213,-1.378618 0.4586,0 0.565054,0.258003 0.598254,1.444201 0.02218,0.794297 0.161537,2.02716 0.309317,2.739287 0.173,0.833486 0.204181,0.31894 0.08632,-1.4442 -0.12621,-1.889642 -0.06777,-2.739288 0.189427,-2.739288 0.20502,0 0.431839,0.380741 0.504739,0.846363 l 0.133079,0.847052 0.06114,-0.847052 c 0.04312,-0.604256 0.208651,-0.846363 0.579071,-0.846363 0.343569,0 0.519126,0.198158 0.519126,0.586103 0,0.322207 0.12278,0.629181 0.27335,0.68275 0.14916,0.05356 0.211576,-0.209643 0.135476,-0.585412 -0.08711,-0.429627 0.08444,-0.680484 0.300925,-0.688273 z m -21.822466,0.01105 c 1.748527,0.0093 3.461349,0.06126 3.697423,0.147734 0.263577,0.09657 0.443495,1.061535 0.519125,2.786231 l 0.115095,2.637807 H 73.57367 c -2.958095,-2.03e-4 -4.112884,-0.06852 -4.210554,-0.249215 -0.07429,-0.136945 -0.209285,-1.341313 -0.300925,-2.675776 -0.139062,-2.023094 -0.08172,-2.444477 0.346483,-2.539087 0.376679,-0.08322 2.161102,-0.116973 3.909629,-0.107694 z m 8.846719,1.272996 c 1.663922,-0.07291 2.924129,0.811871 2.924129,2.233955 0,0.803123 -0.171759,1.167598 -0.691768,1.466982 -0.87003,0.50088 -1.94086,0.5052 -3.342547,0.01312 -1.14138,-0.400691 -1.529661,-0.833537 -1.575361,-1.756927 -0.04427,-0.89656 0.407043,-1.429344 1.479449,-1.748643 0.416424,-0.123982 0.822116,-0.19166 1.206098,-0.208484 z m 5.532946,0.18018 c -0.04295,0.0027 -0.07217,0.303926 -0.07313,0.831175 -0.0016,0.76697 0.06034,1.105404 0.136675,0.751785 0.07608,-0.35362 0.07734,-0.98121 0.0024,-1.394496 -0.02342,-0.129152 -0.04642,-0.189674 -0.06594,-0.188464 z m 7.188633,0.537088 c -0.01559,-6.7e-5 -0.0318,0.01131 -0.04796,0.03452 -0.12802,0.185647 -0.182491,0.924813 -0.118691,1.64302 0.0638,0.718209 0.180063,1.306132 0.258963,1.306132 0.07892,0 0.132592,-0.739857 0.118692,-1.64371 -0.0118,-0.790873 -0.101878,-1.339495 -0.211008,-1.339959 z m 1.461465,1.455246 c 0.0195,-0.0012 0.04134,0.05931 0.06474,0.188464 h -0.0012 c 0.0757,0.413287 0.0751,1.040186 -0.0012,1.393806 -0.07659,0.353622 -0.137675,0.01581 -0.136675,-0.751095 0.0011,-0.527247 0.03144,-0.828513 0.07433,-0.831175 z m -16.812242,1.545682 c 0.202067,-9.52e-4 0.479244,0.09032 0.902775,0.274757 v 6.9e-4 c 0.635662,0.276826 0.611635,0.292229 -0.442396,0.298229 -0.850199,0.0048 -1.065527,-0.06389 -0.913565,-0.292016 0.124642,-0.187026 0.251118,-0.280708 0.453186,-0.28166 z"
         sodipodi:nodetypes="cccccsccccccccsccsscccssccccccssccccccssccccsssccscccsscccccssccccccsccccccccccsccccccscccccscccsscccccccsccccsssccscccscccssccsscccccccssscscsssccssscsscssccccssccscs" />
      <g
         id="path1828">
        <path
           style="color:#000000;fill:#666666;stroke-width:0.880242;stroke-linecap:round;-inkscape-stroke:none"
           d="M 80.875,32.792614 V 31.732245"
           id="path2386" />
      </g>
    </g>
  </g>
</svg>
