<?xml version="1.0" encoding="UTF-8" standalone="no"?>
<svg
   version="1.1"
   width="100"
   height="100"
   id="svg4460"
   sodipodi:docname="prieure.svg"
   inkscape:version="1.2.2 (732a01da63, 2022-12-09)"
   xmlns:inkscape="http://www.inkscape.org/namespaces/inkscape"
   xmlns:sodipodi="http://sodipodi.sourceforge.net/DTD/sodipodi-0.dtd"
   xmlns="http://www.w3.org/2000/svg"
   xmlns:svg="http://www.w3.org/2000/svg"
   xmlns:rdf="http://www.w3.org/1999/02/22-rdf-syntax-ns#"
   xmlns:cc="http://creativecommons.org/ns#"
   xmlns:dc="http://purl.org/dc/elements/1.1/">
  <sodipodi:namedview
     pagecolor="#ffffff"
     bordercolor="#666666"
     borderopacity="1"
     objecttolerance="10"
     gridtolerance="10"
     guidetolerance="10"
     inkscape:pageopacity="0"
     inkscape:pageshadow="2"
     inkscape:window-width="1920"
     inkscape:window-height="1009"
     id="namedview11"
     showgrid="true"
     inkscape:zoom="11.313709"
     inkscape:cx="79.858872"
     inkscape:cy="68.766134"
     inkscape:window-x="-8"
     inkscape:window-y="-8"
     inkscape:window-maximized="1"
     inkscape:current-layer="text5282"
     inkscape:document-rotation="0"
     inkscape:pagecheckerboard="0"
     showguides="true"
     inkscape:guide-bbox="true"
     inkscape:showpageshadow="0"
     inkscape:deskcolor="#d1d1d1">
    <inkscape:grid
       type="xygrid"
       id="grid823"
       originx="0"
       originy="0" />
    <sodipodi:guide
       position="0,86"
       orientation="66,0"
       id="guide957"
       inkscape:locked="false" />
    <sodipodi:guide
       position="0,20"
       orientation="0,50"
       id="guide959"
       inkscape:locked="false" />
    <sodipodi:guide
       position="50,20"
       orientation="-66,0"
       id="guide961"
       inkscape:locked="false" />
    <sodipodi:guide
       position="50,86"
       orientation="0,-50"
       id="guide963"
       inkscape:locked="false" />
    <sodipodi:guide
       position="8.9999971,64.32985"
       orientation="8.5387222,0"
       id="guide1517"
       inkscape:locked="false" />
    <sodipodi:guide
       position="8.9999971,55.791128"
       orientation="0,26.227758"
       id="guide1519"
       inkscape:locked="false" />
    <sodipodi:guide
       position="35,93.437165"
       orientation="-8.5387222,0"
       id="guide1521"
       inkscape:locked="false" />
    <sodipodi:guide
       position="35.227755,64.32985"
       orientation="0,-26.227758"
       id="guide1523"
       inkscape:locked="false" />
    <sodipodi:guide
       position="7.9247812,20.000001"
       orientation="0,-6.8495616"
       id="guide4054"
       inkscape:locked="false" />
    <sodipodi:guide
       position="1.0752196,74.999813"
       orientation="0,6.8495616"
       id="guide4058"
       inkscape:locked="false" />
  </sodipodi:namedview>
  <defs
     id="defs4462" />
  <metadata
     id="metadata4465">
    <rdf:RDF>
      <cc:Work
         rdf:about="">
        <dc:format>image/svg+xml</dc:format>
        <dc:type
           rdf:resource="http://purl.org/dc/dcmitype/StillImage" />
      </cc:Work>
    </rdf:RDF>
  </metadata>
  <g
     aria-label="C"
     id="text3215"
     style="font-size:32px;line-height:1.25"
     transform="translate(-37.75,-4)">
    <g
       aria-label="A"
       id="text5282"
       transform="matrix(1.6290909,0,0,2.8292029,-41.002727,-68.776958)">
      <path
         id="path1817"
         style="font-size:32px;line-height:1.25;fill:#666666;stroke-width:0.262524"
         d="m 56.233775,53.662315 c 7e-5,-0.148379 0.45693,-0.248995 1.13071,-0.248995 1.41591,0 3.71313,-0.867108 3.71313,-1.401559 0,-0.447803 0.1327,-0.470949 1.06067,-0.185009 0.36807,0.113404 0.66923,0.409875 0.66923,0.658806 0,0.38151 0.16658,0.445957 1.06139,0.410293 0.58378,-0.02327 1.1314,0.06123 1.21689,0.187781 0.10603,0.156976 1.9327,0.250577 5.74874,0.294572 5.21038,0.06008 5.56019,0.04153 5.10992,-0.270837 -0.29738,-0.20629 -0.53263,-0.250267 -0.61135,-0.114286 -0.0705,0.121567 -0.34853,0.221039 -0.6181,0.221039 -0.40002,0 -0.49616,-0.558626 -0.52293,-3.037752 -0.0186,-1.670764 -0.13665,-4.158233 -0.26351,-5.527712 l -0.23061,-2.48996 1.72164,-2.191164 c 1.67276,-2.128937 2.05909,-3.172179 1.64109,-4.431893 -0.13549,-0.408797 -0.319,-0.443623 -2.09774,-0.398393 -1.54017,0.03917 -1.94914,-0.01309 -1.94914,-0.249234 0,-0.211914 0.53474,-0.336371 1.83903,-0.428022 1.01144,-0.07108 1.92089,-0.176367 2.02098,-0.233984 0.43744,-0.251849 -0.38826,-0.985107 -1.60885,-1.428729 -1.757,-0.638583 -2.42414,-1.225228 -2.42414,-2.131605 0,-0.626122 0.16542,-0.796648 1.02074,-1.051261 0.56142,-0.167143 1.82252,-0.30391 2.80245,-0.30391 1.56492,0 1.9248,0.08241 2.958,0.67727 0.79275,0.456404 1.17635,0.864191 1.17635,1.250456 0,0.772534 -0.89247,1.45862 -1.89739,1.45862 -0.90186,0 -2.38319,-0.914029 -2.02387,-1.248771 0.13735,-0.127979 0.37789,-0.0825 0.63513,0.120044 0.60279,0.474625 2.01536,0.518811 2.17785,0.06812 0.16751,-0.465028 -0.83001,-1.10986 -2.25392,-1.456849 -1.54382,-0.376212 -2.65174,-0.339036 -3.36197,0.112817 -0.7135,0.453909 -0.50384,0.999368 0.54344,1.413979 1.87681,0.743 2.70508,1.255803 3.07737,1.905285 0.30687,0.535344 0.5798,0.694362 1.14751,0.668622 1.34723,-0.06109 1.60986,0.0055 1.60986,0.408717 0,0.32251 -0.23061,0.398394 -1.21091,0.398394 h -1.21096 v 1.190223 c 0,1.049761 0.22458,1.443498 1.90291,3.336359 l 1.90288,2.146133 v 2.241154 c 0,1.768821 0.10045,2.241154 0.47576,2.241154 0.38443,0 0.47702,0.640185 0.48252,3.336548 0.002,2.000182 -0.0988,3.057306 -0.25722,2.639357 -0.25961,-0.685575 -0.26469,-0.681427 -0.30954,0.248996 -0.0392,0.816263 0.0476,0.946184 0.63342,0.946184 0.61752,0 0.68935,-0.166867 0.79317,-1.84257 l 0.11414,-1.842571 0.0717,1.842571 c 0.0578,1.486668 0.17215,1.84257 0.59077,1.84257 0.42651,0 0.53117,-0.399294 0.58738,-2.240964 l 0.0684,-2.240964 0.19094,2.175185 c 0.13016,1.480983 0.3291,2.201473 0.62358,2.257562 0.33352,0.06354 0.43245,-0.624053 0.43245,-3.005477 0,-1.698323 -0.0944,-3.229648 -0.21019,-3.402946 -0.33337,-0.500155 -0.78122,-0.368776 -1.1328,0.332303 l -0.32469,0.647389 -0.0311,-0.746988 c -0.0186,-0.410842 -0.18676,-0.746988 -0.37719,-0.746988 -0.1972,0 -0.36352,0.663101 -0.38688,1.543775 -0.0299,1.134118 -0.1109,1.385197 -0.30506,0.946185 -0.14547,-0.328675 -0.28237,-1.062427 -0.30504,-1.630558 l -0.0411,-1.032967 3.7002,-0.06261 3.70018,-0.0626 1.23003,0.769903 c 0.67654,0.423446 1.53767,0.836288 1.91365,0.917422 0.56147,0.121153 0.68652,0.339475 0.7,1.222066 0.009,0.591 0.0515,1.813514 0.0947,2.716699 l 0.0787,1.642154 1.27214,-0.09378 c 1.48231,-0.109263 1.7419,-0.230135 1.89887,-0.884167 0.0638,-0.265313 0.33403,-0.523826 0.60079,-0.57447 0.37983,-0.07211 0.43473,0.05259 0.2533,0.575221 -0.21553,0.620235 -0.19604,0.639677 0.27641,0.275674 0.50145,-0.38647 0.51548,-0.385723 1.063875,0.05656 0.30561,0.246506 0.87124,0.448193 1.25687,0.448193 0.40705,0 0.64081,0.104454 0.55727,0.248997 -0.15475,0.2677 -1.43426,0.284172 -30.446635,0.391956 -11.93088,0.04433 -15.13673,0.0035 -15.13664,-0.192759 z m 5.18982,-0.547792 c 0,-0.371775 -0.32629,-0.370038 -1.19056,0.0064 -0.64411,0.280486 -0.63351,0.29246 0.25961,0.29246 0.59696,0 0.93107,-0.107233 0.93107,-0.298795 z m 18.89167,-0.166367 c 0.8327,-0.412379 0.9384,-0.602866 0.93151,-1.678617 -0.007,-0.97683 -0.16867,-1.328736 -0.83351,-1.804655 -2.12048,-1.518252 -5.15048,-0.519742 -5.15048,1.697291 0,1.852151 2.87019,2.866724 5.05248,1.785981 z m 8.80365,-2.024796 0.18978,-2.39036 0.0696,2.45676 c 0.0527,1.862755 0.17423,2.436859 0.50207,2.374455 0.28898,-0.05501 0.4963,-0.737677 0.62495,-2.058366 l 0.19233,-1.976062 0.0671,2.041767 c 0.0963,2.930775 0.74115,2.622593 0.83377,-0.398394 l 0.0749,-2.44016 0.10881,2.44016 c 0.0647,1.453215 0.2488,2.440161 0.45503,2.440161 0.61058,0 0.66907,-0.44595 0.40466,-3.087551 -0.19906,-1.990109 -0.36545,-2.576706 -0.71845,-2.534043 -0.25272,0.03054 -0.53372,-0.108368 -0.62471,-0.308663 -0.20323,-0.447769 -1.48514,-0.936011 -1.86235,-0.70939 -0.15173,0.09116 -0.34571,0.389847 -0.43106,0.663742 -0.13015,0.417554 -0.16287,0.393425 -0.20231,-0.149399 -0.0269,-0.356064 -0.20277,-0.64739 -0.39308,-0.64739 -0.21437,0 -0.3712,1.270378 -0.41217,3.336548 l -0.0664,3.336547 -0.22365,-3.28675 c -0.12296,-1.807709 -0.24912,-3.309155 -0.27967,-3.336546 -0.0309,-0.0274 -0.21205,-0.0498 -0.40211,-0.0498 -0.39775,0 -0.49379,6.421982 -0.0995,6.649038 0.13549,0.07807 0.64163,0.115408 1.12445,0.083 0.87328,-0.05863 0.87891,-0.07151 1.06781,-2.449305 z m 4.6616,-2.041767 c -0.10673,-0.246505 -0.32796,-0.448193 -0.49173,-0.448193 -0.33603,0 -0.10951,4.31852 0.25093,4.780724 0.28539,0.366135 0.51168,-3.706391 0.2407,-4.332531 z m -11.54529,-1.444181 -0.31792,-1.095584 -0.0357,1.593575 c -0.0209,0.876465 0.0789,1.817671 0.21925,2.091567 0.40672,0.79503 0.51455,-1.28004 0.13456,-2.589558 z m -4.68128,0.872475 c 0.68207,-0.09856 1.35209,-0.01794 2.27838,0.274191 l 1.31211,0.413809 v -3.270198 -3.270198 h -3.33252 -3.33253 l 0.21159,2.240963 c 0.11623,1.232532 0.21483,2.814296 0.21877,3.515032 l 0.007,1.274069 0.83549,-0.519023 c 0.4595,-0.285464 1.27024,-0.581852 1.80166,-0.658645 z m 0.40211,-2.411556 c -1.1382,-0.06883 -1.30979,-0.152142 -1.49706,-0.726883 -0.11624,-0.357035 -0.16078,-0.956868 -0.0984,-1.332961 0.11066,-0.667992 0.14894,-0.683806 1.67002,-0.683806 h 1.55692 v 1.443893 c 0,0.794141 -0.078,1.428952 -0.17307,1.410692 -0.0951,-0.01826 -0.75151,-0.06818 -1.45856,-0.110947 z m 2.75728,-4.023639 c 0.48349,-0.01658 -2.31047,-3.230103 -2.90797,-3.34477 -0.37486,-0.07195 -2.9944,3.070092 -2.74978,3.298261 0.11252,0.104881 3.20096,0.130277 5.65775,0.0465 z" />
    </g>
  </g>
</svg>
