<?xml version="1.0" encoding="UTF-8" standalone="no"?>
<svg
   version="1.1"
   width="100"
   height="100"
   id="svg4460"
   sodipodi:docname="tuillerie.svg"
   inkscape:version="1.2.2 (732a01da63, 2022-12-09)"
   xmlns:inkscape="http://www.inkscape.org/namespaces/inkscape"
   xmlns:sodipodi="http://sodipodi.sourceforge.net/DTD/sodipodi-0.dtd"
   xmlns="http://www.w3.org/2000/svg"
   xmlns:svg="http://www.w3.org/2000/svg"
   xmlns:rdf="http://www.w3.org/1999/02/22-rdf-syntax-ns#"
   xmlns:cc="http://creativecommons.org/ns#"
   xmlns:dc="http://purl.org/dc/elements/1.1/">
  <sodipodi:namedview
     pagecolor="#ffffff"
     bordercolor="#666666"
     borderopacity="1"
     objecttolerance="10"
     gridtolerance="10"
     guidetolerance="10"
     inkscape:pageopacity="0"
     inkscape:pageshadow="2"
     inkscape:window-width="1920"
     inkscape:window-height="1009"
     id="namedview11"
     showgrid="true"
     inkscape:zoom="11.313709"
     inkscape:cx="39.288619"
     inkscape:cy="56.922093"
     inkscape:window-x="-8"
     inkscape:window-y="-8"
     inkscape:window-maximized="1"
     inkscape:current-layer="text5282"
     inkscape:document-rotation="0"
     inkscape:pagecheckerboard="0"
     showguides="true"
     inkscape:guide-bbox="true"
     inkscape:showpageshadow="0"
     inkscape:deskcolor="#d1d1d1">
    <inkscape:grid
       type="xygrid"
       id="grid823"
       originx="0"
       originy="0" />
    <sodipodi:guide
       position="0,86"
       orientation="66,0"
       id="guide957"
       inkscape:locked="false" />
    <sodipodi:guide
       position="0,20"
       orientation="0,50"
       id="guide959"
       inkscape:locked="false" />
    <sodipodi:guide
       position="50,86"
       orientation="0,-50"
       id="guide963"
       inkscape:locked="false" />
    <sodipodi:guide
       position="8.9999971,64.32985"
       orientation="8.5387222,0"
       id="guide1517"
       inkscape:locked="false" />
    <sodipodi:guide
       position="8.9999971,55.791128"
       orientation="0,26.227758"
       id="guide1519"
       inkscape:locked="false" />
    <sodipodi:guide
       position="35,93.437165"
       orientation="-8.5387222,0"
       id="guide1521"
       inkscape:locked="false" />
    <sodipodi:guide
       position="35.227755,64.32985"
       orientation="0,-26.227758"
       id="guide1523"
       inkscape:locked="false" />
    <sodipodi:guide
       position="7.9247812,20.000001"
       orientation="0,-6.8495616"
       id="guide4054"
       inkscape:locked="false" />
    <sodipodi:guide
       position="1.0752196,74.999813"
       orientation="0,6.8495616"
       id="guide4058"
       inkscape:locked="false" />
  </sodipodi:namedview>
  <defs
     id="defs4462" />
  <metadata
     id="metadata4465">
    <rdf:RDF>
      <cc:Work
         rdf:about="">
        <dc:format>image/svg+xml</dc:format>
        <dc:type
           rdf:resource="http://purl.org/dc/dcmitype/StillImage" />
      </cc:Work>
    </rdf:RDF>
  </metadata>
  <g
     aria-label="C"
     id="text3215"
     style="font-size:32px;line-height:1.25"
     transform="translate(-37.75,-4)">
    <g
       aria-label="A"
       id="text5282"
       transform="matrix(1.6290909,0,0,2.8292029,-41.002727,-68.776958)">
      <path
         id="path633"
         style="font-size:32px;line-height:1.25;fill:#666666;stroke-width:0.262524"
         d="m 57.069305,53.743317 c -0.328283,-0.305814 0.633459,-0.766031 1.333526,-0.638105 0.776604,0.141885 1.828108,-0.337341 2.582161,-1.176873 0.626267,-0.697286 0.990441,-0.536324 0.853722,0.377324 -0.161937,1.082265 1.086049,0.751937 1.636567,-0.433165 0.372596,-0.802113 1.081572,-0.842257 1.081572,-0.06132 0,0.632441 0.0116,0.637999 0.69197,0.28452 0.672249,-0.350286 0.691946,-0.347921 0.691946,0.08283 0,0.423039 0.02691,0.427327 0.605457,0.09324 0.577569,-0.334135 0.610653,-0.32978 0.718,0.09405 0.08329,0.329539 0.276988,0.414262 0.749367,0.327949 0.350231,-0.06399 0.736932,-0.02311 0.859314,0.09098 0.122265,0.114086 0.997238,0.207291 1.944086,0.207291 h 1.721549 l -0.197434,-3.63534 c -0.108809,-1.999439 -0.271906,-3.972695 -0.362875,-4.385046 -0.148481,-0.673079 0.02088,-0.879676 1.655963,-2.021615 3.976495,-2.777133 4.416093,-3.245285 4.416093,-4.70267 0,-1.227223 -0.08398,-1.371781 -1.220146,-2.101061 -1.526505,-0.979841 -1.79238,-1.534493 -1.048766,-2.187908 1.582835,-1.39083 5.036745,-0.749332 5.036745,0.93549 0,0.61613 -0.19929,0.840187 -1.076884,1.210257 l -1.076932,0.454152 0.225739,1.582719 c 0.246409,1.728118 0.538732,2.019718 4.413842,4.403148 l 1.635477,1.005918 0.20973,4.272791 c 0.256316,5.222641 0.240726,5.169165 1.515021,5.169165 1.070296,0 1.618448,-0.270199 1.818457,-0.896374 0.156601,-0.490048 1.677098,-0.683219 1.677098,-0.213063 0,0.171931 0.21553,0.312654 0.47862,0.312654 0.263207,0 0.563325,0.186451 0.666798,0.414316 0.17029,0.374626 0.364568,0.402706 2.029741,0.293203 1.012852,-0.06666 2.152934,-0.141031 2.533534,-0.165358 0.47194,-0.03019 0.67668,0.06666 0.6439,0.304371 -0.0413,0.301205 0.2788,0.348589 2.3558,0.348589 1.616197,0 2.329017,0.06973 2.175507,0.212702 -0.16008,0.14914 -5.985287,0.175511 -19.481811,0.08844 -10.589441,-0.0684 -20.390886,-0.04622 -21.781044,0.04916 -1.406305,0.09645 -2.608981,0.09765 -2.711132,0.0013 z m 27.429139,-5.263293 -0.235042,-4.51213 -2.419714,-1.640965 c -1.330857,-0.902519 -2.651948,-1.75191 -2.935779,-1.88753 -0.584832,-0.279444 -0.684337,-0.218887 -4.082382,2.484811 l -2.013524,1.602076 0.239519,3.983956 c 0.131546,2.191141 0.24641,4.095971 0.254808,4.232914 0.0116,0.18879 1.395192,0.248999 5.721083,0.248999 h 5.705817 z" />
    </g>
  </g>
</svg>
