<?xml version="1.0" encoding="UTF-8" standalone="no"?>
<svg
   version="1.1"
   width="100"
   height="100"
   id="svg4460"
   sodipodi:docname="paroisse-c.svg"
   inkscape:version="1.2.2 (732a01da63, 2022-12-09)"
   xmlns:inkscape="http://www.inkscape.org/namespaces/inkscape"
   xmlns:sodipodi="http://sodipodi.sourceforge.net/DTD/sodipodi-0.dtd"
   xmlns="http://www.w3.org/2000/svg"
   xmlns:svg="http://www.w3.org/2000/svg"
   xmlns:rdf="http://www.w3.org/1999/02/22-rdf-syntax-ns#"
   xmlns:cc="http://creativecommons.org/ns#"
   xmlns:dc="http://purl.org/dc/elements/1.1/">
  <sodipodi:namedview
     pagecolor="#ffffff"
     bordercolor="#666666"
     borderopacity="1"
     objecttolerance="10"
     gridtolerance="10"
     guidetolerance="10"
     inkscape:pageopacity="0"
     inkscape:pageshadow="2"
     inkscape:window-width="1920"
     inkscape:window-height="1009"
     id="namedview11"
     showgrid="true"
     inkscape:zoom="11.313709"
     inkscape:cx="44.945475"
     inkscape:cy="56.922096"
     inkscape:window-x="-8"
     inkscape:window-y="-8"
     inkscape:window-maximized="1"
     inkscape:current-layer="text5282"
     inkscape:document-rotation="0"
     inkscape:pagecheckerboard="0"
     showguides="true"
     inkscape:guide-bbox="true"
     inkscape:showpageshadow="0"
     inkscape:deskcolor="#d1d1d1">
    <inkscape:grid
       type="xygrid"
       id="grid823"
       originx="0"
       originy="0" />
    <sodipodi:guide
       position="0,86"
       orientation="66,0"
       id="guide957"
       inkscape:locked="false" />
    <sodipodi:guide
       position="0,20"
       orientation="0,50"
       id="guide959"
       inkscape:locked="false" />
    <sodipodi:guide
       position="50,86"
       orientation="0,-50"
       id="guide963"
       inkscape:locked="false" />
    <sodipodi:guide
       position="8.9999971,64.32985"
       orientation="8.5387222,0"
       id="guide1517"
       inkscape:locked="false" />
    <sodipodi:guide
       position="8.9999971,55.791128"
       orientation="0,26.227758"
       id="guide1519"
       inkscape:locked="false" />
    <sodipodi:guide
       position="35,93.437165"
       orientation="-8.5387222,0"
       id="guide1521"
       inkscape:locked="false" />
    <sodipodi:guide
       position="35.227755,64.32985"
       orientation="0,-26.227758"
       id="guide1523"
       inkscape:locked="false" />
    <sodipodi:guide
       position="7.9247812,20.000001"
       orientation="0,-6.8495616"
       id="guide4054"
       inkscape:locked="false" />
    <sodipodi:guide
       position="1.0752196,74.999813"
       orientation="0,6.8495616"
       id="guide4058"
       inkscape:locked="false" />
  </sodipodi:namedview>
  <defs
     id="defs4462" />
  <metadata
     id="metadata4465">
    <rdf:RDF>
      <cc:Work
         rdf:about="">
        <dc:format>image/svg+xml</dc:format>
        <dc:type
           rdf:resource="http://purl.org/dc/dcmitype/StillImage" />
      </cc:Work>
    </rdf:RDF>
  </metadata>
  <g
     aria-label="C"
     id="text3215"
     style="font-size:32px;line-height:1.25"
     transform="translate(-37.75,-4)">
    <g
       aria-label="A"
       id="text5282"
       transform="matrix(1.6290909,0,0,2.8292029,-41.002727,-68.776958)">
      <path
         id="path1265"
         style="font-size:32px;line-height:1.25;fill:#666666;stroke-width:0.262524"
         d="m 54.680784,53.600037 c 0,-0.107941 0.142983,-0.247128 0.317853,-0.309341 0.174767,-0.06212 0.256311,-1.004675 0.180776,-2.094381 -0.07524,-1.089706 -0.0181,-2.023712 0.127996,-2.075572 0.145697,-0.05183 1.738019,-0.139815 3.538394,-0.195522 l 3.273419,-0.101261 0.09862,-2.004596 c 0.105213,-2.140831 0.155581,-2.082706 -1.742007,-2.010674 -1.354334,0.05143 -1.245395,-0.507828 0.129805,-0.666199 0.59467,-0.06853 1.99589,-0.124506 3.113818,-0.124506 H 65.7521 v -2.014837 c 0,-1.999683 -0.006,-2.014096 -0.778461,-1.871326 -0.428144,0.07923 -1.80646,0.188601 -3.062947,0.243268 -1.820638,0.07923 -2.324774,0.03883 -2.482937,-0.198457 -0.145999,-0.219205 0.21495,-0.364477 1.367644,-0.550295 1.075424,-0.17335 2.082944,-0.554716 3.215203,-1.216975 0.906978,-0.53048 1.821659,-0.964511 2.032672,-0.964511 0.261107,0 0.413962,1.032862 0.478686,3.236941 l 0.09503,3.236962 3.027332,0.05744 c 2.481677,0.04716 3.027332,0.114086 3.027332,0.371206 0,0.237269 -0.260506,0.291627 -1.069994,0.223229 -0.635739,-0.0537 -1.133489,0.0053 -1.22648,0.144304 -0.08603,0.129047 -0.110618,0.943999 -0.05457,1.810783 l 0.10222,1.575973 0.91498,-1.095597 c 0.503266,-0.60257 1.004345,-1.252445 1.113553,-1.444173 0.333533,-0.585458 1.089422,-0.391752 1.943309,0.497996 1.745903,1.81924 1.757354,1.816648 1.558273,-0.352463 -0.100434,-1.093446 -0.264104,-2.279422 -0.363631,-2.635494 -0.108229,-0.386676 -0.03417,-0.647378 0.183467,-0.647378 0.200543,0 0.629174,-0.380962 0.952695,-0.846593 0.32355,-0.46563 1.256426,-1.637053 2.073081,-2.603171 1.484587,-1.756313 1.484826,-1.756926 1.484826,-4.033734 V 32.66393 l -1.124434,-0.0031 c -1.448675,-0.004 -2.151324,-0.263443 -1.867253,-0.689643 0.166067,-0.249188 0.553988,-0.317825 1.52083,-0.269099 1.236672,0.06232 1.297886,0.03723 1.297886,-0.532185 0,-0.464791 0.153794,-0.59759 0.691946,-0.59759 0.532104,0 0.717609,0.154095 0.802925,0.666918 0.107023,0.643684 0.152287,0.662452 1.297436,0.538765 1.092689,-0.11804 1.186459,-0.08904 1.186459,0.36684 0,0.428205 -0.175069,0.503338 -1.297438,0.556818 l -1.297405,0.06182 -0.09923,2.072393 c -0.09503,1.987139 -0.04707,2.146938 1.168532,3.884339 1.636366,2.338844 2.538156,3.366753 3.127428,3.564812 0.323701,0.108755 0.473948,0.566628 0.473948,1.444163 v 1.284894 h 1.556925 1.556923 v -0.896388 c 0,-0.492998 0.155581,-0.896385 0.345974,-0.896385 0.190358,0 0.345973,0.443502 0.345973,0.98557 0,0.96182 0.07194,1.030178 2.983417,2.838557 1.640891,1.019143 3.440695,2.099351 3.99954,2.400462 0.558875,0.301112 0.911831,0.644611 0.784397,0.763319 -0.1463,0.136369 -0.599675,0.01202 -1.231665,-0.335751 l -0.999999,-0.551592 v 1.929638 1.929652 h 4.007603 c 3.052299,0 3.973249,0.05931 3.863469,0.248985 -0.18377,0.317663 -48.69677,0.486975 -48.69677,0.170019 z m 2.767845,-2.112122 c 0,-2.424763 -0.669584,-2.558059 -0.750492,-0.149314 l -0.05847,1.742974 -0.200844,-1.627632 c -0.110619,-0.895186 -0.339647,-1.701935 -0.509171,-1.792776 -0.179268,-0.09618 -0.215553,0.242012 -0.08633,0.808847 0.12201,0.535695 0.221841,1.40968 0.221841,1.942169 0,0.835391 0.09503,0.968179 0.691946,0.968179 0.643382,0 0.691977,-0.132788 0.691977,-1.892367 z m 3.113849,0.11128 c 0,-1.066474 -0.150779,-1.834643 -0.375742,-1.914703 -0.262005,-0.09325 -0.344024,0.382187 -0.270999,1.571791 0.05756,0.938028 -0.006,1.769759 -0.143285,1.848309 -0.136394,0.07855 -0.279391,-0.65646 -0.317674,-1.633336 l -0.06955,-1.776184 -0.119319,1.592886 c -0.172679,2.300964 -0.779272,2.400903 -0.779272,0.128379 0,-1.270626 -0.116303,-1.802968 -0.373881,-1.711326 -0.221841,0.07895 -0.299478,0.46846 -0.190659,0.957946 0.100735,0.453685 0.191262,1.250695 0.200844,1.771095 l 0.0181,0.946176 h 1.21092 1.210921 v -1.781019 z m 3.562434,1.302835 c -0.492833,-0.379155 -0.678906,-0.420407 -0.898283,-0.199196 -0.633549,0.638827 -0.934257,0.183633 -0.934257,-1.414195 0,-0.931242 -0.116604,-1.693372 -0.259606,-1.693625 -0.142704,-2.01e-4 -0.209242,0.761662 -0.147483,1.693171 0.09473,1.435102 0.02997,1.693625 -0.43249,1.693625 -0.299478,0 -0.544395,0.08964 -0.544395,0.199209 0,0.109544 0.863568,0.199196 1.919055,0.199196 h 1.919055 z m 9.746184,0.10086 c 0.333172,-0.60436 -0.127415,-6.654631 -0.52383,-6.882922 -0.247616,-0.142581 -0.344895,0.89238 -0.313988,3.343473 0.02399,1.952509 -0.04647,3.602664 -0.158295,3.667001 -0.111825,0.06439 -0.203257,-1.287352 -0.203257,-3.003781 0,-1.947686 -0.130107,-3.120752 -0.345973,-3.120752 -0.215832,0 -0.345974,1.161978 -0.345974,3.087568 0,1.925564 -0.130107,3.087542 -0.345973,3.087542 -0.207735,0 -0.375711,-0.974752 -0.420376,-2.440152 l -0.07433,-2.440165 -0.109714,2.340561 c -0.114516,2.446604 -0.131893,2.47069 -1.704924,2.358889 -0.223627,-0.0155 -0.505155,0.06319 -0.625877,0.175577 -0.142682,0.132922 0.687961,0.204486 2.372469,0.204486 2.239877,0 2.620205,-0.0513 2.799951,-0.377325 z m 5.028318,0.293056 c 0,-0.04622 -0.467054,-0.353198 -1.037921,-0.681869 -1.029194,-0.592538 -1.037947,-0.593606 -1.037947,-0.126643 0,0.259004 -0.155581,0.526317 -0.345974,0.594021 -0.223047,0.07935 -0.346003,-0.691194 -0.346003,-2.167643 0,-1.312306 -0.147786,-2.343366 -0.345974,-2.413874 -0.221237,-0.07869 -0.365399,0.652693 -0.399874,2.030017 l -0.05396,2.153121 -0.24312,-2.644357 c -0.133707,-1.454393 -0.34298,-2.701841 -0.465078,-2.77215 -0.12201,-0.07027 -0.22184,1.276518 -0.22184,2.99292 v 3.120766 h 2.248869 c 1.236883,0 2.248873,-0.03794 2.248873,-0.08429 z m 4.260647,-0.203029 c 0.715599,-0.09204 1.149346,-0.347775 1.635794,-0.964706 1.192424,-1.512277 0.742609,-2.653882 -1.368423,-3.472935 -1.661007,-0.644478 -2.905954,-0.58519 -4.413384,0.21019 -1.087773,0.573929 -1.280079,0.811198 -1.412882,1.742973 -0.124701,0.87476 -0.0181,1.176673 0.557917,1.597521 0.821541,0.59903 2.750277,1.196725 3.508175,1.087128 0.285389,-0.04128 0.957191,-0.131319 1.492803,-0.200171 z m 2.307687,-0.272256 c -0.003,-0.290264 -0.05155,-0.295528 -0.340668,-0.03794 -0.437886,0.390096 -0.437886,0.653802 0,0.497983 0.190358,-0.06773 0.343575,-0.274688 0.340668,-0.45995 z M 87.458,50.342475 c -0.06986,-0.575197 -0.127114,-0.1046 -0.127114,1.045768 0,1.150369 0.05726,1.620966 0.127114,1.045795 0.06986,-0.575184 0.06986,-1.516391 0,-2.091563 z m 1.037948,0 c -0.06986,-0.575197 -0.127114,-0.1046 -0.127114,1.045768 0,1.150369 0.05726,1.620966 0.127114,1.045795 0.06986,-0.575184 0.06986,-1.516391 0,-2.091563 z m 0.968941,-0.905471 c -0.424425,-0.244363 -0.474248,0.165878 -0.249714,2.054237 l 0.236524,1.988565 0.09953,-1.967832 c 0.05487,-1.082318 0.01508,-2.016044 -0.08663,-2.07497 z m -2.877264,1.403107 c 0.05306,-0.684942 -0.02088,-1.245191 -0.163075,-1.244991 -0.142704,2.01e-4 -0.234424,0.829513 -0.204138,1.842926 0.05635,1.873357 0.19335,1.650235 0.367257,-0.597935 z m 4.421118,0.448541 c 0,-1.549321 -0.09412,-1.89238 -0.518975,-1.89238 -0.424905,0 -0.518975,0.343059 -0.518975,1.89238 0,1.549308 0.09412,1.892367 0.518975,1.892367 0.424905,0 0.518975,-0.343059 0.518975,-1.892367 z m 2.075868,0 c 0,-1.190432 -0.134909,-1.89238 -0.363749,-1.89238 -0.231121,0 -0.340037,0.620071 -0.298578,1.699169 0.03568,0.934541 -0.03387,1.756226 -0.155279,1.825973 -0.121105,0.06973 -0.220333,-0.694881 -0.220333,-1.699156 0,-1.102864 -0.139085,-1.825986 -0.351279,-1.825986 -0.217641,0 -0.327206,0.720677 -0.288086,1.89238 0.06146,1.839078 0.08603,1.892367 0.870224,1.892367 0.788715,0 0.807001,-0.04275 0.807001,-1.892367 z m 1.03795,0 c 0,-1.156514 -0.1376,-1.89238 -0.353766,-1.89238 -0.222745,0 -0.318845,0.700238 -0.259608,1.891632 0.05185,1.040411 0.211052,1.891966 0.353766,1.892367 0.142705,4.14e-4 0.259608,-0.85082 0.259608,-1.891619 z m -25.721145,1.181976 c 1.136187,-0.654176 0.915221,-1.544071 -0.577969,-2.327362 -1.267071,-0.664689 -1.76527,-0.681615 -2.928228,-0.09952 -1.304481,0.652827 -1.326904,1.837515 -0.04677,2.471452 1.225401,0.606872 2.448252,0.591563 3.552991,-0.04449 z m -7.117525,-1.32839 c -0.04466,-0.794112 -0.156486,-1.487069 -0.248215,-1.53993 -0.09173,-0.05277 -0.136092,0.643355 -0.09802,1.547144 0.03777,0.903775 0.149596,1.596746 0.248215,1.539903 0.09862,-0.05678 0.143006,-0.753033 0.09802,-1.547117 z m 33.438436,-0.993695 c -0.07315,-0.468513 -0.134005,-0.134819 -0.135211,0.741704 0,0.87647 0.05846,1.259806 0.132798,0.851863 0.07433,-0.407944 0.07524,-1.125054 0.003,-1.593567 z M 65.519208,49.175034 c 0.979762,-0.05317 2.206631,0.08456 3.087286,0.346679 l 0.951465,0.283197 v -2.594675 -2.594662 h -3.28682 -3.28682 v 2.806442 2.806482 l 1.06448,-0.515711 c 0.585464,-0.283638 1.247165,-0.525609 1.470409,-0.537752 z m 0.768329,-0.742052 c -1.448854,-0.09498 -1.779689,-0.468847 -1.57656,-1.781861 l 0.176275,-1.139174 1.309099,0.02325 c 0.720005,0.01202 1.397563,0.07428 1.505722,0.136542 0.108229,0.06225 0.06385,0.72407 -0.09802,1.470664 -0.294081,1.353893 -0.297378,1.357246 -1.316353,1.290504 z m 13.185741,-0.505624 c 1.568885,-0.430747 2.12641,-0.410214 4.044836,0.148966 0.892197,0.260046 1.688197,0.411323 1.768867,0.336152 0.08064,-0.07521 0.179268,-1.225887 0.219126,-2.55715 0.05215,-1.745752 -0.05306,-2.507466 -0.377419,-2.732575 -0.370376,-0.256938 -1.15954,-0.302232 -4.464046,-0.256248 l -4.01417,0.05593 -0.02399,1.892357 c -0.01508,1.040812 0.04348,2.554184 0.128297,3.363044 l 0.153794,1.470651 0.693446,-0.698635 c 0.381407,-0.384218 1.224262,-0.844328 1.87301,-1.022457 z m -0.553929,-1.893756 c -0.789735,-0.12691 -0.838987,-0.21361 -0.753311,-1.324717 0.05037,-0.653909 0.197248,-1.248998 0.326068,-1.322446 0.1289,-0.07337 0.973857,-0.08424 1.877745,-0.02382 l 1.643411,0.109611 v 1.368467 1.368468 l -1.124466,-0.0199 c -0.618412,-0.01069 -1.504702,-0.08096 -1.969447,-0.155699 z m 8.731468,0.801218 c 0.705106,-0.532328 1.282028,-1.025355 1.282028,-1.095583 0,-0.07027 -0.622759,-0.127712 -1.383924,-0.127712 H 86.165 v 1.095584 c 0,0.60257 0.04587,1.095583 0.101919,1.095583 0.05605,0 0.678815,-0.435556 1.383923,-0.967898 z m -3.869408,-4.573818 c 0.482641,-0.117212 0.366928,-0.388661 -0.864948,-2.027768 -1.640802,-2.183264 -1.887248,-2.43306 -2.267187,-2.297878 -0.466095,0.165851 -3.479757,3.973734 -3.479757,4.396816 0,0.144651 5.989075,0.0801 6.611892,-0.07112 z"
         sodipodi:nodetypes="cccccccccscscccccscccscccccccccsccsccccssccssccccscccssscccccccscccccccccsscccccccccsccccccccccsccsssccccccsssscccccsccccscscccccscscccsccccccscssssssssssscccccccscccssssscsccsscsccssccscccccccccccccscccscccccccscccccccccccccccccccccccccccccccccsscsscccccscc" />
    </g>
  </g>
</svg>
