<?xml version="1.0" encoding="UTF-8" standalone="no"?>
<svg
   version="1.1"
   width="100"
   height="100"
   id="svg4460"
   sodipodi:docname="tour-r.svg"
   inkscape:version="1.2.2 (732a01da63, 2022-12-09)"
   xmlns:inkscape="http://www.inkscape.org/namespaces/inkscape"
   xmlns:sodipodi="http://sodipodi.sourceforge.net/DTD/sodipodi-0.dtd"
   xmlns="http://www.w3.org/2000/svg"
   xmlns:svg="http://www.w3.org/2000/svg"
   xmlns:rdf="http://www.w3.org/1999/02/22-rdf-syntax-ns#"
   xmlns:cc="http://creativecommons.org/ns#"
   xmlns:dc="http://purl.org/dc/elements/1.1/">
  <sodipodi:namedview
     pagecolor="#ffffff"
     bordercolor="#666666"
     borderopacity="1"
     objecttolerance="10"
     gridtolerance="10"
     guidetolerance="10"
     inkscape:pageopacity="0"
     inkscape:pageshadow="2"
     inkscape:window-width="1920"
     inkscape:window-height="1009"
     id="namedview11"
     showgrid="true"
     inkscape:zoom="22.627417"
     inkscape:cx="40.062019"
     inkscape:cy="77.163027"
     inkscape:window-x="-8"
     inkscape:window-y="-8"
     inkscape:window-maximized="1"
     inkscape:current-layer="text5282"
     inkscape:document-rotation="0"
     inkscape:pagecheckerboard="0"
     showguides="true"
     inkscape:guide-bbox="true"
     inkscape:showpageshadow="0"
     inkscape:deskcolor="#d1d1d1">
    <inkscape:grid
       type="xygrid"
       id="grid823"
       originx="0"
       originy="0" />
    <sodipodi:guide
       position="0,86"
       orientation="66,0"
       id="guide957"
       inkscape:locked="false" />
    <sodipodi:guide
       position="0,20"
       orientation="0,50"
       id="guide959"
       inkscape:locked="false" />
    <sodipodi:guide
       position="50,20"
       orientation="-66,0"
       id="guide961"
       inkscape:locked="false" />
    <sodipodi:guide
       position="50,86"
       orientation="0,-50"
       id="guide963"
       inkscape:locked="false" />
    <sodipodi:guide
       position="8.9999971,64.32985"
       orientation="8.5387222,0"
       id="guide1517"
       inkscape:locked="false" />
    <sodipodi:guide
       position="8.9999971,55.791128"
       orientation="0,26.227758"
       id="guide1519"
       inkscape:locked="false" />
    <sodipodi:guide
       position="35,93.437165"
       orientation="-8.5387222,0"
       id="guide1521"
       inkscape:locked="false" />
    <sodipodi:guide
       position="35.227755,64.32985"
       orientation="0,-26.227758"
       id="guide1523"
       inkscape:locked="false" />
    <sodipodi:guide
       position="7.9247812,20.000001"
       orientation="0,-6.8495616"
       id="guide4054"
       inkscape:locked="false" />
    <sodipodi:guide
       position="1.0752196,74.999813"
       orientation="0,6.8495616"
       id="guide4058"
       inkscape:locked="false" />
  </sodipodi:namedview>
  <defs
     id="defs4462" />
  <metadata
     id="metadata4465">
    <rdf:RDF>
      <cc:Work
         rdf:about="">
        <dc:format>image/svg+xml</dc:format>
        <dc:type
           rdf:resource="http://purl.org/dc/dcmitype/StillImage" />
      </cc:Work>
    </rdf:RDF>
  </metadata>
  <g
     aria-label="C"
     id="text3215"
     style="font-size:32px;line-height:1.25"
     transform="translate(-37.75,-4)">
    <g
       aria-label="A"
       id="text5282"
       transform="matrix(1.6290909,0,0,2.8292029,-41.002727,-68.776958)">
      <path
         id="path1389"
         style="font-size:32px;line-height:1.25;fill:#666666;stroke-width:0.262524"
         d="m 74.292472,53.664628 c -3.986588,-0.03139 -6.833093,-0.132387 -6.833093,-0.241984 0,-0.344943 1.319791,-0.600393 3.10194,-0.600393 1.329697,0 1.818155,-0.08202 1.985707,-0.333374 0.228754,-0.343058 1.351204,-1.060997 1.658955,-1.060997 0.09512,0 0.173074,0.120632 0.173074,0.267915 0,0.147416 0.31137,0.430172 0.69197,0.628473 0.380576,0.198287 0.691947,0.481097 0.691947,0.62846 0,0.175564 0.435932,0.267915 1.264551,0.267915 1.171681,0 1.226387,-0.02552 0.744843,-0.34859 -0.285989,-0.191728 -1.458807,-1.379422 -2.606545,-2.639348 -2.586036,-2.838837 -4.137041,-4.487616 -5.011388,-5.327255 -0.571305,-0.548654 -0.775119,-0.614594 -1.350995,-0.43716 -0.843398,0.259886 -1.929122,0.07641 -2.372919,-0.40101 -0.184906,-0.198928 -0.869707,-0.419351 -1.521796,-0.48978 -2.6906,-0.29061 -2.628748,-1.362277 0.125049,-2.165112 1.044498,-0.304511 2.004105,-0.717184 2.132542,-0.917055 0.128297,-0.199855 0.659513,-0.542065 1.180195,-0.760442 l 0.946709,-0.39705 -0.785676,-0.804848 c -1.18755,-1.216516 -0.650395,-1.467982 0.612184,-0.286591 0.605689,0.566759 1.325058,1.03047 1.598612,1.03047 0.273693,0 1.431431,-0.320355 2.57309,-0.711898 1.730505,-0.593521 2.194881,-0.675163 2.792635,-0.490984 0.560935,0.172843 0.716933,0.414449 0.716933,1.110291 0,0.641578 0.138737,0.889386 0.498573,0.889386 0.579634,0 0.710507,0.107713 1.011205,0.833026 0.175394,0.423046 0.07818,0.560431 -0.466974,0.660047 -0.682945,0.1248 -0.682551,0.132575 0.0464,0.959743 1.225506,1.390736 5.843255,6.14974 6.952597,7.165237 0.86161,0.788754 1.010277,1.097721 0.862608,1.792776 -0.0979,0.46186 -0.290189,0.996633 -0.426676,1.188348 -0.202306,0.284306 -0.06589,0.348108 0.74025,0.345891 1.735725,-0.0053 2.519498,-0.224965 3.261627,-0.916306 0.863628,-0.804545 1.359603,-0.863752 1.359603,-0.162258 0,0.711165 0.829964,1.120618 2.164488,1.067823 1.82363,-0.07214 2.33327,-0.004 2.33327,0.31232 0,0.227022 -0.436281,0.299989 -1.816392,0.303756 -0.999025,0.004 -4.151773,0.02525 -7.006097,0.0497 -2.85437,0.02471 -8.264616,0.02057 -12.022821,-0.008 z m -0.259611,-0.643181 c 0,-0.109544 -0.155673,-0.199196 -0.345962,-0.199196 -0.190241,0 -0.345985,0.08964 -0.345985,0.199196 0,0.109543 0.155674,0.199196 0.345985,0.199196 0.190474,0 0.345962,-0.08964 0.345962,-0.199196 z m 9.349111,-0.201534 c 0.76577,-0.23596 1.399785,-1.384472 1.123146,-2.0346 -0.279099,-0.655939 -0.805187,-0.976007 -2.127066,-1.294138 -0.941465,-0.226555 -1.366006,-0.23449 -2.17871,-0.04075 -1.646613,0.392701 -2.484582,1.697259 -1.66,2.584336 0.75243,0.80946 3.380668,1.235545 4.84263,0.785094 z m -5.208288,-3.682805 c 0.572326,-0.293977 1.264737,-0.398391 2.642134,-0.398391 1.02661,0 1.866551,-0.05023 1.866551,-0.111681 0,-0.125842 -4.975079,-5.416788 -5.754932,-6.1203 l -0.504628,-0.455222 -1.101129,0.451441 c -0.605619,0.248274 -1.984524,0.723174 -3.064216,1.055308 l -1.963064,0.603853 1.901978,1.989487 c 1.046098,1.094194 2.452356,2.56264 3.125024,3.263172 l 1.223069,1.273739 0.426815,-0.576534 c 0.234716,-0.317102 0.775862,-0.755824 1.202398,-0.974938 z m -1.931094,-1.81602 c -0.523304,-0.721064 -0.447069,-1.271521 0.175858,-1.271521 0.182585,0 0.812889,0.336138 1.401084,0.746981 0.98311,0.686665 1.021715,0.767099 0.478041,0.995992 -0.973597,0.409894 -1.503931,0.288233 -2.055262,-0.471452 z m -3.520518,-1.530205 c -1.333039,-1.266338 -1.355265,-1.406073 -0.269216,-1.69102 0.790942,-0.207492 0.906387,-0.155191 1.902906,0.861387 0.583486,0.595263 1.060877,1.140978 1.060877,1.212742 0,0.138787 -1.083822,0.655365 -1.397327,0.666012 -0.102545,0.004 -0.686332,-0.468606 -1.297403,-1.049121 z m 3.218033,-1.158384 c -1.167296,-1.146722 -1.203627,-1.233635 -0.622021,-1.487638 0.982414,-0.42907 1.250608,-0.344851 2.399507,0.753655 1.006309,0.962168 1.046446,1.068786 0.562559,1.493976 -0.286593,0.25183 -0.651393,0.457879 -0.810686,0.457879 -0.159153,0 -0.847504,-0.548053 -1.529359,-1.217872 z m -7.319369,-0.873691 c 0.285409,-0.164329 0.802565,-0.301592 1.149177,-0.305039 1.248914,-0.01202 7.722775,-2.201551 7.722775,-2.611532 0,-0.243801 0.03619,-0.251604 -2.972436,0.638472 -4.227406,1.250601 -7.696861,2.557088 -6.826249,2.570581 0.224346,0.004 0.641324,-0.128113 0.926733,-0.292482 z m -0.792752,-0.704207 c 0.842354,-0.259545 0.831264,-0.562226 -0.04246,-1.166433 -0.688142,-0.475747 -0.690346,-0.475867 -2.066351,-0.118587 -1.483701,0.385209 -2.302994,0.823342 -1.93534,1.035004 0.125977,0.0725 0.887478,0.193502 1.692688,0.269038 0.805211,0.07561 1.513165,0.148623 1.573231,0.16226 0.05986,0.01381 0.410389,-0.06784 0.77846,-0.181282 z m 4.474999,-1.782498 c 0,-0.07871 -0.170986,-0.425308 -0.379834,-0.770333 -0.452869,-0.747943 -1.328584,-0.815539 -2.993479,-0.231097 -1.356587,0.476212 -1.401966,0.777703 -0.237129,1.574756 l 0.887362,0.607175 1.361505,-0.518761 c 0.748857,-0.285318 1.361528,-0.583096 1.361528,-0.66174 z m 2.599144,-0.542549 c 1.182121,-0.324551 1.23402,-0.381428 1.136162,-1.244973 -0.119946,-1.057986 -0.612347,-1.131471 -2.533906,-0.378101 -1.304618,0.511499 -1.404008,0.692417 -0.799897,1.455793 0.475465,0.600771 0.587638,0.609315 2.197641,0.167264 z" />
    </g>
  </g>
</svg>
