<?xml version="1.0" encoding="UTF-8" standalone="no"?>
<svg
   version="1.1"
   width="100"
   height="100"
   id="svg4460"
   sodipodi:docname="paroisse-p.svg"
   inkscape:version="1.2.2 (732a01da63, 2022-12-09)"
   xmlns:inkscape="http://www.inkscape.org/namespaces/inkscape"
   xmlns:sodipodi="http://sodipodi.sourceforge.net/DTD/sodipodi-0.dtd"
   xmlns="http://www.w3.org/2000/svg"
   xmlns:svg="http://www.w3.org/2000/svg"
   xmlns:rdf="http://www.w3.org/1999/02/22-rdf-syntax-ns#"
   xmlns:cc="http://creativecommons.org/ns#"
   xmlns:dc="http://purl.org/dc/elements/1.1/">
  <sodipodi:namedview
     pagecolor="#ffffff"
     bordercolor="#666666"
     borderopacity="1"
     objecttolerance="10"
     gridtolerance="10"
     guidetolerance="10"
     inkscape:pageopacity="0"
     inkscape:pageshadow="2"
     inkscape:window-width="1920"
     inkscape:window-height="1009"
     id="namedview11"
     showgrid="true"
     inkscape:zoom="2.8284271"
     inkscape:cx="57.805979"
     inkscape:cy="18.031223"
     inkscape:window-x="-8"
     inkscape:window-y="-8"
     inkscape:window-maximized="1"
     inkscape:current-layer="text5282"
     inkscape:document-rotation="0"
     inkscape:pagecheckerboard="0"
     showguides="true"
     inkscape:guide-bbox="true"
     inkscape:showpageshadow="0"
     inkscape:deskcolor="#d1d1d1">
    <inkscape:grid
       type="xygrid"
       id="grid823"
       originx="0"
       originy="0" />
    <sodipodi:guide
       position="0,86"
       orientation="66,0"
       id="guide957"
       inkscape:locked="false" />
    <sodipodi:guide
       position="0,20"
       orientation="0,50"
       id="guide959"
       inkscape:locked="false" />
    <sodipodi:guide
       position="50,20"
       orientation="-66,0"
       id="guide961"
       inkscape:locked="false" />
    <sodipodi:guide
       position="50,86"
       orientation="0,-50"
       id="guide963"
       inkscape:locked="false" />
    <sodipodi:guide
       position="8.9999971,64.32985"
       orientation="8.5387222,0"
       id="guide1517"
       inkscape:locked="false" />
    <sodipodi:guide
       position="8.9999971,55.791128"
       orientation="0,26.227758"
       id="guide1519"
       inkscape:locked="false" />
    <sodipodi:guide
       position="35,93.437165"
       orientation="-8.5387222,0"
       id="guide1521"
       inkscape:locked="false" />
    <sodipodi:guide
       position="35.227755,64.32985"
       orientation="0,-26.227758"
       id="guide1523"
       inkscape:locked="false" />
    <sodipodi:guide
       position="7.9247812,20.000001"
       orientation="0,-6.8495616"
       id="guide4054"
       inkscape:locked="false" />
    <sodipodi:guide
       position="1.0752196,74.999813"
       orientation="0,6.8495616"
       id="guide4058"
       inkscape:locked="false" />
  </sodipodi:namedview>
  <defs
     id="defs4462" />
  <metadata
     id="metadata4465">
    <rdf:RDF>
      <cc:Work
         rdf:about="">
        <dc:format>image/svg+xml</dc:format>
        <dc:type
           rdf:resource="http://purl.org/dc/dcmitype/StillImage" />
      </cc:Work>
    </rdf:RDF>
  </metadata>
  <g
     aria-label="C"
     id="text3215"
     style="font-size:32px;line-height:1.25"
     transform="translate(-37.75,-4)">
    <g
       aria-label="A"
       id="text5282"
       transform="matrix(1.6290909,0,0,2.8292029,-41.002727,-68.776958)">
      <path
         id="path1793"
         style="font-size:32px;line-height:1.25;fill:#666666;stroke-width:0.262524"
         d="m 65.518254,53.477063 c -0.66603,-0.06239 -2.7289,-0.07226 -4.58422,-0.02197 -2.96471,0.08037 -3.37332,0.05175 -3.37332,-0.236311 0,-0.256358 0.34411,-0.32776 1.57966,-0.32776 1.9945,0 2.75062,-0.233635 3.20968,-0.991779 0.54778,-0.904725 1.44057,-0.798557 1.22094,0.145187 -0.1399,0.601979 -0.0988,0.679316 0.21205,0.398393 0.51655,-0.466747 1.04338,-0.441603 1.04338,0.0498 0,0.4397 0.54284,0.54199 0.79287,0.149399 0.1269,-0.199196 0.25033,-0.199196 0.61698,0 0.30182,0.163916 1.60428,0.248997 3.81203,0.248997 3.60537,0 3.77359,-0.0503 3.77359,-1.128474 0,-0.312008 0.16171,-0.46594 0.4325,-0.41174 0.23801,0.04761 0.416,0.301156 0.39589,0.563441 -0.0522,0.681554 0.80201,0.963178 2.9439,0.970438 l 1.86938,0.0064 -0.19419,-5.451503 c -0.13177,-3.696398 -0.32726,-5.573995 -0.60708,-5.83197 -0.43159,-0.397888 -0.51959,-0.288836 2.58254,-3.199995 0.73864,-0.693173 0.85362,-0.981974 0.66354,-1.666454 l -0.22991,-0.827968 -1.51903,0.119883 c -1.17918,0.09306 -1.56442,0.05173 -1.72202,-0.184709 -0.28149,-0.422109 -0.10185,-0.480755 1.64223,-0.536972 1.28896,-0.04155 1.54432,-0.119109 1.63766,-0.497413 0.10579,-0.428529 0.002,-0.448194 -2.33541,-0.448194 h -2.4459 v -0.672862 c 0,-0.810096 0.84537,-2.054039 1.8008,-2.649845 1.48129,-0.923738 4.89849,-0.694597 6.4372,0.431647 0.74417,0.54468 1.67225,2.430795 1.30121,2.644414 -0.12435,0.07163 -1.03719,0.134018 -2.02837,0.138644 -1.71768,0.0079 -1.80742,0.03487 -1.91442,0.572735 -0.10764,0.541604 -0.0592,0.561696 1.20651,0.498915 1.07018,-0.05307 1.34253,0.0057 1.44489,0.311608 0.1102,0.329693 -0.0304,0.362405 -1.12004,0.260595 l -1.24611,-0.116424 v 0.975797 c 0,0.925283 0.12412,1.056034 2.39781,2.525942 l 2.39784,1.550144 0.19627,1.594868 c 0.10789,0.877179 0.26799,2.625713 0.35548,3.885634 0.0875,1.259919 0.16565,2.314994 0.17354,2.344608 0.0336,0.124079 2.75811,-0.765515 3.29974,-1.077363 0.55541,-0.319785 0.64267,-0.319656 1.50653,0.0023 0.5043,0.187912 1.81215,0.573521 2.90632,0.856911 l 1.98941,0.515257 v 1.343441 c 0,1.920468 0.29917,2.641946 1.0484,2.529128 0.60787,-0.09152 1.667926,0.16074 1.363426,0.324443 -0.0896,0.0482 -7.013376,0.148778 -15.386106,0.223527 -8.37273,0.07476 -15.92375,0.152765 -16.78005,0.173346 -0.85632,0.02059 -2.10182,-0.01364 -2.76783,-0.07599 z m 15.82446,-0.922777 c -0.32165,-0.185205 -0.682,-0.280808 -0.80074,-0.212449 -0.34051,0.196047 0.18236,0.549188 0.81294,0.549188 0.52813,0 0.5272,-0.02621 -0.0116,-0.336739 z m 6.11643,0.0095 c 0.3269,-0.490506 0.0445,-0.521372 -0.6612,-0.07231 -0.53089,0.337779 -0.54523,0.399625 -0.0926,0.399625 0.29467,0 0.63376,-0.147294 0.75373,-0.327307 z m 1.58576,-1.465455 c 0,-1.062381 -0.14082,-1.792772 -0.34598,-1.792772 -0.37441,0 -0.48841,2.741657 -0.13619,3.270456 0.39299,0.589597 0.48196,0.316766 0.48196,-1.477684 z m 1.72993,0.01623 c 0,-1.983778 -0.17609,-2.431688 -0.89361,-2.273165 -0.37739,0.08337 -0.49031,0.562197 -0.49031,2.078988 0,1.837859 0.0469,1.970658 0.69195,1.970658 0.64023,0 0.69197,-0.132789 0.69197,-1.776481 z m 6.22232,0.133109 c -0.007,-1.463367 -0.35925,-2.401069 -0.80744,-2.135598 -0.32577,0.192959 -0.65828,2.439105 -0.34454,2.327469 0.17539,-0.06235 0.35002,0.126697 0.38851,0.420079 0.0501,0.382399 -0.0186,0.45379 -0.24103,0.252143 -0.24221,-0.218946 -0.35202,-0.174801 -0.49558,0.199198 -0.10138,0.264266 -0.13433,-0.326262 -0.0731,-1.312288 0.0647,-1.042325 -0.007,-1.626004 -0.16843,-1.394377 -0.22992,0.327029 -0.28418,0.282426 -0.30425,-0.248997 -0.0139,-0.356066 -0.1798,-0.647391 -0.3703,-0.647391 -0.20347,0 -0.3758,0.841181 -0.41842,2.041767 l -0.0726,2.041769 -0.10603,-1.991969 c -0.1508,-2.833593 -0.5755,-2.991769 -0.80219,-0.298794 l -0.1928,2.290763 -0.0689,-2.229209 c -0.0408,-1.32199 -0.21924,-2.282683 -0.43828,-2.360606 -0.20485,-0.07287 -0.45732,0.06244 -0.56696,0.30388 -0.14895,0.328316 -0.26952,0.369952 -0.49039,0.16944 -0.16959,-0.154198 -0.29499,0.675292 -0.29798,1.975131 l -0.007,2.240963 h 2.94081 2.94084 l -0.007,-1.643373 z m -5.07718,0.149399 c 0.002,-0.657349 0.0666,-0.902251 0.14361,-0.544224 0.077,0.358026 0.0756,0.895859 -0.002,1.195182 -0.0789,0.299321 -0.14176,0.0064 -0.1399,-0.650958 z m -6.11588,0.941755 c 1.541,-0.718683 1.92058,-1.800198 0.99392,-2.831924 -1.13885,-1.267968 -3.2556,-1.556898 -4.75897,-0.64959 -1.95815,1.181769 -1.93107,2.609397 0.064,3.383524 1.38153,0.536018 2.68761,0.570599 3.70097,0.09799 z m -1.71891,-4.560562 c 0.63829,0.05963 1.63785,0.304114 2.22122,0.543282 l 1.06071,0.434855 -0.23504,-3.46039 c -0.12923,-1.903212 -0.33559,-3.506231 -0.45851,-3.562265 -0.12296,-0.05603 -1.66849,-0.07202 -3.43454,-0.03551 l -3.211,0.06637 0.16078,1.927874 c 0.0882,1.060329 0.17075,2.676678 0.18374,3.591883 l 0.0239,1.664009 1.26462,-0.639275 c 1.04666,-0.529102 1.46458,-0.620586 2.42512,-0.530843 z m -2.30587,-3.153887 v -1.892383 h 1.55692 1.55692 l 0.002,1.145382 c 0.002,0.629959 0.1,1.481526 0.21832,1.892368 l 0.21437,0.746989 h -1.77519 -1.77517 v -1.89237 z m 4.83194,-3.665179 c 0.39447,-0.04885 -3.65555,-2.211128 -4.14155,-2.211128 -0.50662,0 -2.766,1.878724 -2.76651,2.300447 -1.6e-4,0.144306 5.60717,0.0718 6.90806,-0.08932 z m -5.08642,-7.310121 c 0.34568,-0.199021 -0.13178,-0.677713 -0.67629,-0.677713 -1.09113,0 -0.1559,-0.501431 1.04404,-0.559818 0.96656,-0.04702 1.27065,0.01256 1.27065,0.248997 0,0.170959 -0.15567,0.310821 -0.34596,0.310821 -0.19024,0 -0.34599,0.179276 -0.34599,0.398393 0,0.341041 0.23061,0.398393 1.60221,0.398393 h 1.60216 l -0.20347,-0.721895 c -0.11182,-0.397041 -0.48258,-0.902426 -0.82372,-1.123073 -0.91207,-0.589932 -2.77897,-0.986843 -3.94694,-0.839148 -1.49439,0.188975 -3.51247,1.915253 -2.90286,2.483138 0.22922,0.213719 3.37705,0.282908 3.72617,0.0819 z" />
    </g>
  </g>
</svg>
