<?xml version="1.0" encoding="UTF-8" standalone="no"?>
<svg
   version="1.1"
   width="100"
   height="100"
   id="svg4460"
   sodipodi:docname="prieure-r.svg"
   inkscape:version="1.2.2 (732a01da63, 2022-12-09)"
   xmlns:inkscape="http://www.inkscape.org/namespaces/inkscape"
   xmlns:sodipodi="http://sodipodi.sourceforge.net/DTD/sodipodi-0.dtd"
   xmlns="http://www.w3.org/2000/svg"
   xmlns:svg="http://www.w3.org/2000/svg"
   xmlns:rdf="http://www.w3.org/1999/02/22-rdf-syntax-ns#"
   xmlns:cc="http://creativecommons.org/ns#"
   xmlns:dc="http://purl.org/dc/elements/1.1/">
  <sodipodi:namedview
     pagecolor="#ffffff"
     bordercolor="#666666"
     borderopacity="1"
     objecttolerance="10"
     gridtolerance="10"
     guidetolerance="10"
     inkscape:pageopacity="0"
     inkscape:pageshadow="2"
     inkscape:window-width="1920"
     inkscape:window-height="1009"
     id="namedview11"
     showgrid="true"
     inkscape:zoom="11.313709"
     inkscape:cx="79.858872"
     inkscape:cy="68.766134"
     inkscape:window-x="-8"
     inkscape:window-y="-8"
     inkscape:window-maximized="1"
     inkscape:current-layer="text5282"
     inkscape:document-rotation="0"
     inkscape:pagecheckerboard="0"
     showguides="true"
     inkscape:guide-bbox="true"
     inkscape:showpageshadow="0"
     inkscape:deskcolor="#d1d1d1">
    <inkscape:grid
       type="xygrid"
       id="grid823"
       originx="0"
       originy="0" />
    <sodipodi:guide
       position="0,86"
       orientation="66,0"
       id="guide957"
       inkscape:locked="false" />
    <sodipodi:guide
       position="0,20"
       orientation="0,50"
       id="guide959"
       inkscape:locked="false" />
    <sodipodi:guide
       position="50,20"
       orientation="-66,0"
       id="guide961"
       inkscape:locked="false" />
    <sodipodi:guide
       position="50,86"
       orientation="0,-50"
       id="guide963"
       inkscape:locked="false" />
    <sodipodi:guide
       position="8.9999971,64.32985"
       orientation="8.5387222,0"
       id="guide1517"
       inkscape:locked="false" />
    <sodipodi:guide
       position="8.9999971,55.791128"
       orientation="0,26.227758"
       id="guide1519"
       inkscape:locked="false" />
    <sodipodi:guide
       position="35,93.437165"
       orientation="-8.5387222,0"
       id="guide1521"
       inkscape:locked="false" />
    <sodipodi:guide
       position="35.227755,64.32985"
       orientation="0,-26.227758"
       id="guide1523"
       inkscape:locked="false" />
    <sodipodi:guide
       position="7.9247812,20.000001"
       orientation="0,-6.8495616"
       id="guide4054"
       inkscape:locked="false" />
    <sodipodi:guide
       position="1.0752196,74.999813"
       orientation="0,6.8495616"
       id="guide4058"
       inkscape:locked="false" />
  </sodipodi:namedview>
  <defs
     id="defs4462" />
  <metadata
     id="metadata4465">
    <rdf:RDF>
      <cc:Work
         rdf:about="">
        <dc:format>image/svg+xml</dc:format>
        <dc:type
           rdf:resource="http://purl.org/dc/dcmitype/StillImage" />
      </cc:Work>
    </rdf:RDF>
  </metadata>
  <g
     aria-label="C"
     id="text3215"
     style="font-size:32px;line-height:1.25"
     transform="translate(-37.75,-4)">
    <g
       aria-label="A"
       id="text5282"
       transform="matrix(1.6290909,0,0,2.8292029,-41.002727,-68.776958)">
      <path
         id="path1835"
         style="font-size:32px;line-height:1.25;fill:#666666;stroke-width:0.262524"
         d="m 91.56105,53.727007 c -0.31204,-0.09978 -3.066455,-0.164296 -6.120917,-0.143392 -29.270599,0.200357 -30.679551,0.198886 -30.545941,-0.03191 0.07494,-0.129288 0.743268,-0.261883 1.485367,-0.29467 1.762901,-0.07788 2.729323,-0.461267 3.121852,-1.238405 0.175069,-0.346609 0.473978,-0.614475 0.664276,-0.595266 0.190358,0.0192 0.312428,0.106324 0.271299,0.193614 -0.04107,0.08728 0.455452,0.482266 1.103303,0.87775 1.085132,0.662445 1.349807,0.72288 3.361373,0.767575 l 2.18352,0.04852 0.09563,-2.693515 0.09563,-2.693518 2.166312,-1.489615 c 1.191494,-0.819291 2.471754,-1.515298 2.845067,-1.546685 0.437136,-0.03675 1.556835,0.404362 3.145294,1.239132 l 2.466539,1.2962 2.887606,-1.690813 c 1.58819,-0.929948 3.116846,-1.908297 3.396989,-2.17411 0.380987,-0.361517 1.173718,-0.586506 3.145925,-0.8929 1.450112,-0.225278 2.907216,-0.4096 3.238016,-0.4096 0.60789,0 2.63825,-1.128992 2.63825,-1.467005 0,-0.100673 -0.46705,-0.440029 -1.03795,-0.754125 -0.96042,-0.528448 -1.38584,-1.165223 -0.77843,-1.165209 0.1427,4e-6 0.69429,0.313738 1.22567,0.697188 0.53142,0.383451 1.11317,0.697182 1.29279,0.697182 0.38731,0 2.73487,-1.419385 2.74836,-1.661752 0.006,-0.09228 -0.31081,-0.402133 -0.70214,-0.688569 -1.2989,-0.950718 0.13521,-2.430401 2.35532,-2.430401 1.81132,0 3.19992,0.898986 3.19992,2.071651 0,0.733974 -0.15619,0.966035 -0.81824,1.215797 -1.55681,0.587292 -3.53981,-0.378766 -2.86273,-1.394632 0.29678,-0.445129 1.02377,-0.365136 0.81707,0.08989 -0.0971,0.214027 0.0312,0.55017 0.28539,0.746989 0.36549,0.283033 0.59296,0.312004 1.08783,0.13856 0.9997,-0.350329 0.97584,-1.190828 -0.0504,-1.781735 -1.151835,-0.663165 -2.556205,-0.601154 -3.280165,0.144842 -0.46591,0.480121 -0.46102,0.570835 0.0486,0.896387 1.20235,0.768051 1.10288,1.300501 -0.40101,2.146001 -0.76995,0.43286 -1.3999,0.898666 -1.3999,1.035126 0,0.136452 0.3892,0.489908 0.86495,0.785447 0.47571,0.295538 0.86495,0.613893 0.86495,0.70745 0,0.323115 -0.56602,0.168008 -1.55435,-0.425951 -0.92227,-0.554206 -1.03522,-0.573496 -1.60864,-0.274709 -0.85292,0.4444 -1.27579,1.282577 -1.6453,3.261132 l -0.3162,1.693174 -5.222337,3.018174 c -2.872257,1.659997 -5.222301,3.165697 -5.222301,3.346003 0,0.281393 0.398884,0.321017 2.816199,0.279748 3.141816,-0.05365 4.78052,-0.485212 5.136235,-1.35268 0.108531,-0.264541 0.409504,-0.521726 0.668954,-0.571524 0.35371,-0.06789 0.41445,0.04091 0.24282,0.434806 -0.16008,0.367442 -0.0992,0.509961 0.20235,0.474165 0.23713,-0.02815 0.4852,0.151833 0.5509,0.399965 0.0657,0.248132 0.26411,0.399709 0.44068,0.336839 0.17658,-0.06287 0.49616,-0.05206 0.70993,0.02401 0.21374,0.07607 2.87681,0.120525 5.91779,0.09879 4.15323,-0.02971 5.49483,0.01957 5.39149,0.198072 -0.0899,0.155509 -1.30801,0.262642 -3.52526,0.310062 -1.86323,0.03984 -3.56909,0.140268 -3.79083,0.223156 -0.5629,0.210434 -3.61172,0.18866 -4.29773,-0.0307 z M 59.646714,53.21122 c 0,-0.109557 -0.06865,-0.199197 -0.152588,-0.199197 -0.08394,0 -0.248815,0.08964 -0.366387,0.199197 -0.117509,0.109557 -0.04886,0.199196 0.152588,0.199196 0.201447,0 0.366389,-0.08964 0.366389,-0.199196 z m 10.845047,-1.444177 c 0.335422,-2.480949 0.276095,-4.930121 -0.11962,-4.930121 -0.215832,0 -0.346004,1.161979 -0.346004,3.08755 0,1.925569 -0.130106,3.087551 -0.345973,3.087551 -0.190358,0 -0.345973,0.08964 -0.345973,0.199197 0,0.109557 0.210449,0.199196 0.467684,0.199196 0.337189,0 0.529707,-0.45857 0.689907,-1.643373 z m 1.258977,-2.290764 c 0.006,-4.38359 -0.614456,-4.628911 -0.756669,-0.298796 -0.118414,3.602588 -0.02698,4.442495 0.439473,4.018664 0.171473,-0.156045 0.314286,-1.829989 0.317196,-3.719868 z m 1.671648,3.805129 0.801424,-0.123557 -0.226318,-3.608655 c -0.220635,-3.516812 -0.468733,-4.7695 -0.553811,-2.795267 -0.02399,0.538662 -0.151984,2.234325 -0.285987,3.768142 l -0.24372,2.788753 -0.05995,-3.934136 c -0.03777,-2.466926 -0.189151,-3.934137 -0.40599,-3.934137 -0.219126,0 -0.345971,1.460777 -0.345971,3.983936 0,2.191166 0.116605,3.982713 0.259606,3.981218 0.142705,-0.0016 0.620119,-0.05833 1.060884,-0.126282 z m 1.828252,-0.492975 c -0.724771,-0.447884 -0.72678,-0.44796 -0.72678,-0.02777 0,0.238948 0.262005,0.454916 0.605491,0.498889 0.901072,0.115394 0.924274,0.02515 0.121407,-0.471114 z m -6.262439,-2.178528 c 0,-1.683485 -0.12201,-2.557878 -0.346004,-2.478205 -0.200542,0.07139 -0.345973,1.164051 -0.345973,2.601316 0,1.519337 0.134004,2.478204 0.345973,2.478204 0.213141,0 0.346004,-0.999903 0.346004,-2.601315 z m 20.06686,2.278129 c 0,-0.264692 -0.09382,-0.278304 -0.518975,-0.07521 -0.285388,0.136383 -0.518973,0.281821 -0.518973,0.323184 0,0.04136 0.233527,0.07521 0.518973,0.07521 0.285389,0 0.518975,-0.145429 0.518975,-0.323184 z m -8.993562,-0.420659 c 0.542507,-0.397077 0.689608,-0.707419 0.543017,-1.145383 -0.29558,-0.88292 -1.363117,-1.297923 -3.338951,-1.297923 -2.124493,0 -2.690834,0.440136 -2.079076,1.615743 0.736104,1.414577 3.444802,1.874391 4.87501,0.827563 z M 69.59033,48.978285 c -0.06744,-0.684738 -0.122914,-0.124492 -0.122914,1.244982 0,1.369478 0.05517,1.92972 0.122914,1.244979 0.06744,-0.684738 0.06744,-1.805219 0,-2.489961 z m 15.187775,0.817779 c 1.496008,-0.89231 3.226026,-1.892737 3.844465,-2.22317 0.618442,-0.330435 1.12444,-0.696022 1.12444,-0.812419 0,-0.285363 -4.202224,-2.712309 -4.696316,-2.712309 -0.215252,0 -1.219706,0.515421 -2.231964,1.145382 -1.012289,0.629959 -2.903675,1.779753 -4.20315,2.555095 -2.190774,1.307162 -2.290479,1.403612 -1.370043,1.325836 1.776332,-0.150106 4.543938,1.083959 4.543938,2.026124 0,0.174816 0.06055,0.317845 0.134306,0.317845 0.07375,0 1.358352,-0.730072 2.854331,-1.622384 z M 83.02057,48.009585 c -0.486808,-0.333101 -0.885124,-0.71418 -0.885124,-0.846842 0,-0.252267 3.373756,-2.259918 3.538334,-2.105588 0.05185,0.04871 0.545924,0.375962 1.097695,0.727203 l 1.003236,0.638617 -1.934525,1.096127 -1.934463,1.096126 z m -8.211804,-0.12687 -0.06115,-1.543776 -0.199963,1.394377 c -0.110016,0.766909 -0.15108,1.461608 -0.09143,1.543776 0.303375,0.417302 0.407969,0.0037 0.352659,-1.394377 z m 1.099014,0.0498 c 0,-0.493012 -0.155581,-0.896385 -0.345971,-0.896385 -0.190358,0 -0.345974,0.403373 -0.345974,0.896385 0,0.493012 0.155581,0.896387 0.345974,0.896387 0.190357,0 0.345971,-0.403375 0.345971,-0.896387 z m 15.34363,-4.133333 c 0.18467,-0.823504 0.13161,-0.946185 -0.41028,-0.946185 -0.65204,0 -4.268917,0.576733 -4.53455,0.723062 -0.08454,0.04654 0.849659,0.667716 2.07587,1.380391 l 2.2295,1.295768 0.21345,-0.753425 c 0.11751,-0.414384 0.3091,-1.179211 0.42586,-1.699611 z" />
    </g>
  </g>
</svg>
