<?xml version="1.0" encoding="UTF-8" standalone="no"?>
<svg
   version="1.1"
   width="100"
   height="100"
   id="svg4460"
   sodipodi:docname="tour.svg"
   inkscape:version="1.2.2 (732a01da63, 2022-12-09)"
   xmlns:inkscape="http://www.inkscape.org/namespaces/inkscape"
   xmlns:sodipodi="http://sodipodi.sourceforge.net/DTD/sodipodi-0.dtd"
   xmlns="http://www.w3.org/2000/svg"
   xmlns:svg="http://www.w3.org/2000/svg"
   xmlns:rdf="http://www.w3.org/1999/02/22-rdf-syntax-ns#"
   xmlns:cc="http://creativecommons.org/ns#"
   xmlns:dc="http://purl.org/dc/elements/1.1/">
  <sodipodi:namedview
     pagecolor="#ffffff"
     bordercolor="#666666"
     borderopacity="1"
     objecttolerance="10"
     gridtolerance="10"
     guidetolerance="10"
     inkscape:pageopacity="0"
     inkscape:pageshadow="2"
     inkscape:window-width="1920"
     inkscape:window-height="1009"
     id="namedview11"
     showgrid="true"
     inkscape:zoom="22.627417"
     inkscape:cx="40.062019"
     inkscape:cy="77.163027"
     inkscape:window-x="-8"
     inkscape:window-y="-8"
     inkscape:window-maximized="1"
     inkscape:current-layer="text5282"
     inkscape:document-rotation="0"
     inkscape:pagecheckerboard="0"
     showguides="true"
     inkscape:guide-bbox="true"
     inkscape:showpageshadow="0"
     inkscape:deskcolor="#d1d1d1">
    <inkscape:grid
       type="xygrid"
       id="grid823"
       originx="0"
       originy="0" />
    <sodipodi:guide
       position="0,86"
       orientation="66,0"
       id="guide957"
       inkscape:locked="false" />
    <sodipodi:guide
       position="0,20"
       orientation="0,50"
       id="guide959"
       inkscape:locked="false" />
    <sodipodi:guide
       position="50,20"
       orientation="-66,0"
       id="guide961"
       inkscape:locked="false" />
    <sodipodi:guide
       position="50,86"
       orientation="0,-50"
       id="guide963"
       inkscape:locked="false" />
    <sodipodi:guide
       position="8.9999971,64.32985"
       orientation="8.5387222,0"
       id="guide1517"
       inkscape:locked="false" />
    <sodipodi:guide
       position="8.9999971,55.791128"
       orientation="0,26.227758"
       id="guide1519"
       inkscape:locked="false" />
    <sodipodi:guide
       position="35,93.437165"
       orientation="-8.5387222,0"
       id="guide1521"
       inkscape:locked="false" />
    <sodipodi:guide
       position="35.227755,64.32985"
       orientation="0,-26.227758"
       id="guide1523"
       inkscape:locked="false" />
    <sodipodi:guide
       position="7.9247812,20.000001"
       orientation="0,-6.8495616"
       id="guide4054"
       inkscape:locked="false" />
    <sodipodi:guide
       position="1.0752196,74.999813"
       orientation="0,6.8495616"
       id="guide4058"
       inkscape:locked="false" />
  </sodipodi:namedview>
  <defs
     id="defs4462" />
  <metadata
     id="metadata4465">
    <rdf:RDF>
      <cc:Work
         rdf:about="">
        <dc:format>image/svg+xml</dc:format>
        <dc:type
           rdf:resource="http://purl.org/dc/dcmitype/StillImage" />
      </cc:Work>
    </rdf:RDF>
  </metadata>
  <g
     aria-label="C"
     id="text3215"
     style="font-size:32px;line-height:1.25"
     transform="translate(-37.75,-4)">
    <g
       aria-label="A"
       id="text5282"
       transform="matrix(1.6290909,0,0,2.8292029,-41.002727,-68.776958)">
      <path
         id="path1371"
         style="font-size:32px;line-height:1.25;fill:#666666;stroke-width:0.262524"
         d="m 57.23026,53.61916 c -0.677818,-0.241197 -0.09095,-0.544486 1.21365,-0.627218 0.989234,-0.06265 1.559356,-0.454125 2.059948,-1.414222 0.171681,-0.329179 0.231538,-0.325812 0.883952,0.04983 0.384891,0.221599 0.699811,0.542669 0.699811,0.713477 0,0.501629 0.618704,0.135673 0.865809,-0.512037 0.32253,-0.845463 0.816602,-0.736855 1.08765,0.239113 0.198362,0.714157 0.272208,0.771574 0.511913,0.398391 0.392269,-0.610545 0.992343,-0.543804 1.004941,0.111815 0.0093,0.468312 0.06171,0.497208 0.363176,0.199182 0.432128,-0.427153 1.010208,-0.455648 1.010208,-0.04983 0,0.245953 0.620629,0.298801 3.50959,0.298801 h 3.509568 L 73.70525,48.594325 C 73.570456,46.156658 73.377199,43.964569 73.27593,43.723011 73.115152,43.339742 72.827469,43.27633 71.015926,43.225029 l -2.075886,-0.05886 -0.481707,-0.796794 c -0.581977,-0.962643 -0.402129,-1.46732 0.388302,-1.089619 0.977496,0.467064 0.895947,0.04073 -0.185833,-0.971481 -0.911352,-0.852774 -1.016588,-1.075277 -0.679744,-1.437614 0.365404,-0.393112 0.63267,-0.423894 3.220632,-0.370932 1.552142,0.03177 3.801682,0.04147 4.99893,0.02155 l 2.176807,-0.03622 -0.235018,-1.493977 c -0.205554,-1.306196 -0.164026,-1.493977 0.331554,-1.493977 0.438554,0 0.566689,0.197013 0.566689,0.871487 0,0.479318 0.09744,1.151607 0.216226,1.493977 l 0.216226,0.62249 2.811102,0.0023 c 5.617261,0.0043 6.438735,0.278433 5.606543,1.870411 l -0.478899,0.916158 h 1.350091 c 1.517132,0 1.518942,0.0017 0.866505,1.081419 l -0.473169,0.78264 -2.151403,-0.05058 -2.151427,-0.05058 0.221563,4.44704 c 0.293784,5.901665 0.126905,5.542616 2.57896,5.542616 1.752429,0 2.099574,-0.06973 2.978074,-0.597574 1.183049,-0.710952 1.682851,-0.764642 1.390737,-0.149487 -0.183746,0.386849 -0.16101,0.400489 0.167042,0.09966 0.209034,-0.191742 0.527642,-0.348603 0.708465,-0.348603 0.18073,0 0.34109,0.156915 0.3561,0.348603 0.01392,0.208239 0.09744,0.248343 0.201842,0.09966 0.285386,-0.407302 0.808806,-0.282997 0.808806,0.192075 0,0.403468 0.0471,0.414022 0.550982,0.123971 0.407814,-0.234797 0.789852,-0.27275 1.470408,-0.146027 0.505695,0.09418 1.814675,0.224164 2.908828,0.288875 2.731316,0.161564 2.506706,0.484998 -0.34596,0.498237 -1.284466,0.0053 -5.838439,0.05557 -10.119924,0.110078 -4.281509,0.0545 -8.329507,0.09992 -8.995516,0.100593 -0.666009,7.88e-4 -5.795532,0.0013 -11.398967,0.0013 -5.603457,1.87e-4 -10.281597,0.0338 -10.395928,0.07454 -0.114145,0.04075 -0.432661,-0.0053 -0.707444,-0.103799 z m 18.270293,-0.991143 c -0.23771,-0.219101 -0.535786,-0.398379 -0.662506,-0.398379 -0.126905,0 -0.148945,0.179278 -0.04942,0.398379 0.09953,0.219114 0.397652,0.398391 0.662505,0.398391 0.394938,0 0.403823,-0.0716 0.04942,-0.398391 z m 6.333383,-0.21488 c 0.90344,-0.556802 1.697607,-1.651865 1.702525,-2.347547 0.0023,-0.577736 -1.509801,-1.781207 -2.626242,-2.087715 -2.975313,-0.816889 -6.357256,0.611307 -5.917519,2.498985 0.225738,0.968513 1.002876,1.661269 2.423356,2.15992 1.676379,0.588517 3.227569,0.509993 4.41788,-0.223643 z m 2.742406,-0.0175 c 0,-0.346919 -0.0471,-0.593433 -0.104633,-0.547798 -0.05754,0.04555 -0.372573,0.329512 -0.699951,0.630811 -0.575899,0.530004 -0.572489,0.547785 0.104633,0.547785 0.555251,0 0.699951,-0.130384 0.699951,-0.630798 z m -0.271281,-6.092084 c -0.05823,-1.506439 -0.171681,-2.851008 -0.252418,-2.987964 -0.161242,-0.274198 -4.806391,-0.343486 -8.039296,-0.119964 l -1.816368,0.125655 0.0023,1.814831 c 0.0021,0.998157 0.100921,2.153562 0.219938,2.56757 0.201842,0.702469 0.247616,0.726876 0.687585,0.365208 0.259309,-0.213156 1.172354,-0.541666 2.028975,-0.730028 1.707746,-0.375481 2.031807,-0.686732 0.715055,-0.686732 -0.463332,0 -1.24924,-0.0891 -1.746467,-0.197887 -0.859035,-0.188041 -0.898916,-0.259939 -0.800988,-1.444173 0.102545,-1.240702 0.107881,-1.246553 1.20451,-1.307711 1.398138,-0.07802 1.954085,0.444908 1.66392,1.565019 -0.199754,0.77084 -0.17609,0.795541 0.67624,0.70657 0.48572,-0.05076 0.88314,-0.004 0.88314,0.105402 0,0.108742 0.173537,0.136021 0.385912,0.06038 0.232327,-0.08269 0.319467,-0.476595 0.21901,-0.98918 -0.214834,-1.09724 0.06705,-1.33153 1.507156,-1.252351 l 1.174651,0.06452 0.103241,1.244977 0.103009,1.244977 -1.140941,0.02365 c -0.627542,0.01376 -1.335567,0.008 -1.573416,-0.008 -0.238034,-0.01777 -0.432498,0.150863 -0.432498,0.3748 0,0.27589 0.225738,0.407115 0.700043,0.407115 0.385031,0 1.358095,0.394945 2.162377,0.877632 0.804283,0.482673 1.464074,0.886061 1.466139,0.896374 0.0021,0.01069 -0.04385,-1.21377 -0.102313,-2.720183 z m 4.423077,-4.171277 v -0.523821 l -9.734443,0.125321 c -5.353939,0.06888 -9.784997,0.154491 -9.846733,0.189981 -0.06171,0.03556 -0.03271,0.240005 0.0645,0.454324 0.170754,0.376786 0.497274,0.38785 9.846732,0.333838 l 9.669947,-0.05593 z M 74.334161,40.427297 c -1.131359,-1.296753 -0.879566,-1.166956 -2.631833,-1.356641 -1.532723,-0.165917 -3.041039,-0.06159 -3.041039,0.210346 0,0.08528 0.505997,0.6082 1.124422,1.161985 l 1.124445,1.006885 2.1682,0.01202 2.168201,0.01202 -0.912396,-1.045792 z m 6.748552,0.418471 c 0.209034,-0.345024 0.379857,-0.882859 0.379857,-1.195173 v -0.567871 h -3.29768 c -3.789525,0 -4.150358,0.157891 -2.939329,1.28609 0.412476,0.384243 0.651972,0.78989 0.532213,0.901433 -0.140362,0.130664 0.700043,0.202842 2.363708,0.202842 h 2.58142 z m 5.913528,-0.06646 c 0.218778,-0.38155 0.347563,-0.896962 0.286291,-1.145374 -0.0935,-0.379862 -0.35436,-0.461646 -1.640511,-0.514553 -2.887895,-0.118801 -3.190054,0.01309 -3.680577,1.606676 l -0.229914,0.746994 h 2.433518 2.433541 z" />
    </g>
  </g>
</svg>
