<?xml version="1.0" encoding="UTF-8" standalone="no"?>
<svg
   version="1.1"
   width="100"
   height="100"
   id="svg4460"
   sodipodi:docname="moulin-vent-a.svg"
   inkscape:version="1.1.1 (3bf5ae0d25, 2021-09-20)"
   xmlns:inkscape="http://www.inkscape.org/namespaces/inkscape"
   xmlns:sodipodi="http://sodipodi.sourceforge.net/DTD/sodipodi-0.dtd"
   xmlns="http://www.w3.org/2000/svg"
   xmlns:svg="http://www.w3.org/2000/svg"
   xmlns:rdf="http://www.w3.org/1999/02/22-rdf-syntax-ns#"
   xmlns:cc="http://creativecommons.org/ns#"
   xmlns:dc="http://purl.org/dc/elements/1.1/">
  <sodipodi:namedview
     pagecolor="#ffffff"
     bordercolor="#666666"
     borderopacity="1"
     objecttolerance="10"
     gridtolerance="10"
     guidetolerance="10"
     inkscape:pageopacity="0"
     inkscape:pageshadow="2"
     inkscape:window-width="2880"
     inkscape:window-height="1541"
     id="namedview11"
     showgrid="true"
     inkscape:zoom="22.627417"
     inkscape:cx="30.958019"
     inkscape:cy="76.168658"
     inkscape:window-x="-11"
     inkscape:window-y="-11"
     inkscape:window-maximized="1"
     inkscape:current-layer="svg4460"
     inkscape:document-rotation="0"
     inkscape:pagecheckerboard="0"
     showguides="true"
     inkscape:guide-bbox="true"
     inkscape:showpageshadow="0"
     inkscape:deskcolor="#d1d1d1">
    <inkscape:grid
       type="xygrid"
       id="grid823"
       originx="0"
       originy="0" />
    <sodipodi:guide
       position="0,86"
       orientation="66,0"
       id="guide957"
       inkscape:locked="false" />
    <sodipodi:guide
       position="0,20"
       orientation="0,50"
       id="guide959"
       inkscape:locked="false" />
    <sodipodi:guide
       position="50,86"
       orientation="0,-50"
       id="guide963"
       inkscape:locked="false" />
    <sodipodi:guide
       position="8.9999971,64.32985"
       orientation="8.5387222,0"
       id="guide1517"
       inkscape:locked="false" />
    <sodipodi:guide
       position="35,93.437165"
       orientation="-8.5387222,0"
       id="guide1521"
       inkscape:locked="false" />
    <sodipodi:guide
       position="35.227755,64.32985"
       orientation="0,-26.227758"
       id="guide1523"
       inkscape:locked="false" />
    <sodipodi:guide
       position="7.9247812,20.000001"
       orientation="0,-6.8495616"
       id="guide4054"
       inkscape:locked="false" />
  </sodipodi:namedview>
  <defs
     id="defs4462" />
  <metadata
     id="metadata4465">
    <rdf:RDF>
      <cc:Work
         rdf:about="">
        <dc:format>image/svg+xml</dc:format>
        <dc:type
           rdf:resource="http://purl.org/dc/dcmitype/StillImage" />
      </cc:Work>
    </rdf:RDF>
  </metadata>
  <path
     id="path36724"
     style="color:#000000;fill:#666666;fill-opacity:1;stroke-linecap:round;-inkscape-stroke:none"
     d="m 43.505987,11.519531 c -0.1673,-0.05611 -0.203092,0.17933 -0.232422,0.902344 1.38362,4.718958 -1.78471,7.055802 -1.47461,9.4375 0.26741,3.264189 0.656565,6.298212 0.953125,9.507812 0.17926,1.018808 0.128295,1.298455 -0.603515,2.001954 l -2.34961,2.220703 c -0.95869,1.308056 -3.12843,0.282251 -4,-0.427735 -3.42694,-2.791598 -6.408987,-4.677151 -9.835937,-7.46875 -3.58795,-0.24702 -0.357061,2.915718 1.136719,3.761719 3.07444,2.504525 6.148226,5.009147 9.222656,7.513672 -1.23171,0.693324 -3.106339,3.174335 -0.699219,3.349609 1.16574,0.157174 2.776331,0.657916 3.175781,0.919922 0.39945,0.262006 0.290662,0.4301 0.576172,2.746094 0.45231,3.669028 -0.484049,4.533785 -3.099609,6.277344 -4.01811,2.678563 -7.599088,5.637843 -11.617188,8.316406 -1.30768,3.276358 2.54957,1.347297 3.75,0.144531 2.88158,-1.921188 5.763072,-3.842359 8.644532,-5.763672 1.65295,-0.920177 2.322265,-2.389856 2.322265,0.05664 v 7.912109 c -1.5529,-0.432641 -3.731867,0.79172 -2.154297,1.361329 2.06702,1.367147 3.388516,0.839843 6.697266,0.839843 -1.48881,3.856702 -3.170413,7.656917 -4.539063,11.548828 -2.44912,0.951499 -7.068549,-2.98333 -7.443359,0.597657 1.049089,0.554026 2.165952,0.919111 3.314453,1.179687 -0.21758,-0.0094 -0.436464,-0.0067 -0.660156,0.02734 -3.47582,-0.839737 -6.657659,-2.039328 -9.318359,-3.058594 -2.6607,-1.019266 -6.647599,1.507187 -3.986329,1.189453 1.142254,-0.136375 2.655856,0.520672 4.246094,1.427735 -1.66755,0.208739 -3.356274,0.882641 -4.816406,1.787114 -1.701315,0.862301 -2.791458,1.863159 1.256621,0.993492 4.775972,-1.764515 4.007654,-1.434138 7.946504,-0.04427 4.796875,1.050778 11.411179,0.78704 16.796875,0.526153 8.336054,-0.637974 17,0.524625 28.697602,0.265448 0.68427,-0.311288 0.719259,-0.753783 -0.234711,-1.350198 -2.9473,-1.707137 -6.947178,1.255979 -10.460938,-0.144531 -0.335999,-0.133923 -0.67477,-0.270021 -1.013672,-0.400391 3.317346,-0.615883 6.605639,-1.169444 9.984375,-0.435547 2.61668,0.636088 5.23193,0.233765 7.91211,0.78711 1.94707,0.401989 9.897863,-1.097857 6.283203,-1.775391 -2.08398,-0.390622 -5.051805,0.655819 -7.671875,0.08789 -3.89983,-0.845324 -7.554513,-1.951864 -11.501953,-1.695313 -2.64994,0.172224 -4.728655,0.715259 -7.328125,0.216797 -3.48623,-0.668501 -4.516071,-1.157888 -6.431641,-3.517578 l -4.927734,-8.21289 c 1.18877,-0.155065 3.392779,0.66061 2.693359,-1.300781 -0.15469,-3.489189 -0.310064,-6.979513 -0.464844,-10.46875 -0.29625,-1.535386 1.166826,0.291402 1.728516,0.779297 L 67.63294,66 c 3.49265,0.497699 0.778197,-2.705948 -0.689453,-3.511719 -4.27061,-3.710023 -7.873992,-7.419018 -12.144532,-11.128906 -2.01677,-1.365821 -2.11307,-2.077396 -2.21875,-4.472656 L 52.47083,44.416016 c -0.0424,-2.785795 2.751615,-1.951864 2.958985,-2.261719 0.20737,-0.309855 -0.493353,-1.438225 0.867187,-2.294922 4.81111,-4.301769 9.346278,-8.965542 14.054688,-13.363281 0.0941,-3.013405 -2.979167,-0.458679 -3.998047,0.695312 -3.50783,3.081926 -7.015588,6.16411 -10.523438,9.246094 -1.72515,1.077469 -3.10376,2.438898 -3.93164,1.681641 L 46.43958,31.882813 c -0.73969,-1.04508 -1.005847,-1.633656 -1.054687,-2.728516 -0.0882,-1.97696 0.02095,-3.958602 0.03125,-5.9375 2.8457,1.266927 5.691409,2.533854 8.537109,3.800781 0.95072,-1.163215 1.508977,-2.256931 -0.220703,-2.949219 -4.48438,-2.808596 -6.919744,-7.399844 -9.208984,-11.699218 -0.55194,-0.44467 -0.850268,-0.793496 -1.017578,-0.84961 z m 1.464843,22.345703 c 0.174365,-0.0034 0.35792,0.08847 0.5625,0.322266 1.52386,1.741487 3.046453,3.483122 4.570313,5.224609 0.74139,0.770713 0.585617,0.707032 -0.445313,0.707032 h -9.648437 c -0.88555,-1.559919 0.813322,-2.27137 1.820312,-3.392578 0.50077,-0.481597 1.001364,-0.963859 1.501954,-1.445313 0.67491,-0.531382 1.115577,-1.405872 1.638671,-1.416016 z m 1.544922,8.314453 c 3.577545,-0.009 3.465268,0.847207 3.265625,6.855469 -0.006,1.524514 0.334232,3.333433 0.300782,5.056641 0.10613,2.396625 0.212399,4.792962 0.318359,7.189453 6.8e-4,1.095049 0.452684,1.646484 -0.753906,1.646484 -1.2797,0.191926 -0.847657,-0.795718 -0.847657,-1.822265 v -5.632813 c 0.26931,-3.008585 -0.273395,-2.613281 -3.041015,-2.613281 -1.54427,-0.0056 -1.958985,-0.402016 -1.958985,1.154297 v 7.447265 c 0.28387,1.147762 -0.12923,1.085239 -0.49414,1.466797 h -1.238282 c -0.597659,-0.06836 -0.492187,-1.731949 -0.492187,-2.705078 V 42.318359 c 2.145652,-0.0365 3.748891,-0.135666 4.941406,-0.138672 z m 0.546875,23.759766 c 0.715567,-0.127517 1.338501,0.834348 1.845703,1.609375 1.66888,2.550122 3.088335,5.118986 4.515625,7.8125 C 53.873375,76.209474 54.121616,77.080629 53.293096,77 50.183849,76.506727 50.18438,78.077031 48,78.242495 43.25486,78.690606 42.030395,76.378143 42.390752,74.875 c 1.29957,-3.248681 1.778592,-5.635754 3.925781,-8.398437 0.258133,-0.332127 0.507572,-0.494604 0.746094,-0.53711 z M 36.517705,78.699219 c 2.540656,0.989805 7.919645,-0.238613 4.976563,1.224609 -1.687706,0.596575 -3.265891,-0.661676 -4.976563,-1.224609 z"
     sodipodi:nodetypes="scccccsccccssccccscccccccsscccccccsccsssssccccccccccsccccccsccccssccscccssccccsccscccscsssscccssccc" />
</svg>
