<?xml version="1.0" encoding="UTF-8" standalone="no"?>
<svg
   version="1.1"
   width="100"
   height="100"
   id="svg4460"
   sodipodi:docname="uEA3C-tour-a.svg"
   inkscape:version="1.1.1 (3bf5ae0d25, 2021-09-20)"
   xmlns:inkscape="http://www.inkscape.org/namespaces/inkscape"
   xmlns:sodipodi="http://sodipodi.sourceforge.net/DTD/sodipodi-0.dtd"
   xmlns="http://www.w3.org/2000/svg"
   xmlns:svg="http://www.w3.org/2000/svg"
   xmlns:rdf="http://www.w3.org/1999/02/22-rdf-syntax-ns#"
   xmlns:cc="http://creativecommons.org/ns#"
   xmlns:dc="http://purl.org/dc/elements/1.1/">
  <sodipodi:namedview
     pagecolor="#ffffff"
     bordercolor="#666666"
     borderopacity="1"
     objecttolerance="10"
     gridtolerance="10"
     guidetolerance="10"
     inkscape:pageopacity="0"
     inkscape:pageshadow="2"
     inkscape:window-width="2880"
     inkscape:window-height="1541"
     id="namedview11"
     showgrid="true"
     inkscape:zoom="64"
     inkscape:cx="52.515625"
     inkscape:cy="58.242187"
     inkscape:window-x="-11"
     inkscape:window-y="-11"
     inkscape:window-maximized="1"
     inkscape:current-layer="svg4460"
     inkscape:document-rotation="0"
     inkscape:pagecheckerboard="0"
     showguides="true"
     inkscape:guide-bbox="true"
     inkscape:showpageshadow="0"
     inkscape:deskcolor="#d1d1d1">
    <inkscape:grid
       type="xygrid"
       id="grid823"
       originx="0"
       originy="0" />
    <sodipodi:guide
       position="0,86"
       orientation="66,0"
       id="guide957"
       inkscape:locked="false" />
    <sodipodi:guide
       position="0,20"
       orientation="0,50"
       id="guide959"
       inkscape:locked="false" />
    <sodipodi:guide
       position="50,86"
       orientation="0,-50"
       id="guide963"
       inkscape:locked="false" />
    <sodipodi:guide
       position="8.9999971,64.32985"
       orientation="8.5387222,0"
       id="guide1517"
       inkscape:locked="false" />
    <sodipodi:guide
       position="35,93.437165"
       orientation="-8.5387222,0"
       id="guide1521"
       inkscape:locked="false" />
    <sodipodi:guide
       position="35.227755,64.32985"
       orientation="0,-26.227758"
       id="guide1523"
       inkscape:locked="false" />
    <sodipodi:guide
       position="7.9247812,20.000001"
       orientation="0,-6.8495616"
       id="guide4054"
       inkscape:locked="false" />
  </sodipodi:namedview>
  <defs
     id="defs4462" />
  <metadata
     id="metadata4465">
    <rdf:RDF>
      <cc:Work
         rdf:about="">
        <dc:format>image/svg+xml</dc:format>
        <dc:type
           rdf:resource="http://purl.org/dc/dcmitype/StillImage" />
      </cc:Work>
    </rdf:RDF>
  </metadata>
  <path
     id="path980"
     style="color:#000000;fill:#666666;fill-opacity:1;stroke-width:0.854388;stroke-linecap:round;stroke-linejoin:round;-inkscape-stroke:none"
     d="m 49.0653,27.891171 c -1.413742,0.186031 -2.119269,0.632992 -2.331083,2.278225 -0.06681,1.580561 0.08509,3.073226 0.265832,4.582376 -0.07926,0.0363 -0.07028,0.03844 -0.157871,0.07606 -0.665325,0.321805 -0.91362,0.284866 -1.319391,-0.181498 C 44.133947,32.822867 42.846254,30.901066 40.950833,29.90493 40.51447,29.756916 39.941038,29.731056 39.439738,30 c -1.852869,1.334876 -2.214808,3.238417 -2.25859,5.481221 1.129294,3.443418 3.053551,6.125064 4.923147,9.161296 -0.202048,4.112711 -0.769508,7.66718 -0.799045,12.079084 -0.37156,2.079448 -1.195255,3.950821 -2.105552,5.965214 -0.712406,0.05291 -1.978171,0.41152 -4.484961,0.855631 -4.866343,0.862136 -5.137398,5.238827 -4.923146,5.282438 -0.02219,0.0938 -0.03357,0.190166 -0.03382,0.286939 v 7.965143 c -1.723008,-0.166081 -3.161685,-0.362286 -3.833616,0.04379 -8.343495,5.042302 49.150714,4.421803 47.935729,2.01491 2.231701,-0.389462 0.432709,-2.414039 -1.192129,-2.24884 -0.595421,-0.676395 -0.873675,-1.151762 -0.99075,-1.465807 -0.131088,-0.351641 -0.12727,-0.556592 -0.12727,-0.9991 0.0077,-1.49738 -0.315771,-4.273144 0.01706,-6.090804 0.30756,-1.679641 1.306976,-2.409728 0.558598,-3.644374 -1.184599,-1.906554 -5.780618,-1.155157 -7.567278,-1.49346 -0.89333,-0.169152 -1.725985,-0.310777 -2.302081,-0.485722 -0.498687,-0.151437 -0.703086,-0.341897 -0.723335,-0.335338 h -0.0017 c 0.02211,0.03701 -0.111103,-0.393155 -0.20298,-0.9628 -0.09539,-0.591338 -0.194756,-1.377377 -0.289981,-2.276497 -0.28811,-4.97276 -0.729497,-8.911751 -0.995559,-14.09284 l 2.650058,-1.422594 c 1.094396,-1.14412 1.853231,-2.758958 2.439018,-3.934171 0.484359,-0.981669 0.950201,-2.056474 1.253347,-3.125213 0.303139,-1.068739 0.493193,-2.14605 0.159479,-3.220282 -1.149403,-3.69988 -6.63436,-1.692247 -5.99283,-1.692247 -1.467439,0.305162 -1.838773,1.863293 -2.271482,3.101012 -0.209859,0.619241 -0.413837,1.245484 -0.602507,1.738919 -0.461395,0.507037 -0.411915,0.243267 -0.948865,-0.497822 0.05461,-0.394674 0.18043,-1.146208 0.18043,-2.49775 0,-1.661159 -0.07481,-3.666965 -1.353217,-5.038713 -1.967535,-1.70297 -4.198171,-1.14137 -6.490668,-0.560051 z m 4.934422,2.229825 c 0.371193,0.398282 0.708834,1.932544 0.708834,3.368937 0,1.436394 -0.08982,0.125982 -0.190096,2.682705 -0.100282,2.556722 1.386629,2.467812 2.390683,3.144226 0.251513,0.115657 0.561266,0.208306 0.924707,0.172855 0.36344,-0.03545 0.756245,-0.234104 1.021358,-0.518565 0.465421,-0.499387 0.634897,-1.005084 0.858655,-1.590262 0.435291,-1.198028 0.769096,-2.33155 1.288781,-3.470922 4.529056,-1.36265 0.550609,7.557101 -2.266647,9.190683 -0.899813,-0.181053 -4.376208,-0.834888 -8.082275,-0.834888 -3.09108,0 -5.691928,0.478376 -6.917537,0.745003 -0.416765,-0.676455 -1.149263,-1.871942 -2.050775,-3.403508 -0.613963,-1.043053 -1.226377,-2.11265 -1.675417,-2.955814 -0.224516,-0.421583 -0.409655,-0.787544 -0.52518,-1.045772 -0.263414,-1.334802 0.140146,-2.473211 0.881206,-3.400051 0.08319,0.03896 0.199441,0.09754 0.376975,0.243726 1.780796,1.587907 3.05069,4.446686 4.961806,5.097483 0.778994,0 1.39327,-0.285803 1.955723,-0.527207 0.562462,-0.241403 1.010084,-0.482264 1.010084,-0.482264 0.424222,-0.227094 0.665086,-0.720297 0.597673,-1.223811 0,0 -0.201859,-1.521573 -0.301249,-3.014585 -0.04966,-0.746506 -0.06994,-1.490909 -0.03868,-1.960172 8.24e-4,-0.01461 0.0025,-0.0101 0.0033,-0.0242 0.199384,-0.05189 0.411132,-0.06738 0.655667,-0.13137 1.562069,-0.458569 2.908052,-0.696754 4.412409,-0.06223 z m -1.037468,14.587207 c 0.792403,1.147982 -2.221229,0.463485 -2.42291,1.728547 0.172586,0.556583 0.733027,0.85764 1.251731,0.672405 0.503446,-0.180065 1.245339,-0.276335 2.052385,-0.312867 6.539943,0.178559 -2.523365,-0.08529 -1.382082,2.203712 0.988414,0.527939 3.501494,-0.695597 4.117516,-0.431953 1.521793,0.29543 -1.302923,1.383679 -3.430684,1.735854 -0.0904,1.076034 0.165509,1.015779 0.903063,1.278731 -0.242571,0.282707 -0.323899,0.683963 -0.212647,1.049228 0.172585,0.556583 1.857055,0.09741 2.40078,0.0095 2.098897,-0.339339 3.589226,0.892832 1.019737,1.050958 -0.621485,0.05116 -1.26784,0.134799 -1.859071,0.307682 -3.963577,1.817643 3.30789,-0.244333 2.089776,1.13979 -0.108522,0.130197 -3.52222,0.937191 -3.606145,1.127214 -0.846271,1.62533 2.294385,0.132248 3.803083,-0.0051 0.94498,0.349801 0.957343,0.895029 1.04112,1.783753 -1.488043,-0.211994 -2.672351,0.233617 -3.997482,0.698888 -0.518721,0.18518 -1.064465,0.410869 -0.891831,0.967431 0.499,0.595325 0.07852,1.130397 0,1.770031 0.145606,0.470893 0.575667,0.77087 1.035859,0.722533 -0.241416,0.28269 -0.322076,0.683057 -0.211038,1.047499 0.172585,0.556583 1.817882,0.194727 2.336586,0.0095 2.482816,-0.224853 4.941917,0.374278 0.816092,1.28519 -2.610235,3.248828 5.095213,0.579125 6.516675,0.649621 1.37458,0.07254 2.533313,0.188903 3.184896,0.26101 0.18433,0.119639 0.111654,1.352937 0.230107,1.488591 -0.447919,-0.04091 -0.943059,-0.07964 -1.472437,-0.110627 -0.966598,-0.05657 -2.023969,-0.09375 -3.059242,-0.05185 -1.035273,0.0419 -2.048251,0.161587 -2.925538,0.418308 -2.590398,3.176041 4.469269,0.985883 5.878461,1.111931 1.830986,0.163778 4.057951,1.640921 1.253284,1.220857 -2.194109,-0.328619 -8.26153,1.477962 -4.083774,2.355029 0.955529,-0.341756 2.766934,-0.3869 4.26103,-0.280024 0.594275,0.04251 1.135876,0.101309 1.578756,0.157297 0.01889,0.165706 0.04149,0.338423 0.05642,0.496093 -0.325854,-0.04328 -0.688923,-0.08518 -1.080961,-0.117541 -2.102449,-0.633958 -7.886214,1.582269 -3.990389,2.399223 0.986831,-0.352951 2.825712,-0.949229 4.104118,-0.843713 4.085633,2.317078 -3.968439,0.0134 -4.531004,2.826328 0.953838,0.903228 2.304193,0.754068 3.711675,0.624945 1.780366,-0.103262 3.05765,-0.04495 0.868865,0.159851 -4.093707,0.378399 -9.838135,0.851845 -14.686198,1.035363 -0.032,0.0012 -0.0058,-0.05964 -0.0082,-0.09507 -0.05732,-0.801196 -0.100876,-1.912444 -0.133711,-3.037056 -0.06566,-2.249225 -0.08539,-4.627688 -0.08539,-4.770789 0,-0.437044 -0.0598,-1.886031 -1.147011,-3.052612 -0.801231,-0.859708 -1.832041,-1.009472 -2.840153,-1.009472 -1.008113,0 -2.038924,0.149764 -2.840154,1.009472 -0.524331,0.562593 -0.475814,0.937924 -0.544513,1.394936 -0.06871,0.457013 -0.103746,0.979744 -0.124045,1.567792 -0.04058,1.176096 -0.01352,2.604154 0.03868,4.003314 -0.01,2.076804 -0.03505,3.678439 -1.630859,3.807603 -4.485506,-0.228842 -12.357262,-0.547984 -12.357262,-0.888088 v -7.9565 c 0.03349,-0.139238 0.688074,-2.791652 3.291232,-3.489935 1.774078,-0.792562 4.353918,-0.247651 5.665807,-1.502107 1.06788,-2.472828 2.270661,-4.912513 2.590446,-7.607334 0,-0.688345 0.203319,-3.897303 0.409194,-6.768989 -0.627235,-5.760456 3.22871,-5.682527 9.047396,-5.244365 z m 1.515651,6.716472 c 0.990215,-1.296362 0.400745,-0.727229 1.183726,-1.106558 5.372214,-0.728176 2.374303,0.722494 -1.183726,1.106558 z m 4.617343,9.92943 c 0.0082,0.05562 0.01608,0.115458 0.02417,0.169397 -0.316458,-0.03805 -2.149329,0.01403 -2.521842,0.01071 0.424362,-0.169281 2.499499,-1.70722 2.497683,-0.180109 z m -7.892179,9.090426 c 0.87869,1.388621 -3.781224,4.618779 -3.097909,-0.0035 -0.387163,-2.578116 2.846858,-2.009195 3.097909,0.0035 z"
     sodipodi:nodetypes="cccccccccccscccsccscscssccsccccssccccscccczcssccccssccccccccccscccccccccccccscccccccccccccscccccsssscccccccssssssccccsccsccccccccccccccccc" />
</svg>
