<?xml version="1.0" encoding="UTF-8" standalone="no"?>
<svg
   version="1.1"
   width="100"
   height="100"
   id="svg4460"
   sodipodi:docname="calvaire.svg"
   inkscape:version="1.1.1 (3bf5ae0d25, 2021-09-20)"
   xmlns:inkscape="http://www.inkscape.org/namespaces/inkscape"
   xmlns:sodipodi="http://sodipodi.sourceforge.net/DTD/sodipodi-0.dtd"
   xmlns="http://www.w3.org/2000/svg"
   xmlns:svg="http://www.w3.org/2000/svg"
   xmlns:rdf="http://www.w3.org/1999/02/22-rdf-syntax-ns#"
   xmlns:cc="http://creativecommons.org/ns#"
   xmlns:dc="http://purl.org/dc/elements/1.1/">
  <sodipodi:namedview
     pagecolor="#ffffff"
     bordercolor="#666666"
     borderopacity="1"
     objecttolerance="10"
     gridtolerance="10"
     guidetolerance="10"
     inkscape:pageopacity="0"
     inkscape:pageshadow="2"
     inkscape:window-width="2880"
     inkscape:window-height="1541"
     id="namedview11"
     showgrid="true"
     inkscape:zoom="2.8284273"
     inkscape:cx="-69.473238"
     inkscape:cy="2.2980969"
     inkscape:window-x="-11"
     inkscape:window-y="-11"
     inkscape:window-maximized="1"
     inkscape:current-layer="svg4460"
     inkscape:document-rotation="0"
     inkscape:pagecheckerboard="0"
     showguides="true"
     inkscape:guide-bbox="true"
     inkscape:showpageshadow="0"
     inkscape:deskcolor="#d1d1d1">
    <inkscape:grid
       type="xygrid"
       id="grid823"
       originx="0"
       originy="0" />
    <sodipodi:guide
       position="0,86"
       orientation="66,0"
       id="guide957"
       inkscape:locked="false" />
    <sodipodi:guide
       position="0,20"
       orientation="0,50"
       id="guide959"
       inkscape:locked="false" />
    <sodipodi:guide
       position="50,86"
       orientation="0,-50"
       id="guide963"
       inkscape:locked="false" />
    <sodipodi:guide
       position="8.9999971,64.32985"
       orientation="8.5387222,0"
       id="guide1517"
       inkscape:locked="false" />
    <sodipodi:guide
       position="35,93.437165"
       orientation="-8.5387222,0"
       id="guide1521"
       inkscape:locked="false" />
    <sodipodi:guide
       position="35.227755,64.32985"
       orientation="0,-26.227758"
       id="guide1523"
       inkscape:locked="false" />
    <sodipodi:guide
       position="7.9247812,20.000001"
       orientation="0,-6.8495616"
       id="guide4054"
       inkscape:locked="false" />
    <sodipodi:guide
       position="1.0752196,74.999813"
       orientation="0,6.8495616"
       id="guide4058"
       inkscape:locked="false" />
  </sodipodi:namedview>
  <defs
     id="defs4462" />
  <metadata
     id="metadata4465">
    <rdf:RDF>
      <cc:Work
         rdf:about="">
        <dc:format>image/svg+xml</dc:format>
        <dc:type
           rdf:resource="http://purl.org/dc/dcmitype/StillImage" />
      </cc:Work>
    </rdf:RDF>
  </metadata>
  <path
     id="path1048"
     style="color:#000000;fill:#666666;fill-opacity:1;stroke-linecap:round;stroke-linejoin:round;-inkscape-stroke:none"
     d="m 49.250697,39.021487 c -0.395063,0 -0.767761,0.560417 -0.88376,0.956466 -0.518655,1.770814 -0.02522,4.26174 -0.320386,6.15158 -0.107053,0.82794 -0.444654,1.359417 -0.991489,1.458238 -1.876109,0.145139 -3.789317,-0.604652 -5.023202,0.635471 -1.233886,1.240124 2.996491,1.703166 5.289969,1.699592 0.44329,9.31e-4 0.592824,0.646698 0.460081,1.467841 l -0.516165,20.187792 c 0.05806,0.86642 -0.04149,0.895033 -0.743428,0.926639 -1.0367,0.02549 -2.455675,0.101137 -3.292995,0.10501 -0.571048,0.0026 -0.828986,0.629083 -0.644547,1.444185 1.388881,0.901506 4.653619,0.66627 6.571883,0.724371 1.320547,0.04 3.58869,0.08864 4.492718,-0.02731 0.524629,-0.06729 2.070306,-0.532199 0.69829,-1.4237 -1.372016,-0.891501 -2.440248,-0.919444 -3.699261,-0.855004 -0.903956,0.04822 -0.826055,-0.130826 -1.078331,-1.030923 L 50.420619,49.80469 c 2.143706,-0.282861 4.435225,0.179372 5.394673,-0.761654 0.959448,-0.941026 0.06398,-1.250789 -0.374673,-1.36628 -0.877721,-0.231092 -3.046563,-0.154198 -4.076195,-0.216014 -0.736972,0.04154 -0.91194,-0.204984 -1.098679,-0.62222 -0.310493,-1.596407 0.06937,-5.76963 -0.187406,-7.454269 -0.186737,-0.189221 -0.453147,-0.362766 -0.827642,-0.362766 z m -10.90039,37.632812 c -0.743764,0.296842 -0.976926,0.705761 -0.898092,1.110805 0.192926,0.991248 1.883056,0.886662 3.311211,1.189977 h 17.657193 c 0.876066,-0.225364 1.194133,-0.782894 0.931874,-1.249118 -0.355807,-0.632526 -1.031019,-0.903398 -2.769428,-1.051664 z m 20.90625,3.345703 c -3.621449,0.964885 -7.149646,1.669352 -11.173909,1.406135 -4.024263,-0.263217 -11.662029,-1.601447 -15.19358,0.795603 -3.531552,2.397049 7.440972,0.619934 10.028231,0.997465 4.416925,0.41661 9.371522,2.045459 13.356448,-0.02712 C 60.258673,81.099506 69.420619,84.80469 67.55768,82.28408 65.694741,79.763471 61.780823,80.162051 59.256557,80 Z"
     sodipodi:nodetypes="sscczccccscsszccczscccsccsccsccszzczzc" />
</svg>
