<?xml version="1.0" encoding="UTF-8" standalone="no"?>
<svg
   version="1.1"
   width="100"
   height="100"
   id="svg4460"
   sodipodi:docname="uEA3D-entree-mine.svg"
   inkscape:version="1.1.1 (3bf5ae0d25, 2021-09-20)"
   xmlns:inkscape="http://www.inkscape.org/namespaces/inkscape"
   xmlns:sodipodi="http://sodipodi.sourceforge.net/DTD/sodipodi-0.dtd"
   xmlns="http://www.w3.org/2000/svg"
   xmlns:svg="http://www.w3.org/2000/svg"
   xmlns:rdf="http://www.w3.org/1999/02/22-rdf-syntax-ns#"
   xmlns:cc="http://creativecommons.org/ns#"
   xmlns:dc="http://purl.org/dc/elements/1.1/">
  <path
     id="path933"
     style="fill:#666666;fill-opacity:1;stroke-width:1.17694"
     d="m 57.23099,43.798697 c -2.412661,-0.03732 -3.242047,2.203876 -1.330941,3.875591 1.459519,1.2767 4.478374,-0.05602 4.353717,-1.921705 -0.06414,-0.95996 -1.319012,-1.833102 -2.786011,-1.942393 -0.08109,-0.0059 -0.158937,-0.01023 -0.236765,-0.01154 z m -11.583097,0.749374 c -0.955894,-5.46e-4 -1.754573,0.675716 -1.661952,2.061924 0.09638,1.442449 1.154607,2.382221 2.576831,2.287196 1.427758,-0.0954 2.154627,-0.948046 1.783784,-2.08721 -0.486139,-1.49337 -1.681098,-2.261332 -2.698663,-2.26191 z m 21.042203,4.795065 c -0.03001,4.7e-4 -0.06168,0.0026 -0.09195,0.0046 -0.968806,0.06473 -1.708294,0.909222 -1.643563,1.878029 0.06473,0.968805 0.911523,1.708293 1.880328,1.643562 0.968807,-0.06473 1.708296,-0.909223 1.643564,-1.878029 -0.0627,-0.938517 -0.857931,-1.662694 -1.788381,-1.648148 z m -30.6921,0.443647 c -2.412661,-0.03731 -3.23975,2.203876 -1.328644,3.875591 1.459519,1.276697 4.476077,-0.05371 4.35142,-1.919405 -0.06414,-0.959963 -1.316714,-1.835402 -2.783715,-1.944692 -0.08107,-0.0059 -0.161234,-0.01023 -0.239061,-0.01154 z m 17.010301,1.981471 c -5.817226,-0.09322 -9.105197,0.867886 -11.900316,3.92846 -3.312782,3.627392 -5.632603,11.787576 -4.66404,16.405747 0.494141,2.356089 0.0398,2.880718 -2.914738,3.369878 -9.554168,1.581803 -8.247079,4.634292 2.900945,5.12378 3.396644,0.149139 6.01123,0.0079 7.105249,-0.797645 0.693014,-0.510255 1.965554,-1.073919 0.721789,-2.450404 -2.088983,-2.311898 -3.10883,-11.997211 -0.912579,-15.893139 1.407101,-2.49606 4.958556,-3.708967 9.482094,-4.011213 5.092633,-0.34027 7.664729,1.993349 10.249856,5.024935 0.553781,0.649358 1.789967,4.923237 1.220604,9.422329 l -0.98154,7.753479 c 0.504117,0.9247 5.939813,0.910282 5.939813,0.910282 6.990077,0.619074 9.370033,0.06092 9.654497,-2.266509 0.212933,-1.742237 -0.640965,-2.022332 -5.243311,-1.714823 -5.436729,0.363263 -5.489513,0.332344 -4.797365,-2.921633 0.891856,-4.192829 0.146397,-10.459071 -1.570005,-13.20827 -2.821657,-4.51954 -7.576707,-8.567671 -14.290953,-8.675254 z M 73,58 c -0.331803,0.0046 -0.687415,0.116635 -1.039008,0.367791 -0.670492,0.478967 -0.850275,1.387883 -0.399972,2.01825 0.54929,0.768938 1.766828,1.403129 2.553843,0.503413 C 75.235677,59.608143 74.301688,57.981876 73,58 Z m -41.714319,0.177001 c -0.03001,4.68e-4 -0.06167,2.75e-4 -0.09195,0.0023 -0.968807,0.06473 -1.708294,0.911521 -1.643563,1.880328 0.06474,0.968805 0.911522,1.708292 1.880327,1.643563 0.968808,-0.06473 1.708295,-0.911521 1.643563,-1.880329 -0.0627,-0.93853 -0.85793,-1.660408 -1.788379,-1.645861 z m -1.013721,9.380951 c -1.460666,-0.0025 -2.801543,1.799868 -1.7539,3.266438 0.480869,0.67315 1.340575,1.194302 1.910211,1.15624 1.813828,-0.121193 2.496102,-2.684622 1.0505,-3.949147 C 31.100724,67.70079 30.680945,67.55866 30.27196,67.557952 Z m 46.617422,1.036709 c -0.350899,0.0197 -0.711429,0.221535 -1.018319,0.572374 -0.590718,0.675303 -0.674273,1.787837 -0.186194,2.471092 1.279445,1.791071 3.355205,-0.061 2.390637,-2.146977 -0.298406,-0.64533 -0.734968,-0.921823 -1.186124,-0.896489 z" />
  <sodipodi:namedview
     pagecolor="#ffffff"
     bordercolor="#666666"
     borderopacity="1"
     objecttolerance="10"
     gridtolerance="10"
     guidetolerance="10"
     inkscape:pageopacity="0"
     inkscape:pageshadow="2"
     inkscape:window-width="2880"
     inkscape:window-height="1541"
     id="namedview11"
     showgrid="true"
     inkscape:zoom="8"
     inkscape:cx="35.625"
     inkscape:cy="65.8125"
     inkscape:window-x="2869"
     inkscape:window-y="-11"
     inkscape:window-maximized="1"
     inkscape:current-layer="svg4460"
     inkscape:document-rotation="0"
     inkscape:pagecheckerboard="0"
     showguides="true"
     inkscape:guide-bbox="true"
     inkscape:showpageshadow="0"
     inkscape:deskcolor="#d1d1d1">
    <inkscape:grid
       type="xygrid"
       id="grid823"
       originx="0"
       originy="0" />
    <sodipodi:guide
       position="0,86"
       orientation="66,0"
       id="guide957"
       inkscape:locked="false" />
    <sodipodi:guide
       position="0,20"
       orientation="0,50"
       id="guide959"
       inkscape:locked="false" />
    <sodipodi:guide
       position="50,86"
       orientation="0,-50"
       id="guide963"
       inkscape:locked="false" />
    <sodipodi:guide
       position="8.9999971,64.32985"
       orientation="8.5387222,0"
       id="guide1517"
       inkscape:locked="false" />
    <sodipodi:guide
       position="35,93.437165"
       orientation="-8.5387222,0"
       id="guide1521"
       inkscape:locked="false" />
    <sodipodi:guide
       position="35.227755,64.32985"
       orientation="0,-26.227758"
       id="guide1523"
       inkscape:locked="false" />
    <sodipodi:guide
       position="7.9247812,20.000001"
       orientation="0,-6.8495616"
       id="guide4054"
       inkscape:locked="false" />
    <sodipodi:guide
       position="1.0752196,74.999813"
       orientation="0,6.8495616"
       id="guide4058"
       inkscape:locked="false" />
  </sodipodi:namedview>
  <defs
     id="defs4462" />
  <metadata
     id="metadata4465">
    <rdf:RDF>
      <cc:Work
         rdf:about="">
        <dc:format>image/svg+xml</dc:format>
        <dc:type
           rdf:resource="http://purl.org/dc/dcmitype/StillImage" />
      </cc:Work>
    </rdf:RDF>
  </metadata>
</svg>
